G04 DipTrace 3.2.0.1*
G04 BottomSilk.gbr*
%MOMM*%
G04 #@! TF.FileFunction,Legend,Bot*
G04 #@! TF.Part,Single*
%ADD12C,0.0762*%
%ADD13C,0.06667*%
%ADD15C,0.2*%
%ADD21C,0.15*%
%FSLAX35Y35*%
G04*
G71*
G90*
G75*
G01*
G04 BotSilk*
%LPD*%
X-1279012Y1559000D2*
D21*
X-1059000D1*
Y2180006D1*
X-1279012D1*
Y1559000D1*
X1060988D2*
X1281000D1*
Y2180006D1*
X1060988D1*
Y1559000D1*
X1066000Y-1083000D2*
X1273000D1*
Y-876000D1*
X1066000D1*
Y-1083000D1*
X-1066000Y-877000D2*
X-1273000D1*
Y-1084000D1*
X-1066000D1*
Y-877000D1*
X-930000Y2154000D2*
D15*
X930000D1*
Y-1103000D1*
X-930000D1*
Y2154000D1*
X-730000Y1303000D2*
X730000D1*
Y-903000D1*
X-730000D1*
Y1303000D1*
X1020040Y-752887D2*
D13*
X1056707D1*
X1100040D2*
X1113373D1*
X1166707D2*
X1180040D1*
X1220040D2*
X1253373D1*
X1013241Y-756220D2*
X1062861D1*
X1100040D2*
X1113373D1*
X1166707D2*
X1180040D1*
X1215424D2*
X1260911D1*
X1007607Y-759553D2*
X1067420D1*
X1100040D2*
X1113373D1*
X1166707D2*
X1180040D1*
X1212005D2*
X1267034D1*
X1003358Y-762887D2*
X1020822D1*
X1052718D2*
X1068811D1*
X1100040D2*
X1113373D1*
X1166694D2*
X1180040D1*
X1210962D2*
X1223373D1*
X1252705D2*
X1271530D1*
X1000304Y-766220D2*
X1015980D1*
X1054668D2*
X1069534D1*
X1100040D2*
X1113373D1*
X1166563D2*
X1180040D1*
X1210420D2*
X1223373D1*
X1257858D2*
X1274691D1*
X997996Y-769553D2*
X1012459D1*
X1055784D2*
X1069847D1*
X1100040D2*
X1113373D1*
X1166008D2*
X1180040D1*
X1210184D2*
X1223373D1*
X1261765D2*
X1276949D1*
X996161Y-772887D2*
X1009994D1*
X1056325D2*
X1069971D1*
X1100040D2*
X1113373D1*
X1164668D2*
X1180040D1*
X1210092D2*
X1223373D1*
X1264404D2*
X1278591D1*
X994705Y-776220D2*
X1008348D1*
X1056560D2*
X1070016D1*
X1100040D2*
X1113373D1*
X1162577D2*
X1180040D1*
X1210058D2*
X1223373D1*
X1266188D2*
X1279879D1*
X993491Y-779553D2*
X1007322D1*
X1056653D2*
X1070032D1*
X1100040D2*
X1113373D1*
X1160213D2*
X1180040D1*
X1210046D2*
X1223373D1*
X1267624D2*
X1281096D1*
X992302Y-782887D2*
X1006459D1*
X1056688D2*
X1070037D1*
X1100040D2*
X1113373D1*
X1157913D2*
X1180040D1*
X1210042D2*
X1223373D1*
X1268748D2*
X1282133D1*
X991275Y-786220D2*
X1005472D1*
X1056700D2*
X1070039D1*
X1100040D2*
X1113373D1*
X1155527D2*
X1180040D1*
X1210041D2*
X1223373D1*
X1269436D2*
X1282787D1*
X990625Y-789553D2*
X1004542D1*
X1056705D2*
X1070040D1*
X1100040D2*
X1113373D1*
X1152810D2*
X1180040D1*
X1210040D2*
X1223373D1*
X1269784D2*
X1283124D1*
X990289Y-792887D2*
X1003933D1*
X1056706D2*
X1070040D1*
X1100040D2*
X1113373D1*
X1149799D2*
X1180040D1*
X1210040D2*
X1223373D1*
X1269939D2*
X1283275D1*
X990138Y-796220D2*
X1003613D1*
X1036707D2*
X1070040D1*
X1100040D2*
X1113373D1*
X1146611D2*
X1160040D1*
X1166707D2*
X1180040D1*
X1210040D2*
X1223373D1*
X1270003D2*
X1283337D1*
X990077Y-799553D2*
X1003482D1*
X1036707D2*
X1070040D1*
X1100040D2*
X1113373D1*
X1143338D2*
X1156707D1*
X1166707D2*
X1180040D1*
X1210040D2*
X1223373D1*
X1270027D2*
X1283360D1*
X990066Y-802887D2*
X1003539D1*
X1036707D2*
X1070040D1*
X1100040D2*
X1113373D1*
X1140027D2*
X1153373D1*
X1166707D2*
X1180040D1*
X1210040D2*
X1223373D1*
X1270035D2*
X1283369D1*
X990175Y-806220D2*
X1003941D1*
X1100040D2*
X1113373D1*
X1136702D2*
X1150040D1*
X1166707D2*
X1180040D1*
X1210040D2*
X1223373D1*
X1270038D2*
X1283372D1*
X990597Y-809553D2*
X1004731D1*
X1100040D2*
X1113373D1*
X1133372D2*
X1146707D1*
X1166707D2*
X1180040D1*
X1210040D2*
X1223373D1*
X1270026D2*
X1283360D1*
X991407Y-812887D2*
X1005596D1*
X1100040D2*
X1113386D1*
X1130027D2*
X1143373D1*
X1166707D2*
X1180040D1*
X1210040D2*
X1223373D1*
X1269910D2*
X1283243D1*
X992378Y-816220D2*
X1006306D1*
X1100040D2*
X1113513D1*
X1126567D2*
X1140053D1*
X1166707D2*
X1180040D1*
X1210040D2*
X1223373D1*
X1269472D2*
X1282805D1*
X993397Y-819553D2*
X1007170D1*
X1100040D2*
X1114028D1*
X1122718D2*
X1136837D1*
X1166707D2*
X1180040D1*
X1210040D2*
X1223373D1*
X1268543D2*
X1281890D1*
X994635Y-822887D2*
X1008678D1*
X1100040D2*
X1115168D1*
X1118245D2*
X1133928D1*
X1166707D2*
X1180040D1*
X1210040D2*
X1223373D1*
X1267121D2*
X1280597D1*
X996186Y-826220D2*
X1011205D1*
X1100040D2*
X1131393D1*
X1166707D2*
X1180040D1*
X1210040D2*
X1223373D1*
X1264952D2*
X1279087D1*
X998179Y-829553D2*
X1014600D1*
X1100040D2*
X1128915D1*
X1166707D2*
X1180040D1*
X1210040D2*
X1223373D1*
X1261971D2*
X1277356D1*
X1000745Y-832887D2*
X1025130D1*
X1100040D2*
X1126163D1*
X1166707D2*
X1180040D1*
X1210040D2*
X1223373D1*
X1252749D2*
X1275149D1*
X1003938Y-836220D2*
X1042129D1*
X1060040D2*
X1066707D1*
X1100040D2*
X1123138D1*
X1166707D2*
X1180040D1*
X1210040D2*
X1223373D1*
X1238143D2*
X1272020D1*
X1008128Y-839553D2*
X1065847D1*
X1100040D2*
X1119947D1*
X1166707D2*
X1180040D1*
X1210040D2*
X1267726D1*
X1013668Y-842887D2*
X1063233D1*
X1100040D2*
X1116674D1*
X1166707D2*
X1180040D1*
X1210040D2*
X1262435D1*
X1020040Y-846220D2*
X1060040D1*
X1100040D2*
X1113373D1*
X1166707D2*
X1180040D1*
X1210040D2*
X1256707D1*
X-1224533Y-754703D2*
X-1207867D1*
X-1144533D2*
X-1111200D1*
X-1044533D2*
X-1011200D1*
X-1225061Y-758037D2*
X-1206600D1*
X-1149149D2*
X-1103663D1*
X-1049149D2*
X-1003663D1*
X-1226005Y-761370D2*
X-1205168D1*
X-1152568D2*
X-1097540D1*
X-1052568D2*
X-997540D1*
X-1227293Y-764703D2*
X-1203620D1*
X-1153611D2*
X-1141200D1*
X-1111868D2*
X-1093044D1*
X-1053611D2*
X-1041200D1*
X-1011868D2*
X-993044D1*
X-1228688Y-768037D2*
X-1202001D1*
X-1154154D2*
X-1141200D1*
X-1106716D2*
X-1089883D1*
X-1054154D2*
X-1041200D1*
X-1006716D2*
X-989883D1*
X-1229970Y-771370D2*
X-1217994D1*
X-1210672D2*
X-1200357D1*
X-1154389D2*
X-1141200D1*
X-1102808D2*
X-1087625D1*
X-1054389D2*
X-1041200D1*
X-1002808D2*
X-987625D1*
X-1231117Y-774703D2*
X-1218434D1*
X-1209728D2*
X-1198695D1*
X-1154481D2*
X-1141200D1*
X-1100169D2*
X-1085983D1*
X-1054481D2*
X-1041200D1*
X-1000169D2*
X-985983D1*
X-1232296Y-778037D2*
X-1219350D1*
X-1208427D2*
X-1197033D1*
X-1154515D2*
X-1141200D1*
X-1098385D2*
X-1084695D1*
X-1054515D2*
X-1041200D1*
X-998385D2*
X-984695D1*
X-1233432Y-781370D2*
X-1220630D1*
X-1206928D2*
X-1195365D1*
X-1154527D2*
X-1141200D1*
X-1096949D2*
X-1083477D1*
X-1054527D2*
X-1041200D1*
X-996949D2*
X-983477D1*
X-1234518Y-784703D2*
X-1222022D1*
X-1205339D2*
X-1193701D1*
X-1154531D2*
X-1141200D1*
X-1095825D2*
X-1082441D1*
X-1054531D2*
X-1041200D1*
X-995825D2*
X-982441D1*
X-1235768Y-788037D2*
X-1223303D1*
X-1203804D2*
X-1192045D1*
X-1154533D2*
X-1141200D1*
X-1095138D2*
X-1081786D1*
X-1054533D2*
X-1041200D1*
X-995138D2*
X-981786D1*
X-1237198Y-791370D2*
X-1224451D1*
X-1202465D2*
X-1190485D1*
X-1154533D2*
X-1141200D1*
X-1094789D2*
X-1081450D1*
X-1054533D2*
X-1041200D1*
X-994789D2*
X-981450D1*
X-1238652Y-794703D2*
X-1225630D1*
X-1201282D2*
X-1189136D1*
X-1154533D2*
X-1141200D1*
X-1094634D2*
X-1081299D1*
X-1054533D2*
X-1041200D1*
X-994634D2*
X-981299D1*
X-1239957Y-798037D2*
X-1226766D1*
X-1199991D2*
X-1187963D1*
X-1154533D2*
X-1141200D1*
X-1094571D2*
X-1081237D1*
X-1054533D2*
X-1041200D1*
X-994571D2*
X-981237D1*
X-1241113Y-801370D2*
X-1227838D1*
X-1198544D2*
X-1186775D1*
X-1154533D2*
X-1141200D1*
X-1094547D2*
X-1081213D1*
X-1054533D2*
X-1041200D1*
X-994547D2*
X-981213D1*
X-1242295Y-804703D2*
X-1228984D1*
X-1197084D2*
X-1185636D1*
X-1154533D2*
X-1141200D1*
X-1094538D2*
X-1081204D1*
X-1054533D2*
X-1041200D1*
X-994538D2*
X-981204D1*
X-1243432Y-808037D2*
X-1230107D1*
X-1195777D2*
X-1184562D1*
X-1154533D2*
X-1141200D1*
X-1094535D2*
X-1081201D1*
X-1054533D2*
X-1041200D1*
X-994535D2*
X-981201D1*
X-1244518Y-811370D2*
X-1231187D1*
X-1194621D2*
X-1183416D1*
X-1154533D2*
X-1141200D1*
X-1094547D2*
X-1081214D1*
X-1054533D2*
X-1041200D1*
X-994547D2*
X-981214D1*
X-1245768Y-814703D2*
X-1232436D1*
X-1193451D2*
X-1182293D1*
X-1154533D2*
X-1141200D1*
X-1094664D2*
X-1081330D1*
X-1054533D2*
X-1041200D1*
X-994664D2*
X-981330D1*
X-1247198Y-818037D2*
X-1233865D1*
X-1192419D2*
X-1181226D1*
X-1154533D2*
X-1141200D1*
X-1095101D2*
X-1081768D1*
X-1054533D2*
X-1041200D1*
X-995101D2*
X-981768D1*
X-1248652Y-821370D2*
X-1235319D1*
X-1191653D2*
X-1180095D1*
X-1154533D2*
X-1141200D1*
X-1096030D2*
X-1082684D1*
X-1054533D2*
X-1041200D1*
X-996030D2*
X-982684D1*
X-1249957Y-824703D2*
X-1236624D1*
X-1190894D2*
X-1179077D1*
X-1154533D2*
X-1141200D1*
X-1097453D2*
X-1083976D1*
X-1054533D2*
X-1041200D1*
X-997453D2*
X-983976D1*
X-1251113Y-828037D2*
X-1237780D1*
X-1189945D2*
X-1178317D1*
X-1154533D2*
X-1141200D1*
X-1099622D2*
X-1085486D1*
X-1054533D2*
X-1041200D1*
X-999622D2*
X-985486D1*
X-1252295Y-831370D2*
X-1238962D1*
X-1189016D2*
X-1177560D1*
X-1154533D2*
X-1141200D1*
X-1102603D2*
X-1087218D1*
X-1054533D2*
X-1041200D1*
X-1002603D2*
X-987218D1*
X-1253432Y-834703D2*
X-1240098D1*
X-1188293D2*
X-1176611D1*
X-1154533D2*
X-1141200D1*
X-1111825D2*
X-1089424D1*
X-1054533D2*
X-1041200D1*
X-1011825D2*
X-989424D1*
X-1254507Y-838037D2*
X-1241174D1*
X-1187549D2*
X-1175695D1*
X-1154533D2*
X-1141200D1*
X-1126430D2*
X-1092554D1*
X-1054533D2*
X-1041200D1*
X-1026430D2*
X-992554D1*
X-1255669Y-841370D2*
X-1242336D1*
X-1186578D2*
X-1175088D1*
X-1154533D2*
X-1096848D1*
X-1054533D2*
X-996848D1*
X-1256818Y-844703D2*
X-1243484D1*
X-1185524D2*
X-1174752D1*
X-1154533D2*
X-1102138D1*
X-1054533D2*
X-1002138D1*
X-1257867Y-848037D2*
X-1244533D1*
X-1184533D2*
X-1174533D1*
X-1154533D2*
X-1107867D1*
X-1054533D2*
X-1007867D1*
X1104770Y1113110D2*
X1138103D1*
X1214770D2*
X1251437D1*
X1100154Y1109777D2*
X1145641D1*
X1208771D2*
X1252988D1*
X1096735Y1106443D2*
X1151764D1*
X1203606D2*
X1254018D1*
X1095692Y1103110D2*
X1108103D1*
X1137435D2*
X1156260D1*
X1199594D2*
X1218771D1*
X1248103D2*
X1254770D1*
X1095150Y1099777D2*
X1108103D1*
X1142588D2*
X1159421D1*
X1196648D2*
X1213619D1*
X1094914Y1096443D2*
X1108103D1*
X1146495D2*
X1161679D1*
X1194477D2*
X1209724D1*
X1094822Y1093110D2*
X1108103D1*
X1149134D2*
X1163321D1*
X1192868D2*
X1206765D1*
X1094788Y1089777D2*
X1108103D1*
X1150918D2*
X1164609D1*
X1191592D2*
X1205607D1*
X1094776Y1086443D2*
X1108103D1*
X1152354D2*
X1165826D1*
X1190379D2*
X1204625D1*
X1094772Y1083110D2*
X1108103D1*
X1153478D2*
X1166863D1*
X1189343D2*
X1203576D1*
X1094771Y1079777D2*
X1108103D1*
X1154166D2*
X1167517D1*
X1188689D2*
X1202621D1*
X1094770Y1076443D2*
X1108103D1*
X1154514D2*
X1167854D1*
X1188353D2*
X1202001D1*
X1094770Y1073110D2*
X1108103D1*
X1154669D2*
X1168005D1*
X1188202D2*
X1201679D1*
X1094770Y1069777D2*
X1108103D1*
X1154733D2*
X1168067D1*
X1188140D2*
X1201532D1*
X1094770Y1066443D2*
X1108103D1*
X1154757D2*
X1168090D1*
X1188116D2*
X1201472D1*
X1094770Y1063110D2*
X1108103D1*
X1154765D2*
X1168099D1*
X1188108D2*
X1201449D1*
X1094770Y1059777D2*
X1108103D1*
X1154768D2*
X1168102D1*
X1188118D2*
X1201454D1*
X1094770Y1056443D2*
X1108103D1*
X1154756D2*
X1168090D1*
X1188234D2*
X1201568D1*
X1094770Y1053110D2*
X1108103D1*
X1154640D2*
X1167973D1*
X1188659D2*
X1201992D1*
X1094770Y1049777D2*
X1108103D1*
X1154202D2*
X1167535D1*
X1189470D2*
X1202803D1*
X1094770Y1046443D2*
X1108103D1*
X1153273D2*
X1166620D1*
X1190442D2*
X1203788D1*
X1094770Y1043110D2*
X1108103D1*
X1151851D2*
X1165327D1*
X1191461D2*
X1204937D1*
X1094770Y1039777D2*
X1108103D1*
X1149682D2*
X1163817D1*
X1192698D2*
X1206392D1*
X1094770Y1036443D2*
X1108103D1*
X1146701D2*
X1162086D1*
X1194262D2*
X1209667D1*
X1094770Y1033110D2*
X1108103D1*
X1137479D2*
X1159879D1*
X1196386D2*
X1219411D1*
X1094770Y1029777D2*
X1108103D1*
X1122873D2*
X1156750D1*
X1199480D2*
X1235142D1*
X1094770Y1026443D2*
X1152456D1*
X1203759D2*
X1254770D1*
X1094770Y1023110D2*
X1147165D1*
X1209044D2*
X1253207D1*
X1094770Y1019777D2*
X1141437D1*
X1214770D2*
X1251437D1*
X1028817Y987507D2*
X1042150D1*
X1085483D2*
X1098817D1*
X1128817D2*
X1162150D1*
X1225483D2*
X1238817D1*
X1028817Y984173D2*
X1042150D1*
X1084217D2*
X1097550D1*
X1115483D2*
X1166895D1*
X1225483D2*
X1238817D1*
X1028817Y980840D2*
X1042150D1*
X1082797D2*
X1096131D1*
X1117254D2*
X1170745D1*
X1225483D2*
X1238817D1*
X1028817Y977507D2*
X1042150D1*
X1081354D2*
X1094687D1*
X1118817D2*
X1128817D1*
X1158677D2*
X1173634D1*
X1225483D2*
X1238817D1*
X1028817Y974173D2*
X1042150D1*
X1080055D2*
X1093388D1*
X1161440D2*
X1175772D1*
X1225483D2*
X1238817D1*
X1028817Y970840D2*
X1042150D1*
X1078889D2*
X1092222D1*
X1163693D2*
X1177245D1*
X1225483D2*
X1238817D1*
X1028817Y967507D2*
X1042150D1*
X1077591D2*
X1090937D1*
X1164329D2*
X1177977D1*
X1225483D2*
X1238817D1*
X1028817Y964173D2*
X1042150D1*
X1075926D2*
X1089480D1*
X1163488D2*
X1177954D1*
X1225483D2*
X1238817D1*
X1028817Y960840D2*
X1042150D1*
X1073844D2*
X1087903D1*
X1161059D2*
X1177206D1*
X1225483D2*
X1238817D1*
X1028817Y957507D2*
X1042150D1*
X1067092D2*
X1086160D1*
X1157841D2*
X1175868D1*
X1225483D2*
X1238817D1*
X1028817Y954173D2*
X1042150D1*
X1056043D2*
X1084084D1*
X1153840D2*
X1173961D1*
X1225483D2*
X1238817D1*
X1028817Y950840D2*
X1081562D1*
X1149328D2*
X1171454D1*
X1225483D2*
X1238817D1*
X1028817Y947507D2*
X1078817D1*
X1144640D2*
X1168513D1*
X1225483D2*
X1238817D1*
X1028817Y944173D2*
X1083562D1*
X1140040D2*
X1165227D1*
X1225483D2*
X1238817D1*
X1028817Y940840D2*
X1042150D1*
X1070967D2*
X1087412D1*
X1135563D2*
X1161423D1*
X1225483D2*
X1238817D1*
X1028817Y937507D2*
X1042150D1*
X1075293D2*
X1090301D1*
X1131079D2*
X1156881D1*
X1225483D2*
X1238817D1*
X1028817Y934173D2*
X1042150D1*
X1078325D2*
X1092439D1*
X1126845D2*
X1151787D1*
X1225483D2*
X1238817D1*
X1028817Y930840D2*
X1042150D1*
X1080596D2*
X1093925D1*
X1123301D2*
X1146596D1*
X1225483D2*
X1238817D1*
X1028817Y927507D2*
X1042150D1*
X1081395D2*
X1094774D1*
X1120562D2*
X1141588D1*
X1225483D2*
X1238817D1*
X1028817Y924173D2*
X1042150D1*
X1081828D2*
X1095188D1*
X1118488D2*
X1137080D1*
X1225483D2*
X1238817D1*
X1028817Y920840D2*
X1042150D1*
X1082011D2*
X1095356D1*
X1117028D2*
X1133534D1*
X1225483D2*
X1238817D1*
X1028817Y917507D2*
X1042150D1*
X1081947D2*
X1095311D1*
X1116201D2*
X1130802D1*
X1225483D2*
X1238817D1*
X1028817Y914173D2*
X1042150D1*
X1081634D2*
X1094900D1*
X1115920D2*
X1130301D1*
X1225483D2*
X1238817D1*
X1028817Y910840D2*
X1042150D1*
X1079537D2*
X1093982D1*
X1116009D2*
X1130324D1*
X1225483D2*
X1238817D1*
X1028817Y907507D2*
X1042150D1*
X1070928D2*
X1092549D1*
X1117531D2*
X1138436D1*
X1225483D2*
X1238817D1*
X1028817Y904173D2*
X1042150D1*
X1056681D2*
X1090362D1*
X1120020D2*
X1151839D1*
X1168817D2*
X1172150D1*
X1225483D2*
X1238817D1*
X1028817Y900840D2*
X1086818D1*
X1123842D2*
X1172150D1*
X1192150D2*
X1268817D1*
X1028817Y897507D2*
X1081628D1*
X1129211D2*
X1172150D1*
X1192150D2*
X1268817D1*
X1028817Y894173D2*
X1075483D1*
X1135483D2*
X1172150D1*
X1192150D2*
X1268817D1*
X1111967Y857430D2*
X1148633D1*
X1215300D2*
X1228633D1*
X1107351Y854097D2*
X1155031D1*
X1215300D2*
X1228633D1*
X1103932Y850763D2*
X1160149D1*
X1215300D2*
X1228633D1*
X1102889Y847430D2*
X1115300D1*
X1144505D2*
X1163896D1*
X1215300D2*
X1228633D1*
X1102346Y844097D2*
X1115300D1*
X1149230D2*
X1166724D1*
X1215300D2*
X1228633D1*
X1102111Y840763D2*
X1115300D1*
X1152864D2*
X1167710D1*
X1215300D2*
X1228633D1*
X1102019Y837430D2*
X1115300D1*
X1154127D2*
X1168241D1*
X1215300D2*
X1228646D1*
X1101985Y834097D2*
X1115300D1*
X1154791D2*
X1168467D1*
X1215287D2*
X1228777D1*
X1101973Y830763D2*
X1115300D1*
X1154951D2*
X1168447D1*
X1215170D2*
X1229332D1*
X1101969Y827430D2*
X1115300D1*
X1154753D2*
X1168045D1*
X1214732D2*
X1230672D1*
X1101967Y824097D2*
X1115300D1*
X1152677D2*
X1167117D1*
X1213803D2*
X1232763D1*
X1101967Y820763D2*
X1115300D1*
X1144073D2*
X1165608D1*
X1212407D2*
X1235127D1*
X1101967Y817430D2*
X1115300D1*
X1129830D2*
X1163374D1*
X1210589D2*
X1237427D1*
X1101967Y814097D2*
X1160549D1*
X1208510D2*
X1239800D1*
X1101967Y810763D2*
X1157786D1*
X1206495D2*
X1222495D1*
X1229288D2*
X1242399D1*
X1101967Y807430D2*
X1155300D1*
X1204630D2*
X1220105D1*
X1230659D2*
X1244973D1*
X1101967Y804097D2*
X1115300D1*
X1145160D2*
X1158893D1*
X1202865D2*
X1218073D1*
X1232759D2*
X1247245D1*
X1101967Y800763D2*
X1115300D1*
X1147936D2*
X1161634D1*
X1201147D2*
X1216239D1*
X1235113D2*
X1249226D1*
X1101967Y797430D2*
X1115300D1*
X1149915D2*
X1163466D1*
X1199357D2*
X1214495D1*
X1237297D2*
X1251040D1*
X1101967Y794097D2*
X1115300D1*
X1151040D2*
X1164479D1*
X1197367D2*
X1212696D1*
X1239244D2*
X1252763D1*
X1101967Y790763D2*
X1115300D1*
X1151571D2*
X1164963D1*
X1195218D2*
X1210702D1*
X1241046D2*
X1254455D1*
X1101967Y787430D2*
X1115300D1*
X1151676D2*
X1165157D1*
X1193176D2*
X1208551D1*
X1242765D2*
X1256128D1*
X1101967Y784097D2*
X1115300D1*
X1151481D2*
X1165109D1*
X1191289D2*
X1206509D1*
X1244443D2*
X1257787D1*
X1101967Y780763D2*
X1115300D1*
X1149802D2*
X1164585D1*
X1189416D2*
X1204635D1*
X1246011D2*
X1259335D1*
X1101967Y777430D2*
X1115300D1*
X1142720D2*
X1163230D1*
X1187389D2*
X1202866D1*
X1247362D2*
X1260580D1*
X1101967Y774097D2*
X1115300D1*
X1130652D2*
X1160899D1*
X1185215D2*
X1201150D1*
X1248539D2*
X1261455D1*
X1101967Y770763D2*
X1157596D1*
X1183080D2*
X1199378D1*
X1249743D2*
X1262348D1*
X1101967Y767430D2*
X1153367D1*
X1180910D2*
X1197427D1*
X1250909D2*
X1263661D1*
X1101967Y764097D2*
X1148633D1*
X1178633D2*
X1195300D1*
X1251967D2*
X1265300D1*
X-1240830Y1117253D2*
X-1200830D1*
X-1164163D2*
X-1127497D1*
X-1240830Y1113920D2*
X-1195347D1*
X-1164163D2*
X-1121086D1*
X-1240830Y1110587D2*
X-1191020D1*
X-1164163D2*
X-1115851D1*
X-1240830Y1107253D2*
X-1237497D1*
X-1205474D2*
X-1187989D1*
X-1164163D2*
X-1160830D1*
X-1131498D2*
X-1111679D1*
X-1200967Y1103920D2*
X-1185717D1*
X-1126333D2*
X-1108458D1*
X-1198944Y1100587D2*
X-1184918D1*
X-1122321D2*
X-1106187D1*
X-1198466Y1097253D2*
X-1184498D1*
X-1119375D2*
X-1104571D1*
X-1199465Y1093920D2*
X-1184433D1*
X-1117217D2*
X-1103205D1*
X-1202305Y1090587D2*
X-1184908D1*
X-1115725D2*
X-1102107D1*
X-1206035Y1087253D2*
X-1186231D1*
X-1114874D2*
X-1101429D1*
X-1210425Y1083920D2*
X-1188442D1*
X-1114459D2*
X-1101084D1*
X-1215159Y1080587D2*
X-1191344D1*
X-1114278D2*
X-1100930D1*
X-1220045Y1077253D2*
X-1194879D1*
X-1114205D2*
X-1100867D1*
X-1224886Y1073920D2*
X-1199034D1*
X-1114178D2*
X-1100843D1*
X-1229424Y1070587D2*
X-1203612D1*
X-1114168D2*
X-1100835D1*
X-1233384Y1067253D2*
X-1208326D1*
X-1114165D2*
X-1100832D1*
X-1236655Y1063920D2*
X-1212935D1*
X-1114164D2*
X-1100830D1*
X-1239226Y1060587D2*
X-1217402D1*
X-1114177D2*
X-1100843D1*
X-1241217Y1057253D2*
X-1221770D1*
X-1114294D2*
X-1100960D1*
X-1242642Y1053920D2*
X-1225567D1*
X-1114731D2*
X-1101385D1*
X-1243467Y1050587D2*
X-1228628D1*
X-1115660D2*
X-1102196D1*
X-1243860Y1047253D2*
X-1229737D1*
X-1117083D2*
X-1103181D1*
X-1243920Y1043920D2*
X-1230228D1*
X-1119252D2*
X-1104318D1*
X-1243541Y1040587D2*
X-1230361D1*
X-1122233D2*
X-1105980D1*
X-1242509Y1037253D2*
X-1222751D1*
X-1131455D2*
X-1108355D1*
X-1240956Y1033920D2*
X-1210095D1*
X-1197497D2*
X-1184163D1*
X-1164163D2*
X-1160830D1*
X-1146060D2*
X-1111457D1*
X-1237392Y1030587D2*
X-1185882D1*
X-1165726D2*
X-1115608D1*
X-1232728Y1027253D2*
X-1191110D1*
X-1167497D2*
X-1121133D1*
X-1227497Y1023920D2*
X-1197497D1*
X-1160830D2*
X-1127497D1*
X-1211093Y971360D2*
X-1174427D1*
X-1147760D2*
X-1091093D1*
X-1071093D2*
X-1057760D1*
X-1011093D2*
X-997760D1*
X-1217092Y968027D2*
X-1172876D1*
X-1147760D2*
X-1091093D1*
X-1071093D2*
X-1057760D1*
X-1012759D2*
X-999026D1*
X-1222257Y964693D2*
X-1171845D1*
X-1147760D2*
X-1091093D1*
X-1071093D2*
X-1057760D1*
X-1014157D2*
X-1000459D1*
X-1226269Y961360D2*
X-1207092D1*
X-1177760D2*
X-1171093D1*
X-1147760D2*
X-1134427D1*
X-1071093D2*
X-1057760D1*
X-1015557D2*
X-1002007D1*
X-1229215Y958027D2*
X-1212244D1*
X-1147760D2*
X-1134427D1*
X-1071093D2*
X-1057760D1*
X-1017065D2*
X-1003613D1*
X-1231386Y954693D2*
X-1216139D1*
X-1147760D2*
X-1134427D1*
X-1071093D2*
X-1057747D1*
X-1018662D2*
X-1005153D1*
X-1232995Y951360D2*
X-1219098D1*
X-1147760D2*
X-1134427D1*
X-1071093D2*
X-1057617D1*
X-1020400D2*
X-1006507D1*
X-1234271Y948027D2*
X-1220256D1*
X-1147760D2*
X-1134427D1*
X-1071093D2*
X-1057062D1*
X-1022371D2*
X-1007795D1*
X-1235485Y944693D2*
X-1221239D1*
X-1147760D2*
X-1134427D1*
X-1071093D2*
X-1056022D1*
X-1024578D2*
X-1009407D1*
X-1236520Y941360D2*
X-1222287D1*
X-1147760D2*
X-1134427D1*
X-1071093D2*
X-1053032D1*
X-1027242D2*
X-1011357D1*
X-1237174Y938027D2*
X-1223243D1*
X-1147760D2*
X-1134427D1*
X-1071093D2*
X-1048114D1*
X-1030635D2*
X-1013416D1*
X-1237510Y934693D2*
X-1223862D1*
X-1147760D2*
X-1134427D1*
X-1071093D2*
X-1040449D1*
X-1038552D2*
X-1015698D1*
X-1237661Y931360D2*
X-1224185D1*
X-1147760D2*
X-1134427D1*
X-1071093D2*
X-1018470D1*
X-1237723Y928027D2*
X-1224331D1*
X-1147760D2*
X-1134427D1*
X-1071093D2*
X-1021757D1*
X-1237747Y924693D2*
X-1224391D1*
X-1147760D2*
X-1134427D1*
X-1071093D2*
X-1057760D1*
X-1051608D2*
X-1025168D1*
X-1237756Y921360D2*
X-1224414D1*
X-1147760D2*
X-1134427D1*
X-1071093D2*
X-1057760D1*
X-1049102D2*
X-1028284D1*
X-1237745Y918027D2*
X-1224409D1*
X-1147760D2*
X-1134427D1*
X-1071093D2*
X-1057760D1*
X-1046631D2*
X-1029505D1*
X-1237629Y914693D2*
X-1224295D1*
X-1147760D2*
X-1134427D1*
X-1071093D2*
X-1057760D1*
X-1043882D2*
X-1028932D1*
X-1237205Y911360D2*
X-1223871D1*
X-1147760D2*
X-1134427D1*
X-1071093D2*
X-1057760D1*
X-1040858D2*
X-1026720D1*
X-1236394Y908027D2*
X-1223060D1*
X-1147760D2*
X-1134427D1*
X-1071093D2*
X-1057760D1*
X-1037679D2*
X-1023987D1*
X-1235422Y904693D2*
X-1222075D1*
X-1147760D2*
X-1134427D1*
X-1071093D2*
X-1057760D1*
X-1034522D2*
X-1020936D1*
X-1234403Y901360D2*
X-1220926D1*
X-1147760D2*
X-1134427D1*
X-1071093D2*
X-1057760D1*
X-1031636D2*
X-1017828D1*
X-1233165Y898027D2*
X-1219471D1*
X-1147760D2*
X-1134427D1*
X-1071093D2*
X-1057760D1*
X-1029109D2*
X-1014960D1*
X-1231601Y894693D2*
X-1216197D1*
X-1147760D2*
X-1134427D1*
X-1071093D2*
X-1057760D1*
X-1026633D2*
X-1012439D1*
X-1229477Y891360D2*
X-1206452D1*
X-1147760D2*
X-1134427D1*
X-1071093D2*
X-1057760D1*
X-1023882D2*
X-1009966D1*
X-1226384Y888027D2*
X-1190722D1*
X-1147760D2*
X-1134427D1*
X-1071093D2*
X-1057760D1*
X-1020858D2*
X-1007215D1*
X-1222104Y884693D2*
X-1171093D1*
X-1147760D2*
X-1134427D1*
X-1071093D2*
X-1057760D1*
X-1017667D2*
X-1004192D1*
X-1216819Y881360D2*
X-1172656D1*
X-1147760D2*
X-1134427D1*
X-1071093D2*
X-1057760D1*
X-1014394D2*
X-1001006D1*
X-1211093Y878027D2*
X-1174427D1*
X-1147760D2*
X-1134427D1*
X-1071093D2*
X-1057760D1*
X-1011093D2*
X-997760D1*
X-1210893Y833073D2*
X-1177560D1*
X-1124227D2*
X-1090893D1*
X-1037560D2*
X-1024227D1*
X-977560D2*
X-964227D1*
X-1224227Y829740D2*
X-1172815D1*
X-1128843D2*
X-1083356D1*
X-1037560D2*
X-1024227D1*
X-977560D2*
X-964227D1*
X-1222456Y826407D2*
X-1168965D1*
X-1132261D2*
X-1077233D1*
X-1037560D2*
X-1024227D1*
X-977560D2*
X-964227D1*
X-1220893Y823073D2*
X-1210893D1*
X-1181033D2*
X-1166076D1*
X-1133305D2*
X-1120893D1*
X-1091561D2*
X-1072737D1*
X-1037560D2*
X-1024227D1*
X-977560D2*
X-964227D1*
X-1178270Y819740D2*
X-1163938D1*
X-1133847D2*
X-1120893D1*
X-1086409D2*
X-1069576D1*
X-1037560D2*
X-1024227D1*
X-977560D2*
X-964227D1*
X-1176017Y816407D2*
X-1162465D1*
X-1134082D2*
X-1120893D1*
X-1082501D2*
X-1067318D1*
X-1037560D2*
X-1024227D1*
X-977560D2*
X-964227D1*
X-1175381Y813073D2*
X-1161733D1*
X-1134175D2*
X-1120893D1*
X-1079863D2*
X-1065676D1*
X-1037560D2*
X-1024227D1*
X-977560D2*
X-964227D1*
X-1176222Y809740D2*
X-1161756D1*
X-1134209D2*
X-1120893D1*
X-1078078D2*
X-1064388D1*
X-1037560D2*
X-1024227D1*
X-977560D2*
X-964227D1*
X-1178651Y806407D2*
X-1162504D1*
X-1134221D2*
X-1120893D1*
X-1076643D2*
X-1063171D1*
X-1037560D2*
X-1024227D1*
X-977560D2*
X-964227D1*
X-1181869Y803073D2*
X-1163842D1*
X-1134225D2*
X-1120893D1*
X-1075518D2*
X-1062134D1*
X-1037560D2*
X-1024227D1*
X-977560D2*
X-964227D1*
X-1185870Y799740D2*
X-1165749D1*
X-1134226D2*
X-1120893D1*
X-1074831D2*
X-1061480D1*
X-1037560D2*
X-1024227D1*
X-977560D2*
X-964227D1*
X-1190382Y796407D2*
X-1168256D1*
X-1134226D2*
X-1120893D1*
X-1074483D2*
X-1061143D1*
X-1037560D2*
X-964227D1*
X-1195070Y793073D2*
X-1171197D1*
X-1134227D2*
X-1120893D1*
X-1074327D2*
X-1060992D1*
X-1037560D2*
X-964227D1*
X-1199670Y789740D2*
X-1174483D1*
X-1134227D2*
X-1120893D1*
X-1074264D2*
X-1060930D1*
X-1037560D2*
X-964227D1*
X-1204147Y786407D2*
X-1178287D1*
X-1134227D2*
X-1120893D1*
X-1074240D2*
X-1060906D1*
X-1037560D2*
X-1024227D1*
X-977560D2*
X-964227D1*
X-1208631Y783073D2*
X-1182829D1*
X-1134227D2*
X-1120893D1*
X-1074231D2*
X-1060898D1*
X-1037560D2*
X-1024227D1*
X-977560D2*
X-964227D1*
X-1212865Y779740D2*
X-1187923D1*
X-1134227D2*
X-1120893D1*
X-1074228D2*
X-1060895D1*
X-1037560D2*
X-1024227D1*
X-977560D2*
X-964227D1*
X-1216409Y776407D2*
X-1193114D1*
X-1134227D2*
X-1120893D1*
X-1074240D2*
X-1060907D1*
X-1037547D2*
X-1024227D1*
X-977560D2*
X-964227D1*
X-1219148Y773073D2*
X-1198122D1*
X-1134227D2*
X-1120893D1*
X-1074357D2*
X-1061024D1*
X-1037430D2*
X-1024214D1*
X-977560D2*
X-964227D1*
X-1221222Y769740D2*
X-1202630D1*
X-1134227D2*
X-1120893D1*
X-1074795D2*
X-1061461D1*
X-1037005D2*
X-1024096D1*
X-977573D2*
X-964240D1*
X-1222682Y766407D2*
X-1206176D1*
X-1134227D2*
X-1120893D1*
X-1075723D2*
X-1062377D1*
X-1036194D2*
X-1023659D1*
X-977703D2*
X-964357D1*
X-1223509Y763073D2*
X-1208908D1*
X-1134227D2*
X-1120893D1*
X-1077146D2*
X-1063669D1*
X-1035222D2*
X-1022717D1*
X-978258D2*
X-964795D1*
X-1223790Y759740D2*
X-1209409D1*
X-1134227D2*
X-1120893D1*
X-1079315D2*
X-1065179D1*
X-1034203D2*
X-1021099D1*
X-979298D2*
X-965723D1*
X-1223701Y756407D2*
X-1209386D1*
X-1134227D2*
X-1120893D1*
X-1082296D2*
X-1066911D1*
X-1032952D2*
X-1018828D1*
X-981904D2*
X-967133D1*
X-1222179Y753073D2*
X-1201274D1*
X-1134227D2*
X-1120893D1*
X-1091518D2*
X-1069117D1*
X-1031271D2*
X-1011147D1*
X-988350D2*
X-969094D1*
X-1219690Y749740D2*
X-1187871D1*
X-1170893D2*
X-1167560D1*
X-1134227D2*
X-1120893D1*
X-1106124D2*
X-1072247D1*
X-1028723D2*
X-999084D1*
X-998419D2*
X-971865D1*
X-1215868Y746407D2*
X-1167560D1*
X-1134227D2*
X-1076541D1*
X-1024845D2*
X-975825D1*
X-1210499Y743073D2*
X-1167560D1*
X-1134227D2*
X-1081832D1*
X-1019794D2*
X-981254D1*
X-1204227Y739740D2*
X-1167560D1*
X-1134227D2*
X-1087560D1*
X-1014227D2*
X-987560D1*
X-732113Y1846473D2*
X-718780D1*
X-678780D2*
X-665447D1*
X-608780D2*
X-595447D1*
X-555447D2*
X-542113D1*
X-485447D2*
X-472113D1*
X-432113D2*
X-418780D1*
X-382113D2*
X-368780D1*
X-345447D2*
X-278780D1*
X-258780D2*
X-245447D1*
X-175447D2*
X-108780D1*
X-88780D2*
X-75447D1*
X-25447D2*
X-12113D1*
X21220D2*
X34553D1*
X67887D2*
X81220D1*
X137887D2*
X151220D1*
X167887D2*
X234553D1*
X244553D2*
X257887D1*
X314553D2*
X327887D1*
X344553D2*
X397887D1*
X434553D2*
X447887D1*
X491220D2*
X517887D1*
X581220D2*
X611220D1*
X654553D2*
X667887D1*
X731220D2*
X741220D1*
X-733652Y1843140D2*
X-718653D1*
X-679920D2*
X-664932D1*
X-610319D2*
X-595320D1*
X-556586D2*
X-541598D1*
X-486985D2*
X-471986D1*
X-433253D2*
X-418265D1*
X-382113D2*
X-368780D1*
X-345447D2*
X-278780D1*
X-258780D2*
X-245447D1*
X-175447D2*
X-108780D1*
X-88780D2*
X-75447D1*
X-27627D2*
X-13781D1*
X21220D2*
X34553D1*
X68402D2*
X81735D1*
X137372D2*
X150067D1*
X167887D2*
X234553D1*
X245068D2*
X258402D1*
X314038D2*
X326734D1*
X344553D2*
X402746D1*
X434553D2*
X447887D1*
X486475D2*
X522746D1*
X576475D2*
X615566D1*
X654553D2*
X667887D1*
X731220D2*
X741220D1*
X-734622Y1839807D2*
X-718226D1*
X-680925D2*
X-664105D1*
X-611289D2*
X-594892D1*
X-557591D2*
X-540772D1*
X-487956D2*
X-471559D1*
X-434258D2*
X-417438D1*
X-382113D2*
X-368780D1*
X-345447D2*
X-278780D1*
X-258780D2*
X-245447D1*
X-175447D2*
X-108780D1*
X-88780D2*
X-75447D1*
X-29851D2*
X-15717D1*
X21220D2*
X34553D1*
X69241D2*
X82575D1*
X136532D2*
X148958D1*
X167887D2*
X234553D1*
X245908D2*
X259241D1*
X313199D2*
X325625D1*
X344553D2*
X406906D1*
X434553D2*
X447887D1*
X482625D2*
X526919D1*
X572625D2*
X619451D1*
X654553D2*
X667887D1*
X731220D2*
X741220D1*
X-735224Y1836473D2*
X-717414D1*
X-681674D2*
X-663229D1*
X-611891D2*
X-594080D1*
X-558340D2*
X-539896D1*
X-488557D2*
X-470747D1*
X-435007D2*
X-416562D1*
X-382113D2*
X-368780D1*
X-345447D2*
X-278780D1*
X-258780D2*
X-245447D1*
X-175447D2*
X-108780D1*
X-88780D2*
X-75447D1*
X-32115D2*
X-17649D1*
X21220D2*
X34553D1*
X70221D2*
X83568D1*
X135539D2*
X147901D1*
X167887D2*
X234553D1*
X246888D2*
X260234D1*
X312206D2*
X324568D1*
X344553D2*
X410169D1*
X434553D2*
X447887D1*
X479723D2*
X530299D1*
X569723D2*
X622487D1*
X654553D2*
X667887D1*
X731220D2*
X741220D1*
X-735864Y1833140D2*
X-716442D1*
X-682425D2*
X-662528D1*
X-612530D2*
X-593109D1*
X-559092D2*
X-539195D1*
X-489197D2*
X-469775D1*
X-435758D2*
X-415861D1*
X-382113D2*
X-368780D1*
X-345447D2*
X-332113D1*
X-258780D2*
X-245447D1*
X-175447D2*
X-162113D1*
X-88780D2*
X-75447D1*
X-34206D2*
X-19488D1*
X21220D2*
X34553D1*
X71243D2*
X84706D1*
X134401D2*
X146764D1*
X167887D2*
X181220D1*
X247910D2*
X261373D1*
X311067D2*
X323430D1*
X344553D2*
X357887D1*
X393370D2*
X412730D1*
X434553D2*
X447887D1*
X477467D2*
X494566D1*
X513771D2*
X532932D1*
X567467D2*
X584566D1*
X603885D2*
X624750D1*
X654553D2*
X667887D1*
X694553D2*
X701220D1*
X731220D2*
X741220D1*
X-736749Y1829807D2*
X-715436D1*
X-683371D2*
X-661793D1*
X-613416D2*
X-592102D1*
X-560037D2*
X-538460D1*
X-490082D2*
X-468769D1*
X-436704D2*
X-415127D1*
X-345447D2*
X-332113D1*
X-258780D2*
X-245447D1*
X-175447D2*
X-162113D1*
X-88780D2*
X-75447D1*
X-36113D2*
X-21342D1*
X21220D2*
X34553D1*
X72468D2*
X86358D1*
X132749D2*
X145645D1*
X167887D2*
X181220D1*
X249135D2*
X263025D1*
X309415D2*
X322311D1*
X344553D2*
X357887D1*
X397696D2*
X413668D1*
X475557D2*
X491363D1*
X518625D2*
X535070D1*
X565557D2*
X581363D1*
X609038D2*
X626413D1*
X654553D2*
X667887D1*
X693287D2*
X703287D1*
X731220D2*
X741220D1*
X-737650Y1826473D2*
X-714328D1*
X-684299D2*
X-660854D1*
X-614316D2*
X-590995D1*
X-560965D2*
X-537520D1*
X-490983D2*
X-467662D1*
X-437632D2*
X-414187D1*
X-345447D2*
X-332113D1*
X-258780D2*
X-245447D1*
X-175447D2*
X-162113D1*
X-88780D2*
X-75434D1*
X-37993D2*
X-23361D1*
X21220D2*
X34553D1*
X73889D2*
X88637D1*
X130470D2*
X144578D1*
X167887D2*
X181220D1*
X250556D2*
X265304D1*
X307136D2*
X321245D1*
X344553D2*
X357887D1*
X400728D2*
X414176D1*
X473909D2*
X488572D1*
X522251D2*
X537026D1*
X563909D2*
X578572D1*
X612932D2*
X627714D1*
X654553D2*
X667887D1*
X691854D2*
X705188D1*
X731220D2*
X741220D1*
X-738360Y1823140D2*
X-713319D1*
X-685020D2*
X-659927D1*
X-615027D2*
X-589986D1*
X-561687D2*
X-536594D1*
X-491693D2*
X-466652D1*
X-438353D2*
X-413261D1*
X-345447D2*
X-332113D1*
X-258780D2*
X-245447D1*
X-175447D2*
X-162113D1*
X-88780D2*
X-75303D1*
X-40023D2*
X-25522D1*
X21220D2*
X34553D1*
X75341D2*
X143435D1*
X167887D2*
X181220D1*
X252007D2*
X320101D1*
X344553D2*
X357887D1*
X403000D2*
X414405D1*
X472640D2*
X486475D1*
X525159D2*
X539053D1*
X562640D2*
X576475D1*
X615892D2*
X628938D1*
X654553D2*
X667887D1*
X690306D2*
X706973D1*
X731220D2*
X741220D1*
X-739098Y1819807D2*
X-728907D1*
X-721986D2*
X-712562D1*
X-685762D2*
X-675962D1*
X-668780D2*
X-659206D1*
X-615765D2*
X-605574D1*
X-598653D2*
X-589229D1*
X-562429D2*
X-552628D1*
X-545447D2*
X-535873D1*
X-492431D2*
X-482240D1*
X-475320D2*
X-465895D1*
X-439096D2*
X-429295D1*
X-422113D2*
X-412540D1*
X-345447D2*
X-332113D1*
X-258780D2*
X-245447D1*
X-175447D2*
X-162113D1*
X-88780D2*
X-74748D1*
X-42187D2*
X-27568D1*
X21220D2*
X34553D1*
X76644D2*
X142313D1*
X167887D2*
X181220D1*
X253311D2*
X318980D1*
X344553D2*
X357887D1*
X403672D2*
X414486D1*
X471878D2*
X484925D1*
X527887D2*
X541220D1*
X561878D2*
X574925D1*
X616923D2*
X629978D1*
X654553D2*
X667887D1*
X688700D2*
X708687D1*
X731220D2*
X741220D1*
X-740039Y1816473D2*
X-729334D1*
X-721559D2*
X-711806D1*
X-686705D2*
X-676788D1*
X-668767D2*
X-658464D1*
X-616706D2*
X-606001D1*
X-598226D2*
X-588472D1*
X-563372D2*
X-553455D1*
X-545434D2*
X-535131D1*
X-493373D2*
X-482668D1*
X-474892D2*
X-465139D1*
X-440038D2*
X-430122D1*
X-422100D2*
X-411797D1*
X-345447D2*
X-332113D1*
X-258780D2*
X-245447D1*
X-175447D2*
X-162113D1*
X-88780D2*
X-73395D1*
X-44234D2*
X-29444D1*
X21220D2*
X34553D1*
X77800D2*
X141232D1*
X167887D2*
X181220D1*
X254467D2*
X317899D1*
X344553D2*
X357887D1*
X403664D2*
X414404D1*
X471497D2*
X483582D1*
X561497D2*
X573582D1*
X617478D2*
X630633D1*
X654553D2*
X667887D1*
X687160D2*
X710364D1*
X731220D2*
X741220D1*
X-740966Y1813140D2*
X-730133D1*
X-720760D2*
X-710858D1*
X-687632D2*
X-677664D1*
X-668650D2*
X-657522D1*
X-617632D2*
X-606800D1*
X-597427D2*
X-587524D1*
X-564299D2*
X-554331D1*
X-545316D2*
X-534188D1*
X-494299D2*
X-483466D1*
X-474094D2*
X-464191D1*
X-440966D2*
X-430998D1*
X-421983D2*
X-410855D1*
X-345447D2*
X-332113D1*
X-258780D2*
X-245447D1*
X-175447D2*
X-162113D1*
X-88780D2*
X-71200D1*
X-46123D2*
X-31213D1*
X21220D2*
X34553D1*
X78982D2*
X139984D1*
X167887D2*
X181220D1*
X255648D2*
X316651D1*
X344553D2*
X357887D1*
X403140D2*
X413979D1*
X471328D2*
X482493D1*
X561328D2*
X572493D1*
X617727D2*
X630970D1*
X654553D2*
X667887D1*
X685819D2*
X711931D1*
X731220D2*
X741220D1*
X-741687Y1809807D2*
X-731001D1*
X-719892D2*
X-709929D1*
X-688354D2*
X-678365D1*
X-668225D2*
X-656594D1*
X-618354D2*
X-607668D1*
X-596559D2*
X-586595D1*
X-565020D2*
X-555032D1*
X-544892D2*
X-533261D1*
X-495020D2*
X-484334D1*
X-473226D2*
X-463262D1*
X-441687D2*
X-431699D1*
X-421558D2*
X-409928D1*
X-345447D2*
X-332113D1*
X-258780D2*
X-245447D1*
X-175447D2*
X-162113D1*
X-88780D2*
X-68528D1*
X-48023D2*
X-32933D1*
X21220D2*
X34553D1*
X80118D2*
X90578D1*
X128529D2*
X138555D1*
X167887D2*
X181220D1*
X256785D2*
X267245D1*
X305195D2*
X315222D1*
X344553D2*
X357887D1*
X401205D2*
X413042D1*
X471260D2*
X481818D1*
X561260D2*
X571818D1*
X617828D2*
X631121D1*
X654553D2*
X667887D1*
X684636D2*
X694426D1*
X700578D2*
X713282D1*
X731220D2*
X741220D1*
X-742429Y1806473D2*
X-731700D1*
X-719194D2*
X-709207D1*
X-689096D2*
X-679100D1*
X-667427D2*
X-655873D1*
X-619096D2*
X-608366D1*
X-595860D2*
X-585873D1*
X-565762D2*
X-555767D1*
X-544093D2*
X-532540D1*
X-495762D2*
X-485033D1*
X-472527D2*
X-462540D1*
X-442429D2*
X-432433D1*
X-420760D2*
X-409206D1*
X-345447D2*
X-332113D1*
X-258780D2*
X-245447D1*
X-175447D2*
X-162113D1*
X-88780D2*
X-65857D1*
X-50294D2*
X-34723D1*
X21220D2*
X34553D1*
X81205D2*
X92645D1*
X126462D2*
X137101D1*
X167887D2*
X181220D1*
X257871D2*
X269311D1*
X303129D2*
X313767D1*
X344553D2*
X357887D1*
X392786D2*
X411529D1*
X471234D2*
X481474D1*
X561234D2*
X571474D1*
X617866D2*
X631183D1*
X654553D2*
X667887D1*
X683344D2*
X693986D1*
X702645D2*
X714469D1*
X731220D2*
X741220D1*
X-743372Y1803140D2*
X-732433D1*
X-718460D2*
X-708464D1*
X-690051D2*
X-680053D1*
X-666559D2*
X-655131D1*
X-620038D2*
X-609100D1*
X-595127D2*
X-585131D1*
X-566718D2*
X-556719D1*
X-543226D2*
X-531798D1*
X-496705D2*
X-485767D1*
X-471793D2*
X-461798D1*
X-443385D2*
X-433386D1*
X-419892D2*
X-408464D1*
X-345447D2*
X-288780D1*
X-258780D2*
X-202113D1*
X-175447D2*
X-118780D1*
X-88780D2*
X-63443D1*
X-53408D2*
X-36713D1*
X21220D2*
X34553D1*
X82455D2*
X94186D1*
X124908D2*
X135796D1*
X167887D2*
X181220D1*
X259121D2*
X270852D1*
X301575D2*
X312463D1*
X344553D2*
X357887D1*
X377589D2*
X409295D1*
X471225D2*
X481320D1*
X561225D2*
X571320D1*
X617880D2*
X631207D1*
X654553D2*
X667887D1*
X681885D2*
X693070D1*
X704199D2*
X715762D1*
X731220D2*
X741220D1*
X-744299Y1799807D2*
X-733373D1*
X-717520D2*
X-707509D1*
X-691083D2*
X-681083D1*
X-665860D2*
X-654188D1*
X-620966D2*
X-610040D1*
X-594187D2*
X-584175D1*
X-567749D2*
X-557750D1*
X-542527D2*
X-530855D1*
X-497632D2*
X-486707D1*
X-470853D2*
X-460842D1*
X-444416D2*
X-434417D1*
X-419194D2*
X-407522D1*
X-345447D2*
X-288780D1*
X-258780D2*
X-202113D1*
X-175447D2*
X-118780D1*
X-88780D2*
X-61138D1*
X-57491D2*
X-38862D1*
X21220D2*
X34553D1*
X83885D2*
X95538D1*
X123451D2*
X134640D1*
X167887D2*
X181220D1*
X260551D2*
X272205D1*
X300118D2*
X311307D1*
X344553D2*
X406469D1*
X471222D2*
X481257D1*
X561222D2*
X571257D1*
X617884D2*
X631216D1*
X654553D2*
X667887D1*
X680320D2*
X691777D1*
X705656D2*
X717222D1*
X731220D2*
X741220D1*
X-745020Y1796473D2*
X-734286D1*
X-716594D2*
X-706477D1*
X-692112D2*
X-682112D1*
X-665127D2*
X-653274D1*
X-621687D2*
X-610953D1*
X-593261D2*
X-583144D1*
X-568778D2*
X-558779D1*
X-541793D2*
X-529941D1*
X-498354D2*
X-487620D1*
X-469927D2*
X-459811D1*
X-445445D2*
X-435445D1*
X-418460D2*
X-406607D1*
X-345447D2*
X-288780D1*
X-258780D2*
X-202113D1*
X-175447D2*
X-118780D1*
X-88780D2*
X-40891D1*
X21220D2*
X34553D1*
X85339D2*
X96744D1*
X121937D2*
X133458D1*
X167887D2*
X181220D1*
X262006D2*
X273411D1*
X298604D2*
X310125D1*
X344553D2*
X403706D1*
X471221D2*
X481233D1*
X561221D2*
X571233D1*
X617886D2*
X631219D1*
X654553D2*
X667900D1*
X678693D2*
X690280D1*
X707182D2*
X718786D1*
X731220D2*
X741220D1*
X-745762Y1793140D2*
X-734903D1*
X-715873D2*
X-705448D1*
X-693227D2*
X-683228D1*
X-664187D2*
X-652657D1*
X-622429D2*
X-611570D1*
X-592540D2*
X-582115D1*
X-569894D2*
X-559894D1*
X-540853D2*
X-529324D1*
X-499096D2*
X-488237D1*
X-469206D2*
X-458782D1*
X-446561D2*
X-436561D1*
X-417520D2*
X-405990D1*
X-345447D2*
X-288780D1*
X-258780D2*
X-202113D1*
X-175447D2*
X-118780D1*
X-88780D2*
X-75447D1*
X-68907D2*
X-42648D1*
X21220D2*
X34553D1*
X86644D2*
X97844D1*
X120451D2*
X132322D1*
X167887D2*
X181220D1*
X263310D2*
X274511D1*
X297118D2*
X308988D1*
X344553D2*
X401220D1*
X471220D2*
X481225D1*
X561220D2*
X571225D1*
X617886D2*
X631220D1*
X654553D2*
X668027D1*
X677035D2*
X688679D1*
X708772D2*
X720414D1*
X731207D2*
X741220D1*
X-746705Y1789807D2*
X-735338D1*
X-715131D2*
X-704320D1*
X-694239D2*
X-684239D1*
X-663274D2*
X-652222D1*
X-623372D2*
X-612004D1*
X-591797D2*
X-580986D1*
X-570906D2*
X-560906D1*
X-539940D2*
X-528889D1*
X-500038D2*
X-488671D1*
X-468464D2*
X-457653D1*
X-447573D2*
X-437573D1*
X-416607D2*
X-405556D1*
X-345447D2*
X-288780D1*
X-258780D2*
X-245447D1*
X-175447D2*
X-118780D1*
X-88780D2*
X-75447D1*
X-66001D2*
X-43966D1*
X21220D2*
X34553D1*
X87800D2*
X98999D1*
X119136D2*
X131235D1*
X167887D2*
X181220D1*
X264466D2*
X275666D1*
X295802D2*
X307902D1*
X344553D2*
X405564D1*
X471220D2*
X481235D1*
X561220D2*
X571235D1*
X617887D2*
X631220D1*
X654553D2*
X668542D1*
X675285D2*
X687041D1*
X710409D2*
X722072D1*
X731080D2*
X741220D1*
X-747632Y1786473D2*
X-735907D1*
X-714188D2*
X-703193D1*
X-695007D2*
X-684997D1*
X-662657D2*
X-651653D1*
X-624299D2*
X-612573D1*
X-590855D2*
X-579860D1*
X-571674D2*
X-561664D1*
X-539323D2*
X-528320D1*
X-500966D2*
X-489240D1*
X-467522D2*
X-456527D1*
X-448341D2*
X-438331D1*
X-415990D2*
X-404987D1*
X-345447D2*
X-332113D1*
X-258780D2*
X-245447D1*
X-175447D2*
X-162113D1*
X-88780D2*
X-75447D1*
X-63466D2*
X-44626D1*
X21220D2*
X34553D1*
X88982D2*
X100125D1*
X117976D2*
X129985D1*
X167887D2*
X181220D1*
X265648D2*
X276792D1*
X294642D2*
X306652D1*
X344553D2*
X357887D1*
X393243D2*
X408898D1*
X471220D2*
X481351D1*
X561220D2*
X571351D1*
X617887D2*
X631220D1*
X654553D2*
X669681D1*
X673343D2*
X685394D1*
X712060D2*
X723821D1*
X730565D2*
X741220D1*
X-748354Y1783140D2*
X-736765D1*
X-713261D2*
X-702035D1*
X-695855D2*
X-685754D1*
X-662222D2*
X-650795D1*
X-625020D2*
X-613431D1*
X-589928D2*
X-578702D1*
X-572522D2*
X-562421D1*
X-538889D2*
X-527462D1*
X-501687D2*
X-490098D1*
X-466594D2*
X-455368D1*
X-449188D2*
X-439087D1*
X-415556D2*
X-404129D1*
X-345447D2*
X-332113D1*
X-258780D2*
X-245447D1*
X-175447D2*
X-162113D1*
X-88780D2*
X-75447D1*
X-60988D2*
X-44796D1*
X21220D2*
X34553D1*
X90118D2*
X101194D1*
X116792D2*
X128555D1*
X167887D2*
X181220D1*
X266785D2*
X277861D1*
X293459D2*
X305222D1*
X344553D2*
X357887D1*
X397750D2*
X411298D1*
X471220D2*
X481775D1*
X561220D2*
X571775D1*
X617887D2*
X631220D1*
X654553D2*
X683837D1*
X713711D2*
X725764D1*
X729425D2*
X741220D1*
X-749096Y1779807D2*
X-737655D1*
X-712540D2*
X-700546D1*
X-697150D2*
X-686702D1*
X-661653D2*
X-649905D1*
X-625762D2*
X-614322D1*
X-589206D2*
X-577212D1*
X-573817D2*
X-563369D1*
X-538320D2*
X-526572D1*
X-502429D2*
X-490988D1*
X-465873D2*
X-453879D1*
X-450483D2*
X-440036D1*
X-414987D2*
X-403238D1*
X-345447D2*
X-332113D1*
X-258780D2*
X-245447D1*
X-175447D2*
X-162113D1*
X-88780D2*
X-75447D1*
X-58249D2*
X-43367D1*
X21220D2*
X34553D1*
X91192D2*
X102338D1*
X115629D2*
X127101D1*
X167887D2*
X181220D1*
X267858D2*
X279005D1*
X292296D2*
X303768D1*
X344553D2*
X357887D1*
X399527D2*
X412909D1*
X471233D2*
X482586D1*
X561220D2*
X572586D1*
X617874D2*
X631207D1*
X654553D2*
X682489D1*
X715269D2*
X741220D1*
X-750038Y1776473D2*
X-738362D1*
X-711798D2*
X-687631D1*
X-660795D2*
X-649198D1*
X-626705D2*
X-615029D1*
X-588464D2*
X-564298D1*
X-537462D2*
X-525865D1*
X-503372D2*
X-491695D1*
X-465131D2*
X-440965D1*
X-414129D2*
X-402531D1*
X-345447D2*
X-332113D1*
X-258780D2*
X-245447D1*
X-175447D2*
X-162113D1*
X-88780D2*
X-75447D1*
X-55342D2*
X-41167D1*
X21220D2*
X34553D1*
X92338D2*
X103470D1*
X114299D2*
X125796D1*
X167887D2*
X181220D1*
X269004D2*
X280137D1*
X290966D2*
X302463D1*
X344553D2*
X357887D1*
X400495D2*
X413811D1*
X471350D2*
X483558D1*
X561233D2*
X573558D1*
X617743D2*
X631090D1*
X654553D2*
X681303D1*
X716617D2*
X741220D1*
X-750966Y1773140D2*
X-739099D1*
X-710855D2*
X-688353D1*
X-659905D2*
X-648461D1*
X-627632D2*
X-615765D1*
X-587522D2*
X-565020D1*
X-536572D2*
X-525128D1*
X-504299D2*
X-492432D1*
X-464188D2*
X-441687D1*
X-413238D2*
X-401795D1*
X-345447D2*
X-332113D1*
X-258780D2*
X-245447D1*
X-175447D2*
X-162113D1*
X-88780D2*
X-75447D1*
X-52575D2*
X-38401D1*
X21220D2*
X34553D1*
X93460D2*
X104631D1*
X112551D2*
X124640D1*
X167887D2*
X181220D1*
X270127D2*
X281297D1*
X289217D2*
X301307D1*
X344553D2*
X357887D1*
X400909D2*
X414234D1*
X471775D2*
X484590D1*
X527887D2*
X541220D1*
X561350D2*
X574590D1*
X617188D2*
X630652D1*
X654553D2*
X680011D1*
X717803D2*
X741220D1*
X-751687Y1769807D2*
X-740039D1*
X-709928D2*
X-689096D1*
X-659198D2*
X-647521D1*
X-628354D2*
X-616706D1*
X-586594D2*
X-565762D1*
X-535865D2*
X-524187D1*
X-505020D2*
X-493373D1*
X-463261D2*
X-442429D1*
X-412531D2*
X-400854D1*
X-345447D2*
X-332113D1*
X-258780D2*
X-245447D1*
X-175447D2*
X-162113D1*
X-88780D2*
X-75447D1*
X-50098D2*
X-35426D1*
X21220D2*
X34553D1*
X94541D2*
X106121D1*
X108790D2*
X123458D1*
X167887D2*
X181220D1*
X271207D2*
X282787D1*
X285457D2*
X300125D1*
X344553D2*
X357887D1*
X400955D2*
X414305D1*
X472586D2*
X486036D1*
X525615D2*
X539541D1*
X561788D2*
X576036D1*
X616148D2*
X629736D1*
X654553D2*
X678552D1*
X719096D2*
X741220D1*
X-752429Y1766473D2*
X-740953D1*
X-709206D2*
X-690038D1*
X-658461D2*
X-646594D1*
X-629096D2*
X-617620D1*
X-585873D2*
X-566705D1*
X-535128D2*
X-523261D1*
X-505762D2*
X-494286D1*
X-462540D2*
X-443372D1*
X-411795D2*
X-399927D1*
X-345447D2*
X-332113D1*
X-258780D2*
X-245447D1*
X-175447D2*
X-162113D1*
X-88780D2*
X-75447D1*
X-47642D2*
X-32613D1*
X21220D2*
X34553D1*
X95789D2*
X122322D1*
X167887D2*
X181220D1*
X272456D2*
X298988D1*
X344553D2*
X357887D1*
X400796D2*
X413942D1*
X473571D2*
X488011D1*
X523161D2*
X538027D1*
X562717D2*
X578011D1*
X613543D2*
X628444D1*
X654553D2*
X676987D1*
X720555D2*
X741220D1*
X-753372Y1763140D2*
X-741570D1*
X-708464D2*
X-690966D1*
X-657521D2*
X-645873D1*
X-630038D2*
X-618236D1*
X-585131D2*
X-567632D1*
X-534187D2*
X-522540D1*
X-506705D2*
X-494903D1*
X-461798D2*
X-444299D1*
X-410854D2*
X-399206D1*
X-345447D2*
X-332113D1*
X-258780D2*
X-245447D1*
X-175447D2*
X-162113D1*
X-88780D2*
X-75447D1*
X-44911D2*
X-30114D1*
X21220D2*
X34553D1*
X97218D2*
X121235D1*
X167887D2*
X181220D1*
X273885D2*
X297902D1*
X344553D2*
X357887D1*
X391325D2*
X413041D1*
X474708D2*
X495096D1*
X516884D2*
X536188D1*
X564126D2*
X585096D1*
X607097D2*
X626934D1*
X654553D2*
X675360D1*
X722120D2*
X741220D1*
X-754299Y1759807D2*
X-742004D1*
X-707509D2*
X-691687D1*
X-656607D2*
X-645131D1*
X-630966D2*
X-618671D1*
X-584175D2*
X-568354D1*
X-533274D2*
X-521798D1*
X-507632D2*
X-495338D1*
X-460842D2*
X-445020D1*
X-409940D2*
X-398464D1*
X-345447D2*
X-332113D1*
X-258780D2*
X-245447D1*
X-175447D2*
X-162113D1*
X-88780D2*
X-75447D1*
X-42007D2*
X-27648D1*
X21220D2*
X34553D1*
X98673D2*
X119985D1*
X167887D2*
X181220D1*
X275339D2*
X296652D1*
X344553D2*
X357887D1*
X375147D2*
X411629D1*
X476383D2*
X506713D1*
X506936D2*
X533765D1*
X566074D2*
X596713D1*
X597028D2*
X625202D1*
X654553D2*
X673712D1*
X723747D2*
X741220D1*
X-755030Y1756473D2*
X-742576D1*
X-706467D2*
X-692432D1*
X-656003D2*
X-644188D1*
X-631697D2*
X-619243D1*
X-583134D2*
X-569098D1*
X-532670D2*
X-520854D1*
X-508363D2*
X-495909D1*
X-459801D2*
X-445765D1*
X-409336D2*
X-397521D1*
X-345447D2*
X-278780D1*
X-258780D2*
X-195447D1*
X-175447D2*
X-108780D1*
X-88780D2*
X-75447D1*
X-39244D2*
X-24901D1*
X-8780D2*
X61220D1*
X99987D2*
X118553D1*
X167887D2*
X181220D1*
X276654D2*
X295219D1*
X344553D2*
X409571D1*
X478876D2*
X530850D1*
X568734D2*
X622970D1*
X654553D2*
X672059D1*
X725405D2*
X741220D1*
X-755863Y1753140D2*
X-743462D1*
X-705346D2*
X-693402D1*
X-655685D2*
X-643265D1*
X-632530D2*
X-620128D1*
X-582012D2*
X-570069D1*
X-532352D2*
X-519932D1*
X-509197D2*
X-496795D1*
X-458679D2*
X-446736D1*
X-409018D2*
X-396598D1*
X-345447D2*
X-278780D1*
X-258780D2*
X-195447D1*
X-175447D2*
X-108780D1*
X-88780D2*
X-75447D1*
X-36795D2*
X-21878D1*
X-8780D2*
X61220D1*
X101236D2*
X117081D1*
X167887D2*
X181220D1*
X277903D2*
X293747D1*
X344553D2*
X406542D1*
X482405D2*
X527337D1*
X572346D2*
X619586D1*
X654553D2*
X670484D1*
X727155D2*
X741220D1*
X-757153Y1749807D2*
X-744477D1*
X-703871D2*
X-694456D1*
X-655535D2*
X-642610D1*
X-633820D2*
X-621144D1*
X-580538D2*
X-571123D1*
X-532202D2*
X-519276D1*
X-510486D2*
X-497811D1*
X-457204D2*
X-447789D1*
X-408868D2*
X-395943D1*
X-345447D2*
X-278780D1*
X-258780D2*
X-195447D1*
X-175447D2*
X-108780D1*
X-88780D2*
X-75447D1*
X-34477D2*
X-18693D1*
X-8780D2*
X61220D1*
X102765D2*
X115738D1*
X167887D2*
X181220D1*
X279432D2*
X292405D1*
X344553D2*
X402493D1*
X487382D2*
X522540D1*
X577360D2*
X614262D1*
X654553D2*
X669096D1*
X729097D2*
X741220D1*
X-758780Y1746473D2*
X-745447D1*
X-702113D2*
X-695447D1*
X-655447D2*
X-642113D1*
X-635447D2*
X-622113D1*
X-578780D2*
X-572113D1*
X-532113D2*
X-518780D1*
X-512113D2*
X-498780D1*
X-455447D2*
X-448780D1*
X-408780D2*
X-395447D1*
X-345447D2*
X-278780D1*
X-258780D2*
X-195447D1*
X-175447D2*
X-108780D1*
X-88780D2*
X-75447D1*
X-32113D2*
X-15447D1*
X-8780D2*
X61220D1*
X104553D2*
X114553D1*
X167887D2*
X181220D1*
X281220D2*
X291220D1*
X344553D2*
X397887D1*
X493899D2*
X515820D1*
X583891D2*
X606693D1*
X654553D2*
X667887D1*
X731220D2*
X741220D1*
X501220Y1743140D2*
X507887D1*
X591220D2*
X597887D1*
X-1231933Y510017D2*
X-1138600D1*
X-1231920Y506683D2*
X-1138600D1*
X-1231790Y503350D2*
X-1138600D1*
X-1231222Y500017D2*
X-1138600D1*
X-1230143Y496683D2*
X-1211405D1*
X-1227204Y493350D2*
X-1207128D1*
X-1223425Y490017D2*
X-1202494D1*
X-1219016Y486683D2*
X-1197661D1*
X-1214275Y483350D2*
X-1192726D1*
X-1209374Y480017D2*
X-1187754D1*
X-1204414Y476683D2*
X-1182787D1*
X-1199438Y473350D2*
X-1178040D1*
X-1194562Y470017D2*
X-1174031D1*
X-1189990Y466683D2*
X-1170846D1*
X-1185851Y463350D2*
X-1169541D1*
X-1181933Y460017D2*
X-1169431D1*
X-1187334Y456683D2*
X-1170853D1*
X-1192568Y453350D2*
X-1174273D1*
X-1197686Y450017D2*
X-1178414D1*
X-1202734Y446683D2*
X-1183020D1*
X-1207757Y443350D2*
X-1187862D1*
X-1212761Y440017D2*
X-1192799D1*
X-1217741Y436683D2*
X-1197766D1*
X-1222491Y433350D2*
X-1202640D1*
X-1226502Y430017D2*
X-1207211D1*
X-1229687Y426683D2*
X-1211349D1*
X-1230847Y423350D2*
X-1138600D1*
X-1231472Y420017D2*
X-1138600D1*
X-1231754Y416683D2*
X-1138600D1*
X-1231871Y413350D2*
X-1138600D1*
X-1231933Y410017D2*
X-1138600D1*
X-1208600Y383350D2*
X-1165267D1*
X-1214599Y380017D2*
X-1158869D1*
X-1219764Y376683D2*
X-1153738D1*
X-1223776Y373350D2*
X-1149874D1*
X-1226722Y370017D2*
X-1193161D1*
X-1180705D2*
X-1147039D1*
X-1228880Y366683D2*
X-1205106D1*
X-1168761D2*
X-1144929D1*
X-1230372Y363350D2*
X-1213637D1*
X-1160229D2*
X-1143347D1*
X-1231223Y360017D2*
X-1220009D1*
X-1153858D2*
X-1142082D1*
X-1231638Y356683D2*
X-1223005D1*
X-1151137D2*
X-1140873D1*
X-1231819Y353350D2*
X-1224185D1*
X-1149228D2*
X-1139839D1*
X-1231891Y350017D2*
X-1224812D1*
X-1147740D2*
X-1139186D1*
X-1231918Y346683D2*
X-1225091D1*
X-1146705D2*
X-1138863D1*
X-1231928Y343350D2*
X-1225189D1*
X-1146147D2*
X-1138829D1*
X-1231932Y340017D2*
X-1225101D1*
X-1146934D2*
X-1139192D1*
X-1231920Y336683D2*
X-1224561D1*
X-1148138D2*
X-1139966D1*
X-1231803Y333350D2*
X-1223527D1*
X-1149742D2*
X-1140825D1*
X-1231365Y330017D2*
X-1220548D1*
X-1151696D2*
X-1141534D1*
X-1230437Y326683D2*
X-1216507D1*
X-1155836D2*
X-1142397D1*
X-1229027Y323350D2*
X-1203517D1*
X-1167732D2*
X-1143892D1*
X-1227079Y320017D2*
X-1183321D1*
X-1186101D2*
X-1146171D1*
X-1224406Y316683D2*
X-1149139D1*
X-1220667Y313350D2*
X-1153054D1*
X-1215139Y310017D2*
X-1158668D1*
X-1207468Y306683D2*
X-1166377D1*
X-1198600Y303350D2*
X-1175267D1*
X-1231933Y280017D2*
X-1141933D1*
X-1231933Y276683D2*
X-1141920D1*
X-1231933Y273350D2*
X-1141803D1*
X-1231933Y270017D2*
X-1141378D1*
X-1231933Y266683D2*
X-1140580D1*
X-1231933Y263350D2*
X-1225267D1*
X-1148473D2*
X-1139725D1*
X-1231933Y260017D2*
X-1225267D1*
X-1148046D2*
X-1139144D1*
X-1231933Y256683D2*
X-1225267D1*
X-1147260D2*
X-1138835D1*
X-1231933Y253350D2*
X-1225267D1*
X-1146522D2*
X-1138693D1*
X-1231933Y250017D2*
X-1225267D1*
X-1146366D2*
X-1138648D1*
X-1231933Y246683D2*
X-1225254D1*
X-1146855D2*
X-1138743D1*
X-1231933Y243350D2*
X-1225136D1*
X-1147581D2*
X-1139159D1*
X-1231920Y240017D2*
X-1224699D1*
X-1148234D2*
X-1139955D1*
X-1231803Y236683D2*
X-1223757D1*
X-1149089D2*
X-1140821D1*
X-1231365Y233350D2*
X-1222191D1*
X-1150333D2*
X-1141533D1*
X-1230450Y230017D2*
X-1220076D1*
X-1153789D2*
X-1142384D1*
X-1229157Y226683D2*
X-1213801D1*
X-1159898D2*
X-1143761D1*
X-1227634Y223350D2*
X-1202759D1*
X-1171001D2*
X-1145616D1*
X-1225785Y220017D2*
X-1185711D1*
X-1188110D2*
X-1147760D1*
X-1223155Y216683D2*
X-1150566D1*
X-1219241Y213350D2*
X-1154566D1*
X-1214175Y210017D2*
X-1159670D1*
X-1208600Y206683D2*
X-1165267D1*
X-1231933Y180017D2*
X-1155267D1*
X-1231933Y176683D2*
X-1150535D1*
X-1231933Y173350D2*
X-1146788D1*
X-1231933Y170017D2*
X-1144207D1*
X-1231933Y166683D2*
X-1142443D1*
X-1231933Y163350D2*
X-1225267D1*
X-1188600D2*
X-1181933D1*
X-1152461D2*
X-1141013D1*
X-1231933Y160017D2*
X-1225267D1*
X-1188600D2*
X-1181933D1*
X-1150085D2*
X-1139891D1*
X-1231933Y156683D2*
X-1225267D1*
X-1188600D2*
X-1181933D1*
X-1148169D2*
X-1139204D1*
X-1231933Y153350D2*
X-1225267D1*
X-1188600D2*
X-1181933D1*
X-1146773D2*
X-1138856D1*
X-1231933Y150017D2*
X-1225267D1*
X-1188600D2*
X-1181933D1*
X-1145958D2*
X-1138701D1*
X-1231933Y146683D2*
X-1225267D1*
X-1188600D2*
X-1181933D1*
X-1145555D2*
X-1138637D1*
X-1231933Y143350D2*
X-1225267D1*
X-1188600D2*
X-1181933D1*
X-1145379D2*
X-1138613D1*
X-1231933Y140017D2*
X-1225267D1*
X-1188600D2*
X-1181933D1*
X-1145308D2*
X-1138605D1*
X-1231933Y136683D2*
X-1225267D1*
X-1188600D2*
X-1181933D1*
X-1145281D2*
X-1138602D1*
X-1231933Y133350D2*
X-1225267D1*
X-1188600D2*
X-1181933D1*
X-1145272D2*
X-1138600D1*
X-1231933Y130017D2*
X-1225267D1*
X-1188600D2*
X-1181933D1*
X-1145268D2*
X-1138600D1*
X-1231933Y126683D2*
X-1225267D1*
X-1145267D2*
X-1138600D1*
X-1231933Y123350D2*
X-1225267D1*
X-1145267D2*
X-1138600D1*
X1141597Y564353D2*
X1234930D1*
X1141597Y561020D2*
X1234930D1*
X1141597Y557687D2*
X1234930D1*
X1141597Y554353D2*
X1234930D1*
X1141597Y551020D2*
X1148263D1*
X1188390D2*
X1198263D1*
X1141597Y547687D2*
X1148263D1*
X1188818D2*
X1198263D1*
X1141597Y544353D2*
X1148263D1*
X1189603D2*
X1198263D1*
X1141597Y541020D2*
X1148263D1*
X1190341D2*
X1198263D1*
X1141597Y537687D2*
X1148263D1*
X1190498D2*
X1198276D1*
X1141597Y534353D2*
X1148276D1*
X1190008D2*
X1198420D1*
X1141597Y531020D2*
X1148407D1*
X1189282D2*
X1198771D1*
X1141597Y527687D2*
X1148719D1*
X1188525D2*
X1200457D1*
X1141610Y524353D2*
X1150418D1*
X1187552D2*
X1204576D1*
X1141740Y521020D2*
X1157506D1*
X1183044D2*
X1210196D1*
X1142295Y517687D2*
X1169576D1*
X1170260D2*
X1217073D1*
X1143648Y514353D2*
X1190929D1*
X1198416D2*
X1223961D1*
X1145856Y511020D2*
X1189810D1*
X1202424D2*
X1230011D1*
X1148645Y507687D2*
X1186787D1*
X1207539D2*
X1232937D1*
X1151735Y504353D2*
X1182808D1*
X1213903D2*
X1234002D1*
X1154930Y501020D2*
X1178263D1*
X1220992D2*
X1234575D1*
X1228263Y497687D2*
X1234930D1*
X1141597Y474353D2*
X1218263D1*
X1141597Y471020D2*
X1222995D1*
X1141597Y467687D2*
X1226742D1*
X1141597Y464353D2*
X1229323D1*
X1141597Y461020D2*
X1231087D1*
X1141597Y457687D2*
X1148263D1*
X1184930D2*
X1191597D1*
X1221069D2*
X1232517D1*
X1141597Y454353D2*
X1148263D1*
X1184930D2*
X1191597D1*
X1223445D2*
X1233639D1*
X1141597Y451020D2*
X1148263D1*
X1184930D2*
X1191597D1*
X1225361D2*
X1234326D1*
X1141597Y447687D2*
X1148263D1*
X1184930D2*
X1191597D1*
X1226757D2*
X1234674D1*
X1141597Y444353D2*
X1148263D1*
X1184930D2*
X1191597D1*
X1227572D2*
X1234829D1*
X1141597Y441020D2*
X1148263D1*
X1184930D2*
X1191597D1*
X1227975D2*
X1234893D1*
X1141597Y437687D2*
X1148263D1*
X1184930D2*
X1191597D1*
X1228151D2*
X1234917D1*
X1141597Y434353D2*
X1148263D1*
X1184930D2*
X1191597D1*
X1228222D2*
X1234925D1*
X1141597Y431020D2*
X1148263D1*
X1184930D2*
X1191597D1*
X1228249D2*
X1234928D1*
X1141597Y427687D2*
X1148263D1*
X1184930D2*
X1191597D1*
X1228258D2*
X1234930D1*
X1141597Y424353D2*
X1148263D1*
X1184930D2*
X1191597D1*
X1228262D2*
X1234930D1*
X1141597Y421020D2*
X1148263D1*
X1228263D2*
X1234930D1*
X1141597Y417687D2*
X1148263D1*
X1228263D2*
X1234930D1*
X1151597Y394353D2*
X1171597D1*
X1221597D2*
X1231597D1*
X1148791Y391020D2*
X1174917D1*
X1222736D2*
X1231610D1*
X1146415Y387687D2*
X1178133D1*
X1223728D2*
X1231727D1*
X1144499Y384353D2*
X1181042D1*
X1224373D2*
X1232152D1*
X1143103Y381020D2*
X1155070D1*
X1160929D2*
X1183564D1*
X1224817D2*
X1232950D1*
X1142288Y377687D2*
X1152294D1*
X1166094D2*
X1185925D1*
X1225389D2*
X1233805D1*
X1141885Y374353D2*
X1150315D1*
X1170119D2*
X1188252D1*
X1226235D2*
X1234386D1*
X1141709Y371020D2*
X1149190D1*
X1173182D2*
X1190465D1*
X1226995D2*
X1234695D1*
X1141638Y367687D2*
X1148646D1*
X1175778D2*
X1192685D1*
X1227160D2*
X1234824D1*
X1141611Y364353D2*
X1148411D1*
X1178198D2*
X1194954D1*
X1226661D2*
X1234765D1*
X1141602Y361020D2*
X1148317D1*
X1180446D2*
X1197209D1*
X1225766D2*
X1234362D1*
X1141598Y357687D2*
X1148282D1*
X1182679D2*
X1200046D1*
X1224687D2*
X1233572D1*
X1141597Y354353D2*
X1148270D1*
X1184952D2*
X1204795D1*
X1221585D2*
X1232708D1*
X1141597Y351020D2*
X1148252D1*
X1187157D2*
X1212336D1*
X1213937D2*
X1231997D1*
X1141597Y347687D2*
X1148124D1*
X1189499D2*
X1231120D1*
X1141597Y344353D2*
X1147608D1*
X1192317D2*
X1229866D1*
X1141597Y341020D2*
X1146469D1*
X1195832D2*
X1226812D1*
X1141597Y337687D2*
X1144930D1*
X1200149D2*
X1222817D1*
X1204930Y334353D2*
X1218263D1*
X1141597Y307687D2*
X1218263D1*
X1141597Y304353D2*
X1222995D1*
X1141597Y301020D2*
X1226742D1*
X1141597Y297687D2*
X1229323D1*
X1141597Y294353D2*
X1231087D1*
X1141597Y291020D2*
X1148263D1*
X1184930D2*
X1191597D1*
X1221069D2*
X1232517D1*
X1141597Y287687D2*
X1148263D1*
X1184930D2*
X1191597D1*
X1223445D2*
X1233639D1*
X1141597Y284353D2*
X1148263D1*
X1184930D2*
X1191597D1*
X1225361D2*
X1234326D1*
X1141597Y281020D2*
X1148263D1*
X1184930D2*
X1191597D1*
X1226757D2*
X1234674D1*
X1141597Y277687D2*
X1148263D1*
X1184930D2*
X1191597D1*
X1227572D2*
X1234829D1*
X1141597Y274353D2*
X1148263D1*
X1184930D2*
X1191597D1*
X1227975D2*
X1234893D1*
X1141597Y271020D2*
X1148263D1*
X1184930D2*
X1191597D1*
X1228151D2*
X1234917D1*
X1141597Y267687D2*
X1148263D1*
X1184930D2*
X1191597D1*
X1228222D2*
X1234925D1*
X1141597Y264353D2*
X1148263D1*
X1184930D2*
X1191597D1*
X1228249D2*
X1234928D1*
X1141597Y261020D2*
X1148263D1*
X1184930D2*
X1191597D1*
X1228258D2*
X1234930D1*
X1141597Y257687D2*
X1148263D1*
X1184930D2*
X1191597D1*
X1228262D2*
X1234930D1*
X1141597Y254353D2*
X1148263D1*
X1228263D2*
X1234930D1*
X1141597Y251020D2*
X1148263D1*
X1228263D2*
X1234930D1*
X1141597Y234353D2*
X1148263D1*
X1141597Y231020D2*
X1148263D1*
X1141597Y227687D2*
X1148263D1*
X1141597Y224353D2*
X1148263D1*
X1141597Y221020D2*
X1148263D1*
X1141597Y217687D2*
X1148263D1*
X1141597Y214353D2*
X1148263D1*
X1141597Y211020D2*
X1148263D1*
X1141597Y207687D2*
X1148263D1*
X1141597Y204353D2*
X1234930D1*
X1141597Y201020D2*
X1234930D1*
X1141597Y197687D2*
X1234930D1*
X1141597Y194353D2*
X1234930D1*
X1141597Y191020D2*
X1234930D1*
X1141597Y187687D2*
X1148263D1*
X1141597Y184353D2*
X1148263D1*
X1141597Y181020D2*
X1148263D1*
X1141597Y177687D2*
X1148263D1*
X1141597Y174353D2*
X1148263D1*
X1141597Y171020D2*
X1148263D1*
X1141597Y167687D2*
X1148263D1*
X1141597Y164353D2*
X1148263D1*
X1141597Y161020D2*
X1148263D1*
X1141597Y157687D2*
X1148263D1*
X-499327Y570303D2*
D12*
X-400267D1*
X-331687D2*
X-308827D1*
X-133567D2*
X-34507D1*
X34073D2*
X49313D1*
X125513D2*
X163613D1*
X270293D2*
X285533D1*
X399833D2*
X415073D1*
X498893D2*
X521753D1*
X-501932Y562683D2*
X-400267D1*
X-331687D2*
X-308827D1*
X-139689D2*
X-34507D1*
X34073D2*
X49313D1*
X117893D2*
X153388D1*
X270293D2*
X285533D1*
X399833D2*
X415073D1*
X498893D2*
X521753D1*
X-504200Y555063D2*
X-400267D1*
X-331687D2*
X-308827D1*
X-144146D2*
X-34507D1*
X34073D2*
X49313D1*
X110273D2*
X143500D1*
X270293D2*
X285533D1*
X399833D2*
X415073D1*
X498893D2*
X521753D1*
X-505644Y547443D2*
X-491707D1*
X-331687D2*
X-308827D1*
X-146697D2*
X-124449D1*
X34073D2*
X49313D1*
X102624D2*
X134436D1*
X270293D2*
X285533D1*
X399833D2*
X415073D1*
X498893D2*
X521753D1*
X-506391Y539823D2*
X-491707D1*
X-331687D2*
X-308827D1*
X-147935D2*
X-128906D1*
X34073D2*
X49313D1*
X94765D2*
X126099D1*
X270293D2*
X285533D1*
X399833D2*
X521753D1*
X-506727Y532203D2*
X-491707D1*
X-331687D2*
X-308827D1*
X-148470D2*
X-131457D1*
X34073D2*
X49313D1*
X86472D2*
X118441D1*
X270293D2*
X285533D1*
X399833D2*
X521753D1*
X-506865Y524583D2*
X-491707D1*
X-331687D2*
X-308827D1*
X-148684D2*
X-132695D1*
X34073D2*
X49313D1*
X78296D2*
X111981D1*
X270293D2*
X285533D1*
X399833D2*
X521753D1*
X-506918Y516963D2*
X-491707D1*
X-476467D2*
X-407887D1*
X-331687D2*
X-308827D1*
X-293587D2*
X-225007D1*
X-148763D2*
X-133230D1*
X-118327D2*
X-49747D1*
X34073D2*
X49313D1*
X70905D2*
X106761D1*
X270293D2*
X285533D1*
X399833D2*
X415103D1*
X498893D2*
X521753D1*
X-506937Y509343D2*
X-491707D1*
X-476467D2*
X-407887D1*
X-331687D2*
X-308827D1*
X-293587D2*
X-225007D1*
X-148792D2*
X-133444D1*
X-118327D2*
X-46748D1*
X34073D2*
X49313D1*
X68118D2*
X105296D1*
X270293D2*
X285533D1*
X399833D2*
X415371D1*
X498893D2*
X521753D1*
X-506943Y501723D2*
X-491707D1*
X-476467D2*
X-407887D1*
X-331687D2*
X-308827D1*
X-293587D2*
X-225007D1*
X-148802D2*
X-133523D1*
X-118327D2*
X-47707D1*
X34073D2*
X49313D1*
X66538D2*
X107216D1*
X270293D2*
X285533D1*
X399863D2*
X416402D1*
X498893D2*
X521753D1*
X-506946Y494103D2*
X-491707D1*
X-476467D2*
X-407887D1*
X-331687D2*
X-308827D1*
X-293587D2*
X-225007D1*
X-148805D2*
X-133552D1*
X-118327D2*
X-49747D1*
X34073D2*
X49313D1*
X74828D2*
X112478D1*
X270293D2*
X285533D1*
X400131D2*
X418808D1*
X498893D2*
X521753D1*
X-506946Y486483D2*
X-491707D1*
X-331687D2*
X-308827D1*
X-148806D2*
X-133562D1*
X34073D2*
X49313D1*
X84235D2*
X118828D1*
X270293D2*
X285533D1*
X401132D2*
X423137D1*
X498893D2*
X521753D1*
X-506947Y478863D2*
X-491707D1*
X-331687D2*
X-308827D1*
X-148807D2*
X-133565D1*
X34073D2*
X49313D1*
X93387D2*
X125878D1*
X270293D2*
X285533D1*
X403255D2*
X429791D1*
X498893D2*
X521753D1*
X-506947Y471243D2*
X-491707D1*
X-331657D2*
X-308827D1*
X-148807D2*
X-133566D1*
X34073D2*
X49313D1*
X101911D2*
X133238D1*
X270293D2*
X285533D1*
X406507D2*
X437933D1*
X498893D2*
X521724D1*
X-506947Y463623D2*
X-400267D1*
X-331367D2*
X-217387D1*
X-148807D2*
X-34507D1*
X34073D2*
X49313D1*
X109969D2*
X140480D1*
X216953D2*
X338873D1*
X411219D2*
X521433D1*
X-506947Y456003D2*
X-400267D1*
X-330189D2*
X-217387D1*
X-148807D2*
X-34507D1*
X34073D2*
X49313D1*
X117777D2*
X146892D1*
X216953D2*
X338873D1*
X418145D2*
X520256D1*
X-506947Y448383D2*
X-400267D1*
X-327584D2*
X-217387D1*
X-148807D2*
X-34507D1*
X34073D2*
X49313D1*
X125473D2*
X151896D1*
X216953D2*
X338873D1*
X427404D2*
X517651D1*
X-506947Y440763D2*
X-400267D1*
X-324067D2*
X-217387D1*
X-148807D2*
X-34507D1*
X34073D2*
X49313D1*
X133133D2*
X155993D1*
X216953D2*
X338873D1*
X437933D2*
X514133D1*
X-110707Y349323D2*
X110273D1*
X-114225Y341703D2*
X113791D1*
X-116421Y334083D2*
X115987D1*
X-117585Y326463D2*
X117152D1*
X-118327Y318843D2*
X117893D1*
X-179287Y250263D2*
X178853D1*
X-179287Y242643D2*
X178853D1*
X-179287Y235023D2*
X178853D1*
X-179287Y227403D2*
X178853D1*
X-194527Y151203D2*
X194093D1*
X-194817Y143583D2*
X194384D1*
X-195823Y135963D2*
X195390D1*
X-197947Y128343D2*
X197514D1*
X-201170Y120723D2*
X200737D1*
X-205623Y113103D2*
X-170459D1*
X170026D2*
X205189D1*
X-211615Y105483D2*
X-175922D1*
X175489D2*
X211182D1*
X-219018Y97863D2*
X-180598D1*
X180165D2*
X218585D1*
X-227118Y90243D2*
X-185059D1*
X184625D2*
X226685D1*
X-234973Y82623D2*
X-190017D1*
X189583D2*
X234539D1*
X-242878Y75003D2*
X-196014D1*
X195580D2*
X242445D1*
X-251678Y67383D2*
X-203061D1*
X202628D2*
X251245D1*
X-260861Y59763D2*
X-211278D1*
X210844D2*
X260428D1*
X-269588Y52143D2*
X-220570D1*
X220137D2*
X269155D1*
X-277564Y44523D2*
X-230086D1*
X229653D2*
X277131D1*
X-284503Y36903D2*
X-238984D1*
X238551D2*
X284070D1*
X-290390Y29283D2*
X-247036D1*
X246602D2*
X289956D1*
X-295835Y21663D2*
X-254005D1*
X253572D2*
X295402D1*
X-301172Y14043D2*
X-259933D1*
X259500D2*
X300739D1*
X-306237Y6423D2*
X-265651D1*
X265217D2*
X305804D1*
X-311314Y-1197D2*
X-271931D1*
X271497D2*
X310881D1*
X-316501Y-8817D2*
X-278583D1*
X278149D2*
X316068D1*
X-321509Y-16437D2*
X-284911D1*
X284477D2*
X321075D1*
X-326535Y-24057D2*
X-290543D1*
X290109D2*
X326102D1*
X-331447Y-31677D2*
X-295860D1*
X295427D2*
X331014D1*
X-335481Y-39297D2*
X-300894D1*
X300460D2*
X335048D1*
X-338712Y-46917D2*
X-305004D1*
X304571D2*
X338278D1*
X-341908Y-54537D2*
X-308490D1*
X308057D2*
X341474D1*
X-345345Y-62157D2*
X-312425D1*
X-95467D2*
X-26887D1*
X26453D2*
X95033D1*
X311992D2*
X344912D1*
X-348961Y-69777D2*
X-316957D1*
X-95467D2*
X-26887D1*
X26453D2*
X95033D1*
X316524D2*
X348528D1*
X-352666Y-77397D2*
X-321406D1*
X-95467D2*
X-26887D1*
X26453D2*
X95033D1*
X320973D2*
X352233D1*
X-356170Y-85017D2*
X-325370D1*
X-95467D2*
X-26887D1*
X26453D2*
X95033D1*
X324936D2*
X355736D1*
X-359002Y-92637D2*
X-328648D1*
X-95467D2*
X-80197D1*
X-42127D2*
X-26887D1*
X26453D2*
X41693D1*
X79764D2*
X95033D1*
X328214D2*
X358569D1*
X-360977Y-100257D2*
X-331414D1*
X-95467D2*
X-79907D1*
X-42127D2*
X-26887D1*
X26453D2*
X41693D1*
X79473D2*
X95033D1*
X330980D2*
X360544D1*
X-362808Y-107877D2*
X-334133D1*
X-95467D2*
X-78729D1*
X-42127D2*
X-26887D1*
X26453D2*
X41693D1*
X78296D2*
X95033D1*
X333700D2*
X362375D1*
X-365044Y-115497D2*
X-336511D1*
X-95467D2*
X-76124D1*
X-42127D2*
X-26887D1*
X26453D2*
X41693D1*
X75691D2*
X95033D1*
X336078D2*
X364611D1*
X-367421Y-123117D2*
X-338268D1*
X-95467D2*
X-72607D1*
X-42127D2*
X-26887D1*
X26453D2*
X41693D1*
X72173D2*
X95033D1*
X337834D2*
X366988D1*
X-369780Y-130737D2*
X-340006D1*
X-95467D2*
X-26887D1*
X26453D2*
X95033D1*
X339572D2*
X369346D1*
X-372333Y-138357D2*
X-342175D1*
X-95467D2*
X-26887D1*
X26453D2*
X95033D1*
X341742D2*
X371899D1*
X-374617Y-145977D2*
X-344300D1*
X-95467D2*
X-26887D1*
X26453D2*
X95033D1*
X343867D2*
X374183D1*
X-376082Y-153597D2*
X-345951D1*
X345518D2*
X375649D1*
X-376841Y-161217D2*
X-347648D1*
X347215D2*
X376407D1*
X-377213Y-168837D2*
X-349803D1*
X349370D2*
X376779D1*
X-377621Y-176457D2*
X-351893D1*
X351460D2*
X377188D1*
X-378646Y-184077D2*
X-353274D1*
X352841D2*
X378212D1*
X-529807Y-191697D2*
X-506947D1*
X-380490D2*
X-354000D1*
X353566D2*
X380057D1*
X506513D2*
X529373D1*
X-533498Y-199317D2*
X-491707D1*
X-382451D2*
X-354330D1*
X-95467D2*
X-26887D1*
X26453D2*
X95033D1*
X353896D2*
X382017D1*
X491273D2*
X527846D1*
X-529206Y-206937D2*
X-476496D1*
X-383782D2*
X-354466D1*
X-95467D2*
X-26887D1*
X26453D2*
X95033D1*
X354032D2*
X383349D1*
X476063D2*
X525288D1*
X-519875Y-214557D2*
X-461524D1*
X-384489D2*
X-354518D1*
X-95467D2*
X-26887D1*
X26453D2*
X95033D1*
X354084D2*
X384056D1*
X461091D2*
X518304D1*
X-508563Y-222177D2*
X-447261D1*
X-384813D2*
X-354537D1*
X-95467D2*
X-80227D1*
X-42127D2*
X-26887D1*
X26453D2*
X41693D1*
X79793D2*
X95033D1*
X354103D2*
X384380D1*
X446828D2*
X508926D1*
X-496651Y-229797D2*
X-433910D1*
X-384947D2*
X-354543D1*
X-95467D2*
X-80227D1*
X-42127D2*
X-26887D1*
X26453D2*
X41693D1*
X79793D2*
X95033D1*
X354110D2*
X384513D1*
X433477D2*
X497722D1*
X-485039Y-237417D2*
X-420938D1*
X-385000D2*
X-354546D1*
X-95467D2*
X-80227D1*
X-42127D2*
X-26887D1*
X26453D2*
X41693D1*
X79793D2*
X95033D1*
X354112D2*
X384566D1*
X420505D2*
X485754D1*
X-472847Y-245037D2*
X-407887D1*
X-385027D2*
X-354487D1*
X-95467D2*
X-80227D1*
X-42127D2*
X-26887D1*
X26453D2*
X41693D1*
X79793D2*
X95033D1*
X354113D2*
X384593D1*
X407453D2*
X473052D1*
X-459249Y-252657D2*
X-353892D1*
X-95467D2*
X-80227D1*
X-42127D2*
X-26887D1*
X26453D2*
X41693D1*
X79793D2*
X95033D1*
X354113D2*
X459114D1*
X-444008Y-260277D2*
X-352463D1*
X-95467D2*
X-26887D1*
X26453D2*
X95033D1*
X354113D2*
X443729D1*
X-427374Y-267897D2*
X-345444D1*
X-95467D2*
X-26887D1*
X26453D2*
X95033D1*
X354113D2*
X427317D1*
X-410356Y-275517D2*
X-335171D1*
X-95467D2*
X-26887D1*
X26453D2*
X95033D1*
X354113D2*
X411566D1*
X-393883Y-283137D2*
X-322634D1*
X354084D2*
X398444D1*
X-378229Y-290757D2*
X-309426D1*
X308393D2*
X323633D1*
X353816D2*
X388833D1*
X-363645Y-298377D2*
X-296435D1*
X295758D2*
X322426D1*
X352845D2*
X381669D1*
X-350099Y-305997D2*
X-283308D1*
X282786D2*
X320209D1*
X351020D2*
X379207D1*
X-336762Y-313617D2*
X-269454D1*
X268991D2*
X316670D1*
X349036D2*
X377634D1*
X-322833Y-321237D2*
X-254910D1*
X254497D2*
X310973D1*
X347439D2*
X376078D1*
X-369787Y-328857D2*
X-362167D1*
X-308293D2*
X-239732D1*
X239564D2*
X302123D1*
X345761D2*
X374017D1*
X-369496Y-336477D2*
X-352237D1*
X-293374D2*
X-223687D1*
X224224D2*
X290376D1*
X343583D2*
X371944D1*
X-368520Y-344097D2*
X-344615D1*
X-278267D2*
X-206942D1*
X208333D2*
X276783D1*
X341228D2*
X370316D1*
X-366664Y-351717D2*
X-339099D1*
X-263078D2*
X-190738D1*
X192258D2*
X262242D1*
X338877D2*
X368627D1*
X-364442Y-359337D2*
X-335149D1*
X-247857D2*
X-176001D1*
X176896D2*
X247306D1*
X336297D2*
X366445D1*
X-362112Y-366957D2*
X-332085D1*
X-232623D2*
X-162010D1*
X162283D2*
X232407D1*
X333745D2*
X364089D1*
X-359312Y-374577D2*
X-328967D1*
X-217386D2*
X-147776D1*
X147666D2*
X217906D1*
X331279D2*
X361707D1*
X-356034Y-382197D2*
X-325344D1*
X-202146D2*
X-133110D1*
X132810D2*
X203532D1*
X328428D2*
X358889D1*
X-352479Y-389817D2*
X-321017D1*
X-186907D2*
X-118142D1*
X117760D2*
X188425D1*
X325131D2*
X355604D1*
X-348766Y-397437D2*
X-316200D1*
X-171667D2*
X-103046D1*
X102632D2*
X172562D1*
X321569D2*
X352047D1*
X-345002Y-405057D2*
X-311570D1*
X-156456D2*
X-88119D1*
X87692D2*
X156730D1*
X317854D2*
X348363D1*
X-341201Y-412677D2*
X-307270D1*
X-141484D2*
X-73867D1*
X73436D2*
X141374D1*
X314089D2*
X344837D1*
X-337402Y-420297D2*
X-302993D1*
X-127215D2*
X-60459D1*
X60026D2*
X126916D1*
X310288D2*
X341739D1*
X-333588Y-427917D2*
X-298362D1*
X-113800D2*
X-47194D1*
X46761D2*
X113419D1*
X306459D2*
X338794D1*
X-329755Y-435537D2*
X-293387D1*
X-100514D2*
X-33399D1*
X32966D2*
X100100D1*
X302377D2*
X335108D1*
X-325671Y-443157D2*
X-288440D1*
X-86573D2*
X-19267D1*
X18833D2*
X86147D1*
X297573D2*
X330650D1*
X-320896Y-450777D2*
X-283151D1*
X-71772D2*
X71371D1*
X291694D2*
X325974D1*
X-315255Y-458397D2*
X-277013D1*
X-55879D2*
X55766D1*
X285203D2*
X321054D1*
X-309467Y-466017D2*
X-270158D1*
X-38883D2*
X39948D1*
X278936D2*
X315926D1*
X-304054Y-473637D2*
X-262882D1*
X-21428D2*
X25097D1*
X273296D2*
X310940D1*
X-298543Y-481257D2*
X-255403D1*
X-4027D2*
X11213D1*
X267689D2*
X305891D1*
X-292311Y-488877D2*
X-247837D1*
X261419D2*
X300714D1*
X-285419Y-496497D2*
X-240236D1*
X254483D2*
X295680D1*
X-278129Y-504117D2*
X-232594D1*
X246921D2*
X290357D1*
X-270645Y-511737D2*
X-224708D1*
X238464D2*
X284206D1*
X-263078Y-519357D2*
X-216088D1*
X229041D2*
X277317D1*
X-255447Y-526977D2*
X-206375D1*
X219218D2*
X269772D1*
X-247566Y-534597D2*
X-195801D1*
X209275D2*
X261321D1*
X-238977Y-542217D2*
X-184729D1*
X198828D2*
X251930D1*
X-229503Y-549837D2*
X-173150D1*
X187663D2*
X242346D1*
X-219661Y-557457D2*
X-160487D1*
X175457D2*
X233136D1*
X-209712Y-565077D2*
X-145680D1*
X161674D2*
X223811D1*
X-199233Y-572697D2*
X-127918D1*
X145472D2*
X213745D1*
X-187799Y-580317D2*
X-106748D1*
X125002D2*
X202740D1*
X-174622Y-587937D2*
X-82223D1*
X98748D2*
X190378D1*
X-159103Y-595557D2*
X-55106D1*
X67507D2*
X176014D1*
X-141781Y-603177D2*
X159803D1*
X-123158Y-610797D2*
X142385D1*
X-102593Y-618417D2*
X123154D1*
X-78445Y-626037D2*
X99955D1*
X-49992Y-633657D2*
X72051D1*
X-19267Y-641277D2*
X41693D1*
X1020040Y-752887D2*
D13*
X1013241Y-756220D1*
X1007607Y-759553D1*
X1003358Y-762887D1*
X1000304Y-766220D1*
X997996Y-769553D1*
X996161Y-772887D1*
X994705Y-776220D1*
X993491Y-779553D1*
X992302Y-782887D1*
X991275Y-786220D1*
X990625Y-789553D1*
X990289Y-792887D1*
X990138Y-796220D1*
X990077Y-799553D1*
X990066Y-802887D1*
X990175Y-806220D1*
X990597Y-809553D1*
X991407Y-812887D1*
X992378Y-816220D1*
X993397Y-819553D1*
X994635Y-822887D1*
X996186Y-826220D1*
X998179Y-829553D1*
X1000745Y-832887D1*
X1003938Y-836220D1*
X1008128Y-839553D1*
X1013668Y-842887D1*
X1020040Y-846220D1*
X1056707Y-752887D2*
X1062861Y-756220D1*
X1067420Y-759553D1*
X1068811Y-762887D1*
X1069534Y-766220D1*
X1069847Y-769553D1*
X1069971Y-772887D1*
X1070016Y-776220D1*
X1070032Y-779553D1*
X1070037Y-782887D1*
X1070039Y-786220D1*
X1070040Y-789553D1*
Y-792887D1*
Y-796220D1*
Y-799553D1*
Y-802887D1*
X1100040Y-752887D2*
Y-756220D1*
Y-759553D1*
Y-762887D1*
Y-766220D1*
Y-769553D1*
Y-772887D1*
Y-776220D1*
Y-779553D1*
Y-782887D1*
Y-786220D1*
Y-789553D1*
Y-792887D1*
Y-796220D1*
Y-799553D1*
Y-802887D1*
Y-806220D1*
Y-809553D1*
Y-812887D1*
Y-816220D1*
Y-819553D1*
Y-822887D1*
Y-826220D1*
Y-829553D1*
Y-832887D1*
Y-836220D1*
Y-839553D1*
Y-842887D1*
Y-846220D1*
X1113373Y-752887D2*
Y-756220D1*
Y-759553D1*
Y-762887D1*
Y-766220D1*
Y-769553D1*
Y-772887D1*
Y-776220D1*
Y-779553D1*
Y-782887D1*
Y-786220D1*
Y-789553D1*
Y-792887D1*
Y-796220D1*
Y-799553D1*
Y-802887D1*
Y-806220D1*
Y-809553D1*
X1113386Y-812887D1*
X1113513Y-816220D1*
X1114028Y-819553D1*
X1115168Y-822887D1*
X1116707Y-826220D1*
X1166707Y-752887D2*
Y-756220D1*
Y-759553D1*
X1166694Y-762887D1*
X1166563Y-766220D1*
X1166008Y-769553D1*
X1164668Y-772887D1*
X1162577Y-776220D1*
X1160213Y-779553D1*
X1157913Y-782887D1*
X1155527Y-786220D1*
X1152810Y-789553D1*
X1149799Y-792887D1*
X1146611Y-796220D1*
X1143338Y-799553D1*
X1140027Y-802887D1*
X1136702Y-806220D1*
X1133372Y-809553D1*
X1130027Y-812887D1*
X1126567Y-816220D1*
X1122718Y-819553D1*
X1118245Y-822887D1*
X1113373Y-826220D1*
X1180040Y-752887D2*
Y-756220D1*
Y-759553D1*
Y-762887D1*
Y-766220D1*
Y-769553D1*
Y-772887D1*
Y-776220D1*
Y-779553D1*
Y-782887D1*
Y-786220D1*
Y-789553D1*
Y-792887D1*
Y-796220D1*
Y-799553D1*
Y-802887D1*
Y-806220D1*
Y-809553D1*
Y-812887D1*
Y-816220D1*
Y-819553D1*
Y-822887D1*
Y-826220D1*
Y-829553D1*
Y-832887D1*
Y-836220D1*
Y-839553D1*
Y-842887D1*
Y-846220D1*
X1220040Y-752887D2*
X1215424Y-756220D1*
X1212005Y-759553D1*
X1210962Y-762887D1*
X1210420Y-766220D1*
X1210184Y-769553D1*
X1210092Y-772887D1*
X1210058Y-776220D1*
X1210046Y-779553D1*
X1210042Y-782887D1*
X1210041Y-786220D1*
X1210040Y-789553D1*
Y-792887D1*
Y-796220D1*
Y-799553D1*
Y-802887D1*
Y-806220D1*
Y-809553D1*
Y-812887D1*
Y-816220D1*
Y-819553D1*
Y-822887D1*
Y-826220D1*
Y-829553D1*
Y-832887D1*
Y-836220D1*
Y-839553D1*
Y-842887D1*
Y-846220D1*
X1253373Y-752887D2*
X1260911Y-756220D1*
X1267034Y-759553D1*
X1271530Y-762887D1*
X1274691Y-766220D1*
X1276949Y-769553D1*
X1278591Y-772887D1*
X1279879Y-776220D1*
X1281096Y-779553D1*
X1282133Y-782887D1*
X1282787Y-786220D1*
X1283124Y-789553D1*
X1283275Y-792887D1*
X1283337Y-796220D1*
X1283360Y-799553D1*
X1283369Y-802887D1*
X1283372Y-806220D1*
X1283360Y-809553D1*
X1283243Y-812887D1*
X1282805Y-816220D1*
X1281890Y-819553D1*
X1280597Y-822887D1*
X1279087Y-826220D1*
X1277356Y-829553D1*
X1275149Y-832887D1*
X1272020Y-836220D1*
X1267726Y-839553D1*
X1262435Y-842887D1*
X1256707Y-846220D1*
X1026707Y-759553D2*
X1020822Y-762887D1*
X1015980Y-766220D1*
X1012459Y-769553D1*
X1009994Y-772887D1*
X1008348Y-776220D1*
X1007322Y-779553D1*
X1006459Y-782887D1*
X1005472Y-786220D1*
X1004542Y-789553D1*
X1003933Y-792887D1*
X1003613Y-796220D1*
X1003482Y-799553D1*
X1003539Y-802887D1*
X1003941Y-806220D1*
X1004731Y-809553D1*
X1005596Y-812887D1*
X1006306Y-816220D1*
X1007170Y-819553D1*
X1008678Y-822887D1*
X1011205Y-826220D1*
X1014600Y-829553D1*
X1025130Y-832887D1*
X1042129Y-836220D1*
X1063373Y-839553D1*
X1050040Y-759553D2*
X1052718Y-762887D1*
X1054668Y-766220D1*
X1055784Y-769553D1*
X1056325Y-772887D1*
X1056560Y-776220D1*
X1056653Y-779553D1*
X1056688Y-782887D1*
X1056700Y-786220D1*
X1056705Y-789553D1*
X1056706Y-792887D1*
X1056707Y-796220D1*
X1036707D1*
Y-799553D1*
Y-802887D1*
X1223373Y-759553D2*
Y-762887D1*
Y-766220D1*
Y-769553D1*
Y-772887D1*
Y-776220D1*
Y-779553D1*
Y-782887D1*
Y-786220D1*
Y-789553D1*
Y-792887D1*
Y-796220D1*
Y-799553D1*
Y-802887D1*
Y-806220D1*
Y-809553D1*
Y-812887D1*
Y-816220D1*
Y-819553D1*
Y-822887D1*
Y-826220D1*
Y-829553D1*
Y-832887D1*
Y-836220D1*
X1250040Y-839553D1*
X1246707Y-759553D2*
X1252705Y-762887D1*
X1257858Y-766220D1*
X1261765Y-769553D1*
X1264404Y-772887D1*
X1266188Y-776220D1*
X1267624Y-779553D1*
X1268748Y-782887D1*
X1269436Y-786220D1*
X1269784Y-789553D1*
X1269939Y-792887D1*
X1270003Y-796220D1*
X1270027Y-799553D1*
X1270035Y-802887D1*
X1270038Y-806220D1*
X1270026Y-809553D1*
X1269910Y-812887D1*
X1269472Y-816220D1*
X1268543Y-819553D1*
X1267121Y-822887D1*
X1264952Y-826220D1*
X1261971Y-829553D1*
X1252749Y-832887D1*
X1238143Y-836220D1*
X1220040Y-839553D1*
X1163373Y-792887D2*
X1160040Y-796220D1*
X1156707Y-799553D1*
X1153373Y-802887D1*
X1150040Y-806220D1*
X1146707Y-809553D1*
X1143373Y-812887D1*
X1140053Y-816220D1*
X1136837Y-819553D1*
X1133928Y-822887D1*
X1131393Y-826220D1*
X1128915Y-829553D1*
X1126163Y-832887D1*
X1123138Y-836220D1*
X1119947Y-839553D1*
X1116674Y-842887D1*
X1113373Y-846220D1*
X1166707Y-792887D2*
Y-796220D1*
Y-799553D1*
Y-802887D1*
Y-806220D1*
Y-809553D1*
Y-812887D1*
Y-816220D1*
Y-819553D1*
Y-822887D1*
Y-826220D1*
Y-829553D1*
Y-832887D1*
Y-836220D1*
Y-839553D1*
Y-842887D1*
Y-846220D1*
X1060040Y-836220D2*
X1056707Y-839553D1*
X1066707Y-836220D2*
X1065847Y-839553D1*
X1063233Y-842887D1*
X1060040Y-846220D1*
X-1224533Y-754703D2*
X-1225061Y-758037D1*
X-1226005Y-761370D1*
X-1227293Y-764703D1*
X-1228688Y-768037D1*
X-1229970Y-771370D1*
X-1231117Y-774703D1*
X-1232296Y-778037D1*
X-1233432Y-781370D1*
X-1234518Y-784703D1*
X-1235768Y-788037D1*
X-1237198Y-791370D1*
X-1238652Y-794703D1*
X-1239957Y-798037D1*
X-1241113Y-801370D1*
X-1242295Y-804703D1*
X-1243432Y-808037D1*
X-1244518Y-811370D1*
X-1245768Y-814703D1*
X-1247198Y-818037D1*
X-1248652Y-821370D1*
X-1249957Y-824703D1*
X-1251113Y-828037D1*
X-1252295Y-831370D1*
X-1253432Y-834703D1*
X-1254507Y-838037D1*
X-1255669Y-841370D1*
X-1256818Y-844703D1*
X-1257867Y-848037D1*
X-1207867Y-754703D2*
X-1206600Y-758037D1*
X-1205168Y-761370D1*
X-1203620Y-764703D1*
X-1202001Y-768037D1*
X-1200357Y-771370D1*
X-1198695Y-774703D1*
X-1197033Y-778037D1*
X-1195365Y-781370D1*
X-1193701Y-784703D1*
X-1192045Y-788037D1*
X-1190485Y-791370D1*
X-1189136Y-794703D1*
X-1187963Y-798037D1*
X-1186775Y-801370D1*
X-1185636Y-804703D1*
X-1184562Y-808037D1*
X-1183416Y-811370D1*
X-1182293Y-814703D1*
X-1181226Y-818037D1*
X-1180095Y-821370D1*
X-1179077Y-824703D1*
X-1178317Y-828037D1*
X-1177560Y-831370D1*
X-1176611Y-834703D1*
X-1175695Y-838037D1*
X-1175088Y-841370D1*
X-1174752Y-844703D1*
X-1174533Y-848037D1*
X-1144533Y-754703D2*
X-1149149Y-758037D1*
X-1152568Y-761370D1*
X-1153611Y-764703D1*
X-1154154Y-768037D1*
X-1154389Y-771370D1*
X-1154481Y-774703D1*
X-1154515Y-778037D1*
X-1154527Y-781370D1*
X-1154531Y-784703D1*
X-1154533Y-788037D1*
Y-791370D1*
Y-794703D1*
Y-798037D1*
Y-801370D1*
Y-804703D1*
Y-808037D1*
Y-811370D1*
Y-814703D1*
Y-818037D1*
Y-821370D1*
Y-824703D1*
Y-828037D1*
Y-831370D1*
Y-834703D1*
Y-838037D1*
Y-841370D1*
Y-844703D1*
Y-848037D1*
X-1111200Y-754703D2*
X-1103663Y-758037D1*
X-1097540Y-761370D1*
X-1093044Y-764703D1*
X-1089883Y-768037D1*
X-1087625Y-771370D1*
X-1085983Y-774703D1*
X-1084695Y-778037D1*
X-1083477Y-781370D1*
X-1082441Y-784703D1*
X-1081786Y-788037D1*
X-1081450Y-791370D1*
X-1081299Y-794703D1*
X-1081237Y-798037D1*
X-1081213Y-801370D1*
X-1081204Y-804703D1*
X-1081201Y-808037D1*
X-1081214Y-811370D1*
X-1081330Y-814703D1*
X-1081768Y-818037D1*
X-1082684Y-821370D1*
X-1083976Y-824703D1*
X-1085486Y-828037D1*
X-1087218Y-831370D1*
X-1089424Y-834703D1*
X-1092554Y-838037D1*
X-1096848Y-841370D1*
X-1102138Y-844703D1*
X-1107867Y-848037D1*
X-1044533Y-754703D2*
X-1049149Y-758037D1*
X-1052568Y-761370D1*
X-1053611Y-764703D1*
X-1054154Y-768037D1*
X-1054389Y-771370D1*
X-1054481Y-774703D1*
X-1054515Y-778037D1*
X-1054527Y-781370D1*
X-1054531Y-784703D1*
X-1054533Y-788037D1*
Y-791370D1*
Y-794703D1*
Y-798037D1*
Y-801370D1*
Y-804703D1*
Y-808037D1*
Y-811370D1*
Y-814703D1*
Y-818037D1*
Y-821370D1*
Y-824703D1*
Y-828037D1*
Y-831370D1*
Y-834703D1*
Y-838037D1*
Y-841370D1*
Y-844703D1*
Y-848037D1*
X-1011200Y-754703D2*
X-1003663Y-758037D1*
X-997540Y-761370D1*
X-993044Y-764703D1*
X-989883Y-768037D1*
X-987625Y-771370D1*
X-985983Y-774703D1*
X-984695Y-778037D1*
X-983477Y-781370D1*
X-982441Y-784703D1*
X-981786Y-788037D1*
X-981450Y-791370D1*
X-981299Y-794703D1*
X-981237Y-798037D1*
X-981213Y-801370D1*
X-981204Y-804703D1*
X-981201Y-808037D1*
X-981214Y-811370D1*
X-981330Y-814703D1*
X-981768Y-818037D1*
X-982684Y-821370D1*
X-983976Y-824703D1*
X-985486Y-828037D1*
X-987218Y-831370D1*
X-989424Y-834703D1*
X-992554Y-838037D1*
X-996848Y-841370D1*
X-1002138Y-844703D1*
X-1007867Y-848037D1*
X-1141200Y-761370D2*
Y-764703D1*
Y-768037D1*
Y-771370D1*
Y-774703D1*
Y-778037D1*
Y-781370D1*
Y-784703D1*
Y-788037D1*
Y-791370D1*
Y-794703D1*
Y-798037D1*
Y-801370D1*
Y-804703D1*
Y-808037D1*
Y-811370D1*
Y-814703D1*
Y-818037D1*
Y-821370D1*
Y-824703D1*
Y-828037D1*
Y-831370D1*
Y-834703D1*
Y-838037D1*
X-1114533Y-841370D1*
X-1117867Y-761370D2*
X-1111868Y-764703D1*
X-1106716Y-768037D1*
X-1102808Y-771370D1*
X-1100169Y-774703D1*
X-1098385Y-778037D1*
X-1096949Y-781370D1*
X-1095825Y-784703D1*
X-1095138Y-788037D1*
X-1094789Y-791370D1*
X-1094634Y-794703D1*
X-1094571Y-798037D1*
X-1094547Y-801370D1*
X-1094538Y-804703D1*
X-1094535Y-808037D1*
X-1094547Y-811370D1*
X-1094664Y-814703D1*
X-1095101Y-818037D1*
X-1096030Y-821370D1*
X-1097453Y-824703D1*
X-1099622Y-828037D1*
X-1102603Y-831370D1*
X-1111825Y-834703D1*
X-1126430Y-838037D1*
X-1144533Y-841370D1*
X-1041200Y-761370D2*
Y-764703D1*
Y-768037D1*
Y-771370D1*
Y-774703D1*
Y-778037D1*
Y-781370D1*
Y-784703D1*
Y-788037D1*
Y-791370D1*
Y-794703D1*
Y-798037D1*
Y-801370D1*
Y-804703D1*
Y-808037D1*
Y-811370D1*
Y-814703D1*
Y-818037D1*
Y-821370D1*
Y-824703D1*
Y-828037D1*
Y-831370D1*
Y-834703D1*
Y-838037D1*
X-1014533Y-841370D1*
X-1017867Y-761370D2*
X-1011868Y-764703D1*
X-1006716Y-768037D1*
X-1002808Y-771370D1*
X-1000169Y-774703D1*
X-998385Y-778037D1*
X-996949Y-781370D1*
X-995825Y-784703D1*
X-995138Y-788037D1*
X-994789Y-791370D1*
X-994634Y-794703D1*
X-994571Y-798037D1*
X-994547Y-801370D1*
X-994538Y-804703D1*
X-994535Y-808037D1*
X-994547Y-811370D1*
X-994664Y-814703D1*
X-995101Y-818037D1*
X-996030Y-821370D1*
X-997453Y-824703D1*
X-999622Y-828037D1*
X-1002603Y-831370D1*
X-1011825Y-834703D1*
X-1026430Y-838037D1*
X-1044533Y-841370D1*
X-1217867Y-768037D2*
X-1217994Y-771370D1*
X-1218434Y-774703D1*
X-1219350Y-778037D1*
X-1220630Y-781370D1*
X-1222022Y-784703D1*
X-1223303Y-788037D1*
X-1224451Y-791370D1*
X-1225630Y-794703D1*
X-1226766Y-798037D1*
X-1227838Y-801370D1*
X-1228984Y-804703D1*
X-1230107Y-808037D1*
X-1231187Y-811370D1*
X-1232436Y-814703D1*
X-1233865Y-818037D1*
X-1235319Y-821370D1*
X-1236624Y-824703D1*
X-1237780Y-828037D1*
X-1238962Y-831370D1*
X-1240098Y-834703D1*
X-1241174Y-838037D1*
X-1242336Y-841370D1*
X-1243484Y-844703D1*
X-1244533Y-848037D1*
X-1211200Y-768037D2*
X-1210672Y-771370D1*
X-1209728Y-774703D1*
X-1208427Y-778037D1*
X-1206928Y-781370D1*
X-1205339Y-784703D1*
X-1203804Y-788037D1*
X-1202465Y-791370D1*
X-1201282Y-794703D1*
X-1199991Y-798037D1*
X-1198544Y-801370D1*
X-1197084Y-804703D1*
X-1195777Y-808037D1*
X-1194621Y-811370D1*
X-1193451Y-814703D1*
X-1192419Y-818037D1*
X-1191653Y-821370D1*
X-1190894Y-824703D1*
X-1189945Y-828037D1*
X-1189016Y-831370D1*
X-1188293Y-834703D1*
X-1187549Y-838037D1*
X-1186578Y-841370D1*
X-1185524Y-844703D1*
X-1184533Y-848037D1*
X1104770Y1113110D2*
X1100154Y1109777D1*
X1096735Y1106443D1*
X1095692Y1103110D1*
X1095150Y1099777D1*
X1094914Y1096443D1*
X1094822Y1093110D1*
X1094788Y1089777D1*
X1094776Y1086443D1*
X1094772Y1083110D1*
X1094771Y1079777D1*
X1094770Y1076443D1*
Y1073110D1*
Y1069777D1*
Y1066443D1*
Y1063110D1*
Y1059777D1*
Y1056443D1*
Y1053110D1*
Y1049777D1*
Y1046443D1*
Y1043110D1*
Y1039777D1*
Y1036443D1*
Y1033110D1*
Y1029777D1*
Y1026443D1*
Y1023110D1*
Y1019777D1*
X1138103Y1113110D2*
X1145641Y1109777D1*
X1151764Y1106443D1*
X1156260Y1103110D1*
X1159421Y1099777D1*
X1161679Y1096443D1*
X1163321Y1093110D1*
X1164609Y1089777D1*
X1165826Y1086443D1*
X1166863Y1083110D1*
X1167517Y1079777D1*
X1167854Y1076443D1*
X1168005Y1073110D1*
X1168067Y1069777D1*
X1168090Y1066443D1*
X1168099Y1063110D1*
X1168102Y1059777D1*
X1168090Y1056443D1*
X1167973Y1053110D1*
X1167535Y1049777D1*
X1166620Y1046443D1*
X1165327Y1043110D1*
X1163817Y1039777D1*
X1162086Y1036443D1*
X1159879Y1033110D1*
X1156750Y1029777D1*
X1152456Y1026443D1*
X1147165Y1023110D1*
X1141437Y1019777D1*
X1214770Y1113110D2*
X1208771Y1109777D1*
X1203606Y1106443D1*
X1199594Y1103110D1*
X1196648Y1099777D1*
X1194477Y1096443D1*
X1192868Y1093110D1*
X1191592Y1089777D1*
X1190379Y1086443D1*
X1189343Y1083110D1*
X1188689Y1079777D1*
X1188353Y1076443D1*
X1188202Y1073110D1*
X1188140Y1069777D1*
X1188116Y1066443D1*
X1188108Y1063110D1*
X1188118Y1059777D1*
X1188234Y1056443D1*
X1188659Y1053110D1*
X1189470Y1049777D1*
X1190442Y1046443D1*
X1191461Y1043110D1*
X1192698Y1039777D1*
X1194262Y1036443D1*
X1196386Y1033110D1*
X1199480Y1029777D1*
X1203759Y1026443D1*
X1209044Y1023110D1*
X1214770Y1019777D1*
X1251437Y1113110D2*
X1252988Y1109777D1*
X1254018Y1106443D1*
X1254770Y1103110D1*
X1108103Y1106443D2*
Y1103110D1*
Y1099777D1*
Y1096443D1*
Y1093110D1*
Y1089777D1*
Y1086443D1*
Y1083110D1*
Y1079777D1*
Y1076443D1*
Y1073110D1*
Y1069777D1*
Y1066443D1*
Y1063110D1*
Y1059777D1*
Y1056443D1*
Y1053110D1*
Y1049777D1*
Y1046443D1*
Y1043110D1*
Y1039777D1*
Y1036443D1*
Y1033110D1*
Y1029777D1*
X1134770Y1026443D1*
X1131437Y1106443D2*
X1137435Y1103110D1*
X1142588Y1099777D1*
X1146495Y1096443D1*
X1149134Y1093110D1*
X1150918Y1089777D1*
X1152354Y1086443D1*
X1153478Y1083110D1*
X1154166Y1079777D1*
X1154514Y1076443D1*
X1154669Y1073110D1*
X1154733Y1069777D1*
X1154757Y1066443D1*
X1154765Y1063110D1*
X1154768Y1059777D1*
X1154756Y1056443D1*
X1154640Y1053110D1*
X1154202Y1049777D1*
X1153273Y1046443D1*
X1151851Y1043110D1*
X1149682Y1039777D1*
X1146701Y1036443D1*
X1137479Y1033110D1*
X1122873Y1029777D1*
X1104770Y1026443D1*
X1224770Y1106443D2*
X1218771Y1103110D1*
X1213619Y1099777D1*
X1209724Y1096443D1*
X1206765Y1093110D1*
X1205607Y1089777D1*
X1204625Y1086443D1*
X1203576Y1083110D1*
X1202621Y1079777D1*
X1202001Y1076443D1*
X1201679Y1073110D1*
X1201532Y1069777D1*
X1201472Y1066443D1*
X1201449Y1063110D1*
X1201454Y1059777D1*
X1201568Y1056443D1*
X1201992Y1053110D1*
X1202803Y1049777D1*
X1203788Y1046443D1*
X1204937Y1043110D1*
X1206392Y1039777D1*
X1209667Y1036443D1*
X1219411Y1033110D1*
X1235142Y1029777D1*
X1254770Y1026443D1*
X1253207Y1023110D1*
X1251437Y1019777D1*
X1244770Y1106443D2*
X1248103Y1103110D1*
X1028817Y987507D2*
Y984173D1*
Y980840D1*
Y977507D1*
Y974173D1*
Y970840D1*
Y967507D1*
Y964173D1*
Y960840D1*
Y957507D1*
Y954173D1*
Y950840D1*
Y947507D1*
Y944173D1*
Y940840D1*
Y937507D1*
Y934173D1*
Y930840D1*
Y927507D1*
Y924173D1*
Y920840D1*
Y917507D1*
Y914173D1*
Y910840D1*
Y907507D1*
Y904173D1*
Y900840D1*
Y897507D1*
Y894173D1*
X1042150Y987507D2*
Y984173D1*
Y980840D1*
Y977507D1*
Y974173D1*
Y970840D1*
Y967507D1*
Y964173D1*
Y960840D1*
Y957507D1*
Y954173D1*
X1065483Y950840D1*
X1085483Y987507D2*
X1084217Y984173D1*
X1082797Y980840D1*
X1081354Y977507D1*
X1080055Y974173D1*
X1078889Y970840D1*
X1077591Y967507D1*
X1075926Y964173D1*
X1073844Y960840D1*
X1067092Y957507D1*
X1056043Y954173D1*
X1042150Y950840D1*
X1098817Y987507D2*
X1097550Y984173D1*
X1096131Y980840D1*
X1094687Y977507D1*
X1093388Y974173D1*
X1092222Y970840D1*
X1090937Y967507D1*
X1089480Y964173D1*
X1087903Y960840D1*
X1086160Y957507D1*
X1084084Y954173D1*
X1081562Y950840D1*
X1078817Y947507D1*
X1083562Y944173D1*
X1087412Y940840D1*
X1090301Y937507D1*
X1092439Y934173D1*
X1093925Y930840D1*
X1094774Y927507D1*
X1095188Y924173D1*
X1095356Y920840D1*
X1095311Y917507D1*
X1094900Y914173D1*
X1093982Y910840D1*
X1092549Y907507D1*
X1090362Y904173D1*
X1086818Y900840D1*
X1081628Y897507D1*
X1075483Y894173D1*
X1128817Y987507D2*
X1115483Y984173D1*
X1117254Y980840D1*
X1118817Y977507D1*
X1162150Y987507D2*
X1166895Y984173D1*
X1170745Y980840D1*
X1173634Y977507D1*
X1175772Y974173D1*
X1177245Y970840D1*
X1177977Y967507D1*
X1177954Y964173D1*
X1177206Y960840D1*
X1175868Y957507D1*
X1173961Y954173D1*
X1171454Y950840D1*
X1168513Y947507D1*
X1165227Y944173D1*
X1161423Y940840D1*
X1156881Y937507D1*
X1151787Y934173D1*
X1146596Y930840D1*
X1141588Y927507D1*
X1137080Y924173D1*
X1133534Y920840D1*
X1130802Y917507D1*
X1130301Y914173D1*
X1130324Y910840D1*
X1138436Y907507D1*
X1151839Y904173D1*
X1168817Y900840D1*
X1225483Y987507D2*
Y984173D1*
Y980840D1*
Y977507D1*
Y974173D1*
Y970840D1*
Y967507D1*
Y964173D1*
Y960840D1*
Y957507D1*
Y954173D1*
Y950840D1*
Y947507D1*
Y944173D1*
Y940840D1*
Y937507D1*
Y934173D1*
Y930840D1*
Y927507D1*
Y924173D1*
Y920840D1*
Y917507D1*
Y914173D1*
Y910840D1*
Y907507D1*
Y904173D1*
Y900840D1*
X1192150D1*
Y897507D1*
Y894173D1*
X1238817Y987507D2*
Y984173D1*
Y980840D1*
Y977507D1*
Y974173D1*
Y970840D1*
Y967507D1*
Y964173D1*
Y960840D1*
Y957507D1*
Y954173D1*
Y950840D1*
Y947507D1*
Y944173D1*
Y940840D1*
Y937507D1*
Y934173D1*
Y930840D1*
Y927507D1*
Y924173D1*
Y920840D1*
Y917507D1*
Y914173D1*
Y910840D1*
Y907507D1*
Y904173D1*
Y900840D1*
X1268817D1*
Y897507D1*
Y894173D1*
X1132150Y980840D2*
X1128817Y977507D1*
X1155483Y980840D2*
X1158677Y977507D1*
X1161440Y974173D1*
X1163693Y970840D1*
X1164329Y967507D1*
X1163488Y964173D1*
X1161059Y960840D1*
X1157841Y957507D1*
X1153840Y954173D1*
X1149328Y950840D1*
X1144640Y947507D1*
X1140040Y944173D1*
X1135563Y940840D1*
X1131079Y937507D1*
X1126845Y934173D1*
X1123301Y930840D1*
X1120562Y927507D1*
X1118488Y924173D1*
X1117028Y920840D1*
X1116201Y917507D1*
X1115920Y914173D1*
X1116009Y910840D1*
X1117531Y907507D1*
X1120020Y904173D1*
X1123842Y900840D1*
X1129211Y897507D1*
X1135483Y894173D1*
X1042150Y944173D2*
Y940840D1*
Y937507D1*
Y934173D1*
Y930840D1*
Y927507D1*
Y924173D1*
Y920840D1*
Y917507D1*
Y914173D1*
Y910840D1*
Y907507D1*
Y904173D1*
X1068817Y900840D1*
X1065483Y944173D2*
X1070967Y940840D1*
X1075293Y937507D1*
X1078325Y934173D1*
X1080596Y930840D1*
X1081395Y927507D1*
X1081828Y924173D1*
X1082011Y920840D1*
X1081947Y917507D1*
X1081634Y914173D1*
X1079537Y910840D1*
X1070928Y907507D1*
X1056681Y904173D1*
X1038817Y900840D1*
X1168817Y904173D2*
X1165483Y900840D1*
X1172150Y904173D2*
Y900840D1*
Y897507D1*
Y894173D1*
X1111967Y857430D2*
X1107351Y854097D1*
X1103932Y850763D1*
X1102889Y847430D1*
X1102346Y844097D1*
X1102111Y840763D1*
X1102019Y837430D1*
X1101985Y834097D1*
X1101973Y830763D1*
X1101969Y827430D1*
X1101967Y824097D1*
Y820763D1*
Y817430D1*
Y814097D1*
Y810763D1*
Y807430D1*
Y804097D1*
Y800763D1*
Y797430D1*
Y794097D1*
Y790763D1*
Y787430D1*
Y784097D1*
Y780763D1*
Y777430D1*
Y774097D1*
Y770763D1*
Y767430D1*
Y764097D1*
X1148633Y857430D2*
X1155031Y854097D1*
X1160149Y850763D1*
X1163896Y847430D1*
X1166724Y844097D1*
X1167710Y840763D1*
X1168241Y837430D1*
X1168467Y834097D1*
X1168447Y830763D1*
X1168045Y827430D1*
X1167117Y824097D1*
X1165608Y820763D1*
X1163374Y817430D1*
X1160549Y814097D1*
X1157786Y810763D1*
X1155300Y807430D1*
X1158893Y804097D1*
X1161634Y800763D1*
X1163466Y797430D1*
X1164479Y794097D1*
X1164963Y790763D1*
X1165157Y787430D1*
X1165109Y784097D1*
X1164585Y780763D1*
X1163230Y777430D1*
X1160899Y774097D1*
X1157596Y770763D1*
X1153367Y767430D1*
X1148633Y764097D1*
X1215300Y857430D2*
Y854097D1*
Y850763D1*
Y847430D1*
Y844097D1*
Y840763D1*
Y837430D1*
X1215287Y834097D1*
X1215170Y830763D1*
X1214732Y827430D1*
X1213803Y824097D1*
X1212407Y820763D1*
X1210589Y817430D1*
X1208510Y814097D1*
X1206495Y810763D1*
X1204630Y807430D1*
X1202865Y804097D1*
X1201147Y800763D1*
X1199357Y797430D1*
X1197367Y794097D1*
X1195218Y790763D1*
X1193176Y787430D1*
X1191289Y784097D1*
X1189416Y780763D1*
X1187389Y777430D1*
X1185215Y774097D1*
X1183080Y770763D1*
X1180910Y767430D1*
X1178633Y764097D1*
X1228633Y857430D2*
Y854097D1*
Y850763D1*
Y847430D1*
Y844097D1*
Y840763D1*
X1228646Y837430D1*
X1228777Y834097D1*
X1229332Y830763D1*
X1230672Y827430D1*
X1232763Y824097D1*
X1235127Y820763D1*
X1237427Y817430D1*
X1239800Y814097D1*
X1242399Y810763D1*
X1244973Y807430D1*
X1247245Y804097D1*
X1249226Y800763D1*
X1251040Y797430D1*
X1252763Y794097D1*
X1254455Y790763D1*
X1256128Y787430D1*
X1257787Y784097D1*
X1259335Y780763D1*
X1260580Y777430D1*
X1261455Y774097D1*
X1262348Y770763D1*
X1263661Y767430D1*
X1265300Y764097D1*
X1115300Y850763D2*
Y847430D1*
Y844097D1*
Y840763D1*
Y837430D1*
Y834097D1*
Y830763D1*
Y827430D1*
Y824097D1*
Y820763D1*
Y817430D1*
X1141967Y814097D1*
X1138633Y850763D2*
X1144505Y847430D1*
X1149230Y844097D1*
X1152864Y840763D1*
X1154127Y837430D1*
X1154791Y834097D1*
X1154951Y830763D1*
X1154753Y827430D1*
X1152677Y824097D1*
X1144073Y820763D1*
X1129830Y817430D1*
X1111967Y814097D1*
X1225300D2*
X1222495Y810763D1*
X1220105Y807430D1*
X1218073Y804097D1*
X1216239Y800763D1*
X1214495Y797430D1*
X1212696Y794097D1*
X1210702Y790763D1*
X1208551Y787430D1*
X1206509Y784097D1*
X1204635Y780763D1*
X1202866Y777430D1*
X1201150Y774097D1*
X1199378Y770763D1*
X1197427Y767430D1*
X1195300Y764097D1*
X1228633Y814097D2*
X1229288Y810763D1*
X1230659Y807430D1*
X1232759Y804097D1*
X1235113Y800763D1*
X1237297Y797430D1*
X1239244Y794097D1*
X1241046Y790763D1*
X1242765Y787430D1*
X1244443Y784097D1*
X1246011Y780763D1*
X1247362Y777430D1*
X1248539Y774097D1*
X1249743Y770763D1*
X1250909Y767430D1*
X1251967Y764097D1*
X1115300Y807430D2*
Y804097D1*
Y800763D1*
Y797430D1*
Y794097D1*
Y790763D1*
Y787430D1*
Y784097D1*
Y780763D1*
Y777430D1*
Y774097D1*
X1141967Y770763D1*
Y807430D2*
X1145160Y804097D1*
X1147936Y800763D1*
X1149915Y797430D1*
X1151040Y794097D1*
X1151571Y790763D1*
X1151676Y787430D1*
X1151481Y784097D1*
X1149802Y780763D1*
X1142720Y777430D1*
X1130652Y774097D1*
X1115300Y770763D1*
X-1240830Y1117253D2*
Y1113920D1*
Y1110587D1*
Y1107253D1*
X-1200830Y1117253D2*
X-1195347Y1113920D1*
X-1191020Y1110587D1*
X-1187989Y1107253D1*
X-1185717Y1103920D1*
X-1184918Y1100587D1*
X-1184498Y1097253D1*
X-1184433Y1093920D1*
X-1184908Y1090587D1*
X-1186231Y1087253D1*
X-1188442Y1083920D1*
X-1191344Y1080587D1*
X-1194879Y1077253D1*
X-1199034Y1073920D1*
X-1203612Y1070587D1*
X-1208326Y1067253D1*
X-1212935Y1063920D1*
X-1217402Y1060587D1*
X-1221770Y1057253D1*
X-1225567Y1053920D1*
X-1228628Y1050587D1*
X-1229737Y1047253D1*
X-1230228Y1043920D1*
X-1230361Y1040587D1*
X-1222751Y1037253D1*
X-1210095Y1033920D1*
X-1194163Y1030587D1*
X-1164163Y1117253D2*
Y1113920D1*
Y1110587D1*
Y1107253D1*
X-1127497Y1117253D2*
X-1121086Y1113920D1*
X-1115851Y1110587D1*
X-1111679Y1107253D1*
X-1108458Y1103920D1*
X-1106187Y1100587D1*
X-1104571Y1097253D1*
X-1103205Y1093920D1*
X-1102107Y1090587D1*
X-1101429Y1087253D1*
X-1101084Y1083920D1*
X-1100930Y1080587D1*
X-1100867Y1077253D1*
X-1100843Y1073920D1*
X-1100835Y1070587D1*
X-1100832Y1067253D1*
X-1100830Y1063920D1*
X-1100843Y1060587D1*
X-1100960Y1057253D1*
X-1101385Y1053920D1*
X-1102196Y1050587D1*
X-1103181Y1047253D1*
X-1104318Y1043920D1*
X-1105980Y1040587D1*
X-1108355Y1037253D1*
X-1111457Y1033920D1*
X-1115608Y1030587D1*
X-1121133Y1027253D1*
X-1127497Y1023920D1*
X-1234163Y1110587D2*
X-1237497Y1107253D1*
X-1210830Y1110587D2*
X-1205474Y1107253D1*
X-1200967Y1103920D1*
X-1198944Y1100587D1*
X-1198466Y1097253D1*
X-1199465Y1093920D1*
X-1202305Y1090587D1*
X-1206035Y1087253D1*
X-1210425Y1083920D1*
X-1215159Y1080587D1*
X-1220045Y1077253D1*
X-1224886Y1073920D1*
X-1229424Y1070587D1*
X-1233384Y1067253D1*
X-1236655Y1063920D1*
X-1239226Y1060587D1*
X-1241217Y1057253D1*
X-1242642Y1053920D1*
X-1243467Y1050587D1*
X-1243860Y1047253D1*
X-1243920Y1043920D1*
X-1243541Y1040587D1*
X-1242509Y1037253D1*
X-1240956Y1033920D1*
X-1237392Y1030587D1*
X-1232728Y1027253D1*
X-1227497Y1023920D1*
X-1157497Y1110587D2*
X-1160830Y1107253D1*
X-1137497Y1110587D2*
X-1131498Y1107253D1*
X-1126333Y1103920D1*
X-1122321Y1100587D1*
X-1119375Y1097253D1*
X-1117217Y1093920D1*
X-1115725Y1090587D1*
X-1114874Y1087253D1*
X-1114459Y1083920D1*
X-1114278Y1080587D1*
X-1114205Y1077253D1*
X-1114178Y1073920D1*
X-1114168Y1070587D1*
X-1114165Y1067253D1*
X-1114164Y1063920D1*
X-1114177Y1060587D1*
X-1114294Y1057253D1*
X-1114731Y1053920D1*
X-1115660Y1050587D1*
X-1117083Y1047253D1*
X-1119252Y1043920D1*
X-1122233Y1040587D1*
X-1131455Y1037253D1*
X-1146060Y1033920D1*
X-1164163Y1030587D1*
X-1197497Y1033920D2*
X-1200830Y1030587D1*
X-1184163Y1033920D2*
X-1185882Y1030587D1*
X-1191110Y1027253D1*
X-1197497Y1023920D1*
X-1164163Y1033920D2*
X-1165726Y1030587D1*
X-1167497Y1027253D1*
X-1160830Y1023920D1*
Y1033920D2*
X-1157497Y1030587D1*
X-1211093Y971360D2*
X-1217092Y968027D1*
X-1222257Y964693D1*
X-1226269Y961360D1*
X-1229215Y958027D1*
X-1231386Y954693D1*
X-1232995Y951360D1*
X-1234271Y948027D1*
X-1235485Y944693D1*
X-1236520Y941360D1*
X-1237174Y938027D1*
X-1237510Y934693D1*
X-1237661Y931360D1*
X-1237723Y928027D1*
X-1237747Y924693D1*
X-1237756Y921360D1*
X-1237745Y918027D1*
X-1237629Y914693D1*
X-1237205Y911360D1*
X-1236394Y908027D1*
X-1235422Y904693D1*
X-1234403Y901360D1*
X-1233165Y898027D1*
X-1231601Y894693D1*
X-1229477Y891360D1*
X-1226384Y888027D1*
X-1222104Y884693D1*
X-1216819Y881360D1*
X-1211093Y878027D1*
X-1174427Y971360D2*
X-1172876Y968027D1*
X-1171845Y964693D1*
X-1171093Y961360D1*
X-1147760Y971360D2*
Y968027D1*
Y964693D1*
Y961360D1*
Y958027D1*
Y954693D1*
Y951360D1*
Y948027D1*
Y944693D1*
Y941360D1*
Y938027D1*
Y934693D1*
Y931360D1*
Y928027D1*
Y924693D1*
Y921360D1*
Y918027D1*
Y914693D1*
Y911360D1*
Y908027D1*
Y904693D1*
Y901360D1*
Y898027D1*
Y894693D1*
Y891360D1*
Y888027D1*
Y884693D1*
Y881360D1*
Y878027D1*
X-1091093Y971360D2*
Y968027D1*
Y964693D1*
X-1071093Y971360D2*
Y968027D1*
Y964693D1*
Y961360D1*
Y958027D1*
Y954693D1*
Y951360D1*
Y948027D1*
Y944693D1*
Y941360D1*
Y938027D1*
Y934693D1*
Y931360D1*
Y928027D1*
Y924693D1*
Y921360D1*
Y918027D1*
Y914693D1*
Y911360D1*
Y908027D1*
Y904693D1*
Y901360D1*
Y898027D1*
Y894693D1*
Y891360D1*
Y888027D1*
Y884693D1*
Y881360D1*
Y878027D1*
X-1057760Y971360D2*
Y968027D1*
Y964693D1*
Y961360D1*
Y958027D1*
X-1057747Y954693D1*
X-1057617Y951360D1*
X-1057062Y948027D1*
X-1056022Y944693D1*
X-1053032Y941360D1*
X-1048114Y938027D1*
X-1040449Y934693D1*
X-1031093Y931360D1*
X-1011093Y971360D2*
X-1012759Y968027D1*
X-1014157Y964693D1*
X-1015557Y961360D1*
X-1017065Y958027D1*
X-1018662Y954693D1*
X-1020400Y951360D1*
X-1022371Y948027D1*
X-1024578Y944693D1*
X-1027242Y941360D1*
X-1030635Y938027D1*
X-1038552Y934693D1*
X-1047760Y931360D1*
X-997760Y971360D2*
X-999026Y968027D1*
X-1000459Y964693D1*
X-1002007Y961360D1*
X-1003613Y958027D1*
X-1005153Y954693D1*
X-1006507Y951360D1*
X-1007795Y948027D1*
X-1009407Y944693D1*
X-1011357Y941360D1*
X-1013416Y938027D1*
X-1015698Y934693D1*
X-1018470Y931360D1*
X-1021757Y928027D1*
X-1025168Y924693D1*
X-1028284Y921360D1*
X-1029505Y918027D1*
X-1028932Y914693D1*
X-1026720Y911360D1*
X-1023987Y908027D1*
X-1020936Y904693D1*
X-1017828Y901360D1*
X-1014960Y898027D1*
X-1012439Y894693D1*
X-1009966Y891360D1*
X-1007215Y888027D1*
X-1004192Y884693D1*
X-1001006Y881360D1*
X-997760Y878027D1*
X-1201093Y964693D2*
X-1207092Y961360D1*
X-1212244Y958027D1*
X-1216139Y954693D1*
X-1219098Y951360D1*
X-1220256Y948027D1*
X-1221239Y944693D1*
X-1222287Y941360D1*
X-1223243Y938027D1*
X-1223862Y934693D1*
X-1224185Y931360D1*
X-1224331Y928027D1*
X-1224391Y924693D1*
X-1224414Y921360D1*
X-1224409Y918027D1*
X-1224295Y914693D1*
X-1223871Y911360D1*
X-1223060Y908027D1*
X-1222075Y904693D1*
X-1220926Y901360D1*
X-1219471Y898027D1*
X-1216197Y894693D1*
X-1206452Y891360D1*
X-1190722Y888027D1*
X-1171093Y884693D1*
X-1172656Y881360D1*
X-1174427Y878027D1*
X-1181093Y964693D2*
X-1177760Y961360D1*
X-1134427Y964693D2*
Y961360D1*
Y958027D1*
Y954693D1*
Y951360D1*
Y948027D1*
Y944693D1*
Y941360D1*
Y938027D1*
Y934693D1*
Y931360D1*
Y928027D1*
Y924693D1*
Y921360D1*
Y918027D1*
Y914693D1*
Y911360D1*
Y908027D1*
Y904693D1*
Y901360D1*
Y898027D1*
Y894693D1*
Y891360D1*
Y888027D1*
Y884693D1*
Y881360D1*
Y878027D1*
X-1057760Y928027D2*
Y924693D1*
Y921360D1*
Y918027D1*
Y914693D1*
Y911360D1*
Y908027D1*
Y904693D1*
Y901360D1*
Y898027D1*
Y894693D1*
Y891360D1*
Y888027D1*
Y884693D1*
Y881360D1*
Y878027D1*
X-1054427Y928027D2*
X-1051608Y924693D1*
X-1049102Y921360D1*
X-1046631Y918027D1*
X-1043882Y914693D1*
X-1040858Y911360D1*
X-1037679Y908027D1*
X-1034522Y904693D1*
X-1031636Y901360D1*
X-1029109Y898027D1*
X-1026633Y894693D1*
X-1023882Y891360D1*
X-1020858Y888027D1*
X-1017667Y884693D1*
X-1014394Y881360D1*
X-1011093Y878027D1*
X-1210893Y833073D2*
X-1224227Y829740D1*
X-1222456Y826407D1*
X-1220893Y823073D1*
X-1177560Y833073D2*
X-1172815Y829740D1*
X-1168965Y826407D1*
X-1166076Y823073D1*
X-1163938Y819740D1*
X-1162465Y816407D1*
X-1161733Y813073D1*
X-1161756Y809740D1*
X-1162504Y806407D1*
X-1163842Y803073D1*
X-1165749Y799740D1*
X-1168256Y796407D1*
X-1171197Y793073D1*
X-1174483Y789740D1*
X-1178287Y786407D1*
X-1182829Y783073D1*
X-1187923Y779740D1*
X-1193114Y776407D1*
X-1198122Y773073D1*
X-1202630Y769740D1*
X-1206176Y766407D1*
X-1208908Y763073D1*
X-1209409Y759740D1*
X-1209386Y756407D1*
X-1201274Y753073D1*
X-1187871Y749740D1*
X-1170893Y746407D1*
X-1124227Y833073D2*
X-1128843Y829740D1*
X-1132261Y826407D1*
X-1133305Y823073D1*
X-1133847Y819740D1*
X-1134082Y816407D1*
X-1134175Y813073D1*
X-1134209Y809740D1*
X-1134221Y806407D1*
X-1134225Y803073D1*
X-1134226Y799740D1*
Y796407D1*
X-1134227Y793073D1*
Y789740D1*
Y786407D1*
Y783073D1*
Y779740D1*
Y776407D1*
Y773073D1*
Y769740D1*
Y766407D1*
Y763073D1*
Y759740D1*
Y756407D1*
Y753073D1*
Y749740D1*
Y746407D1*
Y743073D1*
Y739740D1*
X-1090893Y833073D2*
X-1083356Y829740D1*
X-1077233Y826407D1*
X-1072737Y823073D1*
X-1069576Y819740D1*
X-1067318Y816407D1*
X-1065676Y813073D1*
X-1064388Y809740D1*
X-1063171Y806407D1*
X-1062134Y803073D1*
X-1061480Y799740D1*
X-1061143Y796407D1*
X-1060992Y793073D1*
X-1060930Y789740D1*
X-1060906Y786407D1*
X-1060898Y783073D1*
X-1060895Y779740D1*
X-1060907Y776407D1*
X-1061024Y773073D1*
X-1061461Y769740D1*
X-1062377Y766407D1*
X-1063669Y763073D1*
X-1065179Y759740D1*
X-1066911Y756407D1*
X-1069117Y753073D1*
X-1072247Y749740D1*
X-1076541Y746407D1*
X-1081832Y743073D1*
X-1087560Y739740D1*
X-1037560Y833073D2*
Y829740D1*
Y826407D1*
Y823073D1*
Y819740D1*
Y816407D1*
Y813073D1*
Y809740D1*
Y806407D1*
Y803073D1*
Y799740D1*
Y796407D1*
Y793073D1*
Y789740D1*
Y786407D1*
Y783073D1*
Y779740D1*
X-1037547Y776407D1*
X-1037430Y773073D1*
X-1037005Y769740D1*
X-1036194Y766407D1*
X-1035222Y763073D1*
X-1034203Y759740D1*
X-1032952Y756407D1*
X-1031271Y753073D1*
X-1028723Y749740D1*
X-1024845Y746407D1*
X-1019794Y743073D1*
X-1014227Y739740D1*
X-1024227Y833073D2*
Y829740D1*
Y826407D1*
Y823073D1*
Y819740D1*
Y816407D1*
Y813073D1*
Y809740D1*
Y806407D1*
Y803073D1*
Y799740D1*
Y796407D1*
X-977560Y833073D2*
Y829740D1*
Y826407D1*
Y823073D1*
Y819740D1*
Y816407D1*
Y813073D1*
Y809740D1*
Y806407D1*
Y803073D1*
Y799740D1*
Y796407D1*
X-964227Y833073D2*
Y829740D1*
Y826407D1*
Y823073D1*
Y819740D1*
Y816407D1*
Y813073D1*
Y809740D1*
Y806407D1*
Y803073D1*
Y799740D1*
Y796407D1*
Y793073D1*
Y789740D1*
Y786407D1*
Y783073D1*
Y779740D1*
Y776407D1*
Y773073D1*
X-964240Y769740D1*
X-964357Y766407D1*
X-964795Y763073D1*
X-965723Y759740D1*
X-967133Y756407D1*
X-969094Y753073D1*
X-971865Y749740D1*
X-975825Y746407D1*
X-981254Y743073D1*
X-987560Y739740D1*
X-1207560Y826407D2*
X-1210893Y823073D1*
X-1184227Y826407D2*
X-1181033Y823073D1*
X-1178270Y819740D1*
X-1176017Y816407D1*
X-1175381Y813073D1*
X-1176222Y809740D1*
X-1178651Y806407D1*
X-1181869Y803073D1*
X-1185870Y799740D1*
X-1190382Y796407D1*
X-1195070Y793073D1*
X-1199670Y789740D1*
X-1204147Y786407D1*
X-1208631Y783073D1*
X-1212865Y779740D1*
X-1216409Y776407D1*
X-1219148Y773073D1*
X-1221222Y769740D1*
X-1222682Y766407D1*
X-1223509Y763073D1*
X-1223790Y759740D1*
X-1223701Y756407D1*
X-1222179Y753073D1*
X-1219690Y749740D1*
X-1215868Y746407D1*
X-1210499Y743073D1*
X-1204227Y739740D1*
X-1120893Y826407D2*
Y823073D1*
Y819740D1*
Y816407D1*
Y813073D1*
Y809740D1*
Y806407D1*
Y803073D1*
Y799740D1*
Y796407D1*
Y793073D1*
Y789740D1*
Y786407D1*
Y783073D1*
Y779740D1*
Y776407D1*
Y773073D1*
Y769740D1*
Y766407D1*
Y763073D1*
Y759740D1*
Y756407D1*
Y753073D1*
Y749740D1*
X-1094227Y746407D1*
X-1097560Y826407D2*
X-1091561Y823073D1*
X-1086409Y819740D1*
X-1082501Y816407D1*
X-1079863Y813073D1*
X-1078078Y809740D1*
X-1076643Y806407D1*
X-1075518Y803073D1*
X-1074831Y799740D1*
X-1074483Y796407D1*
X-1074327Y793073D1*
X-1074264Y789740D1*
X-1074240Y786407D1*
X-1074231Y783073D1*
X-1074228Y779740D1*
X-1074240Y776407D1*
X-1074357Y773073D1*
X-1074795Y769740D1*
X-1075723Y766407D1*
X-1077146Y763073D1*
X-1079315Y759740D1*
X-1082296Y756407D1*
X-1091518Y753073D1*
X-1106124Y749740D1*
X-1124227Y746407D1*
X-1024227Y789740D2*
Y786407D1*
Y783073D1*
Y779740D1*
Y776407D1*
X-1024214Y773073D1*
X-1024096Y769740D1*
X-1023659Y766407D1*
X-1022717Y763073D1*
X-1021099Y759740D1*
X-1018828Y756407D1*
X-1011147Y753073D1*
X-999084Y749740D1*
X-984227Y746407D1*
X-977560Y789740D2*
Y786407D1*
Y783073D1*
Y779740D1*
Y776407D1*
Y773073D1*
X-977573Y769740D1*
X-977703Y766407D1*
X-978258Y763073D1*
X-979298Y759740D1*
X-981904Y756407D1*
X-988350Y753073D1*
X-998419Y749740D1*
X-1010893Y746407D1*
X-1170893Y749740D2*
X-1174227Y746407D1*
X-1167560Y749740D2*
Y746407D1*
Y743073D1*
Y739740D1*
X-732113Y1846473D2*
X-733652Y1843140D1*
X-734622Y1839807D1*
X-735224Y1836473D1*
X-735864Y1833140D1*
X-736749Y1829807D1*
X-737650Y1826473D1*
X-738360Y1823140D1*
X-739098Y1819807D1*
X-740039Y1816473D1*
X-740966Y1813140D1*
X-741687Y1809807D1*
X-742429Y1806473D1*
X-743372Y1803140D1*
X-744299Y1799807D1*
X-745020Y1796473D1*
X-745762Y1793140D1*
X-746705Y1789807D1*
X-747632Y1786473D1*
X-748354Y1783140D1*
X-749096Y1779807D1*
X-750038Y1776473D1*
X-750966Y1773140D1*
X-751687Y1769807D1*
X-752429Y1766473D1*
X-753372Y1763140D1*
X-754299Y1759807D1*
X-755030Y1756473D1*
X-755863Y1753140D1*
X-757153Y1749807D1*
X-758780Y1746473D1*
X-718780Y1846473D2*
X-718653Y1843140D1*
X-718226Y1839807D1*
X-717414Y1836473D1*
X-716442Y1833140D1*
X-715436Y1829807D1*
X-714328Y1826473D1*
X-713319Y1823140D1*
X-712562Y1819807D1*
X-711806Y1816473D1*
X-710858Y1813140D1*
X-709929Y1809807D1*
X-709207Y1806473D1*
X-708464Y1803140D1*
X-707509Y1799807D1*
X-706477Y1796473D1*
X-705448Y1793140D1*
X-704320Y1789807D1*
X-703193Y1786473D1*
X-702035Y1783140D1*
X-700546Y1779807D1*
X-698780Y1776473D1*
X-678780Y1846473D2*
X-679920Y1843140D1*
X-680925Y1839807D1*
X-681674Y1836473D1*
X-682425Y1833140D1*
X-683371Y1829807D1*
X-684299Y1826473D1*
X-685020Y1823140D1*
X-685762Y1819807D1*
X-686705Y1816473D1*
X-687632Y1813140D1*
X-688354Y1809807D1*
X-689096Y1806473D1*
X-690051Y1803140D1*
X-691083Y1799807D1*
X-692112Y1796473D1*
X-693227Y1793140D1*
X-694239Y1789807D1*
X-695007Y1786473D1*
X-695855Y1783140D1*
X-697150Y1779807D1*
X-698780Y1776473D1*
X-665447Y1846473D2*
X-664932Y1843140D1*
X-664105Y1839807D1*
X-663229Y1836473D1*
X-662528Y1833140D1*
X-661793Y1829807D1*
X-660854Y1826473D1*
X-659927Y1823140D1*
X-659206Y1819807D1*
X-658464Y1816473D1*
X-657522Y1813140D1*
X-656594Y1809807D1*
X-655873Y1806473D1*
X-655131Y1803140D1*
X-654188Y1799807D1*
X-653274Y1796473D1*
X-652657Y1793140D1*
X-652222Y1789807D1*
X-651653Y1786473D1*
X-650795Y1783140D1*
X-649905Y1779807D1*
X-649198Y1776473D1*
X-648461Y1773140D1*
X-647521Y1769807D1*
X-646594Y1766473D1*
X-645873Y1763140D1*
X-645131Y1759807D1*
X-644188Y1756473D1*
X-643265Y1753140D1*
X-642610Y1749807D1*
X-642113Y1746473D1*
X-608780Y1846473D2*
X-610319Y1843140D1*
X-611289Y1839807D1*
X-611891Y1836473D1*
X-612530Y1833140D1*
X-613416Y1829807D1*
X-614316Y1826473D1*
X-615027Y1823140D1*
X-615765Y1819807D1*
X-616706Y1816473D1*
X-617632Y1813140D1*
X-618354Y1809807D1*
X-619096Y1806473D1*
X-620038Y1803140D1*
X-620966Y1799807D1*
X-621687Y1796473D1*
X-622429Y1793140D1*
X-623372Y1789807D1*
X-624299Y1786473D1*
X-625020Y1783140D1*
X-625762Y1779807D1*
X-626705Y1776473D1*
X-627632Y1773140D1*
X-628354Y1769807D1*
X-629096Y1766473D1*
X-630038Y1763140D1*
X-630966Y1759807D1*
X-631697Y1756473D1*
X-632530Y1753140D1*
X-633820Y1749807D1*
X-635447Y1746473D1*
X-595447Y1846473D2*
X-595320Y1843140D1*
X-594892Y1839807D1*
X-594080Y1836473D1*
X-593109Y1833140D1*
X-592102Y1829807D1*
X-590995Y1826473D1*
X-589986Y1823140D1*
X-589229Y1819807D1*
X-588472Y1816473D1*
X-587524Y1813140D1*
X-586595Y1809807D1*
X-585873Y1806473D1*
X-585131Y1803140D1*
X-584175Y1799807D1*
X-583144Y1796473D1*
X-582115Y1793140D1*
X-580986Y1789807D1*
X-579860Y1786473D1*
X-578702Y1783140D1*
X-577212Y1779807D1*
X-575447Y1776473D1*
X-555447Y1846473D2*
X-556586Y1843140D1*
X-557591Y1839807D1*
X-558340Y1836473D1*
X-559092Y1833140D1*
X-560037Y1829807D1*
X-560965Y1826473D1*
X-561687Y1823140D1*
X-562429Y1819807D1*
X-563372Y1816473D1*
X-564299Y1813140D1*
X-565020Y1809807D1*
X-565762Y1806473D1*
X-566718Y1803140D1*
X-567749Y1799807D1*
X-568778Y1796473D1*
X-569894Y1793140D1*
X-570906Y1789807D1*
X-571674Y1786473D1*
X-572522Y1783140D1*
X-573817Y1779807D1*
X-575447Y1776473D1*
X-542113Y1846473D2*
X-541598Y1843140D1*
X-540772Y1839807D1*
X-539896Y1836473D1*
X-539195Y1833140D1*
X-538460Y1829807D1*
X-537520Y1826473D1*
X-536594Y1823140D1*
X-535873Y1819807D1*
X-535131Y1816473D1*
X-534188Y1813140D1*
X-533261Y1809807D1*
X-532540Y1806473D1*
X-531798Y1803140D1*
X-530855Y1799807D1*
X-529941Y1796473D1*
X-529324Y1793140D1*
X-528889Y1789807D1*
X-528320Y1786473D1*
X-527462Y1783140D1*
X-526572Y1779807D1*
X-525865Y1776473D1*
X-525128Y1773140D1*
X-524187Y1769807D1*
X-523261Y1766473D1*
X-522540Y1763140D1*
X-521798Y1759807D1*
X-520854Y1756473D1*
X-519932Y1753140D1*
X-519276Y1749807D1*
X-518780Y1746473D1*
X-485447Y1846473D2*
X-486985Y1843140D1*
X-487956Y1839807D1*
X-488557Y1836473D1*
X-489197Y1833140D1*
X-490082Y1829807D1*
X-490983Y1826473D1*
X-491693Y1823140D1*
X-492431Y1819807D1*
X-493373Y1816473D1*
X-494299Y1813140D1*
X-495020Y1809807D1*
X-495762Y1806473D1*
X-496705Y1803140D1*
X-497632Y1799807D1*
X-498354Y1796473D1*
X-499096Y1793140D1*
X-500038Y1789807D1*
X-500966Y1786473D1*
X-501687Y1783140D1*
X-502429Y1779807D1*
X-503372Y1776473D1*
X-504299Y1773140D1*
X-505020Y1769807D1*
X-505762Y1766473D1*
X-506705Y1763140D1*
X-507632Y1759807D1*
X-508363Y1756473D1*
X-509197Y1753140D1*
X-510486Y1749807D1*
X-512113Y1746473D1*
X-472113Y1846473D2*
X-471986Y1843140D1*
X-471559Y1839807D1*
X-470747Y1836473D1*
X-469775Y1833140D1*
X-468769Y1829807D1*
X-467662Y1826473D1*
X-466652Y1823140D1*
X-465895Y1819807D1*
X-465139Y1816473D1*
X-464191Y1813140D1*
X-463262Y1809807D1*
X-462540Y1806473D1*
X-461798Y1803140D1*
X-460842Y1799807D1*
X-459811Y1796473D1*
X-458782Y1793140D1*
X-457653Y1789807D1*
X-456527Y1786473D1*
X-455368Y1783140D1*
X-453879Y1779807D1*
X-452113Y1776473D1*
X-432113Y1846473D2*
X-433253Y1843140D1*
X-434258Y1839807D1*
X-435007Y1836473D1*
X-435758Y1833140D1*
X-436704Y1829807D1*
X-437632Y1826473D1*
X-438353Y1823140D1*
X-439096Y1819807D1*
X-440038Y1816473D1*
X-440966Y1813140D1*
X-441687Y1809807D1*
X-442429Y1806473D1*
X-443385Y1803140D1*
X-444416Y1799807D1*
X-445445Y1796473D1*
X-446561Y1793140D1*
X-447573Y1789807D1*
X-448341Y1786473D1*
X-449188Y1783140D1*
X-450483Y1779807D1*
X-452113Y1776473D1*
X-418780Y1846473D2*
X-418265Y1843140D1*
X-417438Y1839807D1*
X-416562Y1836473D1*
X-415861Y1833140D1*
X-415127Y1829807D1*
X-414187Y1826473D1*
X-413261Y1823140D1*
X-412540Y1819807D1*
X-411797Y1816473D1*
X-410855Y1813140D1*
X-409928Y1809807D1*
X-409206Y1806473D1*
X-408464Y1803140D1*
X-407522Y1799807D1*
X-406607Y1796473D1*
X-405990Y1793140D1*
X-405556Y1789807D1*
X-404987Y1786473D1*
X-404129Y1783140D1*
X-403238Y1779807D1*
X-402531Y1776473D1*
X-401795Y1773140D1*
X-400854Y1769807D1*
X-399927Y1766473D1*
X-399206Y1763140D1*
X-398464Y1759807D1*
X-397521Y1756473D1*
X-396598Y1753140D1*
X-395943Y1749807D1*
X-395447Y1746473D1*
X-382113Y1846473D2*
Y1843140D1*
Y1839807D1*
Y1836473D1*
Y1833140D1*
X-368780Y1846473D2*
Y1843140D1*
Y1839807D1*
Y1836473D1*
Y1833140D1*
X-345447Y1846473D2*
Y1843140D1*
Y1839807D1*
Y1836473D1*
Y1833140D1*
Y1829807D1*
Y1826473D1*
Y1823140D1*
Y1819807D1*
Y1816473D1*
Y1813140D1*
Y1809807D1*
Y1806473D1*
Y1803140D1*
Y1799807D1*
Y1796473D1*
Y1793140D1*
Y1789807D1*
Y1786473D1*
Y1783140D1*
Y1779807D1*
Y1776473D1*
Y1773140D1*
Y1769807D1*
Y1766473D1*
Y1763140D1*
Y1759807D1*
Y1756473D1*
Y1753140D1*
Y1749807D1*
Y1746473D1*
X-278780Y1846473D2*
Y1843140D1*
Y1839807D1*
Y1836473D1*
X-258780Y1846473D2*
Y1843140D1*
Y1839807D1*
Y1836473D1*
Y1833140D1*
Y1829807D1*
Y1826473D1*
Y1823140D1*
Y1819807D1*
Y1816473D1*
Y1813140D1*
Y1809807D1*
Y1806473D1*
Y1803140D1*
Y1799807D1*
Y1796473D1*
Y1793140D1*
Y1789807D1*
Y1786473D1*
Y1783140D1*
Y1779807D1*
Y1776473D1*
Y1773140D1*
Y1769807D1*
Y1766473D1*
Y1763140D1*
Y1759807D1*
Y1756473D1*
Y1753140D1*
Y1749807D1*
Y1746473D1*
X-245447Y1846473D2*
Y1843140D1*
Y1839807D1*
Y1836473D1*
Y1833140D1*
Y1829807D1*
Y1826473D1*
Y1823140D1*
Y1819807D1*
Y1816473D1*
Y1813140D1*
Y1809807D1*
Y1806473D1*
Y1803140D1*
X-175447Y1846473D2*
Y1843140D1*
Y1839807D1*
Y1836473D1*
Y1833140D1*
Y1829807D1*
Y1826473D1*
Y1823140D1*
Y1819807D1*
Y1816473D1*
Y1813140D1*
Y1809807D1*
Y1806473D1*
Y1803140D1*
Y1799807D1*
Y1796473D1*
Y1793140D1*
Y1789807D1*
Y1786473D1*
Y1783140D1*
Y1779807D1*
Y1776473D1*
Y1773140D1*
Y1769807D1*
Y1766473D1*
Y1763140D1*
Y1759807D1*
Y1756473D1*
Y1753140D1*
Y1749807D1*
Y1746473D1*
X-108780Y1846473D2*
Y1843140D1*
Y1839807D1*
Y1836473D1*
X-88780Y1846473D2*
Y1843140D1*
Y1839807D1*
Y1836473D1*
Y1833140D1*
Y1829807D1*
Y1826473D1*
Y1823140D1*
Y1819807D1*
Y1816473D1*
Y1813140D1*
Y1809807D1*
Y1806473D1*
Y1803140D1*
Y1799807D1*
Y1796473D1*
Y1793140D1*
Y1789807D1*
Y1786473D1*
Y1783140D1*
Y1779807D1*
Y1776473D1*
Y1773140D1*
Y1769807D1*
Y1766473D1*
Y1763140D1*
Y1759807D1*
Y1756473D1*
Y1753140D1*
Y1749807D1*
Y1746473D1*
X-75447Y1846473D2*
Y1843140D1*
Y1839807D1*
Y1836473D1*
Y1833140D1*
Y1829807D1*
X-75434Y1826473D1*
X-75303Y1823140D1*
X-74748Y1819807D1*
X-73395Y1816473D1*
X-71200Y1813140D1*
X-68528Y1809807D1*
X-65857Y1806473D1*
X-63443Y1803140D1*
X-61138Y1799807D1*
X-58780Y1796473D1*
X-25447Y1846473D2*
X-27627Y1843140D1*
X-29851Y1839807D1*
X-32115Y1836473D1*
X-34206Y1833140D1*
X-36113Y1829807D1*
X-37993Y1826473D1*
X-40023Y1823140D1*
X-42187Y1819807D1*
X-44234Y1816473D1*
X-46123Y1813140D1*
X-48023Y1809807D1*
X-50294Y1806473D1*
X-53408Y1803140D1*
X-57491Y1799807D1*
X-62113Y1796473D1*
X-12113Y1846473D2*
X-13781Y1843140D1*
X-15717Y1839807D1*
X-17649Y1836473D1*
X-19488Y1833140D1*
X-21342Y1829807D1*
X-23361Y1826473D1*
X-25522Y1823140D1*
X-27568Y1819807D1*
X-29444Y1816473D1*
X-31213Y1813140D1*
X-32933Y1809807D1*
X-34723Y1806473D1*
X-36713Y1803140D1*
X-38862Y1799807D1*
X-40891Y1796473D1*
X-42648Y1793140D1*
X-43966Y1789807D1*
X-44626Y1786473D1*
X-44796Y1783140D1*
X-43367Y1779807D1*
X-41167Y1776473D1*
X-38401Y1773140D1*
X-35426Y1769807D1*
X-32613Y1766473D1*
X-30114Y1763140D1*
X-27648Y1759807D1*
X-24901Y1756473D1*
X-21878Y1753140D1*
X-18693Y1749807D1*
X-15447Y1746473D1*
X21220Y1846473D2*
Y1843140D1*
Y1839807D1*
Y1836473D1*
Y1833140D1*
Y1829807D1*
Y1826473D1*
Y1823140D1*
Y1819807D1*
Y1816473D1*
Y1813140D1*
Y1809807D1*
Y1806473D1*
Y1803140D1*
Y1799807D1*
Y1796473D1*
Y1793140D1*
Y1789807D1*
Y1786473D1*
Y1783140D1*
Y1779807D1*
Y1776473D1*
Y1773140D1*
Y1769807D1*
Y1766473D1*
Y1763140D1*
Y1759807D1*
Y1756473D1*
X-8780D1*
Y1753140D1*
Y1749807D1*
Y1746473D1*
X34553Y1846473D2*
Y1843140D1*
Y1839807D1*
Y1836473D1*
Y1833140D1*
Y1829807D1*
Y1826473D1*
Y1823140D1*
Y1819807D1*
Y1816473D1*
Y1813140D1*
Y1809807D1*
Y1806473D1*
Y1803140D1*
Y1799807D1*
Y1796473D1*
Y1793140D1*
Y1789807D1*
Y1786473D1*
Y1783140D1*
Y1779807D1*
Y1776473D1*
Y1773140D1*
Y1769807D1*
Y1766473D1*
Y1763140D1*
Y1759807D1*
Y1756473D1*
X61220D1*
Y1753140D1*
Y1749807D1*
Y1746473D1*
X67887Y1846473D2*
X68402Y1843140D1*
X69241Y1839807D1*
X70221Y1836473D1*
X71243Y1833140D1*
X72468Y1829807D1*
X73889Y1826473D1*
X75341Y1823140D1*
X76644Y1819807D1*
X77800Y1816473D1*
X78982Y1813140D1*
X80118Y1809807D1*
X81205Y1806473D1*
X82455Y1803140D1*
X83885Y1799807D1*
X85339Y1796473D1*
X86644Y1793140D1*
X87800Y1789807D1*
X88982Y1786473D1*
X90118Y1783140D1*
X91192Y1779807D1*
X92338Y1776473D1*
X93460Y1773140D1*
X94541Y1769807D1*
X95789Y1766473D1*
X97218Y1763140D1*
X98673Y1759807D1*
X99987Y1756473D1*
X101236Y1753140D1*
X102765Y1749807D1*
X104553Y1746473D1*
X81220Y1846473D2*
X81735Y1843140D1*
X82575Y1839807D1*
X83568Y1836473D1*
X84706Y1833140D1*
X86358Y1829807D1*
X88637Y1826473D1*
X91220Y1823140D1*
X137887Y1846473D2*
X137372Y1843140D1*
X136532Y1839807D1*
X135539Y1836473D1*
X134401Y1833140D1*
X132749Y1829807D1*
X130470Y1826473D1*
X127887Y1823140D1*
X151220Y1846473D2*
X150067Y1843140D1*
X148958Y1839807D1*
X147901Y1836473D1*
X146764Y1833140D1*
X145645Y1829807D1*
X144578Y1826473D1*
X143435Y1823140D1*
X142313Y1819807D1*
X141232Y1816473D1*
X139984Y1813140D1*
X138555Y1809807D1*
X137101Y1806473D1*
X135796Y1803140D1*
X134640Y1799807D1*
X133458Y1796473D1*
X132322Y1793140D1*
X131235Y1789807D1*
X129985Y1786473D1*
X128555Y1783140D1*
X127101Y1779807D1*
X125796Y1776473D1*
X124640Y1773140D1*
X123458Y1769807D1*
X122322Y1766473D1*
X121235Y1763140D1*
X119985Y1759807D1*
X118553Y1756473D1*
X117081Y1753140D1*
X115738Y1749807D1*
X114553Y1746473D1*
X167887Y1846473D2*
Y1843140D1*
Y1839807D1*
Y1836473D1*
Y1833140D1*
Y1829807D1*
Y1826473D1*
Y1823140D1*
Y1819807D1*
Y1816473D1*
Y1813140D1*
Y1809807D1*
Y1806473D1*
Y1803140D1*
Y1799807D1*
Y1796473D1*
Y1793140D1*
Y1789807D1*
Y1786473D1*
Y1783140D1*
Y1779807D1*
Y1776473D1*
Y1773140D1*
Y1769807D1*
Y1766473D1*
Y1763140D1*
Y1759807D1*
Y1756473D1*
Y1753140D1*
Y1749807D1*
Y1746473D1*
X234553Y1846473D2*
Y1843140D1*
Y1839807D1*
Y1836473D1*
X244553Y1846473D2*
X245068Y1843140D1*
X245908Y1839807D1*
X246888Y1836473D1*
X247910Y1833140D1*
X249135Y1829807D1*
X250556Y1826473D1*
X252007Y1823140D1*
X253311Y1819807D1*
X254467Y1816473D1*
X255648Y1813140D1*
X256785Y1809807D1*
X257871Y1806473D1*
X259121Y1803140D1*
X260551Y1799807D1*
X262006Y1796473D1*
X263310Y1793140D1*
X264466Y1789807D1*
X265648Y1786473D1*
X266785Y1783140D1*
X267858Y1779807D1*
X269004Y1776473D1*
X270127Y1773140D1*
X271207Y1769807D1*
X272456Y1766473D1*
X273885Y1763140D1*
X275339Y1759807D1*
X276654Y1756473D1*
X277903Y1753140D1*
X279432Y1749807D1*
X281220Y1746473D1*
X257887Y1846473D2*
X258402Y1843140D1*
X259241Y1839807D1*
X260234Y1836473D1*
X261373Y1833140D1*
X263025Y1829807D1*
X265304Y1826473D1*
X267887Y1823140D1*
X314553Y1846473D2*
X314038Y1843140D1*
X313199Y1839807D1*
X312206Y1836473D1*
X311067Y1833140D1*
X309415Y1829807D1*
X307136Y1826473D1*
X304553Y1823140D1*
X327887Y1846473D2*
X326734Y1843140D1*
X325625Y1839807D1*
X324568Y1836473D1*
X323430Y1833140D1*
X322311Y1829807D1*
X321245Y1826473D1*
X320101Y1823140D1*
X318980Y1819807D1*
X317899Y1816473D1*
X316651Y1813140D1*
X315222Y1809807D1*
X313767Y1806473D1*
X312463Y1803140D1*
X311307Y1799807D1*
X310125Y1796473D1*
X308988Y1793140D1*
X307902Y1789807D1*
X306652Y1786473D1*
X305222Y1783140D1*
X303768Y1779807D1*
X302463Y1776473D1*
X301307Y1773140D1*
X300125Y1769807D1*
X298988Y1766473D1*
X297902Y1763140D1*
X296652Y1759807D1*
X295219Y1756473D1*
X293747Y1753140D1*
X292405Y1749807D1*
X291220Y1746473D1*
X344553Y1846473D2*
Y1843140D1*
Y1839807D1*
Y1836473D1*
Y1833140D1*
Y1829807D1*
Y1826473D1*
Y1823140D1*
Y1819807D1*
Y1816473D1*
Y1813140D1*
Y1809807D1*
Y1806473D1*
Y1803140D1*
Y1799807D1*
Y1796473D1*
Y1793140D1*
Y1789807D1*
Y1786473D1*
Y1783140D1*
Y1779807D1*
Y1776473D1*
Y1773140D1*
Y1769807D1*
Y1766473D1*
Y1763140D1*
Y1759807D1*
Y1756473D1*
Y1753140D1*
Y1749807D1*
Y1746473D1*
X397887Y1846473D2*
X402746Y1843140D1*
X406906Y1839807D1*
X410169Y1836473D1*
X412730Y1833140D1*
X413668Y1829807D1*
X414176Y1826473D1*
X414405Y1823140D1*
X414486Y1819807D1*
X414404Y1816473D1*
X413979Y1813140D1*
X413042Y1809807D1*
X411529Y1806473D1*
X409295Y1803140D1*
X406469Y1799807D1*
X403706Y1796473D1*
X401220Y1793140D1*
X405564Y1789807D1*
X408898Y1786473D1*
X411298Y1783140D1*
X412909Y1779807D1*
X413811Y1776473D1*
X414234Y1773140D1*
X414305Y1769807D1*
X413942Y1766473D1*
X413041Y1763140D1*
X411629Y1759807D1*
X409571Y1756473D1*
X406542Y1753140D1*
X402493Y1749807D1*
X397887Y1746473D1*
X434553Y1846473D2*
Y1843140D1*
Y1839807D1*
Y1836473D1*
Y1833140D1*
X447887Y1846473D2*
Y1843140D1*
Y1839807D1*
Y1836473D1*
Y1833140D1*
X491220Y1846473D2*
X486475Y1843140D1*
X482625Y1839807D1*
X479723Y1836473D1*
X477467Y1833140D1*
X475557Y1829807D1*
X473909Y1826473D1*
X472640Y1823140D1*
X471878Y1819807D1*
X471497Y1816473D1*
X471328Y1813140D1*
X471260Y1809807D1*
X471234Y1806473D1*
X471225Y1803140D1*
X471222Y1799807D1*
X471221Y1796473D1*
X471220Y1793140D1*
Y1789807D1*
Y1786473D1*
Y1783140D1*
X471233Y1779807D1*
X471350Y1776473D1*
X471775Y1773140D1*
X472586Y1769807D1*
X473571Y1766473D1*
X474708Y1763140D1*
X476383Y1759807D1*
X478876Y1756473D1*
X482405Y1753140D1*
X487382Y1749807D1*
X493899Y1746473D1*
X501220Y1743140D1*
X517887Y1846473D2*
X522746Y1843140D1*
X526919Y1839807D1*
X530299Y1836473D1*
X532932Y1833140D1*
X535070Y1829807D1*
X537026Y1826473D1*
X539053Y1823140D1*
X541220Y1819807D1*
X581220Y1846473D2*
X576475Y1843140D1*
X572625Y1839807D1*
X569723Y1836473D1*
X567467Y1833140D1*
X565557Y1829807D1*
X563909Y1826473D1*
X562640Y1823140D1*
X561878Y1819807D1*
X561497Y1816473D1*
X561328Y1813140D1*
X561260Y1809807D1*
X561234Y1806473D1*
X561225Y1803140D1*
X561222Y1799807D1*
X561221Y1796473D1*
X561220Y1793140D1*
Y1789807D1*
Y1786473D1*
Y1783140D1*
Y1779807D1*
X561233Y1776473D1*
X561350Y1773140D1*
X561788Y1769807D1*
X562717Y1766473D1*
X564126Y1763140D1*
X566074Y1759807D1*
X568734Y1756473D1*
X572346Y1753140D1*
X577360Y1749807D1*
X583891Y1746473D1*
X591220Y1743140D1*
X611220Y1846473D2*
X615566Y1843140D1*
X619451Y1839807D1*
X622487Y1836473D1*
X624750Y1833140D1*
X626413Y1829807D1*
X627714Y1826473D1*
X628938Y1823140D1*
X629978Y1819807D1*
X630633Y1816473D1*
X630970Y1813140D1*
X631121Y1809807D1*
X631183Y1806473D1*
X631207Y1803140D1*
X631216Y1799807D1*
X631219Y1796473D1*
X631220Y1793140D1*
Y1789807D1*
Y1786473D1*
Y1783140D1*
X631207Y1779807D1*
X631090Y1776473D1*
X630652Y1773140D1*
X629736Y1769807D1*
X628444Y1766473D1*
X626934Y1763140D1*
X625202Y1759807D1*
X622970Y1756473D1*
X619586Y1753140D1*
X614262Y1749807D1*
X606693Y1746473D1*
X597887Y1743140D1*
X654553Y1846473D2*
Y1843140D1*
Y1839807D1*
Y1836473D1*
Y1833140D1*
Y1829807D1*
Y1826473D1*
Y1823140D1*
Y1819807D1*
Y1816473D1*
Y1813140D1*
Y1809807D1*
Y1806473D1*
Y1803140D1*
Y1799807D1*
Y1796473D1*
Y1793140D1*
Y1789807D1*
Y1786473D1*
Y1783140D1*
Y1779807D1*
Y1776473D1*
Y1773140D1*
Y1769807D1*
Y1766473D1*
Y1763140D1*
Y1759807D1*
Y1756473D1*
Y1753140D1*
Y1749807D1*
Y1746473D1*
X667887Y1846473D2*
Y1843140D1*
Y1839807D1*
Y1836473D1*
Y1833140D1*
Y1829807D1*
Y1826473D1*
Y1823140D1*
Y1819807D1*
Y1816473D1*
Y1813140D1*
Y1809807D1*
Y1806473D1*
Y1803140D1*
Y1799807D1*
X667900Y1796473D1*
X668027Y1793140D1*
X668542Y1789807D1*
X669681Y1786473D1*
X671220Y1783140D1*
X731220Y1846473D2*
Y1843140D1*
Y1839807D1*
Y1836473D1*
Y1833140D1*
Y1829807D1*
Y1826473D1*
Y1823140D1*
Y1819807D1*
Y1816473D1*
Y1813140D1*
Y1809807D1*
Y1806473D1*
Y1803140D1*
Y1799807D1*
Y1796473D1*
X731207Y1793140D1*
X731080Y1789807D1*
X730565Y1786473D1*
X729425Y1783140D1*
X727887Y1779807D1*
X741220Y1846473D2*
Y1843140D1*
Y1839807D1*
Y1836473D1*
Y1833140D1*
Y1829807D1*
Y1826473D1*
Y1823140D1*
Y1819807D1*
Y1816473D1*
Y1813140D1*
Y1809807D1*
Y1806473D1*
Y1803140D1*
Y1799807D1*
Y1796473D1*
Y1793140D1*
Y1789807D1*
Y1786473D1*
Y1783140D1*
Y1779807D1*
Y1776473D1*
Y1773140D1*
Y1769807D1*
Y1766473D1*
Y1763140D1*
Y1759807D1*
Y1756473D1*
Y1753140D1*
Y1749807D1*
Y1746473D1*
X-332113Y1836473D2*
Y1833140D1*
Y1829807D1*
Y1826473D1*
Y1823140D1*
Y1819807D1*
Y1816473D1*
Y1813140D1*
Y1809807D1*
Y1806473D1*
Y1803140D1*
X-162113Y1836473D2*
Y1833140D1*
Y1829807D1*
Y1826473D1*
Y1823140D1*
Y1819807D1*
Y1816473D1*
Y1813140D1*
Y1809807D1*
Y1806473D1*
Y1803140D1*
X181220Y1836473D2*
Y1833140D1*
Y1829807D1*
Y1826473D1*
Y1823140D1*
Y1819807D1*
Y1816473D1*
Y1813140D1*
Y1809807D1*
Y1806473D1*
Y1803140D1*
Y1799807D1*
Y1796473D1*
Y1793140D1*
Y1789807D1*
Y1786473D1*
Y1783140D1*
Y1779807D1*
Y1776473D1*
Y1773140D1*
Y1769807D1*
Y1766473D1*
Y1763140D1*
Y1759807D1*
Y1756473D1*
Y1753140D1*
Y1749807D1*
Y1746473D1*
X357887Y1836473D2*
Y1833140D1*
Y1829807D1*
Y1826473D1*
Y1823140D1*
Y1819807D1*
Y1816473D1*
Y1813140D1*
Y1809807D1*
Y1806473D1*
Y1803140D1*
X394553Y1799807D1*
X387887Y1836473D2*
X393370Y1833140D1*
X397696Y1829807D1*
X400728Y1826473D1*
X403000Y1823140D1*
X403672Y1819807D1*
X403664Y1816473D1*
X403140Y1813140D1*
X401205Y1809807D1*
X392786Y1806473D1*
X377589Y1803140D1*
X357887Y1799807D1*
X497887Y1836473D2*
X494566Y1833140D1*
X491363Y1829807D1*
X488572Y1826473D1*
X486475Y1823140D1*
X484925Y1819807D1*
X483582Y1816473D1*
X482493Y1813140D1*
X481818Y1809807D1*
X481474Y1806473D1*
X481320Y1803140D1*
X481257Y1799807D1*
X481233Y1796473D1*
X481225Y1793140D1*
X481235Y1789807D1*
X481351Y1786473D1*
X481775Y1783140D1*
X482586Y1779807D1*
X483558Y1776473D1*
X484590Y1773140D1*
X486036Y1769807D1*
X488011Y1766473D1*
X495096Y1763140D1*
X506713Y1759807D1*
X521220Y1756473D1*
X507887Y1836473D2*
X513771Y1833140D1*
X518625Y1829807D1*
X522251Y1826473D1*
X525159Y1823140D1*
X527887Y1819807D1*
X587887Y1836473D2*
X584566Y1833140D1*
X581363Y1829807D1*
X578572Y1826473D1*
X576475Y1823140D1*
X574925Y1819807D1*
X573582Y1816473D1*
X572493Y1813140D1*
X571818Y1809807D1*
X571474Y1806473D1*
X571320Y1803140D1*
X571257Y1799807D1*
X571233Y1796473D1*
X571225Y1793140D1*
X571235Y1789807D1*
X571351Y1786473D1*
X571775Y1783140D1*
X572586Y1779807D1*
X573558Y1776473D1*
X574590Y1773140D1*
X576036Y1769807D1*
X578011Y1766473D1*
X585096Y1763140D1*
X596713Y1759807D1*
X611220Y1756473D1*
X597887Y1836473D2*
X603885Y1833140D1*
X609038Y1829807D1*
X612932Y1826473D1*
X615892Y1823140D1*
X616923Y1819807D1*
X617478Y1816473D1*
X617727Y1813140D1*
X617828Y1809807D1*
X617866Y1806473D1*
X617880Y1803140D1*
X617884Y1799807D1*
X617886Y1796473D1*
Y1793140D1*
X617887Y1789807D1*
Y1786473D1*
Y1783140D1*
X617874Y1779807D1*
X617743Y1776473D1*
X617188Y1773140D1*
X616148Y1769807D1*
X613543Y1766473D1*
X607097Y1763140D1*
X597028Y1759807D1*
X584553Y1756473D1*
X694553Y1833140D2*
X693287Y1829807D1*
X691854Y1826473D1*
X690306Y1823140D1*
X688700Y1819807D1*
X687160Y1816473D1*
X685819Y1813140D1*
X684636Y1809807D1*
X683344Y1806473D1*
X681885Y1803140D1*
X680320Y1799807D1*
X678693Y1796473D1*
X677035Y1793140D1*
X675285Y1789807D1*
X673343Y1786473D1*
X671220Y1783140D1*
X701220Y1833140D2*
X703287Y1829807D1*
X705188Y1826473D1*
X706973Y1823140D1*
X708687Y1819807D1*
X710364Y1816473D1*
X711931Y1813140D1*
X713282Y1809807D1*
X714469Y1806473D1*
X715762Y1803140D1*
X717222Y1799807D1*
X718786Y1796473D1*
X720414Y1793140D1*
X722072Y1789807D1*
X723821Y1786473D1*
X725764Y1783140D1*
X727887Y1779807D1*
X-728780Y1823140D2*
X-728907Y1819807D1*
X-729334Y1816473D1*
X-730133Y1813140D1*
X-731001Y1809807D1*
X-731700Y1806473D1*
X-732433Y1803140D1*
X-733373Y1799807D1*
X-734286Y1796473D1*
X-734903Y1793140D1*
X-735338Y1789807D1*
X-735907Y1786473D1*
X-736765Y1783140D1*
X-737655Y1779807D1*
X-738362Y1776473D1*
X-739099Y1773140D1*
X-740039Y1769807D1*
X-740953Y1766473D1*
X-741570Y1763140D1*
X-742004Y1759807D1*
X-742576Y1756473D1*
X-743462Y1753140D1*
X-744477Y1749807D1*
X-745447Y1746473D1*
X-722113Y1823140D2*
X-721986Y1819807D1*
X-721559Y1816473D1*
X-720760Y1813140D1*
X-719892Y1809807D1*
X-719194Y1806473D1*
X-718460Y1803140D1*
X-717520Y1799807D1*
X-716594Y1796473D1*
X-715873Y1793140D1*
X-715131Y1789807D1*
X-714188Y1786473D1*
X-713261Y1783140D1*
X-712540Y1779807D1*
X-711798Y1776473D1*
X-710855Y1773140D1*
X-709928Y1769807D1*
X-709206Y1766473D1*
X-708464Y1763140D1*
X-707509Y1759807D1*
X-706467Y1756473D1*
X-705346Y1753140D1*
X-703871Y1749807D1*
X-702113Y1746473D1*
X-675447Y1823140D2*
X-675962Y1819807D1*
X-676788Y1816473D1*
X-677664Y1813140D1*
X-678365Y1809807D1*
X-679100Y1806473D1*
X-680053Y1803140D1*
X-681083Y1799807D1*
X-682112Y1796473D1*
X-683228Y1793140D1*
X-684239Y1789807D1*
X-684997Y1786473D1*
X-685754Y1783140D1*
X-686702Y1779807D1*
X-687631Y1776473D1*
X-688353Y1773140D1*
X-689096Y1769807D1*
X-690038Y1766473D1*
X-690966Y1763140D1*
X-691687Y1759807D1*
X-692432Y1756473D1*
X-693402Y1753140D1*
X-694456Y1749807D1*
X-695447Y1746473D1*
X-668780Y1823140D2*
Y1819807D1*
X-668767Y1816473D1*
X-668650Y1813140D1*
X-668225Y1809807D1*
X-667427Y1806473D1*
X-666559Y1803140D1*
X-665860Y1799807D1*
X-665127Y1796473D1*
X-664187Y1793140D1*
X-663274Y1789807D1*
X-662657Y1786473D1*
X-662222Y1783140D1*
X-661653Y1779807D1*
X-660795Y1776473D1*
X-659905Y1773140D1*
X-659198Y1769807D1*
X-658461Y1766473D1*
X-657521Y1763140D1*
X-656607Y1759807D1*
X-656003Y1756473D1*
X-655685Y1753140D1*
X-655535Y1749807D1*
X-655447Y1746473D1*
X-605447Y1823140D2*
X-605574Y1819807D1*
X-606001Y1816473D1*
X-606800Y1813140D1*
X-607668Y1809807D1*
X-608366Y1806473D1*
X-609100Y1803140D1*
X-610040Y1799807D1*
X-610953Y1796473D1*
X-611570Y1793140D1*
X-612004Y1789807D1*
X-612573Y1786473D1*
X-613431Y1783140D1*
X-614322Y1779807D1*
X-615029Y1776473D1*
X-615765Y1773140D1*
X-616706Y1769807D1*
X-617620Y1766473D1*
X-618236Y1763140D1*
X-618671Y1759807D1*
X-619243Y1756473D1*
X-620128Y1753140D1*
X-621144Y1749807D1*
X-622113Y1746473D1*
X-598780Y1823140D2*
X-598653Y1819807D1*
X-598226Y1816473D1*
X-597427Y1813140D1*
X-596559Y1809807D1*
X-595860Y1806473D1*
X-595127Y1803140D1*
X-594187Y1799807D1*
X-593261Y1796473D1*
X-592540Y1793140D1*
X-591797Y1789807D1*
X-590855Y1786473D1*
X-589928Y1783140D1*
X-589206Y1779807D1*
X-588464Y1776473D1*
X-587522Y1773140D1*
X-586594Y1769807D1*
X-585873Y1766473D1*
X-585131Y1763140D1*
X-584175Y1759807D1*
X-583134Y1756473D1*
X-582012Y1753140D1*
X-580538Y1749807D1*
X-578780Y1746473D1*
X-552113Y1823140D2*
X-552628Y1819807D1*
X-553455Y1816473D1*
X-554331Y1813140D1*
X-555032Y1809807D1*
X-555767Y1806473D1*
X-556719Y1803140D1*
X-557750Y1799807D1*
X-558779Y1796473D1*
X-559894Y1793140D1*
X-560906Y1789807D1*
X-561664Y1786473D1*
X-562421Y1783140D1*
X-563369Y1779807D1*
X-564298Y1776473D1*
X-565020Y1773140D1*
X-565762Y1769807D1*
X-566705Y1766473D1*
X-567632Y1763140D1*
X-568354Y1759807D1*
X-569098Y1756473D1*
X-570069Y1753140D1*
X-571123Y1749807D1*
X-572113Y1746473D1*
X-545447Y1823140D2*
Y1819807D1*
X-545434Y1816473D1*
X-545316Y1813140D1*
X-544892Y1809807D1*
X-544093Y1806473D1*
X-543226Y1803140D1*
X-542527Y1799807D1*
X-541793Y1796473D1*
X-540853Y1793140D1*
X-539940Y1789807D1*
X-539323Y1786473D1*
X-538889Y1783140D1*
X-538320Y1779807D1*
X-537462Y1776473D1*
X-536572Y1773140D1*
X-535865Y1769807D1*
X-535128Y1766473D1*
X-534187Y1763140D1*
X-533274Y1759807D1*
X-532670Y1756473D1*
X-532352Y1753140D1*
X-532202Y1749807D1*
X-532113Y1746473D1*
X-482113Y1823140D2*
X-482240Y1819807D1*
X-482668Y1816473D1*
X-483466Y1813140D1*
X-484334Y1809807D1*
X-485033Y1806473D1*
X-485767Y1803140D1*
X-486707Y1799807D1*
X-487620Y1796473D1*
X-488237Y1793140D1*
X-488671Y1789807D1*
X-489240Y1786473D1*
X-490098Y1783140D1*
X-490988Y1779807D1*
X-491695Y1776473D1*
X-492432Y1773140D1*
X-493373Y1769807D1*
X-494286Y1766473D1*
X-494903Y1763140D1*
X-495338Y1759807D1*
X-495909Y1756473D1*
X-496795Y1753140D1*
X-497811Y1749807D1*
X-498780Y1746473D1*
X-475447Y1823140D2*
X-475320Y1819807D1*
X-474892Y1816473D1*
X-474094Y1813140D1*
X-473226Y1809807D1*
X-472527Y1806473D1*
X-471793Y1803140D1*
X-470853Y1799807D1*
X-469927Y1796473D1*
X-469206Y1793140D1*
X-468464Y1789807D1*
X-467522Y1786473D1*
X-466594Y1783140D1*
X-465873Y1779807D1*
X-465131Y1776473D1*
X-464188Y1773140D1*
X-463261Y1769807D1*
X-462540Y1766473D1*
X-461798Y1763140D1*
X-460842Y1759807D1*
X-459801Y1756473D1*
X-458679Y1753140D1*
X-457204Y1749807D1*
X-455447Y1746473D1*
X-428780Y1823140D2*
X-429295Y1819807D1*
X-430122Y1816473D1*
X-430998Y1813140D1*
X-431699Y1809807D1*
X-432433Y1806473D1*
X-433386Y1803140D1*
X-434417Y1799807D1*
X-435445Y1796473D1*
X-436561Y1793140D1*
X-437573Y1789807D1*
X-438331Y1786473D1*
X-439087Y1783140D1*
X-440036Y1779807D1*
X-440965Y1776473D1*
X-441687Y1773140D1*
X-442429Y1769807D1*
X-443372Y1766473D1*
X-444299Y1763140D1*
X-445020Y1759807D1*
X-445765Y1756473D1*
X-446736Y1753140D1*
X-447789Y1749807D1*
X-448780Y1746473D1*
X-422113Y1823140D2*
Y1819807D1*
X-422100Y1816473D1*
X-421983Y1813140D1*
X-421558Y1809807D1*
X-420760Y1806473D1*
X-419892Y1803140D1*
X-419194Y1799807D1*
X-418460Y1796473D1*
X-417520Y1793140D1*
X-416607Y1789807D1*
X-415990Y1786473D1*
X-415556Y1783140D1*
X-414987Y1779807D1*
X-414129Y1776473D1*
X-413238Y1773140D1*
X-412531Y1769807D1*
X-411795Y1766473D1*
X-410854Y1763140D1*
X-409940Y1759807D1*
X-409336Y1756473D1*
X-409018Y1753140D1*
X-408868Y1749807D1*
X-408780Y1746473D1*
X87887Y1813140D2*
X90578Y1809807D1*
X92645Y1806473D1*
X94186Y1803140D1*
X95538Y1799807D1*
X96744Y1796473D1*
X97844Y1793140D1*
X98999Y1789807D1*
X100125Y1786473D1*
X101194Y1783140D1*
X102338Y1779807D1*
X103470Y1776473D1*
X104631Y1773140D1*
X106121Y1769807D1*
X107887Y1766473D1*
X131220Y1813140D2*
X128529Y1809807D1*
X126462Y1806473D1*
X124908Y1803140D1*
X123451Y1799807D1*
X121937Y1796473D1*
X120451Y1793140D1*
X119136Y1789807D1*
X117976Y1786473D1*
X116792Y1783140D1*
X115629Y1779807D1*
X114299Y1776473D1*
X112551Y1773140D1*
X108790Y1769807D1*
X104553Y1766473D1*
X264553Y1813140D2*
X267245Y1809807D1*
X269311Y1806473D1*
X270852Y1803140D1*
X272205Y1799807D1*
X273411Y1796473D1*
X274511Y1793140D1*
X275666Y1789807D1*
X276792Y1786473D1*
X277861Y1783140D1*
X279005Y1779807D1*
X280137Y1776473D1*
X281297Y1773140D1*
X282787Y1769807D1*
X284553Y1766473D1*
X307887Y1813140D2*
X305195Y1809807D1*
X303129Y1806473D1*
X301575Y1803140D1*
X300118Y1799807D1*
X298604Y1796473D1*
X297118Y1793140D1*
X295802Y1789807D1*
X294642Y1786473D1*
X293459Y1783140D1*
X292296Y1779807D1*
X290966Y1776473D1*
X289217Y1773140D1*
X285457Y1769807D1*
X281220Y1766473D1*
X694553Y1813140D2*
X694426Y1809807D1*
X693986Y1806473D1*
X693070Y1803140D1*
X691777Y1799807D1*
X690280Y1796473D1*
X688679Y1793140D1*
X687041Y1789807D1*
X685394Y1786473D1*
X683837Y1783140D1*
X682489Y1779807D1*
X681303Y1776473D1*
X680011Y1773140D1*
X678552Y1769807D1*
X676987Y1766473D1*
X675360Y1763140D1*
X673712Y1759807D1*
X672059Y1756473D1*
X670484Y1753140D1*
X669096Y1749807D1*
X667887Y1746473D1*
X697887Y1813140D2*
X700578Y1809807D1*
X702645Y1806473D1*
X704199Y1803140D1*
X705656Y1799807D1*
X707182Y1796473D1*
X708772Y1793140D1*
X710409Y1789807D1*
X712060Y1786473D1*
X713711Y1783140D1*
X715269Y1779807D1*
X716617Y1776473D1*
X717803Y1773140D1*
X719096Y1769807D1*
X720555Y1766473D1*
X722120Y1763140D1*
X723747Y1759807D1*
X725405Y1756473D1*
X727155Y1753140D1*
X729097Y1749807D1*
X731220Y1746473D1*
X-288780Y1803140D2*
Y1799807D1*
Y1796473D1*
Y1793140D1*
Y1789807D1*
X-202113Y1803140D2*
Y1799807D1*
Y1796473D1*
Y1793140D1*
X-118780Y1803140D2*
Y1799807D1*
Y1796473D1*
Y1793140D1*
Y1789807D1*
X-75447Y1796473D2*
Y1793140D1*
Y1789807D1*
Y1786473D1*
Y1783140D1*
Y1779807D1*
Y1776473D1*
Y1773140D1*
Y1769807D1*
Y1766473D1*
Y1763140D1*
Y1759807D1*
Y1756473D1*
Y1753140D1*
Y1749807D1*
Y1746473D1*
X-72113Y1796473D2*
X-68907Y1793140D1*
X-66001Y1789807D1*
X-63466Y1786473D1*
X-60988Y1783140D1*
X-58249Y1779807D1*
X-55342Y1776473D1*
X-52575Y1773140D1*
X-50098Y1769807D1*
X-47642Y1766473D1*
X-44911Y1763140D1*
X-42007Y1759807D1*
X-39244Y1756473D1*
X-36795Y1753140D1*
X-34477Y1749807D1*
X-32113Y1746473D1*
X-245447Y1793140D2*
Y1789807D1*
Y1786473D1*
Y1783140D1*
Y1779807D1*
Y1776473D1*
Y1773140D1*
Y1769807D1*
Y1766473D1*
Y1763140D1*
Y1759807D1*
Y1756473D1*
X-332113Y1789807D2*
Y1786473D1*
Y1783140D1*
Y1779807D1*
Y1776473D1*
Y1773140D1*
Y1769807D1*
Y1766473D1*
Y1763140D1*
Y1759807D1*
Y1756473D1*
X-162113Y1789807D2*
Y1786473D1*
Y1783140D1*
Y1779807D1*
Y1776473D1*
Y1773140D1*
Y1769807D1*
Y1766473D1*
Y1763140D1*
Y1759807D1*
Y1756473D1*
X357887Y1789807D2*
Y1786473D1*
Y1783140D1*
Y1779807D1*
Y1776473D1*
Y1773140D1*
Y1769807D1*
Y1766473D1*
Y1763140D1*
Y1759807D1*
X391220Y1756473D1*
X387887Y1789807D2*
X393243Y1786473D1*
X397750Y1783140D1*
X399527Y1779807D1*
X400495Y1776473D1*
X400909Y1773140D1*
X400955Y1769807D1*
X400796Y1766473D1*
X391325Y1763140D1*
X375147Y1759807D1*
X354553Y1756473D1*
X527887Y1773140D2*
X525615Y1769807D1*
X523161Y1766473D1*
X516884Y1763140D1*
X506936Y1759807D1*
X494553Y1756473D1*
X541220Y1773140D2*
X539541Y1769807D1*
X538027Y1766473D1*
X536188Y1763140D1*
X533765Y1759807D1*
X530850Y1756473D1*
X527337Y1753140D1*
X522540Y1749807D1*
X515820Y1746473D1*
X507887Y1743140D1*
X-278780Y1756473D2*
Y1753140D1*
Y1749807D1*
Y1746473D1*
X-195447Y1756473D2*
Y1753140D1*
Y1749807D1*
Y1746473D1*
X-108780Y1756473D2*
Y1753140D1*
Y1749807D1*
Y1746473D1*
X-1231933Y510017D2*
X-1231920Y506683D1*
X-1231790Y503350D1*
X-1231222Y500017D1*
X-1230143Y496683D1*
X-1227204Y493350D1*
X-1223425Y490017D1*
X-1219016Y486683D1*
X-1214275Y483350D1*
X-1209374Y480017D1*
X-1204414Y476683D1*
X-1199438Y473350D1*
X-1194562Y470017D1*
X-1189990Y466683D1*
X-1185851Y463350D1*
X-1181933Y460017D1*
X-1187334Y456683D1*
X-1192568Y453350D1*
X-1197686Y450017D1*
X-1202734Y446683D1*
X-1207757Y443350D1*
X-1212761Y440017D1*
X-1217741Y436683D1*
X-1222491Y433350D1*
X-1226502Y430017D1*
X-1229687Y426683D1*
X-1230847Y423350D1*
X-1231472Y420017D1*
X-1231754Y416683D1*
X-1231871Y413350D1*
X-1231933Y410017D1*
X-1138600Y510017D2*
Y506683D1*
Y503350D1*
Y500017D1*
X-1215267D2*
X-1211405Y496683D1*
X-1207128Y493350D1*
X-1202494Y490017D1*
X-1197661Y486683D1*
X-1192726Y483350D1*
X-1187754Y480017D1*
X-1182787Y476683D1*
X-1178040Y473350D1*
X-1174031Y470017D1*
X-1170846Y466683D1*
X-1169541Y463350D1*
X-1169431Y460017D1*
X-1170853Y456683D1*
X-1174273Y453350D1*
X-1178414Y450017D1*
X-1183020Y446683D1*
X-1187862Y443350D1*
X-1192799Y440017D1*
X-1197766Y436683D1*
X-1202640Y433350D1*
X-1207211Y430017D1*
X-1211349Y426683D1*
X-1215267Y423350D1*
X-1138600D2*
Y420017D1*
Y416683D1*
Y413350D1*
Y410017D1*
X-1208600Y383350D2*
X-1214599Y380017D1*
X-1219764Y376683D1*
X-1223776Y373350D1*
X-1226722Y370017D1*
X-1228880Y366683D1*
X-1230372Y363350D1*
X-1231223Y360017D1*
X-1231638Y356683D1*
X-1231819Y353350D1*
X-1231891Y350017D1*
X-1231918Y346683D1*
X-1231928Y343350D1*
X-1231932Y340017D1*
X-1231920Y336683D1*
X-1231803Y333350D1*
X-1231365Y330017D1*
X-1230437Y326683D1*
X-1229027Y323350D1*
X-1227079Y320017D1*
X-1224406Y316683D1*
X-1220667Y313350D1*
X-1215139Y310017D1*
X-1207468Y306683D1*
X-1198600Y303350D1*
X-1165267Y383350D2*
X-1158869Y380017D1*
X-1153738Y376683D1*
X-1149874Y373350D1*
X-1147039Y370017D1*
X-1144929Y366683D1*
X-1143347Y363350D1*
X-1142082Y360017D1*
X-1140873Y356683D1*
X-1139839Y353350D1*
X-1139186Y350017D1*
X-1138863Y346683D1*
X-1138829Y343350D1*
X-1139192Y340017D1*
X-1139966Y336683D1*
X-1140825Y333350D1*
X-1141534Y330017D1*
X-1142397Y326683D1*
X-1143892Y323350D1*
X-1146171Y320017D1*
X-1149139Y316683D1*
X-1153054Y313350D1*
X-1158668Y310017D1*
X-1166377Y306683D1*
X-1175267Y303350D1*
X-1178600Y373350D2*
X-1193161Y370017D1*
X-1205106Y366683D1*
X-1213637Y363350D1*
X-1220009Y360017D1*
X-1223005Y356683D1*
X-1224185Y353350D1*
X-1224812Y350017D1*
X-1225091Y346683D1*
X-1225189Y343350D1*
X-1225101Y340017D1*
X-1224561Y336683D1*
X-1223527Y333350D1*
X-1220548Y330017D1*
X-1216507Y326683D1*
X-1203517Y323350D1*
X-1183321Y320017D1*
X-1158600Y316683D1*
X-1195267Y373350D2*
X-1180705Y370017D1*
X-1168761Y366683D1*
X-1160229Y363350D1*
X-1153858Y360017D1*
X-1151137Y356683D1*
X-1149228Y353350D1*
X-1147740Y350017D1*
X-1146705Y346683D1*
X-1146147Y343350D1*
X-1146934Y340017D1*
X-1148138Y336683D1*
X-1149742Y333350D1*
X-1151696Y330017D1*
X-1155836Y326683D1*
X-1167732Y323350D1*
X-1186101Y320017D1*
X-1208600Y316683D1*
X-1231933Y280017D2*
Y276683D1*
Y273350D1*
Y270017D1*
Y266683D1*
Y263350D1*
Y260017D1*
Y256683D1*
Y253350D1*
Y250017D1*
Y246683D1*
Y243350D1*
X-1231920Y240017D1*
X-1231803Y236683D1*
X-1231365Y233350D1*
X-1230450Y230017D1*
X-1229157Y226683D1*
X-1227634Y223350D1*
X-1225785Y220017D1*
X-1223155Y216683D1*
X-1219241Y213350D1*
X-1214175Y210017D1*
X-1208600Y206683D1*
X-1141933Y280017D2*
X-1141920Y276683D1*
X-1141803Y273350D1*
X-1141378Y270017D1*
X-1140580Y266683D1*
X-1139725Y263350D1*
X-1139144Y260017D1*
X-1138835Y256683D1*
X-1138693Y253350D1*
X-1138648Y250017D1*
X-1138743Y246683D1*
X-1139159Y243350D1*
X-1139955Y240017D1*
X-1140821Y236683D1*
X-1141533Y233350D1*
X-1142384Y230017D1*
X-1143761Y226683D1*
X-1145616Y223350D1*
X-1147760Y220017D1*
X-1150566Y216683D1*
X-1154566Y213350D1*
X-1159670Y210017D1*
X-1165267Y206683D1*
X-1225267Y266683D2*
Y263350D1*
Y260017D1*
Y256683D1*
Y253350D1*
Y250017D1*
X-1225254Y246683D1*
X-1225136Y243350D1*
X-1224699Y240017D1*
X-1223757Y236683D1*
X-1222191Y233350D1*
X-1220076Y230017D1*
X-1213801Y226683D1*
X-1202759Y223350D1*
X-1185711Y220017D1*
X-1165267Y216683D1*
X-1148600Y266683D2*
X-1148473Y263350D1*
X-1148046Y260017D1*
X-1147260Y256683D1*
X-1146522Y253350D1*
X-1146366Y250017D1*
X-1146855Y246683D1*
X-1147581Y243350D1*
X-1148234Y240017D1*
X-1149089Y236683D1*
X-1150333Y233350D1*
X-1153789Y230017D1*
X-1159898Y226683D1*
X-1171001Y223350D1*
X-1188110Y220017D1*
X-1208600Y216683D1*
X-1231933Y180017D2*
Y176683D1*
Y173350D1*
Y170017D1*
Y166683D1*
Y163350D1*
Y160017D1*
Y156683D1*
Y153350D1*
Y150017D1*
Y146683D1*
Y143350D1*
Y140017D1*
Y136683D1*
Y133350D1*
Y130017D1*
Y126683D1*
Y123350D1*
X-1155267Y180017D2*
X-1150535Y176683D1*
X-1146788Y173350D1*
X-1144207Y170017D1*
X-1142443Y166683D1*
X-1141013Y163350D1*
X-1139891Y160017D1*
X-1139204Y156683D1*
X-1138856Y153350D1*
X-1138701Y150017D1*
X-1138637Y146683D1*
X-1138613Y143350D1*
X-1138605Y140017D1*
X-1138602Y136683D1*
X-1138600Y133350D1*
Y130017D1*
Y126683D1*
Y123350D1*
X-1225267Y166683D2*
Y163350D1*
Y160017D1*
Y156683D1*
Y153350D1*
Y150017D1*
Y146683D1*
Y143350D1*
Y140017D1*
Y136683D1*
Y133350D1*
Y130017D1*
Y126683D1*
Y123350D1*
X-1188600Y166683D2*
Y163350D1*
Y160017D1*
Y156683D1*
Y153350D1*
Y150017D1*
Y146683D1*
Y143350D1*
Y140017D1*
Y136683D1*
Y133350D1*
Y130017D1*
X-1181933Y166683D2*
Y163350D1*
Y160017D1*
Y156683D1*
Y153350D1*
Y150017D1*
Y146683D1*
Y143350D1*
Y140017D1*
Y136683D1*
Y133350D1*
Y130017D1*
X-1155267Y166683D2*
X-1152461Y163350D1*
X-1150085Y160017D1*
X-1148169Y156683D1*
X-1146773Y153350D1*
X-1145958Y150017D1*
X-1145555Y146683D1*
X-1145379Y143350D1*
X-1145308Y140017D1*
X-1145281Y136683D1*
X-1145272Y133350D1*
X-1145268Y130017D1*
X-1145267Y126683D1*
Y123350D1*
X1141597Y564353D2*
Y561020D1*
Y557687D1*
Y554353D1*
Y551020D1*
Y547687D1*
Y544353D1*
Y541020D1*
Y537687D1*
Y534353D1*
Y531020D1*
Y527687D1*
X1141610Y524353D1*
X1141740Y521020D1*
X1142295Y517687D1*
X1143648Y514353D1*
X1145856Y511020D1*
X1148645Y507687D1*
X1151735Y504353D1*
X1154930Y501020D1*
X1234930Y564353D2*
Y561020D1*
Y557687D1*
Y554353D1*
Y551020D1*
X1198263D1*
Y547687D1*
Y544353D1*
Y541020D1*
X1198276Y537687D1*
X1198420Y534353D1*
X1198771Y531020D1*
X1200457Y527687D1*
X1204576Y524353D1*
X1210196Y521020D1*
X1217073Y517687D1*
X1223961Y514353D1*
X1230011Y511020D1*
X1232937Y507687D1*
X1234002Y504353D1*
X1234575Y501020D1*
X1234930Y497687D1*
X1148263Y554353D2*
Y551020D1*
Y547687D1*
Y544353D1*
Y541020D1*
Y537687D1*
X1148276Y534353D1*
X1148407Y531020D1*
X1148719Y527687D1*
X1150418Y524353D1*
X1157506Y521020D1*
X1169576Y517687D1*
X1184930Y514353D1*
X1188263Y554353D2*
X1188390Y551020D1*
X1188818Y547687D1*
X1189603Y544353D1*
X1190341Y541020D1*
X1190498Y537687D1*
X1190008Y534353D1*
X1189282Y531020D1*
X1188525Y527687D1*
X1187552Y524353D1*
X1183044Y521020D1*
X1170260Y517687D1*
X1154930Y514353D1*
X1191597Y517687D2*
X1190929Y514353D1*
X1189810Y511020D1*
X1186787Y507687D1*
X1182808Y504353D1*
X1178263Y501020D1*
X1194930Y517687D2*
X1198416Y514353D1*
X1202424Y511020D1*
X1207539Y507687D1*
X1213903Y504353D1*
X1220992Y501020D1*
X1228263Y497687D1*
X1141597Y474353D2*
Y471020D1*
Y467687D1*
Y464353D1*
Y461020D1*
Y457687D1*
Y454353D1*
Y451020D1*
Y447687D1*
Y444353D1*
Y441020D1*
Y437687D1*
Y434353D1*
Y431020D1*
Y427687D1*
Y424353D1*
Y421020D1*
Y417687D1*
X1218263Y474353D2*
X1222995Y471020D1*
X1226742Y467687D1*
X1229323Y464353D1*
X1231087Y461020D1*
X1232517Y457687D1*
X1233639Y454353D1*
X1234326Y451020D1*
X1234674Y447687D1*
X1234829Y444353D1*
X1234893Y441020D1*
X1234917Y437687D1*
X1234925Y434353D1*
X1234928Y431020D1*
X1234930Y427687D1*
Y424353D1*
Y421020D1*
Y417687D1*
X1148263Y461020D2*
Y457687D1*
Y454353D1*
Y451020D1*
Y447687D1*
Y444353D1*
Y441020D1*
Y437687D1*
Y434353D1*
Y431020D1*
Y427687D1*
Y424353D1*
Y421020D1*
Y417687D1*
X1184930Y461020D2*
Y457687D1*
Y454353D1*
Y451020D1*
Y447687D1*
Y444353D1*
Y441020D1*
Y437687D1*
Y434353D1*
Y431020D1*
Y427687D1*
Y424353D1*
X1191597Y461020D2*
Y457687D1*
Y454353D1*
Y451020D1*
Y447687D1*
Y444353D1*
Y441020D1*
Y437687D1*
Y434353D1*
Y431020D1*
Y427687D1*
Y424353D1*
X1218263Y461020D2*
X1221069Y457687D1*
X1223445Y454353D1*
X1225361Y451020D1*
X1226757Y447687D1*
X1227572Y444353D1*
X1227975Y441020D1*
X1228151Y437687D1*
X1228222Y434353D1*
X1228249Y431020D1*
X1228258Y427687D1*
X1228262Y424353D1*
X1228263Y421020D1*
Y417687D1*
X1151597Y394353D2*
X1148791Y391020D1*
X1146415Y387687D1*
X1144499Y384353D1*
X1143103Y381020D1*
X1142288Y377687D1*
X1141885Y374353D1*
X1141709Y371020D1*
X1141638Y367687D1*
X1141611Y364353D1*
X1141602Y361020D1*
X1141598Y357687D1*
X1141597Y354353D1*
Y351020D1*
Y347687D1*
Y344353D1*
Y341020D1*
Y337687D1*
X1171597Y394353D2*
X1174917Y391020D1*
X1178133Y387687D1*
X1181042Y384353D1*
X1183564Y381020D1*
X1185925Y377687D1*
X1188252Y374353D1*
X1190465Y371020D1*
X1192685Y367687D1*
X1194954Y364353D1*
X1197209Y361020D1*
X1200046Y357687D1*
X1204795Y354353D1*
X1212336Y351020D1*
X1221597Y347687D1*
Y394353D2*
X1222736Y391020D1*
X1223728Y387687D1*
X1224373Y384353D1*
X1224817Y381020D1*
X1225389Y377687D1*
X1226235Y374353D1*
X1226995Y371020D1*
X1227160Y367687D1*
X1226661Y364353D1*
X1225766Y361020D1*
X1224687Y357687D1*
X1221585Y354353D1*
X1213937Y351020D1*
X1204930Y347687D1*
X1231597Y394353D2*
X1231610Y391020D1*
X1231727Y387687D1*
X1232152Y384353D1*
X1232950Y381020D1*
X1233805Y377687D1*
X1234386Y374353D1*
X1234695Y371020D1*
X1234824Y367687D1*
X1234765Y364353D1*
X1234362Y361020D1*
X1233572Y357687D1*
X1232708Y354353D1*
X1231997Y351020D1*
X1231120Y347687D1*
X1229866Y344353D1*
X1226812Y341020D1*
X1222817Y337687D1*
X1218263Y334353D1*
X1158263Y384353D2*
X1155070Y381020D1*
X1152294Y377687D1*
X1150315Y374353D1*
X1149190Y371020D1*
X1148646Y367687D1*
X1148411Y364353D1*
X1148317Y361020D1*
X1148282Y357687D1*
X1148270Y354353D1*
X1148252Y351020D1*
X1148124Y347687D1*
X1147608Y344353D1*
X1146469Y341020D1*
X1144930Y337687D1*
X1154930Y384353D2*
X1160929Y381020D1*
X1166094Y377687D1*
X1170119Y374353D1*
X1173182Y371020D1*
X1175778Y367687D1*
X1178198Y364353D1*
X1180446Y361020D1*
X1182679Y357687D1*
X1184952Y354353D1*
X1187157Y351020D1*
X1189499Y347687D1*
X1192317Y344353D1*
X1195832Y341020D1*
X1200149Y337687D1*
X1204930Y334353D1*
X1141597Y307687D2*
Y304353D1*
Y301020D1*
Y297687D1*
Y294353D1*
Y291020D1*
Y287687D1*
Y284353D1*
Y281020D1*
Y277687D1*
Y274353D1*
Y271020D1*
Y267687D1*
Y264353D1*
Y261020D1*
Y257687D1*
Y254353D1*
Y251020D1*
X1218263Y307687D2*
X1222995Y304353D1*
X1226742Y301020D1*
X1229323Y297687D1*
X1231087Y294353D1*
X1232517Y291020D1*
X1233639Y287687D1*
X1234326Y284353D1*
X1234674Y281020D1*
X1234829Y277687D1*
X1234893Y274353D1*
X1234917Y271020D1*
X1234925Y267687D1*
X1234928Y264353D1*
X1234930Y261020D1*
Y257687D1*
Y254353D1*
Y251020D1*
X1148263Y294353D2*
Y291020D1*
Y287687D1*
Y284353D1*
Y281020D1*
Y277687D1*
Y274353D1*
Y271020D1*
Y267687D1*
Y264353D1*
Y261020D1*
Y257687D1*
Y254353D1*
Y251020D1*
X1184930Y294353D2*
Y291020D1*
Y287687D1*
Y284353D1*
Y281020D1*
Y277687D1*
Y274353D1*
Y271020D1*
Y267687D1*
Y264353D1*
Y261020D1*
Y257687D1*
X1191597Y294353D2*
Y291020D1*
Y287687D1*
Y284353D1*
Y281020D1*
Y277687D1*
Y274353D1*
Y271020D1*
Y267687D1*
Y264353D1*
Y261020D1*
Y257687D1*
X1218263Y294353D2*
X1221069Y291020D1*
X1223445Y287687D1*
X1225361Y284353D1*
X1226757Y281020D1*
X1227572Y277687D1*
X1227975Y274353D1*
X1228151Y271020D1*
X1228222Y267687D1*
X1228249Y264353D1*
X1228258Y261020D1*
X1228262Y257687D1*
X1228263Y254353D1*
Y251020D1*
X1141597Y234353D2*
Y231020D1*
Y227687D1*
Y224353D1*
Y221020D1*
Y217687D1*
Y214353D1*
Y211020D1*
Y207687D1*
Y204353D1*
Y201020D1*
Y197687D1*
Y194353D1*
Y191020D1*
Y187687D1*
Y184353D1*
Y181020D1*
Y177687D1*
Y174353D1*
Y171020D1*
Y167687D1*
Y164353D1*
Y161020D1*
Y157687D1*
X1148263Y234353D2*
Y231020D1*
Y227687D1*
Y224353D1*
Y221020D1*
Y217687D1*
Y214353D1*
Y211020D1*
Y207687D1*
Y204353D1*
X1234930D2*
Y201020D1*
Y197687D1*
Y194353D1*
Y191020D1*
X1148263D2*
Y187687D1*
Y184353D1*
Y181020D1*
Y177687D1*
Y174353D1*
Y171020D1*
Y167687D1*
Y164353D1*
Y161020D1*
Y157687D1*
X-499327Y570303D2*
D12*
X-501932Y562683D1*
X-504200Y555063D1*
X-505644Y547443D1*
X-506391Y539823D1*
X-506727Y532203D1*
X-506865Y524583D1*
X-506918Y516963D1*
X-506937Y509343D1*
X-506943Y501723D1*
X-506946Y494103D1*
Y486483D1*
X-506947Y478863D1*
Y471243D1*
Y463623D1*
Y456003D1*
Y448383D1*
Y440763D1*
X-400267Y570303D2*
Y562683D1*
Y555063D1*
X-331687Y570303D2*
Y562683D1*
Y555063D1*
Y547443D1*
Y539823D1*
Y532203D1*
Y524583D1*
Y516963D1*
Y509343D1*
Y501723D1*
Y494103D1*
Y486483D1*
Y478863D1*
X-331657Y471243D1*
X-331367Y463623D1*
X-330189Y456003D1*
X-327584Y448383D1*
X-324067Y440763D1*
X-308827Y570303D2*
Y562683D1*
Y555063D1*
Y547443D1*
Y539823D1*
Y532203D1*
Y524583D1*
Y516963D1*
Y509343D1*
Y501723D1*
Y494103D1*
Y486483D1*
Y478863D1*
Y471243D1*
Y463623D1*
X-133567Y570303D2*
X-139689Y562683D1*
X-144146Y555063D1*
X-146697Y547443D1*
X-147935Y539823D1*
X-148470Y532203D1*
X-148684Y524583D1*
X-148763Y516963D1*
X-148792Y509343D1*
X-148802Y501723D1*
X-148805Y494103D1*
X-148806Y486483D1*
X-148807Y478863D1*
Y471243D1*
Y463623D1*
Y456003D1*
Y448383D1*
Y440763D1*
X-34507Y570303D2*
Y562683D1*
Y555063D1*
X34073Y570303D2*
Y562683D1*
Y555063D1*
Y547443D1*
Y539823D1*
Y532203D1*
Y524583D1*
Y516963D1*
Y509343D1*
Y501723D1*
Y494103D1*
Y486483D1*
Y478863D1*
Y471243D1*
Y463623D1*
Y456003D1*
Y448383D1*
Y440763D1*
X49313Y570303D2*
Y562683D1*
Y555063D1*
Y547443D1*
Y539823D1*
Y532203D1*
Y524583D1*
Y516963D1*
Y509343D1*
Y501723D1*
Y494103D1*
Y486483D1*
Y478863D1*
Y471243D1*
Y463623D1*
Y456003D1*
Y448383D1*
Y440763D1*
X125513Y570303D2*
X117893Y562683D1*
X110273Y555063D1*
X102624Y547443D1*
X94765Y539823D1*
X86472Y532203D1*
X78296Y524583D1*
X70905Y516963D1*
X68118Y509343D1*
X66538Y501723D1*
X74828Y494103D1*
X84235Y486483D1*
X93387Y478863D1*
X101911Y471243D1*
X109969Y463623D1*
X117777Y456003D1*
X125473Y448383D1*
X133133Y440763D1*
X163613Y570303D2*
X153388Y562683D1*
X143500Y555063D1*
X134436Y547443D1*
X126099Y539823D1*
X118441Y532203D1*
X111981Y524583D1*
X106761Y516963D1*
X105296Y509343D1*
X107216Y501723D1*
X112478Y494103D1*
X118828Y486483D1*
X125878Y478863D1*
X133238Y471243D1*
X140480Y463623D1*
X146892Y456003D1*
X151896Y448383D1*
X155993Y440763D1*
X270293Y570303D2*
Y562683D1*
Y555063D1*
Y547443D1*
Y539823D1*
Y532203D1*
Y524583D1*
Y516963D1*
Y509343D1*
Y501723D1*
Y494103D1*
Y486483D1*
Y478863D1*
Y471243D1*
Y463623D1*
X216953D1*
Y456003D1*
Y448383D1*
Y440763D1*
X285533Y570303D2*
Y562683D1*
Y555063D1*
Y547443D1*
Y539823D1*
Y532203D1*
Y524583D1*
Y516963D1*
Y509343D1*
Y501723D1*
Y494103D1*
Y486483D1*
Y478863D1*
Y471243D1*
Y463623D1*
X338873D1*
Y456003D1*
Y448383D1*
Y440763D1*
X399833Y570303D2*
Y562683D1*
Y555063D1*
Y547443D1*
Y539823D1*
Y532203D1*
Y524583D1*
Y516963D1*
Y509343D1*
X399863Y501723D1*
X400131Y494103D1*
X401132Y486483D1*
X403255Y478863D1*
X406507Y471243D1*
X411219Y463623D1*
X418145Y456003D1*
X427404Y448383D1*
X437933Y440763D1*
X415073Y570303D2*
Y562683D1*
Y555063D1*
Y547443D1*
X498893Y570303D2*
Y562683D1*
Y555063D1*
Y547443D1*
X521753Y570303D2*
Y562683D1*
Y555063D1*
Y547443D1*
Y539823D1*
Y532203D1*
Y524583D1*
Y516963D1*
Y509343D1*
Y501723D1*
Y494103D1*
Y486483D1*
Y478863D1*
X521724Y471243D1*
X521433Y463623D1*
X520256Y456003D1*
X517651Y448383D1*
X514133Y440763D1*
X-491707Y555063D2*
Y547443D1*
Y539823D1*
Y532203D1*
Y524583D1*
Y516963D1*
Y509343D1*
Y501723D1*
Y494103D1*
Y486483D1*
Y478863D1*
Y471243D1*
Y463623D1*
X-118327Y555063D2*
X-124449Y547443D1*
X-128906Y539823D1*
X-131457Y532203D1*
X-132695Y524583D1*
X-133230Y516963D1*
X-133444Y509343D1*
X-133523Y501723D1*
X-133552Y494103D1*
X-133562Y486483D1*
X-133565Y478863D1*
X-133566Y471243D1*
X-133567Y463623D1*
X-476467Y516963D2*
Y509343D1*
Y501723D1*
Y494103D1*
X-407887Y516963D2*
Y509343D1*
Y501723D1*
Y494103D1*
X-293587Y516963D2*
Y509343D1*
Y501723D1*
Y494103D1*
X-225007Y516963D2*
Y509343D1*
Y501723D1*
Y494103D1*
X-118327Y516963D2*
Y509343D1*
Y501723D1*
Y494103D1*
X-49747Y516963D2*
X-46748Y509343D1*
X-47707Y501723D1*
X-49747Y494103D1*
X415073Y524583D2*
X415103Y516963D1*
X415371Y509343D1*
X416402Y501723D1*
X418808Y494103D1*
X423137Y486483D1*
X429791Y478863D1*
X437933Y471243D1*
X498893Y524583D2*
Y516963D1*
Y509343D1*
Y501723D1*
Y494103D1*
Y486483D1*
Y478863D1*
Y471243D1*
X-400267Y463623D2*
Y456003D1*
Y448383D1*
Y440763D1*
X-217387Y463623D2*
Y456003D1*
Y448383D1*
Y440763D1*
X-34507Y463623D2*
Y456003D1*
Y448383D1*
Y440763D1*
X-110707Y349323D2*
X-114225Y341703D1*
X-116421Y334083D1*
X-117585Y326463D1*
X-118327Y318843D1*
X110273Y349323D2*
X113791Y341703D1*
X115987Y334083D1*
X117152Y326463D1*
X117893Y318843D1*
X-179287Y250263D2*
Y242643D1*
Y235023D1*
Y227403D1*
X178853Y250263D2*
Y242643D1*
Y235023D1*
Y227403D1*
X-194527Y151203D2*
X-194817Y143583D1*
X-195823Y135963D1*
X-197947Y128343D1*
X-201170Y120723D1*
X-205623Y113103D1*
X-211615Y105483D1*
X-219018Y97863D1*
X-227118Y90243D1*
X-234973Y82623D1*
X-242878Y75003D1*
X-251678Y67383D1*
X-260861Y59763D1*
X-269588Y52143D1*
X-277564Y44523D1*
X-284503Y36903D1*
X-290390Y29283D1*
X-295835Y21663D1*
X-301172Y14043D1*
X-306237Y6423D1*
X-311314Y-1197D1*
X-316501Y-8817D1*
X-321509Y-16437D1*
X-326535Y-24057D1*
X-331447Y-31677D1*
X-335481Y-39297D1*
X-338712Y-46917D1*
X-341908Y-54537D1*
X-345345Y-62157D1*
X-348961Y-69777D1*
X-352666Y-77397D1*
X-356170Y-85017D1*
X-359002Y-92637D1*
X-360977Y-100257D1*
X-362808Y-107877D1*
X-365044Y-115497D1*
X-367421Y-123117D1*
X-369780Y-130737D1*
X-372333Y-138357D1*
X-374617Y-145977D1*
X-376082Y-153597D1*
X-376841Y-161217D1*
X-377213Y-168837D1*
X-377621Y-176457D1*
X-378646Y-184077D1*
X-380490Y-191697D1*
X-382451Y-199317D1*
X-383782Y-206937D1*
X-384489Y-214557D1*
X-384813Y-222177D1*
X-384947Y-229797D1*
X-385000Y-237417D1*
X-385027Y-245037D1*
X194093Y151203D2*
X194384Y143583D1*
X195390Y135963D1*
X197514Y128343D1*
X200737Y120723D1*
X205189Y113103D1*
X211182Y105483D1*
X218585Y97863D1*
X226685Y90243D1*
X234539Y82623D1*
X242445Y75003D1*
X251245Y67383D1*
X260428Y59763D1*
X269155Y52143D1*
X277131Y44523D1*
X284070Y36903D1*
X289956Y29283D1*
X295402Y21663D1*
X300739Y14043D1*
X305804Y6423D1*
X310881Y-1197D1*
X316068Y-8817D1*
X321075Y-16437D1*
X326102Y-24057D1*
X331014Y-31677D1*
X335048Y-39297D1*
X338278Y-46917D1*
X341474Y-54537D1*
X344912Y-62157D1*
X348528Y-69777D1*
X352233Y-77397D1*
X355736Y-85017D1*
X358569Y-92637D1*
X360544Y-100257D1*
X362375Y-107877D1*
X364611Y-115497D1*
X366988Y-123117D1*
X369346Y-130737D1*
X371899Y-138357D1*
X374183Y-145977D1*
X375649Y-153597D1*
X376407Y-161217D1*
X376779Y-168837D1*
X377188Y-176457D1*
X378212Y-184077D1*
X380057Y-191697D1*
X382017Y-199317D1*
X383349Y-206937D1*
X384056Y-214557D1*
X384380Y-222177D1*
X384513Y-229797D1*
X384566Y-237417D1*
X384593Y-245037D1*
X-164047Y120723D2*
X-170459Y113103D1*
X-175922Y105483D1*
X-180598Y97863D1*
X-185059Y90243D1*
X-190017Y82623D1*
X-196014Y75003D1*
X-203061Y67383D1*
X-211278Y59763D1*
X-220570Y52143D1*
X-230086Y44523D1*
X-238984Y36903D1*
X-247036Y29283D1*
X-254005Y21663D1*
X-259933Y14043D1*
X-265651Y6423D1*
X-271931Y-1197D1*
X-278583Y-8817D1*
X-284911Y-16437D1*
X-290543Y-24057D1*
X-295860Y-31677D1*
X-300894Y-39297D1*
X-305004Y-46917D1*
X-308490Y-54537D1*
X-312425Y-62157D1*
X-316957Y-69777D1*
X-321406Y-77397D1*
X-325370Y-85017D1*
X-328648Y-92637D1*
X-331414Y-100257D1*
X-334133Y-107877D1*
X-336511Y-115497D1*
X-338268Y-123117D1*
X-340006Y-130737D1*
X-342175Y-138357D1*
X-344300Y-145977D1*
X-345951Y-153597D1*
X-347648Y-161217D1*
X-349803Y-168837D1*
X-351893Y-176457D1*
X-353274Y-184077D1*
X-354000Y-191697D1*
X-354330Y-199317D1*
X-354466Y-206937D1*
X-354518Y-214557D1*
X-354537Y-222177D1*
X-354543Y-229797D1*
X-354546Y-237417D1*
X-354487Y-245037D1*
X-353892Y-252657D1*
X-352463Y-260277D1*
X-345444Y-267897D1*
X-335171Y-275517D1*
X-322634Y-283137D1*
X-309426Y-290757D1*
X-296435Y-298377D1*
X-283308Y-305997D1*
X-269454Y-313617D1*
X-254910Y-321237D1*
X-239732Y-328857D1*
X-223687Y-336477D1*
X-206942Y-344097D1*
X-190738Y-351717D1*
X-176001Y-359337D1*
X-162010Y-366957D1*
X-147776Y-374577D1*
X-133110Y-382197D1*
X-118142Y-389817D1*
X-103046Y-397437D1*
X-88119Y-405057D1*
X-73867Y-412677D1*
X-60459Y-420297D1*
X-47194Y-427917D1*
X-33399Y-435537D1*
X-19267Y-443157D1*
X163613Y120723D2*
X170026Y113103D1*
X175489Y105483D1*
X180165Y97863D1*
X184625Y90243D1*
X189583Y82623D1*
X195580Y75003D1*
X202628Y67383D1*
X210844Y59763D1*
X220137Y52143D1*
X229653Y44523D1*
X238551Y36903D1*
X246602Y29283D1*
X253572Y21663D1*
X259500Y14043D1*
X265217Y6423D1*
X271497Y-1197D1*
X278149Y-8817D1*
X284477Y-16437D1*
X290109Y-24057D1*
X295427Y-31677D1*
X300460Y-39297D1*
X304571Y-46917D1*
X308057Y-54537D1*
X311992Y-62157D1*
X316524Y-69777D1*
X320973Y-77397D1*
X324936Y-85017D1*
X328214Y-92637D1*
X330980Y-100257D1*
X333700Y-107877D1*
X336078Y-115497D1*
X337834Y-123117D1*
X339572Y-130737D1*
X341742Y-138357D1*
X343867Y-145977D1*
X345518Y-153597D1*
X347215Y-161217D1*
X349370Y-168837D1*
X351460Y-176457D1*
X352841Y-184077D1*
X353566Y-191697D1*
X353896Y-199317D1*
X354032Y-206937D1*
X354084Y-214557D1*
X354103Y-222177D1*
X354110Y-229797D1*
X354112Y-237417D1*
X354113Y-245037D1*
Y-252657D1*
Y-260277D1*
Y-267897D1*
Y-275517D1*
X354084Y-283137D1*
X353816Y-290757D1*
X352845Y-298377D1*
X351020Y-305997D1*
X349036Y-313617D1*
X347439Y-321237D1*
X345761Y-328857D1*
X343583Y-336477D1*
X341228Y-344097D1*
X338877Y-351717D1*
X336297Y-359337D1*
X333745Y-366957D1*
X331279Y-374577D1*
X328428Y-382197D1*
X325131Y-389817D1*
X321569Y-397437D1*
X317854Y-405057D1*
X314089Y-412677D1*
X310288Y-420297D1*
X306459Y-427917D1*
X302377Y-435537D1*
X297573Y-443157D1*
X291694Y-450777D1*
X285203Y-458397D1*
X278936Y-466017D1*
X273296Y-473637D1*
X267689Y-481257D1*
X261419Y-488877D1*
X254483Y-496497D1*
X246921Y-504117D1*
X238464Y-511737D1*
X229041Y-519357D1*
X219218Y-526977D1*
X209275Y-534597D1*
X198828Y-542217D1*
X187663Y-549837D1*
X175457Y-557457D1*
X161674Y-565077D1*
X145472Y-572697D1*
X125002Y-580317D1*
X98748Y-587937D1*
X67507Y-595557D1*
X34073Y-603177D1*
X-95467Y-62157D2*
Y-69777D1*
Y-77397D1*
Y-85017D1*
Y-92637D1*
Y-100257D1*
Y-107877D1*
Y-115497D1*
Y-123117D1*
Y-130737D1*
Y-138357D1*
Y-145977D1*
X-26887Y-62157D2*
Y-69777D1*
Y-77397D1*
Y-85017D1*
Y-92637D1*
Y-100257D1*
Y-107877D1*
Y-115497D1*
Y-123117D1*
Y-130737D1*
Y-138357D1*
Y-145977D1*
X26453Y-62157D2*
Y-69777D1*
Y-77397D1*
Y-85017D1*
Y-92637D1*
Y-100257D1*
Y-107877D1*
Y-115497D1*
Y-123117D1*
Y-130737D1*
Y-138357D1*
Y-145977D1*
X95033Y-62157D2*
Y-69777D1*
Y-77397D1*
Y-85017D1*
Y-92637D1*
Y-100257D1*
Y-107877D1*
Y-115497D1*
Y-123117D1*
Y-130737D1*
Y-138357D1*
Y-145977D1*
X-80227Y-85017D2*
X-80197Y-92637D1*
X-79907Y-100257D1*
X-78729Y-107877D1*
X-76124Y-115497D1*
X-72607Y-123117D1*
X-42127Y-85017D2*
Y-92637D1*
Y-100257D1*
Y-107877D1*
Y-115497D1*
Y-123117D1*
X41693Y-85017D2*
Y-92637D1*
Y-100257D1*
Y-107877D1*
Y-115497D1*
Y-123117D1*
X79793Y-85017D2*
X79764Y-92637D1*
X79473Y-100257D1*
X78296Y-107877D1*
X75691Y-115497D1*
X72173Y-123117D1*
X-529807Y-191697D2*
X-533498Y-199317D1*
X-529206Y-206937D1*
X-519875Y-214557D1*
X-508563Y-222177D1*
X-496651Y-229797D1*
X-485039Y-237417D1*
X-472847Y-245037D1*
X-459249Y-252657D1*
X-444008Y-260277D1*
X-427374Y-267897D1*
X-410356Y-275517D1*
X-393883Y-283137D1*
X-378229Y-290757D1*
X-363645Y-298377D1*
X-350099Y-305997D1*
X-336762Y-313617D1*
X-322833Y-321237D1*
X-308293Y-328857D1*
X-293374Y-336477D1*
X-278267Y-344097D1*
X-263078Y-351717D1*
X-247857Y-359337D1*
X-232623Y-366957D1*
X-217386Y-374577D1*
X-202146Y-382197D1*
X-186907Y-389817D1*
X-171667Y-397437D1*
X-156456Y-405057D1*
X-141484Y-412677D1*
X-127215Y-420297D1*
X-113800Y-427917D1*
X-100514Y-435537D1*
X-86573Y-443157D1*
X-71772Y-450777D1*
X-55879Y-458397D1*
X-38883Y-466017D1*
X-21428Y-473637D1*
X-4027Y-481257D1*
X-506947Y-191697D2*
X-491707Y-199317D1*
X-476496Y-206937D1*
X-461524Y-214557D1*
X-447261Y-222177D1*
X-433910Y-229797D1*
X-420938Y-237417D1*
X-407887Y-245037D1*
X506513Y-191697D2*
X491273Y-199317D1*
X476063Y-206937D1*
X461091Y-214557D1*
X446828Y-222177D1*
X433477Y-229797D1*
X420505Y-237417D1*
X407453Y-245037D1*
X529373Y-191697D2*
X527846Y-199317D1*
X525288Y-206937D1*
X518304Y-214557D1*
X508926Y-222177D1*
X497722Y-229797D1*
X485754Y-237417D1*
X473052Y-245037D1*
X459114Y-252657D1*
X443729Y-260277D1*
X427317Y-267897D1*
X411566Y-275517D1*
X398444Y-283137D1*
X388833Y-290757D1*
X381669Y-298377D1*
X379207Y-305997D1*
X377634Y-313617D1*
X376078Y-321237D1*
X374017Y-328857D1*
X371944Y-336477D1*
X370316Y-344097D1*
X368627Y-351717D1*
X366445Y-359337D1*
X364089Y-366957D1*
X361707Y-374577D1*
X358889Y-382197D1*
X355604Y-389817D1*
X352047Y-397437D1*
X348363Y-405057D1*
X344837Y-412677D1*
X341739Y-420297D1*
X338794Y-427917D1*
X335108Y-435537D1*
X330650Y-443157D1*
X325974Y-450777D1*
X321054Y-458397D1*
X315926Y-466017D1*
X310940Y-473637D1*
X305891Y-481257D1*
X300714Y-488877D1*
X295680Y-496497D1*
X290357Y-504117D1*
X284206Y-511737D1*
X277317Y-519357D1*
X269772Y-526977D1*
X261321Y-534597D1*
X251930Y-542217D1*
X242346Y-549837D1*
X233136Y-557457D1*
X223811Y-565077D1*
X213745Y-572697D1*
X202740Y-580317D1*
X190378Y-587937D1*
X176014Y-595557D1*
X159803Y-603177D1*
X142385Y-610797D1*
X123154Y-618417D1*
X99955Y-626037D1*
X72051Y-633657D1*
X41693Y-641277D1*
X-95467Y-199317D2*
Y-206937D1*
Y-214557D1*
Y-222177D1*
Y-229797D1*
Y-237417D1*
Y-245037D1*
Y-252657D1*
Y-260277D1*
Y-267897D1*
Y-275517D1*
X-26887Y-199317D2*
Y-206937D1*
Y-214557D1*
Y-222177D1*
Y-229797D1*
Y-237417D1*
Y-245037D1*
Y-252657D1*
Y-260277D1*
Y-267897D1*
Y-275517D1*
X26453Y-199317D2*
Y-206937D1*
Y-214557D1*
Y-222177D1*
Y-229797D1*
Y-237417D1*
Y-245037D1*
Y-252657D1*
Y-260277D1*
Y-267897D1*
Y-275517D1*
X95033Y-199317D2*
Y-206937D1*
Y-214557D1*
Y-222177D1*
Y-229797D1*
Y-237417D1*
Y-245037D1*
Y-252657D1*
Y-260277D1*
Y-267897D1*
Y-275517D1*
X-80227Y-214557D2*
Y-222177D1*
Y-229797D1*
Y-237417D1*
Y-245037D1*
Y-252657D1*
X-42127Y-214557D2*
Y-222177D1*
Y-229797D1*
Y-237417D1*
Y-245037D1*
Y-252657D1*
X41693Y-214557D2*
Y-222177D1*
Y-229797D1*
Y-237417D1*
Y-245037D1*
Y-252657D1*
X79793Y-214557D2*
Y-222177D1*
Y-229797D1*
Y-237417D1*
Y-245037D1*
Y-252657D1*
X308393Y-290757D2*
X295758Y-298377D1*
X282786Y-305997D1*
X268991Y-313617D1*
X254497Y-321237D1*
X239564Y-328857D1*
X224224Y-336477D1*
X208333Y-344097D1*
X192258Y-351717D1*
X176896Y-359337D1*
X162283Y-366957D1*
X147666Y-374577D1*
X132810Y-382197D1*
X117760Y-389817D1*
X102632Y-397437D1*
X87692Y-405057D1*
X73436Y-412677D1*
X60026Y-420297D1*
X46761Y-427917D1*
X32966Y-435537D1*
X18833Y-443157D1*
X323633Y-290757D2*
X322426Y-298377D1*
X320209Y-305997D1*
X316670Y-313617D1*
X310973Y-321237D1*
X302123Y-328857D1*
X290376Y-336477D1*
X276783Y-344097D1*
X262242Y-351717D1*
X247306Y-359337D1*
X232407Y-366957D1*
X217906Y-374577D1*
X203532Y-382197D1*
X188425Y-389817D1*
X172562Y-397437D1*
X156730Y-405057D1*
X141374Y-412677D1*
X126916Y-420297D1*
X113419Y-427917D1*
X100100Y-435537D1*
X86147Y-443157D1*
X71371Y-450777D1*
X55766Y-458397D1*
X39948Y-466017D1*
X25097Y-473637D1*
X11213Y-481257D1*
X-369787Y-328857D2*
X-369496Y-336477D1*
X-368520Y-344097D1*
X-366664Y-351717D1*
X-364442Y-359337D1*
X-362112Y-366957D1*
X-359312Y-374577D1*
X-356034Y-382197D1*
X-352479Y-389817D1*
X-348766Y-397437D1*
X-345002Y-405057D1*
X-341201Y-412677D1*
X-337402Y-420297D1*
X-333588Y-427917D1*
X-329755Y-435537D1*
X-325671Y-443157D1*
X-320896Y-450777D1*
X-315255Y-458397D1*
X-309467Y-466017D1*
X-304054Y-473637D1*
X-298543Y-481257D1*
X-292311Y-488877D1*
X-285419Y-496497D1*
X-278129Y-504117D1*
X-270645Y-511737D1*
X-263078Y-519357D1*
X-255447Y-526977D1*
X-247566Y-534597D1*
X-238977Y-542217D1*
X-229503Y-549837D1*
X-219661Y-557457D1*
X-209712Y-565077D1*
X-199233Y-572697D1*
X-187799Y-580317D1*
X-174622Y-587937D1*
X-159103Y-595557D1*
X-141781Y-603177D1*
X-123158Y-610797D1*
X-102593Y-618417D1*
X-78445Y-626037D1*
X-49992Y-633657D1*
X-19267Y-641277D1*
X-362167Y-328857D2*
X-352237Y-336477D1*
X-344615Y-344097D1*
X-339099Y-351717D1*
X-335149Y-359337D1*
X-332085Y-366957D1*
X-328967Y-374577D1*
X-325344Y-382197D1*
X-321017Y-389817D1*
X-316200Y-397437D1*
X-311570Y-405057D1*
X-307270Y-412677D1*
X-302993Y-420297D1*
X-298362Y-427917D1*
X-293387Y-435537D1*
X-288440Y-443157D1*
X-283151Y-450777D1*
X-277013Y-458397D1*
X-270158Y-466017D1*
X-262882Y-473637D1*
X-255403Y-481257D1*
X-247837Y-488877D1*
X-240236Y-496497D1*
X-232594Y-504117D1*
X-224708Y-511737D1*
X-216088Y-519357D1*
X-206375Y-526977D1*
X-195801Y-534597D1*
X-184729Y-542217D1*
X-173150Y-549837D1*
X-160487Y-557457D1*
X-145680Y-565077D1*
X-127918Y-572697D1*
X-106748Y-580317D1*
X-82223Y-587937D1*
X-55106Y-595557D1*
X-26887Y-603177D1*
M02*
