M48
METRIC,0000.00
T01C0.3
T02C0.4
T03C0.8
T04C1.45
%
T01
X+000948Y+001987
X+000560Y+001870
X+000295Y+001875
X+000113Y+001875
X-000202Y+001868
X-000375Y+001686
X-000360Y+001572
X-000268Y+001588
X-000237Y+001506
X-000543Y+001546
X-000618Y+001599
X-000676Y+001520
X-000998Y+001343
X-000955Y+001247
X-001168Y+001497
X-001005Y+001922
X-000515Y+001868
X+000091Y+001485
X+000190Y+001460
X+000291Y+001484
X+000389Y+001451
X+000489Y+001479
X+000587Y+001454
X+000992Y+001370
X+000989Y+001260
X+001163Y+001487
X+000640Y+000750
X+000445Y+000752
X+000243Y+000749
X+000217Y+000461
X+000432Y+000468
X+000634Y+000465
X+001068Y+000445
X+001068Y+000540
X+001071Y+000346
X+001071Y+000253
X+001068Y+000154
X+001074Y+000064
X-001037Y+000073
X-001037Y+000255
X-001038Y+000376
X-001040Y+000484
T02
X-000326Y+000466
T03
X-001170Y+001670
X-001170Y+001870
X-001170Y+002070
X+001170Y+002070
X+001170Y+001870
X+001170Y+001670
X+001170Y-000980
X-001170Y-000980
T04
X-001190Y+001275
X-001190Y-000600
X+001190Y-000600
X+001190Y+001275
T00
M30
