G04 DipTrace 3.2.0.1*
G04 Top.gbr*
%MOMM*%
G04 #@! TF.FileFunction,Copper,L1,Top*
G04 #@! TF.Part,Single*
G04 #@! TA.AperFunction,CopperBalancing*
%ADD10C,0.25*%
G04 #@! TA.AperFunction,Conductor*
%ADD15C,0.2*%
%ADD16C,0.4*%
%ADD17C,0.3*%
G04 #@! TA.AperFunction,ViaPad*
%ADD18C,0.6*%
G04 #@! TA.AperFunction,Conductor*
%ADD19C,1.5*%
%ADD20C,0.7*%
%ADD22R,1.5X1.3*%
%ADD23R,1.0X1.1*%
%ADD24R,1.1X1.0*%
G04 #@! TA.AperFunction,ComponentPad*
%ADD25C,1.6*%
%ADD26R,0.3X1.25*%
%ADD27R,1.8X2.2*%
%ADD29R,1.22X0.92*%
G04 #@! TA.AperFunction,ViaPad*
%ADD30C,0.8*%
%FSLAX35Y35*%
G04*
G71*
G90*
G75*
G01*
G04 Top*
%LPD*%
X740000Y1350000D2*
D15*
Y1204470D1*
X817743Y1126727D1*
X893393D1*
X998153Y1021967D1*
X971743Y995560D1*
X690000Y1350000D2*
Y1178827D1*
X819810Y1049017D1*
Y1004343D1*
X808747D1*
X808250Y1003847D1*
X640000Y1350000D2*
Y1165790D1*
X711773Y1094017D1*
Y677640D1*
X742993Y646420D1*
X540000Y1350000D2*
Y1168080D1*
X612300Y1095780D1*
Y1008090D1*
X590000Y1350000D2*
Y1451223D1*
X587307Y1453917D1*
X640343Y749843D2*
Y810047D1*
X612300Y838090D1*
X440000Y1350000D2*
Y1182980D1*
X515370Y1107610D1*
Y669630D1*
X550000Y635000D1*
X634340Y465043D2*
X550000Y465000D1*
X489060Y1479297D2*
Y1350000D1*
X490000D1*
X340000D2*
Y1187370D1*
X418257Y1109113D1*
Y1011910D1*
X445483Y752313D2*
Y814683D1*
X418257Y841910D1*
X388790Y1451500D2*
Y1351210D1*
X390000Y1350000D1*
X240000D2*
Y1166467D1*
X321480Y1084987D1*
Y663520D1*
X350000Y635000D1*
X290000Y1350000D2*
X290710Y1483657D1*
X431930Y468363D2*
X353363D1*
X350000Y465000D1*
X140000Y1350000D2*
Y1178370D1*
X223033Y1095337D1*
Y1012867D1*
X243223Y749337D2*
Y822677D1*
X223033Y842867D1*
X190000Y1350000D2*
Y1460150D1*
X189980Y1460170D1*
X40000Y1350000D2*
Y1151117D1*
X108637Y1082480D1*
Y660980D1*
X134617Y635000D1*
X217187Y461107D2*
X138510D1*
X134617Y465000D1*
X91363Y1485180D2*
Y1351363D1*
X90000Y1350000D1*
X971743Y825560D2*
D16*
X935587D1*
X927300Y833847D1*
X808250D1*
X888597D1*
Y594133D1*
X770883Y476420D1*
X742993D1*
Y384753D1*
X628790Y270550D1*
X297917D1*
X86143D1*
X-45993Y402687D1*
Y465000D1*
Y656200D1*
X-42500D1*
X-220000Y465000D2*
X-45993D1*
X-220000D2*
X-387277D1*
X-435000D1*
X-265420Y833643D2*
Y822077D1*
X-327087Y760410D1*
Y465000D1*
X-387277D1*
X-504233Y842543D2*
X-533847D1*
Y477343D1*
X-447343D1*
X-435000Y465000D1*
X-668370Y838843D2*
X-504233D1*
Y842543D1*
X-533847Y477343D2*
X-652657D1*
X-665000Y465000D1*
X-326333Y465893D2*
Y465000D1*
X-260000Y1350000D2*
D17*
Y1482847D1*
X-237180Y1505667D1*
X297917Y270550D2*
D19*
Y14393D1*
X755040D1*
Y-746240D1*
X988800Y-980000D1*
X1170000D1*
X-665000Y465000D2*
D18*
X-762523D1*
X-867780Y570257D1*
Y699667D1*
X-871670D1*
D16*
X-882287D1*
D18*
Y864457D1*
D16*
X-912237Y894407D1*
X-660000Y1350000D2*
D17*
Y1519990D1*
X-676050D1*
X1067997Y540470D2*
Y444547D1*
Y348620D1*
X1070993Y345623D1*
Y252697D1*
Y156773D1*
X1067997Y153777D1*
Y69847D1*
X1073993Y63850D1*
X-10000Y1350000D2*
D15*
Y1016247D1*
X-42500Y983747D1*
X-220000Y635000D2*
Y641917D1*
X-163573Y698343D1*
Y939250D1*
X-131383Y971440D1*
X-54807D1*
X-42500Y983747D1*
X-60000Y1350000D2*
Y1159013D1*
X-209620Y1009393D1*
X-290160D1*
X-284410Y1003643D1*
X-265420D1*
X-110000Y1350000D2*
Y1202553D1*
X-206670Y1105883D1*
X-376933D1*
X-401283Y1081533D1*
Y668717D1*
X-435000Y635000D1*
X-160000Y1350000D2*
Y1228697D1*
X-246593Y1142103D1*
X-464707D1*
X-504233Y1102577D1*
Y1012543D1*
X-668370Y1008843D2*
X-733083D1*
X-759517Y982410D1*
Y729517D1*
X-665000Y635000D1*
X-210000Y1350000D2*
Y1242477D1*
X-269820Y1182657D1*
X-510143D1*
X-676163Y1016637D1*
X-668370Y1008843D1*
X-310000Y1350000D2*
Y1530053D1*
X-267613Y1572440D1*
Y1588193D1*
X-410000Y1350000D2*
Y1515650D1*
X-428940Y1534590D1*
Y1641390D1*
X-384010Y1686320D1*
X-375397D1*
X-359543Y1571940D2*
X-360000D1*
Y1350000D1*
X-460000D2*
X-470560D1*
Y1680830D1*
X-664630Y1874900D1*
X-832523D1*
X-1000413Y2042790D1*
X-1142790D1*
X-1170000Y2070000D1*
X-510000Y1350000D2*
Y1504370D1*
X-552007Y1546377D1*
X-542863D1*
X-560000Y1350000D2*
Y1452160D1*
X-613523Y1505683D1*
Y1598747D1*
X-618267D1*
X-610000Y1350000D2*
D17*
Y1203403D1*
X-682823Y1130580D1*
X-852027D1*
X-898200Y1084407D1*
X-912237D1*
D20*
X-1052110D1*
X-1161837Y974680D1*
Y695893D1*
Y-215403D1*
X-936693Y-440547D1*
Y-757243D1*
X-1159450Y-980000D1*
X-1170000D1*
X-1041670Y699667D2*
D16*
X-1161837Y695893D1*
D18*
X947700Y1986890D3*
X-1005337Y1921737D3*
X113257Y1874563D3*
X295473D3*
X559590Y1870470D3*
X-515300Y1868420D3*
X-202047D3*
X-375397Y1686320D3*
X-618267Y1598747D3*
X-267613Y1588193D3*
X-359543Y1571940D3*
X-542863Y1546377D3*
X-676050Y1519990D3*
X-237180Y1505667D3*
X-1167833Y1497217D3*
X1162707Y1486710D3*
X489060Y1479297D3*
X587307Y1453917D3*
X91363Y1485180D3*
X189980Y1460170D3*
X290710Y1483657D3*
X388790Y1451500D3*
X991773Y1370267D3*
X-997923Y1342927D3*
X988780Y1259617D3*
X-954803Y1246770D3*
X445483Y752313D3*
X640343Y749843D3*
X243223Y749337D3*
X-1036647Y72903D3*
X-1036677Y254873D3*
X1067997Y540470D3*
X-1040297Y483970D3*
D30*
X-326333Y465893D3*
D18*
X431930Y468363D3*
X634340Y465043D3*
X217187Y461107D3*
X1067997Y444547D3*
X-1037570Y376247D3*
X1070993Y345623D3*
Y252697D3*
X1067997Y153777D3*
X1073993Y63850D3*
X931527Y2112833D2*
D10*
X1051673D1*
X920297Y2088167D2*
X1045327D1*
X909117Y2063500D2*
X1044157D1*
X897887Y2038833D2*
X1048013D1*
X886703Y2014167D2*
X1057340D1*
X875473Y1989500D2*
X1073843D1*
X-1088393Y1964833D2*
X-1000620D1*
X864243D2*
X1088393D1*
X-1065883Y1940167D2*
X-975963D1*
X853060D2*
X1065883D1*
X-1052700Y1915500D2*
X-951303D1*
X-627310D2*
X1052700D1*
X-1045767Y1890833D2*
X-926597D1*
X-602407D2*
X1045767D1*
X-1044057Y1866167D2*
X-901940D1*
X-577750D2*
X1044057D1*
X-1047330Y1841500D2*
X-877280D1*
X-553090D2*
X1047330D1*
X-1056020Y1816833D2*
X-684703D1*
X-528383D2*
X1056020D1*
X-1071597Y1792167D2*
X-660043D1*
X-503727D2*
X1071597D1*
X-1091713Y1767500D2*
X-635387D1*
X-479067D2*
X1091713D1*
X-1067740Y1742833D2*
X-1045980D1*
X-784000D2*
X-610727D1*
X-454410D2*
X-424887D1*
X-325893D2*
X813980D1*
X-784000Y1718167D2*
X-586070D1*
X-306657D2*
X813980D1*
X-784000Y1693500D2*
X-561410D1*
X-299770D2*
X813980D1*
X-784000Y1668833D2*
X-642907D1*
X-593617D2*
X-536703D1*
X-301527D2*
X813980D1*
X-784000Y1644167D2*
X-678550D1*
X-557973D2*
X-526547D1*
X-217497D2*
X813980D1*
X-784000Y1619500D2*
X-691293D1*
X-198600D2*
X813980D1*
X-1069497Y1594833D2*
X-1045980D1*
X-784000D2*
X-694173D1*
X-191910D2*
X813980D1*
X-1094790Y1570167D2*
X-1045980D1*
X-784000D2*
X-688463D1*
X-193863D2*
X813980D1*
X1076010D2*
X1094790D1*
X-1234977Y1545500D2*
X-1045980D1*
X-784000D2*
X-671420D1*
X-205287D2*
X46890D1*
X135873D2*
X248500D1*
X332943D2*
X454653D1*
X523473D2*
X813980D1*
X1076010D2*
X1234977D1*
X-1234977Y1520833D2*
X-1045980D1*
X-784000D2*
X-669517D1*
X-235707D2*
X24577D1*
X620200D2*
X813980D1*
X1076010D2*
X1234977D1*
X-1234977Y1496167D2*
X-1045980D1*
X-784000D2*
X-668687D1*
X-254020D2*
X16177D1*
X649937D2*
X813980D1*
X1076010D2*
X1234977D1*
X-1234977Y1471500D2*
X-1045980D1*
X-784000D2*
X-657163D1*
X-254020D2*
X16667D1*
X661167D2*
X813980D1*
X1076010D2*
X1234977D1*
X-1234977Y1446833D2*
X-766000D1*
X801010D2*
X1234977D1*
X-1130483Y1422167D2*
X-766000D1*
X801010D2*
X1130483D1*
X-1087953Y1397500D2*
X-766000D1*
X801010D2*
X1087953D1*
X-1063637Y1372833D2*
X-766000D1*
X801010D2*
X1063637D1*
X-1047670Y1348167D2*
X-766000D1*
X801010D2*
X1047670D1*
X-1037320Y1323500D2*
X-766000D1*
X801010D2*
X1037320D1*
X-1031460Y1298833D2*
X-766000D1*
X801010D2*
X1031460D1*
X-1029653Y1274167D2*
X-766000D1*
X801010D2*
X1029653D1*
X-1031753Y1249500D2*
X-766000D1*
X801010D2*
X1031753D1*
X-1037857Y1224833D2*
X-673813D1*
X797787D2*
X1037857D1*
X-1048550Y1200167D2*
X-698473D1*
X822447D2*
X1048550D1*
X-1064957Y1175500D2*
X-1033237D1*
X917857D2*
X1064957D1*
X947447Y1150833D2*
X1090053D1*
X972103Y1126167D2*
X1134977D1*
X-1234977Y1101500D2*
X-1148520D1*
X996763D2*
X1234977D1*
X-1234977Y1076833D2*
X-1173180D1*
X1062680D2*
X1234977D1*
X-1234977Y1052167D2*
X-1197887D1*
X1062680D2*
X1234977D1*
X-1234977Y1027500D2*
X-1222367D1*
X1062680D2*
X1234977D1*
X1062680Y1002833D2*
X1234977D1*
X1062680Y978167D2*
X1234977D1*
X-1069497Y953500D2*
X-1033237D1*
X1062680D2*
X1235023D1*
X-1080827Y928833D2*
X-1033237D1*
X1062680D2*
X1235023D1*
X-1080827Y904167D2*
X-1033237D1*
X1062680D2*
X1235023D1*
X-1080827Y879500D2*
X-1033237D1*
X-107583D2*
X52650D1*
X1062680D2*
X1235023D1*
X-1080827Y854833D2*
X-1033237D1*
X-107583D2*
X52650D1*
X1062680D2*
X1235023D1*
X-1080827Y830167D2*
X-1033237D1*
X-107583D2*
X52650D1*
X1062680D2*
X1235023D1*
X-1080827Y805500D2*
X-1033237D1*
X-107583D2*
X52650D1*
X1062680D2*
X1235023D1*
X-107583Y780833D2*
X52650D1*
X1062680D2*
X1235023D1*
X-107583Y756167D2*
X52650D1*
X1062680D2*
X1235023D1*
X-569010Y731500D2*
X-530990D1*
X-338980D2*
X-316000D1*
X839000D2*
X870670D1*
X1062680D2*
X1235023D1*
X-569010Y706833D2*
X-530990D1*
X-338980D2*
X-316000D1*
X839000D2*
X1235023D1*
X-569010Y682167D2*
X-530990D1*
X-338980D2*
X-316000D1*
X839000D2*
X1235023D1*
X-569010Y657500D2*
X-530990D1*
X-338980D2*
X-316000D1*
X839000D2*
X1235023D1*
X-569010Y632833D2*
X-530990D1*
X-338980D2*
X-316000D1*
X839000D2*
X1235023D1*
X-569010Y608167D2*
X-530990D1*
X-338980D2*
X-316000D1*
X839000D2*
X1235023D1*
X-1080827Y583500D2*
X-761020D1*
X-569010D2*
X-530990D1*
X-338980D2*
X-316000D1*
X839000D2*
X1235023D1*
X-1080827Y558833D2*
X-761020D1*
X-569010D2*
X-530990D1*
X-338980D2*
X-316000D1*
X-123990D2*
X38637D1*
X839000D2*
X1235023D1*
X-1080827Y534167D2*
X-761020D1*
X-569010D2*
X-530990D1*
X-338980D2*
X-316000D1*
X-123990D2*
X38637D1*
X839000D2*
X1235023D1*
X-1080827Y509500D2*
X-761020D1*
X-569010D2*
X-530990D1*
X-338980D2*
X-316000D1*
X-123990D2*
X38637D1*
X839000D2*
X1235023D1*
X-1080827Y484833D2*
X-761020D1*
X-569010D2*
X-530990D1*
X-338980D2*
X-316000D1*
X-123990D2*
X38637D1*
X839000D2*
X1235023D1*
X-1080827Y460167D2*
X-761020D1*
X-569010D2*
X-530990D1*
X-338980D2*
X-316000D1*
X-123990D2*
X38637D1*
X839000D2*
X1235023D1*
X-1080827Y435500D2*
X-761020D1*
X-569010D2*
X-530990D1*
X-338980D2*
X-316000D1*
X-123990D2*
X38637D1*
X839000D2*
X1235023D1*
X-1080827Y410833D2*
X-761020D1*
X-569010D2*
X-530990D1*
X-338980D2*
X-316000D1*
X-123990D2*
X38637D1*
X839000D2*
X1235023D1*
X-1080827Y386167D2*
X-761020D1*
X-569010D2*
X-530990D1*
X-338980D2*
X-316000D1*
X-123990D2*
X38637D1*
X230600D2*
X254020D1*
X839000D2*
X1235023D1*
X-1080827Y361500D2*
X1235023D1*
X-1080827Y336833D2*
X1235023D1*
X-1080827Y312167D2*
X1235023D1*
X-1080827Y287500D2*
X1235023D1*
X-1080827Y262833D2*
X1235023D1*
X-1080827Y238167D2*
X1235023D1*
X-1080827Y213500D2*
X1235023D1*
X-1080827Y188833D2*
X1235023D1*
X-1080827Y164167D2*
X1235023D1*
X-1080827Y139500D2*
X1235023D1*
X-1080827Y114833D2*
X1235023D1*
X-1080827Y90167D2*
X1235023D1*
X-1080827Y65500D2*
X1235023D1*
X-1080827Y40833D2*
X1235023D1*
X-1080827Y16167D2*
X1235023D1*
X-1030737Y793163D2*
Y994763D1*
X-1083367Y942133D1*
X-1083337Y793187D1*
X-1030747Y793167D1*
X-1018237Y1192907D2*
X-793737D1*
Y1189050D1*
X-707057Y1189080D1*
X-668497Y1227637D1*
X-668500Y1243980D1*
X-718500Y1244000D1*
Y1248990D1*
X-763500Y1249000D1*
Y1451000D1*
X-718530D1*
X-718500Y1456000D1*
X-639543D1*
X-654207Y1470937D1*
X-659140Y1477730D1*
X-662950Y1485210D1*
X-665547Y1493193D1*
X-666860Y1501487D1*
X-667023Y1543720D1*
X-674157Y1551013D1*
X-680937Y1560343D1*
X-686173Y1570620D1*
X-689737Y1581590D1*
X-691540Y1592980D1*
Y1604513D1*
X-689737Y1615903D1*
X-686173Y1626873D1*
X-680937Y1637150D1*
X-674157Y1646480D1*
X-666000Y1654637D1*
X-656670Y1661417D1*
X-646393Y1666653D1*
X-635423Y1670217D1*
X-624033Y1672020D1*
X-612500D1*
X-601110Y1670217D1*
X-590140Y1666653D1*
X-579863Y1661417D1*
X-570533Y1654637D1*
X-562377Y1646480D1*
X-555597Y1637150D1*
X-550360Y1626873D1*
X-547870Y1619703D1*
X-537097Y1619650D1*
X-525707Y1617847D1*
X-524077Y1617387D1*
X-524060Y1658643D1*
X-686790Y1821400D1*
X-836720Y1821563D1*
X-845013Y1822877D1*
X-852997Y1825473D1*
X-860477Y1829283D1*
X-867270Y1834217D1*
X-914547Y1881263D1*
X-1022583Y1989297D1*
X-1076537Y1989290D1*
X-1082673Y1982673D1*
X-1089793Y1976090D1*
X-1097410Y1969913D1*
X-1089793Y1963910D1*
X-1082673Y1957327D1*
X-1076090Y1950207D1*
X-1070087Y1942590D1*
X-1064700Y1934530D1*
X-1059960Y1926067D1*
X-1055900Y1917260D1*
X-1052543Y1908163D1*
X-1049913Y1898830D1*
X-1048020Y1889320D1*
X-1046880Y1879690D1*
X-1046500Y1870000D1*
X-1046880Y1860310D1*
X-1048020Y1850680D1*
X-1049913Y1841170D1*
X-1052543Y1831837D1*
X-1055900Y1822740D1*
X-1059960Y1813933D1*
X-1064700Y1805470D1*
X-1070087Y1797410D1*
X-1076090Y1789793D1*
X-1082673Y1782673D1*
X-1089793Y1776090D1*
X-1097410Y1769913D1*
X-1089793Y1763910D1*
X-1082673Y1757327D1*
X-1076090Y1750207D1*
X-1070087Y1742590D1*
X-1064700Y1734530D1*
X-1059960Y1726067D1*
X-1055900Y1717260D1*
X-1052543Y1708163D1*
X-1049913Y1698830D1*
X-1048020Y1689320D1*
X-1046880Y1679690D1*
X-1046500Y1670000D1*
X-1046880Y1660310D1*
X-1048020Y1650680D1*
X-1049913Y1641170D1*
X-1052543Y1631837D1*
X-1055900Y1622740D1*
X-1059960Y1613933D1*
X-1064700Y1605470D1*
X-1070087Y1597410D1*
X-1076090Y1589793D1*
X-1082673Y1582673D1*
X-1089793Y1576090D1*
X-1097410Y1570087D1*
X-1105470Y1564700D1*
X-1113933Y1559960D1*
X-1122740Y1555900D1*
X-1131837Y1552543D1*
X-1141170Y1549913D1*
X-1150680Y1548020D1*
X-1160310Y1546880D1*
X-1170000Y1546500D1*
X-1179690Y1546880D1*
X-1189320Y1548020D1*
X-1198830Y1549913D1*
X-1208163Y1552543D1*
X-1217260Y1555900D1*
X-1226067Y1559960D1*
X-1237520Y1566697D1*
X-1237497Y1425557D1*
X-1226847Y1428473D1*
X-1214690Y1430890D1*
X-1202383Y1432347D1*
X-1190000Y1432833D1*
X-1177617Y1432347D1*
X-1165310Y1430890D1*
X-1153153Y1428473D1*
X-1141227Y1425110D1*
X-1129600Y1420820D1*
X-1118347Y1415630D1*
X-1107533Y1409577D1*
X-1097227Y1402690D1*
X-1087497Y1395017D1*
X-1078393Y1386607D1*
X-1069983Y1377503D1*
X-1062310Y1367773D1*
X-1055423Y1357467D1*
X-1049370Y1346653D1*
X-1044180Y1335400D1*
X-1039890Y1323773D1*
X-1036527Y1311847D1*
X-1034110Y1299690D1*
X-1032653Y1287383D1*
X-1032167Y1275000D1*
X-1032653Y1262617D1*
X-1034110Y1250310D1*
X-1036527Y1238153D1*
X-1039890Y1226227D1*
X-1044180Y1214600D1*
X-1049370Y1203347D1*
X-1055423Y1192533D1*
X-1062310Y1182227D1*
X-1069983Y1172497D1*
X-1078393Y1163393D1*
X-1089357Y1153513D1*
X-1082150Y1156930D1*
X-1070437Y1160737D1*
X-1058270Y1162663D1*
X-1030773Y1162907D1*
X-1030737Y1192907D1*
X-1018237D1*
X-454787Y744043D2*
X-574863D1*
X-574870Y740343D1*
X-694683D1*
X-683500Y733500D1*
X-571500D1*
Y366500D1*
X-758500D1*
Y652857D1*
X-773160Y667500D1*
X-773170Y606167D1*
X-1083357D1*
X-1083337Y-4450D1*
X1182203Y-7563D1*
X1216920Y-7190D1*
X1222900Y-8050D1*
X1228670Y-9837D1*
X1234093Y-12500D1*
X1236640Y-14153D1*
X1237500Y-10917D1*
Y1124463D1*
X1226847Y1121527D1*
X1214690Y1119110D1*
X1202383Y1117653D1*
X1190000Y1117167D1*
X1177617Y1117653D1*
X1165310Y1119110D1*
X1153153Y1121527D1*
X1141227Y1124890D1*
X1129600Y1129180D1*
X1118347Y1134370D1*
X1107533Y1140423D1*
X1097227Y1147310D1*
X1087497Y1154983D1*
X1078393Y1163393D1*
X1069983Y1172497D1*
X1062310Y1182227D1*
X1055423Y1192533D1*
X1049370Y1203347D1*
X1044180Y1214600D1*
X1039890Y1226227D1*
X1036527Y1238153D1*
X1034110Y1250310D1*
X1032653Y1262617D1*
X1032167Y1275000D1*
X1032653Y1287383D1*
X1034110Y1299690D1*
X1036527Y1311847D1*
X1039890Y1323773D1*
X1044180Y1335400D1*
X1049370Y1346653D1*
X1055423Y1357467D1*
X1062310Y1367773D1*
X1069983Y1377503D1*
X1078393Y1386607D1*
X1087497Y1395017D1*
X1097227Y1402690D1*
X1107533Y1409577D1*
X1118347Y1415630D1*
X1129600Y1420820D1*
X1141227Y1425110D1*
X1153153Y1428473D1*
X1165310Y1430890D1*
X1177617Y1432347D1*
X1190000Y1432833D1*
X1202383Y1432347D1*
X1214690Y1430890D1*
X1226847Y1428473D1*
X1237517Y1425463D1*
X1237500Y1566553D1*
X1226067Y1559960D1*
X1217260Y1555900D1*
X1208163Y1552543D1*
X1198830Y1549913D1*
X1189320Y1548020D1*
X1179690Y1546880D1*
X1170000Y1546500D1*
X1160310Y1546880D1*
X1150680Y1548020D1*
X1141170Y1549913D1*
X1131837Y1552543D1*
X1122740Y1555900D1*
X1113933Y1559960D1*
X1105470Y1564700D1*
X1097410Y1570087D1*
X1089793Y1576090D1*
X1082673Y1582673D1*
X1073487Y1593097D1*
X1073500Y1454000D1*
X816500D1*
Y1751000D1*
X1073500D1*
Y1747043D1*
X1082673Y1757327D1*
X1089793Y1763910D1*
X1097410Y1770087D1*
X1089793Y1776090D1*
X1082673Y1782673D1*
X1076090Y1789793D1*
X1070087Y1797410D1*
X1064700Y1805470D1*
X1059960Y1813933D1*
X1055900Y1822740D1*
X1052543Y1831837D1*
X1049913Y1841170D1*
X1048020Y1850680D1*
X1046880Y1860310D1*
X1046500Y1870000D1*
X1046880Y1879690D1*
X1048020Y1889320D1*
X1049913Y1898830D1*
X1052543Y1908163D1*
X1055900Y1917260D1*
X1059960Y1926067D1*
X1064700Y1934530D1*
X1070087Y1942590D1*
X1076090Y1950207D1*
X1082673Y1957327D1*
X1089793Y1963910D1*
X1097410Y1970087D1*
X1089793Y1976090D1*
X1082673Y1982673D1*
X1076090Y1989793D1*
X1070087Y1997410D1*
X1064700Y2005470D1*
X1059960Y2013933D1*
X1055900Y2022740D1*
X1052543Y2031837D1*
X1049913Y2041170D1*
X1048020Y2050680D1*
X1046880Y2060310D1*
X1046500Y2070000D1*
X1046880Y2079690D1*
X1048020Y2089320D1*
X1049913Y2098830D1*
X1052543Y2108163D1*
X1055900Y2117260D1*
X1059960Y2126067D1*
X1066697Y2137520D1*
X940210Y2137500D1*
X842627Y1923110D1*
X839987Y1920223D1*
X836587Y1918297D1*
X832743Y1917513D1*
X-632307Y1917500D1*
X-626790Y1912720D1*
X-438310Y1724243D1*
X-434860Y1729523D1*
X-427370Y1738293D1*
X-418600Y1745783D1*
X-408763Y1751810D1*
X-398110Y1756223D1*
X-386893Y1758917D1*
X-375397Y1759820D1*
X-363900Y1758917D1*
X-352683Y1756223D1*
X-342030Y1751810D1*
X-332193Y1745783D1*
X-323423Y1738293D1*
X-315933Y1729523D1*
X-309907Y1719687D1*
X-305493Y1709033D1*
X-302800Y1697817D1*
X-301897Y1686320D1*
X-302800Y1674823D1*
X-305493Y1663607D1*
X-309907Y1652953D1*
X-315220Y1644187D1*
X-306017Y1650863D1*
X-295740Y1656100D1*
X-284770Y1659663D1*
X-273380Y1661467D1*
X-261847D1*
X-250457Y1659663D1*
X-239487Y1656100D1*
X-229210Y1650863D1*
X-219880Y1644083D1*
X-211723Y1635927D1*
X-204943Y1626597D1*
X-199707Y1616320D1*
X-196143Y1605350D1*
X-194340Y1593960D1*
Y1582427D1*
X-196143Y1571037D1*
X-199707Y1560067D1*
X-204943Y1549790D1*
X-211723Y1540460D1*
X-219880Y1532303D1*
X-229210Y1525523D1*
X-239487Y1520287D1*
X-246570Y1517820D1*
X-256473Y1507920D1*
X-256500Y1455980D1*
X23933Y1456000D1*
X21460Y1462467D1*
X18770Y1473680D1*
X17863Y1485180D1*
X18770Y1496677D1*
X21460Y1507893D1*
X25877Y1518547D1*
X31900Y1528383D1*
X39393Y1537153D1*
X48163Y1544643D1*
X57997Y1550670D1*
X68650Y1555083D1*
X79867Y1557773D1*
X91363Y1558680D1*
X102863Y1557773D1*
X114077Y1555083D1*
X124733Y1550670D1*
X134567Y1544643D1*
X143337Y1537153D1*
X150827Y1528383D1*
X153697Y1524090D1*
X161853Y1528077D1*
X172823Y1531640D1*
X184213Y1533443D1*
X195747D1*
X207140Y1531640D1*
X218107Y1528077D1*
X228477Y1522777D1*
X234820Y1531393D1*
X242973Y1539547D1*
X252307Y1546327D1*
X262583Y1551563D1*
X273550Y1555127D1*
X284943Y1556930D1*
X296477D1*
X307867Y1555127D1*
X318837Y1551563D1*
X329113Y1546327D1*
X338443Y1539547D1*
X346600Y1531393D1*
X353377Y1522060D1*
X356033Y1517320D1*
X366077Y1521403D1*
X377290Y1524097D1*
X388790Y1525000D1*
X400287Y1524097D1*
X411503Y1521403D1*
X422157Y1516990D1*
X425010Y1515393D1*
X429597Y1522500D1*
X437087Y1531270D1*
X445857Y1538760D1*
X455690Y1544787D1*
X466347Y1549200D1*
X477560Y1551890D1*
X489060Y1552797D1*
X500557Y1551890D1*
X511773Y1549200D1*
X522427Y1544787D1*
X532260Y1538760D1*
X541033Y1531270D1*
X548523Y1522500D1*
X551467Y1518093D1*
X559180Y1521820D1*
X570147Y1525387D1*
X581540Y1527190D1*
X593073D1*
X604463Y1525387D1*
X615433Y1521820D1*
X625710Y1516587D1*
X635040Y1509807D1*
X643197Y1501650D1*
X649973Y1492320D1*
X655210Y1482043D1*
X658777Y1471073D1*
X660580Y1459683D1*
X660723Y1456010D1*
X798500Y1456000D1*
Y1244000D1*
X793470D1*
X793500Y1226610D1*
X839873Y1180257D1*
X897590Y1180063D1*
X905883Y1178750D1*
X913867Y1176153D1*
X921347Y1172343D1*
X928140Y1167410D1*
X975417Y1120363D1*
X1011843Y1083937D1*
X1060167Y1083907D1*
Y716907D1*
X873167D1*
Y735353D1*
X836487Y735347D1*
X836493Y377920D1*
X649493D1*
Y393123D1*
X643487Y392170D1*
X643500Y366500D1*
X456500D1*
Y399067D1*
X449087Y396893D1*
X443493Y395780D1*
X443500Y366500D1*
X256500D1*
Y398970D1*
X245313Y393200D1*
X234343Y389637D1*
X228123Y388447D1*
X228117Y366500D1*
X41117D1*
X41167Y563500D1*
X39500Y566700D1*
X-126507D1*
X-126500Y366500D1*
X-313500D1*
Y733500D1*
X-217063D1*
X-219420Y735143D1*
X-347790D1*
X-341500Y733500D1*
Y366500D1*
X-528500D1*
Y733500D1*
X-454817D1*
X-454783Y744060D1*
X-1106123Y1141367D2*
X-1118347Y1134370D1*
X-1129600Y1129180D1*
X-1141227Y1124890D1*
X-1153153Y1121527D1*
X-1165310Y1119110D1*
X-1177617Y1117653D1*
X-1190000Y1117167D1*
X-1202383Y1117653D1*
X-1214690Y1119110D1*
X-1226847Y1121527D1*
X-1237517Y1124537D1*
X-1237497Y995577D1*
X-1234360Y1004720D1*
X-1228770Y1015697D1*
X-1221530Y1025663D1*
X-1199667Y1047867D1*
X-1107600Y1139930D1*
X-1031000Y1751000D2*
X-786500D1*
Y1454000D1*
X-1043500D1*
Y1751000D1*
X-1031000D1*
X-110077Y745700D2*
X55140D1*
X55137Y894233D1*
X-110120Y894247D1*
X-110073Y745743D1*
X-1030687Y894407D2*
X-912237D1*
X-504233Y842543D2*
Y744093D1*
X-668370Y838843D2*
Y740393D1*
X-265420Y833643D2*
Y735190D1*
X966667Y815407D2*
Y716953D1*
Y815407D2*
X1060120D1*
X742993Y476420D2*
Y377967D1*
Y476420D2*
X836447D1*
X-665000Y465000D2*
Y366550D1*
X-758450Y465000D2*
X-571550D1*
X-435000D2*
Y366550D1*
X-528450Y465000D2*
X-341550D1*
X-220000D2*
Y366550D1*
X-313450Y465000D2*
X-126550D1*
X-871670Y699667D2*
Y606217D1*
X-260000Y1455950D2*
Y1350000D1*
X-660000Y1455950D2*
Y1244050D1*
X-42500Y745650D2*
Y566750D1*
D22*
X-912237Y894407D3*
Y1084407D3*
D23*
X-504233Y842543D3*
Y1012543D3*
X223033Y842867D3*
Y1012867D3*
X418257Y841910D3*
Y1011910D3*
X-668370Y838843D3*
Y1008843D3*
X612300Y838090D3*
Y1008090D3*
X-265420Y833643D3*
Y1003643D3*
X808250Y833847D3*
Y1003847D3*
X971743Y825560D3*
Y995560D3*
X742993Y476420D3*
Y646420D3*
X-665000Y465000D3*
Y635000D3*
X-435000Y465000D3*
Y635000D3*
X-220000D3*
Y465000D3*
X134617D3*
Y635000D3*
X350000Y465000D3*
Y635000D3*
X550000Y465000D3*
Y635000D3*
D24*
X-871670Y699667D3*
X-1041670D3*
D25*
X-1170000Y1670000D3*
Y1870000D3*
Y2070000D3*
X1170000Y1670000D3*
Y1870000D3*
Y2070000D3*
Y-980000D3*
X-1170000D3*
D26*
X90000Y1350000D3*
X40000D3*
X-10000D3*
X-60000D3*
X-110000D3*
X-160000D3*
X-210000D3*
X-260000D3*
X-310000D3*
X-360000D3*
X-410000D3*
X-460000D3*
X-510000D3*
X-560000D3*
X140000D3*
X190000D3*
X240000D3*
X290000D3*
X340000D3*
X390000D3*
X440000D3*
X490000D3*
X540000D3*
X590000D3*
D27*
X945000Y1602500D3*
X-915000D3*
D26*
X640000Y1350000D3*
X690000D3*
X740000D3*
X-610000D3*
X-660000D3*
X-710000D3*
D29*
X-42500Y656200D3*
Y983747D3*
M02*
