G04 DipTrace 3.2.0.1*
G04 TopPaste.gbr*
%MOMM*%
G04 #@! TF.FileFunction,Paste,Top*
G04 #@! TF.Part,Single*
%ADD34R,1.02X0.72*%
%ADD36R,1.6X2.0*%
%ADD38R,0.1X1.05*%
%ADD42R,0.9X0.8*%
%ADD44R,0.8X0.9*%
%ADD46R,1.3X1.1*%
%FSLAX35Y35*%
G04*
G71*
G90*
G75*
G01*
G04 TopPaste*
%LPD*%
D46*
X-912237Y894407D3*
Y1084407D3*
D44*
X-504233Y842543D3*
Y1012543D3*
X223033Y842867D3*
Y1012867D3*
X418257Y841910D3*
Y1011910D3*
X-668370Y838843D3*
Y1008843D3*
X612300Y838090D3*
Y1008090D3*
X-265420Y833643D3*
Y1003643D3*
X808250Y833847D3*
Y1003847D3*
X971743Y825560D3*
Y995560D3*
X742993Y476420D3*
Y646420D3*
X-665000Y465000D3*
Y635000D3*
X-435000Y465000D3*
Y635000D3*
X-220000D3*
Y465000D3*
X134617D3*
Y635000D3*
X350000Y465000D3*
Y635000D3*
X550000Y465000D3*
Y635000D3*
D42*
X-871670Y699667D3*
X-1041670D3*
D38*
X90000Y1350000D3*
X40000D3*
X-10000D3*
X-60000D3*
X-110000D3*
X-160000D3*
X-210000D3*
X-260000D3*
X-310000D3*
X-360000D3*
X-410000D3*
X-460000D3*
X-510000D3*
X-560000D3*
X140000D3*
X190000D3*
X240000D3*
X290000D3*
X340000D3*
X390000D3*
X440000D3*
X490000D3*
X540000D3*
X590000D3*
D36*
X945000Y1602500D3*
X-915000D3*
D38*
X640000Y1350000D3*
X690000D3*
X740000D3*
X-610000D3*
X-660000D3*
X-710000D3*
D34*
X-42500Y656200D3*
Y983747D3*
M02*
