G04 DipTrace 3.2.0.1*
G04 TopSilk.gbr*
%MOMM*%
G04 #@! TF.FileFunction,Legend,Top*
G04 #@! TF.Part,Single*
%ADD10C,0.25*%
%ADD12C,0.0762*%
%ADD13C,0.06667*%
%ADD14C,0.05*%
%ADD21C,0.15*%
%ADD28O,0.39005X0.38011*%
%ADD47C,0.11765*%
%FSLAX35Y35*%
G04*
G71*
G90*
G75*
G01*
G04 TopSilk*
%LPD*%
X-847287Y789353D2*
D10*
X-977187D1*
X-1279012Y1559000D2*
D21*
X-1057002D1*
Y2182000D1*
X-1279012D1*
Y1559000D1*
X1060988D2*
X1282998D1*
Y2182000D1*
X1060988D1*
Y1559000D1*
X1066994Y-1082006D2*
X1272006D1*
Y-876994D1*
X1066994D1*
Y-1082006D1*
X-1066994Y-877994D2*
X-1272006D1*
Y-1083006D1*
X-1066994D1*
Y-877994D1*
X936060Y1349993D2*
D10*
X-918912D1*
Y1864000D1*
X936060D1*
Y1349993D1*
X-124500Y718988D2*
X44500D1*
Y919993D1*
X-124500D1*
Y718988D1*
D28*
X-41994Y760985D3*
X899237Y1078320D2*
D21*
X1037987D1*
Y751750D1*
X899237D1*
Y1078320D1*
X740510Y1082557D2*
X879260D1*
Y755987D1*
X740510D1*
Y1082557D1*
X672243Y722143D2*
X810993D1*
Y395573D1*
X672243D1*
Y722143D1*
X544420Y1085277D2*
X683170D1*
Y758707D1*
X544420D1*
Y1085277D1*
X349093Y1089317D2*
X487843D1*
Y762747D1*
X349093D1*
Y1089317D1*
X155157Y1091010D2*
X293907D1*
Y764440D1*
X155157D1*
Y1091010D1*
X478660Y712017D2*
X617410D1*
Y385447D1*
X478660D1*
Y712017D1*
X279110Y712420D2*
X417860D1*
Y385850D1*
X279110D1*
Y712420D1*
X65763Y712860D2*
X204513D1*
Y386290D1*
X65763D1*
Y712860D1*
X-290397Y713390D2*
X-151647D1*
Y386820D1*
X-290397D1*
Y713390D1*
X-337833Y1080050D2*
X-199083D1*
Y753480D1*
X-337833D1*
Y1080050D1*
X-572127Y1086117D2*
X-433377D1*
Y759547D1*
X-572127D1*
Y1086117D1*
X-504697Y712113D2*
X-365947D1*
Y385543D1*
X-504697D1*
Y712113D1*
X-735180Y712077D2*
X-596430D1*
Y385507D1*
X-735180D1*
Y712077D1*
X-742120Y1084420D2*
X-603370D1*
Y757850D1*
X-742120D1*
Y1084420D1*
X-1123967Y767117D2*
X-797397D1*
Y628367D1*
X-1123967D1*
Y767117D1*
X-1012333Y1185513D2*
X-813177D1*
Y789057D1*
X-1012333D1*
Y1185513D1*
X-1136193Y1017313D2*
D14*
X-1131193D1*
X-1142155Y1014813D2*
X-1125531D1*
X-1086193D2*
X-1076193D1*
X-1146800Y1012313D2*
X-1120860D1*
X-1089742D2*
X-1076193D1*
X-1150302Y1009813D2*
X-1117248D1*
X-1092542D2*
X-1076193D1*
X-1152957Y1007313D2*
X-1114509D1*
X-1094706D2*
X-1076193D1*
X-1154956Y1004813D2*
X-1143598D1*
X-1126780D2*
X-1112464D1*
X-1095477D2*
X-1076193D1*
X-1156473Y1002313D2*
X-1145768D1*
X-1123140D2*
X-1110926D1*
X-1095912D2*
X-1091193D1*
X-1083693D2*
X-1076193D1*
X-1157559Y999813D2*
X-1147571D1*
X-1120420D2*
X-1109835D1*
X-1096193D2*
X-1093693D1*
X-1083693D2*
X-1076193D1*
X-1158268Y997313D2*
X-1149014D1*
X-1118239D2*
X-1109166D1*
X-1083693D2*
X-1076193D1*
X-1158892Y994813D2*
X-1150063D1*
X-1116193D2*
X-1108693D1*
X-1083693D2*
X-1076193D1*
X-1159624Y992313D2*
X-1150675D1*
X-1083693D2*
X-1076193D1*
X-1160318Y989813D2*
X-1150977D1*
X-1083693D2*
X-1076193D1*
X-1160774Y987313D2*
X-1151109D1*
X-1083693D2*
X-1076193D1*
X-1161013Y984813D2*
X-1151162D1*
X-1083693D2*
X-1076193D1*
X-1161122Y982313D2*
X-1151182D1*
X-1083693D2*
X-1076193D1*
X-1161167Y979813D2*
X-1151190D1*
X-1083693D2*
X-1076193D1*
X-1161184Y977313D2*
X-1151192D1*
X-1083693D2*
X-1076193D1*
X-1161190Y974813D2*
X-1151193D1*
X-1083693D2*
X-1076193D1*
X-1161182Y972313D2*
X-1151193D1*
X-1083693D2*
X-1076193D1*
X-1161095Y969813D2*
X-1151184D1*
X-1083693D2*
X-1076193D1*
X-1160777Y967313D2*
X-1151096D1*
X-1083693D2*
X-1076193D1*
X-1160178Y964813D2*
X-1150777D1*
X-1083693D2*
X-1076193D1*
X-1159528Y962313D2*
X-1150169D1*
X-1083693D2*
X-1076193D1*
X-1159004Y959813D2*
X-1149420D1*
X-1118693D2*
X-1108693D1*
X-1083693D2*
X-1076193D1*
X-1158443Y957313D2*
X-1148421D1*
X-1119807D2*
X-1109089D1*
X-1083693D2*
X-1076193D1*
X-1157641Y954813D2*
X-1146979D1*
X-1121262D2*
X-1109807D1*
X-1083693D2*
X-1076193D1*
X-1156540Y952313D2*
X-1141759D1*
X-1126133D2*
X-1110870D1*
X-1083693D2*
X-1076193D1*
X-1155062Y949813D2*
X-1133639D1*
X-1133974D2*
X-1112333D1*
X-1083693D2*
X-1076193D1*
X-1153073Y947313D2*
X-1114317D1*
X-1083693D2*
X-1076193D1*
X-1150487Y944813D2*
X-1116901D1*
X-1083693D2*
X-1076193D1*
X-1147269Y942313D2*
X-1120118D1*
X-1083693D2*
X-1076193D1*
X-1143693Y939813D2*
X-1123693D1*
X-1083693D2*
X-1076193D1*
X-530087Y1200943D2*
X-525087D1*
X-470087D2*
X-465087D1*
X-536049Y1198443D2*
X-519424D1*
X-474885D2*
X-459134D1*
X-540693Y1195943D2*
X-514754D1*
X-478733D2*
X-454578D1*
X-544195Y1193443D2*
X-511141D1*
X-481631D2*
X-451394D1*
X-546850Y1190943D2*
X-508402D1*
X-483757D2*
X-449338D1*
X-548849Y1188443D2*
X-537491D1*
X-520673D2*
X-506358D1*
X-485331D2*
X-474698D1*
X-457200D2*
X-447980D1*
X-550366Y1185943D2*
X-539661D1*
X-517033D2*
X-504820D1*
X-486436D2*
X-476558D1*
X-456581D2*
X-446909D1*
X-551452Y1183443D2*
X-541464D1*
X-514314D2*
X-503729D1*
X-487111D2*
X-478307D1*
X-455943D2*
X-446153D1*
X-552161Y1180943D2*
X-542907D1*
X-512132D2*
X-503060D1*
X-487587D2*
X-480087D1*
X-455593D2*
X-445744D1*
X-552785Y1178443D2*
X-543956D1*
X-510087D2*
X-502587D1*
X-455689D2*
X-446250D1*
X-553517Y1175943D2*
X-544568D1*
X-456279D2*
X-446902D1*
X-554211Y1173443D2*
X-544870D1*
X-457283D2*
X-447629D1*
X-554668Y1170943D2*
X-545002D1*
X-458629D2*
X-448542D1*
X-554907Y1168443D2*
X-545056D1*
X-460192D2*
X-449690D1*
X-555015Y1165943D2*
X-545076D1*
X-461789D2*
X-451095D1*
X-555060Y1163443D2*
X-545083D1*
X-463506D2*
X-452680D1*
X-555077Y1160943D2*
X-545085D1*
X-465428D2*
X-454285D1*
X-555083Y1158443D2*
X-545086D1*
X-467358D2*
X-456004D1*
X-555076Y1155943D2*
X-545087D1*
X-469146D2*
X-457928D1*
X-554989Y1153443D2*
X-545077D1*
X-470948D2*
X-459857D1*
X-554670Y1150943D2*
X-544989D1*
X-472907D2*
X-461645D1*
X-554072Y1148443D2*
X-544670D1*
X-474850D2*
X-463448D1*
X-553421Y1145943D2*
X-544062D1*
X-476643D2*
X-465407D1*
X-552897Y1143443D2*
X-543313D1*
X-512587D2*
X-502587D1*
X-478448D2*
X-467350D1*
X-552337Y1140943D2*
X-542315D1*
X-513700D2*
X-502983D1*
X-480406D2*
X-469143D1*
X-551534Y1138443D2*
X-540872D1*
X-515156D2*
X-503700D1*
X-482340D2*
X-470957D1*
X-550433Y1135943D2*
X-535653D1*
X-520026D2*
X-504764D1*
X-484035D2*
X-473002D1*
X-548956Y1133443D2*
X-527532D1*
X-527868D2*
X-506226D1*
X-485434D2*
X-475251D1*
X-546966Y1130943D2*
X-508210D1*
X-486466D2*
X-445087D1*
X-544380Y1128443D2*
X-510794D1*
X-487074D2*
X-445087D1*
X-541162Y1125943D2*
X-514011D1*
X-487388D2*
X-445087D1*
X-537587Y1123443D2*
X-517587D1*
X-487587D2*
X-445087D1*
X198873Y1199577D2*
X203873D1*
X258873D2*
X263873D1*
X192911Y1197077D2*
X209536D1*
X254075D2*
X269441D1*
X188267Y1194577D2*
X214206D1*
X250227D2*
X273791D1*
X184765Y1192077D2*
X217819D1*
X247329D2*
X276794D1*
X182110Y1189577D2*
X220558D1*
X245203D2*
X278804D1*
X180111Y1187077D2*
X191469D1*
X208287D2*
X222602D1*
X243629D2*
X254262D1*
X268768D2*
X280094D1*
X178594Y1184577D2*
X189299D1*
X211927D2*
X224140D1*
X242524D2*
X252402D1*
X270850D2*
X280801D1*
X177508Y1182077D2*
X187496D1*
X214646D2*
X225231D1*
X241849D2*
X250653D1*
X272325D2*
X281138D1*
X176799Y1179577D2*
X186053D1*
X216828D2*
X225900D1*
X241373D2*
X248873D1*
X273311D2*
X281273D1*
X176175Y1177077D2*
X185004D1*
X218873D2*
X226373D1*
X273208D2*
X281243D1*
X175443Y1174577D2*
X184392D1*
X272767D2*
X280936D1*
X174749Y1172077D2*
X184090D1*
X271112D2*
X280237D1*
X174292Y1169577D2*
X183958D1*
X268504D2*
X279088D1*
X174053Y1167077D2*
X183904D1*
X265191D2*
X277258D1*
X173945Y1164577D2*
X183884D1*
X261919D2*
X274560D1*
X173900Y1162077D2*
X183877D1*
X260289D2*
X271373D1*
X173883Y1159577D2*
X183875D1*
X259771D2*
X274332D1*
X173877Y1157077D2*
X183874D1*
X263209D2*
X276868D1*
X173884Y1154577D2*
X183873D1*
X266872D2*
X278867D1*
X173971Y1152077D2*
X183883D1*
X269901D2*
X280477D1*
X174290Y1149577D2*
X183971D1*
X272261D2*
X281798D1*
X174888Y1147077D2*
X184290D1*
X273095D2*
X282786D1*
X175539Y1144577D2*
X184898D1*
X273534D2*
X283362D1*
X176063Y1142077D2*
X185647D1*
X216373D2*
X226373D1*
X273638D2*
X283565D1*
X176623Y1139577D2*
X186645D1*
X215260D2*
X225977D1*
X238873D2*
X248873D1*
X273506D2*
X283375D1*
X177426Y1137077D2*
X188088D1*
X213804D2*
X225260D1*
X239823D2*
X250265D1*
X272366D2*
X282818D1*
X178527Y1134577D2*
X193307D1*
X208934D2*
X224196D1*
X240907D2*
X254336D1*
X268362D2*
X282099D1*
X180004Y1132077D2*
X201428D1*
X201092D2*
X222734D1*
X242166D2*
X260817D1*
X261913D2*
X281244D1*
X181994Y1129577D2*
X220750D1*
X243788D2*
X279905D1*
X184580Y1127077D2*
X218166D1*
X245962D2*
X277760D1*
X187798Y1124577D2*
X214949D1*
X248597D2*
X274787D1*
X191373Y1122077D2*
X211373D1*
X251373D2*
X271373D1*
X391597Y1198620D2*
X396597D1*
X385635Y1196120D2*
X402259D1*
X459097D2*
X469097D1*
X380990Y1193620D2*
X406930D1*
X458147D2*
X467847D1*
X377488Y1191120D2*
X410542D1*
X457073D2*
X466799D1*
X374833Y1188620D2*
X413281D1*
X455912D2*
X465749D1*
X372834Y1186120D2*
X384192D1*
X401010D2*
X415326D1*
X454697D2*
X464618D1*
X371317Y1183620D2*
X382022D1*
X404650D2*
X416864D1*
X453464D2*
X463430D1*
X370231Y1181120D2*
X380219D1*
X407370D2*
X417955D1*
X452227D2*
X462204D1*
X369522Y1178620D2*
X378776D1*
X409551D2*
X418624D1*
X451060D2*
X460967D1*
X368898Y1176120D2*
X377727D1*
X411597D2*
X419097D1*
X450049D2*
X459719D1*
X368166Y1173620D2*
X377115D1*
X449159D2*
X458472D1*
X367472Y1171120D2*
X376813D1*
X448190D2*
X457220D1*
X367016Y1168620D2*
X376681D1*
X447095D2*
X455973D1*
X366777Y1166120D2*
X376628D1*
X445922D2*
X454730D1*
X366668Y1163620D2*
X376608D1*
X444701D2*
X453561D1*
X469097D2*
X476597D1*
X366623Y1161120D2*
X376600D1*
X443466D2*
X452549D1*
X469097D2*
X476597D1*
X366606Y1158620D2*
X376598D1*
X442218D2*
X451659D1*
X469097D2*
X476597D1*
X366600Y1156120D2*
X376597D1*
X440972D2*
X450690D1*
X469097D2*
X476597D1*
X366608Y1153620D2*
X376597D1*
X439720D2*
X449595D1*
X469097D2*
X476597D1*
X366695Y1151120D2*
X376606D1*
X438473D2*
X448414D1*
X469097D2*
X476616D1*
X367013Y1148620D2*
X376694D1*
X437230D2*
X447129D1*
X469097D2*
X476792D1*
X367612Y1146120D2*
X377013D1*
X436070D2*
X445683D1*
X469097D2*
X477202D1*
X368262Y1143620D2*
X377621D1*
X435147D2*
X444097D1*
X469097D2*
X478570D1*
X368786Y1141120D2*
X378370D1*
X409097D2*
X419097D1*
X434585D2*
X479894D1*
X369347Y1138620D2*
X379369D1*
X407983D2*
X418701D1*
X434302D2*
X480777D1*
X370149Y1136120D2*
X380811D1*
X406528D2*
X417983D1*
X434172D2*
X481245D1*
X371250Y1133620D2*
X386031D1*
X401657D2*
X416920D1*
X434097D2*
X481466D1*
X372728Y1131120D2*
X394151D1*
X393816D2*
X415457D1*
X469097D2*
X476597D1*
X374717Y1128620D2*
X413473D1*
X469097D2*
X476597D1*
X377303Y1126120D2*
X410889D1*
X469097D2*
X476597D1*
X380521Y1123620D2*
X407672D1*
X469097D2*
X476597D1*
X384097Y1121120D2*
X404097D1*
X469097D2*
X476597D1*
X-700680Y1197637D2*
X-695680D1*
X-706642Y1195137D2*
X-690017D1*
X-655680D2*
X-618180D1*
X-711286Y1192637D2*
X-685347D1*
X-655680D2*
X-618180D1*
X-714788Y1190137D2*
X-681734D1*
X-655680D2*
X-618180D1*
X-717443Y1187637D2*
X-678995D1*
X-655680D2*
X-618180D1*
X-719443Y1185137D2*
X-708085D1*
X-691267D2*
X-676951D1*
X-655680D2*
X-645680D1*
X-720960Y1182637D2*
X-710255D1*
X-687627D2*
X-675413D1*
X-655680D2*
X-645680D1*
X-722045Y1180137D2*
X-712058D1*
X-684907D2*
X-674322D1*
X-655680D2*
X-645680D1*
X-722755Y1177637D2*
X-713500D1*
X-682726D2*
X-673653D1*
X-655680D2*
X-645680D1*
X-723378Y1175137D2*
X-714549D1*
X-680680D2*
X-673180D1*
X-655680D2*
X-645680D1*
X-724110Y1172637D2*
X-715161D1*
X-655680D2*
X-645680D1*
X-724805Y1170137D2*
X-715463D1*
X-655680D2*
X-635112D1*
X-725261Y1167637D2*
X-715596D1*
X-655680D2*
X-627673D1*
X-725500Y1165137D2*
X-715649D1*
X-655680D2*
X-622266D1*
X-725609Y1162637D2*
X-715669D1*
X-655680D2*
X-619854D1*
X-725653Y1160137D2*
X-715676D1*
X-655680D2*
X-643180D1*
X-628662D2*
X-618084D1*
X-725670Y1157637D2*
X-715679D1*
X-655680D2*
X-645680D1*
X-627112D2*
X-616895D1*
X-725677Y1155137D2*
X-715680D1*
X-625956D2*
X-616228D1*
X-725669Y1152637D2*
X-715680D1*
X-624951D2*
X-615907D1*
X-725582Y1150137D2*
X-715670D1*
X-624134D2*
X-615768D1*
X-725264Y1147637D2*
X-715582D1*
X-623638D2*
X-615712D1*
X-724665Y1145137D2*
X-715264D1*
X-623468D2*
X-615691D1*
X-724014Y1142637D2*
X-714655D1*
X-623671D2*
X-615684D1*
X-723490Y1140137D2*
X-713907D1*
X-683180D2*
X-673180D1*
X-624233D2*
X-615691D1*
X-722930Y1137637D2*
X-712908D1*
X-684293D2*
X-673576D1*
X-655680D2*
X-648180D1*
X-625002D2*
X-615778D1*
X-722128Y1135137D2*
X-711465D1*
X-685749D2*
X-674294D1*
X-655575D2*
X-646788D1*
X-625888D2*
X-616106D1*
X-721027Y1132637D2*
X-706246D1*
X-690619D2*
X-675357D1*
X-655157D2*
X-642718D1*
X-628516D2*
X-616802D1*
X-719549Y1130137D2*
X-698126D1*
X-698461D2*
X-676820D1*
X-654141D2*
X-636237D1*
X-635229D2*
X-617860D1*
X-717560Y1127637D2*
X-678803D1*
X-652485D2*
X-619311D1*
X-714974Y1125137D2*
X-681387D1*
X-650394D2*
X-621196D1*
X-711756Y1122637D2*
X-684605D1*
X-648077D2*
X-623379D1*
X-708180Y1120137D2*
X-688180D1*
X-645680D2*
X-625680D1*
X589830Y1194800D2*
X594830D1*
X583868Y1192300D2*
X600493D1*
X652330D2*
X662330D1*
X579224Y1189800D2*
X605163D1*
X651380D2*
X661380D1*
X575722Y1187300D2*
X608776D1*
X650306D2*
X660306D1*
X573067Y1184800D2*
X611515D1*
X649145D2*
X659145D1*
X571067Y1182300D2*
X582425D1*
X599243D2*
X613559D1*
X647930D2*
X657930D1*
X569550Y1179800D2*
X580255D1*
X602883D2*
X615097D1*
X646697D2*
X656697D1*
X568465Y1177300D2*
X578452D1*
X605603D2*
X616188D1*
X645451D2*
X655451D1*
X567755Y1174800D2*
X577010D1*
X607784D2*
X616857D1*
X644205D2*
X654205D1*
X567132Y1172300D2*
X575961D1*
X609830D2*
X617330D1*
X642954D2*
X652954D1*
X566400Y1169800D2*
X575349D1*
X641706D2*
X651706D1*
X565705Y1167300D2*
X575047D1*
X640454D2*
X650462D1*
X565249Y1164800D2*
X574914D1*
X639206D2*
X649279D1*
X565010Y1162300D2*
X574861D1*
X637964D2*
X648237D1*
X652330D2*
X657330D1*
X564901Y1159800D2*
X574841D1*
X636794D2*
X662043D1*
X564857Y1157300D2*
X574834D1*
X635782D2*
X665649D1*
X564840Y1154800D2*
X574831D1*
X634902D2*
X668178D1*
X564833Y1152300D2*
X574830D1*
X634021D2*
X669943D1*
X564841Y1149800D2*
X574830D1*
X633255D2*
X645312D1*
X659434D2*
X671123D1*
X564928Y1147300D2*
X574840D1*
X632768D2*
X643762D1*
X661216D2*
X671784D1*
X565246Y1144800D2*
X574928D1*
X632517D2*
X642606D1*
X662653D2*
X672104D1*
X565845Y1142300D2*
X575246D1*
X632404D2*
X641611D1*
X663700D2*
X672243D1*
X566496Y1139800D2*
X575855D1*
X632357D2*
X640882D1*
X664302D2*
X672298D1*
X567020Y1137300D2*
X576603D1*
X607330D2*
X617330D1*
X632350D2*
X640486D1*
X664506D2*
X672319D1*
X567580Y1134800D2*
X577602D1*
X606217D2*
X616934D1*
X632431D2*
X641137D1*
X664437D2*
X672316D1*
X568382Y1132300D2*
X579045D1*
X604761D2*
X616216D1*
X632757D2*
X642134D1*
X663314D2*
X672221D1*
X569483Y1129800D2*
X584264D1*
X599891D2*
X615153D1*
X633453D2*
X644977D1*
X659315D2*
X671806D1*
X570961Y1127300D2*
X592384D1*
X592049D2*
X613690D1*
X634510D2*
X651796D1*
X652868D2*
X670791D1*
X572950Y1124800D2*
X611707D1*
X635961D2*
X669135D1*
X575536Y1122300D2*
X609123D1*
X637846D2*
X667044D1*
X578754Y1119800D2*
X605905D1*
X640029D2*
X664727D1*
X582330Y1117300D2*
X602330D1*
X642330D2*
X662330D1*
X-295100Y1188660D2*
X-290100D1*
X-301062Y1186160D2*
X-284437D1*
X-252600D2*
X-212600D1*
X-305706Y1183660D2*
X-279767D1*
X-252600D2*
X-212610D1*
X-309208Y1181160D2*
X-276154D1*
X-252600D2*
X-212698D1*
X-311863Y1178660D2*
X-273415D1*
X-252600D2*
X-213016D1*
X-313863Y1176160D2*
X-302505D1*
X-285687D2*
X-271371D1*
X-252600D2*
X-245100D1*
X-222109D2*
X-213625D1*
X-315380Y1173660D2*
X-304675D1*
X-282047D2*
X-269833D1*
X-252600D2*
X-245100D1*
X-223581D2*
X-214354D1*
X-316465Y1171160D2*
X-306478D1*
X-279327D2*
X-268742D1*
X-252600D2*
X-245100D1*
X-224506D2*
X-215108D1*
X-317175Y1168660D2*
X-307920D1*
X-277146D2*
X-268073D1*
X-252600D2*
X-245100D1*
X-225230D2*
X-215949D1*
X-317798Y1166160D2*
X-308969D1*
X-275100D2*
X-267600D1*
X-226014D2*
X-216784D1*
X-318530Y1163660D2*
X-309581D1*
X-226813D2*
X-217582D1*
X-319225Y1161160D2*
X-309883D1*
X-227594D2*
X-218429D1*
X-319681Y1158660D2*
X-310016D1*
X-228444D2*
X-219192D1*
X-319920Y1156160D2*
X-310069D1*
X-229282D2*
X-219762D1*
X-320029Y1153660D2*
X-310089D1*
X-230082D2*
X-220330D1*
X-320073Y1151160D2*
X-310096D1*
X-230929D2*
X-221051D1*
X-320090Y1148660D2*
X-310099D1*
X-231692D2*
X-221826D1*
X-320097Y1146160D2*
X-310100D1*
X-232262D2*
X-222599D1*
X-320089Y1143660D2*
X-310100D1*
X-232830D2*
X-223436D1*
X-320002Y1141160D2*
X-310090D1*
X-233551D2*
X-224195D1*
X-319684Y1138660D2*
X-310002D1*
X-234326D2*
X-224763D1*
X-319085Y1136160D2*
X-309684D1*
X-235099D2*
X-225331D1*
X-318434Y1133660D2*
X-309075D1*
X-235936D2*
X-226051D1*
X-317910Y1131160D2*
X-308327D1*
X-277600D2*
X-267600D1*
X-236695D2*
X-226826D1*
X-317350Y1128660D2*
X-307328D1*
X-278713D2*
X-267996D1*
X-237263D2*
X-227599D1*
X-316548Y1126160D2*
X-305885D1*
X-280169D2*
X-268714D1*
X-237831D2*
X-228445D1*
X-315447Y1123660D2*
X-300666D1*
X-285039D2*
X-269777D1*
X-238551D2*
X-229282D1*
X-313969Y1121160D2*
X-292546D1*
X-292881D2*
X-271240D1*
X-239326D2*
X-230082D1*
X-311980Y1118660D2*
X-273223D1*
X-240100D2*
X-230930D1*
X-309394Y1116160D2*
X-275807D1*
X-240959D2*
X-231690D1*
X-306176Y1113660D2*
X-279025D1*
X-241816D2*
X-232211D1*
X-302600Y1111160D2*
X-282600D1*
X-242600D2*
X-232600D1*
X782497Y718463D2*
X787497D1*
X844997D2*
X849997D1*
X776535Y715963D2*
X793159D1*
X839429D2*
X855949D1*
X771890Y713463D2*
X797830D1*
X835079D2*
X860505D1*
X768388Y710963D2*
X801442D1*
X832076D2*
X863689D1*
X765733Y708463D2*
X804181D1*
X830066D2*
X865745D1*
X763734Y705963D2*
X775092D1*
X791910D2*
X806226D1*
X828776D2*
X840393D1*
X854892D2*
X867103D1*
X762217Y703463D2*
X772922D1*
X795550D2*
X807764D1*
X828069D2*
X838610D1*
X856974D2*
X868184D1*
X761131Y700963D2*
X771119D1*
X798270D2*
X808855D1*
X827732D2*
X837184D1*
X858458D2*
X869018D1*
X760422Y698463D2*
X769676D1*
X800451D2*
X809524D1*
X827597D2*
X836224D1*
X859292D2*
X869446D1*
X759798Y695963D2*
X768627D1*
X802497D2*
X809997D1*
X827627D2*
X835697D1*
X859603D2*
X869379D1*
X759066Y693463D2*
X768015D1*
X827934D2*
X836185D1*
X859588D2*
X868799D1*
X758372Y690963D2*
X767713D1*
X828623D2*
X837608D1*
X858515D2*
X867789D1*
X757916Y688463D2*
X767581D1*
X829677D2*
X841997D1*
X854954D2*
X866356D1*
X757677Y685963D2*
X767528D1*
X831120D2*
X848949D1*
X849376D2*
X864477D1*
X757568Y683463D2*
X767508D1*
X832964D2*
X862296D1*
X757523Y680963D2*
X767500D1*
X834997D2*
X859997D1*
X757506Y678463D2*
X767498D1*
X832602D2*
X862401D1*
X757500Y675963D2*
X767497D1*
X830510D2*
X864571D1*
X757508Y673463D2*
X767497D1*
X828938D2*
X843093D1*
X851996D2*
X866374D1*
X757595Y670963D2*
X767506D1*
X827775D2*
X839549D1*
X855860D2*
X867817D1*
X757913Y668463D2*
X767594D1*
X826768D2*
X836823D1*
X858781D2*
X868866D1*
X758512Y665963D2*
X767913D1*
X825951D2*
X835876D1*
X861000D2*
X869478D1*
X759162Y663463D2*
X768521D1*
X825455D2*
X835378D1*
X861679D2*
X869780D1*
X759686Y660963D2*
X769270D1*
X799997D2*
X809997D1*
X825285D2*
X835249D1*
X861979D2*
X869903D1*
X760247Y658463D2*
X770269D1*
X798883D2*
X809601D1*
X825498D2*
X835368D1*
X861155D2*
X869868D1*
X761049Y655963D2*
X771711D1*
X797428D2*
X808883D1*
X826137D2*
X836505D1*
X859874D2*
X869560D1*
X762150Y653463D2*
X776931D1*
X792557D2*
X807820D1*
X827089D2*
X840508D1*
X855034D2*
X868870D1*
X763628Y650963D2*
X785051D1*
X784716D2*
X806357D1*
X828224D2*
X846957D1*
X847207D2*
X867806D1*
X765617Y648463D2*
X804373D1*
X829606D2*
X866261D1*
X768203Y645963D2*
X801789D1*
X831542D2*
X863989D1*
X771421Y643463D2*
X798572D1*
X834285D2*
X860951D1*
X774997Y640963D2*
X794997D1*
X837497D2*
X857497D1*
X935073Y706970D2*
X940073D1*
X995073D2*
X1000073D1*
X929111Y704470D2*
X945736D1*
X990275D2*
X1005641D1*
X924467Y701970D2*
X950406D1*
X986427D2*
X1009991D1*
X920965Y699470D2*
X954019D1*
X983529D2*
X1012994D1*
X918310Y696970D2*
X956758D1*
X981403D2*
X1015004D1*
X916311Y694470D2*
X927669D1*
X944487D2*
X958802D1*
X979830D2*
X990469D1*
X1004968D2*
X1016294D1*
X914794Y691970D2*
X925499D1*
X948127D2*
X960340D1*
X978731D2*
X988687D1*
X1007050D2*
X1017001D1*
X913708Y689470D2*
X923696D1*
X950846D2*
X961431D1*
X978101D2*
X987260D1*
X1008535D2*
X1017338D1*
X912999Y686970D2*
X922253D1*
X953028D2*
X962100D1*
X977793D2*
X986301D1*
X1009369D2*
X1017483D1*
X912375Y684470D2*
X921204D1*
X955073D2*
X962573D1*
X977659D2*
X985774D1*
X1009689D2*
X1017540D1*
X911643Y681970D2*
X920592D1*
X977614D2*
X986256D1*
X1009537D2*
X1017562D1*
X910949Y679470D2*
X920290D1*
X977682D2*
X986955D1*
X1008862D2*
X1017569D1*
X910492Y676970D2*
X920158D1*
X978003D2*
X987797D1*
X1007809D2*
X1017562D1*
X910253Y674470D2*
X920104D1*
X978697D2*
X990414D1*
X1004940D2*
X1017475D1*
X910145Y671970D2*
X920084D1*
X979753D2*
X997124D1*
X998113D2*
X1017147D1*
X910100Y669470D2*
X920077D1*
X981253D2*
X1016461D1*
X910083Y666970D2*
X920075D1*
X983166D2*
X1015491D1*
X910077Y664470D2*
X920074D1*
X987633D2*
X1014369D1*
X910084Y661970D2*
X920073D1*
X994354D2*
X1013167D1*
X910171Y659470D2*
X920083D1*
X1002573D2*
X1011939D1*
X910490Y656970D2*
X920171D1*
X1001023D2*
X1010694D1*
X911088Y654470D2*
X920490D1*
X999597D2*
X1009448D1*
X911739Y651970D2*
X921098D1*
X998258D2*
X1008197D1*
X912263Y649470D2*
X921847D1*
X952573D2*
X962573D1*
X996973D2*
X1006949D1*
X912823Y646970D2*
X922845D1*
X951460D2*
X962177D1*
X995706D2*
X1005697D1*
X913626Y644470D2*
X924288D1*
X950004D2*
X961460D1*
X994452D2*
X1004449D1*
X914727Y641970D2*
X929507D1*
X945134D2*
X960396D1*
X993198D2*
X1003197D1*
X916204Y639470D2*
X937628D1*
X937292D2*
X958934D1*
X991950D2*
X1001949D1*
X918194Y636970D2*
X956950D1*
X990705D2*
X1000705D1*
X920780Y634470D2*
X954366D1*
X989522D2*
X999522D1*
X923998Y631970D2*
X951149D1*
X988481D2*
X998481D1*
X927573Y629470D2*
X947573D1*
X987573D2*
X997573D1*
X702217Y369497D2*
X707217D1*
X799717D2*
X809717D1*
X696255Y366997D2*
X712879D1*
X752217D2*
X762217D1*
X794918D2*
X814429D1*
X691610Y364497D2*
X717550D1*
X748668D2*
X762217D1*
X791080D2*
X818035D1*
X688108Y361997D2*
X721162D1*
X745868D2*
X762217D1*
X788270D2*
X820565D1*
X685453Y359497D2*
X723901D1*
X743704D2*
X762217D1*
X786148D2*
X822330D1*
X683454Y356997D2*
X694812D1*
X711630D2*
X725946D1*
X742933D2*
X762217D1*
X785314D2*
X794330D1*
X815103D2*
X823509D1*
X681937Y354497D2*
X692642D1*
X715270D2*
X727484D1*
X742498D2*
X747217D1*
X754717D2*
X762217D1*
X784595D2*
X793711D1*
X815723D2*
X824171D1*
X680851Y351997D2*
X690839D1*
X717990D2*
X728575D1*
X742217D2*
X744717D1*
X754717D2*
X762217D1*
X783817D2*
X793063D1*
X816370D2*
X824491D1*
X680142Y349497D2*
X689396D1*
X720171D2*
X729244D1*
X754717D2*
X762217D1*
X783103D2*
X792625D1*
X816808D2*
X824629D1*
X679518Y346997D2*
X688347D1*
X722217D2*
X729717D1*
X754717D2*
X762217D1*
X782640D2*
X792393D1*
X817040D2*
X824685D1*
X678786Y344497D2*
X687735D1*
X754717D2*
X762217D1*
X782398D2*
X792287D1*
X817147D2*
X824705D1*
X678092Y341997D2*
X687433D1*
X754717D2*
X762217D1*
X782288D2*
X792243D1*
X817190D2*
X824713D1*
X677636Y339497D2*
X687301D1*
X754717D2*
X762217D1*
X782243D2*
X792226D1*
X817207D2*
X824715D1*
X677397Y336997D2*
X687248D1*
X754717D2*
X762217D1*
X782226D2*
X792220D1*
X817213D2*
X824716D1*
X677288Y334497D2*
X687228D1*
X754717D2*
X762217D1*
X782220D2*
X792218D1*
X817216D2*
X824717D1*
X677243Y331997D2*
X687220D1*
X754717D2*
X762217D1*
X782218D2*
X792217D1*
X817216D2*
X824717D1*
X677226Y329497D2*
X687218D1*
X754717D2*
X762217D1*
X782217D2*
X792217D1*
X817217D2*
X824717D1*
X677220Y326997D2*
X687217D1*
X754717D2*
X762217D1*
X782217D2*
X792217D1*
X817217D2*
X824717D1*
X677228Y324497D2*
X687217D1*
X754717D2*
X762217D1*
X782217D2*
X792217D1*
X817217D2*
X824717D1*
X677315Y321997D2*
X687226D1*
X754717D2*
X762217D1*
X782217D2*
X792217D1*
X817217D2*
X824717D1*
X677633Y319497D2*
X687314D1*
X754717D2*
X762217D1*
X782226D2*
X792217D1*
X817217D2*
X824717D1*
X678232Y316997D2*
X687633D1*
X754717D2*
X762217D1*
X782314D2*
X792217D1*
X817217D2*
X824717D1*
X678882Y314497D2*
X688241D1*
X754717D2*
X762217D1*
X782633D2*
X792226D1*
X817207D2*
X824717D1*
X679406Y311997D2*
X688990D1*
X719717D2*
X729717D1*
X754717D2*
X762217D1*
X783232D2*
X792324D1*
X817109D2*
X824717D1*
X679967Y309497D2*
X689989D1*
X718603D2*
X729321D1*
X754717D2*
X762217D1*
X783882D2*
X792558D1*
X816875D2*
X824707D1*
X680769Y306997D2*
X691431D1*
X717148D2*
X728603D1*
X754717D2*
X762217D1*
X784406D2*
X793716D1*
X815718D2*
X824619D1*
X681870Y304497D2*
X696651D1*
X712277D2*
X727540D1*
X754717D2*
X762217D1*
X784967D2*
X797724D1*
X811709D2*
X824291D1*
X683348Y301997D2*
X704771D1*
X704436D2*
X726077D1*
X754717D2*
X762217D1*
X785779D2*
X804176D1*
X805257D2*
X823584D1*
X685337Y299497D2*
X724093D1*
X754717D2*
X762217D1*
X786975D2*
X822433D1*
X687923Y296997D2*
X721509D1*
X754717D2*
X762217D1*
X788822D2*
X820602D1*
X691141Y294497D2*
X718292D1*
X754717D2*
X762217D1*
X791526D2*
X817904D1*
X694717Y291997D2*
X714717D1*
X754717D2*
X762217D1*
X794717D2*
X814717D1*
X-703230Y360323D2*
X-698230D1*
X-709192Y357823D2*
X-692567D1*
X-653230D2*
X-643230D1*
X-615730D2*
X-605730D1*
X-713836Y355323D2*
X-687897D1*
X-656779D2*
X-643230D1*
X-619279D2*
X-605730D1*
X-717338Y352823D2*
X-684284D1*
X-659579D2*
X-643230D1*
X-622079D2*
X-605730D1*
X-719993Y350323D2*
X-681545D1*
X-661743D2*
X-643230D1*
X-624243D2*
X-605730D1*
X-721993Y347823D2*
X-710635D1*
X-693817D2*
X-679501D1*
X-662514D2*
X-643230D1*
X-625014D2*
X-605730D1*
X-723510Y345323D2*
X-712805D1*
X-690177D2*
X-677963D1*
X-662949D2*
X-658230D1*
X-650730D2*
X-643230D1*
X-625449D2*
X-620730D1*
X-613230D2*
X-605730D1*
X-724595Y342823D2*
X-714608D1*
X-687457D2*
X-676872D1*
X-663230D2*
X-660730D1*
X-650730D2*
X-643230D1*
X-625730D2*
X-623230D1*
X-613230D2*
X-605730D1*
X-725305Y340323D2*
X-716050D1*
X-685276D2*
X-676203D1*
X-650730D2*
X-643230D1*
X-613230D2*
X-605730D1*
X-725928Y337823D2*
X-717099D1*
X-683230D2*
X-675730D1*
X-650730D2*
X-643230D1*
X-613230D2*
X-605730D1*
X-726660Y335323D2*
X-717711D1*
X-650730D2*
X-643230D1*
X-613230D2*
X-605730D1*
X-727355Y332823D2*
X-718013D1*
X-650730D2*
X-643230D1*
X-613230D2*
X-605730D1*
X-727811Y330323D2*
X-718146D1*
X-650730D2*
X-643230D1*
X-613230D2*
X-605730D1*
X-728050Y327823D2*
X-718199D1*
X-650730D2*
X-643230D1*
X-613230D2*
X-605730D1*
X-728159Y325323D2*
X-718219D1*
X-650730D2*
X-643230D1*
X-613230D2*
X-605730D1*
X-728203Y322823D2*
X-718226D1*
X-650730D2*
X-643230D1*
X-613230D2*
X-605730D1*
X-728220Y320323D2*
X-718229D1*
X-650730D2*
X-643230D1*
X-613230D2*
X-605730D1*
X-728227Y317823D2*
X-718230D1*
X-650730D2*
X-643230D1*
X-613230D2*
X-605730D1*
X-728219Y315323D2*
X-718230D1*
X-650730D2*
X-643230D1*
X-613230D2*
X-605730D1*
X-728132Y312823D2*
X-718220D1*
X-650730D2*
X-643230D1*
X-613230D2*
X-605730D1*
X-727814Y310323D2*
X-718132D1*
X-650730D2*
X-643230D1*
X-613230D2*
X-605730D1*
X-727215Y307823D2*
X-717814D1*
X-650730D2*
X-643230D1*
X-613230D2*
X-605730D1*
X-726564Y305323D2*
X-717205D1*
X-650730D2*
X-643230D1*
X-613230D2*
X-605730D1*
X-726040Y302823D2*
X-716457D1*
X-685730D2*
X-675730D1*
X-650730D2*
X-643230D1*
X-613230D2*
X-605730D1*
X-725480Y300323D2*
X-715458D1*
X-686843D2*
X-676126D1*
X-650730D2*
X-643230D1*
X-613230D2*
X-605730D1*
X-724678Y297823D2*
X-714015D1*
X-688299D2*
X-676844D1*
X-650730D2*
X-643230D1*
X-613230D2*
X-605730D1*
X-723577Y295323D2*
X-708796D1*
X-693169D2*
X-677907D1*
X-650730D2*
X-643230D1*
X-613230D2*
X-605730D1*
X-722099Y292823D2*
X-700676D1*
X-701011D2*
X-679370D1*
X-650730D2*
X-643230D1*
X-613230D2*
X-605730D1*
X-720110Y290323D2*
X-681353D1*
X-650730D2*
X-643230D1*
X-613230D2*
X-605730D1*
X-717524Y287823D2*
X-683937D1*
X-650730D2*
X-643230D1*
X-613230D2*
X-605730D1*
X-714306Y285323D2*
X-687155D1*
X-650730D2*
X-643230D1*
X-613230D2*
X-605730D1*
X-710730Y282823D2*
X-690730D1*
X-650730D2*
X-643230D1*
X-613230D2*
X-605730D1*
X-487177Y361223D2*
X-482177D1*
X-389677D2*
X-384677D1*
X-493139Y358723D2*
X-476514D1*
X-437177D2*
X-427177D1*
X-394475D2*
X-378724D1*
X-497783Y356223D2*
X-471844D1*
X-440726D2*
X-427177D1*
X-398323D2*
X-374168D1*
X-501285Y353723D2*
X-468231D1*
X-443526D2*
X-427177D1*
X-401221D2*
X-370984D1*
X-503940Y351223D2*
X-465492D1*
X-445690D2*
X-427177D1*
X-403347D2*
X-368928D1*
X-505939Y348723D2*
X-494581D1*
X-477763D2*
X-463448D1*
X-446460D2*
X-427177D1*
X-404921D2*
X-394288D1*
X-376790D2*
X-367570D1*
X-507456Y346223D2*
X-496751D1*
X-474123D2*
X-461910D1*
X-446896D2*
X-442177D1*
X-434677D2*
X-427177D1*
X-406026D2*
X-396148D1*
X-376171D2*
X-366499D1*
X-508542Y343723D2*
X-498554D1*
X-471404D2*
X-460819D1*
X-447177D2*
X-444677D1*
X-434677D2*
X-427177D1*
X-406701D2*
X-397897D1*
X-375533D2*
X-365743D1*
X-509251Y341223D2*
X-499997D1*
X-469222D2*
X-460150D1*
X-434677D2*
X-427177D1*
X-407177D2*
X-399677D1*
X-375183D2*
X-365334D1*
X-509875Y338723D2*
X-501046D1*
X-467177D2*
X-459677D1*
X-434677D2*
X-427177D1*
X-375279D2*
X-365840D1*
X-510607Y336223D2*
X-501658D1*
X-434677D2*
X-427177D1*
X-375869D2*
X-366492D1*
X-511301Y333723D2*
X-501960D1*
X-434677D2*
X-427177D1*
X-376873D2*
X-367219D1*
X-511758Y331223D2*
X-502092D1*
X-434677D2*
X-427177D1*
X-378219D2*
X-368132D1*
X-511997Y328723D2*
X-502146D1*
X-434677D2*
X-427177D1*
X-379782D2*
X-369280D1*
X-512105Y326223D2*
X-502166D1*
X-434677D2*
X-427177D1*
X-381379D2*
X-370685D1*
X-512150Y323723D2*
X-502173D1*
X-434677D2*
X-427177D1*
X-383096D2*
X-372270D1*
X-512167Y321223D2*
X-502175D1*
X-434677D2*
X-427177D1*
X-385018D2*
X-373875D1*
X-512173Y318723D2*
X-502176D1*
X-434677D2*
X-427177D1*
X-386948D2*
X-375594D1*
X-512166Y316223D2*
X-502177D1*
X-434677D2*
X-427177D1*
X-388736D2*
X-377518D1*
X-512079Y313723D2*
X-502167D1*
X-434677D2*
X-427177D1*
X-390538D2*
X-379447D1*
X-511760Y311223D2*
X-502079D1*
X-434677D2*
X-427177D1*
X-392497D2*
X-381235D1*
X-511162Y308723D2*
X-501760D1*
X-434677D2*
X-427177D1*
X-394440D2*
X-383038D1*
X-510511Y306223D2*
X-501152D1*
X-434677D2*
X-427177D1*
X-396233D2*
X-384997D1*
X-509987Y303723D2*
X-500403D1*
X-469677D2*
X-459677D1*
X-434677D2*
X-427177D1*
X-398038D2*
X-386940D1*
X-509427Y301223D2*
X-499405D1*
X-470790D2*
X-460073D1*
X-434677D2*
X-427177D1*
X-399996D2*
X-388733D1*
X-508624Y298723D2*
X-497962D1*
X-472246D2*
X-460790D1*
X-434677D2*
X-427177D1*
X-401930D2*
X-390547D1*
X-507523Y296223D2*
X-492743D1*
X-477116D2*
X-461854D1*
X-434677D2*
X-427177D1*
X-403625D2*
X-392592D1*
X-506046Y293723D2*
X-484622D1*
X-484958D2*
X-463316D1*
X-434677D2*
X-427177D1*
X-405024D2*
X-394841D1*
X-504056Y291223D2*
X-465300D1*
X-434677D2*
X-427177D1*
X-406056D2*
X-364677D1*
X-501470Y288723D2*
X-467884D1*
X-434677D2*
X-427177D1*
X-406664D2*
X-364677D1*
X-498252Y286223D2*
X-471101D1*
X-434677D2*
X-427177D1*
X-406978D2*
X-364677D1*
X-494677Y283723D2*
X-474677D1*
X-434677D2*
X-427177D1*
X-407177D2*
X-364677D1*
X-269053Y360103D2*
X-264053D1*
X-171553D2*
X-166553D1*
X-275015Y357603D2*
X-258391D1*
X-219053D2*
X-209053D1*
X-176352D2*
X-160986D1*
X-279660Y355103D2*
X-253720D1*
X-222602D2*
X-209053D1*
X-180200D2*
X-156636D1*
X-283162Y352603D2*
X-250108D1*
X-225402D2*
X-209053D1*
X-183098D2*
X-153632D1*
X-285817Y350103D2*
X-247369D1*
X-227566D2*
X-209053D1*
X-185224D2*
X-151622D1*
X-287816Y347603D2*
X-276458D1*
X-259640D2*
X-245324D1*
X-228337D2*
X-209053D1*
X-186798D2*
X-176165D1*
X-161658D2*
X-150333D1*
X-289333Y345103D2*
X-278628D1*
X-256000D2*
X-243786D1*
X-228772D2*
X-224053D1*
X-216553D2*
X-209053D1*
X-187903D2*
X-178024D1*
X-159576D2*
X-149626D1*
X-290419Y342603D2*
X-280431D1*
X-253280D2*
X-242695D1*
X-229053D2*
X-226553D1*
X-216553D2*
X-209053D1*
X-188578D2*
X-179774D1*
X-158102D2*
X-149289D1*
X-291128Y340103D2*
X-281874D1*
X-251099D2*
X-242026D1*
X-216553D2*
X-209053D1*
X-189053D2*
X-181553D1*
X-157116D2*
X-149154D1*
X-291752Y337603D2*
X-282923D1*
X-249053D2*
X-241553D1*
X-216553D2*
X-209053D1*
X-157218D2*
X-149184D1*
X-292484Y335103D2*
X-283535D1*
X-216553D2*
X-209053D1*
X-157660D2*
X-149491D1*
X-293178Y332603D2*
X-283837D1*
X-216553D2*
X-209053D1*
X-159314D2*
X-150189D1*
X-293634Y330103D2*
X-283969D1*
X-216553D2*
X-209053D1*
X-161923D2*
X-151339D1*
X-293873Y327603D2*
X-284022D1*
X-216553D2*
X-209053D1*
X-165235D2*
X-153168D1*
X-293982Y325103D2*
X-284042D1*
X-216553D2*
X-209053D1*
X-168507D2*
X-155866D1*
X-294027Y322603D2*
X-284050D1*
X-216553D2*
X-209053D1*
X-170137D2*
X-159053D1*
X-294044Y320103D2*
X-284052D1*
X-216553D2*
X-209053D1*
X-170655D2*
X-156095D1*
X-294050Y317603D2*
X-284053D1*
X-216553D2*
X-209053D1*
X-167217D2*
X-153558D1*
X-294042Y315103D2*
X-284053D1*
X-216553D2*
X-209053D1*
X-163554D2*
X-151560D1*
X-293955Y312603D2*
X-284044D1*
X-216553D2*
X-209053D1*
X-160525D2*
X-149950D1*
X-293637Y310103D2*
X-283956D1*
X-216553D2*
X-209053D1*
X-158166D2*
X-148629D1*
X-293038Y307603D2*
X-283637D1*
X-216553D2*
X-209053D1*
X-157331D2*
X-147641D1*
X-292388Y305103D2*
X-283029D1*
X-216553D2*
X-209053D1*
X-156893D2*
X-147065D1*
X-291864Y302603D2*
X-282280D1*
X-251553D2*
X-241553D1*
X-216553D2*
X-209053D1*
X-156789D2*
X-146861D1*
X-291303Y300103D2*
X-281281D1*
X-252667D2*
X-241949D1*
X-216553D2*
X-209053D1*
X-191553D2*
X-181553D1*
X-156921D2*
X-147052D1*
X-290501Y297603D2*
X-279839D1*
X-254122D2*
X-242667D1*
X-216553D2*
X-209053D1*
X-190603D2*
X-180162D1*
X-158061D2*
X-147608D1*
X-289400Y295103D2*
X-274619D1*
X-258993D2*
X-243730D1*
X-216553D2*
X-209053D1*
X-189519D2*
X-176091D1*
X-162064D2*
X-148327D1*
X-287922Y292603D2*
X-266499D1*
X-266834D2*
X-245193D1*
X-216553D2*
X-209053D1*
X-188261D2*
X-169610D1*
X-168514D2*
X-149182D1*
X-285933Y290103D2*
X-247177D1*
X-216553D2*
X-209053D1*
X-186639D2*
X-150522D1*
X-283347Y287603D2*
X-249761D1*
X-216553D2*
X-209053D1*
X-184464D2*
X-152667D1*
X-280129Y285103D2*
X-252978D1*
X-216553D2*
X-209053D1*
X-181830D2*
X-155639D1*
X-276553Y282603D2*
X-256553D1*
X-216553D2*
X-209053D1*
X-179053D2*
X-159053D1*
X83710Y356037D2*
X88710D1*
X77748Y353537D2*
X94373D1*
X133710D2*
X143710D1*
X188710D2*
X198710D1*
X73104Y351037D2*
X99043D1*
X130161D2*
X143710D1*
X187760D2*
X197461D1*
X69602Y348537D2*
X102656D1*
X127361D2*
X143710D1*
X186686D2*
X196413D1*
X66947Y346037D2*
X105395D1*
X125197D2*
X143710D1*
X185525D2*
X195362D1*
X64947Y343537D2*
X76305D1*
X93123D2*
X107439D1*
X124426D2*
X143710D1*
X184310D2*
X194232D1*
X63430Y341037D2*
X74135D1*
X96763D2*
X108977D1*
X123991D2*
X128710D1*
X136210D2*
X143710D1*
X183077D2*
X193044D1*
X62345Y338537D2*
X72332D1*
X99483D2*
X110068D1*
X123710D2*
X126210D1*
X136210D2*
X143710D1*
X181841D2*
X191818D1*
X61635Y336037D2*
X70890D1*
X101664D2*
X110737D1*
X136210D2*
X143710D1*
X180673D2*
X190580D1*
X61012Y333537D2*
X69841D1*
X103710D2*
X111210D1*
X136210D2*
X143710D1*
X179662D2*
X189332D1*
X60280Y331037D2*
X69229D1*
X136210D2*
X143710D1*
X178773D2*
X188085D1*
X59585Y328537D2*
X68927D1*
X136210D2*
X143710D1*
X177803D2*
X186834D1*
X59129Y326037D2*
X68794D1*
X136210D2*
X143710D1*
X176709D2*
X185586D1*
X58890Y323537D2*
X68741D1*
X136210D2*
X143710D1*
X175535D2*
X184344D1*
X58781Y321037D2*
X68721D1*
X136210D2*
X143710D1*
X174315D2*
X183174D1*
X198710D2*
X206210D1*
X58737Y318537D2*
X68714D1*
X136210D2*
X143710D1*
X173079D2*
X182162D1*
X198710D2*
X206210D1*
X58720Y316037D2*
X68711D1*
X136210D2*
X143710D1*
X171832D2*
X181273D1*
X198710D2*
X206210D1*
X58713Y313537D2*
X68710D1*
X136210D2*
X143710D1*
X170585D2*
X180303D1*
X198710D2*
X206210D1*
X58721Y311037D2*
X68710D1*
X136210D2*
X143710D1*
X169334D2*
X179209D1*
X198710D2*
X206210D1*
X58808Y308537D2*
X68720D1*
X136210D2*
X143710D1*
X168086D2*
X178027D1*
X198710D2*
X206210D1*
X59126Y306037D2*
X68808D1*
X136210D2*
X143710D1*
X166844D2*
X176742D1*
X198710D2*
X206210D1*
X59725Y303537D2*
X69126D1*
X136210D2*
X143710D1*
X165684D2*
X175296D1*
X198710D2*
X206210D1*
X60376Y301037D2*
X69735D1*
X136210D2*
X143710D1*
X164760D2*
X173710D1*
X198710D2*
X206210D1*
X60900Y298537D2*
X70483D1*
X101210D2*
X111210D1*
X136210D2*
X143710D1*
X164199D2*
X211210D1*
X61460Y296037D2*
X71482D1*
X100097D2*
X110814D1*
X136210D2*
X143710D1*
X163915D2*
X211020D1*
X62262Y293537D2*
X72925D1*
X98641D2*
X110096D1*
X136210D2*
X143710D1*
X163785D2*
X210605D1*
X63363Y291037D2*
X78144D1*
X93771D2*
X109033D1*
X136210D2*
X143710D1*
X163710D2*
X209237D1*
X64841Y288537D2*
X86264D1*
X85929D2*
X107570D1*
X136210D2*
X143710D1*
X198710D2*
X207912D1*
X66830Y286037D2*
X105587D1*
X136210D2*
X143710D1*
X198710D2*
X207029D1*
X69416Y283537D2*
X103003D1*
X136210D2*
X143710D1*
X198710D2*
X206562D1*
X72634Y281037D2*
X99785D1*
X136210D2*
X143710D1*
X198710D2*
X206341D1*
X76210Y278537D2*
X96210D1*
X136210D2*
X143710D1*
X198710D2*
X206210D1*
X304537Y351840D2*
X309537D1*
X298575Y349340D2*
X315199D1*
X354537D2*
X364537D1*
X387037D2*
X424537D1*
X293930Y346840D2*
X319870D1*
X350988D2*
X364537D1*
X387037D2*
X424537D1*
X290428Y344340D2*
X323482D1*
X348188D2*
X364537D1*
X387037D2*
X424537D1*
X287773Y341840D2*
X326221D1*
X346024D2*
X364537D1*
X387037D2*
X424537D1*
X285774Y339340D2*
X297132D1*
X313950D2*
X328266D1*
X345253D2*
X364537D1*
X387037D2*
X397037D1*
X284257Y336840D2*
X294962D1*
X317590D2*
X329804D1*
X344818D2*
X349537D1*
X357037D2*
X364537D1*
X387037D2*
X397037D1*
X283171Y334340D2*
X293159D1*
X320310D2*
X330895D1*
X344537D2*
X347037D1*
X357037D2*
X364537D1*
X387037D2*
X397037D1*
X282462Y331840D2*
X291716D1*
X322491D2*
X331564D1*
X357037D2*
X364537D1*
X387037D2*
X397037D1*
X281838Y329340D2*
X290667D1*
X324537D2*
X332037D1*
X357037D2*
X364537D1*
X387037D2*
X397037D1*
X281106Y326840D2*
X290055D1*
X357037D2*
X364537D1*
X387037D2*
X397037D1*
X280412Y324340D2*
X289753D1*
X357037D2*
X364537D1*
X387037D2*
X407605D1*
X279956Y321840D2*
X289621D1*
X357037D2*
X364537D1*
X387037D2*
X415043D1*
X279717Y319340D2*
X289568D1*
X357037D2*
X364537D1*
X387037D2*
X420451D1*
X279608Y316840D2*
X289548D1*
X357037D2*
X364537D1*
X387037D2*
X422863D1*
X279563Y314340D2*
X289540D1*
X357037D2*
X364537D1*
X387037D2*
X399537D1*
X414055D2*
X424633D1*
X279546Y311840D2*
X289538D1*
X357037D2*
X364537D1*
X387037D2*
X397037D1*
X415605D2*
X425822D1*
X279540Y309340D2*
X289537D1*
X357037D2*
X364537D1*
X416761D2*
X426489D1*
X279548Y306840D2*
X289537D1*
X357037D2*
X364537D1*
X417766D2*
X426810D1*
X279635Y304340D2*
X289546D1*
X357037D2*
X364537D1*
X418582D2*
X426949D1*
X279953Y301840D2*
X289634D1*
X357037D2*
X364537D1*
X419079D2*
X427005D1*
X280552Y299340D2*
X289953D1*
X357037D2*
X364537D1*
X419249D2*
X427025D1*
X281202Y296840D2*
X290561D1*
X357037D2*
X364537D1*
X419045D2*
X427033D1*
X281726Y294340D2*
X291310D1*
X322037D2*
X332037D1*
X357037D2*
X364537D1*
X418484D2*
X427026D1*
X282287Y291840D2*
X292309D1*
X320923D2*
X331641D1*
X357037D2*
X364537D1*
X387037D2*
X394537D1*
X417715D2*
X426939D1*
X283089Y289340D2*
X293751D1*
X319468D2*
X330923D1*
X357037D2*
X364537D1*
X387142D2*
X395928D1*
X416829D2*
X426611D1*
X284190Y286840D2*
X298971D1*
X314597D2*
X329860D1*
X357037D2*
X364537D1*
X387560D2*
X399999D1*
X414201D2*
X425914D1*
X285668Y284340D2*
X307091D1*
X306756D2*
X328397D1*
X357037D2*
X364537D1*
X388575D2*
X406480D1*
X407488D2*
X424857D1*
X287657Y281840D2*
X326413D1*
X357037D2*
X364537D1*
X390231D2*
X423406D1*
X290243Y279340D2*
X323829D1*
X357037D2*
X364537D1*
X392323D2*
X421520D1*
X293461Y276840D2*
X320612D1*
X357037D2*
X364537D1*
X394640D2*
X419337D1*
X297037Y274340D2*
X317037D1*
X357037D2*
X364537D1*
X397037D2*
X417037D1*
X505733Y353073D2*
X510733D1*
X499771Y350573D2*
X516396D1*
X555733D2*
X565733D1*
X605733D2*
X615733D1*
X495127Y348073D2*
X521066D1*
X552184D2*
X565733D1*
X604783D2*
X614783D1*
X491625Y345573D2*
X524679D1*
X549384D2*
X565733D1*
X603709D2*
X613709D1*
X488970Y343073D2*
X527418D1*
X547220D2*
X565733D1*
X602548D2*
X612548D1*
X486971Y340573D2*
X498329D1*
X515147D2*
X529462D1*
X546450D2*
X565733D1*
X601334D2*
X611334D1*
X485454Y338073D2*
X496159D1*
X518787D2*
X531000D1*
X546014D2*
X550733D1*
X558233D2*
X565733D1*
X600101D2*
X610101D1*
X484368Y335573D2*
X494356D1*
X521506D2*
X532091D1*
X545733D2*
X548233D1*
X558233D2*
X565733D1*
X598854D2*
X608854D1*
X483659Y333073D2*
X492913D1*
X523688D2*
X532760D1*
X558233D2*
X565733D1*
X597608D2*
X607608D1*
X483035Y330573D2*
X491864D1*
X525733D2*
X533233D1*
X558233D2*
X565733D1*
X596357D2*
X606357D1*
X482303Y328073D2*
X491252D1*
X558233D2*
X565733D1*
X595109D2*
X605109D1*
X481609Y325573D2*
X490950D1*
X558233D2*
X565733D1*
X593857D2*
X603865D1*
X481152Y323073D2*
X490818D1*
X558233D2*
X565733D1*
X592609D2*
X602682D1*
X480913Y320573D2*
X490764D1*
X558233D2*
X565733D1*
X591367D2*
X601641D1*
X605733D2*
X610733D1*
X480805Y318073D2*
X490744D1*
X558233D2*
X565733D1*
X590197D2*
X615446D1*
X480760Y315573D2*
X490737D1*
X558233D2*
X565733D1*
X589186D2*
X619052D1*
X480743Y313073D2*
X490735D1*
X558233D2*
X565733D1*
X588306D2*
X621582D1*
X480737Y310573D2*
X490734D1*
X558233D2*
X565733D1*
X587424D2*
X623347D1*
X480744Y308073D2*
X490733D1*
X558233D2*
X565733D1*
X586658D2*
X598715D1*
X612837D2*
X624526D1*
X480831Y305573D2*
X490743D1*
X558233D2*
X565733D1*
X586171D2*
X597165D1*
X614620D2*
X625188D1*
X481150Y303073D2*
X490831D1*
X558233D2*
X565733D1*
X585920D2*
X596009D1*
X616056D2*
X625507D1*
X481748Y300573D2*
X491150D1*
X558233D2*
X565733D1*
X585807D2*
X595014D1*
X617103D2*
X625646D1*
X482399Y298073D2*
X491758D1*
X558233D2*
X565733D1*
X585761D2*
X594285D1*
X617705D2*
X625701D1*
X482923Y295573D2*
X492507D1*
X523233D2*
X533233D1*
X558233D2*
X565733D1*
X585753D2*
X593889D1*
X617909D2*
X625722D1*
X483483Y293073D2*
X493505D1*
X522120D2*
X532837D1*
X558233D2*
X565733D1*
X585834D2*
X594540D1*
X617840D2*
X625720D1*
X484286Y290573D2*
X494948D1*
X520664D2*
X532120D1*
X558233D2*
X565733D1*
X586160D2*
X595537D1*
X616717D2*
X625625D1*
X485387Y288073D2*
X500167D1*
X515794D2*
X531056D1*
X558233D2*
X565733D1*
X586856D2*
X598380D1*
X612718D2*
X625209D1*
X486864Y285573D2*
X508288D1*
X507952D2*
X529594D1*
X558233D2*
X565733D1*
X587913D2*
X605199D1*
X606271D2*
X624195D1*
X488854Y283073D2*
X527610D1*
X558233D2*
X565733D1*
X589364D2*
X622539D1*
X491440Y280573D2*
X525026D1*
X558233D2*
X565733D1*
X591250D2*
X620447D1*
X494658Y278073D2*
X521809D1*
X558233D2*
X565733D1*
X593433D2*
X618130D1*
X498233Y275573D2*
X518233D1*
X558233D2*
X565733D1*
X595733D2*
X615733D1*
X-1000697Y594280D2*
X-995697D1*
X-1006659Y591780D2*
X-990034D1*
X-950697D2*
X-940697D1*
X-920697D2*
X-880697D1*
X-1011303Y589280D2*
X-985364D1*
X-954246D2*
X-940697D1*
X-920697D2*
X-880706D1*
X-1014805Y586780D2*
X-981751D1*
X-957046D2*
X-940697D1*
X-920697D2*
X-880794D1*
X-1017460Y584280D2*
X-979012D1*
X-959210D2*
X-940697D1*
X-920697D2*
X-881113D1*
X-1019459Y581780D2*
X-1008101D1*
X-991283D2*
X-976968D1*
X-959980D2*
X-940697D1*
X-920697D2*
X-913197D1*
X-890205D2*
X-881721D1*
X-1020976Y579280D2*
X-1010271D1*
X-987643D2*
X-975430D1*
X-960416D2*
X-955697D1*
X-948197D2*
X-940697D1*
X-920697D2*
X-913197D1*
X-891677D2*
X-882450D1*
X-1022062Y576780D2*
X-1012074D1*
X-984924D2*
X-974339D1*
X-960697D2*
X-958197D1*
X-948197D2*
X-940697D1*
X-920697D2*
X-913197D1*
X-892602D2*
X-883205D1*
X-1022771Y574280D2*
X-1013517D1*
X-982742D2*
X-973670D1*
X-948197D2*
X-940697D1*
X-920697D2*
X-913197D1*
X-893327D2*
X-884045D1*
X-1023395Y571780D2*
X-1014566D1*
X-980697D2*
X-973197D1*
X-948197D2*
X-940697D1*
X-894111D2*
X-884880D1*
X-1024127Y569280D2*
X-1015178D1*
X-948197D2*
X-940697D1*
X-894910D2*
X-885679D1*
X-1024821Y566780D2*
X-1015480D1*
X-948197D2*
X-940697D1*
X-895691D2*
X-886526D1*
X-1025278Y564280D2*
X-1015612D1*
X-948197D2*
X-940697D1*
X-896540D2*
X-887289D1*
X-1025517Y561780D2*
X-1015666D1*
X-948197D2*
X-940697D1*
X-897379D2*
X-887859D1*
X-1025625Y559280D2*
X-1015686D1*
X-948197D2*
X-940697D1*
X-898178D2*
X-888427D1*
X-1025670Y556780D2*
X-1015693D1*
X-948197D2*
X-940697D1*
X-899026D2*
X-889148D1*
X-1025687Y554280D2*
X-1015695D1*
X-948197D2*
X-940697D1*
X-899789D2*
X-889923D1*
X-1025693Y551780D2*
X-1015696D1*
X-948197D2*
X-940697D1*
X-900359D2*
X-890695D1*
X-1025686Y549280D2*
X-1015697D1*
X-948197D2*
X-940697D1*
X-900927D2*
X-891532D1*
X-1025599Y546780D2*
X-1015687D1*
X-948197D2*
X-940697D1*
X-901648D2*
X-892291D1*
X-1025280Y544280D2*
X-1015599D1*
X-948197D2*
X-940697D1*
X-902423D2*
X-892860D1*
X-1024682Y541780D2*
X-1015280D1*
X-948197D2*
X-940697D1*
X-903195D2*
X-893427D1*
X-1024031Y539280D2*
X-1014672D1*
X-948197D2*
X-940697D1*
X-904032D2*
X-894148D1*
X-1023507Y536780D2*
X-1013923D1*
X-983197D2*
X-973197D1*
X-948197D2*
X-940697D1*
X-904791D2*
X-894923D1*
X-1022947Y534280D2*
X-1012925D1*
X-984310D2*
X-973593D1*
X-948197D2*
X-940697D1*
X-905360D2*
X-895695D1*
X-1022144Y531780D2*
X-1011482D1*
X-985766D2*
X-974310D1*
X-948197D2*
X-940697D1*
X-905927D2*
X-896542D1*
X-1021043Y529280D2*
X-1006263D1*
X-990636D2*
X-975374D1*
X-948197D2*
X-940697D1*
X-906648D2*
X-897379D1*
X-1019566Y526780D2*
X-998142D1*
X-998478D2*
X-976836D1*
X-948197D2*
X-940697D1*
X-907423D2*
X-898178D1*
X-1017576Y524280D2*
X-978820D1*
X-948197D2*
X-940697D1*
X-908197D2*
X-899026D1*
X-1014990Y521780D2*
X-981404D1*
X-948197D2*
X-940697D1*
X-909056D2*
X-899786D1*
X-1011772Y519280D2*
X-984621D1*
X-948197D2*
X-940697D1*
X-909912D2*
X-900308D1*
X-1008197Y516780D2*
X-988197D1*
X-948197D2*
X-940697D1*
X-910697D2*
X-900697D1*
X-32707Y1576817D2*
X-25207D1*
X9793D2*
X19793D1*
X44793D2*
X54793D1*
X-32707Y1574317D2*
X-25207D1*
X9793D2*
X19793D1*
X41244D2*
X54793D1*
X-32707Y1571817D2*
X-25207D1*
X9793D2*
X19793D1*
X38444D2*
X54793D1*
X-32707Y1569317D2*
X-25207D1*
X9793D2*
X19793D1*
X36280D2*
X54793D1*
X-32707Y1566817D2*
X-25207D1*
X9793D2*
X19793D1*
X35510D2*
X54793D1*
X-32707Y1564317D2*
X-25207D1*
X9793D2*
X19793D1*
X35074D2*
X39793D1*
X47293D2*
X54793D1*
X-32707Y1561817D2*
X-25207D1*
X9793D2*
X19793D1*
X34793D2*
X37293D1*
X47293D2*
X54793D1*
X-32707Y1559317D2*
X-25207D1*
X9793D2*
X19793D1*
X47293D2*
X54793D1*
X-32707Y1556817D2*
X-25207D1*
X9793D2*
X19793D1*
X47293D2*
X54793D1*
X-32707Y1554317D2*
X-25207D1*
X9793D2*
X19793D1*
X47293D2*
X54793D1*
X-32707Y1551817D2*
X-25207D1*
X9793D2*
X19793D1*
X47293D2*
X54793D1*
X-32707Y1549317D2*
X-25207D1*
X9793D2*
X19793D1*
X47293D2*
X54793D1*
X-32707Y1546817D2*
X-25207D1*
X9793D2*
X19793D1*
X47293D2*
X54793D1*
X-32707Y1544317D2*
X-25207D1*
X9793D2*
X19793D1*
X47293D2*
X54793D1*
X-32707Y1541817D2*
X-25207D1*
X9793D2*
X19793D1*
X47293D2*
X54793D1*
X-32707Y1539317D2*
X-25207D1*
X9793D2*
X19793D1*
X47293D2*
X54793D1*
X-32707Y1536817D2*
X-25207D1*
X9793D2*
X19793D1*
X47293D2*
X54793D1*
X-32707Y1534317D2*
X-25207D1*
X9793D2*
X19793D1*
X47293D2*
X54793D1*
X-32707Y1531817D2*
X-25197D1*
X9793D2*
X19793D1*
X47293D2*
X54793D1*
X-32707Y1529317D2*
X-25109D1*
X9793D2*
X19784D1*
X47293D2*
X54793D1*
X-32707Y1526817D2*
X-24790D1*
X9784D2*
X19696D1*
X47293D2*
X54793D1*
X-32697Y1524317D2*
X-24182D1*
X9686D2*
X19377D1*
X47293D2*
X54793D1*
X-32609Y1521817D2*
X-23433D1*
X9260D2*
X18769D1*
X47293D2*
X54793D1*
X-32281Y1519317D2*
X-22435D1*
X8451D2*
X18040D1*
X47293D2*
X54793D1*
X-31584Y1516817D2*
X-20992D1*
X6233D2*
X17275D1*
X47293D2*
X54793D1*
X-30527Y1514317D2*
X-15773D1*
X692D2*
X16347D1*
X47293D2*
X54793D1*
X-29066Y1511817D2*
X-7652D1*
X-7625D2*
X15174D1*
X47293D2*
X54793D1*
X-27083Y1509317D2*
X13584D1*
X47293D2*
X54793D1*
X-24499Y1506817D2*
X11295D1*
X47293D2*
X54793D1*
X-21282Y1504317D2*
X8251D1*
X47293D2*
X54793D1*
X-17707Y1501817D2*
X4793D1*
X47293D2*
X54793D1*
X-9570Y1152870D2*
X-4570D1*
X-97070Y1150370D2*
X-89570D1*
X-54570D2*
X-44570D1*
X-14368D2*
X1382D1*
X-97070Y1147870D2*
X-89570D1*
X-54570D2*
X-44570D1*
X-18216D2*
X5939D1*
X-97070Y1145370D2*
X-89570D1*
X-54570D2*
X-44570D1*
X-21115D2*
X9122D1*
X-97070Y1142870D2*
X-89570D1*
X-54570D2*
X-44570D1*
X-23241D2*
X11178D1*
X-97070Y1140370D2*
X-89570D1*
X-54570D2*
X-44570D1*
X-24814D2*
X-14182D1*
X3316D2*
X12537D1*
X-97070Y1137870D2*
X-89570D1*
X-54570D2*
X-44570D1*
X-25920D2*
X-16041D1*
X3936D2*
X13608D1*
X-97070Y1135370D2*
X-89570D1*
X-54570D2*
X-44570D1*
X-26594D2*
X-17791D1*
X4574D2*
X14364D1*
X-97070Y1132870D2*
X-89570D1*
X-54570D2*
X-44570D1*
X-27070D2*
X-19570D1*
X4924D2*
X14772D1*
X-97070Y1130370D2*
X-89570D1*
X-54570D2*
X-44570D1*
X4828D2*
X14266D1*
X-97070Y1127870D2*
X-89570D1*
X-54570D2*
X-44570D1*
X4237D2*
X13614D1*
X-97070Y1125370D2*
X-89570D1*
X-54570D2*
X-44570D1*
X3234D2*
X12887D1*
X-97070Y1122870D2*
X-89570D1*
X-54570D2*
X-44570D1*
X1888D2*
X11975D1*
X-97070Y1120370D2*
X-89570D1*
X-54570D2*
X-44570D1*
X324D2*
X10827D1*
X-97070Y1117870D2*
X-89570D1*
X-54570D2*
X-44570D1*
X-1273D2*
X9422D1*
X-97070Y1115370D2*
X-89570D1*
X-54570D2*
X-44570D1*
X-2989D2*
X7837D1*
X-97070Y1112870D2*
X-89570D1*
X-54570D2*
X-44570D1*
X-4912D2*
X6232D1*
X-97070Y1110370D2*
X-89570D1*
X-54570D2*
X-44570D1*
X-6841D2*
X4512D1*
X-97070Y1107870D2*
X-89570D1*
X-54570D2*
X-44570D1*
X-8629D2*
X2589D1*
X-97070Y1105370D2*
X-89560D1*
X-54570D2*
X-44570D1*
X-10432D2*
X659D1*
X-97070Y1102870D2*
X-89472D1*
X-54570D2*
X-44580D1*
X-12390D2*
X-1129D1*
X-97070Y1100370D2*
X-89154D1*
X-54580D2*
X-44668D1*
X-14333D2*
X-2932D1*
X-97060Y1097870D2*
X-88545D1*
X-54677D2*
X-44986D1*
X-16126D2*
X-4890D1*
X-96972Y1095370D2*
X-87797D1*
X-55103D2*
X-45595D1*
X-17931D2*
X-6833D1*
X-96644Y1092870D2*
X-86798D1*
X-55913D2*
X-46324D1*
X-19890D2*
X-8626D1*
X-95948Y1090370D2*
X-85355D1*
X-58131D2*
X-47088D1*
X-21823D2*
X-10441D1*
X-94890Y1087870D2*
X-80136D1*
X-63671D2*
X-48016D1*
X-23519D2*
X-12486D1*
X-93430Y1085370D2*
X-72016D1*
X-71989D2*
X-49189D1*
X-24917D2*
X-14734D1*
X-91447Y1082870D2*
X-50779D1*
X-25949D2*
X15430D1*
X-88863Y1080370D2*
X-53068D1*
X-26557D2*
X15430D1*
X-85645Y1077870D2*
X-56112D1*
X-26872D2*
X15430D1*
X-82070Y1075370D2*
X-59570D1*
X-27070D2*
X15430D1*
X1021183Y-753520D2*
D13*
X1054517D1*
X1094517D2*
X1107850D1*
X1161183D2*
X1174517D1*
X1217850D2*
X1254517D1*
X1013646Y-756853D2*
X1059133D1*
X1094517D2*
X1107850D1*
X1161183D2*
X1174517D1*
X1211695D2*
X1261316D1*
X1007523Y-760187D2*
X1062551D1*
X1094517D2*
X1107850D1*
X1161183D2*
X1174517D1*
X1207137D2*
X1266950D1*
X1003027Y-763520D2*
X1021851D1*
X1051183D2*
X1063595D1*
X1094517D2*
X1107863D1*
X1161183D2*
X1174517D1*
X1205746D2*
X1221838D1*
X1253735D2*
X1271199D1*
X999866Y-766853D2*
X1016699D1*
X1051183D2*
X1064137D1*
X1094517D2*
X1107993D1*
X1161183D2*
X1174517D1*
X1205023D2*
X1219889D1*
X1258577D2*
X1274253D1*
X997608Y-770187D2*
X1012791D1*
X1051183D2*
X1064372D1*
X1094517D2*
X1108548D1*
X1161183D2*
X1174517D1*
X1204709D2*
X1218773D1*
X1262098D2*
X1276560D1*
X995966Y-773520D2*
X1010153D1*
X1051183D2*
X1064465D1*
X1094517D2*
X1109889D1*
X1161183D2*
X1174517D1*
X1204586D2*
X1218231D1*
X1264563D2*
X1278395D1*
X994678Y-776853D2*
X1008368D1*
X1051183D2*
X1064499D1*
X1094517D2*
X1111979D1*
X1161183D2*
X1174517D1*
X1204541D2*
X1217997D1*
X1266208D2*
X1279852D1*
X993461Y-780187D2*
X1006933D1*
X1051183D2*
X1064511D1*
X1094517D2*
X1114344D1*
X1161183D2*
X1174517D1*
X1204525D2*
X1217904D1*
X1267235D2*
X1281065D1*
X992424Y-783520D2*
X1005808D1*
X1051183D2*
X1064515D1*
X1094517D2*
X1116644D1*
X1161183D2*
X1174517D1*
X1204519D2*
X1217869D1*
X1268097D2*
X1282255D1*
X991770Y-786853D2*
X1005121D1*
X1051183D2*
X1064516D1*
X1094517D2*
X1119029D1*
X1161183D2*
X1174517D1*
X1204517D2*
X1217856D1*
X1269085D2*
X1283281D1*
X991433Y-790187D2*
X1004773D1*
X1051183D2*
X1064516D1*
X1094517D2*
X1121746D1*
X1161183D2*
X1174517D1*
X1204517D2*
X1217852D1*
X1270014D2*
X1283932D1*
X991282Y-793520D2*
X1004617D1*
X1051183D2*
X1064517D1*
X1094517D2*
X1124758D1*
X1161183D2*
X1174517D1*
X1204517D2*
X1217851D1*
X1270624D2*
X1284267D1*
X991220Y-796853D2*
X1004554D1*
X1051183D2*
X1064517D1*
X1094517D2*
X1107850D1*
X1114517D2*
X1127946D1*
X1161183D2*
X1174517D1*
X1204517D2*
X1237850D1*
X1270943D2*
X1284418D1*
X991196Y-800187D2*
X1004530D1*
X1051183D2*
X1064517D1*
X1094517D2*
X1107850D1*
X1117850D2*
X1131219D1*
X1161183D2*
X1174517D1*
X1204517D2*
X1237850D1*
X1271075D2*
X1284480D1*
X991188Y-803520D2*
X1004521D1*
X1051183D2*
X1064517D1*
X1094517D2*
X1107850D1*
X1121183D2*
X1134529D1*
X1161183D2*
X1174517D1*
X1204517D2*
X1237850D1*
X1271018D2*
X1284491D1*
X991185Y-806853D2*
X1004518D1*
X1051183D2*
X1064517D1*
X1094517D2*
X1107850D1*
X1124517D2*
X1137854D1*
X1161183D2*
X1174517D1*
X1270616D2*
X1284382D1*
X991197Y-810187D2*
X1004530D1*
X1051183D2*
X1064517D1*
X1094517D2*
X1107850D1*
X1127850D2*
X1141185D1*
X1161183D2*
X1174517D1*
X1269826D2*
X1283960D1*
X991314Y-813520D2*
X1004647D1*
X1051183D2*
X1064517D1*
X1094517D2*
X1107850D1*
X1131183D2*
X1144530D1*
X1161170D2*
X1174517D1*
X1268961D2*
X1283150D1*
X991751Y-816853D2*
X1005085D1*
X1051183D2*
X1064517D1*
X1094517D2*
X1107850D1*
X1134504D2*
X1147990D1*
X1161043D2*
X1174517D1*
X1268250D2*
X1282178D1*
X992667Y-820187D2*
X1006013D1*
X1051183D2*
X1064517D1*
X1094517D2*
X1107850D1*
X1137720D2*
X1151838D1*
X1160528D2*
X1174517D1*
X1267386D2*
X1281159D1*
X993959Y-823520D2*
X1007436D1*
X1051183D2*
X1064517D1*
X1094517D2*
X1107850D1*
X1140628D2*
X1156311D1*
X1159389D2*
X1174517D1*
X1265879D2*
X1279922D1*
X995469Y-826853D2*
X1009605D1*
X1051183D2*
X1064517D1*
X1094517D2*
X1107850D1*
X1143163D2*
X1174517D1*
X1263352D2*
X1278371D1*
X997201Y-830187D2*
X1012586D1*
X1051183D2*
X1064517D1*
X1094517D2*
X1107850D1*
X1145642D2*
X1174517D1*
X1259956D2*
X1276377D1*
X999407Y-833520D2*
X1021808D1*
X1051183D2*
X1064517D1*
X1094517D2*
X1107850D1*
X1148394D2*
X1174517D1*
X1249427D2*
X1273812D1*
X1002537Y-836853D2*
X1036414D1*
X1051183D2*
X1064517D1*
X1094517D2*
X1107850D1*
X1151418D2*
X1174517D1*
X1207850D2*
X1214517D1*
X1232428D2*
X1270619D1*
X1006831Y-840187D2*
X1064517D1*
X1094517D2*
X1107850D1*
X1154610D2*
X1174517D1*
X1208709D2*
X1266429D1*
X1012122Y-843520D2*
X1064517D1*
X1094517D2*
X1107850D1*
X1157883D2*
X1174517D1*
X1211323D2*
X1260889D1*
X1017850Y-846853D2*
X1064517D1*
X1094517D2*
X1107850D1*
X1161183D2*
X1174517D1*
X1214517D2*
X1254517D1*
X-1225483Y-751780D2*
X-1192150D1*
X-1125483D2*
X-1092150D1*
X-1028817D2*
X-1012150D1*
X-1233021Y-755113D2*
X-1187534D1*
X-1133021D2*
X-1087534D1*
X-1030083D2*
X-1011622D1*
X-1239144Y-758447D2*
X-1184115D1*
X-1139144D2*
X-1084115D1*
X-1031516D2*
X-1010678D1*
X-1243640Y-761780D2*
X-1224815D1*
X-1195483D2*
X-1183072D1*
X-1143640D2*
X-1124815D1*
X-1095483D2*
X-1083072D1*
X-1033064D2*
X-1009390D1*
X-1246801Y-765113D2*
X-1229968D1*
X-1195483D2*
X-1182530D1*
X-1146801D2*
X-1129968D1*
X-1095483D2*
X-1082530D1*
X-1034683D2*
X-1007995D1*
X-1249059Y-768447D2*
X-1233875D1*
X-1195483D2*
X-1182294D1*
X-1149059D2*
X-1133875D1*
X-1095483D2*
X-1082294D1*
X-1036327D2*
X-1026011D1*
X-1018690D2*
X-1006714D1*
X-1250701Y-771780D2*
X-1236514D1*
X-1195483D2*
X-1182202D1*
X-1150701D2*
X-1136514D1*
X-1095483D2*
X-1082202D1*
X-1037989D2*
X-1026955D1*
X-1018249D2*
X-1005566D1*
X-1251989Y-775113D2*
X-1238298D1*
X-1195483D2*
X-1182168D1*
X-1151989D2*
X-1138298D1*
X-1095483D2*
X-1082168D1*
X-1039650D2*
X-1028256D1*
X-1017333D2*
X-1004387D1*
X-1253206Y-778447D2*
X-1239734D1*
X-1195483D2*
X-1182156D1*
X-1153206D2*
X-1139734D1*
X-1095483D2*
X-1082156D1*
X-1041318D2*
X-1029755D1*
X-1016054D2*
X-1003251D1*
X-1254243Y-781780D2*
X-1240858D1*
X-1195483D2*
X-1182152D1*
X-1154243D2*
X-1140858D1*
X-1095483D2*
X-1082152D1*
X-1042982D2*
X-1031345D1*
X-1014661D2*
X-1002165D1*
X-1254897Y-785113D2*
X-1241546D1*
X-1195483D2*
X-1182151D1*
X-1154897D2*
X-1141546D1*
X-1095483D2*
X-1082151D1*
X-1044638D2*
X-1032879D1*
X-1013380D2*
X-1000915D1*
X-1255234Y-788447D2*
X-1241894D1*
X-1195483D2*
X-1182150D1*
X-1155234D2*
X-1141894D1*
X-1095483D2*
X-1082150D1*
X-1046198D2*
X-1034218D1*
X-1012232D2*
X-999485D1*
X-1255385Y-791780D2*
X-1242049D1*
X-1195483D2*
X-1182150D1*
X-1155385D2*
X-1142049D1*
X-1095483D2*
X-1082150D1*
X-1047547D2*
X-1035401D1*
X-1011054D2*
X-998031D1*
X-1255447Y-795113D2*
X-1242113D1*
X-1195483D2*
X-1182150D1*
X-1155447D2*
X-1142113D1*
X-1095483D2*
X-1082150D1*
X-1048720D2*
X-1036693D1*
X-1009918D2*
X-996726D1*
X-1255470Y-798447D2*
X-1242137D1*
X-1195483D2*
X-1182150D1*
X-1155470D2*
X-1142137D1*
X-1095483D2*
X-1082150D1*
X-1049908D2*
X-1038139D1*
X-1008845D2*
X-995570D1*
X-1255479Y-801780D2*
X-1242145D1*
X-1195483D2*
X-1182150D1*
X-1155479D2*
X-1142145D1*
X-1095483D2*
X-1082150D1*
X-1051047D2*
X-1039599D1*
X-1007699D2*
X-994388D1*
X-1255482Y-805113D2*
X-1242148D1*
X-1195483D2*
X-1182150D1*
X-1155482D2*
X-1142148D1*
X-1095483D2*
X-1082150D1*
X-1052121D2*
X-1040906D1*
X-1006577D2*
X-993252D1*
X-1255470Y-808447D2*
X-1242136D1*
X-1195483D2*
X-1182150D1*
X-1155470D2*
X-1142136D1*
X-1095483D2*
X-1082150D1*
X-1053267D2*
X-1042063D1*
X-1005496D2*
X-992165D1*
X-1255353Y-811780D2*
X-1242020D1*
X-1195483D2*
X-1182150D1*
X-1155353D2*
X-1142020D1*
X-1095483D2*
X-1082150D1*
X-1054390D2*
X-1043232D1*
X-1004248D2*
X-990915D1*
X-1254915Y-815113D2*
X-1241582D1*
X-1195483D2*
X-1182150D1*
X-1154915D2*
X-1141582D1*
X-1095483D2*
X-1082150D1*
X-1055458D2*
X-1044265D1*
X-1002818D2*
X-989485D1*
X-1254000Y-818447D2*
X-1240653D1*
X-1195483D2*
X-1182150D1*
X-1154000D2*
X-1140653D1*
X-1095483D2*
X-1082150D1*
X-1056589D2*
X-1045030D1*
X-1001364D2*
X-988031D1*
X-1252707Y-821780D2*
X-1239231D1*
X-1195483D2*
X-1182150D1*
X-1152707D2*
X-1139231D1*
X-1095483D2*
X-1082150D1*
X-1057606D2*
X-1045789D1*
X-1000060D2*
X-986726D1*
X-1251197Y-825113D2*
X-1237062D1*
X-1195483D2*
X-1182150D1*
X-1151197D2*
X-1137062D1*
X-1095483D2*
X-1082150D1*
X-1058366D2*
X-1046738D1*
X-998904D2*
X-985570D1*
X-1249466Y-828447D2*
X-1234081D1*
X-1195483D2*
X-1182150D1*
X-1149466D2*
X-1134081D1*
X-1095483D2*
X-1082150D1*
X-1059124D2*
X-1047668D1*
X-997722D2*
X-984388D1*
X-1247259Y-831780D2*
X-1224859D1*
X-1195483D2*
X-1182150D1*
X-1147259D2*
X-1124859D1*
X-1095483D2*
X-1082150D1*
X-1060072D2*
X-1048390D1*
X-996585D2*
X-983252D1*
X-1244130Y-835113D2*
X-1210253D1*
X-1195483D2*
X-1182150D1*
X-1144130D2*
X-1110253D1*
X-1095483D2*
X-1082150D1*
X-1060988D2*
X-1049135D1*
X-995509D2*
X-982176D1*
X-1239836Y-838447D2*
X-1182150D1*
X-1139836D2*
X-1082150D1*
X-1061596D2*
X-1050106D1*
X-994348D2*
X-981014D1*
X-1234545Y-841780D2*
X-1182150D1*
X-1134545D2*
X-1082150D1*
X-1061931D2*
X-1051159D1*
X-993199D2*
X-979866D1*
X-1228817Y-845113D2*
X-1182150D1*
X-1128817D2*
X-1082150D1*
X-1062150D2*
X-1052150D1*
X-992150D2*
X-978817D1*
X-229968Y1773755D2*
D12*
X-199488D1*
X-111858D2*
X-73758D1*
X-28038D2*
X10062D1*
X135792D2*
X154842D1*
X238662D2*
X253902D1*
X-235522Y1769945D2*
X-192762D1*
X-119185D2*
X-68481D1*
X-31556D2*
X18677D1*
X135792D2*
X154842D1*
X238662D2*
X253902D1*
X-240292Y1766135D2*
X-187227D1*
X-125169D2*
X-64572D1*
X-34162D2*
X25676D1*
X135792D2*
X154842D1*
X238662D2*
X253902D1*
X-244155Y1762325D2*
X-183188D1*
X-129938D2*
X-63287D1*
X-35019D2*
X30815D1*
X135792D2*
X154842D1*
X238662D2*
X253902D1*
X-247150Y1758515D2*
X-224806D1*
X-199633D2*
X-180237D1*
X-133604D2*
X-107284D1*
X-69948D2*
X-62328D1*
X-35658D2*
X-28038D1*
X9298D2*
X34443D1*
X135792D2*
X154842D1*
X238662D2*
X253902D1*
X-249463Y1754705D2*
X-229750D1*
X-196326D2*
X-177885D1*
X-136476D2*
X-113174D1*
X15188D2*
X37143D1*
X135792D2*
X154842D1*
X238662D2*
X253902D1*
X-251233Y1750895D2*
X-233230D1*
X-193578D2*
X-175933D1*
X-137530D2*
X-117625D1*
X19654D2*
X39371D1*
X135792D2*
X154842D1*
X238662D2*
X253902D1*
X-252665Y1747085D2*
X-235579D1*
X-191380D2*
X-174441D1*
X-138103D2*
X-121008D1*
X22670D2*
X41270D1*
X135792D2*
X154842D1*
X238662D2*
X253902D1*
X-254042Y1743275D2*
X-237264D1*
X-189781D2*
X-173427D1*
X-138361D2*
X-122171D1*
X24709D2*
X42726D1*
X135792D2*
X154842D1*
X238662D2*
X253902D1*
X-255223Y1739465D2*
X-238743D1*
X-188833D2*
X-172502D1*
X-138466D2*
X-122672D1*
X26350D2*
X43613D1*
X135792D2*
X154842D1*
X238662D2*
X253902D1*
X-255969Y1735655D2*
X-239962D1*
X-188239D2*
X-171395D1*
X-138491D2*
X-122427D1*
X27636D2*
X44184D1*
X135792D2*
X154842D1*
X238662D2*
X253902D1*
X-256353Y1731845D2*
X-240722D1*
X-187552D2*
X-170340D1*
X-138372D2*
X-121606D1*
X28421D2*
X44862D1*
X113548D2*
X154842D1*
X238662D2*
X253902D1*
X-256525Y1728035D2*
X-241110D1*
X-186558D2*
X-169646D1*
X-137876D2*
X-118854D1*
X28819D2*
X45853D1*
X97637D2*
X154842D1*
X238662D2*
X253902D1*
X-256596Y1724225D2*
X-241285D1*
X-185551D2*
X-169282D1*
X-136802D2*
X-110388D1*
X28997D2*
X46860D1*
X87533D2*
X154842D1*
X238662D2*
X253902D1*
X-256623Y1720415D2*
X-241356D1*
X-184875D2*
X-169117D1*
X-135042D2*
X-97286D1*
X29069D2*
X47535D1*
X80373D2*
X154842D1*
X192942D2*
X253902D1*
X-256633Y1716605D2*
X-241383D1*
X-184533D2*
X-169049D1*
X-132715D2*
X-81378D1*
X29097D2*
X47877D1*
X77064D2*
X102396D1*
X135792D2*
X154842D1*
X192942D2*
X253902D1*
X-256636Y1712795D2*
X-241393D1*
X-184504D2*
X-169022D1*
X-127590D2*
X-81538D1*
X29107D2*
X47906D1*
X74555D2*
X96861D1*
X135792D2*
X154842D1*
X192942D2*
X253902D1*
X-256637Y1708985D2*
X-241396D1*
X-184923D2*
X-169028D1*
X-120441D2*
X-82175D1*
X29110D2*
X47487D1*
X72824D2*
X92837D1*
X135792D2*
X154842D1*
X192942D2*
X253902D1*
X-256638Y1705175D2*
X-241383D1*
X-185809D2*
X-169158D1*
X-111051D2*
X-83723D1*
X29097D2*
X46601D1*
X71840D2*
X90020D1*
X135792D2*
X154842D1*
X238662D2*
X253902D1*
X-256623Y1701365D2*
X-241249D1*
X-186777D2*
X-169643D1*
X-100428D2*
X-86247D1*
X28963D2*
X45633D1*
X71361D2*
X88153D1*
X135792D2*
X154842D1*
X238662D2*
X253902D1*
X-256489Y1697555D2*
X-240764D1*
X-187453D2*
X-170555D1*
X-104238D2*
X-89435D1*
X28478D2*
X44957D1*
X71154D2*
X87114D1*
X135792D2*
X154842D1*
X238662D2*
X253902D1*
X-256004Y1693745D2*
X-239836D1*
X-187939D2*
X-171547D1*
X-108048D2*
X-92976D1*
X27550D2*
X44471D1*
X71070D2*
X86629D1*
X135792D2*
X154842D1*
X238662D2*
X253902D1*
X-255076Y1689935D2*
X-238725D1*
X-188601D2*
X-172345D1*
X-111858D2*
X-96680D1*
X26425D2*
X43809D1*
X71054D2*
X86562D1*
X135792D2*
X154842D1*
X238662D2*
X253902D1*
X-253965Y1686125D2*
X-237546D1*
X-189729D2*
X-173199D1*
X-115668D2*
X-100450D1*
X25111D2*
X42696D1*
X71177D2*
X87110D1*
X135792D2*
X154842D1*
X238662D2*
X253902D1*
X-252801Y1682315D2*
X-235893D1*
X-191455D2*
X-174407D1*
X-119478D2*
X-104245D1*
X23448D2*
X41193D1*
X71673D2*
X88258D1*
X135792D2*
X154842D1*
X238662D2*
X253902D1*
X-251386Y1678505D2*
X-233636D1*
X-193705D2*
X-175951D1*
X-123273D2*
X-108050D1*
X19705D2*
X39458D1*
X72733D2*
X91409D1*
X135792D2*
X154842D1*
X238662D2*
X253902D1*
X-249613Y1674695D2*
X-225538D1*
X-200746D2*
X-177717D1*
X-126934D2*
X-111859D1*
X8567D2*
X37475D1*
X74344D2*
X100767D1*
X135792D2*
X154842D1*
X238662D2*
X253902D1*
X-247320Y1670885D2*
X-212259D1*
X-212046D2*
X-179840D1*
X-130110D2*
X-115668D1*
X-31848D2*
X-28038D1*
X-9413D2*
X34938D1*
X76585D2*
X116239D1*
X135792D2*
X154842D1*
X238662D2*
X253902D1*
X-244272Y1667075D2*
X-182850D1*
X-132373D2*
X-62328D1*
X-33716D2*
X31215D1*
X79752D2*
X154842D1*
X185322D2*
X253902D1*
X-240325Y1663265D2*
X-187325D1*
X-133663D2*
X-62328D1*
X-33898D2*
X25718D1*
X84279D2*
X154842D1*
X185322D2*
X253902D1*
X-235418Y1659455D2*
X-193115D1*
X-134315D2*
X-62328D1*
X-31357D2*
X18368D1*
X90485D2*
X154842D1*
X185322D2*
X253902D1*
X-229968Y1655645D2*
X-199488D1*
X-134718D2*
X-62328D1*
X-28038D2*
X10062D1*
X97692D2*
X154842D1*
X185322D2*
X253902D1*
X-1136193Y1017313D2*
D14*
X-1142155Y1014813D1*
X-1146800Y1012313D1*
X-1150302Y1009813D1*
X-1152957Y1007313D1*
X-1154956Y1004813D1*
X-1156473Y1002313D1*
X-1157559Y999813D1*
X-1158268Y997313D1*
X-1158892Y994813D1*
X-1159624Y992313D1*
X-1160318Y989813D1*
X-1160774Y987313D1*
X-1161013Y984813D1*
X-1161122Y982313D1*
X-1161167Y979813D1*
X-1161184Y977313D1*
X-1161190Y974813D1*
X-1161182Y972313D1*
X-1161095Y969813D1*
X-1160777Y967313D1*
X-1160178Y964813D1*
X-1159528Y962313D1*
X-1159004Y959813D1*
X-1158443Y957313D1*
X-1157641Y954813D1*
X-1156540Y952313D1*
X-1155062Y949813D1*
X-1153073Y947313D1*
X-1150487Y944813D1*
X-1147269Y942313D1*
X-1143693Y939813D1*
X-1131193Y1017313D2*
X-1125531Y1014813D1*
X-1120860Y1012313D1*
X-1117248Y1009813D1*
X-1114509Y1007313D1*
X-1112464Y1004813D1*
X-1110926Y1002313D1*
X-1109835Y999813D1*
X-1109166Y997313D1*
X-1108693Y994813D1*
X-1086193Y1014813D2*
X-1089742Y1012313D1*
X-1092542Y1009813D1*
X-1094706Y1007313D1*
X-1095477Y1004813D1*
X-1095912Y1002313D1*
X-1096193Y999813D1*
X-1076193Y1014813D2*
Y1012313D1*
Y1009813D1*
Y1007313D1*
Y1004813D1*
Y1002313D1*
Y999813D1*
Y997313D1*
Y994813D1*
Y992313D1*
Y989813D1*
Y987313D1*
Y984813D1*
Y982313D1*
Y979813D1*
Y977313D1*
Y974813D1*
Y972313D1*
Y969813D1*
Y967313D1*
Y964813D1*
Y962313D1*
Y959813D1*
Y957313D1*
Y954813D1*
Y952313D1*
Y949813D1*
Y947313D1*
Y944813D1*
Y942313D1*
Y939813D1*
X-1141193Y1007313D2*
X-1143598Y1004813D1*
X-1145768Y1002313D1*
X-1147571Y999813D1*
X-1149014Y997313D1*
X-1150063Y994813D1*
X-1150675Y992313D1*
X-1150977Y989813D1*
X-1151109Y987313D1*
X-1151162Y984813D1*
X-1151182Y982313D1*
X-1151190Y979813D1*
X-1151192Y977313D1*
X-1151193Y974813D1*
Y972313D1*
X-1151184Y969813D1*
X-1151096Y967313D1*
X-1150777Y964813D1*
X-1150169Y962313D1*
X-1149420Y959813D1*
X-1148421Y957313D1*
X-1146979Y954813D1*
X-1141759Y952313D1*
X-1133639Y949813D1*
X-1123693Y947313D1*
X-1131193Y1007313D2*
X-1126780Y1004813D1*
X-1123140Y1002313D1*
X-1120420Y999813D1*
X-1118239Y997313D1*
X-1116193Y994813D1*
X-1088693Y1004813D2*
X-1091193Y1002313D1*
X-1093693Y999813D1*
X-1083693Y1004813D2*
Y1002313D1*
Y999813D1*
Y997313D1*
Y994813D1*
Y992313D1*
Y989813D1*
Y987313D1*
Y984813D1*
Y982313D1*
Y979813D1*
Y977313D1*
Y974813D1*
Y972313D1*
Y969813D1*
Y967313D1*
Y964813D1*
Y962313D1*
Y959813D1*
Y957313D1*
Y954813D1*
Y952313D1*
Y949813D1*
Y947313D1*
Y944813D1*
Y942313D1*
Y939813D1*
X-1118693Y959813D2*
X-1119807Y957313D1*
X-1121262Y954813D1*
X-1126133Y952313D1*
X-1133974Y949813D1*
X-1143693Y947313D1*
X-1108693Y959813D2*
X-1109089Y957313D1*
X-1109807Y954813D1*
X-1110870Y952313D1*
X-1112333Y949813D1*
X-1114317Y947313D1*
X-1116901Y944813D1*
X-1120118Y942313D1*
X-1123693Y939813D1*
X-530087Y1200943D2*
X-536049Y1198443D1*
X-540693Y1195943D1*
X-544195Y1193443D1*
X-546850Y1190943D1*
X-548849Y1188443D1*
X-550366Y1185943D1*
X-551452Y1183443D1*
X-552161Y1180943D1*
X-552785Y1178443D1*
X-553517Y1175943D1*
X-554211Y1173443D1*
X-554668Y1170943D1*
X-554907Y1168443D1*
X-555015Y1165943D1*
X-555060Y1163443D1*
X-555077Y1160943D1*
X-555083Y1158443D1*
X-555076Y1155943D1*
X-554989Y1153443D1*
X-554670Y1150943D1*
X-554072Y1148443D1*
X-553421Y1145943D1*
X-552897Y1143443D1*
X-552337Y1140943D1*
X-551534Y1138443D1*
X-550433Y1135943D1*
X-548956Y1133443D1*
X-546966Y1130943D1*
X-544380Y1128443D1*
X-541162Y1125943D1*
X-537587Y1123443D1*
X-525087Y1200943D2*
X-519424Y1198443D1*
X-514754Y1195943D1*
X-511141Y1193443D1*
X-508402Y1190943D1*
X-506358Y1188443D1*
X-504820Y1185943D1*
X-503729Y1183443D1*
X-503060Y1180943D1*
X-502587Y1178443D1*
X-470087Y1200943D2*
X-474885Y1198443D1*
X-478733Y1195943D1*
X-481631Y1193443D1*
X-483757Y1190943D1*
X-485331Y1188443D1*
X-486436Y1185943D1*
X-487111Y1183443D1*
X-487587Y1180943D1*
X-465087Y1200943D2*
X-459134Y1198443D1*
X-454578Y1195943D1*
X-451394Y1193443D1*
X-449338Y1190943D1*
X-447980Y1188443D1*
X-446909Y1185943D1*
X-446153Y1183443D1*
X-445744Y1180943D1*
X-446250Y1178443D1*
X-446902Y1175943D1*
X-447629Y1173443D1*
X-448542Y1170943D1*
X-449690Y1168443D1*
X-451095Y1165943D1*
X-452680Y1163443D1*
X-454285Y1160943D1*
X-456004Y1158443D1*
X-457928Y1155943D1*
X-459857Y1153443D1*
X-461645Y1150943D1*
X-463448Y1148443D1*
X-465407Y1145943D1*
X-467350Y1143443D1*
X-469143Y1140943D1*
X-470957Y1138443D1*
X-473002Y1135943D1*
X-475251Y1133443D1*
X-477587Y1130943D1*
X-535087Y1190943D2*
X-537491Y1188443D1*
X-539661Y1185943D1*
X-541464Y1183443D1*
X-542907Y1180943D1*
X-543956Y1178443D1*
X-544568Y1175943D1*
X-544870Y1173443D1*
X-545002Y1170943D1*
X-545056Y1168443D1*
X-545076Y1165943D1*
X-545083Y1163443D1*
X-545085Y1160943D1*
X-545086Y1158443D1*
X-545087Y1155943D1*
X-545077Y1153443D1*
X-544989Y1150943D1*
X-544670Y1148443D1*
X-544062Y1145943D1*
X-543313Y1143443D1*
X-542315Y1140943D1*
X-540872Y1138443D1*
X-535653Y1135943D1*
X-527532Y1133443D1*
X-517587Y1130943D1*
X-525087Y1190943D2*
X-520673Y1188443D1*
X-517033Y1185943D1*
X-514314Y1183443D1*
X-512132Y1180943D1*
X-510087Y1178443D1*
X-472587Y1190943D2*
X-474698Y1188443D1*
X-476558Y1185943D1*
X-478307Y1183443D1*
X-480087Y1180943D1*
X-457587Y1190943D2*
X-457200Y1188443D1*
X-456581Y1185943D1*
X-455943Y1183443D1*
X-455593Y1180943D1*
X-455689Y1178443D1*
X-456279Y1175943D1*
X-457283Y1173443D1*
X-458629Y1170943D1*
X-460192Y1168443D1*
X-461789Y1165943D1*
X-463506Y1163443D1*
X-465428Y1160943D1*
X-467358Y1158443D1*
X-469146Y1155943D1*
X-470948Y1153443D1*
X-472907Y1150943D1*
X-474850Y1148443D1*
X-476643Y1145943D1*
X-478448Y1143443D1*
X-480406Y1140943D1*
X-482340Y1138443D1*
X-484035Y1135943D1*
X-485434Y1133443D1*
X-486466Y1130943D1*
X-487074Y1128443D1*
X-487388Y1125943D1*
X-487587Y1123443D1*
X-512587Y1143443D2*
X-513700Y1140943D1*
X-515156Y1138443D1*
X-520026Y1135943D1*
X-527868Y1133443D1*
X-537587Y1130943D1*
X-502587Y1143443D2*
X-502983Y1140943D1*
X-503700Y1138443D1*
X-504764Y1135943D1*
X-506226Y1133443D1*
X-508210Y1130943D1*
X-510794Y1128443D1*
X-514011Y1125943D1*
X-517587Y1123443D1*
X-445087Y1130943D2*
Y1128443D1*
Y1125943D1*
Y1123443D1*
X198873Y1199577D2*
X192911Y1197077D1*
X188267Y1194577D1*
X184765Y1192077D1*
X182110Y1189577D1*
X180111Y1187077D1*
X178594Y1184577D1*
X177508Y1182077D1*
X176799Y1179577D1*
X176175Y1177077D1*
X175443Y1174577D1*
X174749Y1172077D1*
X174292Y1169577D1*
X174053Y1167077D1*
X173945Y1164577D1*
X173900Y1162077D1*
X173883Y1159577D1*
X173877Y1157077D1*
X173884Y1154577D1*
X173971Y1152077D1*
X174290Y1149577D1*
X174888Y1147077D1*
X175539Y1144577D1*
X176063Y1142077D1*
X176623Y1139577D1*
X177426Y1137077D1*
X178527Y1134577D1*
X180004Y1132077D1*
X181994Y1129577D1*
X184580Y1127077D1*
X187798Y1124577D1*
X191373Y1122077D1*
X203873Y1199577D2*
X209536Y1197077D1*
X214206Y1194577D1*
X217819Y1192077D1*
X220558Y1189577D1*
X222602Y1187077D1*
X224140Y1184577D1*
X225231Y1182077D1*
X225900Y1179577D1*
X226373Y1177077D1*
X258873Y1199577D2*
X254075Y1197077D1*
X250227Y1194577D1*
X247329Y1192077D1*
X245203Y1189577D1*
X243629Y1187077D1*
X242524Y1184577D1*
X241849Y1182077D1*
X241373Y1179577D1*
X263873Y1199577D2*
X269441Y1197077D1*
X273791Y1194577D1*
X276794Y1192077D1*
X278804Y1189577D1*
X280094Y1187077D1*
X280801Y1184577D1*
X281138Y1182077D1*
X281273Y1179577D1*
X281243Y1177077D1*
X280936Y1174577D1*
X280237Y1172077D1*
X279088Y1169577D1*
X277258Y1167077D1*
X274560Y1164577D1*
X271373Y1162077D1*
X274332Y1159577D1*
X276868Y1157077D1*
X278867Y1154577D1*
X280477Y1152077D1*
X281798Y1149577D1*
X282786Y1147077D1*
X283362Y1144577D1*
X283565Y1142077D1*
X283375Y1139577D1*
X282818Y1137077D1*
X282099Y1134577D1*
X281244Y1132077D1*
X279905Y1129577D1*
X277760Y1127077D1*
X274787Y1124577D1*
X271373Y1122077D1*
X193873Y1189577D2*
X191469Y1187077D1*
X189299Y1184577D1*
X187496Y1182077D1*
X186053Y1179577D1*
X185004Y1177077D1*
X184392Y1174577D1*
X184090Y1172077D1*
X183958Y1169577D1*
X183904Y1167077D1*
X183884Y1164577D1*
X183877Y1162077D1*
X183875Y1159577D1*
X183874Y1157077D1*
X183873Y1154577D1*
X183883Y1152077D1*
X183971Y1149577D1*
X184290Y1147077D1*
X184898Y1144577D1*
X185647Y1142077D1*
X186645Y1139577D1*
X188088Y1137077D1*
X193307Y1134577D1*
X201428Y1132077D1*
X211373Y1129577D1*
X203873Y1189577D2*
X208287Y1187077D1*
X211927Y1184577D1*
X214646Y1182077D1*
X216828Y1179577D1*
X218873Y1177077D1*
X256373Y1189577D2*
X254262Y1187077D1*
X252402Y1184577D1*
X250653Y1182077D1*
X248873Y1179577D1*
X266373Y1189577D2*
X268768Y1187077D1*
X270850Y1184577D1*
X272325Y1182077D1*
X273311Y1179577D1*
X273208Y1177077D1*
X272767Y1174577D1*
X271112Y1172077D1*
X268504Y1169577D1*
X265191Y1167077D1*
X261919Y1164577D1*
X260289Y1162077D1*
X259771Y1159577D1*
X263209Y1157077D1*
X266872Y1154577D1*
X269901Y1152077D1*
X272261Y1149577D1*
X273095Y1147077D1*
X273534Y1144577D1*
X273638Y1142077D1*
X273506Y1139577D1*
X272366Y1137077D1*
X268362Y1134577D1*
X261913Y1132077D1*
X253873Y1129577D1*
X216373Y1142077D2*
X215260Y1139577D1*
X213804Y1137077D1*
X208934Y1134577D1*
X201092Y1132077D1*
X191373Y1129577D1*
X226373Y1142077D2*
X225977Y1139577D1*
X225260Y1137077D1*
X224196Y1134577D1*
X222734Y1132077D1*
X220750Y1129577D1*
X218166Y1127077D1*
X214949Y1124577D1*
X211373Y1122077D1*
X238873Y1139577D2*
X239823Y1137077D1*
X240907Y1134577D1*
X242166Y1132077D1*
X243788Y1129577D1*
X245962Y1127077D1*
X248597Y1124577D1*
X251373Y1122077D1*
X248873Y1139577D2*
X250265Y1137077D1*
X254336Y1134577D1*
X260817Y1132077D1*
X268873Y1129577D1*
X391597Y1198620D2*
X385635Y1196120D1*
X380990Y1193620D1*
X377488Y1191120D1*
X374833Y1188620D1*
X372834Y1186120D1*
X371317Y1183620D1*
X370231Y1181120D1*
X369522Y1178620D1*
X368898Y1176120D1*
X368166Y1173620D1*
X367472Y1171120D1*
X367016Y1168620D1*
X366777Y1166120D1*
X366668Y1163620D1*
X366623Y1161120D1*
X366606Y1158620D1*
X366600Y1156120D1*
X366608Y1153620D1*
X366695Y1151120D1*
X367013Y1148620D1*
X367612Y1146120D1*
X368262Y1143620D1*
X368786Y1141120D1*
X369347Y1138620D1*
X370149Y1136120D1*
X371250Y1133620D1*
X372728Y1131120D1*
X374717Y1128620D1*
X377303Y1126120D1*
X380521Y1123620D1*
X384097Y1121120D1*
X396597Y1198620D2*
X402259Y1196120D1*
X406930Y1193620D1*
X410542Y1191120D1*
X413281Y1188620D1*
X415326Y1186120D1*
X416864Y1183620D1*
X417955Y1181120D1*
X418624Y1178620D1*
X419097Y1176120D1*
X459097Y1196120D2*
X458147Y1193620D1*
X457073Y1191120D1*
X455912Y1188620D1*
X454697Y1186120D1*
X453464Y1183620D1*
X452227Y1181120D1*
X451060Y1178620D1*
X450049Y1176120D1*
X449159Y1173620D1*
X448190Y1171120D1*
X447095Y1168620D1*
X445922Y1166120D1*
X444701Y1163620D1*
X443466Y1161120D1*
X442218Y1158620D1*
X440972Y1156120D1*
X439720Y1153620D1*
X438473Y1151120D1*
X437230Y1148620D1*
X436070Y1146120D1*
X435147Y1143620D1*
X434585Y1141120D1*
X434302Y1138620D1*
X434172Y1136120D1*
X434097Y1133620D1*
X469097Y1196120D2*
X467847Y1193620D1*
X466799Y1191120D1*
X465749Y1188620D1*
X464618Y1186120D1*
X463430Y1183620D1*
X462204Y1181120D1*
X460967Y1178620D1*
X459719Y1176120D1*
X458472Y1173620D1*
X457220Y1171120D1*
X455973Y1168620D1*
X454730Y1166120D1*
X453561Y1163620D1*
X452549Y1161120D1*
X451659Y1158620D1*
X450690Y1156120D1*
X449595Y1153620D1*
X448414Y1151120D1*
X447129Y1148620D1*
X445683Y1146120D1*
X444097Y1143620D1*
X464097Y1141120D1*
X386597Y1188620D2*
X384192Y1186120D1*
X382022Y1183620D1*
X380219Y1181120D1*
X378776Y1178620D1*
X377727Y1176120D1*
X377115Y1173620D1*
X376813Y1171120D1*
X376681Y1168620D1*
X376628Y1166120D1*
X376608Y1163620D1*
X376600Y1161120D1*
X376598Y1158620D1*
X376597Y1156120D1*
Y1153620D1*
X376606Y1151120D1*
X376694Y1148620D1*
X377013Y1146120D1*
X377621Y1143620D1*
X378370Y1141120D1*
X379369Y1138620D1*
X380811Y1136120D1*
X386031Y1133620D1*
X394151Y1131120D1*
X404097Y1128620D1*
X396597Y1188620D2*
X401010Y1186120D1*
X404650Y1183620D1*
X407370Y1181120D1*
X409551Y1178620D1*
X411597Y1176120D1*
X469097Y1163620D2*
Y1161120D1*
Y1158620D1*
Y1156120D1*
Y1153620D1*
Y1151120D1*
Y1148620D1*
Y1146120D1*
Y1143620D1*
X446597Y1141120D1*
X476597Y1163620D2*
Y1161120D1*
Y1158620D1*
Y1156120D1*
Y1153620D1*
X476616Y1151120D1*
X476792Y1148620D1*
X477202Y1146120D1*
X478570Y1143620D1*
X479894Y1141120D1*
X480777Y1138620D1*
X481245Y1136120D1*
X481466Y1133620D1*
X481597Y1131120D1*
X476597D1*
Y1128620D1*
Y1126120D1*
Y1123620D1*
Y1121120D1*
X409097Y1141120D2*
X407983Y1138620D1*
X406528Y1136120D1*
X401657Y1133620D1*
X393816Y1131120D1*
X384097Y1128620D1*
X419097Y1141120D2*
X418701Y1138620D1*
X417983Y1136120D1*
X416920Y1133620D1*
X415457Y1131120D1*
X413473Y1128620D1*
X410889Y1126120D1*
X407672Y1123620D1*
X404097Y1121120D1*
X469097Y1133620D2*
Y1131120D1*
Y1128620D1*
Y1126120D1*
Y1123620D1*
Y1121120D1*
X-700680Y1197637D2*
X-706642Y1195137D1*
X-711286Y1192637D1*
X-714788Y1190137D1*
X-717443Y1187637D1*
X-719443Y1185137D1*
X-720960Y1182637D1*
X-722045Y1180137D1*
X-722755Y1177637D1*
X-723378Y1175137D1*
X-724110Y1172637D1*
X-724805Y1170137D1*
X-725261Y1167637D1*
X-725500Y1165137D1*
X-725609Y1162637D1*
X-725653Y1160137D1*
X-725670Y1157637D1*
X-725677Y1155137D1*
X-725669Y1152637D1*
X-725582Y1150137D1*
X-725264Y1147637D1*
X-724665Y1145137D1*
X-724014Y1142637D1*
X-723490Y1140137D1*
X-722930Y1137637D1*
X-722128Y1135137D1*
X-721027Y1132637D1*
X-719549Y1130137D1*
X-717560Y1127637D1*
X-714974Y1125137D1*
X-711756Y1122637D1*
X-708180Y1120137D1*
X-695680Y1197637D2*
X-690017Y1195137D1*
X-685347Y1192637D1*
X-681734Y1190137D1*
X-678995Y1187637D1*
X-676951Y1185137D1*
X-675413Y1182637D1*
X-674322Y1180137D1*
X-673653Y1177637D1*
X-673180Y1175137D1*
X-655680Y1195137D2*
Y1192637D1*
Y1190137D1*
Y1187637D1*
Y1185137D1*
Y1182637D1*
Y1180137D1*
Y1177637D1*
Y1175137D1*
Y1172637D1*
Y1170137D1*
Y1167637D1*
Y1165137D1*
Y1162637D1*
Y1160137D1*
Y1157637D1*
X-618180Y1195137D2*
Y1192637D1*
Y1190137D1*
Y1187637D1*
Y1185137D1*
X-645680D1*
Y1182637D1*
Y1180137D1*
Y1177637D1*
Y1175137D1*
Y1172637D1*
X-635112Y1170137D1*
X-627673Y1167637D1*
X-622266Y1165137D1*
X-619854Y1162637D1*
X-618084Y1160137D1*
X-616895Y1157637D1*
X-616228Y1155137D1*
X-615907Y1152637D1*
X-615768Y1150137D1*
X-615712Y1147637D1*
X-615691Y1145137D1*
X-615684Y1142637D1*
X-615691Y1140137D1*
X-615778Y1137637D1*
X-616106Y1135137D1*
X-616802Y1132637D1*
X-617860Y1130137D1*
X-619311Y1127637D1*
X-621196Y1125137D1*
X-623379Y1122637D1*
X-625680Y1120137D1*
X-705680Y1187637D2*
X-708085Y1185137D1*
X-710255Y1182637D1*
X-712058Y1180137D1*
X-713500Y1177637D1*
X-714549Y1175137D1*
X-715161Y1172637D1*
X-715463Y1170137D1*
X-715596Y1167637D1*
X-715649Y1165137D1*
X-715669Y1162637D1*
X-715676Y1160137D1*
X-715679Y1157637D1*
X-715680Y1155137D1*
Y1152637D1*
X-715670Y1150137D1*
X-715582Y1147637D1*
X-715264Y1145137D1*
X-714655Y1142637D1*
X-713907Y1140137D1*
X-712908Y1137637D1*
X-711465Y1135137D1*
X-706246Y1132637D1*
X-698126Y1130137D1*
X-688180Y1127637D1*
X-695680Y1187637D2*
X-691267Y1185137D1*
X-687627Y1182637D1*
X-684907Y1180137D1*
X-682726Y1177637D1*
X-680680Y1175137D1*
X-640680Y1162637D2*
X-643180Y1160137D1*
X-645680Y1157637D1*
X-630680Y1162637D2*
X-628662Y1160137D1*
X-627112Y1157637D1*
X-625956Y1155137D1*
X-624951Y1152637D1*
X-624134Y1150137D1*
X-623638Y1147637D1*
X-623468Y1145137D1*
X-623671Y1142637D1*
X-624233Y1140137D1*
X-625002Y1137637D1*
X-625888Y1135137D1*
X-628516Y1132637D1*
X-635229Y1130137D1*
X-643180Y1127637D1*
X-683180Y1140137D2*
X-684293Y1137637D1*
X-685749Y1135137D1*
X-690619Y1132637D1*
X-698461Y1130137D1*
X-708180Y1127637D1*
X-673180Y1140137D2*
X-673576Y1137637D1*
X-674294Y1135137D1*
X-675357Y1132637D1*
X-676820Y1130137D1*
X-678803Y1127637D1*
X-681387Y1125137D1*
X-684605Y1122637D1*
X-688180Y1120137D1*
X-655680Y1137637D2*
X-655575Y1135137D1*
X-655157Y1132637D1*
X-654141Y1130137D1*
X-652485Y1127637D1*
X-650394Y1125137D1*
X-648077Y1122637D1*
X-645680Y1120137D1*
X-648180Y1137637D2*
X-646788Y1135137D1*
X-642718Y1132637D1*
X-636237Y1130137D1*
X-628180Y1127637D1*
X589830Y1194800D2*
X583868Y1192300D1*
X579224Y1189800D1*
X575722Y1187300D1*
X573067Y1184800D1*
X571067Y1182300D1*
X569550Y1179800D1*
X568465Y1177300D1*
X567755Y1174800D1*
X567132Y1172300D1*
X566400Y1169800D1*
X565705Y1167300D1*
X565249Y1164800D1*
X565010Y1162300D1*
X564901Y1159800D1*
X564857Y1157300D1*
X564840Y1154800D1*
X564833Y1152300D1*
X564841Y1149800D1*
X564928Y1147300D1*
X565246Y1144800D1*
X565845Y1142300D1*
X566496Y1139800D1*
X567020Y1137300D1*
X567580Y1134800D1*
X568382Y1132300D1*
X569483Y1129800D1*
X570961Y1127300D1*
X572950Y1124800D1*
X575536Y1122300D1*
X578754Y1119800D1*
X582330Y1117300D1*
X594830Y1194800D2*
X600493Y1192300D1*
X605163Y1189800D1*
X608776Y1187300D1*
X611515Y1184800D1*
X613559Y1182300D1*
X615097Y1179800D1*
X616188Y1177300D1*
X616857Y1174800D1*
X617330Y1172300D1*
X652330Y1192300D2*
X651380Y1189800D1*
X650306Y1187300D1*
X649145Y1184800D1*
X647930Y1182300D1*
X646697Y1179800D1*
X645451Y1177300D1*
X644205Y1174800D1*
X642954Y1172300D1*
X641706Y1169800D1*
X640454Y1167300D1*
X639206Y1164800D1*
X637964Y1162300D1*
X636794Y1159800D1*
X635782Y1157300D1*
X634902Y1154800D1*
X634021Y1152300D1*
X633255Y1149800D1*
X632768Y1147300D1*
X632517Y1144800D1*
X632404Y1142300D1*
X632357Y1139800D1*
X632350Y1137300D1*
X632431Y1134800D1*
X632757Y1132300D1*
X633453Y1129800D1*
X634510Y1127300D1*
X635961Y1124800D1*
X637846Y1122300D1*
X640029Y1119800D1*
X642330Y1117300D1*
X662330Y1192300D2*
X661380Y1189800D1*
X660306Y1187300D1*
X659145Y1184800D1*
X657930Y1182300D1*
X656697Y1179800D1*
X655451Y1177300D1*
X654205Y1174800D1*
X652954Y1172300D1*
X651706Y1169800D1*
X650462Y1167300D1*
X649279Y1164800D1*
X648237Y1162300D1*
X647330Y1159800D1*
X584830Y1184800D2*
X582425Y1182300D1*
X580255Y1179800D1*
X578452Y1177300D1*
X577010Y1174800D1*
X575961Y1172300D1*
X575349Y1169800D1*
X575047Y1167300D1*
X574914Y1164800D1*
X574861Y1162300D1*
X574841Y1159800D1*
X574834Y1157300D1*
X574831Y1154800D1*
X574830Y1152300D1*
Y1149800D1*
X574840Y1147300D1*
X574928Y1144800D1*
X575246Y1142300D1*
X575855Y1139800D1*
X576603Y1137300D1*
X577602Y1134800D1*
X579045Y1132300D1*
X584264Y1129800D1*
X592384Y1127300D1*
X602330Y1124800D1*
X594830Y1184800D2*
X599243Y1182300D1*
X602883Y1179800D1*
X605603Y1177300D1*
X607784Y1174800D1*
X609830Y1172300D1*
X652330Y1162300D2*
X649830Y1159800D1*
X657330Y1162300D2*
X662043Y1159800D1*
X665649Y1157300D1*
X668178Y1154800D1*
X669943Y1152300D1*
X671123Y1149800D1*
X671784Y1147300D1*
X672104Y1144800D1*
X672243Y1142300D1*
X672298Y1139800D1*
X672319Y1137300D1*
X672316Y1134800D1*
X672221Y1132300D1*
X671806Y1129800D1*
X670791Y1127300D1*
X669135Y1124800D1*
X667044Y1122300D1*
X664727Y1119800D1*
X662330Y1117300D1*
X647330Y1152300D2*
X645312Y1149800D1*
X643762Y1147300D1*
X642606Y1144800D1*
X641611Y1142300D1*
X640882Y1139800D1*
X640486Y1137300D1*
X641137Y1134800D1*
X642134Y1132300D1*
X644977Y1129800D1*
X651796Y1127300D1*
X659830Y1124800D1*
X657330Y1152300D2*
X659434Y1149800D1*
X661216Y1147300D1*
X662653Y1144800D1*
X663700Y1142300D1*
X664302Y1139800D1*
X664506Y1137300D1*
X664437Y1134800D1*
X663314Y1132300D1*
X659315Y1129800D1*
X652868Y1127300D1*
X644830Y1124800D1*
X607330Y1137300D2*
X606217Y1134800D1*
X604761Y1132300D1*
X599891Y1129800D1*
X592049Y1127300D1*
X582330Y1124800D1*
X617330Y1137300D2*
X616934Y1134800D1*
X616216Y1132300D1*
X615153Y1129800D1*
X613690Y1127300D1*
X611707Y1124800D1*
X609123Y1122300D1*
X605905Y1119800D1*
X602330Y1117300D1*
X-295100Y1188660D2*
X-301062Y1186160D1*
X-305706Y1183660D1*
X-309208Y1181160D1*
X-311863Y1178660D1*
X-313863Y1176160D1*
X-315380Y1173660D1*
X-316465Y1171160D1*
X-317175Y1168660D1*
X-317798Y1166160D1*
X-318530Y1163660D1*
X-319225Y1161160D1*
X-319681Y1158660D1*
X-319920Y1156160D1*
X-320029Y1153660D1*
X-320073Y1151160D1*
X-320090Y1148660D1*
X-320097Y1146160D1*
X-320089Y1143660D1*
X-320002Y1141160D1*
X-319684Y1138660D1*
X-319085Y1136160D1*
X-318434Y1133660D1*
X-317910Y1131160D1*
X-317350Y1128660D1*
X-316548Y1126160D1*
X-315447Y1123660D1*
X-313969Y1121160D1*
X-311980Y1118660D1*
X-309394Y1116160D1*
X-306176Y1113660D1*
X-302600Y1111160D1*
X-290100Y1188660D2*
X-284437Y1186160D1*
X-279767Y1183660D1*
X-276154Y1181160D1*
X-273415Y1178660D1*
X-271371Y1176160D1*
X-269833Y1173660D1*
X-268742Y1171160D1*
X-268073Y1168660D1*
X-267600Y1166160D1*
X-252600Y1186160D2*
Y1183660D1*
Y1181160D1*
Y1178660D1*
Y1176160D1*
Y1173660D1*
Y1171160D1*
Y1168660D1*
X-212600Y1186160D2*
X-212610Y1183660D1*
X-212698Y1181160D1*
X-213016Y1178660D1*
X-213625Y1176160D1*
X-214354Y1173660D1*
X-215108Y1171160D1*
X-215949Y1168660D1*
X-216784Y1166160D1*
X-217582Y1163660D1*
X-218429Y1161160D1*
X-219192Y1158660D1*
X-219762Y1156160D1*
X-220330Y1153660D1*
X-221051Y1151160D1*
X-221826Y1148660D1*
X-222599Y1146160D1*
X-223436Y1143660D1*
X-224195Y1141160D1*
X-224763Y1138660D1*
X-225331Y1136160D1*
X-226051Y1133660D1*
X-226826Y1131160D1*
X-227599Y1128660D1*
X-228445Y1126160D1*
X-229282Y1123660D1*
X-230082Y1121160D1*
X-230930Y1118660D1*
X-231690Y1116160D1*
X-232211Y1113660D1*
X-232600Y1111160D1*
X-300100Y1178660D2*
X-302505Y1176160D1*
X-304675Y1173660D1*
X-306478Y1171160D1*
X-307920Y1168660D1*
X-308969Y1166160D1*
X-309581Y1163660D1*
X-309883Y1161160D1*
X-310016Y1158660D1*
X-310069Y1156160D1*
X-310089Y1153660D1*
X-310096Y1151160D1*
X-310099Y1148660D1*
X-310100Y1146160D1*
Y1143660D1*
X-310090Y1141160D1*
X-310002Y1138660D1*
X-309684Y1136160D1*
X-309075Y1133660D1*
X-308327Y1131160D1*
X-307328Y1128660D1*
X-305885Y1126160D1*
X-300666Y1123660D1*
X-292546Y1121160D1*
X-282600Y1118660D1*
X-290100Y1178660D2*
X-285687Y1176160D1*
X-282047Y1173660D1*
X-279327Y1171160D1*
X-277146Y1168660D1*
X-275100Y1166160D1*
X-245100Y1178660D2*
Y1176160D1*
Y1173660D1*
Y1171160D1*
Y1168660D1*
X-220100Y1178660D2*
X-222109Y1176160D1*
X-223581Y1173660D1*
X-224506Y1171160D1*
X-225230Y1168660D1*
X-226014Y1166160D1*
X-226813Y1163660D1*
X-227594Y1161160D1*
X-228444Y1158660D1*
X-229282Y1156160D1*
X-230082Y1153660D1*
X-230929Y1151160D1*
X-231692Y1148660D1*
X-232262Y1146160D1*
X-232830Y1143660D1*
X-233551Y1141160D1*
X-234326Y1138660D1*
X-235099Y1136160D1*
X-235936Y1133660D1*
X-236695Y1131160D1*
X-237263Y1128660D1*
X-237831Y1126160D1*
X-238551Y1123660D1*
X-239326Y1121160D1*
X-240100Y1118660D1*
X-240959Y1116160D1*
X-241816Y1113660D1*
X-242600Y1111160D1*
X-277600Y1131160D2*
X-278713Y1128660D1*
X-280169Y1126160D1*
X-285039Y1123660D1*
X-292881Y1121160D1*
X-302600Y1118660D1*
X-267600Y1131160D2*
X-267996Y1128660D1*
X-268714Y1126160D1*
X-269777Y1123660D1*
X-271240Y1121160D1*
X-273223Y1118660D1*
X-275807Y1116160D1*
X-279025Y1113660D1*
X-282600Y1111160D1*
X782497Y718463D2*
X776535Y715963D1*
X771890Y713463D1*
X768388Y710963D1*
X765733Y708463D1*
X763734Y705963D1*
X762217Y703463D1*
X761131Y700963D1*
X760422Y698463D1*
X759798Y695963D1*
X759066Y693463D1*
X758372Y690963D1*
X757916Y688463D1*
X757677Y685963D1*
X757568Y683463D1*
X757523Y680963D1*
X757506Y678463D1*
X757500Y675963D1*
X757508Y673463D1*
X757595Y670963D1*
X757913Y668463D1*
X758512Y665963D1*
X759162Y663463D1*
X759686Y660963D1*
X760247Y658463D1*
X761049Y655963D1*
X762150Y653463D1*
X763628Y650963D1*
X765617Y648463D1*
X768203Y645963D1*
X771421Y643463D1*
X774997Y640963D1*
X787497Y718463D2*
X793159Y715963D1*
X797830Y713463D1*
X801442Y710963D1*
X804181Y708463D1*
X806226Y705963D1*
X807764Y703463D1*
X808855Y700963D1*
X809524Y698463D1*
X809997Y695963D1*
X844997Y718463D2*
X839429Y715963D1*
X835079Y713463D1*
X832076Y710963D1*
X830066Y708463D1*
X828776Y705963D1*
X828069Y703463D1*
X827732Y700963D1*
X827597Y698463D1*
X827627Y695963D1*
X827934Y693463D1*
X828623Y690963D1*
X829677Y688463D1*
X831120Y685963D1*
X832964Y683463D1*
X834997Y680963D1*
X832602Y678463D1*
X830510Y675963D1*
X828938Y673463D1*
X827775Y670963D1*
X826768Y668463D1*
X825951Y665963D1*
X825455Y663463D1*
X825285Y660963D1*
X825498Y658463D1*
X826137Y655963D1*
X827089Y653463D1*
X828224Y650963D1*
X829606Y648463D1*
X831542Y645963D1*
X834285Y643463D1*
X837497Y640963D1*
X849997Y718463D2*
X855949Y715963D1*
X860505Y713463D1*
X863689Y710963D1*
X865745Y708463D1*
X867103Y705963D1*
X868184Y703463D1*
X869018Y700963D1*
X869446Y698463D1*
X869379Y695963D1*
X868799Y693463D1*
X867789Y690963D1*
X866356Y688463D1*
X864477Y685963D1*
X862296Y683463D1*
X859997Y680963D1*
X862401Y678463D1*
X864571Y675963D1*
X866374Y673463D1*
X867817Y670963D1*
X868866Y668463D1*
X869478Y665963D1*
X869780Y663463D1*
X869903Y660963D1*
X869868Y658463D1*
X869560Y655963D1*
X868870Y653463D1*
X867806Y650963D1*
X866261Y648463D1*
X863989Y645963D1*
X860951Y643463D1*
X857497Y640963D1*
X777497Y708463D2*
X775092Y705963D1*
X772922Y703463D1*
X771119Y700963D1*
X769676Y698463D1*
X768627Y695963D1*
X768015Y693463D1*
X767713Y690963D1*
X767581Y688463D1*
X767528Y685963D1*
X767508Y683463D1*
X767500Y680963D1*
X767498Y678463D1*
X767497Y675963D1*
Y673463D1*
X767506Y670963D1*
X767594Y668463D1*
X767913Y665963D1*
X768521Y663463D1*
X769270Y660963D1*
X770269Y658463D1*
X771711Y655963D1*
X776931Y653463D1*
X785051Y650963D1*
X794997Y648463D1*
X787497Y708463D2*
X791910Y705963D1*
X795550Y703463D1*
X798270Y700963D1*
X800451Y698463D1*
X802497Y695963D1*
X842497Y708463D2*
X840393Y705963D1*
X838610Y703463D1*
X837184Y700963D1*
X836224Y698463D1*
X835697Y695963D1*
X836185Y693463D1*
X837608Y690963D1*
X841997Y688463D1*
X848949Y685963D1*
X857497Y683463D1*
X852497Y708463D2*
X854892Y705963D1*
X856974Y703463D1*
X858458Y700963D1*
X859292Y698463D1*
X859603Y695963D1*
X859588Y693463D1*
X858515Y690963D1*
X854954Y688463D1*
X849376Y685963D1*
X842497Y683463D1*
X847497Y675963D2*
X843093Y673463D1*
X839549Y670963D1*
X836823Y668463D1*
X835876Y665963D1*
X835378Y663463D1*
X835249Y660963D1*
X835368Y658463D1*
X836505Y655963D1*
X840508Y653463D1*
X846957Y650963D1*
X854997Y648463D1*
X847497Y675963D2*
X851996Y673463D1*
X855860Y670963D1*
X858781Y668463D1*
X861000Y665963D1*
X861679Y663463D1*
X861979Y660963D1*
X861155Y658463D1*
X859874Y655963D1*
X855034Y653463D1*
X847207Y650963D1*
X837497Y648463D1*
X799997Y660963D2*
X798883Y658463D1*
X797428Y655963D1*
X792557Y653463D1*
X784716Y650963D1*
X774997Y648463D1*
X809997Y660963D2*
X809601Y658463D1*
X808883Y655963D1*
X807820Y653463D1*
X806357Y650963D1*
X804373Y648463D1*
X801789Y645963D1*
X798572Y643463D1*
X794997Y640963D1*
X935073Y706970D2*
X929111Y704470D1*
X924467Y701970D1*
X920965Y699470D1*
X918310Y696970D1*
X916311Y694470D1*
X914794Y691970D1*
X913708Y689470D1*
X912999Y686970D1*
X912375Y684470D1*
X911643Y681970D1*
X910949Y679470D1*
X910492Y676970D1*
X910253Y674470D1*
X910145Y671970D1*
X910100Y669470D1*
X910083Y666970D1*
X910077Y664470D1*
X910084Y661970D1*
X910171Y659470D1*
X910490Y656970D1*
X911088Y654470D1*
X911739Y651970D1*
X912263Y649470D1*
X912823Y646970D1*
X913626Y644470D1*
X914727Y641970D1*
X916204Y639470D1*
X918194Y636970D1*
X920780Y634470D1*
X923998Y631970D1*
X927573Y629470D1*
X940073Y706970D2*
X945736Y704470D1*
X950406Y701970D1*
X954019Y699470D1*
X956758Y696970D1*
X958802Y694470D1*
X960340Y691970D1*
X961431Y689470D1*
X962100Y686970D1*
X962573Y684470D1*
X995073Y706970D2*
X990275Y704470D1*
X986427Y701970D1*
X983529Y699470D1*
X981403Y696970D1*
X979830Y694470D1*
X978731Y691970D1*
X978101Y689470D1*
X977793Y686970D1*
X977659Y684470D1*
X977614Y681970D1*
X977682Y679470D1*
X978003Y676970D1*
X978697Y674470D1*
X979753Y671970D1*
X981253Y669470D1*
X983166Y666970D1*
X987633Y664470D1*
X994354Y661970D1*
X1002573Y659470D1*
X1001023Y656970D1*
X999597Y654470D1*
X998258Y651970D1*
X996973Y649470D1*
X995706Y646970D1*
X994452Y644470D1*
X993198Y641970D1*
X991950Y639470D1*
X990705Y636970D1*
X989522Y634470D1*
X988481Y631970D1*
X987573Y629470D1*
X1000073Y706970D2*
X1005641Y704470D1*
X1009991Y701970D1*
X1012994Y699470D1*
X1015004Y696970D1*
X1016294Y694470D1*
X1017001Y691970D1*
X1017338Y689470D1*
X1017483Y686970D1*
X1017540Y684470D1*
X1017562Y681970D1*
X1017569Y679470D1*
X1017562Y676970D1*
X1017475Y674470D1*
X1017147Y671970D1*
X1016461Y669470D1*
X1015491Y666970D1*
X1014369Y664470D1*
X1013167Y661970D1*
X1011939Y659470D1*
X1010694Y656970D1*
X1009448Y654470D1*
X1008197Y651970D1*
X1006949Y649470D1*
X1005697Y646970D1*
X1004449Y644470D1*
X1003197Y641970D1*
X1001949Y639470D1*
X1000705Y636970D1*
X999522Y634470D1*
X998481Y631970D1*
X997573Y629470D1*
X930073Y696970D2*
X927669Y694470D1*
X925499Y691970D1*
X923696Y689470D1*
X922253Y686970D1*
X921204Y684470D1*
X920592Y681970D1*
X920290Y679470D1*
X920158Y676970D1*
X920104Y674470D1*
X920084Y671970D1*
X920077Y669470D1*
X920075Y666970D1*
X920074Y664470D1*
X920073Y661970D1*
X920083Y659470D1*
X920171Y656970D1*
X920490Y654470D1*
X921098Y651970D1*
X921847Y649470D1*
X922845Y646970D1*
X924288Y644470D1*
X929507Y641970D1*
X937628Y639470D1*
X947573Y636970D1*
X940073Y696970D2*
X944487Y694470D1*
X948127Y691970D1*
X950846Y689470D1*
X953028Y686970D1*
X955073Y684470D1*
X992573Y696970D2*
X990469Y694470D1*
X988687Y691970D1*
X987260Y689470D1*
X986301Y686970D1*
X985774Y684470D1*
X986256Y681970D1*
X986955Y679470D1*
X987797Y676970D1*
X990414Y674470D1*
X997124Y671970D1*
X1005073Y669470D1*
X1002573Y696970D2*
X1004968Y694470D1*
X1007050Y691970D1*
X1008535Y689470D1*
X1009369Y686970D1*
X1009689Y684470D1*
X1009537Y681970D1*
X1008862Y679470D1*
X1007809Y676970D1*
X1004940Y674470D1*
X998113Y671970D1*
X990073Y669470D1*
X952573Y649470D2*
X951460Y646970D1*
X950004Y644470D1*
X945134Y641970D1*
X937292Y639470D1*
X927573Y636970D1*
X962573Y649470D2*
X962177Y646970D1*
X961460Y644470D1*
X960396Y641970D1*
X958934Y639470D1*
X956950Y636970D1*
X954366Y634470D1*
X951149Y631970D1*
X947573Y629470D1*
X702217Y369497D2*
X696255Y366997D1*
X691610Y364497D1*
X688108Y361997D1*
X685453Y359497D1*
X683454Y356997D1*
X681937Y354497D1*
X680851Y351997D1*
X680142Y349497D1*
X679518Y346997D1*
X678786Y344497D1*
X678092Y341997D1*
X677636Y339497D1*
X677397Y336997D1*
X677288Y334497D1*
X677243Y331997D1*
X677226Y329497D1*
X677220Y326997D1*
X677228Y324497D1*
X677315Y321997D1*
X677633Y319497D1*
X678232Y316997D1*
X678882Y314497D1*
X679406Y311997D1*
X679967Y309497D1*
X680769Y306997D1*
X681870Y304497D1*
X683348Y301997D1*
X685337Y299497D1*
X687923Y296997D1*
X691141Y294497D1*
X694717Y291997D1*
X707217Y369497D2*
X712879Y366997D1*
X717550Y364497D1*
X721162Y361997D1*
X723901Y359497D1*
X725946Y356997D1*
X727484Y354497D1*
X728575Y351997D1*
X729244Y349497D1*
X729717Y346997D1*
X799717Y369497D2*
X794918Y366997D1*
X791080Y364497D1*
X788270Y361997D1*
X786148Y359497D1*
X785314Y356997D1*
X784595Y354497D1*
X783817Y351997D1*
X783103Y349497D1*
X782640Y346997D1*
X782398Y344497D1*
X782288Y341997D1*
X782243Y339497D1*
X782226Y336997D1*
X782220Y334497D1*
X782218Y331997D1*
X782217Y329497D1*
Y326997D1*
Y324497D1*
Y321997D1*
X782226Y319497D1*
X782314Y316997D1*
X782633Y314497D1*
X783232Y311997D1*
X783882Y309497D1*
X784406Y306997D1*
X784967Y304497D1*
X785779Y301997D1*
X786975Y299497D1*
X788822Y296997D1*
X791526Y294497D1*
X794717Y291997D1*
X809717Y369497D2*
X814429Y366997D1*
X818035Y364497D1*
X820565Y361997D1*
X822330Y359497D1*
X823509Y356997D1*
X824171Y354497D1*
X824491Y351997D1*
X824629Y349497D1*
X824685Y346997D1*
X824705Y344497D1*
X824713Y341997D1*
X824715Y339497D1*
X824716Y336997D1*
X824717Y334497D1*
Y331997D1*
Y329497D1*
Y326997D1*
Y324497D1*
Y321997D1*
Y319497D1*
Y316997D1*
Y314497D1*
Y311997D1*
X824707Y309497D1*
X824619Y306997D1*
X824291Y304497D1*
X823584Y301997D1*
X822433Y299497D1*
X820602Y296997D1*
X817904Y294497D1*
X814717Y291997D1*
X752217Y366997D2*
X748668Y364497D1*
X745868Y361997D1*
X743704Y359497D1*
X742933Y356997D1*
X742498Y354497D1*
X742217Y351997D1*
X762217Y366997D2*
Y364497D1*
Y361997D1*
Y359497D1*
Y356997D1*
Y354497D1*
Y351997D1*
Y349497D1*
Y346997D1*
Y344497D1*
Y341997D1*
Y339497D1*
Y336997D1*
Y334497D1*
Y331997D1*
Y329497D1*
Y326997D1*
Y324497D1*
Y321997D1*
Y319497D1*
Y316997D1*
Y314497D1*
Y311997D1*
Y309497D1*
Y306997D1*
Y304497D1*
Y301997D1*
Y299497D1*
Y296997D1*
Y294497D1*
Y291997D1*
X697217Y359497D2*
X694812Y356997D1*
X692642Y354497D1*
X690839Y351997D1*
X689396Y349497D1*
X688347Y346997D1*
X687735Y344497D1*
X687433Y341997D1*
X687301Y339497D1*
X687248Y336997D1*
X687228Y334497D1*
X687220Y331997D1*
X687218Y329497D1*
X687217Y326997D1*
Y324497D1*
X687226Y321997D1*
X687314Y319497D1*
X687633Y316997D1*
X688241Y314497D1*
X688990Y311997D1*
X689989Y309497D1*
X691431Y306997D1*
X696651Y304497D1*
X704771Y301997D1*
X714717Y299497D1*
X707217Y359497D2*
X711630Y356997D1*
X715270Y354497D1*
X717990Y351997D1*
X720171Y349497D1*
X722217Y346997D1*
X794717Y359497D2*
X794330Y356997D1*
X793711Y354497D1*
X793063Y351997D1*
X792625Y349497D1*
X792393Y346997D1*
X792287Y344497D1*
X792243Y341997D1*
X792226Y339497D1*
X792220Y336997D1*
X792218Y334497D1*
X792217Y331997D1*
Y329497D1*
Y326997D1*
Y324497D1*
Y321997D1*
Y319497D1*
Y316997D1*
X792226Y314497D1*
X792324Y311997D1*
X792558Y309497D1*
X793716Y306997D1*
X797724Y304497D1*
X804176Y301997D1*
X812217Y299497D1*
X814717Y359497D2*
X815103Y356997D1*
X815723Y354497D1*
X816370Y351997D1*
X816808Y349497D1*
X817040Y346997D1*
X817147Y344497D1*
X817190Y341997D1*
X817207Y339497D1*
X817213Y336997D1*
X817216Y334497D1*
Y331997D1*
X817217Y329497D1*
Y326997D1*
Y324497D1*
Y321997D1*
Y319497D1*
Y316997D1*
X817207Y314497D1*
X817109Y311997D1*
X816875Y309497D1*
X815718Y306997D1*
X811709Y304497D1*
X805257Y301997D1*
X797217Y299497D1*
X749717Y356997D2*
X747217Y354497D1*
X744717Y351997D1*
X754717Y356997D2*
Y354497D1*
Y351997D1*
Y349497D1*
Y346997D1*
Y344497D1*
Y341997D1*
Y339497D1*
Y336997D1*
Y334497D1*
Y331997D1*
Y329497D1*
Y326997D1*
Y324497D1*
Y321997D1*
Y319497D1*
Y316997D1*
Y314497D1*
Y311997D1*
Y309497D1*
Y306997D1*
Y304497D1*
Y301997D1*
Y299497D1*
Y296997D1*
Y294497D1*
Y291997D1*
X719717Y311997D2*
X718603Y309497D1*
X717148Y306997D1*
X712277Y304497D1*
X704436Y301997D1*
X694717Y299497D1*
X729717Y311997D2*
X729321Y309497D1*
X728603Y306997D1*
X727540Y304497D1*
X726077Y301997D1*
X724093Y299497D1*
X721509Y296997D1*
X718292Y294497D1*
X714717Y291997D1*
X-703230Y360323D2*
X-709192Y357823D1*
X-713836Y355323D1*
X-717338Y352823D1*
X-719993Y350323D1*
X-721993Y347823D1*
X-723510Y345323D1*
X-724595Y342823D1*
X-725305Y340323D1*
X-725928Y337823D1*
X-726660Y335323D1*
X-727355Y332823D1*
X-727811Y330323D1*
X-728050Y327823D1*
X-728159Y325323D1*
X-728203Y322823D1*
X-728220Y320323D1*
X-728227Y317823D1*
X-728219Y315323D1*
X-728132Y312823D1*
X-727814Y310323D1*
X-727215Y307823D1*
X-726564Y305323D1*
X-726040Y302823D1*
X-725480Y300323D1*
X-724678Y297823D1*
X-723577Y295323D1*
X-722099Y292823D1*
X-720110Y290323D1*
X-717524Y287823D1*
X-714306Y285323D1*
X-710730Y282823D1*
X-698230Y360323D2*
X-692567Y357823D1*
X-687897Y355323D1*
X-684284Y352823D1*
X-681545Y350323D1*
X-679501Y347823D1*
X-677963Y345323D1*
X-676872Y342823D1*
X-676203Y340323D1*
X-675730Y337823D1*
X-653230Y357823D2*
X-656779Y355323D1*
X-659579Y352823D1*
X-661743Y350323D1*
X-662514Y347823D1*
X-662949Y345323D1*
X-663230Y342823D1*
X-643230Y357823D2*
Y355323D1*
Y352823D1*
Y350323D1*
Y347823D1*
Y345323D1*
Y342823D1*
Y340323D1*
Y337823D1*
Y335323D1*
Y332823D1*
Y330323D1*
Y327823D1*
Y325323D1*
Y322823D1*
Y320323D1*
Y317823D1*
Y315323D1*
Y312823D1*
Y310323D1*
Y307823D1*
Y305323D1*
Y302823D1*
Y300323D1*
Y297823D1*
Y295323D1*
Y292823D1*
Y290323D1*
Y287823D1*
Y285323D1*
Y282823D1*
X-615730Y357823D2*
X-619279Y355323D1*
X-622079Y352823D1*
X-624243Y350323D1*
X-625014Y347823D1*
X-625449Y345323D1*
X-625730Y342823D1*
X-605730Y357823D2*
Y355323D1*
Y352823D1*
Y350323D1*
Y347823D1*
Y345323D1*
Y342823D1*
Y340323D1*
Y337823D1*
Y335323D1*
Y332823D1*
Y330323D1*
Y327823D1*
Y325323D1*
Y322823D1*
Y320323D1*
Y317823D1*
Y315323D1*
Y312823D1*
Y310323D1*
Y307823D1*
Y305323D1*
Y302823D1*
Y300323D1*
Y297823D1*
Y295323D1*
Y292823D1*
Y290323D1*
Y287823D1*
Y285323D1*
Y282823D1*
X-708230Y350323D2*
X-710635Y347823D1*
X-712805Y345323D1*
X-714608Y342823D1*
X-716050Y340323D1*
X-717099Y337823D1*
X-717711Y335323D1*
X-718013Y332823D1*
X-718146Y330323D1*
X-718199Y327823D1*
X-718219Y325323D1*
X-718226Y322823D1*
X-718229Y320323D1*
X-718230Y317823D1*
Y315323D1*
X-718220Y312823D1*
X-718132Y310323D1*
X-717814Y307823D1*
X-717205Y305323D1*
X-716457Y302823D1*
X-715458Y300323D1*
X-714015Y297823D1*
X-708796Y295323D1*
X-700676Y292823D1*
X-690730Y290323D1*
X-698230Y350323D2*
X-693817Y347823D1*
X-690177Y345323D1*
X-687457Y342823D1*
X-685276Y340323D1*
X-683230Y337823D1*
X-655730Y347823D2*
X-658230Y345323D1*
X-660730Y342823D1*
X-650730Y347823D2*
Y345323D1*
Y342823D1*
Y340323D1*
Y337823D1*
Y335323D1*
Y332823D1*
Y330323D1*
Y327823D1*
Y325323D1*
Y322823D1*
Y320323D1*
Y317823D1*
Y315323D1*
Y312823D1*
Y310323D1*
Y307823D1*
Y305323D1*
Y302823D1*
Y300323D1*
Y297823D1*
Y295323D1*
Y292823D1*
Y290323D1*
Y287823D1*
Y285323D1*
Y282823D1*
X-618230Y347823D2*
X-620730Y345323D1*
X-623230Y342823D1*
X-613230Y347823D2*
Y345323D1*
Y342823D1*
Y340323D1*
Y337823D1*
Y335323D1*
Y332823D1*
Y330323D1*
Y327823D1*
Y325323D1*
Y322823D1*
Y320323D1*
Y317823D1*
Y315323D1*
Y312823D1*
Y310323D1*
Y307823D1*
Y305323D1*
Y302823D1*
Y300323D1*
Y297823D1*
Y295323D1*
Y292823D1*
Y290323D1*
Y287823D1*
Y285323D1*
Y282823D1*
X-685730Y302823D2*
X-686843Y300323D1*
X-688299Y297823D1*
X-693169Y295323D1*
X-701011Y292823D1*
X-710730Y290323D1*
X-675730Y302823D2*
X-676126Y300323D1*
X-676844Y297823D1*
X-677907Y295323D1*
X-679370Y292823D1*
X-681353Y290323D1*
X-683937Y287823D1*
X-687155Y285323D1*
X-690730Y282823D1*
X-487177Y361223D2*
X-493139Y358723D1*
X-497783Y356223D1*
X-501285Y353723D1*
X-503940Y351223D1*
X-505939Y348723D1*
X-507456Y346223D1*
X-508542Y343723D1*
X-509251Y341223D1*
X-509875Y338723D1*
X-510607Y336223D1*
X-511301Y333723D1*
X-511758Y331223D1*
X-511997Y328723D1*
X-512105Y326223D1*
X-512150Y323723D1*
X-512167Y321223D1*
X-512173Y318723D1*
X-512166Y316223D1*
X-512079Y313723D1*
X-511760Y311223D1*
X-511162Y308723D1*
X-510511Y306223D1*
X-509987Y303723D1*
X-509427Y301223D1*
X-508624Y298723D1*
X-507523Y296223D1*
X-506046Y293723D1*
X-504056Y291223D1*
X-501470Y288723D1*
X-498252Y286223D1*
X-494677Y283723D1*
X-482177Y361223D2*
X-476514Y358723D1*
X-471844Y356223D1*
X-468231Y353723D1*
X-465492Y351223D1*
X-463448Y348723D1*
X-461910Y346223D1*
X-460819Y343723D1*
X-460150Y341223D1*
X-459677Y338723D1*
X-389677Y361223D2*
X-394475Y358723D1*
X-398323Y356223D1*
X-401221Y353723D1*
X-403347Y351223D1*
X-404921Y348723D1*
X-406026Y346223D1*
X-406701Y343723D1*
X-407177Y341223D1*
X-384677Y361223D2*
X-378724Y358723D1*
X-374168Y356223D1*
X-370984Y353723D1*
X-368928Y351223D1*
X-367570Y348723D1*
X-366499Y346223D1*
X-365743Y343723D1*
X-365334Y341223D1*
X-365840Y338723D1*
X-366492Y336223D1*
X-367219Y333723D1*
X-368132Y331223D1*
X-369280Y328723D1*
X-370685Y326223D1*
X-372270Y323723D1*
X-373875Y321223D1*
X-375594Y318723D1*
X-377518Y316223D1*
X-379447Y313723D1*
X-381235Y311223D1*
X-383038Y308723D1*
X-384997Y306223D1*
X-386940Y303723D1*
X-388733Y301223D1*
X-390547Y298723D1*
X-392592Y296223D1*
X-394841Y293723D1*
X-397177Y291223D1*
X-437177Y358723D2*
X-440726Y356223D1*
X-443526Y353723D1*
X-445690Y351223D1*
X-446460Y348723D1*
X-446896Y346223D1*
X-447177Y343723D1*
X-427177Y358723D2*
Y356223D1*
Y353723D1*
Y351223D1*
Y348723D1*
Y346223D1*
Y343723D1*
Y341223D1*
Y338723D1*
Y336223D1*
Y333723D1*
Y331223D1*
Y328723D1*
Y326223D1*
Y323723D1*
Y321223D1*
Y318723D1*
Y316223D1*
Y313723D1*
Y311223D1*
Y308723D1*
Y306223D1*
Y303723D1*
Y301223D1*
Y298723D1*
Y296223D1*
Y293723D1*
Y291223D1*
Y288723D1*
Y286223D1*
Y283723D1*
X-492177Y351223D2*
X-494581Y348723D1*
X-496751Y346223D1*
X-498554Y343723D1*
X-499997Y341223D1*
X-501046Y338723D1*
X-501658Y336223D1*
X-501960Y333723D1*
X-502092Y331223D1*
X-502146Y328723D1*
X-502166Y326223D1*
X-502173Y323723D1*
X-502175Y321223D1*
X-502176Y318723D1*
X-502177Y316223D1*
X-502167Y313723D1*
X-502079Y311223D1*
X-501760Y308723D1*
X-501152Y306223D1*
X-500403Y303723D1*
X-499405Y301223D1*
X-497962Y298723D1*
X-492743Y296223D1*
X-484622Y293723D1*
X-474677Y291223D1*
X-482177Y351223D2*
X-477763Y348723D1*
X-474123Y346223D1*
X-471404Y343723D1*
X-469222Y341223D1*
X-467177Y338723D1*
X-392177Y351223D2*
X-394288Y348723D1*
X-396148Y346223D1*
X-397897Y343723D1*
X-399677Y341223D1*
X-377177Y351223D2*
X-376790Y348723D1*
X-376171Y346223D1*
X-375533Y343723D1*
X-375183Y341223D1*
X-375279Y338723D1*
X-375869Y336223D1*
X-376873Y333723D1*
X-378219Y331223D1*
X-379782Y328723D1*
X-381379Y326223D1*
X-383096Y323723D1*
X-385018Y321223D1*
X-386948Y318723D1*
X-388736Y316223D1*
X-390538Y313723D1*
X-392497Y311223D1*
X-394440Y308723D1*
X-396233Y306223D1*
X-398038Y303723D1*
X-399996Y301223D1*
X-401930Y298723D1*
X-403625Y296223D1*
X-405024Y293723D1*
X-406056Y291223D1*
X-406664Y288723D1*
X-406978Y286223D1*
X-407177Y283723D1*
X-439677Y348723D2*
X-442177Y346223D1*
X-444677Y343723D1*
X-434677Y348723D2*
Y346223D1*
Y343723D1*
Y341223D1*
Y338723D1*
Y336223D1*
Y333723D1*
Y331223D1*
Y328723D1*
Y326223D1*
Y323723D1*
Y321223D1*
Y318723D1*
Y316223D1*
Y313723D1*
Y311223D1*
Y308723D1*
Y306223D1*
Y303723D1*
Y301223D1*
Y298723D1*
Y296223D1*
Y293723D1*
Y291223D1*
Y288723D1*
Y286223D1*
Y283723D1*
X-469677Y303723D2*
X-470790Y301223D1*
X-472246Y298723D1*
X-477116Y296223D1*
X-484958Y293723D1*
X-494677Y291223D1*
X-459677Y303723D2*
X-460073Y301223D1*
X-460790Y298723D1*
X-461854Y296223D1*
X-463316Y293723D1*
X-465300Y291223D1*
X-467884Y288723D1*
X-471101Y286223D1*
X-474677Y283723D1*
X-364677Y291223D2*
Y288723D1*
Y286223D1*
Y283723D1*
X-269053Y360103D2*
X-275015Y357603D1*
X-279660Y355103D1*
X-283162Y352603D1*
X-285817Y350103D1*
X-287816Y347603D1*
X-289333Y345103D1*
X-290419Y342603D1*
X-291128Y340103D1*
X-291752Y337603D1*
X-292484Y335103D1*
X-293178Y332603D1*
X-293634Y330103D1*
X-293873Y327603D1*
X-293982Y325103D1*
X-294027Y322603D1*
X-294044Y320103D1*
X-294050Y317603D1*
X-294042Y315103D1*
X-293955Y312603D1*
X-293637Y310103D1*
X-293038Y307603D1*
X-292388Y305103D1*
X-291864Y302603D1*
X-291303Y300103D1*
X-290501Y297603D1*
X-289400Y295103D1*
X-287922Y292603D1*
X-285933Y290103D1*
X-283347Y287603D1*
X-280129Y285103D1*
X-276553Y282603D1*
X-264053Y360103D2*
X-258391Y357603D1*
X-253720Y355103D1*
X-250108Y352603D1*
X-247369Y350103D1*
X-245324Y347603D1*
X-243786Y345103D1*
X-242695Y342603D1*
X-242026Y340103D1*
X-241553Y337603D1*
X-171553Y360103D2*
X-176352Y357603D1*
X-180200Y355103D1*
X-183098Y352603D1*
X-185224Y350103D1*
X-186798Y347603D1*
X-187903Y345103D1*
X-188578Y342603D1*
X-189053Y340103D1*
X-166553Y360103D2*
X-160986Y357603D1*
X-156636Y355103D1*
X-153632Y352603D1*
X-151622Y350103D1*
X-150333Y347603D1*
X-149626Y345103D1*
X-149289Y342603D1*
X-149154Y340103D1*
X-149184Y337603D1*
X-149491Y335103D1*
X-150189Y332603D1*
X-151339Y330103D1*
X-153168Y327603D1*
X-155866Y325103D1*
X-159053Y322603D1*
X-156095Y320103D1*
X-153558Y317603D1*
X-151560Y315103D1*
X-149950Y312603D1*
X-148629Y310103D1*
X-147641Y307603D1*
X-147065Y305103D1*
X-146861Y302603D1*
X-147052Y300103D1*
X-147608Y297603D1*
X-148327Y295103D1*
X-149182Y292603D1*
X-150522Y290103D1*
X-152667Y287603D1*
X-155639Y285103D1*
X-159053Y282603D1*
X-219053Y357603D2*
X-222602Y355103D1*
X-225402Y352603D1*
X-227566Y350103D1*
X-228337Y347603D1*
X-228772Y345103D1*
X-229053Y342603D1*
X-209053Y357603D2*
Y355103D1*
Y352603D1*
Y350103D1*
Y347603D1*
Y345103D1*
Y342603D1*
Y340103D1*
Y337603D1*
Y335103D1*
Y332603D1*
Y330103D1*
Y327603D1*
Y325103D1*
Y322603D1*
Y320103D1*
Y317603D1*
Y315103D1*
Y312603D1*
Y310103D1*
Y307603D1*
Y305103D1*
Y302603D1*
Y300103D1*
Y297603D1*
Y295103D1*
Y292603D1*
Y290103D1*
Y287603D1*
Y285103D1*
Y282603D1*
X-274053Y350103D2*
X-276458Y347603D1*
X-278628Y345103D1*
X-280431Y342603D1*
X-281874Y340103D1*
X-282923Y337603D1*
X-283535Y335103D1*
X-283837Y332603D1*
X-283969Y330103D1*
X-284022Y327603D1*
X-284042Y325103D1*
X-284050Y322603D1*
X-284052Y320103D1*
X-284053Y317603D1*
Y315103D1*
X-284044Y312603D1*
X-283956Y310103D1*
X-283637Y307603D1*
X-283029Y305103D1*
X-282280Y302603D1*
X-281281Y300103D1*
X-279839Y297603D1*
X-274619Y295103D1*
X-266499Y292603D1*
X-256553Y290103D1*
X-264053Y350103D2*
X-259640Y347603D1*
X-256000Y345103D1*
X-253280Y342603D1*
X-251099Y340103D1*
X-249053Y337603D1*
X-174053Y350103D2*
X-176165Y347603D1*
X-178024Y345103D1*
X-179774Y342603D1*
X-181553Y340103D1*
X-164053Y350103D2*
X-161658Y347603D1*
X-159576Y345103D1*
X-158102Y342603D1*
X-157116Y340103D1*
X-157218Y337603D1*
X-157660Y335103D1*
X-159314Y332603D1*
X-161923Y330103D1*
X-165235Y327603D1*
X-168507Y325103D1*
X-170137Y322603D1*
X-170655Y320103D1*
X-167217Y317603D1*
X-163554Y315103D1*
X-160525Y312603D1*
X-158166Y310103D1*
X-157331Y307603D1*
X-156893Y305103D1*
X-156789Y302603D1*
X-156921Y300103D1*
X-158061Y297603D1*
X-162064Y295103D1*
X-168514Y292603D1*
X-176553Y290103D1*
X-221553Y347603D2*
X-224053Y345103D1*
X-226553Y342603D1*
X-216553Y347603D2*
Y345103D1*
Y342603D1*
Y340103D1*
Y337603D1*
Y335103D1*
Y332603D1*
Y330103D1*
Y327603D1*
Y325103D1*
Y322603D1*
Y320103D1*
Y317603D1*
Y315103D1*
Y312603D1*
Y310103D1*
Y307603D1*
Y305103D1*
Y302603D1*
Y300103D1*
Y297603D1*
Y295103D1*
Y292603D1*
Y290103D1*
Y287603D1*
Y285103D1*
Y282603D1*
X-251553Y302603D2*
X-252667Y300103D1*
X-254122Y297603D1*
X-258993Y295103D1*
X-266834Y292603D1*
X-276553Y290103D1*
X-241553Y302603D2*
X-241949Y300103D1*
X-242667Y297603D1*
X-243730Y295103D1*
X-245193Y292603D1*
X-247177Y290103D1*
X-249761Y287603D1*
X-252978Y285103D1*
X-256553Y282603D1*
X-191553Y300103D2*
X-190603Y297603D1*
X-189519Y295103D1*
X-188261Y292603D1*
X-186639Y290103D1*
X-184464Y287603D1*
X-181830Y285103D1*
X-179053Y282603D1*
X-181553Y300103D2*
X-180162Y297603D1*
X-176091Y295103D1*
X-169610Y292603D1*
X-161553Y290103D1*
X83710Y356037D2*
X77748Y353537D1*
X73104Y351037D1*
X69602Y348537D1*
X66947Y346037D1*
X64947Y343537D1*
X63430Y341037D1*
X62345Y338537D1*
X61635Y336037D1*
X61012Y333537D1*
X60280Y331037D1*
X59585Y328537D1*
X59129Y326037D1*
X58890Y323537D1*
X58781Y321037D1*
X58737Y318537D1*
X58720Y316037D1*
X58713Y313537D1*
X58721Y311037D1*
X58808Y308537D1*
X59126Y306037D1*
X59725Y303537D1*
X60376Y301037D1*
X60900Y298537D1*
X61460Y296037D1*
X62262Y293537D1*
X63363Y291037D1*
X64841Y288537D1*
X66830Y286037D1*
X69416Y283537D1*
X72634Y281037D1*
X76210Y278537D1*
X88710Y356037D2*
X94373Y353537D1*
X99043Y351037D1*
X102656Y348537D1*
X105395Y346037D1*
X107439Y343537D1*
X108977Y341037D1*
X110068Y338537D1*
X110737Y336037D1*
X111210Y333537D1*
X133710Y353537D2*
X130161Y351037D1*
X127361Y348537D1*
X125197Y346037D1*
X124426Y343537D1*
X123991Y341037D1*
X123710Y338537D1*
X143710Y353537D2*
Y351037D1*
Y348537D1*
Y346037D1*
Y343537D1*
Y341037D1*
Y338537D1*
Y336037D1*
Y333537D1*
Y331037D1*
Y328537D1*
Y326037D1*
Y323537D1*
Y321037D1*
Y318537D1*
Y316037D1*
Y313537D1*
Y311037D1*
Y308537D1*
Y306037D1*
Y303537D1*
Y301037D1*
Y298537D1*
Y296037D1*
Y293537D1*
Y291037D1*
Y288537D1*
Y286037D1*
Y283537D1*
Y281037D1*
Y278537D1*
X188710Y353537D2*
X187760Y351037D1*
X186686Y348537D1*
X185525Y346037D1*
X184310Y343537D1*
X183077Y341037D1*
X181841Y338537D1*
X180673Y336037D1*
X179662Y333537D1*
X178773Y331037D1*
X177803Y328537D1*
X176709Y326037D1*
X175535Y323537D1*
X174315Y321037D1*
X173079Y318537D1*
X171832Y316037D1*
X170585Y313537D1*
X169334Y311037D1*
X168086Y308537D1*
X166844Y306037D1*
X165684Y303537D1*
X164760Y301037D1*
X164199Y298537D1*
X163915Y296037D1*
X163785Y293537D1*
X163710Y291037D1*
X198710Y353537D2*
X197461Y351037D1*
X196413Y348537D1*
X195362Y346037D1*
X194232Y343537D1*
X193044Y341037D1*
X191818Y338537D1*
X190580Y336037D1*
X189332Y333537D1*
X188085Y331037D1*
X186834Y328537D1*
X185586Y326037D1*
X184344Y323537D1*
X183174Y321037D1*
X182162Y318537D1*
X181273Y316037D1*
X180303Y313537D1*
X179209Y311037D1*
X178027Y308537D1*
X176742Y306037D1*
X175296Y303537D1*
X173710Y301037D1*
X193710Y298537D1*
X78710Y346037D2*
X76305Y343537D1*
X74135Y341037D1*
X72332Y338537D1*
X70890Y336037D1*
X69841Y333537D1*
X69229Y331037D1*
X68927Y328537D1*
X68794Y326037D1*
X68741Y323537D1*
X68721Y321037D1*
X68714Y318537D1*
X68711Y316037D1*
X68710Y313537D1*
Y311037D1*
X68720Y308537D1*
X68808Y306037D1*
X69126Y303537D1*
X69735Y301037D1*
X70483Y298537D1*
X71482Y296037D1*
X72925Y293537D1*
X78144Y291037D1*
X86264Y288537D1*
X96210Y286037D1*
X88710Y346037D2*
X93123Y343537D1*
X96763Y341037D1*
X99483Y338537D1*
X101664Y336037D1*
X103710Y333537D1*
X131210Y343537D2*
X128710Y341037D1*
X126210Y338537D1*
X136210Y343537D2*
Y341037D1*
Y338537D1*
Y336037D1*
Y333537D1*
Y331037D1*
Y328537D1*
Y326037D1*
Y323537D1*
Y321037D1*
Y318537D1*
Y316037D1*
Y313537D1*
Y311037D1*
Y308537D1*
Y306037D1*
Y303537D1*
Y301037D1*
Y298537D1*
Y296037D1*
Y293537D1*
Y291037D1*
Y288537D1*
Y286037D1*
Y283537D1*
Y281037D1*
Y278537D1*
X198710Y321037D2*
Y318537D1*
Y316037D1*
Y313537D1*
Y311037D1*
Y308537D1*
Y306037D1*
Y303537D1*
Y301037D1*
X176210Y298537D1*
X206210Y321037D2*
Y318537D1*
Y316037D1*
Y313537D1*
Y311037D1*
Y308537D1*
Y306037D1*
Y303537D1*
Y301037D1*
Y298537D1*
X211210D1*
X211020Y296037D1*
X210605Y293537D1*
X209237Y291037D1*
X207912Y288537D1*
X207029Y286037D1*
X206562Y283537D1*
X206341Y281037D1*
X206210Y278537D1*
X101210Y298537D2*
X100097Y296037D1*
X98641Y293537D1*
X93771Y291037D1*
X85929Y288537D1*
X76210Y286037D1*
X111210Y298537D2*
X110814Y296037D1*
X110096Y293537D1*
X109033Y291037D1*
X107570Y288537D1*
X105587Y286037D1*
X103003Y283537D1*
X99785Y281037D1*
X96210Y278537D1*
X198710Y291037D2*
Y288537D1*
Y286037D1*
Y283537D1*
Y281037D1*
Y278537D1*
X304537Y351840D2*
X298575Y349340D1*
X293930Y346840D1*
X290428Y344340D1*
X287773Y341840D1*
X285774Y339340D1*
X284257Y336840D1*
X283171Y334340D1*
X282462Y331840D1*
X281838Y329340D1*
X281106Y326840D1*
X280412Y324340D1*
X279956Y321840D1*
X279717Y319340D1*
X279608Y316840D1*
X279563Y314340D1*
X279546Y311840D1*
X279540Y309340D1*
X279548Y306840D1*
X279635Y304340D1*
X279953Y301840D1*
X280552Y299340D1*
X281202Y296840D1*
X281726Y294340D1*
X282287Y291840D1*
X283089Y289340D1*
X284190Y286840D1*
X285668Y284340D1*
X287657Y281840D1*
X290243Y279340D1*
X293461Y276840D1*
X297037Y274340D1*
X309537Y351840D2*
X315199Y349340D1*
X319870Y346840D1*
X323482Y344340D1*
X326221Y341840D1*
X328266Y339340D1*
X329804Y336840D1*
X330895Y334340D1*
X331564Y331840D1*
X332037Y329340D1*
X354537Y349340D2*
X350988Y346840D1*
X348188Y344340D1*
X346024Y341840D1*
X345253Y339340D1*
X344818Y336840D1*
X344537Y334340D1*
X364537Y349340D2*
Y346840D1*
Y344340D1*
Y341840D1*
Y339340D1*
Y336840D1*
Y334340D1*
Y331840D1*
Y329340D1*
Y326840D1*
Y324340D1*
Y321840D1*
Y319340D1*
Y316840D1*
Y314340D1*
Y311840D1*
Y309340D1*
Y306840D1*
Y304340D1*
Y301840D1*
Y299340D1*
Y296840D1*
Y294340D1*
Y291840D1*
Y289340D1*
Y286840D1*
Y284340D1*
Y281840D1*
Y279340D1*
Y276840D1*
Y274340D1*
X387037Y349340D2*
Y346840D1*
Y344340D1*
Y341840D1*
Y339340D1*
Y336840D1*
Y334340D1*
Y331840D1*
Y329340D1*
Y326840D1*
Y324340D1*
Y321840D1*
Y319340D1*
Y316840D1*
Y314340D1*
Y311840D1*
X424537Y349340D2*
Y346840D1*
Y344340D1*
Y341840D1*
Y339340D1*
X397037D1*
Y336840D1*
Y334340D1*
Y331840D1*
Y329340D1*
Y326840D1*
X407605Y324340D1*
X415043Y321840D1*
X420451Y319340D1*
X422863Y316840D1*
X424633Y314340D1*
X425822Y311840D1*
X426489Y309340D1*
X426810Y306840D1*
X426949Y304340D1*
X427005Y301840D1*
X427025Y299340D1*
X427033Y296840D1*
X427026Y294340D1*
X426939Y291840D1*
X426611Y289340D1*
X425914Y286840D1*
X424857Y284340D1*
X423406Y281840D1*
X421520Y279340D1*
X419337Y276840D1*
X417037Y274340D1*
X299537Y341840D2*
X297132Y339340D1*
X294962Y336840D1*
X293159Y334340D1*
X291716Y331840D1*
X290667Y329340D1*
X290055Y326840D1*
X289753Y324340D1*
X289621Y321840D1*
X289568Y319340D1*
X289548Y316840D1*
X289540Y314340D1*
X289538Y311840D1*
X289537Y309340D1*
Y306840D1*
X289546Y304340D1*
X289634Y301840D1*
X289953Y299340D1*
X290561Y296840D1*
X291310Y294340D1*
X292309Y291840D1*
X293751Y289340D1*
X298971Y286840D1*
X307091Y284340D1*
X317037Y281840D1*
X309537Y341840D2*
X313950Y339340D1*
X317590Y336840D1*
X320310Y334340D1*
X322491Y331840D1*
X324537Y329340D1*
X352037Y339340D2*
X349537Y336840D1*
X347037Y334340D1*
X357037Y339340D2*
Y336840D1*
Y334340D1*
Y331840D1*
Y329340D1*
Y326840D1*
Y324340D1*
Y321840D1*
Y319340D1*
Y316840D1*
Y314340D1*
Y311840D1*
Y309340D1*
Y306840D1*
Y304340D1*
Y301840D1*
Y299340D1*
Y296840D1*
Y294340D1*
Y291840D1*
Y289340D1*
Y286840D1*
Y284340D1*
Y281840D1*
Y279340D1*
Y276840D1*
Y274340D1*
X402037Y316840D2*
X399537Y314340D1*
X397037Y311840D1*
X412037Y316840D2*
X414055Y314340D1*
X415605Y311840D1*
X416761Y309340D1*
X417766Y306840D1*
X418582Y304340D1*
X419079Y301840D1*
X419249Y299340D1*
X419045Y296840D1*
X418484Y294340D1*
X417715Y291840D1*
X416829Y289340D1*
X414201Y286840D1*
X407488Y284340D1*
X399537Y281840D1*
X322037Y294340D2*
X320923Y291840D1*
X319468Y289340D1*
X314597Y286840D1*
X306756Y284340D1*
X297037Y281840D1*
X332037Y294340D2*
X331641Y291840D1*
X330923Y289340D1*
X329860Y286840D1*
X328397Y284340D1*
X326413Y281840D1*
X323829Y279340D1*
X320612Y276840D1*
X317037Y274340D1*
X387037Y291840D2*
X387142Y289340D1*
X387560Y286840D1*
X388575Y284340D1*
X390231Y281840D1*
X392323Y279340D1*
X394640Y276840D1*
X397037Y274340D1*
X394537Y291840D2*
X395928Y289340D1*
X399999Y286840D1*
X406480Y284340D1*
X414537Y281840D1*
X505733Y353073D2*
X499771Y350573D1*
X495127Y348073D1*
X491625Y345573D1*
X488970Y343073D1*
X486971Y340573D1*
X485454Y338073D1*
X484368Y335573D1*
X483659Y333073D1*
X483035Y330573D1*
X482303Y328073D1*
X481609Y325573D1*
X481152Y323073D1*
X480913Y320573D1*
X480805Y318073D1*
X480760Y315573D1*
X480743Y313073D1*
X480737Y310573D1*
X480744Y308073D1*
X480831Y305573D1*
X481150Y303073D1*
X481748Y300573D1*
X482399Y298073D1*
X482923Y295573D1*
X483483Y293073D1*
X484286Y290573D1*
X485387Y288073D1*
X486864Y285573D1*
X488854Y283073D1*
X491440Y280573D1*
X494658Y278073D1*
X498233Y275573D1*
X510733Y353073D2*
X516396Y350573D1*
X521066Y348073D1*
X524679Y345573D1*
X527418Y343073D1*
X529462Y340573D1*
X531000Y338073D1*
X532091Y335573D1*
X532760Y333073D1*
X533233Y330573D1*
X555733Y350573D2*
X552184Y348073D1*
X549384Y345573D1*
X547220Y343073D1*
X546450Y340573D1*
X546014Y338073D1*
X545733Y335573D1*
X565733Y350573D2*
Y348073D1*
Y345573D1*
Y343073D1*
Y340573D1*
Y338073D1*
Y335573D1*
Y333073D1*
Y330573D1*
Y328073D1*
Y325573D1*
Y323073D1*
Y320573D1*
Y318073D1*
Y315573D1*
Y313073D1*
Y310573D1*
Y308073D1*
Y305573D1*
Y303073D1*
Y300573D1*
Y298073D1*
Y295573D1*
Y293073D1*
Y290573D1*
Y288073D1*
Y285573D1*
Y283073D1*
Y280573D1*
Y278073D1*
Y275573D1*
X605733Y350573D2*
X604783Y348073D1*
X603709Y345573D1*
X602548Y343073D1*
X601334Y340573D1*
X600101Y338073D1*
X598854Y335573D1*
X597608Y333073D1*
X596357Y330573D1*
X595109Y328073D1*
X593857Y325573D1*
X592609Y323073D1*
X591367Y320573D1*
X590197Y318073D1*
X589186Y315573D1*
X588306Y313073D1*
X587424Y310573D1*
X586658Y308073D1*
X586171Y305573D1*
X585920Y303073D1*
X585807Y300573D1*
X585761Y298073D1*
X585753Y295573D1*
X585834Y293073D1*
X586160Y290573D1*
X586856Y288073D1*
X587913Y285573D1*
X589364Y283073D1*
X591250Y280573D1*
X593433Y278073D1*
X595733Y275573D1*
X615733Y350573D2*
X614783Y348073D1*
X613709Y345573D1*
X612548Y343073D1*
X611334Y340573D1*
X610101Y338073D1*
X608854Y335573D1*
X607608Y333073D1*
X606357Y330573D1*
X605109Y328073D1*
X603865Y325573D1*
X602682Y323073D1*
X601641Y320573D1*
X600733Y318073D1*
X500733Y343073D2*
X498329Y340573D1*
X496159Y338073D1*
X494356Y335573D1*
X492913Y333073D1*
X491864Y330573D1*
X491252Y328073D1*
X490950Y325573D1*
X490818Y323073D1*
X490764Y320573D1*
X490744Y318073D1*
X490737Y315573D1*
X490735Y313073D1*
X490734Y310573D1*
X490733Y308073D1*
X490743Y305573D1*
X490831Y303073D1*
X491150Y300573D1*
X491758Y298073D1*
X492507Y295573D1*
X493505Y293073D1*
X494948Y290573D1*
X500167Y288073D1*
X508288Y285573D1*
X518233Y283073D1*
X510733Y343073D2*
X515147Y340573D1*
X518787Y338073D1*
X521506Y335573D1*
X523688Y333073D1*
X525733Y330573D1*
X553233Y340573D2*
X550733Y338073D1*
X548233Y335573D1*
X558233Y340573D2*
Y338073D1*
Y335573D1*
Y333073D1*
Y330573D1*
Y328073D1*
Y325573D1*
Y323073D1*
Y320573D1*
Y318073D1*
Y315573D1*
Y313073D1*
Y310573D1*
Y308073D1*
Y305573D1*
Y303073D1*
Y300573D1*
Y298073D1*
Y295573D1*
Y293073D1*
Y290573D1*
Y288073D1*
Y285573D1*
Y283073D1*
Y280573D1*
Y278073D1*
Y275573D1*
X605733Y320573D2*
X603233Y318073D1*
X610733Y320573D2*
X615446Y318073D1*
X619052Y315573D1*
X621582Y313073D1*
X623347Y310573D1*
X624526Y308073D1*
X625188Y305573D1*
X625507Y303073D1*
X625646Y300573D1*
X625701Y298073D1*
X625722Y295573D1*
X625720Y293073D1*
X625625Y290573D1*
X625209Y288073D1*
X624195Y285573D1*
X622539Y283073D1*
X620447Y280573D1*
X618130Y278073D1*
X615733Y275573D1*
X600733Y310573D2*
X598715Y308073D1*
X597165Y305573D1*
X596009Y303073D1*
X595014Y300573D1*
X594285Y298073D1*
X593889Y295573D1*
X594540Y293073D1*
X595537Y290573D1*
X598380Y288073D1*
X605199Y285573D1*
X613233Y283073D1*
X610733Y310573D2*
X612837Y308073D1*
X614620Y305573D1*
X616056Y303073D1*
X617103Y300573D1*
X617705Y298073D1*
X617909Y295573D1*
X617840Y293073D1*
X616717Y290573D1*
X612718Y288073D1*
X606271Y285573D1*
X598233Y283073D1*
X523233Y295573D2*
X522120Y293073D1*
X520664Y290573D1*
X515794Y288073D1*
X507952Y285573D1*
X498233Y283073D1*
X533233Y295573D2*
X532837Y293073D1*
X532120Y290573D1*
X531056Y288073D1*
X529594Y285573D1*
X527610Y283073D1*
X525026Y280573D1*
X521809Y278073D1*
X518233Y275573D1*
X-1000697Y594280D2*
X-1006659Y591780D1*
X-1011303Y589280D1*
X-1014805Y586780D1*
X-1017460Y584280D1*
X-1019459Y581780D1*
X-1020976Y579280D1*
X-1022062Y576780D1*
X-1022771Y574280D1*
X-1023395Y571780D1*
X-1024127Y569280D1*
X-1024821Y566780D1*
X-1025278Y564280D1*
X-1025517Y561780D1*
X-1025625Y559280D1*
X-1025670Y556780D1*
X-1025687Y554280D1*
X-1025693Y551780D1*
X-1025686Y549280D1*
X-1025599Y546780D1*
X-1025280Y544280D1*
X-1024682Y541780D1*
X-1024031Y539280D1*
X-1023507Y536780D1*
X-1022947Y534280D1*
X-1022144Y531780D1*
X-1021043Y529280D1*
X-1019566Y526780D1*
X-1017576Y524280D1*
X-1014990Y521780D1*
X-1011772Y519280D1*
X-1008197Y516780D1*
X-995697Y594280D2*
X-990034Y591780D1*
X-985364Y589280D1*
X-981751Y586780D1*
X-979012Y584280D1*
X-976968Y581780D1*
X-975430Y579280D1*
X-974339Y576780D1*
X-973670Y574280D1*
X-973197Y571780D1*
X-950697Y591780D2*
X-954246Y589280D1*
X-957046Y586780D1*
X-959210Y584280D1*
X-959980Y581780D1*
X-960416Y579280D1*
X-960697Y576780D1*
X-940697Y591780D2*
Y589280D1*
Y586780D1*
Y584280D1*
Y581780D1*
Y579280D1*
Y576780D1*
Y574280D1*
Y571780D1*
Y569280D1*
Y566780D1*
Y564280D1*
Y561780D1*
Y559280D1*
Y556780D1*
Y554280D1*
Y551780D1*
Y549280D1*
Y546780D1*
Y544280D1*
Y541780D1*
Y539280D1*
Y536780D1*
Y534280D1*
Y531780D1*
Y529280D1*
Y526780D1*
Y524280D1*
Y521780D1*
Y519280D1*
Y516780D1*
X-920697Y591780D2*
Y589280D1*
Y586780D1*
Y584280D1*
Y581780D1*
Y579280D1*
Y576780D1*
Y574280D1*
X-880697Y591780D2*
X-880706Y589280D1*
X-880794Y586780D1*
X-881113Y584280D1*
X-881721Y581780D1*
X-882450Y579280D1*
X-883205Y576780D1*
X-884045Y574280D1*
X-884880Y571780D1*
X-885679Y569280D1*
X-886526Y566780D1*
X-887289Y564280D1*
X-887859Y561780D1*
X-888427Y559280D1*
X-889148Y556780D1*
X-889923Y554280D1*
X-890695Y551780D1*
X-891532Y549280D1*
X-892291Y546780D1*
X-892860Y544280D1*
X-893427Y541780D1*
X-894148Y539280D1*
X-894923Y536780D1*
X-895695Y534280D1*
X-896542Y531780D1*
X-897379Y529280D1*
X-898178Y526780D1*
X-899026Y524280D1*
X-899786Y521780D1*
X-900308Y519280D1*
X-900697Y516780D1*
X-1005697Y584280D2*
X-1008101Y581780D1*
X-1010271Y579280D1*
X-1012074Y576780D1*
X-1013517Y574280D1*
X-1014566Y571780D1*
X-1015178Y569280D1*
X-1015480Y566780D1*
X-1015612Y564280D1*
X-1015666Y561780D1*
X-1015686Y559280D1*
X-1015693Y556780D1*
X-1015695Y554280D1*
X-1015696Y551780D1*
X-1015697Y549280D1*
X-1015687Y546780D1*
X-1015599Y544280D1*
X-1015280Y541780D1*
X-1014672Y539280D1*
X-1013923Y536780D1*
X-1012925Y534280D1*
X-1011482Y531780D1*
X-1006263Y529280D1*
X-998142Y526780D1*
X-988197Y524280D1*
X-995697Y584280D2*
X-991283Y581780D1*
X-987643Y579280D1*
X-984924Y576780D1*
X-982742Y574280D1*
X-980697Y571780D1*
X-913197Y584280D2*
Y581780D1*
Y579280D1*
Y576780D1*
Y574280D1*
X-888197Y584280D2*
X-890205Y581780D1*
X-891677Y579280D1*
X-892602Y576780D1*
X-893327Y574280D1*
X-894111Y571780D1*
X-894910Y569280D1*
X-895691Y566780D1*
X-896540Y564280D1*
X-897379Y561780D1*
X-898178Y559280D1*
X-899026Y556780D1*
X-899789Y554280D1*
X-900359Y551780D1*
X-900927Y549280D1*
X-901648Y546780D1*
X-902423Y544280D1*
X-903195Y541780D1*
X-904032Y539280D1*
X-904791Y536780D1*
X-905360Y534280D1*
X-905927Y531780D1*
X-906648Y529280D1*
X-907423Y526780D1*
X-908197Y524280D1*
X-909056Y521780D1*
X-909912Y519280D1*
X-910697Y516780D1*
X-953197Y581780D2*
X-955697Y579280D1*
X-958197Y576780D1*
X-948197Y581780D2*
Y579280D1*
Y576780D1*
Y574280D1*
Y571780D1*
Y569280D1*
Y566780D1*
Y564280D1*
Y561780D1*
Y559280D1*
Y556780D1*
Y554280D1*
Y551780D1*
Y549280D1*
Y546780D1*
Y544280D1*
Y541780D1*
Y539280D1*
Y536780D1*
Y534280D1*
Y531780D1*
Y529280D1*
Y526780D1*
Y524280D1*
Y521780D1*
Y519280D1*
Y516780D1*
X-983197Y536780D2*
X-984310Y534280D1*
X-985766Y531780D1*
X-990636Y529280D1*
X-998478Y526780D1*
X-1008197Y524280D1*
X-973197Y536780D2*
X-973593Y534280D1*
X-974310Y531780D1*
X-975374Y529280D1*
X-976836Y526780D1*
X-978820Y524280D1*
X-981404Y521780D1*
X-984621Y519280D1*
X-988197Y516780D1*
X-32707Y1576817D2*
Y1574317D1*
Y1571817D1*
Y1569317D1*
Y1566817D1*
Y1564317D1*
Y1561817D1*
Y1559317D1*
Y1556817D1*
Y1554317D1*
Y1551817D1*
Y1549317D1*
Y1546817D1*
Y1544317D1*
Y1541817D1*
Y1539317D1*
Y1536817D1*
Y1534317D1*
Y1531817D1*
Y1529317D1*
Y1526817D1*
X-32697Y1524317D1*
X-32609Y1521817D1*
X-32281Y1519317D1*
X-31584Y1516817D1*
X-30527Y1514317D1*
X-29066Y1511817D1*
X-27083Y1509317D1*
X-24499Y1506817D1*
X-21282Y1504317D1*
X-17707Y1501817D1*
X-25207Y1576817D2*
Y1574317D1*
Y1571817D1*
Y1569317D1*
Y1566817D1*
Y1564317D1*
Y1561817D1*
Y1559317D1*
Y1556817D1*
Y1554317D1*
Y1551817D1*
Y1549317D1*
Y1546817D1*
Y1544317D1*
Y1541817D1*
Y1539317D1*
Y1536817D1*
Y1534317D1*
X-25197Y1531817D1*
X-25109Y1529317D1*
X-24790Y1526817D1*
X-24182Y1524317D1*
X-23433Y1521817D1*
X-22435Y1519317D1*
X-20992Y1516817D1*
X-15773Y1514317D1*
X-7652Y1511817D1*
X2293Y1509317D1*
X9793Y1576817D2*
Y1574317D1*
Y1571817D1*
Y1569317D1*
Y1566817D1*
Y1564317D1*
Y1561817D1*
Y1559317D1*
Y1556817D1*
Y1554317D1*
Y1551817D1*
Y1549317D1*
Y1546817D1*
Y1544317D1*
Y1541817D1*
Y1539317D1*
Y1536817D1*
Y1534317D1*
Y1531817D1*
Y1529317D1*
X9784Y1526817D1*
X9686Y1524317D1*
X9260Y1521817D1*
X8451Y1519317D1*
X6233Y1516817D1*
X692Y1514317D1*
X-7625Y1511817D1*
X-17707Y1509317D1*
X19793Y1576817D2*
Y1574317D1*
Y1571817D1*
Y1569317D1*
Y1566817D1*
Y1564317D1*
Y1561817D1*
Y1559317D1*
Y1556817D1*
Y1554317D1*
Y1551817D1*
Y1549317D1*
Y1546817D1*
Y1544317D1*
Y1541817D1*
Y1539317D1*
Y1536817D1*
Y1534317D1*
Y1531817D1*
X19784Y1529317D1*
X19696Y1526817D1*
X19377Y1524317D1*
X18769Y1521817D1*
X18040Y1519317D1*
X17275Y1516817D1*
X16347Y1514317D1*
X15174Y1511817D1*
X13584Y1509317D1*
X11295Y1506817D1*
X8251Y1504317D1*
X4793Y1501817D1*
X44793Y1576817D2*
X41244Y1574317D1*
X38444Y1571817D1*
X36280Y1569317D1*
X35510Y1566817D1*
X35074Y1564317D1*
X34793Y1561817D1*
X54793Y1576817D2*
Y1574317D1*
Y1571817D1*
Y1569317D1*
Y1566817D1*
Y1564317D1*
Y1561817D1*
Y1559317D1*
Y1556817D1*
Y1554317D1*
Y1551817D1*
Y1549317D1*
Y1546817D1*
Y1544317D1*
Y1541817D1*
Y1539317D1*
Y1536817D1*
Y1534317D1*
Y1531817D1*
Y1529317D1*
Y1526817D1*
Y1524317D1*
Y1521817D1*
Y1519317D1*
Y1516817D1*
Y1514317D1*
Y1511817D1*
Y1509317D1*
Y1506817D1*
Y1504317D1*
Y1501817D1*
X42293Y1566817D2*
X39793Y1564317D1*
X37293Y1561817D1*
X47293Y1566817D2*
Y1564317D1*
Y1561817D1*
Y1559317D1*
Y1556817D1*
Y1554317D1*
Y1551817D1*
Y1549317D1*
Y1546817D1*
Y1544317D1*
Y1541817D1*
Y1539317D1*
Y1536817D1*
Y1534317D1*
Y1531817D1*
Y1529317D1*
Y1526817D1*
Y1524317D1*
Y1521817D1*
Y1519317D1*
Y1516817D1*
Y1514317D1*
Y1511817D1*
Y1509317D1*
Y1506817D1*
Y1504317D1*
Y1501817D1*
X-9570Y1152870D2*
X-14368Y1150370D1*
X-18216Y1147870D1*
X-21115Y1145370D1*
X-23241Y1142870D1*
X-24814Y1140370D1*
X-25920Y1137870D1*
X-26594Y1135370D1*
X-27070Y1132870D1*
X-4570Y1152870D2*
X1382Y1150370D1*
X5939Y1147870D1*
X9122Y1145370D1*
X11178Y1142870D1*
X12537Y1140370D1*
X13608Y1137870D1*
X14364Y1135370D1*
X14772Y1132870D1*
X14266Y1130370D1*
X13614Y1127870D1*
X12887Y1125370D1*
X11975Y1122870D1*
X10827Y1120370D1*
X9422Y1117870D1*
X7837Y1115370D1*
X6232Y1112870D1*
X4512Y1110370D1*
X2589Y1107870D1*
X659Y1105370D1*
X-1129Y1102870D1*
X-2932Y1100370D1*
X-4890Y1097870D1*
X-6833Y1095370D1*
X-8626Y1092870D1*
X-10441Y1090370D1*
X-12486Y1087870D1*
X-14734Y1085370D1*
X-17070Y1082870D1*
X-97070Y1150370D2*
Y1147870D1*
Y1145370D1*
Y1142870D1*
Y1140370D1*
Y1137870D1*
Y1135370D1*
Y1132870D1*
Y1130370D1*
Y1127870D1*
Y1125370D1*
Y1122870D1*
Y1120370D1*
Y1117870D1*
Y1115370D1*
Y1112870D1*
Y1110370D1*
Y1107870D1*
Y1105370D1*
Y1102870D1*
Y1100370D1*
X-97060Y1097870D1*
X-96972Y1095370D1*
X-96644Y1092870D1*
X-95948Y1090370D1*
X-94890Y1087870D1*
X-93430Y1085370D1*
X-91447Y1082870D1*
X-88863Y1080370D1*
X-85645Y1077870D1*
X-82070Y1075370D1*
X-89570Y1150370D2*
Y1147870D1*
Y1145370D1*
Y1142870D1*
Y1140370D1*
Y1137870D1*
Y1135370D1*
Y1132870D1*
Y1130370D1*
Y1127870D1*
Y1125370D1*
Y1122870D1*
Y1120370D1*
Y1117870D1*
Y1115370D1*
Y1112870D1*
Y1110370D1*
Y1107870D1*
X-89560Y1105370D1*
X-89472Y1102870D1*
X-89154Y1100370D1*
X-88545Y1097870D1*
X-87797Y1095370D1*
X-86798Y1092870D1*
X-85355Y1090370D1*
X-80136Y1087870D1*
X-72016Y1085370D1*
X-62070Y1082870D1*
X-54570Y1150370D2*
Y1147870D1*
Y1145370D1*
Y1142870D1*
Y1140370D1*
Y1137870D1*
Y1135370D1*
Y1132870D1*
Y1130370D1*
Y1127870D1*
Y1125370D1*
Y1122870D1*
Y1120370D1*
Y1117870D1*
Y1115370D1*
Y1112870D1*
Y1110370D1*
Y1107870D1*
Y1105370D1*
Y1102870D1*
X-54580Y1100370D1*
X-54677Y1097870D1*
X-55103Y1095370D1*
X-55913Y1092870D1*
X-58131Y1090370D1*
X-63671Y1087870D1*
X-71989Y1085370D1*
X-82070Y1082870D1*
X-44570Y1150370D2*
Y1147870D1*
Y1145370D1*
Y1142870D1*
Y1140370D1*
Y1137870D1*
Y1135370D1*
Y1132870D1*
Y1130370D1*
Y1127870D1*
Y1125370D1*
Y1122870D1*
Y1120370D1*
Y1117870D1*
Y1115370D1*
Y1112870D1*
Y1110370D1*
Y1107870D1*
Y1105370D1*
X-44580Y1102870D1*
X-44668Y1100370D1*
X-44986Y1097870D1*
X-45595Y1095370D1*
X-46324Y1092870D1*
X-47088Y1090370D1*
X-48016Y1087870D1*
X-49189Y1085370D1*
X-50779Y1082870D1*
X-53068Y1080370D1*
X-56112Y1077870D1*
X-59570Y1075370D1*
X-12070Y1142870D2*
X-14182Y1140370D1*
X-16041Y1137870D1*
X-17791Y1135370D1*
X-19570Y1132870D1*
X2930Y1142870D2*
X3316Y1140370D1*
X3936Y1137870D1*
X4574Y1135370D1*
X4924Y1132870D1*
X4828Y1130370D1*
X4237Y1127870D1*
X3234Y1125370D1*
X1888Y1122870D1*
X324Y1120370D1*
X-1273Y1117870D1*
X-2989Y1115370D1*
X-4912Y1112870D1*
X-6841Y1110370D1*
X-8629Y1107870D1*
X-10432Y1105370D1*
X-12390Y1102870D1*
X-14333Y1100370D1*
X-16126Y1097870D1*
X-17931Y1095370D1*
X-19890Y1092870D1*
X-21823Y1090370D1*
X-23519Y1087870D1*
X-24917Y1085370D1*
X-25949Y1082870D1*
X-26557Y1080370D1*
X-26872Y1077870D1*
X-27070Y1075370D1*
X15430Y1082870D2*
Y1080370D1*
Y1077870D1*
Y1075370D1*
X1021183Y-753520D2*
D13*
X1013646Y-756853D1*
X1007523Y-760187D1*
X1003027Y-763520D1*
X999866Y-766853D1*
X997608Y-770187D1*
X995966Y-773520D1*
X994678Y-776853D1*
X993461Y-780187D1*
X992424Y-783520D1*
X991770Y-786853D1*
X991433Y-790187D1*
X991282Y-793520D1*
X991220Y-796853D1*
X991196Y-800187D1*
X991188Y-803520D1*
X991185Y-806853D1*
X991197Y-810187D1*
X991314Y-813520D1*
X991751Y-816853D1*
X992667Y-820187D1*
X993959Y-823520D1*
X995469Y-826853D1*
X997201Y-830187D1*
X999407Y-833520D1*
X1002537Y-836853D1*
X1006831Y-840187D1*
X1012122Y-843520D1*
X1017850Y-846853D1*
X1054517Y-753520D2*
X1059133Y-756853D1*
X1062551Y-760187D1*
X1063595Y-763520D1*
X1064137Y-766853D1*
X1064372Y-770187D1*
X1064465Y-773520D1*
X1064499Y-776853D1*
X1064511Y-780187D1*
X1064515Y-783520D1*
X1064516Y-786853D1*
Y-790187D1*
X1064517Y-793520D1*
Y-796853D1*
Y-800187D1*
Y-803520D1*
Y-806853D1*
Y-810187D1*
Y-813520D1*
Y-816853D1*
Y-820187D1*
Y-823520D1*
Y-826853D1*
Y-830187D1*
Y-833520D1*
Y-836853D1*
Y-840187D1*
Y-843520D1*
Y-846853D1*
X1094517Y-753520D2*
Y-756853D1*
Y-760187D1*
Y-763520D1*
Y-766853D1*
Y-770187D1*
Y-773520D1*
Y-776853D1*
Y-780187D1*
Y-783520D1*
Y-786853D1*
Y-790187D1*
Y-793520D1*
Y-796853D1*
Y-800187D1*
Y-803520D1*
Y-806853D1*
Y-810187D1*
Y-813520D1*
Y-816853D1*
Y-820187D1*
Y-823520D1*
Y-826853D1*
Y-830187D1*
Y-833520D1*
Y-836853D1*
Y-840187D1*
Y-843520D1*
Y-846853D1*
X1107850Y-753520D2*
Y-756853D1*
Y-760187D1*
X1107863Y-763520D1*
X1107993Y-766853D1*
X1108548Y-770187D1*
X1109889Y-773520D1*
X1111979Y-776853D1*
X1114344Y-780187D1*
X1116644Y-783520D1*
X1119029Y-786853D1*
X1121746Y-790187D1*
X1124758Y-793520D1*
X1127946Y-796853D1*
X1131219Y-800187D1*
X1134529Y-803520D1*
X1137854Y-806853D1*
X1141185Y-810187D1*
X1144530Y-813520D1*
X1147990Y-816853D1*
X1151838Y-820187D1*
X1156311Y-823520D1*
X1161183Y-826853D1*
Y-753520D2*
Y-756853D1*
Y-760187D1*
Y-763520D1*
Y-766853D1*
Y-770187D1*
Y-773520D1*
Y-776853D1*
Y-780187D1*
Y-783520D1*
Y-786853D1*
Y-790187D1*
Y-793520D1*
Y-796853D1*
Y-800187D1*
Y-803520D1*
Y-806853D1*
Y-810187D1*
X1161170Y-813520D1*
X1161043Y-816853D1*
X1160528Y-820187D1*
X1159389Y-823520D1*
X1157850Y-826853D1*
X1174517Y-753520D2*
Y-756853D1*
Y-760187D1*
Y-763520D1*
Y-766853D1*
Y-770187D1*
Y-773520D1*
Y-776853D1*
Y-780187D1*
Y-783520D1*
Y-786853D1*
Y-790187D1*
Y-793520D1*
Y-796853D1*
Y-800187D1*
Y-803520D1*
Y-806853D1*
Y-810187D1*
Y-813520D1*
Y-816853D1*
Y-820187D1*
Y-823520D1*
Y-826853D1*
Y-830187D1*
Y-833520D1*
Y-836853D1*
Y-840187D1*
Y-843520D1*
Y-846853D1*
X1217850Y-753520D2*
X1211695Y-756853D1*
X1207137Y-760187D1*
X1205746Y-763520D1*
X1205023Y-766853D1*
X1204709Y-770187D1*
X1204586Y-773520D1*
X1204541Y-776853D1*
X1204525Y-780187D1*
X1204519Y-783520D1*
X1204517Y-786853D1*
Y-790187D1*
Y-793520D1*
Y-796853D1*
Y-800187D1*
Y-803520D1*
X1254517Y-753520D2*
X1261316Y-756853D1*
X1266950Y-760187D1*
X1271199Y-763520D1*
X1274253Y-766853D1*
X1276560Y-770187D1*
X1278395Y-773520D1*
X1279852Y-776853D1*
X1281065Y-780187D1*
X1282255Y-783520D1*
X1283281Y-786853D1*
X1283932Y-790187D1*
X1284267Y-793520D1*
X1284418Y-796853D1*
X1284480Y-800187D1*
X1284491Y-803520D1*
X1284382Y-806853D1*
X1283960Y-810187D1*
X1283150Y-813520D1*
X1282178Y-816853D1*
X1281159Y-820187D1*
X1279922Y-823520D1*
X1278371Y-826853D1*
X1276377Y-830187D1*
X1273812Y-833520D1*
X1270619Y-836853D1*
X1266429Y-840187D1*
X1260889Y-843520D1*
X1254517Y-846853D1*
X1027850Y-760187D2*
X1021851Y-763520D1*
X1016699Y-766853D1*
X1012791Y-770187D1*
X1010153Y-773520D1*
X1008368Y-776853D1*
X1006933Y-780187D1*
X1005808Y-783520D1*
X1005121Y-786853D1*
X1004773Y-790187D1*
X1004617Y-793520D1*
X1004554Y-796853D1*
X1004530Y-800187D1*
X1004521Y-803520D1*
X1004518Y-806853D1*
X1004530Y-810187D1*
X1004647Y-813520D1*
X1005085Y-816853D1*
X1006013Y-820187D1*
X1007436Y-823520D1*
X1009605Y-826853D1*
X1012586Y-830187D1*
X1021808Y-833520D1*
X1036414Y-836853D1*
X1054517Y-840187D1*
X1051183Y-760187D2*
Y-763520D1*
Y-766853D1*
Y-770187D1*
Y-773520D1*
Y-776853D1*
Y-780187D1*
Y-783520D1*
Y-786853D1*
Y-790187D1*
Y-793520D1*
Y-796853D1*
Y-800187D1*
Y-803520D1*
Y-806853D1*
Y-810187D1*
Y-813520D1*
Y-816853D1*
Y-820187D1*
Y-823520D1*
Y-826853D1*
Y-830187D1*
Y-833520D1*
Y-836853D1*
X1024517Y-840187D1*
X1224517Y-760187D2*
X1221838Y-763520D1*
X1219889Y-766853D1*
X1218773Y-770187D1*
X1218231Y-773520D1*
X1217997Y-776853D1*
X1217904Y-780187D1*
X1217869Y-783520D1*
X1217856Y-786853D1*
X1217852Y-790187D1*
X1217851Y-793520D1*
X1217850Y-796853D1*
X1237850D1*
Y-800187D1*
Y-803520D1*
X1247850Y-760187D2*
X1253735Y-763520D1*
X1258577Y-766853D1*
X1262098Y-770187D1*
X1264563Y-773520D1*
X1266208Y-776853D1*
X1267235Y-780187D1*
X1268097Y-783520D1*
X1269085Y-786853D1*
X1270014Y-790187D1*
X1270624Y-793520D1*
X1270943Y-796853D1*
X1271075Y-800187D1*
X1271018Y-803520D1*
X1270616Y-806853D1*
X1269826Y-810187D1*
X1268961Y-813520D1*
X1268250Y-816853D1*
X1267386Y-820187D1*
X1265879Y-823520D1*
X1263352Y-826853D1*
X1259956Y-830187D1*
X1249427Y-833520D1*
X1232428Y-836853D1*
X1211183Y-840187D1*
X1107850Y-793520D2*
Y-796853D1*
Y-800187D1*
Y-803520D1*
Y-806853D1*
Y-810187D1*
Y-813520D1*
Y-816853D1*
Y-820187D1*
Y-823520D1*
Y-826853D1*
Y-830187D1*
Y-833520D1*
Y-836853D1*
Y-840187D1*
Y-843520D1*
Y-846853D1*
X1111183Y-793520D2*
X1114517Y-796853D1*
X1117850Y-800187D1*
X1121183Y-803520D1*
X1124517Y-806853D1*
X1127850Y-810187D1*
X1131183Y-813520D1*
X1134504Y-816853D1*
X1137720Y-820187D1*
X1140628Y-823520D1*
X1143163Y-826853D1*
X1145642Y-830187D1*
X1148394Y-833520D1*
X1151418Y-836853D1*
X1154610Y-840187D1*
X1157883Y-843520D1*
X1161183Y-846853D1*
X1207850Y-836853D2*
X1208709Y-840187D1*
X1211323Y-843520D1*
X1214517Y-846853D1*
Y-836853D2*
X1217850Y-840187D1*
X-1225483Y-751780D2*
X-1233021Y-755113D1*
X-1239144Y-758447D1*
X-1243640Y-761780D1*
X-1246801Y-765113D1*
X-1249059Y-768447D1*
X-1250701Y-771780D1*
X-1251989Y-775113D1*
X-1253206Y-778447D1*
X-1254243Y-781780D1*
X-1254897Y-785113D1*
X-1255234Y-788447D1*
X-1255385Y-791780D1*
X-1255447Y-795113D1*
X-1255470Y-798447D1*
X-1255479Y-801780D1*
X-1255482Y-805113D1*
X-1255470Y-808447D1*
X-1255353Y-811780D1*
X-1254915Y-815113D1*
X-1254000Y-818447D1*
X-1252707Y-821780D1*
X-1251197Y-825113D1*
X-1249466Y-828447D1*
X-1247259Y-831780D1*
X-1244130Y-835113D1*
X-1239836Y-838447D1*
X-1234545Y-841780D1*
X-1228817Y-845113D1*
X-1192150Y-751780D2*
X-1187534Y-755113D1*
X-1184115Y-758447D1*
X-1183072Y-761780D1*
X-1182530Y-765113D1*
X-1182294Y-768447D1*
X-1182202Y-771780D1*
X-1182168Y-775113D1*
X-1182156Y-778447D1*
X-1182152Y-781780D1*
X-1182151Y-785113D1*
X-1182150Y-788447D1*
Y-791780D1*
Y-795113D1*
Y-798447D1*
Y-801780D1*
Y-805113D1*
Y-808447D1*
Y-811780D1*
Y-815113D1*
Y-818447D1*
Y-821780D1*
Y-825113D1*
Y-828447D1*
Y-831780D1*
Y-835113D1*
Y-838447D1*
Y-841780D1*
Y-845113D1*
X-1125483Y-751780D2*
X-1133021Y-755113D1*
X-1139144Y-758447D1*
X-1143640Y-761780D1*
X-1146801Y-765113D1*
X-1149059Y-768447D1*
X-1150701Y-771780D1*
X-1151989Y-775113D1*
X-1153206Y-778447D1*
X-1154243Y-781780D1*
X-1154897Y-785113D1*
X-1155234Y-788447D1*
X-1155385Y-791780D1*
X-1155447Y-795113D1*
X-1155470Y-798447D1*
X-1155479Y-801780D1*
X-1155482Y-805113D1*
X-1155470Y-808447D1*
X-1155353Y-811780D1*
X-1154915Y-815113D1*
X-1154000Y-818447D1*
X-1152707Y-821780D1*
X-1151197Y-825113D1*
X-1149466Y-828447D1*
X-1147259Y-831780D1*
X-1144130Y-835113D1*
X-1139836Y-838447D1*
X-1134545Y-841780D1*
X-1128817Y-845113D1*
X-1092150Y-751780D2*
X-1087534Y-755113D1*
X-1084115Y-758447D1*
X-1083072Y-761780D1*
X-1082530Y-765113D1*
X-1082294Y-768447D1*
X-1082202Y-771780D1*
X-1082168Y-775113D1*
X-1082156Y-778447D1*
X-1082152Y-781780D1*
X-1082151Y-785113D1*
X-1082150Y-788447D1*
Y-791780D1*
Y-795113D1*
Y-798447D1*
Y-801780D1*
Y-805113D1*
Y-808447D1*
Y-811780D1*
Y-815113D1*
Y-818447D1*
Y-821780D1*
Y-825113D1*
Y-828447D1*
Y-831780D1*
Y-835113D1*
Y-838447D1*
Y-841780D1*
Y-845113D1*
X-1028817Y-751780D2*
X-1030083Y-755113D1*
X-1031516Y-758447D1*
X-1033064Y-761780D1*
X-1034683Y-765113D1*
X-1036327Y-768447D1*
X-1037989Y-771780D1*
X-1039650Y-775113D1*
X-1041318Y-778447D1*
X-1042982Y-781780D1*
X-1044638Y-785113D1*
X-1046198Y-788447D1*
X-1047547Y-791780D1*
X-1048720Y-795113D1*
X-1049908Y-798447D1*
X-1051047Y-801780D1*
X-1052121Y-805113D1*
X-1053267Y-808447D1*
X-1054390Y-811780D1*
X-1055458Y-815113D1*
X-1056589Y-818447D1*
X-1057606Y-821780D1*
X-1058366Y-825113D1*
X-1059124Y-828447D1*
X-1060072Y-831780D1*
X-1060988Y-835113D1*
X-1061596Y-838447D1*
X-1061931Y-841780D1*
X-1062150Y-845113D1*
X-1012150Y-751780D2*
X-1011622Y-755113D1*
X-1010678Y-758447D1*
X-1009390Y-761780D1*
X-1007995Y-765113D1*
X-1006714Y-768447D1*
X-1005566Y-771780D1*
X-1004387Y-775113D1*
X-1003251Y-778447D1*
X-1002165Y-781780D1*
X-1000915Y-785113D1*
X-999485Y-788447D1*
X-998031Y-791780D1*
X-996726Y-795113D1*
X-995570Y-798447D1*
X-994388Y-801780D1*
X-993252Y-805113D1*
X-992165Y-808447D1*
X-990915Y-811780D1*
X-989485Y-815113D1*
X-988031Y-818447D1*
X-986726Y-821780D1*
X-985570Y-825113D1*
X-984388Y-828447D1*
X-983252Y-831780D1*
X-982176Y-835113D1*
X-981014Y-838447D1*
X-979866Y-841780D1*
X-978817Y-845113D1*
X-1218817Y-758447D2*
X-1224815Y-761780D1*
X-1229968Y-765113D1*
X-1233875Y-768447D1*
X-1236514Y-771780D1*
X-1238298Y-775113D1*
X-1239734Y-778447D1*
X-1240858Y-781780D1*
X-1241546Y-785113D1*
X-1241894Y-788447D1*
X-1242049Y-791780D1*
X-1242113Y-795113D1*
X-1242137Y-798447D1*
X-1242145Y-801780D1*
X-1242148Y-805113D1*
X-1242136Y-808447D1*
X-1242020Y-811780D1*
X-1241582Y-815113D1*
X-1240653Y-818447D1*
X-1239231Y-821780D1*
X-1237062Y-825113D1*
X-1234081Y-828447D1*
X-1224859Y-831780D1*
X-1210253Y-835113D1*
X-1192150Y-838447D1*
X-1195483Y-758447D2*
Y-761780D1*
Y-765113D1*
Y-768447D1*
Y-771780D1*
Y-775113D1*
Y-778447D1*
Y-781780D1*
Y-785113D1*
Y-788447D1*
Y-791780D1*
Y-795113D1*
Y-798447D1*
Y-801780D1*
Y-805113D1*
Y-808447D1*
Y-811780D1*
Y-815113D1*
Y-818447D1*
Y-821780D1*
Y-825113D1*
Y-828447D1*
Y-831780D1*
Y-835113D1*
X-1222150Y-838447D1*
X-1118817Y-758447D2*
X-1124815Y-761780D1*
X-1129968Y-765113D1*
X-1133875Y-768447D1*
X-1136514Y-771780D1*
X-1138298Y-775113D1*
X-1139734Y-778447D1*
X-1140858Y-781780D1*
X-1141546Y-785113D1*
X-1141894Y-788447D1*
X-1142049Y-791780D1*
X-1142113Y-795113D1*
X-1142137Y-798447D1*
X-1142145Y-801780D1*
X-1142148Y-805113D1*
X-1142136Y-808447D1*
X-1142020Y-811780D1*
X-1141582Y-815113D1*
X-1140653Y-818447D1*
X-1139231Y-821780D1*
X-1137062Y-825113D1*
X-1134081Y-828447D1*
X-1124859Y-831780D1*
X-1110253Y-835113D1*
X-1092150Y-838447D1*
X-1095483Y-758447D2*
Y-761780D1*
Y-765113D1*
Y-768447D1*
Y-771780D1*
Y-775113D1*
Y-778447D1*
Y-781780D1*
Y-785113D1*
Y-788447D1*
Y-791780D1*
Y-795113D1*
Y-798447D1*
Y-801780D1*
Y-805113D1*
Y-808447D1*
Y-811780D1*
Y-815113D1*
Y-818447D1*
Y-821780D1*
Y-825113D1*
Y-828447D1*
Y-831780D1*
Y-835113D1*
X-1122150Y-838447D1*
X-1025483Y-765113D2*
X-1026011Y-768447D1*
X-1026955Y-771780D1*
X-1028256Y-775113D1*
X-1029755Y-778447D1*
X-1031345Y-781780D1*
X-1032879Y-785113D1*
X-1034218Y-788447D1*
X-1035401Y-791780D1*
X-1036693Y-795113D1*
X-1038139Y-798447D1*
X-1039599Y-801780D1*
X-1040906Y-805113D1*
X-1042063Y-808447D1*
X-1043232Y-811780D1*
X-1044265Y-815113D1*
X-1045030Y-818447D1*
X-1045789Y-821780D1*
X-1046738Y-825113D1*
X-1047668Y-828447D1*
X-1048390Y-831780D1*
X-1049135Y-835113D1*
X-1050106Y-838447D1*
X-1051159Y-841780D1*
X-1052150Y-845113D1*
X-1018817Y-765113D2*
X-1018690Y-768447D1*
X-1018249Y-771780D1*
X-1017333Y-775113D1*
X-1016054Y-778447D1*
X-1014661Y-781780D1*
X-1013380Y-785113D1*
X-1012232Y-788447D1*
X-1011054Y-791780D1*
X-1009918Y-795113D1*
X-1008845Y-798447D1*
X-1007699Y-801780D1*
X-1006577Y-805113D1*
X-1005496Y-808447D1*
X-1004248Y-811780D1*
X-1002818Y-815113D1*
X-1001364Y-818447D1*
X-1000060Y-821780D1*
X-998904Y-825113D1*
X-997722Y-828447D1*
X-996585Y-831780D1*
X-995509Y-835113D1*
X-994348Y-838447D1*
X-993199Y-841780D1*
X-992150Y-845113D1*
X-229968Y1773755D2*
D12*
X-235522Y1769945D1*
X-240292Y1766135D1*
X-244155Y1762325D1*
X-247150Y1758515D1*
X-249463Y1754705D1*
X-251233Y1750895D1*
X-252665Y1747085D1*
X-254042Y1743275D1*
X-255223Y1739465D1*
X-255969Y1735655D1*
X-256353Y1731845D1*
X-256525Y1728035D1*
X-256596Y1724225D1*
X-256623Y1720415D1*
X-256633Y1716605D1*
X-256636Y1712795D1*
X-256637Y1708985D1*
X-256638Y1705175D1*
X-256623Y1701365D1*
X-256489Y1697555D1*
X-256004Y1693745D1*
X-255076Y1689935D1*
X-253965Y1686125D1*
X-252801Y1682315D1*
X-251386Y1678505D1*
X-249613Y1674695D1*
X-247320Y1670885D1*
X-244272Y1667075D1*
X-240325Y1663265D1*
X-235418Y1659455D1*
X-229968Y1655645D1*
X-199488Y1773755D2*
X-192762Y1769945D1*
X-187227Y1766135D1*
X-183188Y1762325D1*
X-180237Y1758515D1*
X-177885Y1754705D1*
X-175933Y1750895D1*
X-174441Y1747085D1*
X-173427Y1743275D1*
X-172502Y1739465D1*
X-171395Y1735655D1*
X-170340Y1731845D1*
X-169646Y1728035D1*
X-169282Y1724225D1*
X-169117Y1720415D1*
X-169049Y1716605D1*
X-169022Y1712795D1*
X-169028Y1708985D1*
X-169158Y1705175D1*
X-169643Y1701365D1*
X-170555Y1697555D1*
X-171547Y1693745D1*
X-172345Y1689935D1*
X-173199Y1686125D1*
X-174407Y1682315D1*
X-175951Y1678505D1*
X-177717Y1674695D1*
X-179840Y1670885D1*
X-182850Y1667075D1*
X-187325Y1663265D1*
X-193115Y1659455D1*
X-199488Y1655645D1*
X-111858Y1773755D2*
X-119185Y1769945D1*
X-125169Y1766135D1*
X-129938Y1762325D1*
X-133604Y1758515D1*
X-136476Y1754705D1*
X-137530Y1750895D1*
X-138103Y1747085D1*
X-138361Y1743275D1*
X-138466Y1739465D1*
X-138491Y1735655D1*
X-138372Y1731845D1*
X-137876Y1728035D1*
X-136802Y1724225D1*
X-135042Y1720415D1*
X-132715Y1716605D1*
X-127590Y1712795D1*
X-120441Y1708985D1*
X-111051Y1705175D1*
X-100428Y1701365D1*
X-104238Y1697555D1*
X-108048Y1693745D1*
X-111858Y1689935D1*
X-115668Y1686125D1*
X-119478Y1682315D1*
X-123273Y1678505D1*
X-126934Y1674695D1*
X-130110Y1670885D1*
X-132373Y1667075D1*
X-133663Y1663265D1*
X-134315Y1659455D1*
X-134718Y1655645D1*
X-73758Y1773755D2*
X-68481Y1769945D1*
X-64572Y1766135D1*
X-63287Y1762325D1*
X-62328Y1758515D1*
X-28038Y1773755D2*
X-31556Y1769945D1*
X-34162Y1766135D1*
X-35019Y1762325D1*
X-35658Y1758515D1*
X10062Y1773755D2*
X18677Y1769945D1*
X25676Y1766135D1*
X30815Y1762325D1*
X34443Y1758515D1*
X37143Y1754705D1*
X39371Y1750895D1*
X41270Y1747085D1*
X42726Y1743275D1*
X43613Y1739465D1*
X44184Y1735655D1*
X44862Y1731845D1*
X45853Y1728035D1*
X46860Y1724225D1*
X47535Y1720415D1*
X47877Y1716605D1*
X47906Y1712795D1*
X47487Y1708985D1*
X46601Y1705175D1*
X45633Y1701365D1*
X44957Y1697555D1*
X44471Y1693745D1*
X43809Y1689935D1*
X42696Y1686125D1*
X41193Y1682315D1*
X39458Y1678505D1*
X37475Y1674695D1*
X34938Y1670885D1*
X31215Y1667075D1*
X25718Y1663265D1*
X18368Y1659455D1*
X10062Y1655645D1*
X135792Y1773755D2*
Y1769945D1*
Y1766135D1*
Y1762325D1*
Y1758515D1*
Y1754705D1*
Y1750895D1*
Y1747085D1*
Y1743275D1*
Y1739465D1*
Y1735655D1*
X113548Y1731845D1*
X97637Y1728035D1*
X87533Y1724225D1*
X80373Y1720415D1*
X77064Y1716605D1*
X74555Y1712795D1*
X72824Y1708985D1*
X71840Y1705175D1*
X71361Y1701365D1*
X71154Y1697555D1*
X71070Y1693745D1*
X71054Y1689935D1*
X71177Y1686125D1*
X71673Y1682315D1*
X72733Y1678505D1*
X74344Y1674695D1*
X76585Y1670885D1*
X79752Y1667075D1*
X84279Y1663265D1*
X90485Y1659455D1*
X97692Y1655645D1*
X154842Y1773755D2*
Y1769945D1*
Y1766135D1*
Y1762325D1*
Y1758515D1*
Y1754705D1*
Y1750895D1*
Y1747085D1*
Y1743275D1*
Y1739465D1*
Y1735655D1*
Y1731845D1*
Y1728035D1*
Y1724225D1*
Y1720415D1*
Y1716605D1*
Y1712795D1*
Y1708985D1*
Y1705175D1*
Y1701365D1*
Y1697555D1*
Y1693745D1*
Y1689935D1*
Y1686125D1*
Y1682315D1*
Y1678505D1*
Y1674695D1*
Y1670885D1*
Y1667075D1*
Y1663265D1*
Y1659455D1*
Y1655645D1*
X238662Y1773755D2*
Y1769945D1*
Y1766135D1*
Y1762325D1*
Y1758515D1*
Y1754705D1*
Y1750895D1*
Y1747085D1*
Y1743275D1*
Y1739465D1*
Y1735655D1*
Y1731845D1*
Y1728035D1*
Y1724225D1*
Y1720415D1*
X253902Y1773755D2*
Y1769945D1*
Y1766135D1*
Y1762325D1*
Y1758515D1*
Y1754705D1*
Y1750895D1*
Y1747085D1*
Y1743275D1*
Y1739465D1*
Y1735655D1*
Y1731845D1*
Y1728035D1*
Y1724225D1*
Y1720415D1*
Y1716605D1*
Y1712795D1*
Y1708985D1*
Y1705175D1*
Y1701365D1*
Y1697555D1*
Y1693745D1*
Y1689935D1*
Y1686125D1*
Y1682315D1*
Y1678505D1*
Y1674695D1*
Y1670885D1*
Y1667075D1*
Y1663265D1*
Y1659455D1*
Y1655645D1*
X-218538Y1762325D2*
X-224806Y1758515D1*
X-229750Y1754705D1*
X-233230Y1750895D1*
X-235579Y1747085D1*
X-237264Y1743275D1*
X-238743Y1739465D1*
X-239962Y1735655D1*
X-240722Y1731845D1*
X-241110Y1728035D1*
X-241285Y1724225D1*
X-241356Y1720415D1*
X-241383Y1716605D1*
X-241393Y1712795D1*
X-241396Y1708985D1*
X-241383Y1705175D1*
X-241249Y1701365D1*
X-240764Y1697555D1*
X-239836Y1693745D1*
X-238725Y1689935D1*
X-237546Y1686125D1*
X-235893Y1682315D1*
X-233636Y1678505D1*
X-225538Y1674695D1*
X-212259Y1670885D1*
X-195678Y1667075D1*
X-203298Y1762325D2*
X-199633Y1758515D1*
X-196326Y1754705D1*
X-193578Y1750895D1*
X-191380Y1747085D1*
X-189781Y1743275D1*
X-188833Y1739465D1*
X-188239Y1735655D1*
X-187552Y1731845D1*
X-186558Y1728035D1*
X-185551Y1724225D1*
X-184875Y1720415D1*
X-184533Y1716605D1*
X-184504Y1712795D1*
X-184923Y1708985D1*
X-185809Y1705175D1*
X-186777Y1701365D1*
X-187453Y1697555D1*
X-187939Y1693745D1*
X-188601Y1689935D1*
X-189729Y1686125D1*
X-191455Y1682315D1*
X-193705Y1678505D1*
X-200746Y1674695D1*
X-212046Y1670885D1*
X-226158Y1667075D1*
X-100428Y1762325D2*
X-107284Y1758515D1*
X-113174Y1754705D1*
X-117625Y1750895D1*
X-121008Y1747085D1*
X-122171Y1743275D1*
X-122672Y1739465D1*
X-122427Y1735655D1*
X-121606Y1731845D1*
X-118854Y1728035D1*
X-110388Y1724225D1*
X-97286Y1720415D1*
X-81378Y1716605D1*
X-81538Y1712795D1*
X-82175Y1708985D1*
X-83723Y1705175D1*
X-86247Y1701365D1*
X-89435Y1697555D1*
X-92976Y1693745D1*
X-96680Y1689935D1*
X-100450Y1686125D1*
X-104245Y1682315D1*
X-108050Y1678505D1*
X-111859Y1674695D1*
X-115668Y1670885D1*
X-119478Y1667075D1*
X-73758Y1762325D2*
X-69948Y1758515D1*
X-24228Y1762325D2*
X-28038Y1758515D1*
X2442Y1762325D2*
X9298Y1758515D1*
X15188Y1754705D1*
X19654Y1750895D1*
X22670Y1747085D1*
X24709Y1743275D1*
X26350Y1739465D1*
X27636Y1735655D1*
X28421Y1731845D1*
X28819Y1728035D1*
X28997Y1724225D1*
X29069Y1720415D1*
X29097Y1716605D1*
X29107Y1712795D1*
X29110Y1708985D1*
X29097Y1705175D1*
X28963Y1701365D1*
X28478Y1697555D1*
X27550Y1693745D1*
X26425Y1689935D1*
X25111Y1686125D1*
X23448Y1682315D1*
X19705Y1678505D1*
X8567Y1674695D1*
X-9413Y1670885D1*
X-31848Y1667075D1*
X192942Y1720415D2*
Y1716605D1*
Y1712795D1*
Y1708985D1*
X109122Y1720415D2*
X102396Y1716605D1*
X96861Y1712795D1*
X92837Y1708985D1*
X90020Y1705175D1*
X88153Y1701365D1*
X87114Y1697555D1*
X86629Y1693745D1*
X86562Y1689935D1*
X87110Y1686125D1*
X88258Y1682315D1*
X91409Y1678505D1*
X100767Y1674695D1*
X116239Y1670885D1*
X135792Y1667075D1*
Y1720415D2*
Y1716605D1*
Y1712795D1*
Y1708985D1*
Y1705175D1*
Y1701365D1*
Y1697555D1*
Y1693745D1*
Y1689935D1*
Y1686125D1*
Y1682315D1*
Y1678505D1*
Y1674695D1*
Y1670885D1*
X101502Y1667075D1*
X238662Y1708985D2*
Y1705175D1*
Y1701365D1*
Y1697555D1*
Y1693745D1*
Y1689935D1*
Y1686125D1*
Y1682315D1*
Y1678505D1*
Y1674695D1*
Y1670885D1*
Y1667075D1*
X-31848Y1670885D2*
X-33716Y1667075D1*
X-33898Y1663265D1*
X-31357Y1659455D1*
X-28038Y1655645D1*
Y1670885D2*
X-24228Y1667075D1*
X-62328D2*
Y1663265D1*
Y1659455D1*
Y1655645D1*
X185322Y1667075D2*
Y1663265D1*
Y1659455D1*
Y1655645D1*
X775186Y-1007695D2*
D47*
X822524D1*
Y-931129D1*
X775187D1*
X822524Y-971223D2*
X793380D1*
X751657Y-1007695D2*
Y-931129D1*
X677084Y-1007695D2*
Y-931129D1*
X728128Y-1007695D1*
Y-931129D1*
X653554Y-1007695D2*
X653555Y-931129D1*
X602511Y-1007695D2*
X653555Y-956651D1*
X635361Y-974929D2*
X602511Y-931129D1*
X578981Y-993039D2*
X571653Y-996745D1*
X560703Y-1007611D1*
Y-931129D1*
X515274Y-1007611D2*
X526224Y-1003989D1*
X533552Y-993039D1*
X537174Y-974845D1*
Y-963895D1*
X533552Y-945701D1*
X526224Y-934751D1*
X515274Y-931129D1*
X508030D1*
X497080Y-934751D1*
X489836Y-945701D1*
X486130Y-963895D1*
Y-974845D1*
X489836Y-993039D1*
X497080Y-1003989D1*
X508030Y-1007611D1*
X515274D1*
X489836Y-993039D2*
X533552Y-945701D1*
X458894Y-989417D2*
Y-993039D1*
X455272Y-1000367D1*
X451651Y-1003989D1*
X444322Y-1007611D1*
X429751D1*
X422507Y-1003989D1*
X418885Y-1000367D1*
X415179Y-993039D1*
Y-985795D1*
X418885Y-978467D1*
X426129Y-967601D1*
X462601Y-931129D1*
X411557D1*
X388027Y-918495D2*
X318790D1*
X295260Y-1007695D2*
X266116Y-931129D1*
X236972Y-1007695D1*
X213443Y-993039D2*
X206115Y-996745D1*
X195165Y-1007611D1*
Y-931129D1*
X168014Y-938457D2*
X171636Y-934751D1*
X168014Y-931129D1*
X164308Y-934751D1*
X168014Y-938457D1*
X118878Y-1007611D2*
X129828Y-1003989D1*
X137156Y-993039D1*
X140778Y-974845D1*
Y-963895D1*
X137156Y-945701D1*
X129828Y-934751D1*
X118878Y-931129D1*
X111634D1*
X100684Y-934751D1*
X93440Y-945701D1*
X89734Y-963895D1*
Y-974845D1*
X93440Y-993039D1*
X100684Y-1003989D1*
X111634Y-1007611D1*
X118878D1*
X93440Y-993039D2*
X137156Y-945701D1*
X-7863Y-982173D2*
Y-931129D1*
Y-960273D2*
X-11569Y-971223D1*
X-18813Y-978551D1*
X-26141Y-982173D1*
X-37091D1*
X-60621Y-960273D2*
X-104336D1*
Y-967601D1*
X-100714Y-974929D1*
X-97092Y-978551D1*
X-89764Y-982173D1*
X-78814D1*
X-71571Y-978551D1*
X-64242Y-971223D1*
X-60621Y-960273D1*
Y-953029D1*
X-64242Y-942079D1*
X-71571Y-934835D1*
X-78814Y-931129D1*
X-89764D1*
X-97092Y-934835D1*
X-104336Y-942079D1*
X-127866Y-982173D2*
X-149766Y-931129D1*
X-171581Y-982173D1*
X-202439Y-1007611D2*
X-242449D1*
X-220633Y-978467D1*
X-231583D1*
X-238827Y-974845D1*
X-242449Y-971223D1*
X-246155Y-960273D1*
Y-953029D1*
X-242449Y-942079D1*
X-235205Y-934751D1*
X-224255Y-931129D1*
X-213305D1*
X-202439Y-934751D1*
X-198817Y-938457D1*
X-195111Y-945701D1*
X-343752Y-1027658D2*
Y-911082D1*
X-463249Y-1007611D2*
X-452299Y-1003989D1*
X-444971Y-993039D1*
X-441349Y-974845D1*
Y-963895D1*
X-444971Y-945701D1*
X-452299Y-934751D1*
X-463249Y-931129D1*
X-470493D1*
X-481443Y-934751D1*
X-488687Y-945701D1*
X-492393Y-963895D1*
Y-974845D1*
X-488687Y-993039D1*
X-481443Y-1003989D1*
X-470493Y-1007611D1*
X-463249D1*
X-488687Y-993039D2*
X-444971Y-945701D1*
X-523251Y-1007611D2*
X-563260D1*
X-541444Y-978467D1*
X-552394D1*
X-559638Y-974845D1*
X-563260Y-971223D1*
X-566966Y-960273D1*
Y-953029D1*
X-563260Y-942079D1*
X-556016Y-934751D1*
X-545066Y-931129D1*
X-534116D1*
X-523251Y-934751D1*
X-519629Y-938457D1*
X-515923Y-945701D1*
X-594118Y-938457D2*
X-590496Y-934751D1*
X-594118Y-931129D1*
X-597824Y-934751D1*
X-594118Y-938457D1*
X-625059Y-989417D2*
Y-993039D1*
X-628681Y-1000367D1*
X-632303Y-1003989D1*
X-639631Y-1007611D1*
X-654203D1*
X-661447Y-1003989D1*
X-665069Y-1000367D1*
X-668775Y-993039D1*
Y-985795D1*
X-665069Y-978467D1*
X-657825Y-967601D1*
X-621353Y-931129D1*
X-672397D1*
X-717827Y-1007611D2*
X-706877Y-1003989D1*
X-699548Y-993039D1*
X-695927Y-974845D1*
Y-963895D1*
X-699548Y-945701D1*
X-706877Y-934751D1*
X-717827Y-931129D1*
X-725070D1*
X-736020Y-934751D1*
X-743264Y-945701D1*
X-746970Y-963895D1*
Y-974845D1*
X-743264Y-993039D1*
X-736020Y-1003989D1*
X-725070Y-1007611D1*
X-717827D1*
X-743264Y-993039D2*
X-699548Y-945701D1*
X-774206Y-989417D2*
Y-993039D1*
X-777828Y-1000367D1*
X-781450Y-1003989D1*
X-788778Y-1007611D1*
X-803350D1*
X-810594Y-1003989D1*
X-814216Y-1000367D1*
X-817922Y-993039D1*
Y-985795D1*
X-814216Y-978467D1*
X-806972Y-967601D1*
X-770500Y-931129D1*
X-821544D1*
X-866973Y-1007611D2*
X-856023Y-1003989D1*
X-848695Y-993039D1*
X-845073Y-974845D1*
Y-963895D1*
X-848695Y-945701D1*
X-856023Y-934751D1*
X-866973Y-931129D1*
X-874217D1*
X-885167Y-934751D1*
X-892411Y-945701D1*
X-896117Y-963895D1*
Y-974845D1*
X-892411Y-993039D1*
X-885167Y-1003989D1*
X-874217Y-1007611D1*
X-866973D1*
X-892411Y-993039D2*
X-848695Y-945701D1*
X366529Y-229738D2*
Y-171450D1*
X370151Y-160500D1*
X373857Y-156879D1*
X381101Y-153172D1*
X388429D1*
X395673Y-156879D1*
X399294Y-160501D1*
X403001Y-171451D1*
Y-178694D1*
X342999Y-229738D2*
X343000Y-153172D1*
X299284D1*
X221089Y-211544D2*
X224711Y-218788D1*
X232039Y-226116D1*
X239282Y-229738D1*
X253854D1*
X261182Y-226116D1*
X268426Y-218788D1*
X272132Y-211544D1*
X275754Y-200594D1*
Y-182316D1*
X272133Y-171450D1*
X268426Y-164122D1*
X261183Y-156879D1*
X253854Y-153172D1*
X239283D1*
X232039Y-156879D1*
X224711Y-164122D1*
X221089Y-171451D1*
X161087Y-229738D2*
Y-171451D1*
X164709Y-160501D1*
X168415Y-156879D1*
X175659Y-153172D1*
X182987D1*
X190231Y-156879D1*
X193853Y-160501D1*
X197559Y-171451D1*
Y-178694D1*
X137558Y-229738D2*
Y-153172D1*
X93842D1*
X15647Y-211544D2*
X19269Y-218788D1*
X26597Y-226116D1*
X33841Y-229738D1*
X48413D1*
X55741Y-226116D1*
X62985Y-218788D1*
X66691Y-211544D1*
X70313Y-200594D1*
Y-182316D1*
X66691Y-171451D1*
X62985Y-164122D1*
X55741Y-156879D1*
X48413Y-153172D1*
X33841D1*
X26597Y-156879D1*
X19269Y-164122D1*
X15647Y-171451D1*
X-44354Y-229738D2*
Y-171451D1*
X-40732Y-160501D1*
X-37026Y-156879D1*
X-29782Y-153172D1*
X-22454D1*
X-15210Y-156879D1*
X-11589Y-160501D1*
X-7882Y-171451D1*
Y-178694D1*
X-67884Y-229738D2*
Y-153172D1*
X-111600Y-153173D1*
X-189795Y-211544D2*
X-186173Y-218788D1*
X-178845Y-226116D1*
X-171601Y-229738D1*
X-157029D1*
X-149701Y-226116D1*
X-142457Y-218788D1*
X-138751Y-211544D1*
X-135129Y-200594D1*
Y-182316D1*
X-138751Y-171451D1*
X-142457Y-164122D1*
X-149701Y-156879D1*
X-157029Y-153173D1*
X-171601D1*
X-178845Y-156879D1*
X-186173Y-164122D1*
X-189795Y-171451D1*
X-249796Y-229738D2*
Y-171451D1*
X-246174Y-160501D1*
X-242468Y-156879D1*
X-235224Y-153173D1*
X-227896D1*
X-220652Y-156879D1*
X-217030Y-160501D1*
X-213324Y-171451D1*
Y-178694D1*
X-273325Y-229738D2*
Y-153173D1*
X-317041D1*
X-395236Y-211544D2*
X-391614Y-218788D1*
X-384286Y-226116D1*
X-377043Y-229738D1*
X-362471D1*
X-355143Y-226116D1*
X-347899Y-218788D1*
X-344193Y-211544D1*
X-340571Y-200594D1*
Y-182316D1*
X-344193Y-171451D1*
X-347899Y-164123D1*
X-355143Y-156879D1*
X-362471Y-153173D1*
X-377043D1*
X-384286Y-156879D1*
X-391614Y-164123D1*
X-395236Y-171451D1*
M02*
