G04 DipTrace 3.2.0.1*
G04 BoardOutline.gbr*
%MOMM*%
G04 #@! TF.FileFunction,Profile*
G04 #@! TF.Part,Single*
%ADD11C,0.14*%
%FSLAX35Y35*%
G04*
G71*
G90*
G75*
G01*
G04 BoardOutline*
%LPD*%
X-1200000Y2200000D2*
D11*
G03X-1300000Y2100000I2500J-102500D01*
G01*
Y1540000D1*
X-950000Y1475000D1*
Y1075000D1*
X-1300000Y1010000D1*
Y770000D1*
X-1250000Y670000D1*
Y0D1*
X-1301287Y-100000D1*
X-1300000Y-335000D1*
X-950000Y-400000D1*
Y-800000D1*
X-1300000Y-865000D1*
Y-1100000D1*
G02X-1000000Y-1400000I49375J-250625D01*
G01*
X-730000D1*
X-630000Y-1250000D1*
X630000D1*
X730000Y-1400000D1*
X1000000D1*
G02X1300000Y-1100000I250625J49375D01*
G01*
Y-865000D1*
X949993Y-800000D1*
X950000Y-400000D1*
X1300000Y-325000D1*
Y-100000D1*
X1250000Y0D1*
Y670000D1*
X1300000Y770000D1*
Y1010000D1*
X950000Y1075000D1*
Y1475000D1*
X1300000Y1540000D1*
Y2100000D1*
G03X1200000Y2200000I-102500J-2500D01*
G01*
X1100000D1*
X1096957Y2300000D1*
G02X1000000Y2900000I13114J309953D01*
G01*
Y4700000D1*
X800000Y8700000D1*
X500000Y11700000D1*
X270000Y12100000D1*
G03X-270000Y12100000I-270000J-168000D01*
G01*
X-500000Y11700000D1*
X-800000Y8700000D1*
X-1000000Y4700000D1*
Y2900000D1*
G02X-1100000Y2300000I-110000J-290000D01*
G01*
Y2200000D1*
X-1200000D1*
M02*
