G04 DipTrace 3.2.0.1*
G04 BottomSilk.gbr*
%MOMM*%
G04 #@! TF.FileFunction,Legend,Bot*
G04 #@! TF.Part,Single*
%ADD10C,0.25*%
%ADD13C,0.06667*%
%ADD14C,0.05*%
%ADD21C,1.0*%
%ADD22C,0.15*%
%ADD32O,0.39127X0.39172*%
%ADD81C,0.11765*%
%FSLAX35Y35*%
G04*
G71*
G90*
G75*
G01*
G04 BotSilk*
%LPD*%
X-1279012Y1559000D2*
D22*
X-1059000D1*
Y2180006D1*
X-1279012D1*
Y1559000D1*
X1060988D2*
X1281000D1*
Y2180006D1*
X1060988D1*
Y1559000D1*
X-1274000Y-1083000D2*
X-1067000D1*
Y-876000D1*
X-1274000D1*
Y-1083000D1*
X1066000D2*
X1273000D1*
Y-876000D1*
X1066000D1*
Y-1083000D1*
D32*
X173556Y2129829D3*
X150186Y2257190D2*
D10*
X-149800D1*
Y2307190D1*
X150186D1*
Y2257190D1*
X-637000Y-1530000D2*
X637000D1*
Y330000D1*
X-637000D1*
Y-1530000D1*
X-1237377Y1004220D2*
D22*
X-1098627D1*
Y677650D1*
X-1237377D1*
Y1004220D1*
X1098200Y1007883D2*
X1236950D1*
Y681313D1*
X1098200D1*
Y1007883D1*
X-1231570Y524420D2*
X-907373D1*
Y147787D1*
X-1231570D1*
Y524420D1*
X913447Y525100D2*
X1234470D1*
Y147787D1*
X913447D1*
Y525100D1*
X876360Y-76350D2*
X1202930D1*
Y-215100D1*
X876360D1*
Y-76350D1*
X-1192697Y-89190D2*
X-866127D1*
Y-227940D1*
X-1192697D1*
Y-89190D1*
X-609070Y2474363D2*
X-282500D1*
Y2335613D1*
X-609070D1*
Y2474363D1*
X-394357Y2291680D2*
X-255607D1*
Y1965110D1*
X-394357D1*
Y2291680D1*
X-162643Y2060673D2*
X163927D1*
Y1921923D1*
X-162643D1*
Y2060673D1*
X-825000Y4900000D2*
D21*
X825000D1*
X-605630Y2656263D2*
D22*
X-279060D1*
Y2517513D1*
X-605630D1*
Y2656263D1*
X240007Y2278937D2*
X378757D1*
Y1952367D1*
X240007D1*
Y2278937D1*
X-696700Y2645303D2*
D14*
X-659200D1*
X-701209Y2642803D2*
X-654691D1*
X-705161Y2640303D2*
X-650739D1*
X-708401Y2637803D2*
X-647490D1*
X-710900Y2635303D2*
X-644912D1*
X-712649Y2632803D2*
X-698313D1*
X-657296D2*
X-642933D1*
X-713881Y2630303D2*
X-701567D1*
X-653743D2*
X-641420D1*
X-714914Y2627803D2*
X-703929D1*
X-650988D2*
X-640345D1*
X-715741Y2625303D2*
X-705691D1*
X-649688D2*
X-639723D1*
X-716250Y2622803D2*
X-706989D1*
X-648658D2*
X-639418D1*
X-716499Y2620303D2*
X-707947D1*
X-647872D2*
X-639285D1*
X-716527Y2617803D2*
X-707649D1*
X-648127D2*
X-639241D1*
X-716256Y2615303D2*
X-706913D1*
X-648644D2*
X-639309D1*
X-715665Y2612803D2*
X-705810D1*
X-649398D2*
X-639630D1*
X-714933Y2610303D2*
X-704261D1*
X-650678D2*
X-640324D1*
X-714083Y2607803D2*
X-702221D1*
X-652643D2*
X-641380D1*
X-712837Y2605303D2*
X-700072D1*
X-654955D2*
X-642831D1*
X-711075Y2602803D2*
X-698438D1*
X-656920D2*
X-644738D1*
X-708940Y2600303D2*
X-697486D1*
X-658366D2*
X-647127D1*
X-706605Y2597803D2*
X-697001D1*
X-658809D2*
X-650267D1*
X-704200Y2595303D2*
X-696700D1*
X-659050D2*
X-654421D1*
X-659200Y2592803D2*
D3*
X-664200Y2577803D2*
X-651700D1*
X-669200Y2575303D2*
X-651700D1*
X-674200Y2572803D2*
X-651700D1*
X-679210Y2570303D2*
X-651700D1*
X-684298Y2567803D2*
X-651700D1*
X-689616Y2565303D2*
X-667086D1*
X-659200D2*
X-651700D1*
X-695215Y2562803D2*
X-672706D1*
X-659200D2*
X-651700D1*
X-700836Y2560303D2*
X-678353D1*
X-659200D2*
X-651700D1*
X-706077Y2557803D2*
X-683791D1*
X-659200D2*
X-651700D1*
X-710476Y2555303D2*
X-689033D1*
X-659200D2*
X-651700D1*
X-714048Y2552803D2*
X-694235D1*
X-659200D2*
X-651700D1*
X-715414Y2550303D2*
X-699665D1*
X-659200D2*
X-651700D1*
X-716193Y2547803D2*
X-705537D1*
X-659200D2*
X-651700D1*
X-716700Y2545303D2*
X-711700D1*
X-684200D2*
X-639200D1*
X-684200Y2542803D2*
X-639200D1*
X-684200Y2540303D2*
X-639200D1*
X-684200Y2537803D2*
X-639200D1*
X-684200Y2535303D2*
X-639200D1*
X-659200Y2532803D2*
X-651700D1*
X-659200Y2530303D2*
X-651700D1*
X-477533Y2167757D2*
X-440033D1*
X-482042Y2165257D2*
X-435525D1*
X-485994Y2162757D2*
X-431572D1*
X-489234Y2160257D2*
X-428323D1*
X-491733Y2157757D2*
X-425745D1*
X-493482Y2155257D2*
X-479146D1*
X-438130D2*
X-423766D1*
X-494715Y2152757D2*
X-482400D1*
X-434576D2*
X-422253D1*
X-495747Y2150257D2*
X-484762D1*
X-431821D2*
X-421178D1*
X-496574Y2147757D2*
X-486524D1*
X-430521D2*
X-420557D1*
X-497083Y2145257D2*
X-487822D1*
X-429491D2*
X-420252D1*
X-497333Y2142757D2*
X-488780D1*
X-428705D2*
X-420118D1*
X-497361Y2140257D2*
X-488483D1*
X-428961D2*
X-420074D1*
X-497089Y2137757D2*
X-487747D1*
X-429477D2*
X-420142D1*
X-496499Y2135257D2*
X-486643D1*
X-430232D2*
X-420463D1*
X-495767Y2132757D2*
X-485094D1*
X-431511D2*
X-421157D1*
X-494917Y2130257D2*
X-483055D1*
X-433477D2*
X-422213D1*
X-493670Y2127757D2*
X-480905D1*
X-435789D2*
X-423664D1*
X-491909Y2125257D2*
X-479271D1*
X-437753D2*
X-425571D1*
X-489774Y2122757D2*
X-478320D1*
X-439199D2*
X-427960D1*
X-487439Y2120257D2*
X-477835D1*
X-439643D2*
X-431100D1*
X-485033Y2117757D2*
X-477533D1*
X-439883D2*
X-435255D1*
X-440033Y2115257D2*
D3*
X-437533Y2100257D2*
X-435033D1*
X-497533Y2097757D2*
X-457533D1*
X-437514D2*
X-431389D1*
X-497533Y2095257D2*
X-457638D1*
X-437328D2*
X-428259D1*
X-497533Y2092757D2*
X-458047D1*
X-436889D2*
X-425724D1*
X-497533Y2090257D2*
X-458964D1*
X-435063D2*
X-423759D1*
X-497533Y2087757D2*
X-487533D1*
X-470420D2*
X-460204D1*
X-432809D2*
X-422251D1*
X-497533Y2085257D2*
X-487533D1*
X-471039D2*
X-461281D1*
X-430693D2*
X-421178D1*
X-497533Y2082757D2*
X-487533D1*
X-471687D2*
X-461949D1*
X-428935D2*
X-420556D1*
X-497533Y2080257D2*
X-487533D1*
X-472115D2*
X-462277D1*
X-428382D2*
X-420251D1*
X-497533Y2077757D2*
X-487533D1*
X-472259D2*
X-462435D1*
X-428735D2*
X-420128D1*
X-497533Y2075257D2*
X-487533D1*
X-472037D2*
X-461781D1*
X-430055D2*
X-420172D1*
X-497533Y2072757D2*
X-487533D1*
X-471385D2*
X-457905D1*
X-435906D2*
X-420568D1*
X-497533Y2070257D2*
X-487533D1*
X-470344D2*
X-446398D1*
X-446423D2*
X-421576D1*
X-497533Y2067757D2*
X-487533D1*
X-468880D2*
X-423249D1*
X-497533Y2065257D2*
X-487533D1*
X-466804D2*
X-425530D1*
X-497533Y2062757D2*
X-487533D1*
X-463834D2*
X-428626D1*
X-497533Y2060257D2*
X-487533D1*
X-459763D2*
X-432764D1*
X-455033Y2057757D2*
X-437533D1*
X1012453Y1010027D2*
X1049953D1*
X1007945Y1007527D2*
X1054462D1*
X1003992Y1005027D2*
X1058414D1*
X1000753Y1002527D2*
X1061664D1*
X998253Y1000027D2*
X1064241D1*
X996505Y997527D2*
X1010841D1*
X1051857D2*
X1066221D1*
X995272Y995027D2*
X1007586D1*
X1055411D2*
X1067733D1*
X994239Y992527D2*
X1005225D1*
X1058166D2*
X1068808D1*
X993413Y990027D2*
X1003463D1*
X1059466D2*
X1069430D1*
X992903Y987527D2*
X1002165D1*
X1060495D2*
X1069735D1*
X992654Y985027D2*
X1001206D1*
X1061282D2*
X1069869D1*
X992626Y982527D2*
X1001504D1*
X1061026D2*
X1069912D1*
X992897Y980027D2*
X1002240D1*
X1060510D2*
X1069845D1*
X993488Y977527D2*
X1003344D1*
X1059755D2*
X1069524D1*
X994220Y975027D2*
X1004893D1*
X1058475D2*
X1068830D1*
X995070Y972527D2*
X1006932D1*
X1056510D2*
X1067773D1*
X996316Y970027D2*
X1009082D1*
X1054198D2*
X1066322D1*
X998078Y967527D2*
X1010715D1*
X1052234D2*
X1064415D1*
X1000213Y965027D2*
X1011667D1*
X1050787D2*
X1062027D1*
X1002548Y962527D2*
X1012152D1*
X1050344D2*
X1058887D1*
X1004953Y960027D2*
X1012453D1*
X1050103D2*
X1054732D1*
X1049953Y957527D2*
D3*
X1034953Y942527D2*
X1059953D1*
X1028799Y940027D2*
X1062358D1*
X1023081Y937527D2*
X1064528D1*
X1017718Y935027D2*
X1066331D1*
X1012567Y932527D2*
X1040841D1*
X1057057D2*
X1067774D1*
X1007599Y930027D2*
X1037606D1*
X1058840D2*
X1068823D1*
X1003000Y927527D2*
X1035077D1*
X1060266D2*
X1069435D1*
X999104Y925027D2*
X1019953D1*
X1024953D2*
X1033921D1*
X1061442D2*
X1069737D1*
X996173Y922527D2*
X1014953D1*
X1024963D2*
X1034121D1*
X1061714D2*
X1069859D1*
X993950Y920027D2*
X1009953D1*
X1025051D2*
X1034724D1*
X1060962D2*
X1069825D1*
X993174Y917527D2*
X1004953D1*
X1025379D2*
X1036444D1*
X1058919D2*
X1069516D1*
X992736Y915027D2*
X999953D1*
X1026076D2*
X1040865D1*
X1054279D2*
X1068827D1*
X992453Y912527D2*
X994953D1*
X1027143D2*
X1047295D1*
X1047710D2*
X1067753D1*
X1028689Y910027D2*
X1066112D1*
X1030961Y907527D2*
X1063454D1*
X1033999Y905027D2*
X1059562D1*
X1037453Y902527D2*
X1054953D1*
X-1033060Y1015900D2*
X-995560D1*
X-1037569Y1013400D2*
X-991051D1*
X-1041521Y1010900D2*
X-987099D1*
X-1044761Y1008400D2*
X-983850D1*
X-1047260Y1005900D2*
X-981272D1*
X-1049009Y1003400D2*
X-1034673D1*
X-993656D2*
X-979293D1*
X-1050241Y1000900D2*
X-1037927D1*
X-990103D2*
X-977780D1*
X-1051274Y998400D2*
X-1040289D1*
X-987348D2*
X-976705D1*
X-1052101Y995900D2*
X-1042051D1*
X-986048D2*
X-976083D1*
X-1052610Y993400D2*
X-1043349D1*
X-985018D2*
X-975778D1*
X-1052859Y990900D2*
X-1044307D1*
X-984232D2*
X-975645D1*
X-1052887Y988400D2*
X-1044009D1*
X-984487D2*
X-975601D1*
X-1052616Y985900D2*
X-1043273D1*
X-985004D2*
X-975669D1*
X-1052025Y983400D2*
X-1042170D1*
X-985758D2*
X-975990D1*
X-1051293Y980900D2*
X-1040621D1*
X-987038D2*
X-976684D1*
X-1050443Y978400D2*
X-1038581D1*
X-989003D2*
X-977740D1*
X-1049197Y975900D2*
X-1036432D1*
X-991315D2*
X-979191D1*
X-1047435Y973400D2*
X-1034798D1*
X-993280D2*
X-981098D1*
X-1045300Y970900D2*
X-1033846D1*
X-994726D2*
X-983487D1*
X-1042965Y968400D2*
X-1033361D1*
X-995169D2*
X-986627D1*
X-1040560Y965900D2*
X-1033060D1*
X-995410D2*
X-990781D1*
X-995560Y963400D2*
D3*
X-1050560Y950900D2*
X-1033060D1*
X-1051714Y948400D2*
X-1033060D1*
X-1052432Y945900D2*
X-1033060D1*
X-1052795Y943400D2*
X-1033060D1*
X-1052957Y940900D2*
X-1033060D1*
X-1053022Y938400D2*
X-1043060D1*
X-983060D2*
X-975560D1*
X-1053046Y935900D2*
X-1043060D1*
X-990946D2*
X-975685D1*
X-1053055Y933400D2*
X-1043060D1*
X-999076D2*
X-975980D1*
X-1053058Y930900D2*
X-1043031D1*
X-1007350D2*
X-977586D1*
X-1053060Y928400D2*
X-1042745D1*
X-1015989D2*
X-982084D1*
X-1053060Y925900D2*
X-1042064D1*
X-1025887D2*
X-988220D1*
X-1053060Y923400D2*
X-1039142D1*
X-1037661D2*
X-995487D1*
X-1053060Y920900D2*
X-1003337D1*
X-1053060Y918400D2*
X-1011599D1*
X-1053060Y915900D2*
X-1020177D1*
X-1053060Y913400D2*
X-1029029D1*
X-1053060Y910900D2*
X-1038060D1*
X102007Y2458570D2*
X139507D1*
X97498Y2456070D2*
X144015D1*
X93546Y2453570D2*
X147968D1*
X90306Y2451070D2*
X151217D1*
X87807Y2448570D2*
X153795D1*
X86058Y2446070D2*
X100394D1*
X141410D2*
X155774D1*
X84825Y2443570D2*
X97149D1*
X144964D2*
X157287D1*
X83793Y2441070D2*
X94876D1*
X147719D2*
X158362D1*
X82966Y2438570D2*
X93172D1*
X149019D2*
X158983D1*
X82457Y2436070D2*
X92573D1*
X150049D2*
X159288D1*
X82198Y2433570D2*
X92248D1*
X150835D2*
X159422D1*
X82092Y2431070D2*
X92111D1*
X150579D2*
X159466D1*
X82132Y2428570D2*
X92149D1*
X134507D2*
X139507D1*
X150065D2*
X159398D1*
X82443Y2426070D2*
X92562D1*
X132007D2*
X142466D1*
X149349D2*
X159077D1*
X83132Y2423570D2*
X93390D1*
X134015D2*
X145843D1*
X148296D2*
X158393D1*
X84187Y2421070D2*
X96155D1*
X135478D2*
X157434D1*
X85638Y2418570D2*
X100328D1*
X136317D2*
X156400D1*
X87535Y2416070D2*
X105860D1*
X136743D2*
X155537D1*
X89828Y2413570D2*
X155092D1*
X92582Y2411070D2*
X154989D1*
X95882Y2408570D2*
X156055D1*
X99507Y2406070D2*
X142007D1*
X147007D2*
X157647D1*
X149507Y2403570D2*
X159507D1*
X152007Y2401070D2*
X157007D1*
X94507Y2386070D2*
X102007D1*
X149507D2*
X159507D1*
X90948Y2383570D2*
X101797D1*
X145757D2*
X159507D1*
X88060Y2381070D2*
X101323D1*
X142219D2*
X159507D1*
X85894Y2378570D2*
X99220D1*
X138747D2*
X159507D1*
X84290Y2376070D2*
X96588D1*
X135357D2*
X159507D1*
X83176Y2373570D2*
X94100D1*
X132037D2*
X159507D1*
X82539Y2371070D2*
X92171D1*
X128672D2*
X144411D1*
X149507D2*
X159507D1*
X82228Y2368570D2*
X90667D1*
X125328D2*
X141581D1*
X149507D2*
X159507D1*
X82102Y2366070D2*
X90260D1*
X122007D2*
X138394D1*
X149507D2*
X159507D1*
X82136Y2363570D2*
X90933D1*
X118443D2*
X134934D1*
X149507D2*
X159507D1*
X82444Y2361070D2*
X92046D1*
X114168D2*
X131390D1*
X149507D2*
X159507D1*
X83133Y2358570D2*
X95559D1*
X108399D2*
X127929D1*
X149507D2*
X159507D1*
X84188Y2356070D2*
X100776D1*
X100729D2*
X124559D1*
X149507D2*
X159507D1*
X85638Y2353570D2*
X121089D1*
X149507D2*
X159507D1*
X87523Y2351070D2*
X117432D1*
X149507D2*
X159507D1*
X89706Y2348570D2*
X113552D1*
X149507D2*
X159507D1*
X92007Y2346070D2*
X109507D1*
X149507D2*
X159507D1*
X-726693Y2461630D2*
X-649193D1*
X-726693Y2459130D2*
X-649193D1*
X-726693Y2456630D2*
X-649193D1*
X-726693Y2454130D2*
X-649193D1*
X-726693Y2451630D2*
X-716693D1*
X-691693D2*
X-681693D1*
X-726693Y2449130D2*
X-716693D1*
X-691693D2*
X-681693D1*
X-726693Y2446630D2*
X-716693D1*
X-691693D2*
X-681693D1*
X-726693Y2444130D2*
X-716693D1*
X-691693D2*
X-681684D1*
X-726693Y2441630D2*
X-716693D1*
X-691693D2*
X-681576D1*
X-726693Y2439130D2*
X-716693D1*
X-691693D2*
X-681312D1*
X-726684Y2436630D2*
X-716693D1*
X-691693D2*
X-680048D1*
X-726596Y2434130D2*
X-716684D1*
X-691703D2*
X-677064D1*
X-726277Y2431630D2*
X-716576D1*
X-691811D2*
X-673238D1*
X-725669Y2429130D2*
X-716312D1*
X-692074D2*
X-668803D1*
X-724940Y2426630D2*
X-714931D1*
X-693456D2*
X-664063D1*
X-724166Y2424130D2*
X-710652D1*
X-697735D2*
X-659354D1*
X-723149Y2421630D2*
X-704301D1*
X-704086D2*
X-684193D1*
X-676693D2*
X-655222D1*
X-721666Y2419130D2*
X-686693D1*
X-671703D2*
X-651798D1*
X-719558Y2416630D2*
X-689193D1*
X-666798D2*
X-650464D1*
X-716953Y2414130D2*
X-691693D1*
X-662185D2*
X-649735D1*
X-714193Y2411630D2*
X-694193D1*
X-658039D2*
X-649393D1*
X-654193Y2409130D2*
X-649193D1*
X-674193Y2391630D2*
X-661693D1*
X-679193Y2389130D2*
X-661693D1*
X-684193Y2386630D2*
X-661693D1*
X-689203Y2384130D2*
X-661693D1*
X-694291Y2381630D2*
X-661693D1*
X-699610Y2379130D2*
X-677080D1*
X-669193D2*
X-661693D1*
X-705208Y2376630D2*
X-682699D1*
X-669193D2*
X-661693D1*
X-710830Y2374130D2*
X-688347D1*
X-669193D2*
X-661693D1*
X-716071Y2371630D2*
X-693785D1*
X-669193D2*
X-661693D1*
X-720470Y2369130D2*
X-699027D1*
X-669193D2*
X-661693D1*
X-724041Y2366630D2*
X-704228D1*
X-669193D2*
X-661693D1*
X-725407Y2364130D2*
X-709658D1*
X-669193D2*
X-661693D1*
X-726186Y2361630D2*
X-715530D1*
X-669193D2*
X-661693D1*
X-726693Y2359130D2*
X-721693D1*
X-694193D2*
X-649193D1*
X-694193Y2356630D2*
X-649193D1*
X-694193Y2354130D2*
X-649193D1*
X-694193Y2351630D2*
X-649193D1*
X-694193Y2349130D2*
X-649193D1*
X-669193Y2346630D2*
X-661693D1*
X-669193Y2344130D2*
X-661693D1*
X397960Y2163650D2*
X475460D1*
X397960Y2161150D2*
X475460D1*
X397960Y2158650D2*
X475460D1*
X397960Y2156150D2*
X475460D1*
X397960Y2153650D2*
X407960D1*
X432960D2*
X442960D1*
X397960Y2151150D2*
X407960D1*
X432960D2*
X442960D1*
X397960Y2148650D2*
X407960D1*
X432960D2*
X442960D1*
X397960Y2146150D2*
X407960D1*
X432960D2*
X442970D1*
X397960Y2143650D2*
X407960D1*
X432960D2*
X443077D1*
X397960Y2141150D2*
X407960D1*
X432960D2*
X443341D1*
X397970Y2138650D2*
X407960D1*
X432960D2*
X444606D1*
X398058Y2136150D2*
X407970D1*
X432950D2*
X447589D1*
X398376Y2133650D2*
X408077D1*
X432843D2*
X451415D1*
X398985Y2131150D2*
X408341D1*
X432579D2*
X455851D1*
X399714Y2128650D2*
X409723D1*
X431197D2*
X460590D1*
X400488Y2126150D2*
X414002D1*
X426918D2*
X465299D1*
X401504Y2123650D2*
X420352D1*
X420568D2*
X440460D1*
X447960D2*
X469432D1*
X402987Y2121150D2*
X437960D1*
X452950D2*
X472855D1*
X405095Y2118650D2*
X435460D1*
X457855D2*
X474189D1*
X407700Y2116150D2*
X432960D1*
X462469D2*
X474918D1*
X410460Y2113650D2*
X430460D1*
X466614D2*
X475261D1*
X470460Y2111150D2*
X475460D1*
X457960Y2093650D2*
X460460D1*
X397960Y2091150D2*
X437960D1*
X457980D2*
X464104D1*
X397960Y2088650D2*
X437855D1*
X458165D2*
X467234D1*
X397960Y2086150D2*
X437447D1*
X458605D2*
X469769D1*
X397960Y2083650D2*
X436529D1*
X460430D2*
X471734D1*
X397960Y2081150D2*
X407960D1*
X425074D2*
X435289D1*
X462685D2*
X473242D1*
X397960Y2078650D2*
X407960D1*
X424454D2*
X434212D1*
X464801D2*
X474316D1*
X397960Y2076150D2*
X407960D1*
X423807D2*
X433544D1*
X466558D2*
X474937D1*
X397960Y2073650D2*
X407960D1*
X423378D2*
X433216D1*
X467111D2*
X475242D1*
X397960Y2071150D2*
X407960D1*
X423234D2*
X433059D1*
X466758D2*
X475365D1*
X397960Y2068650D2*
X407960D1*
X423456D2*
X433712D1*
X465438D2*
X475321D1*
X397960Y2066150D2*
X407960D1*
X424109D2*
X437588D1*
X459587D2*
X474925D1*
X397960Y2063650D2*
X407960D1*
X425149D2*
X449095D1*
X449071D2*
X473918D1*
X397960Y2061150D2*
X407960D1*
X426613D2*
X472245D1*
X397960Y2058650D2*
X407960D1*
X428690D2*
X469963D1*
X397960Y2056150D2*
X407960D1*
X431659D2*
X466867D1*
X397960Y2053650D2*
X407960D1*
X435731D2*
X462730D1*
X440460Y2051150D2*
X457960D1*
X-33690Y1890847D2*
X43810D1*
X-33690Y1888347D2*
X43810D1*
X-33690Y1885847D2*
X43810D1*
X-33690Y1883347D2*
X43810D1*
X-33690Y1880847D2*
X-23690D1*
X1310D2*
X11310D1*
X-33690Y1878347D2*
X-23690D1*
X1310D2*
X11310D1*
X-33690Y1875847D2*
X-23690D1*
X1310D2*
X11310D1*
X-33690Y1873347D2*
X-23690D1*
X1310D2*
X11320D1*
X-33690Y1870847D2*
X-23690D1*
X1310D2*
X11427D1*
X-33690Y1868347D2*
X-23690D1*
X1310D2*
X11691D1*
X-33680Y1865847D2*
X-23690D1*
X1310D2*
X12956D1*
X-33592Y1863347D2*
X-23680D1*
X1300D2*
X15939D1*
X-33274Y1860847D2*
X-23573D1*
X1193D2*
X19765D1*
X-32665Y1858347D2*
X-23309D1*
X929D2*
X24201D1*
X-31936Y1855847D2*
X-21927D1*
X-453D2*
X28940D1*
X-31162Y1853347D2*
X-17648D1*
X-4732D2*
X33649D1*
X-30146Y1850847D2*
X-11298D1*
X-11082D2*
X8810D1*
X16310D2*
X37782D1*
X-28663Y1848347D2*
X6310D1*
X21300D2*
X41205D1*
X-26555Y1845847D2*
X3810D1*
X26205D2*
X42539D1*
X-23950Y1843347D2*
X1310D1*
X30819D2*
X43268D1*
X-21190Y1840847D2*
X-1190D1*
X34964D2*
X43611D1*
X38810Y1838347D2*
X43810D1*
X8810Y1820847D2*
X33810D1*
X2656Y1818347D2*
X36215D1*
X-3062Y1815847D2*
X38385D1*
X-8425Y1813347D2*
X40188D1*
X-13577Y1810847D2*
X14697D1*
X30914D2*
X41630D1*
X-18544Y1808347D2*
X11463D1*
X32696D2*
X42679D1*
X-23143Y1805847D2*
X8933D1*
X34123D2*
X43291D1*
X-27039Y1803347D2*
X-6190D1*
X-1190D2*
X7778D1*
X35298D2*
X43593D1*
X-29970Y1800847D2*
X-11190D1*
X-1180D2*
X7977D1*
X35571D2*
X43716D1*
X-32193Y1798347D2*
X-16190D1*
X-1092D2*
X8581D1*
X34819D2*
X43681D1*
X-32970Y1795847D2*
X-21190D1*
X-764D2*
X10300D1*
X32776D2*
X43373D1*
X-33408Y1793347D2*
X-26190D1*
X-68D2*
X14721D1*
X28135D2*
X42684D1*
X-33690Y1790847D2*
X-31190D1*
X999D2*
X21151D1*
X21567D2*
X41610D1*
X2546Y1788347D2*
X39969D1*
X4818Y1785847D2*
X37311D1*
X7855Y1783347D2*
X33419D1*
X11310Y1780847D2*
X28810D1*
X765183Y-92460D2*
X842683D1*
X765183Y-94960D2*
X842683D1*
X765183Y-97460D2*
X842683D1*
X765183Y-99960D2*
X842683D1*
X765183Y-102460D2*
X775183D1*
X800183D2*
X810183D1*
X765183Y-104960D2*
X775183D1*
X800183D2*
X810183D1*
X765183Y-107460D2*
X775183D1*
X800183D2*
X810183D1*
X765183Y-109960D2*
X775183D1*
X800183D2*
X810193D1*
X765183Y-112460D2*
X775183D1*
X800183D2*
X810301D1*
X765183Y-114960D2*
X775183D1*
X800183D2*
X810564D1*
X765193Y-117460D2*
X775183D1*
X800183D2*
X811829D1*
X765281Y-119960D2*
X775193D1*
X800174D2*
X814813D1*
X765600Y-122460D2*
X775301D1*
X800066D2*
X818639D1*
X766208Y-124960D2*
X775564D1*
X799802D2*
X823074D1*
X766937Y-127460D2*
X776946D1*
X798421D2*
X827813D1*
X767711Y-129960D2*
X781225D1*
X794142D2*
X832523D1*
X768727Y-132460D2*
X787576D1*
X787791D2*
X807683D1*
X815183D2*
X836655D1*
X770211Y-134960D2*
X805183D1*
X820174D2*
X840079D1*
X772318Y-137460D2*
X802683D1*
X825078D2*
X841413D1*
X774923Y-139960D2*
X800183D1*
X829692D2*
X842141D1*
X777683Y-142460D2*
X797683D1*
X833837D2*
X842484D1*
X837683Y-144960D2*
X842683D1*
X767683Y-159960D2*
X785183D1*
X766529Y-162460D2*
X785183D1*
X765811Y-164960D2*
X785183D1*
X765448Y-167460D2*
X785183D1*
X765287Y-169960D2*
X785183D1*
X765222Y-172460D2*
X775183D1*
X835183D2*
X842683D1*
X765197Y-174960D2*
X775183D1*
X827297D2*
X842559D1*
X765188Y-177460D2*
X775183D1*
X819167D2*
X842263D1*
X765185Y-179960D2*
X775213D1*
X810893D2*
X840657D1*
X765184Y-182460D2*
X775498D1*
X802254D2*
X836159D1*
X765183Y-184960D2*
X776179D1*
X792356D2*
X830024D1*
X765183Y-187460D2*
X779102D1*
X780583D2*
X822756D1*
X765183Y-189960D2*
X814906D1*
X765183Y-192460D2*
X806645D1*
X765183Y-194960D2*
X798066D1*
X765183Y-197460D2*
X789215D1*
X765183Y-199960D2*
X780183D1*
X-824637Y-109967D2*
X-747137D1*
X-824637Y-112467D2*
X-747137D1*
X-824637Y-114967D2*
X-747137D1*
X-824637Y-117467D2*
X-747137D1*
X-824637Y-119967D2*
X-814637D1*
X-789637D2*
X-779637D1*
X-824637Y-122467D2*
X-814637D1*
X-789637D2*
X-779637D1*
X-824637Y-124967D2*
X-814637D1*
X-789637D2*
X-779637D1*
X-824637Y-127467D2*
X-814637D1*
X-789637D2*
X-779627D1*
X-824637Y-129967D2*
X-814637D1*
X-789637D2*
X-779519D1*
X-824637Y-132467D2*
X-814637D1*
X-789637D2*
X-779256D1*
X-824627Y-134967D2*
X-814637D1*
X-789637D2*
X-777991D1*
X-824539Y-137467D2*
X-814627D1*
X-789646D2*
X-775007D1*
X-824220Y-139967D2*
X-814519D1*
X-789754D2*
X-771181D1*
X-823612Y-142467D2*
X-814256D1*
X-790018D2*
X-766746D1*
X-822883Y-144967D2*
X-812874D1*
X-791399D2*
X-762007D1*
X-822109Y-147467D2*
X-808595D1*
X-795678D2*
X-757297D1*
X-821093Y-149967D2*
X-802244D1*
X-802029D2*
X-782137D1*
X-774637D2*
X-753165D1*
X-819609Y-152467D2*
X-784637D1*
X-769646D2*
X-749741D1*
X-817502Y-154967D2*
X-787137D1*
X-764742D2*
X-748407D1*
X-814897Y-157467D2*
X-789637D1*
X-760128D2*
X-747679D1*
X-812137Y-159967D2*
X-792137D1*
X-755983D2*
X-747336D1*
X-752137Y-162467D2*
X-747137D1*
X-774637Y-179967D2*
X-759637D1*
X-814637Y-182467D2*
X-794637D1*
X-778758D2*
X-756379D1*
X-817041Y-184967D2*
X-791677D1*
X-782088D2*
X-753868D1*
X-819211Y-187467D2*
X-788300D1*
X-784732D2*
X-751981D1*
X-821014Y-189967D2*
X-773749D1*
X-765223D2*
X-750454D1*
X-822457Y-192467D2*
X-811741D1*
X-798024D2*
X-776994D1*
X-761591D2*
X-749178D1*
X-823506Y-194967D2*
X-813513D1*
X-794789D2*
X-779268D1*
X-758951D2*
X-748211D1*
X-824118Y-197467D2*
X-814862D1*
X-792260D2*
X-780972D1*
X-757112D2*
X-747634D1*
X-824420Y-199967D2*
X-815861D1*
X-791105D2*
X-781561D1*
X-755715D2*
X-747345D1*
X-824543Y-202467D2*
X-815566D1*
X-791294D2*
X-781788D1*
X-755557D2*
X-747228D1*
X-824508Y-204967D2*
X-814719D1*
X-792089D2*
X-781736D1*
X-755793D2*
X-747264D1*
X-824200Y-207467D2*
X-813456D1*
X-793324D2*
X-780579D1*
X-756987D2*
X-747573D1*
X-823510Y-209967D2*
X-809737D1*
X-797039D2*
X-776146D1*
X-760118D2*
X-748263D1*
X-822446Y-212467D2*
X-804071D1*
X-802703D2*
X-768833D1*
X-767910D2*
X-749318D1*
X-820901Y-214967D2*
X-750778D1*
X-818629Y-217467D2*
X-790096D1*
X-784534D2*
X-752760D1*
X-815591Y-219967D2*
X-793473D1*
X-781646D2*
X-755344D1*
X-812137Y-222467D2*
X-797137D1*
X-778291D2*
X-758561D1*
X-774637Y-224967D2*
X-762137D1*
X776997Y373207D2*
X826997D1*
X775842Y370707D2*
X833813D1*
X775122Y368207D2*
X839202D1*
X774740Y365707D2*
X843178D1*
X774497Y363207D2*
X846078D1*
X833900Y360707D2*
X848187D1*
X837454Y358207D2*
X849750D1*
X840209Y355707D2*
X850843D1*
X841519Y353207D2*
X851470D1*
X842626Y350707D2*
X851777D1*
X843409Y348207D2*
X851912D1*
X843834Y345707D2*
X851965D1*
X843236Y343207D2*
X851976D1*
X842255Y340707D2*
X851895D1*
X840841Y338207D2*
X851569D1*
X838969Y335707D2*
X850874D1*
X836777Y333207D2*
X849817D1*
X834417Y330707D2*
X848356D1*
X774497Y328207D2*
X846373D1*
X774497Y325707D2*
X843789D1*
X774497Y323207D2*
X840572D1*
X774497Y320707D2*
X836997D1*
X786997Y300707D2*
X809497D1*
X783438Y298207D2*
X811901D1*
X780550Y295707D2*
X814071D1*
X778384Y293207D2*
X815874D1*
X776780Y290707D2*
X790384D1*
X803609D2*
X817317D1*
X846997D2*
X851997D1*
X775666Y288207D2*
X787149D1*
X806854D2*
X818366D1*
X842851D2*
X851882D1*
X775029Y285707D2*
X784620D1*
X809118D2*
X818988D1*
X838586D2*
X851616D1*
X774718Y283207D2*
X783465D1*
X810792D2*
X819385D1*
X833964D2*
X850351D1*
X774592Y280707D2*
X783664D1*
X811191D2*
X819904D1*
X828823D2*
X847367D1*
X774626Y278207D2*
X784268D1*
X810484D2*
X820813D1*
X823084D2*
X843541D1*
X774934Y275707D2*
X785987D1*
X808455D2*
X839106D1*
X775633Y273207D2*
X790408D1*
X803819D2*
X834347D1*
X776785Y270707D2*
X796838D1*
X797252D2*
X829433D1*
X778651Y268207D2*
X824373D1*
X781542Y265707D2*
X818999D1*
X785324Y263207D2*
X813149D1*
X789497Y260707D2*
X806997D1*
X-851870Y399107D2*
X-801870D1*
X-853024Y396607D2*
X-795053D1*
X-853745Y394107D2*
X-789665D1*
X-854127Y391607D2*
X-785689D1*
X-854370Y389107D2*
X-782789D1*
X-794966Y386607D2*
X-780679D1*
X-791413Y384107D2*
X-779117D1*
X-788658Y381607D2*
X-778024D1*
X-787348Y379107D2*
X-777396D1*
X-786240Y376607D2*
X-777089D1*
X-785457Y374107D2*
X-776955D1*
X-785033Y371607D2*
X-776901D1*
X-785631Y369107D2*
X-776891D1*
X-786612Y366607D2*
X-776971D1*
X-788026Y364107D2*
X-777297D1*
X-789898Y361607D2*
X-777993D1*
X-792089Y359107D2*
X-779050D1*
X-794450Y356607D2*
X-780511D1*
X-854370Y354107D2*
X-782494D1*
X-854370Y351607D2*
X-785077D1*
X-854370Y349107D2*
X-788295D1*
X-854370Y346607D2*
X-791870D1*
X-846870Y329107D2*
X-836870D1*
X-848506Y326607D2*
X-838879D1*
X-850164Y324107D2*
X-840350D1*
X-851774Y321607D2*
X-841245D1*
X-853014Y319107D2*
X-776870D1*
X-853747Y316607D2*
X-776870D1*
X-854111Y314107D2*
X-776870D1*
X-854276Y311607D2*
X-776870D1*
X-854370Y309107D2*
X-776870D1*
X-839370Y289107D2*
X-791870D1*
X-843783Y286607D2*
X-787457D1*
X-847415Y284107D2*
X-783825D1*
X-850056Y281607D2*
X-781184D1*
X-851904Y279107D2*
X-779336D1*
X-853129Y276607D2*
X-841765D1*
X-789475D2*
X-778111D1*
X-853811Y274107D2*
X-843847D1*
X-787393D2*
X-777429D1*
X-854139Y271607D2*
X-845322D1*
X-785918D2*
X-777101D1*
X-854281Y269107D2*
X-846307D1*
X-784933D2*
X-776959D1*
X-854328Y266607D2*
X-846195D1*
X-785045D2*
X-776912D1*
X-854261Y264107D2*
X-845724D1*
X-785516D2*
X-776979D1*
X-853940Y261607D2*
X-844103D1*
X-787137D2*
X-777300D1*
X-853246Y259107D2*
X-840299D1*
X-790941D2*
X-777994D1*
X-852180Y256607D2*
X-835174D1*
X-796066D2*
X-779060D1*
X-850634Y254107D2*
X-780606D1*
X-848362Y251607D2*
X-782878D1*
X-845325Y249107D2*
X-785915D1*
X-841870Y246607D2*
X-789370D1*
X-33803Y-2567D2*
X16197D1*
X-34958Y-5067D2*
X23013D1*
X-35678Y-7567D2*
X28402D1*
X-36060Y-10067D2*
X32378D1*
X-36303Y-12567D2*
X35278D1*
X23100Y-15067D2*
X37387D1*
X26654Y-17567D2*
X38950D1*
X29409Y-20067D2*
X40043D1*
X30719Y-22567D2*
X40670D1*
X31826Y-25067D2*
X40977D1*
X32609Y-27567D2*
X41112D1*
X33034Y-30067D2*
X41165D1*
X32436Y-32567D2*
X41176D1*
X31455Y-35067D2*
X41095D1*
X30041Y-37567D2*
X40769D1*
X28169Y-40067D2*
X40074D1*
X25977Y-42567D2*
X39017D1*
X23617Y-45067D2*
X37556D1*
X-36303Y-47567D2*
X35573D1*
X-36303Y-50067D2*
X32989D1*
X-36303Y-52567D2*
X29772D1*
X-36303Y-55067D2*
X26197D1*
X-28803Y-72567D2*
X-18803D1*
X-30439Y-75067D2*
X-20813D1*
X-32097Y-77567D2*
X-22284D1*
X-33707Y-80067D2*
X-23178D1*
X-34947Y-82567D2*
X41197D1*
X-35681Y-85067D2*
X41197D1*
X-36044Y-87567D2*
X41197D1*
X-36209Y-90067D2*
X41197D1*
X-36303Y-92567D2*
X41197D1*
X-28803Y-110067D2*
X-18803D1*
X-30439Y-112567D2*
X-20813D1*
X-32097Y-115067D2*
X-22284D1*
X-33707Y-117567D2*
X-23178D1*
X-34947Y-120067D2*
X41197D1*
X-35681Y-122567D2*
X41197D1*
X-36044Y-125067D2*
X41197D1*
X-36209Y-127567D2*
X41197D1*
X-36303Y-130067D2*
X41197D1*
X-19917Y2617810D2*
X-9917D1*
X115083D2*
X135083D1*
X167583D2*
X177583D1*
X202583D2*
X210083D1*
X-19917Y2615310D2*
X-9917D1*
X111525D2*
X138728D1*
X167583D2*
X177583D1*
X202583D2*
X210083D1*
X-19917Y2612810D2*
X-9917D1*
X108637D2*
X141858D1*
X167583D2*
X177583D1*
X202583D2*
X210083D1*
X-19917Y2610310D2*
X-9917D1*
X106460D2*
X144393D1*
X167583D2*
X177583D1*
X202583D2*
X210083D1*
X-19917Y2607810D2*
X-9917D1*
X104769D2*
X117593D1*
X131997D2*
X146367D1*
X167583D2*
X177583D1*
X202583D2*
X210083D1*
X-19917Y2605310D2*
X-9917D1*
X103336D2*
X115191D1*
X135637D2*
X147971D1*
X167583D2*
X177583D1*
X202583D2*
X210083D1*
X-19917Y2602810D2*
X-9917D1*
X102100D2*
X113097D1*
X138356D2*
X149438D1*
X167583D2*
X177583D1*
X202583D2*
X210083D1*
X-19917Y2600310D2*
X-9917D1*
X101149D2*
X111524D1*
X140538D2*
X150958D1*
X167583D2*
X177583D1*
X202583D2*
X210083D1*
X-19917Y2597810D2*
X-9917D1*
X100577D2*
X110362D1*
X142583D2*
X152583D1*
X167583D2*
X177583D1*
X202583D2*
X210083D1*
X-19917Y2595310D2*
X-9917D1*
X47583D2*
X82583D1*
X100291D2*
X109355D1*
X167583D2*
X177583D1*
X202583D2*
X210083D1*
X-19917Y2592810D2*
X-9917D1*
X47583D2*
X82583D1*
X100165D2*
X108538D1*
X167583D2*
X177583D1*
X202574D2*
X210083D1*
X-19917Y2590310D2*
X-9917D1*
X47583D2*
X82583D1*
X100113D2*
X108032D1*
X167583D2*
X177583D1*
X202486D2*
X210083D1*
X-19917Y2587810D2*
X4978D1*
X47583D2*
X82583D1*
X100094D2*
X107774D1*
X167583D2*
X177583D1*
X202167D2*
X210083D1*
X-19917Y2585310D2*
X15393D1*
X100087D2*
X107658D1*
X167583D2*
X177593D1*
X201559D2*
X210083D1*
X-19917Y2582810D2*
X21912D1*
X100085D2*
X107611D1*
X167583D2*
X177749D1*
X200761D2*
X210074D1*
X-19917Y2580310D2*
X26512D1*
X100084D2*
X107593D1*
X167583D2*
X178160D1*
X199838D2*
X209986D1*
X-19917Y2577810D2*
X-9917D1*
X14487D2*
X28649D1*
X100083D2*
X107587D1*
X167583D2*
X180877D1*
X196916D2*
X209657D1*
X-19917Y2575310D2*
X-9917D1*
X18031D2*
X30277D1*
X100083D2*
X107594D1*
X167583D2*
X188491D1*
X189228D2*
X208961D1*
X-19917Y2572810D2*
X-9917D1*
X20757D2*
X31406D1*
X100083D2*
X107681D1*
X167583D2*
X207884D1*
X-19917Y2570310D2*
X-9917D1*
X21704D2*
X32048D1*
X100083D2*
X108000D1*
X167583D2*
X206243D1*
X-19917Y2567810D2*
X-9917D1*
X22212D2*
X32361D1*
X100093D2*
X108608D1*
X167583D2*
X203584D1*
X-19917Y2565310D2*
X-9917D1*
X22429D2*
X32487D1*
X100181D2*
X109337D1*
X167583D2*
X177583D1*
X185083D2*
X199692D1*
X-19917Y2562810D2*
X-9917D1*
X22423D2*
X32454D1*
X100500D2*
X110111D1*
X142583D2*
X152583D1*
X167583D2*
X177583D1*
X190083D2*
X195083D1*
X-19917Y2560310D2*
X-9917D1*
X22232D2*
X32146D1*
X101108D2*
X111196D1*
X140879D2*
X151324D1*
X167583D2*
X177583D1*
X-19917Y2557810D2*
X-9917D1*
X20886D2*
X31467D1*
X101847D2*
X112677D1*
X139039D2*
X150188D1*
X167583D2*
X177583D1*
X-19917Y2555310D2*
X-9917D1*
X14700D2*
X30500D1*
X102699D2*
X117990D1*
X134332D2*
X148809D1*
X167583D2*
X177583D1*
X-19917Y2552810D2*
X-9917D1*
X3914D2*
X29359D1*
X103956D2*
X126703D1*
X126871D2*
X146992D1*
X167583D2*
X177583D1*
X-19917Y2550310D2*
X27975D1*
X105825D2*
X144806D1*
X167583D2*
X177583D1*
X-19917Y2547810D2*
X26039D1*
X108472D2*
X142171D1*
X167583D2*
X177583D1*
X-19917Y2545310D2*
X23295D1*
X112205D2*
X138574D1*
X167583D2*
X177583D1*
X-19917Y2542810D2*
X20083D1*
X117092D2*
X133533D1*
X167583D2*
X177583D1*
X122583Y2540310D2*
X127583D1*
X-306999Y-1038259D2*
D13*
X-293666D1*
X-216999D2*
X-203666D1*
X-166999D2*
X-133666D1*
X-76999D2*
X-46999D1*
X13001D2*
X43001D1*
X96334D2*
X129668D1*
X173001D2*
X186334D1*
X256334D2*
X289668D1*
X-306999Y-1041593D2*
X-293666D1*
X-216999D2*
X-203666D1*
X-180332D2*
X-128921D1*
X-81858D2*
X-41115D1*
X8142D2*
X48885D1*
X83001D2*
X134413D1*
X173001D2*
X186334D1*
X253232D2*
X296065D1*
X-306999Y-1044926D2*
X-293666D1*
X-216999D2*
X-203666D1*
X-178562D2*
X-125070D1*
X-86032D2*
X-36272D1*
X3968D2*
X53728D1*
X84772D2*
X138263D1*
X173001D2*
X186334D1*
X251172D2*
X301183D1*
X-306999Y-1048259D2*
X-293666D1*
X-216999D2*
X-203666D1*
X-176999D2*
X-166999D1*
X-137139D2*
X-122182D1*
X-89412D2*
X-72483D1*
X-51128D2*
X-32751D1*
X588D2*
X17517D1*
X38872D2*
X57249D1*
X86334D2*
X96334D1*
X126194D2*
X141152D1*
X173001D2*
X186334D1*
X249668D2*
X256334D1*
X285552D2*
X304943D1*
X-306999Y-1051593D2*
X-293666D1*
X-216999D2*
X-203666D1*
X-134376D2*
X-120043D1*
X-92031D2*
X-76809D1*
X-46402D2*
X-30287D1*
X-2031D2*
X13191D1*
X43598D2*
X59713D1*
X128957D2*
X143290D1*
X173001D2*
X186334D1*
X290395D2*
X307470D1*
X-306999Y-1054926D2*
X-293666D1*
X-216999D2*
X-203666D1*
X-132123D2*
X-118571D1*
X-94042D2*
X-79840D1*
X-42768D2*
X-28654D1*
X-4042D2*
X10160D1*
X47232D2*
X61346D1*
X131211D2*
X144763D1*
X173001D2*
X186334D1*
X293915D2*
X309194D1*
X-306999Y-1058259D2*
X-293666D1*
X-216999D2*
X-203666D1*
X-131486D2*
X-117839D1*
X-95473D2*
X-82112D1*
X-41505D2*
X-27744D1*
X-5473D2*
X7888D1*
X48495D2*
X62256D1*
X131847D2*
X145495D1*
X173001D2*
X186334D1*
X296380D2*
X310603D1*
X-306999Y-1061593D2*
X-293666D1*
X-216999D2*
X-203666D1*
X-132328D2*
X-117862D1*
X-96289D2*
X-82898D1*
X-40828D2*
X-27320D1*
X-6289D2*
X7102D1*
X49172D2*
X62680D1*
X131006D2*
X145471D1*
X173001D2*
X186334D1*
X298000D2*
X311703D1*
X-306999Y-1064926D2*
X-293666D1*
X-216999D2*
X-203666D1*
X-134757D2*
X-118610D1*
X-96578D2*
X-83214D1*
X-40538D2*
X-27248D1*
X-6578D2*
X6786D1*
X49462D2*
X62752D1*
X128577D2*
X144723D1*
X173001D2*
X186334D1*
X299056D2*
X312269D1*
X-306999Y-1068259D2*
X-293666D1*
X-260332D2*
X-246999D1*
X-216999D2*
X-203666D1*
X-137975D2*
X-119947D1*
X-96318D2*
X-82959D1*
X-40559D2*
X-27611D1*
X-6318D2*
X7041D1*
X49441D2*
X62389D1*
X125358D2*
X143386D1*
X173001D2*
X186334D1*
X299005D2*
X312178D1*
X-306999Y-1071593D2*
X-293666D1*
X-262526D2*
X-245331D1*
X-216999D2*
X-203666D1*
X-141975D2*
X-121855D1*
X-95461D2*
X-82253D1*
X-40853D2*
X-28511D1*
X-5461D2*
X7747D1*
X49147D2*
X61489D1*
X121358D2*
X141478D1*
X173001D2*
X186334D1*
X297805D2*
X311404D1*
X-306999Y-1074926D2*
X-293666D1*
X-264854D2*
X-243383D1*
X-216999D2*
X-203666D1*
X-146487D2*
X-124362D1*
X-94065D2*
X-80140D1*
X-42843D2*
X-29924D1*
X-4065D2*
X9860D1*
X47157D2*
X60076D1*
X116846D2*
X138971D1*
X173001D2*
X186334D1*
X294948D2*
X310057D1*
X-306999Y-1078259D2*
X-293666D1*
X-267439D2*
X-241346D1*
X-216999D2*
X-203666D1*
X-151175D2*
X-127303D1*
X-92013D2*
X-73093D1*
X-50289D2*
X-31982D1*
X-2013D2*
X16907D1*
X39711D2*
X58018D1*
X112158D2*
X136031D1*
X173001D2*
X186334D1*
X288155D2*
X308134D1*
X-306999Y-1081593D2*
X-293666D1*
X-270021D2*
X-239199D1*
X-216999D2*
X-203666D1*
X-155776D2*
X-130589D1*
X-88987D2*
X-61495D1*
X-62223D2*
X-35010D1*
X1013D2*
X28505D1*
X27777D2*
X54990D1*
X107557D2*
X132745D1*
X173001D2*
X223001D1*
X278228D2*
X305482D1*
X-306999Y-1084926D2*
X-293666D1*
X-272396D2*
X-256986D1*
X-250848D2*
X-236959D1*
X-216999D2*
X-203666D1*
X-160252D2*
X-134393D1*
X-84938D2*
X-39060D1*
X5062D2*
X50940D1*
X103081D2*
X128941D1*
X173001D2*
X223001D1*
X266334D2*
X301873D1*
X-306999Y-1088259D2*
X-293666D1*
X-274697D2*
X-260202D1*
X-248354D2*
X-234779D1*
X-216999D2*
X-203666D1*
X-164737D2*
X-138935D1*
X-80332D2*
X-43666D1*
X9668D2*
X46334D1*
X98596D2*
X124398D1*
X173001D2*
X223001D1*
X266474D2*
X296861D1*
X-306999Y-1091593D2*
X-293666D1*
X-277001D2*
X-263111D1*
X-246001D2*
X-232571D1*
X-216999D2*
X-203666D1*
X-168971D2*
X-144029D1*
X-85065D2*
X-38934D1*
X4935D2*
X51066D1*
X94362D2*
X119304D1*
X173001D2*
X186334D1*
X267032D2*
X290330D1*
X-306999Y-1094926D2*
X-293666D1*
X-279205D2*
X-265633D1*
X-243676D2*
X-230293D1*
X-217012D2*
X-203666D1*
X-172515D2*
X-149220D1*
X-88798D2*
X-73539D1*
X-51516D2*
X-35201D1*
X1202D2*
X16461D1*
X38484D2*
X54799D1*
X90819D2*
X114114D1*
X173001D2*
X186334D1*
X268386D2*
X283001D1*
X-306999Y-1098259D2*
X-293653D1*
X-281423D2*
X-267994D1*
X-241464D2*
X-227965D1*
X-217139D2*
X-203666D1*
X-175254D2*
X-154228D1*
X-91683D2*
X-76432D1*
X-47190D2*
X-32315D1*
X-1683D2*
X13568D1*
X42810D2*
X57685D1*
X88080D2*
X109106D1*
X173001D2*
X186334D1*
X270594D2*
X286207D1*
X-306999Y-1101593D2*
X-293526D1*
X-283688D2*
X-270321D1*
X-239244D2*
X-225130D1*
X-217654D2*
X-203666D1*
X-177328D2*
X-158736D1*
X-92707D2*
X-78823D1*
X-44171D2*
X-31291D1*
X-2707D2*
X11177D1*
X45829D2*
X58709D1*
X86005D2*
X104598D1*
X173001D2*
X186334D1*
X273383D2*
X289113D1*
X-306999Y-1104926D2*
X-293011D1*
X-285862D2*
X-272534D1*
X-236975D2*
X-221352D1*
X-218794D2*
X-203666D1*
X-178788D2*
X-162282D1*
X-93259D2*
X-80629D1*
X-41938D2*
X-30739D1*
X-3259D2*
X9371D1*
X48062D2*
X59261D1*
X84545D2*
X101051D1*
X173001D2*
X186334D1*
X276482D2*
X291648D1*
X-306999Y-1108259D2*
X-291871D1*
X-288048D2*
X-274754D1*
X-234785D2*
X-203666D1*
X-179615D2*
X-165014D1*
X-93494D2*
X-81965D1*
X-41355D2*
X-30504D1*
X-3494D2*
X8035D1*
X48645D2*
X59496D1*
X83718D2*
X98319D1*
X173001D2*
X186334D1*
X279721D2*
X294126D1*
X-306999Y-1111593D2*
X-277023D1*
X-232573D2*
X-203666D1*
X-179896D2*
X-165515D1*
X-93464D2*
X-81749D1*
X-41946D2*
X-30534D1*
X-3464D2*
X8251D1*
X48054D2*
X59466D1*
X83437D2*
X97818D1*
X173001D2*
X186334D1*
X283020D2*
X296878D1*
X-306999Y-1114926D2*
X-279213D1*
X-230307D2*
X-203666D1*
X-179807D2*
X-165492D1*
X-92947D2*
X-79951D1*
X-43928D2*
X-31051D1*
X-2947D2*
X10049D1*
X46072D2*
X58949D1*
X83526D2*
X97842D1*
X173001D2*
X186334D1*
X286341D2*
X299889D1*
X-306999Y-1118259D2*
X-281425D1*
X-228105D2*
X-203666D1*
X-178285D2*
X-157380D1*
X-91594D2*
X-73007D1*
X-50936D2*
X-32404D1*
X-1594D2*
X16993D1*
X39064D2*
X57596D1*
X85049D2*
X105953D1*
X173001D2*
X186334D1*
X289670D2*
X302951D1*
X-306999Y-1121593D2*
X-283689D1*
X-225776D2*
X-203666D1*
X-175796D2*
X-143976D1*
X-126999D2*
X-123666D1*
X-89264D2*
X-61463D1*
X-62515D2*
X-34734D1*
X736D2*
X28537D1*
X27485D2*
X55266D1*
X87537D2*
X119357D1*
X136334D2*
X139668D1*
X173001D2*
X186334D1*
X293002D2*
X305672D1*
X-306999Y-1124926D2*
X-285862D1*
X-223088D2*
X-203666D1*
X-171974D2*
X-123666D1*
X-85962D2*
X-38036D1*
X4038D2*
X51964D1*
X91360D2*
X139668D1*
X173001D2*
X229668D1*
X249668D2*
X307641D1*
X-306999Y-1128259D2*
X-288048D1*
X-220105D2*
X-203666D1*
X-166605D2*
X-123666D1*
X-81733D2*
X-42265D1*
X8267D2*
X47735D1*
X96729D2*
X139668D1*
X173001D2*
X229668D1*
X249668D2*
X308834D1*
X-306999Y-1131593D2*
X-290332D1*
X-216999D2*
X-203666D1*
X-160332D2*
X-123666D1*
X-76999D2*
X-46999D1*
X13001D2*
X43001D1*
X103001D2*
X139668D1*
X173001D2*
X229668D1*
X249668D2*
X309668D1*
X-696700Y2645303D2*
D14*
X-701209Y2642803D1*
X-705161Y2640303D1*
X-708401Y2637803D1*
X-710900Y2635303D1*
X-712649Y2632803D1*
X-713881Y2630303D1*
X-714914Y2627803D1*
X-715741Y2625303D1*
X-716250Y2622803D1*
X-716499Y2620303D1*
X-716527Y2617803D1*
X-716256Y2615303D1*
X-715665Y2612803D1*
X-714933Y2610303D1*
X-714083Y2607803D1*
X-712837Y2605303D1*
X-711075Y2602803D1*
X-708940Y2600303D1*
X-706605Y2597803D1*
X-704200Y2595303D1*
X-659200Y2645303D2*
X-654691Y2642803D1*
X-650739Y2640303D1*
X-647490Y2637803D1*
X-644912Y2635303D1*
X-642933Y2632803D1*
X-641420Y2630303D1*
X-640345Y2627803D1*
X-639723Y2625303D1*
X-639418Y2622803D1*
X-639285Y2620303D1*
X-639241Y2617803D1*
X-639309Y2615303D1*
X-639630Y2612803D1*
X-640324Y2610303D1*
X-641380Y2607803D1*
X-642831Y2605303D1*
X-644738Y2602803D1*
X-647127Y2600303D1*
X-650267Y2597803D1*
X-654421Y2595303D1*
X-659200Y2592803D1*
X-694200Y2635303D2*
X-698313Y2632803D1*
X-701567Y2630303D1*
X-703929Y2627803D1*
X-705691Y2625303D1*
X-706989Y2622803D1*
X-707947Y2620303D1*
X-707649Y2617803D1*
X-706913Y2615303D1*
X-705810Y2612803D1*
X-704261Y2610303D1*
X-702221Y2607803D1*
X-700072Y2605303D1*
X-698438Y2602803D1*
X-697486Y2600303D1*
X-697001Y2597803D1*
X-696700Y2595303D1*
X-661700Y2635303D2*
X-657296Y2632803D1*
X-653743Y2630303D1*
X-650988Y2627803D1*
X-649688Y2625303D1*
X-648658Y2622803D1*
X-647872Y2620303D1*
X-648127Y2617803D1*
X-648644Y2615303D1*
X-649398Y2612803D1*
X-650678Y2610303D1*
X-652643Y2607803D1*
X-654955Y2605303D1*
X-656920Y2602803D1*
X-658366Y2600303D1*
X-658809Y2597803D1*
X-659050Y2595303D1*
X-659200Y2592803D1*
X-664200Y2577803D2*
X-669200Y2575303D1*
X-674200Y2572803D1*
X-679210Y2570303D1*
X-684298Y2567803D1*
X-689616Y2565303D1*
X-695215Y2562803D1*
X-700836Y2560303D1*
X-706077Y2557803D1*
X-710476Y2555303D1*
X-714048Y2552803D1*
X-715414Y2550303D1*
X-716193Y2547803D1*
X-716700Y2545303D1*
X-651700Y2577803D2*
Y2575303D1*
Y2572803D1*
Y2570303D1*
Y2567803D1*
Y2565303D1*
Y2562803D1*
Y2560303D1*
Y2557803D1*
Y2555303D1*
Y2552803D1*
Y2550303D1*
Y2547803D1*
Y2545303D1*
X-639200D1*
Y2542803D1*
Y2540303D1*
Y2537803D1*
Y2535303D1*
Y2532803D1*
X-651700D1*
Y2530303D1*
X-661700Y2567803D2*
X-667086Y2565303D1*
X-672706Y2562803D1*
X-678353Y2560303D1*
X-683791Y2557803D1*
X-689033Y2555303D1*
X-694235Y2552803D1*
X-699665Y2550303D1*
X-705537Y2547803D1*
X-711700Y2545303D1*
X-659200Y2567803D2*
Y2565303D1*
Y2562803D1*
Y2560303D1*
Y2557803D1*
Y2555303D1*
Y2552803D1*
Y2550303D1*
Y2547803D1*
Y2545303D1*
X-684200D1*
Y2542803D1*
Y2540303D1*
Y2537803D1*
Y2535303D1*
Y2532803D1*
X-659200D1*
Y2530303D1*
X-477533Y2167757D2*
X-482042Y2165257D1*
X-485994Y2162757D1*
X-489234Y2160257D1*
X-491733Y2157757D1*
X-493482Y2155257D1*
X-494715Y2152757D1*
X-495747Y2150257D1*
X-496574Y2147757D1*
X-497083Y2145257D1*
X-497333Y2142757D1*
X-497361Y2140257D1*
X-497089Y2137757D1*
X-496499Y2135257D1*
X-495767Y2132757D1*
X-494917Y2130257D1*
X-493670Y2127757D1*
X-491909Y2125257D1*
X-489774Y2122757D1*
X-487439Y2120257D1*
X-485033Y2117757D1*
X-440033Y2167757D2*
X-435525Y2165257D1*
X-431572Y2162757D1*
X-428323Y2160257D1*
X-425745Y2157757D1*
X-423766Y2155257D1*
X-422253Y2152757D1*
X-421178Y2150257D1*
X-420557Y2147757D1*
X-420252Y2145257D1*
X-420118Y2142757D1*
X-420074Y2140257D1*
X-420142Y2137757D1*
X-420463Y2135257D1*
X-421157Y2132757D1*
X-422213Y2130257D1*
X-423664Y2127757D1*
X-425571Y2125257D1*
X-427960Y2122757D1*
X-431100Y2120257D1*
X-435255Y2117757D1*
X-440033Y2115257D1*
X-475033Y2157757D2*
X-479146Y2155257D1*
X-482400Y2152757D1*
X-484762Y2150257D1*
X-486524Y2147757D1*
X-487822Y2145257D1*
X-488780Y2142757D1*
X-488483Y2140257D1*
X-487747Y2137757D1*
X-486643Y2135257D1*
X-485094Y2132757D1*
X-483055Y2130257D1*
X-480905Y2127757D1*
X-479271Y2125257D1*
X-478320Y2122757D1*
X-477835Y2120257D1*
X-477533Y2117757D1*
X-442533Y2157757D2*
X-438130Y2155257D1*
X-434576Y2152757D1*
X-431821Y2150257D1*
X-430521Y2147757D1*
X-429491Y2145257D1*
X-428705Y2142757D1*
X-428961Y2140257D1*
X-429477Y2137757D1*
X-430232Y2135257D1*
X-431511Y2132757D1*
X-433477Y2130257D1*
X-435789Y2127757D1*
X-437753Y2125257D1*
X-439199Y2122757D1*
X-439643Y2120257D1*
X-439883Y2117757D1*
X-440033Y2115257D1*
X-437533Y2100257D2*
X-437514Y2097757D1*
X-437328Y2095257D1*
X-436889Y2092757D1*
X-435063Y2090257D1*
X-432809Y2087757D1*
X-430693Y2085257D1*
X-428935Y2082757D1*
X-428382Y2080257D1*
X-428735Y2077757D1*
X-430055Y2075257D1*
X-435906Y2072757D1*
X-446423Y2070257D1*
X-460033Y2067757D1*
X-435033Y2100257D2*
X-431389Y2097757D1*
X-428259Y2095257D1*
X-425724Y2092757D1*
X-423759Y2090257D1*
X-422251Y2087757D1*
X-421178Y2085257D1*
X-420556Y2082757D1*
X-420251Y2080257D1*
X-420128Y2077757D1*
X-420172Y2075257D1*
X-420568Y2072757D1*
X-421576Y2070257D1*
X-423249Y2067757D1*
X-425530Y2065257D1*
X-428626Y2062757D1*
X-432764Y2060257D1*
X-437533Y2057757D1*
X-497533Y2097757D2*
Y2095257D1*
Y2092757D1*
Y2090257D1*
Y2087757D1*
Y2085257D1*
Y2082757D1*
Y2080257D1*
Y2077757D1*
Y2075257D1*
Y2072757D1*
Y2070257D1*
Y2067757D1*
Y2065257D1*
Y2062757D1*
Y2060257D1*
X-457533Y2097757D2*
X-457638Y2095257D1*
X-458047Y2092757D1*
X-458964Y2090257D1*
X-460204Y2087757D1*
X-461281Y2085257D1*
X-461949Y2082757D1*
X-462277Y2080257D1*
X-462435Y2077757D1*
X-461781Y2075257D1*
X-457905Y2072757D1*
X-446398Y2070257D1*
X-432533Y2067757D1*
X-487533Y2090257D2*
Y2087757D1*
Y2085257D1*
Y2082757D1*
Y2080257D1*
Y2077757D1*
Y2075257D1*
Y2072757D1*
Y2070257D1*
Y2067757D1*
Y2065257D1*
Y2062757D1*
Y2060257D1*
X-470033Y2090257D2*
X-470420Y2087757D1*
X-471039Y2085257D1*
X-471687Y2082757D1*
X-472115Y2080257D1*
X-472259Y2077757D1*
X-472037Y2075257D1*
X-471385Y2072757D1*
X-470344Y2070257D1*
X-468880Y2067757D1*
X-466804Y2065257D1*
X-463834Y2062757D1*
X-459763Y2060257D1*
X-455033Y2057757D1*
X1012453Y1010027D2*
X1007945Y1007527D1*
X1003992Y1005027D1*
X1000753Y1002527D1*
X998253Y1000027D1*
X996505Y997527D1*
X995272Y995027D1*
X994239Y992527D1*
X993413Y990027D1*
X992903Y987527D1*
X992654Y985027D1*
X992626Y982527D1*
X992897Y980027D1*
X993488Y977527D1*
X994220Y975027D1*
X995070Y972527D1*
X996316Y970027D1*
X998078Y967527D1*
X1000213Y965027D1*
X1002548Y962527D1*
X1004953Y960027D1*
X1049953Y1010027D2*
X1054462Y1007527D1*
X1058414Y1005027D1*
X1061664Y1002527D1*
X1064241Y1000027D1*
X1066221Y997527D1*
X1067733Y995027D1*
X1068808Y992527D1*
X1069430Y990027D1*
X1069735Y987527D1*
X1069869Y985027D1*
X1069912Y982527D1*
X1069845Y980027D1*
X1069524Y977527D1*
X1068830Y975027D1*
X1067773Y972527D1*
X1066322Y970027D1*
X1064415Y967527D1*
X1062027Y965027D1*
X1058887Y962527D1*
X1054732Y960027D1*
X1049953Y957527D1*
X1014953Y1000027D2*
X1010841Y997527D1*
X1007586Y995027D1*
X1005225Y992527D1*
X1003463Y990027D1*
X1002165Y987527D1*
X1001206Y985027D1*
X1001504Y982527D1*
X1002240Y980027D1*
X1003344Y977527D1*
X1004893Y975027D1*
X1006932Y972527D1*
X1009082Y970027D1*
X1010715Y967527D1*
X1011667Y965027D1*
X1012152Y962527D1*
X1012453Y960027D1*
X1047453Y1000027D2*
X1051857Y997527D1*
X1055411Y995027D1*
X1058166Y992527D1*
X1059466Y990027D1*
X1060495Y987527D1*
X1061282Y985027D1*
X1061026Y982527D1*
X1060510Y980027D1*
X1059755Y977527D1*
X1058475Y975027D1*
X1056510Y972527D1*
X1054198Y970027D1*
X1052234Y967527D1*
X1050787Y965027D1*
X1050344Y962527D1*
X1050103Y960027D1*
X1049953Y957527D1*
X1034953Y942527D2*
X1028799Y940027D1*
X1023081Y937527D1*
X1017718Y935027D1*
X1012567Y932527D1*
X1007599Y930027D1*
X1003000Y927527D1*
X999104Y925027D1*
X996173Y922527D1*
X993950Y920027D1*
X993174Y917527D1*
X992736Y915027D1*
X992453Y912527D1*
X1059953Y942527D2*
X1062358Y940027D1*
X1064528Y937527D1*
X1066331Y935027D1*
X1067774Y932527D1*
X1068823Y930027D1*
X1069435Y927527D1*
X1069737Y925027D1*
X1069859Y922527D1*
X1069825Y920027D1*
X1069516Y917527D1*
X1068827Y915027D1*
X1067753Y912527D1*
X1066112Y910027D1*
X1063454Y907527D1*
X1059562Y905027D1*
X1054953Y902527D1*
X1044953Y935027D2*
X1040841Y932527D1*
X1037606Y930027D1*
X1035077Y927527D1*
X1033921Y925027D1*
X1034121Y922527D1*
X1034724Y920027D1*
X1036444Y917527D1*
X1040865Y915027D1*
X1047295Y912527D1*
X1054953Y910027D1*
Y935027D2*
X1057057Y932527D1*
X1058840Y930027D1*
X1060266Y927527D1*
X1061442Y925027D1*
X1061714Y922527D1*
X1060962Y920027D1*
X1058919Y917527D1*
X1054279Y915027D1*
X1047710Y912527D1*
X1039953Y910027D1*
X1024953Y927527D2*
X1019953Y925027D1*
X1014953Y922527D1*
X1009953Y920027D1*
X1004953Y917527D1*
X999953Y915027D1*
X994953Y912527D1*
X1024953Y927527D2*
Y925027D1*
X1024963Y922527D1*
X1025051Y920027D1*
X1025379Y917527D1*
X1026076Y915027D1*
X1027143Y912527D1*
X1028689Y910027D1*
X1030961Y907527D1*
X1033999Y905027D1*
X1037453Y902527D1*
X-1033060Y1015900D2*
X-1037569Y1013400D1*
X-1041521Y1010900D1*
X-1044761Y1008400D1*
X-1047260Y1005900D1*
X-1049009Y1003400D1*
X-1050241Y1000900D1*
X-1051274Y998400D1*
X-1052101Y995900D1*
X-1052610Y993400D1*
X-1052859Y990900D1*
X-1052887Y988400D1*
X-1052616Y985900D1*
X-1052025Y983400D1*
X-1051293Y980900D1*
X-1050443Y978400D1*
X-1049197Y975900D1*
X-1047435Y973400D1*
X-1045300Y970900D1*
X-1042965Y968400D1*
X-1040560Y965900D1*
X-995560Y1015900D2*
X-991051Y1013400D1*
X-987099Y1010900D1*
X-983850Y1008400D1*
X-981272Y1005900D1*
X-979293Y1003400D1*
X-977780Y1000900D1*
X-976705Y998400D1*
X-976083Y995900D1*
X-975778Y993400D1*
X-975645Y990900D1*
X-975601Y988400D1*
X-975669Y985900D1*
X-975990Y983400D1*
X-976684Y980900D1*
X-977740Y978400D1*
X-979191Y975900D1*
X-981098Y973400D1*
X-983487Y970900D1*
X-986627Y968400D1*
X-990781Y965900D1*
X-995560Y963400D1*
X-1030560Y1005900D2*
X-1034673Y1003400D1*
X-1037927Y1000900D1*
X-1040289Y998400D1*
X-1042051Y995900D1*
X-1043349Y993400D1*
X-1044307Y990900D1*
X-1044009Y988400D1*
X-1043273Y985900D1*
X-1042170Y983400D1*
X-1040621Y980900D1*
X-1038581Y978400D1*
X-1036432Y975900D1*
X-1034798Y973400D1*
X-1033846Y970900D1*
X-1033361Y968400D1*
X-1033060Y965900D1*
X-998060Y1005900D2*
X-993656Y1003400D1*
X-990103Y1000900D1*
X-987348Y998400D1*
X-986048Y995900D1*
X-985018Y993400D1*
X-984232Y990900D1*
X-984487Y988400D1*
X-985004Y985900D1*
X-985758Y983400D1*
X-987038Y980900D1*
X-989003Y978400D1*
X-991315Y975900D1*
X-993280Y973400D1*
X-994726Y970900D1*
X-995169Y968400D1*
X-995410Y965900D1*
X-995560Y963400D1*
X-1050560Y950900D2*
X-1051714Y948400D1*
X-1052432Y945900D1*
X-1052795Y943400D1*
X-1052957Y940900D1*
X-1053022Y938400D1*
X-1053046Y935900D1*
X-1053055Y933400D1*
X-1053058Y930900D1*
X-1053060Y928400D1*
Y925900D1*
Y923400D1*
Y920900D1*
Y918400D1*
Y915900D1*
Y913400D1*
Y910900D1*
X-1033060Y950900D2*
Y948400D1*
Y945900D1*
Y943400D1*
Y940900D1*
Y938400D1*
X-1043060D1*
Y935900D1*
Y933400D1*
X-1043031Y930900D1*
X-1042745Y928400D1*
X-1042064Y925900D1*
X-1039142Y923400D1*
X-1035560Y920900D1*
X-983060Y938400D2*
X-990946Y935900D1*
X-999076Y933400D1*
X-1007350Y930900D1*
X-1015989Y928400D1*
X-1025887Y925900D1*
X-1037661Y923400D1*
X-1050560Y920900D1*
X-975560Y938400D2*
X-975685Y935900D1*
X-975980Y933400D1*
X-977586Y930900D1*
X-982084Y928400D1*
X-988220Y925900D1*
X-995487Y923400D1*
X-1003337Y920900D1*
X-1011599Y918400D1*
X-1020177Y915900D1*
X-1029029Y913400D1*
X-1038060Y910900D1*
X102007Y2458570D2*
X97498Y2456070D1*
X93546Y2453570D1*
X90306Y2451070D1*
X87807Y2448570D1*
X86058Y2446070D1*
X84825Y2443570D1*
X83793Y2441070D1*
X82966Y2438570D1*
X82457Y2436070D1*
X82198Y2433570D1*
X82092Y2431070D1*
X82132Y2428570D1*
X82443Y2426070D1*
X83132Y2423570D1*
X84187Y2421070D1*
X85638Y2418570D1*
X87535Y2416070D1*
X89828Y2413570D1*
X92582Y2411070D1*
X95882Y2408570D1*
X99507Y2406070D1*
X139507Y2458570D2*
X144015Y2456070D1*
X147968Y2453570D1*
X151217Y2451070D1*
X153795Y2448570D1*
X155774Y2446070D1*
X157287Y2443570D1*
X158362Y2441070D1*
X158983Y2438570D1*
X159288Y2436070D1*
X159422Y2433570D1*
X159466Y2431070D1*
X159398Y2428570D1*
X159077Y2426070D1*
X158393Y2423570D1*
X157434Y2421070D1*
X156400Y2418570D1*
X155537Y2416070D1*
X155092Y2413570D1*
X154989Y2411070D1*
X156055Y2408570D1*
X157647Y2406070D1*
X159507Y2403570D1*
X157007Y2401070D1*
X104507Y2448570D2*
X100394Y2446070D1*
X97149Y2443570D1*
X94876Y2441070D1*
X93172Y2438570D1*
X92573Y2436070D1*
X92248Y2433570D1*
X92111Y2431070D1*
X92149Y2428570D1*
X92562Y2426070D1*
X93390Y2423570D1*
X96155Y2421070D1*
X100328Y2418570D1*
X105860Y2416070D1*
X112007Y2413570D1*
X137007Y2448570D2*
X141410Y2446070D1*
X144964Y2443570D1*
X147719Y2441070D1*
X149019Y2438570D1*
X150049Y2436070D1*
X150835Y2433570D1*
X150579Y2431070D1*
X150065Y2428570D1*
X149349Y2426070D1*
X148296Y2423570D1*
X147007Y2421070D1*
X134507Y2428570D2*
X132007Y2426070D1*
X134015Y2423570D1*
X135478Y2421070D1*
X136317Y2418570D1*
X136743Y2416070D1*
X137007Y2413570D1*
X139507Y2428570D2*
X142466Y2426070D1*
X145843Y2423570D1*
X149507Y2421070D1*
X144507Y2408570D2*
X142007Y2406070D1*
X144507Y2408570D2*
X147007Y2406070D1*
X149507Y2403570D1*
X152007Y2401070D1*
X94507Y2386070D2*
X90948Y2383570D1*
X88060Y2381070D1*
X85894Y2378570D1*
X84290Y2376070D1*
X83176Y2373570D1*
X82539Y2371070D1*
X82228Y2368570D1*
X82102Y2366070D1*
X82136Y2363570D1*
X82444Y2361070D1*
X83133Y2358570D1*
X84188Y2356070D1*
X85638Y2353570D1*
X87523Y2351070D1*
X89706Y2348570D1*
X92007Y2346070D1*
X102007Y2386070D2*
X101797Y2383570D1*
X101323Y2381070D1*
X99220Y2378570D1*
X96588Y2376070D1*
X94100Y2373570D1*
X92171Y2371070D1*
X90667Y2368570D1*
X90260Y2366070D1*
X90933Y2363570D1*
X92046Y2361070D1*
X95559Y2358570D1*
X100776Y2356070D1*
X107007Y2353570D1*
X149507Y2386070D2*
X145757Y2383570D1*
X142219Y2381070D1*
X138747Y2378570D1*
X135357Y2376070D1*
X132037Y2373570D1*
X128672Y2371070D1*
X125328Y2368570D1*
X122007Y2366070D1*
X118443Y2363570D1*
X114168Y2361070D1*
X108399Y2358570D1*
X100729Y2356070D1*
X92007Y2353570D1*
X159507Y2386070D2*
Y2383570D1*
Y2381070D1*
Y2378570D1*
Y2376070D1*
Y2373570D1*
Y2371070D1*
Y2368570D1*
Y2366070D1*
Y2363570D1*
Y2361070D1*
Y2358570D1*
Y2356070D1*
Y2353570D1*
Y2351070D1*
Y2348570D1*
Y2346070D1*
X147007Y2373570D2*
X144411Y2371070D1*
X141581Y2368570D1*
X138394Y2366070D1*
X134934Y2363570D1*
X131390Y2361070D1*
X127929Y2358570D1*
X124559Y2356070D1*
X121089Y2353570D1*
X117432Y2351070D1*
X113552Y2348570D1*
X109507Y2346070D1*
X149507Y2373570D2*
Y2371070D1*
Y2368570D1*
Y2366070D1*
Y2363570D1*
Y2361070D1*
Y2358570D1*
Y2356070D1*
Y2353570D1*
Y2351070D1*
Y2348570D1*
Y2346070D1*
X-726693Y2461630D2*
Y2459130D1*
Y2456630D1*
Y2454130D1*
Y2451630D1*
Y2449130D1*
Y2446630D1*
Y2444130D1*
Y2441630D1*
Y2439130D1*
X-726684Y2436630D1*
X-726596Y2434130D1*
X-726277Y2431630D1*
X-725669Y2429130D1*
X-724940Y2426630D1*
X-724166Y2424130D1*
X-723149Y2421630D1*
X-721666Y2419130D1*
X-719558Y2416630D1*
X-716953Y2414130D1*
X-714193Y2411630D1*
X-649193Y2461630D2*
Y2459130D1*
Y2456630D1*
Y2454130D1*
X-716693D2*
Y2451630D1*
Y2449130D1*
Y2446630D1*
Y2444130D1*
Y2441630D1*
Y2439130D1*
Y2436630D1*
X-716684Y2434130D1*
X-716576Y2431630D1*
X-716312Y2429130D1*
X-714931Y2426630D1*
X-710652Y2424130D1*
X-704301Y2421630D1*
X-696693Y2419130D1*
X-691693Y2454130D2*
Y2451630D1*
Y2449130D1*
Y2446630D1*
Y2444130D1*
Y2441630D1*
Y2439130D1*
Y2436630D1*
X-691703Y2434130D1*
X-691811Y2431630D1*
X-692074Y2429130D1*
X-693456Y2426630D1*
X-697735Y2424130D1*
X-704086Y2421630D1*
X-711693Y2419130D1*
X-681693Y2454130D2*
Y2451630D1*
Y2449130D1*
Y2446630D1*
X-681684Y2444130D1*
X-681576Y2441630D1*
X-681312Y2439130D1*
X-680048Y2436630D1*
X-677064Y2434130D1*
X-673238Y2431630D1*
X-668803Y2429130D1*
X-664063Y2426630D1*
X-659354Y2424130D1*
X-655222Y2421630D1*
X-651798Y2419130D1*
X-650464Y2416630D1*
X-649735Y2414130D1*
X-649393Y2411630D1*
X-649193Y2409130D1*
X-681693Y2424130D2*
X-684193Y2421630D1*
X-686693Y2419130D1*
X-689193Y2416630D1*
X-691693Y2414130D1*
X-694193Y2411630D1*
X-681693Y2424130D2*
X-676693Y2421630D1*
X-671703Y2419130D1*
X-666798Y2416630D1*
X-662185Y2414130D1*
X-658039Y2411630D1*
X-654193Y2409130D1*
X-674193Y2391630D2*
X-679193Y2389130D1*
X-684193Y2386630D1*
X-689203Y2384130D1*
X-694291Y2381630D1*
X-699610Y2379130D1*
X-705208Y2376630D1*
X-710830Y2374130D1*
X-716071Y2371630D1*
X-720470Y2369130D1*
X-724041Y2366630D1*
X-725407Y2364130D1*
X-726186Y2361630D1*
X-726693Y2359130D1*
X-661693Y2391630D2*
Y2389130D1*
Y2386630D1*
Y2384130D1*
Y2381630D1*
Y2379130D1*
Y2376630D1*
Y2374130D1*
Y2371630D1*
Y2369130D1*
Y2366630D1*
Y2364130D1*
Y2361630D1*
Y2359130D1*
X-649193D1*
Y2356630D1*
Y2354130D1*
Y2351630D1*
Y2349130D1*
Y2346630D1*
X-661693D1*
Y2344130D1*
X-671693Y2381630D2*
X-677080Y2379130D1*
X-682699Y2376630D1*
X-688347Y2374130D1*
X-693785Y2371630D1*
X-699027Y2369130D1*
X-704228Y2366630D1*
X-709658Y2364130D1*
X-715530Y2361630D1*
X-721693Y2359130D1*
X-669193Y2381630D2*
Y2379130D1*
Y2376630D1*
Y2374130D1*
Y2371630D1*
Y2369130D1*
Y2366630D1*
Y2364130D1*
Y2361630D1*
Y2359130D1*
X-694193D1*
Y2356630D1*
Y2354130D1*
Y2351630D1*
Y2349130D1*
Y2346630D1*
X-669193D1*
Y2344130D1*
X397960Y2163650D2*
Y2161150D1*
Y2158650D1*
Y2156150D1*
Y2153650D1*
Y2151150D1*
Y2148650D1*
Y2146150D1*
Y2143650D1*
Y2141150D1*
X397970Y2138650D1*
X398058Y2136150D1*
X398376Y2133650D1*
X398985Y2131150D1*
X399714Y2128650D1*
X400488Y2126150D1*
X401504Y2123650D1*
X402987Y2121150D1*
X405095Y2118650D1*
X407700Y2116150D1*
X410460Y2113650D1*
X475460Y2163650D2*
Y2161150D1*
Y2158650D1*
Y2156150D1*
X407960D2*
Y2153650D1*
Y2151150D1*
Y2148650D1*
Y2146150D1*
Y2143650D1*
Y2141150D1*
Y2138650D1*
X407970Y2136150D1*
X408077Y2133650D1*
X408341Y2131150D1*
X409723Y2128650D1*
X414002Y2126150D1*
X420352Y2123650D1*
X427960Y2121150D1*
X432960Y2156150D2*
Y2153650D1*
Y2151150D1*
Y2148650D1*
Y2146150D1*
Y2143650D1*
Y2141150D1*
Y2138650D1*
X432950Y2136150D1*
X432843Y2133650D1*
X432579Y2131150D1*
X431197Y2128650D1*
X426918Y2126150D1*
X420568Y2123650D1*
X412960Y2121150D1*
X442960Y2156150D2*
Y2153650D1*
Y2151150D1*
Y2148650D1*
X442970Y2146150D1*
X443077Y2143650D1*
X443341Y2141150D1*
X444606Y2138650D1*
X447589Y2136150D1*
X451415Y2133650D1*
X455851Y2131150D1*
X460590Y2128650D1*
X465299Y2126150D1*
X469432Y2123650D1*
X472855Y2121150D1*
X474189Y2118650D1*
X474918Y2116150D1*
X475261Y2113650D1*
X475460Y2111150D1*
X442960Y2126150D2*
X440460Y2123650D1*
X437960Y2121150D1*
X435460Y2118650D1*
X432960Y2116150D1*
X430460Y2113650D1*
X442960Y2126150D2*
X447960Y2123650D1*
X452950Y2121150D1*
X457855Y2118650D1*
X462469Y2116150D1*
X466614Y2113650D1*
X470460Y2111150D1*
X457960Y2093650D2*
X457980Y2091150D1*
X458165Y2088650D1*
X458605Y2086150D1*
X460430Y2083650D1*
X462685Y2081150D1*
X464801Y2078650D1*
X466558Y2076150D1*
X467111Y2073650D1*
X466758Y2071150D1*
X465438Y2068650D1*
X459587Y2066150D1*
X449071Y2063650D1*
X435460Y2061150D1*
X460460Y2093650D2*
X464104Y2091150D1*
X467234Y2088650D1*
X469769Y2086150D1*
X471734Y2083650D1*
X473242Y2081150D1*
X474316Y2078650D1*
X474937Y2076150D1*
X475242Y2073650D1*
X475365Y2071150D1*
X475321Y2068650D1*
X474925Y2066150D1*
X473918Y2063650D1*
X472245Y2061150D1*
X469963Y2058650D1*
X466867Y2056150D1*
X462730Y2053650D1*
X457960Y2051150D1*
X397960Y2091150D2*
Y2088650D1*
Y2086150D1*
Y2083650D1*
Y2081150D1*
Y2078650D1*
Y2076150D1*
Y2073650D1*
Y2071150D1*
Y2068650D1*
Y2066150D1*
Y2063650D1*
Y2061150D1*
Y2058650D1*
Y2056150D1*
Y2053650D1*
X437960Y2091150D2*
X437855Y2088650D1*
X437447Y2086150D1*
X436529Y2083650D1*
X435289Y2081150D1*
X434212Y2078650D1*
X433544Y2076150D1*
X433216Y2073650D1*
X433059Y2071150D1*
X433712Y2068650D1*
X437588Y2066150D1*
X449095Y2063650D1*
X462960Y2061150D1*
X407960Y2083650D2*
Y2081150D1*
Y2078650D1*
Y2076150D1*
Y2073650D1*
Y2071150D1*
Y2068650D1*
Y2066150D1*
Y2063650D1*
Y2061150D1*
Y2058650D1*
Y2056150D1*
Y2053650D1*
X425460Y2083650D2*
X425074Y2081150D1*
X424454Y2078650D1*
X423807Y2076150D1*
X423378Y2073650D1*
X423234Y2071150D1*
X423456Y2068650D1*
X424109Y2066150D1*
X425149Y2063650D1*
X426613Y2061150D1*
X428690Y2058650D1*
X431659Y2056150D1*
X435731Y2053650D1*
X440460Y2051150D1*
X-33690Y1890847D2*
Y1888347D1*
Y1885847D1*
Y1883347D1*
Y1880847D1*
Y1878347D1*
Y1875847D1*
Y1873347D1*
Y1870847D1*
Y1868347D1*
X-33680Y1865847D1*
X-33592Y1863347D1*
X-33274Y1860847D1*
X-32665Y1858347D1*
X-31936Y1855847D1*
X-31162Y1853347D1*
X-30146Y1850847D1*
X-28663Y1848347D1*
X-26555Y1845847D1*
X-23950Y1843347D1*
X-21190Y1840847D1*
X43810Y1890847D2*
Y1888347D1*
Y1885847D1*
Y1883347D1*
X-23690D2*
Y1880847D1*
Y1878347D1*
Y1875847D1*
Y1873347D1*
Y1870847D1*
Y1868347D1*
Y1865847D1*
X-23680Y1863347D1*
X-23573Y1860847D1*
X-23309Y1858347D1*
X-21927Y1855847D1*
X-17648Y1853347D1*
X-11298Y1850847D1*
X-3690Y1848347D1*
X1310Y1883347D2*
Y1880847D1*
Y1878347D1*
Y1875847D1*
Y1873347D1*
Y1870847D1*
Y1868347D1*
Y1865847D1*
X1300Y1863347D1*
X1193Y1860847D1*
X929Y1858347D1*
X-453Y1855847D1*
X-4732Y1853347D1*
X-11082Y1850847D1*
X-18690Y1848347D1*
X11310Y1883347D2*
Y1880847D1*
Y1878347D1*
Y1875847D1*
X11320Y1873347D1*
X11427Y1870847D1*
X11691Y1868347D1*
X12956Y1865847D1*
X15939Y1863347D1*
X19765Y1860847D1*
X24201Y1858347D1*
X28940Y1855847D1*
X33649Y1853347D1*
X37782Y1850847D1*
X41205Y1848347D1*
X42539Y1845847D1*
X43268Y1843347D1*
X43611Y1840847D1*
X43810Y1838347D1*
X11310Y1853347D2*
X8810Y1850847D1*
X6310Y1848347D1*
X3810Y1845847D1*
X1310Y1843347D1*
X-1190Y1840847D1*
X11310Y1853347D2*
X16310Y1850847D1*
X21300Y1848347D1*
X26205Y1845847D1*
X30819Y1843347D1*
X34964Y1840847D1*
X38810Y1838347D1*
X8810Y1820847D2*
X2656Y1818347D1*
X-3062Y1815847D1*
X-8425Y1813347D1*
X-13577Y1810847D1*
X-18544Y1808347D1*
X-23143Y1805847D1*
X-27039Y1803347D1*
X-29970Y1800847D1*
X-32193Y1798347D1*
X-32970Y1795847D1*
X-33408Y1793347D1*
X-33690Y1790847D1*
X33810Y1820847D2*
X36215Y1818347D1*
X38385Y1815847D1*
X40188Y1813347D1*
X41630Y1810847D1*
X42679Y1808347D1*
X43291Y1805847D1*
X43593Y1803347D1*
X43716Y1800847D1*
X43681Y1798347D1*
X43373Y1795847D1*
X42684Y1793347D1*
X41610Y1790847D1*
X39969Y1788347D1*
X37311Y1785847D1*
X33419Y1783347D1*
X28810Y1780847D1*
X18810Y1813347D2*
X14697Y1810847D1*
X11463Y1808347D1*
X8933Y1805847D1*
X7778Y1803347D1*
X7977Y1800847D1*
X8581Y1798347D1*
X10300Y1795847D1*
X14721Y1793347D1*
X21151Y1790847D1*
X28810Y1788347D1*
Y1813347D2*
X30914Y1810847D1*
X32696Y1808347D1*
X34123Y1805847D1*
X35298Y1803347D1*
X35571Y1800847D1*
X34819Y1798347D1*
X32776Y1795847D1*
X28135Y1793347D1*
X21567Y1790847D1*
X13810Y1788347D1*
X-1190Y1805847D2*
X-6190Y1803347D1*
X-11190Y1800847D1*
X-16190Y1798347D1*
X-21190Y1795847D1*
X-26190Y1793347D1*
X-31190Y1790847D1*
X-1190Y1805847D2*
Y1803347D1*
X-1180Y1800847D1*
X-1092Y1798347D1*
X-764Y1795847D1*
X-68Y1793347D1*
X999Y1790847D1*
X2546Y1788347D1*
X4818Y1785847D1*
X7855Y1783347D1*
X11310Y1780847D1*
X765183Y-92460D2*
Y-94960D1*
Y-97460D1*
Y-99960D1*
Y-102460D1*
Y-104960D1*
Y-107460D1*
Y-109960D1*
Y-112460D1*
Y-114960D1*
X765193Y-117460D1*
X765281Y-119960D1*
X765600Y-122460D1*
X766208Y-124960D1*
X766937Y-127460D1*
X767711Y-129960D1*
X768727Y-132460D1*
X770211Y-134960D1*
X772318Y-137460D1*
X774923Y-139960D1*
X777683Y-142460D1*
X842683Y-92460D2*
Y-94960D1*
Y-97460D1*
Y-99960D1*
X775183D2*
Y-102460D1*
Y-104960D1*
Y-107460D1*
Y-109960D1*
Y-112460D1*
Y-114960D1*
Y-117460D1*
X775193Y-119960D1*
X775301Y-122460D1*
X775564Y-124960D1*
X776946Y-127460D1*
X781225Y-129960D1*
X787576Y-132460D1*
X795183Y-134960D1*
X800183Y-99960D2*
Y-102460D1*
Y-104960D1*
Y-107460D1*
Y-109960D1*
Y-112460D1*
Y-114960D1*
Y-117460D1*
X800174Y-119960D1*
X800066Y-122460D1*
X799802Y-124960D1*
X798421Y-127460D1*
X794142Y-129960D1*
X787791Y-132460D1*
X780183Y-134960D1*
X810183Y-99960D2*
Y-102460D1*
Y-104960D1*
Y-107460D1*
X810193Y-109960D1*
X810301Y-112460D1*
X810564Y-114960D1*
X811829Y-117460D1*
X814813Y-119960D1*
X818639Y-122460D1*
X823074Y-124960D1*
X827813Y-127460D1*
X832523Y-129960D1*
X836655Y-132460D1*
X840079Y-134960D1*
X841413Y-137460D1*
X842141Y-139960D1*
X842484Y-142460D1*
X842683Y-144960D1*
X810183Y-129960D2*
X807683Y-132460D1*
X805183Y-134960D1*
X802683Y-137460D1*
X800183Y-139960D1*
X797683Y-142460D1*
X810183Y-129960D2*
X815183Y-132460D1*
X820174Y-134960D1*
X825078Y-137460D1*
X829692Y-139960D1*
X833837Y-142460D1*
X837683Y-144960D1*
X767683Y-159960D2*
X766529Y-162460D1*
X765811Y-164960D1*
X765448Y-167460D1*
X765287Y-169960D1*
X765222Y-172460D1*
X765197Y-174960D1*
X765188Y-177460D1*
X765185Y-179960D1*
X765184Y-182460D1*
X765183Y-184960D1*
Y-187460D1*
Y-189960D1*
Y-192460D1*
Y-194960D1*
Y-197460D1*
Y-199960D1*
X785183Y-159960D2*
Y-162460D1*
Y-164960D1*
Y-167460D1*
Y-169960D1*
Y-172460D1*
X775183D1*
Y-174960D1*
Y-177460D1*
X775213Y-179960D1*
X775498Y-182460D1*
X776179Y-184960D1*
X779102Y-187460D1*
X782683Y-189960D1*
X835183Y-172460D2*
X827297Y-174960D1*
X819167Y-177460D1*
X810893Y-179960D1*
X802254Y-182460D1*
X792356Y-184960D1*
X780583Y-187460D1*
X767683Y-189960D1*
X842683Y-172460D2*
X842559Y-174960D1*
X842263Y-177460D1*
X840657Y-179960D1*
X836159Y-182460D1*
X830024Y-184960D1*
X822756Y-187460D1*
X814906Y-189960D1*
X806645Y-192460D1*
X798066Y-194960D1*
X789215Y-197460D1*
X780183Y-199960D1*
X-824637Y-109967D2*
Y-112467D1*
Y-114967D1*
Y-117467D1*
Y-119967D1*
Y-122467D1*
Y-124967D1*
Y-127467D1*
Y-129967D1*
Y-132467D1*
X-824627Y-134967D1*
X-824539Y-137467D1*
X-824220Y-139967D1*
X-823612Y-142467D1*
X-822883Y-144967D1*
X-822109Y-147467D1*
X-821093Y-149967D1*
X-819609Y-152467D1*
X-817502Y-154967D1*
X-814897Y-157467D1*
X-812137Y-159967D1*
X-747137Y-109967D2*
Y-112467D1*
Y-114967D1*
Y-117467D1*
X-814637D2*
Y-119967D1*
Y-122467D1*
Y-124967D1*
Y-127467D1*
Y-129967D1*
Y-132467D1*
Y-134967D1*
X-814627Y-137467D1*
X-814519Y-139967D1*
X-814256Y-142467D1*
X-812874Y-144967D1*
X-808595Y-147467D1*
X-802244Y-149967D1*
X-794637Y-152467D1*
X-789637Y-117467D2*
Y-119967D1*
Y-122467D1*
Y-124967D1*
Y-127467D1*
Y-129967D1*
Y-132467D1*
Y-134967D1*
X-789646Y-137467D1*
X-789754Y-139967D1*
X-790018Y-142467D1*
X-791399Y-144967D1*
X-795678Y-147467D1*
X-802029Y-149967D1*
X-809637Y-152467D1*
X-779637Y-117467D2*
Y-119967D1*
Y-122467D1*
Y-124967D1*
X-779627Y-127467D1*
X-779519Y-129967D1*
X-779256Y-132467D1*
X-777991Y-134967D1*
X-775007Y-137467D1*
X-771181Y-139967D1*
X-766746Y-142467D1*
X-762007Y-144967D1*
X-757297Y-147467D1*
X-753165Y-149967D1*
X-749741Y-152467D1*
X-748407Y-154967D1*
X-747679Y-157467D1*
X-747336Y-159967D1*
X-747137Y-162467D1*
X-779637Y-147467D2*
X-782137Y-149967D1*
X-784637Y-152467D1*
X-787137Y-154967D1*
X-789637Y-157467D1*
X-792137Y-159967D1*
X-779637Y-147467D2*
X-774637Y-149967D1*
X-769646Y-152467D1*
X-764742Y-154967D1*
X-760128Y-157467D1*
X-755983Y-159967D1*
X-752137Y-162467D1*
X-774637Y-179967D2*
X-778758Y-182467D1*
X-782088Y-184967D1*
X-784732Y-187467D1*
X-787137Y-189967D1*
X-759637Y-179967D2*
X-756379Y-182467D1*
X-753868Y-184967D1*
X-751981Y-187467D1*
X-750454Y-189967D1*
X-749178Y-192467D1*
X-748211Y-194967D1*
X-747634Y-197467D1*
X-747345Y-199967D1*
X-747228Y-202467D1*
X-747264Y-204967D1*
X-747573Y-207467D1*
X-748263Y-209967D1*
X-749318Y-212467D1*
X-750778Y-214967D1*
X-752760Y-217467D1*
X-755344Y-219967D1*
X-758561Y-222467D1*
X-762137Y-224967D1*
X-814637Y-182467D2*
X-817041Y-184967D1*
X-819211Y-187467D1*
X-821014Y-189967D1*
X-822457Y-192467D1*
X-823506Y-194967D1*
X-824118Y-197467D1*
X-824420Y-199967D1*
X-824543Y-202467D1*
X-824508Y-204967D1*
X-824200Y-207467D1*
X-823510Y-209967D1*
X-822446Y-212467D1*
X-820901Y-214967D1*
X-818629Y-217467D1*
X-815591Y-219967D1*
X-812137Y-222467D1*
X-794637Y-182467D2*
X-791677Y-184967D1*
X-788300Y-187467D1*
X-784637Y-189967D1*
X-769637Y-187467D2*
X-773749Y-189967D1*
X-776994Y-192467D1*
X-779268Y-194967D1*
X-780972Y-197467D1*
X-781561Y-199967D1*
X-781788Y-202467D1*
X-781736Y-204967D1*
X-780579Y-207467D1*
X-776146Y-209967D1*
X-768833Y-212467D1*
X-759637Y-214967D1*
X-769637Y-187467D2*
X-765223Y-189967D1*
X-761591Y-192467D1*
X-758951Y-194967D1*
X-757112Y-197467D1*
X-755715Y-199967D1*
X-755557Y-202467D1*
X-755793Y-204967D1*
X-756987Y-207467D1*
X-760118Y-209967D1*
X-767910Y-212467D1*
X-777137Y-214967D1*
X-809637Y-189967D2*
X-811741Y-192467D1*
X-813513Y-194967D1*
X-814862Y-197467D1*
X-815861Y-199967D1*
X-815566Y-202467D1*
X-814719Y-204967D1*
X-813456Y-207467D1*
X-809737Y-209967D1*
X-804071Y-212467D1*
X-797137Y-214967D1*
X-802137Y-189967D2*
X-798024Y-192467D1*
X-794789Y-194967D1*
X-792260Y-197467D1*
X-791105Y-199967D1*
X-791294Y-202467D1*
X-792089Y-204967D1*
X-793324Y-207467D1*
X-797039Y-209967D1*
X-802703Y-212467D1*
X-809637Y-214967D1*
X-787137D2*
X-790096Y-217467D1*
X-793473Y-219967D1*
X-797137Y-222467D1*
X-787137Y-214967D2*
X-784534Y-217467D1*
X-781646Y-219967D1*
X-778291Y-222467D1*
X-774637Y-224967D1*
X776997Y373207D2*
X775842Y370707D1*
X775122Y368207D1*
X774740Y365707D1*
X774497Y363207D1*
X826997Y373207D2*
X833813Y370707D1*
X839202Y368207D1*
X843178Y365707D1*
X846078Y363207D1*
X848187Y360707D1*
X849750Y358207D1*
X850843Y355707D1*
X851470Y353207D1*
X851777Y350707D1*
X851912Y348207D1*
X851965Y345707D1*
X851976Y343207D1*
X851895Y340707D1*
X851569Y338207D1*
X850874Y335707D1*
X849817Y333207D1*
X848356Y330707D1*
X846373Y328207D1*
X843789Y325707D1*
X840572Y323207D1*
X836997Y320707D1*
X829497Y363207D2*
X833900Y360707D1*
X837454Y358207D1*
X840209Y355707D1*
X841519Y353207D1*
X842626Y350707D1*
X843409Y348207D1*
X843834Y345707D1*
X843236Y343207D1*
X842255Y340707D1*
X840841Y338207D1*
X838969Y335707D1*
X836777Y333207D1*
X834417Y330707D1*
X831997Y328207D1*
X774497D2*
Y325707D1*
Y323207D1*
Y320707D1*
X786997Y300707D2*
X783438Y298207D1*
X780550Y295707D1*
X778384Y293207D1*
X776780Y290707D1*
X775666Y288207D1*
X775029Y285707D1*
X774718Y283207D1*
X774592Y280707D1*
X774626Y278207D1*
X774934Y275707D1*
X775633Y273207D1*
X776785Y270707D1*
X778651Y268207D1*
X781542Y265707D1*
X785324Y263207D1*
X789497Y260707D1*
X809497Y300707D2*
X811901Y298207D1*
X814071Y295707D1*
X815874Y293207D1*
X817317Y290707D1*
X818366Y288207D1*
X818988Y285707D1*
X819385Y283207D1*
X819904Y280707D1*
X820813Y278207D1*
X821997Y275707D1*
X794497Y293207D2*
X790384Y290707D1*
X787149Y288207D1*
X784620Y285707D1*
X783465Y283207D1*
X783664Y280707D1*
X784268Y278207D1*
X785987Y275707D1*
X790408Y273207D1*
X796838Y270707D1*
X804497Y268207D1*
X799497Y293207D2*
X803609Y290707D1*
X806854Y288207D1*
X809118Y285707D1*
X810792Y283207D1*
X811191Y280707D1*
X810484Y278207D1*
X808455Y275707D1*
X803819Y273207D1*
X797252Y270707D1*
X789497Y268207D1*
X846997Y290707D2*
X842851Y288207D1*
X838586Y285707D1*
X833964Y283207D1*
X828823Y280707D1*
X823084Y278207D1*
X816997Y275707D1*
X851997Y290707D2*
X851882Y288207D1*
X851616Y285707D1*
X850351Y283207D1*
X847367Y280707D1*
X843541Y278207D1*
X839106Y275707D1*
X834347Y273207D1*
X829433Y270707D1*
X824373Y268207D1*
X818999Y265707D1*
X813149Y263207D1*
X806997Y260707D1*
X-851870Y399107D2*
X-853024Y396607D1*
X-853745Y394107D1*
X-854127Y391607D1*
X-854370Y389107D1*
X-801870Y399107D2*
X-795053Y396607D1*
X-789665Y394107D1*
X-785689Y391607D1*
X-782789Y389107D1*
X-780679Y386607D1*
X-779117Y384107D1*
X-778024Y381607D1*
X-777396Y379107D1*
X-777089Y376607D1*
X-776955Y374107D1*
X-776901Y371607D1*
X-776891Y369107D1*
X-776971Y366607D1*
X-777297Y364107D1*
X-777993Y361607D1*
X-779050Y359107D1*
X-780511Y356607D1*
X-782494Y354107D1*
X-785077Y351607D1*
X-788295Y349107D1*
X-791870Y346607D1*
X-799370Y389107D2*
X-794966Y386607D1*
X-791413Y384107D1*
X-788658Y381607D1*
X-787348Y379107D1*
X-786240Y376607D1*
X-785457Y374107D1*
X-785033Y371607D1*
X-785631Y369107D1*
X-786612Y366607D1*
X-788026Y364107D1*
X-789898Y361607D1*
X-792089Y359107D1*
X-794450Y356607D1*
X-796870Y354107D1*
X-854370D2*
Y351607D1*
Y349107D1*
Y346607D1*
X-846870Y329107D2*
X-848506Y326607D1*
X-850164Y324107D1*
X-851774Y321607D1*
X-853014Y319107D1*
X-853747Y316607D1*
X-854111Y314107D1*
X-854276Y311607D1*
X-854370Y309107D1*
X-836870Y329107D2*
X-838879Y326607D1*
X-840350Y324107D1*
X-841245Y321607D1*
X-841870Y319107D1*
X-776870D2*
Y316607D1*
Y314107D1*
Y311607D1*
Y309107D1*
X-839370Y289107D2*
X-843783Y286607D1*
X-847415Y284107D1*
X-850056Y281607D1*
X-851904Y279107D1*
X-853129Y276607D1*
X-853811Y274107D1*
X-854139Y271607D1*
X-854281Y269107D1*
X-854328Y266607D1*
X-854261Y264107D1*
X-853940Y261607D1*
X-853246Y259107D1*
X-852180Y256607D1*
X-850634Y254107D1*
X-848362Y251607D1*
X-845325Y249107D1*
X-841870Y246607D1*
X-791870Y289107D2*
X-787457Y286607D1*
X-783825Y284107D1*
X-781184Y281607D1*
X-779336Y279107D1*
X-778111Y276607D1*
X-777429Y274107D1*
X-777101Y271607D1*
X-776959Y269107D1*
X-776912Y266607D1*
X-776979Y264107D1*
X-777300Y261607D1*
X-777994Y259107D1*
X-779060Y256607D1*
X-780606Y254107D1*
X-782878Y251607D1*
X-785915Y249107D1*
X-789370Y246607D1*
X-839370Y279107D2*
X-841765Y276607D1*
X-843847Y274107D1*
X-845322Y271607D1*
X-846307Y269107D1*
X-846195Y266607D1*
X-845724Y264107D1*
X-844103Y261607D1*
X-840299Y259107D1*
X-835174Y256607D1*
X-829370Y254107D1*
X-791870Y279107D2*
X-789475Y276607D1*
X-787393Y274107D1*
X-785918Y271607D1*
X-784933Y269107D1*
X-785045Y266607D1*
X-785516Y264107D1*
X-787137Y261607D1*
X-790941Y259107D1*
X-796066Y256607D1*
X-801870Y254107D1*
X-33803Y-2567D2*
X-34958Y-5067D1*
X-35678Y-7567D1*
X-36060Y-10067D1*
X-36303Y-12567D1*
X16197Y-2567D2*
X23013Y-5067D1*
X28402Y-7567D1*
X32378Y-10067D1*
X35278Y-12567D1*
X37387Y-15067D1*
X38950Y-17567D1*
X40043Y-20067D1*
X40670Y-22567D1*
X40977Y-25067D1*
X41112Y-27567D1*
X41165Y-30067D1*
X41176Y-32567D1*
X41095Y-35067D1*
X40769Y-37567D1*
X40074Y-40067D1*
X39017Y-42567D1*
X37556Y-45067D1*
X35573Y-47567D1*
X32989Y-50067D1*
X29772Y-52567D1*
X26197Y-55067D1*
X18697Y-12567D2*
X23100Y-15067D1*
X26654Y-17567D1*
X29409Y-20067D1*
X30719Y-22567D1*
X31826Y-25067D1*
X32609Y-27567D1*
X33034Y-30067D1*
X32436Y-32567D1*
X31455Y-35067D1*
X30041Y-37567D1*
X28169Y-40067D1*
X25977Y-42567D1*
X23617Y-45067D1*
X21197Y-47567D1*
X-36303D2*
Y-50067D1*
Y-52567D1*
Y-55067D1*
X-28803Y-72567D2*
X-30439Y-75067D1*
X-32097Y-77567D1*
X-33707Y-80067D1*
X-34947Y-82567D1*
X-35681Y-85067D1*
X-36044Y-87567D1*
X-36209Y-90067D1*
X-36303Y-92567D1*
X-18803Y-72567D2*
X-20813Y-75067D1*
X-22284Y-77567D1*
X-23178Y-80067D1*
X-23803Y-82567D1*
X41197D2*
Y-85067D1*
Y-87567D1*
Y-90067D1*
Y-92567D1*
X-28803Y-110067D2*
X-30439Y-112567D1*
X-32097Y-115067D1*
X-33707Y-117567D1*
X-34947Y-120067D1*
X-35681Y-122567D1*
X-36044Y-125067D1*
X-36209Y-127567D1*
X-36303Y-130067D1*
X-18803Y-110067D2*
X-20813Y-112567D1*
X-22284Y-115067D1*
X-23178Y-117567D1*
X-23803Y-120067D1*
X41197D2*
Y-122567D1*
Y-125067D1*
Y-127567D1*
Y-130067D1*
X-19917Y2617810D2*
Y2615310D1*
Y2612810D1*
Y2610310D1*
Y2607810D1*
Y2605310D1*
Y2602810D1*
Y2600310D1*
Y2597810D1*
Y2595310D1*
Y2592810D1*
Y2590310D1*
Y2587810D1*
Y2585310D1*
Y2582810D1*
Y2580310D1*
Y2577810D1*
Y2575310D1*
Y2572810D1*
Y2570310D1*
Y2567810D1*
Y2565310D1*
Y2562810D1*
Y2560310D1*
Y2557810D1*
Y2555310D1*
Y2552810D1*
Y2550310D1*
Y2547810D1*
Y2545310D1*
Y2542810D1*
X-9917Y2617810D2*
Y2615310D1*
Y2612810D1*
Y2610310D1*
Y2607810D1*
Y2605310D1*
Y2602810D1*
Y2600310D1*
Y2597810D1*
Y2595310D1*
Y2592810D1*
Y2590310D1*
X4978Y2587810D1*
X15393Y2585310D1*
X21912Y2582810D1*
X26512Y2580310D1*
X28649Y2577810D1*
X30277Y2575310D1*
X31406Y2572810D1*
X32048Y2570310D1*
X32361Y2567810D1*
X32487Y2565310D1*
X32454Y2562810D1*
X32146Y2560310D1*
X31467Y2557810D1*
X30500Y2555310D1*
X29359Y2552810D1*
X27975Y2550310D1*
X26039Y2547810D1*
X23295Y2545310D1*
X20083Y2542810D1*
X115083Y2617810D2*
X111525Y2615310D1*
X108637Y2612810D1*
X106460Y2610310D1*
X104769Y2607810D1*
X103336Y2605310D1*
X102100Y2602810D1*
X101149Y2600310D1*
X100577Y2597810D1*
X100291Y2595310D1*
X100165Y2592810D1*
X100113Y2590310D1*
X100094Y2587810D1*
X100087Y2585310D1*
X100085Y2582810D1*
X100084Y2580310D1*
X100083Y2577810D1*
Y2575310D1*
Y2572810D1*
Y2570310D1*
X100093Y2567810D1*
X100181Y2565310D1*
X100500Y2562810D1*
X101108Y2560310D1*
X101847Y2557810D1*
X102699Y2555310D1*
X103956Y2552810D1*
X105825Y2550310D1*
X108472Y2547810D1*
X112205Y2545310D1*
X117092Y2542810D1*
X122583Y2540310D1*
X135083Y2617810D2*
X138728Y2615310D1*
X141858Y2612810D1*
X144393Y2610310D1*
X146367Y2607810D1*
X147971Y2605310D1*
X149438Y2602810D1*
X150958Y2600310D1*
X152583Y2597810D1*
X167583Y2617810D2*
Y2615310D1*
Y2612810D1*
Y2610310D1*
Y2607810D1*
Y2605310D1*
Y2602810D1*
Y2600310D1*
Y2597810D1*
Y2595310D1*
Y2592810D1*
Y2590310D1*
Y2587810D1*
Y2585310D1*
Y2582810D1*
Y2580310D1*
Y2577810D1*
Y2575310D1*
Y2572810D1*
Y2570310D1*
Y2567810D1*
Y2565310D1*
Y2562810D1*
Y2560310D1*
Y2557810D1*
Y2555310D1*
Y2552810D1*
Y2550310D1*
Y2547810D1*
Y2545310D1*
Y2542810D1*
X177583Y2617810D2*
Y2615310D1*
Y2612810D1*
Y2610310D1*
Y2607810D1*
Y2605310D1*
Y2602810D1*
Y2600310D1*
Y2597810D1*
Y2595310D1*
Y2592810D1*
Y2590310D1*
Y2587810D1*
X177593Y2585310D1*
X177749Y2582810D1*
X178160Y2580310D1*
X180877Y2577810D1*
X188491Y2575310D1*
X197583Y2572810D1*
X202583Y2617810D2*
Y2615310D1*
Y2612810D1*
Y2610310D1*
Y2607810D1*
Y2605310D1*
Y2602810D1*
Y2600310D1*
Y2597810D1*
Y2595310D1*
X202574Y2592810D1*
X202486Y2590310D1*
X202167Y2587810D1*
X201559Y2585310D1*
X200761Y2582810D1*
X199838Y2580310D1*
X196916Y2577810D1*
X189228Y2575310D1*
X180083Y2572810D1*
X210083Y2617810D2*
Y2615310D1*
Y2612810D1*
Y2610310D1*
Y2607810D1*
Y2605310D1*
Y2602810D1*
Y2600310D1*
Y2597810D1*
Y2595310D1*
Y2592810D1*
Y2590310D1*
Y2587810D1*
Y2585310D1*
X210074Y2582810D1*
X209986Y2580310D1*
X209657Y2577810D1*
X208961Y2575310D1*
X207884Y2572810D1*
X206243Y2570310D1*
X203584Y2567810D1*
X199692Y2565310D1*
X195083Y2562810D1*
X120083Y2610310D2*
X117593Y2607810D1*
X115191Y2605310D1*
X113097Y2602810D1*
X111524Y2600310D1*
X110362Y2597810D1*
X109355Y2595310D1*
X108538Y2592810D1*
X108032Y2590310D1*
X107774Y2587810D1*
X107658Y2585310D1*
X107611Y2582810D1*
X107593Y2580310D1*
X107587Y2577810D1*
X107594Y2575310D1*
X107681Y2572810D1*
X108000Y2570310D1*
X108608Y2567810D1*
X109337Y2565310D1*
X110111Y2562810D1*
X111196Y2560310D1*
X112677Y2557810D1*
X117990Y2555310D1*
X126703Y2552810D1*
X137583Y2550310D1*
X127583Y2610310D2*
X131997Y2607810D1*
X135637Y2605310D1*
X138356Y2602810D1*
X140538Y2600310D1*
X142583Y2597810D1*
X47583Y2595310D2*
Y2592810D1*
Y2590310D1*
Y2587810D1*
X82583Y2595310D2*
Y2592810D1*
Y2590310D1*
Y2587810D1*
X-9917Y2580310D2*
Y2577810D1*
Y2575310D1*
Y2572810D1*
Y2570310D1*
Y2567810D1*
Y2565310D1*
Y2562810D1*
Y2560310D1*
Y2557810D1*
Y2555310D1*
Y2552810D1*
X15083Y2550310D1*
X10083Y2580310D2*
X14487Y2577810D1*
X18031Y2575310D1*
X20757Y2572810D1*
X21704Y2570310D1*
X22212Y2567810D1*
X22429Y2565310D1*
X22423Y2562810D1*
X22232Y2560310D1*
X20886Y2557810D1*
X14700Y2555310D1*
X3914Y2552810D1*
X-9917Y2550310D1*
X177583Y2567810D2*
Y2565310D1*
Y2562810D1*
Y2560310D1*
Y2557810D1*
Y2555310D1*
Y2552810D1*
Y2550310D1*
Y2547810D1*
Y2545310D1*
Y2542810D1*
X180083Y2567810D2*
X185083Y2565310D1*
X190083Y2562810D1*
X142583D2*
X140879Y2560310D1*
X139039Y2557810D1*
X134332Y2555310D1*
X126871Y2552810D1*
X117583Y2550310D1*
X152583Y2562810D2*
X151324Y2560310D1*
X150188Y2557810D1*
X148809Y2555310D1*
X146992Y2552810D1*
X144806Y2550310D1*
X142171Y2547810D1*
X138574Y2545310D1*
X133533Y2542810D1*
X127583Y2540310D1*
X-306999Y-1038259D2*
D13*
Y-1041593D1*
Y-1044926D1*
Y-1048259D1*
Y-1051593D1*
Y-1054926D1*
Y-1058259D1*
Y-1061593D1*
Y-1064926D1*
Y-1068259D1*
Y-1071593D1*
Y-1074926D1*
Y-1078259D1*
Y-1081593D1*
Y-1084926D1*
Y-1088259D1*
Y-1091593D1*
Y-1094926D1*
Y-1098259D1*
Y-1101593D1*
Y-1104926D1*
Y-1108259D1*
Y-1111593D1*
Y-1114926D1*
Y-1118259D1*
Y-1121593D1*
Y-1124926D1*
Y-1128259D1*
Y-1131593D1*
X-293666Y-1038259D2*
Y-1041593D1*
Y-1044926D1*
Y-1048259D1*
Y-1051593D1*
Y-1054926D1*
Y-1058259D1*
Y-1061593D1*
Y-1064926D1*
Y-1068259D1*
Y-1071593D1*
Y-1074926D1*
Y-1078259D1*
Y-1081593D1*
Y-1084926D1*
Y-1088259D1*
Y-1091593D1*
Y-1094926D1*
X-293653Y-1098259D1*
X-293526Y-1101593D1*
X-293011Y-1104926D1*
X-291871Y-1108259D1*
X-290332Y-1111593D1*
X-216999Y-1038259D2*
Y-1041593D1*
Y-1044926D1*
Y-1048259D1*
Y-1051593D1*
Y-1054926D1*
Y-1058259D1*
Y-1061593D1*
Y-1064926D1*
Y-1068259D1*
Y-1071593D1*
Y-1074926D1*
Y-1078259D1*
Y-1081593D1*
Y-1084926D1*
Y-1088259D1*
Y-1091593D1*
X-217012Y-1094926D1*
X-217139Y-1098259D1*
X-217654Y-1101593D1*
X-218794Y-1104926D1*
X-220332Y-1108259D1*
X-203666Y-1038259D2*
Y-1041593D1*
Y-1044926D1*
Y-1048259D1*
Y-1051593D1*
Y-1054926D1*
Y-1058259D1*
Y-1061593D1*
Y-1064926D1*
Y-1068259D1*
Y-1071593D1*
Y-1074926D1*
Y-1078259D1*
Y-1081593D1*
Y-1084926D1*
Y-1088259D1*
Y-1091593D1*
Y-1094926D1*
Y-1098259D1*
Y-1101593D1*
Y-1104926D1*
Y-1108259D1*
Y-1111593D1*
Y-1114926D1*
Y-1118259D1*
Y-1121593D1*
Y-1124926D1*
Y-1128259D1*
Y-1131593D1*
X-166999Y-1038259D2*
X-180332Y-1041593D1*
X-178562Y-1044926D1*
X-176999Y-1048259D1*
X-133666Y-1038259D2*
X-128921Y-1041593D1*
X-125070Y-1044926D1*
X-122182Y-1048259D1*
X-120043Y-1051593D1*
X-118571Y-1054926D1*
X-117839Y-1058259D1*
X-117862Y-1061593D1*
X-118610Y-1064926D1*
X-119947Y-1068259D1*
X-121855Y-1071593D1*
X-124362Y-1074926D1*
X-127303Y-1078259D1*
X-130589Y-1081593D1*
X-134393Y-1084926D1*
X-138935Y-1088259D1*
X-144029Y-1091593D1*
X-149220Y-1094926D1*
X-154228Y-1098259D1*
X-158736Y-1101593D1*
X-162282Y-1104926D1*
X-165014Y-1108259D1*
X-165515Y-1111593D1*
X-165492Y-1114926D1*
X-157380Y-1118259D1*
X-143976Y-1121593D1*
X-126999Y-1124926D1*
X-76999Y-1038259D2*
X-81858Y-1041593D1*
X-86032Y-1044926D1*
X-89412Y-1048259D1*
X-92031Y-1051593D1*
X-94042Y-1054926D1*
X-95473Y-1058259D1*
X-96289Y-1061593D1*
X-96578Y-1064926D1*
X-96318Y-1068259D1*
X-95461Y-1071593D1*
X-94065Y-1074926D1*
X-92013Y-1078259D1*
X-88987Y-1081593D1*
X-84938Y-1084926D1*
X-80332Y-1088259D1*
X-85065Y-1091593D1*
X-88798Y-1094926D1*
X-91683Y-1098259D1*
X-92707Y-1101593D1*
X-93259Y-1104926D1*
X-93494Y-1108259D1*
X-93464Y-1111593D1*
X-92947Y-1114926D1*
X-91594Y-1118259D1*
X-89264Y-1121593D1*
X-85962Y-1124926D1*
X-81733Y-1128259D1*
X-76999Y-1131593D1*
X-46999Y-1038259D2*
X-41115Y-1041593D1*
X-36272Y-1044926D1*
X-32751Y-1048259D1*
X-30287Y-1051593D1*
X-28654Y-1054926D1*
X-27744Y-1058259D1*
X-27320Y-1061593D1*
X-27248Y-1064926D1*
X-27611Y-1068259D1*
X-28511Y-1071593D1*
X-29924Y-1074926D1*
X-31982Y-1078259D1*
X-35010Y-1081593D1*
X-39060Y-1084926D1*
X-43666Y-1088259D1*
X-38934Y-1091593D1*
X-35201Y-1094926D1*
X-32315Y-1098259D1*
X-31291Y-1101593D1*
X-30739Y-1104926D1*
X-30504Y-1108259D1*
X-30534Y-1111593D1*
X-31051Y-1114926D1*
X-32404Y-1118259D1*
X-34734Y-1121593D1*
X-38036Y-1124926D1*
X-42265Y-1128259D1*
X-46999Y-1131593D1*
X13001Y-1038259D2*
X8142Y-1041593D1*
X3968Y-1044926D1*
X588Y-1048259D1*
X-2031Y-1051593D1*
X-4042Y-1054926D1*
X-5473Y-1058259D1*
X-6289Y-1061593D1*
X-6578Y-1064926D1*
X-6318Y-1068259D1*
X-5461Y-1071593D1*
X-4065Y-1074926D1*
X-2013Y-1078259D1*
X1013Y-1081593D1*
X5062Y-1084926D1*
X9668Y-1088259D1*
X4935Y-1091593D1*
X1202Y-1094926D1*
X-1683Y-1098259D1*
X-2707Y-1101593D1*
X-3259Y-1104926D1*
X-3494Y-1108259D1*
X-3464Y-1111593D1*
X-2947Y-1114926D1*
X-1594Y-1118259D1*
X736Y-1121593D1*
X4038Y-1124926D1*
X8267Y-1128259D1*
X13001Y-1131593D1*
X43001Y-1038259D2*
X48885Y-1041593D1*
X53728Y-1044926D1*
X57249Y-1048259D1*
X59713Y-1051593D1*
X61346Y-1054926D1*
X62256Y-1058259D1*
X62680Y-1061593D1*
X62752Y-1064926D1*
X62389Y-1068259D1*
X61489Y-1071593D1*
X60076Y-1074926D1*
X58018Y-1078259D1*
X54990Y-1081593D1*
X50940Y-1084926D1*
X46334Y-1088259D1*
X51066Y-1091593D1*
X54799Y-1094926D1*
X57685Y-1098259D1*
X58709Y-1101593D1*
X59261Y-1104926D1*
X59496Y-1108259D1*
X59466Y-1111593D1*
X58949Y-1114926D1*
X57596Y-1118259D1*
X55266Y-1121593D1*
X51964Y-1124926D1*
X47735Y-1128259D1*
X43001Y-1131593D1*
X96334Y-1038259D2*
X83001Y-1041593D1*
X84772Y-1044926D1*
X86334Y-1048259D1*
X129668Y-1038259D2*
X134413Y-1041593D1*
X138263Y-1044926D1*
X141152Y-1048259D1*
X143290Y-1051593D1*
X144763Y-1054926D1*
X145495Y-1058259D1*
X145471Y-1061593D1*
X144723Y-1064926D1*
X143386Y-1068259D1*
X141478Y-1071593D1*
X138971Y-1074926D1*
X136031Y-1078259D1*
X132745Y-1081593D1*
X128941Y-1084926D1*
X124398Y-1088259D1*
X119304Y-1091593D1*
X114114Y-1094926D1*
X109106Y-1098259D1*
X104598Y-1101593D1*
X101051Y-1104926D1*
X98319Y-1108259D1*
X97818Y-1111593D1*
X97842Y-1114926D1*
X105953Y-1118259D1*
X119357Y-1121593D1*
X136334Y-1124926D1*
X173001Y-1038259D2*
Y-1041593D1*
Y-1044926D1*
Y-1048259D1*
Y-1051593D1*
Y-1054926D1*
Y-1058259D1*
Y-1061593D1*
Y-1064926D1*
Y-1068259D1*
Y-1071593D1*
Y-1074926D1*
Y-1078259D1*
Y-1081593D1*
Y-1084926D1*
Y-1088259D1*
Y-1091593D1*
Y-1094926D1*
Y-1098259D1*
Y-1101593D1*
Y-1104926D1*
Y-1108259D1*
Y-1111593D1*
Y-1114926D1*
Y-1118259D1*
Y-1121593D1*
Y-1124926D1*
Y-1128259D1*
Y-1131593D1*
X186334Y-1038259D2*
Y-1041593D1*
Y-1044926D1*
Y-1048259D1*
Y-1051593D1*
Y-1054926D1*
Y-1058259D1*
Y-1061593D1*
Y-1064926D1*
Y-1068259D1*
Y-1071593D1*
Y-1074926D1*
Y-1078259D1*
Y-1081593D1*
X223001D1*
Y-1084926D1*
Y-1088259D1*
Y-1091593D1*
X186334D1*
Y-1094926D1*
Y-1098259D1*
Y-1101593D1*
Y-1104926D1*
Y-1108259D1*
Y-1111593D1*
Y-1114926D1*
Y-1118259D1*
Y-1121593D1*
Y-1124926D1*
X256334Y-1038259D2*
X253232Y-1041593D1*
X251172Y-1044926D1*
X249668Y-1048259D1*
X289668Y-1038259D2*
X296065Y-1041593D1*
X301183Y-1044926D1*
X304943Y-1048259D1*
X307470Y-1051593D1*
X309194Y-1054926D1*
X310603Y-1058259D1*
X311703Y-1061593D1*
X312269Y-1064926D1*
X312178Y-1068259D1*
X311404Y-1071593D1*
X310057Y-1074926D1*
X308134Y-1078259D1*
X305482Y-1081593D1*
X301873Y-1084926D1*
X296861Y-1088259D1*
X290330Y-1091593D1*
X283001Y-1094926D1*
X286207Y-1098259D1*
X289113Y-1101593D1*
X291648Y-1104926D1*
X294126Y-1108259D1*
X296878Y-1111593D1*
X299889Y-1114926D1*
X302951Y-1118259D1*
X305672Y-1121593D1*
X307641Y-1124926D1*
X308834Y-1128259D1*
X309668Y-1131593D1*
X-163666Y-1044926D2*
X-166999Y-1048259D1*
X-140332Y-1044926D2*
X-137139Y-1048259D1*
X-134376Y-1051593D1*
X-132123Y-1054926D1*
X-131486Y-1058259D1*
X-132328Y-1061593D1*
X-134757Y-1064926D1*
X-137975Y-1068259D1*
X-141975Y-1071593D1*
X-146487Y-1074926D1*
X-151175Y-1078259D1*
X-155776Y-1081593D1*
X-160252Y-1084926D1*
X-164737Y-1088259D1*
X-168971Y-1091593D1*
X-172515Y-1094926D1*
X-175254Y-1098259D1*
X-177328Y-1101593D1*
X-178788Y-1104926D1*
X-179615Y-1108259D1*
X-179896Y-1111593D1*
X-179807Y-1114926D1*
X-178285Y-1118259D1*
X-175796Y-1121593D1*
X-171974Y-1124926D1*
X-166605Y-1128259D1*
X-160332Y-1131593D1*
X-66999Y-1044926D2*
X-72483Y-1048259D1*
X-76809Y-1051593D1*
X-79840Y-1054926D1*
X-82112Y-1058259D1*
X-82898Y-1061593D1*
X-83214Y-1064926D1*
X-82959Y-1068259D1*
X-82253Y-1071593D1*
X-80140Y-1074926D1*
X-73093Y-1078259D1*
X-61495Y-1081593D1*
X-46999Y-1084926D1*
X-56999Y-1044926D2*
X-51128Y-1048259D1*
X-46402Y-1051593D1*
X-42768Y-1054926D1*
X-41505Y-1058259D1*
X-40828Y-1061593D1*
X-40538Y-1064926D1*
X-40559Y-1068259D1*
X-40853Y-1071593D1*
X-42843Y-1074926D1*
X-50289Y-1078259D1*
X-62223Y-1081593D1*
X-76999Y-1084926D1*
X23001Y-1044926D2*
X17517Y-1048259D1*
X13191Y-1051593D1*
X10160Y-1054926D1*
X7888Y-1058259D1*
X7102Y-1061593D1*
X6786Y-1064926D1*
X7041Y-1068259D1*
X7747Y-1071593D1*
X9860Y-1074926D1*
X16907Y-1078259D1*
X28505Y-1081593D1*
X43001Y-1084926D1*
X33001Y-1044926D2*
X38872Y-1048259D1*
X43598Y-1051593D1*
X47232Y-1054926D1*
X48495Y-1058259D1*
X49172Y-1061593D1*
X49462Y-1064926D1*
X49441Y-1068259D1*
X49147Y-1071593D1*
X47157Y-1074926D1*
X39711Y-1078259D1*
X27777Y-1081593D1*
X13001Y-1084926D1*
X99668Y-1044926D2*
X96334Y-1048259D1*
X123001Y-1044926D2*
X126194Y-1048259D1*
X128957Y-1051593D1*
X131211Y-1054926D1*
X131847Y-1058259D1*
X131006Y-1061593D1*
X128577Y-1064926D1*
X125358Y-1068259D1*
X121358Y-1071593D1*
X116846Y-1074926D1*
X112158Y-1078259D1*
X107557Y-1081593D1*
X103081Y-1084926D1*
X98596Y-1088259D1*
X94362Y-1091593D1*
X90819Y-1094926D1*
X88080Y-1098259D1*
X86005Y-1101593D1*
X84545Y-1104926D1*
X83718Y-1108259D1*
X83437Y-1111593D1*
X83526Y-1114926D1*
X85049Y-1118259D1*
X87537Y-1121593D1*
X91360Y-1124926D1*
X96729Y-1128259D1*
X103001Y-1131593D1*
X259668Y-1044926D2*
X256334Y-1048259D1*
X279668Y-1044926D2*
X285552Y-1048259D1*
X290395Y-1051593D1*
X293915Y-1054926D1*
X296380Y-1058259D1*
X298000Y-1061593D1*
X299056Y-1064926D1*
X299005Y-1068259D1*
X297805Y-1071593D1*
X294948Y-1074926D1*
X288155Y-1078259D1*
X278228Y-1081593D1*
X266334Y-1084926D1*
X266474Y-1088259D1*
X267032Y-1091593D1*
X268386Y-1094926D1*
X270594Y-1098259D1*
X273383Y-1101593D1*
X276482Y-1104926D1*
X279721Y-1108259D1*
X283020Y-1111593D1*
X286341Y-1114926D1*
X289670Y-1118259D1*
X293002Y-1121593D1*
X296334Y-1124926D1*
X-260332Y-1068259D2*
X-262526Y-1071593D1*
X-264854Y-1074926D1*
X-267439Y-1078259D1*
X-270021Y-1081593D1*
X-272396Y-1084926D1*
X-274697Y-1088259D1*
X-277001Y-1091593D1*
X-279205Y-1094926D1*
X-281423Y-1098259D1*
X-283688Y-1101593D1*
X-285862Y-1104926D1*
X-288048Y-1108259D1*
X-290332Y-1111593D1*
X-246999Y-1068259D2*
X-245331Y-1071593D1*
X-243383Y-1074926D1*
X-241346Y-1078259D1*
X-239199Y-1081593D1*
X-236959Y-1084926D1*
X-234779Y-1088259D1*
X-232571Y-1091593D1*
X-230293Y-1094926D1*
X-227965Y-1098259D1*
X-225130Y-1101593D1*
X-221352Y-1104926D1*
X-216999Y-1108259D1*
X-253666Y-1081593D2*
X-256986Y-1084926D1*
X-260202Y-1088259D1*
X-263111Y-1091593D1*
X-265633Y-1094926D1*
X-267994Y-1098259D1*
X-270321Y-1101593D1*
X-272534Y-1104926D1*
X-274754Y-1108259D1*
X-277023Y-1111593D1*
X-279213Y-1114926D1*
X-281425Y-1118259D1*
X-283689Y-1121593D1*
X-285862Y-1124926D1*
X-288048Y-1128259D1*
X-290332Y-1131593D1*
X-253666Y-1081593D2*
X-250848Y-1084926D1*
X-248354Y-1088259D1*
X-246001Y-1091593D1*
X-243676Y-1094926D1*
X-241464Y-1098259D1*
X-239244Y-1101593D1*
X-236975Y-1104926D1*
X-234785Y-1108259D1*
X-232573Y-1111593D1*
X-230307Y-1114926D1*
X-228105Y-1118259D1*
X-225776Y-1121593D1*
X-223088Y-1124926D1*
X-220105Y-1128259D1*
X-216999Y-1131593D1*
X-70332Y-1091593D2*
X-73539Y-1094926D1*
X-76432Y-1098259D1*
X-78823Y-1101593D1*
X-80629Y-1104926D1*
X-81965Y-1108259D1*
X-81749Y-1111593D1*
X-79951Y-1114926D1*
X-73007Y-1118259D1*
X-61463Y-1121593D1*
X-46999Y-1124926D1*
X-56999Y-1091593D2*
X-51516Y-1094926D1*
X-47190Y-1098259D1*
X-44171Y-1101593D1*
X-41938Y-1104926D1*
X-41355Y-1108259D1*
X-41946Y-1111593D1*
X-43928Y-1114926D1*
X-50936Y-1118259D1*
X-62515Y-1121593D1*
X-76999Y-1124926D1*
X19668Y-1091593D2*
X16461Y-1094926D1*
X13568Y-1098259D1*
X11177Y-1101593D1*
X9371Y-1104926D1*
X8035Y-1108259D1*
X8251Y-1111593D1*
X10049Y-1114926D1*
X16993Y-1118259D1*
X28537Y-1121593D1*
X43001Y-1124926D1*
X33001Y-1091593D2*
X38484Y-1094926D1*
X42810Y-1098259D1*
X45829Y-1101593D1*
X48062Y-1104926D1*
X48645Y-1108259D1*
X48054Y-1111593D1*
X46072Y-1114926D1*
X39064Y-1118259D1*
X27485Y-1121593D1*
X13001Y-1124926D1*
X-126999Y-1121593D2*
X-130332Y-1124926D1*
X-123666Y-1121593D2*
Y-1124926D1*
Y-1128259D1*
Y-1131593D1*
X136334Y-1121593D2*
X133001Y-1124926D1*
X139668Y-1121593D2*
Y-1124926D1*
Y-1128259D1*
Y-1131593D1*
X229668Y-1124926D2*
Y-1128259D1*
Y-1131593D1*
X249668Y-1124926D2*
Y-1128259D1*
Y-1131593D1*
X-945565Y810192D2*
D81*
X-912715D1*
X-901850Y806570D1*
X-898143Y802864D1*
X-894521Y795620D1*
Y784670D1*
X-898143Y777426D1*
X-901850Y773720D1*
X-912715Y770098D1*
X-945565D1*
Y846664D1*
X-870992Y770098D2*
X-852714Y846664D1*
X-834520Y770098D1*
X-816326Y846664D1*
X-798048Y770098D1*
X-723475Y781048D2*
X-730719Y773720D1*
X-741669Y770098D1*
X-756241D1*
X-767191Y773720D1*
X-774519Y781048D1*
Y788292D1*
X-770813Y795620D1*
X-767191Y799242D1*
X-759947Y802864D1*
X-738047Y810192D1*
X-730719Y813814D1*
X-727097Y817520D1*
X-723475Y824764D1*
Y835714D1*
X-730719Y842958D1*
X-741669Y846664D1*
X-756241D1*
X-767191Y842958D1*
X-774519Y835714D1*
X-652608Y770098D2*
X-699946D1*
Y846664D1*
X-652608D1*
X-699946Y806570D2*
X-670802D1*
X-629078Y770098D2*
Y846664D1*
X-554505Y770098D2*
Y846664D1*
X-605549Y770098D1*
Y846664D1*
X-530976Y770098D2*
Y846664D1*
X-479932Y770098D2*
X-530976Y821142D1*
X-512782Y802864D2*
X-479932Y846664D1*
X-456402Y784755D2*
X-449074Y781048D1*
X-438124Y770183D1*
Y846664D1*
X-392695Y770183D2*
X-403645Y773805D1*
X-410973Y784755D1*
X-414595Y802948D1*
Y813898D1*
X-410973Y832092D1*
X-403645Y843042D1*
X-392695Y846664D1*
X-385451D1*
X-374501Y843042D1*
X-367257Y832092D1*
X-363551Y813898D1*
Y802948D1*
X-367257Y784755D1*
X-374501Y773805D1*
X-385451Y770183D1*
X-392695D1*
X-367257Y784755D2*
X-410973Y832092D1*
X-336316Y788376D2*
Y784755D1*
X-332694Y777426D1*
X-329072Y773805D1*
X-321744Y770183D1*
X-307172D1*
X-299928Y773805D1*
X-296306Y777426D1*
X-292600Y784755D1*
Y791998D1*
X-296306Y799326D1*
X-303550Y810192D1*
X-340022Y846664D1*
X-288978D1*
X-265448Y859299D2*
X-196211D1*
X-172681Y770098D2*
X-143538Y846664D1*
X-114394Y770098D1*
X-87158Y788376D2*
Y784755D1*
X-83536Y777426D1*
X-79914Y773805D1*
X-72586Y770183D1*
X-58014D1*
X-50770Y773805D1*
X-47149Y777426D1*
X-43442Y784755D1*
Y791998D1*
X-47149Y799326D1*
X-54392Y810192D1*
X-90864Y846664D1*
X-39820D1*
X-12669Y839336D2*
X-16291Y843042D1*
X-12669Y846664D1*
X-8963Y843042D1*
X-12669Y839336D1*
X14566Y784755D2*
X21895Y781048D1*
X32845Y770183D1*
Y846664D1*
X130442Y795620D2*
Y846664D1*
Y817520D2*
X134148Y806570D1*
X141392Y799242D1*
X148720Y795620D1*
X159670D1*
X183199Y817520D2*
X226915D1*
Y810192D1*
X223293Y802864D1*
X219671Y799242D1*
X212343Y795620D1*
X201393D1*
X194149Y799242D1*
X186821Y806570D1*
X183199Y817520D1*
Y824764D1*
X186821Y835714D1*
X194149Y842958D1*
X201393Y846664D1*
X212343D1*
X219671Y842958D1*
X226915Y835714D1*
X250444Y795620D2*
X272345Y846664D1*
X294160Y795620D1*
X354162Y846664D2*
Y770183D1*
X317690Y821142D1*
X372355D1*
X469953Y750136D2*
Y866711D1*
X589450Y770183D2*
X578500Y773805D1*
X571172Y784755D1*
X567550Y802948D1*
Y813898D1*
X571172Y832092D1*
X578500Y843042D1*
X589450Y846664D1*
X596694D1*
X607644Y843042D1*
X614888Y832092D1*
X618594Y813898D1*
Y802948D1*
X614888Y784755D1*
X607644Y773805D1*
X596694Y770183D1*
X589450D1*
X614888Y784755D2*
X571172Y832092D1*
X660317Y770183D2*
X649451Y773805D1*
X645745Y781048D1*
Y788377D1*
X649451Y795620D1*
X656695Y799327D1*
X671267Y802948D1*
X682217Y806570D1*
X689461Y813898D1*
X693083Y821142D1*
Y832092D1*
X689461Y839336D1*
X685839Y843042D1*
X674889Y846664D1*
X660317D1*
X649451Y843042D1*
X645745Y839336D1*
X642123Y832092D1*
Y821142D1*
X645745Y813898D1*
X653073Y806570D1*
X663939Y802948D1*
X678511Y799327D1*
X685839Y795620D1*
X689461Y788377D1*
Y781048D1*
X685839Y773805D1*
X674889Y770183D1*
X660317D1*
X720234Y839336D2*
X716612Y843042D1*
X720234Y846664D1*
X723940Y843042D1*
X720234Y839336D1*
X751176Y788377D2*
Y784755D1*
X754798Y777427D1*
X758420Y773805D1*
X765748Y770183D1*
X780320D1*
X787564Y773805D1*
X791185Y777427D1*
X794892Y784755D1*
Y791998D1*
X791186Y799327D1*
X783942Y810192D1*
X747470Y846664D1*
X798514D1*
X843943Y770183D2*
X832993Y773805D1*
X825665Y784755D1*
X822043Y802949D1*
Y813898D1*
X825665Y832092D1*
X832993Y843042D1*
X843943Y846664D1*
X851187D1*
X862137Y843042D1*
X869381Y832092D1*
X873087Y813899D1*
Y802949D1*
X869381Y784755D1*
X862137Y773805D1*
X851187Y770183D1*
X843943D1*
X869381Y784755D2*
X825665Y832092D1*
X900322Y788377D2*
Y784755D1*
X903944Y777427D1*
X907566Y773805D1*
X914894Y770183D1*
X929466D1*
X936710Y773805D1*
X940332Y777427D1*
X944038Y784755D1*
Y791999D1*
X940332Y799327D1*
X933088Y810192D1*
X896616Y846664D1*
X947660D1*
X971189Y784755D2*
X978517Y781048D1*
X989467Y770183D1*
Y846664D1*
X-362008Y1335342D2*
Y1393629D1*
X-365630Y1404579D1*
X-369336Y1408201D1*
X-376580Y1411907D1*
X-383908D1*
X-391152Y1408201D1*
X-394774Y1404579D1*
X-398480Y1393629D1*
Y1386386D1*
X-338478Y1335342D2*
Y1411907D1*
X-294763D1*
X-216567Y1353536D2*
X-220189Y1346292D1*
X-227517Y1338964D1*
X-234761Y1335342D1*
X-249333D1*
X-256661Y1338964D1*
X-263905Y1346292D1*
X-267611Y1353536D1*
X-271233Y1364486D1*
Y1382764D1*
X-267611Y1393629D1*
X-263905Y1400958D1*
X-256661Y1408201D1*
X-249333Y1411907D1*
X-234761D1*
X-227517Y1408201D1*
X-220189Y1400958D1*
X-216567Y1393629D1*
X-156566Y1335342D2*
Y1393629D1*
X-160188Y1404579D1*
X-163894Y1408201D1*
X-171138Y1411907D1*
X-178466D1*
X-185710Y1408201D1*
X-189332Y1404579D1*
X-193038Y1393629D1*
Y1386386D1*
X-133037Y1335342D2*
Y1411907D1*
X-89321Y1411908D1*
X-11126Y1353536D2*
X-14748Y1346292D1*
X-22076Y1338964D1*
X-29320Y1335342D1*
X-43892D1*
X-51220Y1338964D1*
X-58463Y1346292D1*
X-62170Y1353536D1*
X-65792Y1364486D1*
Y1382764D1*
X-62170Y1393629D1*
X-58463Y1400958D1*
X-51220Y1408201D1*
X-43892Y1411908D1*
X-29320D1*
X-22076Y1408201D1*
X-14748Y1400958D1*
X-11126Y1393629D1*
X48876Y1335342D2*
Y1393629D1*
X45254Y1404579D1*
X41548Y1408201D1*
X34304Y1411908D1*
X26976D1*
X19732Y1408201D1*
X16110Y1404579D1*
X12404Y1393629D1*
Y1386386D1*
X72405Y1335342D2*
Y1411908D1*
X116121D1*
X194316Y1353536D2*
X190694Y1346292D1*
X183366Y1338964D1*
X176122Y1335342D1*
X161550D1*
X154222Y1338964D1*
X146978Y1346292D1*
X143272Y1353536D1*
X139650Y1364486D1*
Y1382764D1*
X143272Y1393629D1*
X146978Y1400958D1*
X154222Y1408201D1*
X161550Y1411908D1*
X176122D1*
X183366Y1408201D1*
X190694Y1400958D1*
X194316Y1393629D1*
X254317Y1335342D2*
Y1393630D1*
X250695Y1404579D1*
X246989Y1408201D1*
X239745Y1411908D1*
X232417D1*
X225173Y1408201D1*
X221552Y1404579D1*
X217845Y1393629D1*
Y1386386D1*
X277847Y1335342D2*
Y1411908D1*
X321562D1*
X399757Y1353536D2*
X396135Y1346292D1*
X388807Y1338964D1*
X381563Y1335342D1*
X366992D1*
X359664Y1338964D1*
X352420Y1346292D1*
X348714Y1353536D1*
X345092Y1364486D1*
Y1382764D1*
X348714Y1393630D1*
X352420Y1400958D1*
X359664Y1408201D1*
X366992Y1411908D1*
X381564D1*
X388807Y1408201D1*
X396135Y1400958D1*
X399757Y1393629D1*
M02*
