G04 DipTrace 3.2.0.1*
G04 Bottom.gbr*
%MOMM*%
G04 #@! TF.FileFunction,Copper,L2,Bot*
G04 #@! TF.Part,Single*
%ADD12C,0.0762*%
G04 #@! TA.AperFunction,CopperBalancing*
%ADD10C,0.25*%
%ADD15C,0.3*%
G04 #@! TA.AperFunction,ViaPad*
%ADD16C,0.6*%
G04 #@! TA.AperFunction,Conductor*
%ADD17C,0.5*%
%ADD18C,0.2*%
G04 #@! TA.AperFunction,ViaPad*
%ADD20C,0.8*%
%ADD21C,1.0*%
%ADD24R,1.1X1.0*%
%ADD26R,1.0X1.1*%
G04 #@! TA.AperFunction,ComponentPad*
%ADD29C,1.6*%
%ADD33R,0.65X1.05*%
G04 #@! TA.AperFunction,ComponentPad*
%ADD39C,1.05*%
%ADD40R,0.95X1.1*%
%ADD41R,0.35X0.8*%
%ADD42R,0.8X0.35*%
%ADD43R,1.0X1.5*%
%FSLAX35Y35*%
G04*
G71*
G90*
G75*
G01*
G04 Bottom*
%LPD*%
X-1135000Y612500D2*
D15*
Y424123D1*
X-1103970Y393093D1*
Y276183D1*
X-1133947Y246207D1*
Y58553D1*
X-1135000Y57500D1*
Y612500D2*
X-1152800D1*
Y744233D1*
X-1167770Y759203D1*
X-560000Y-260000D2*
X-729450D1*
X-806217Y-183233D1*
Y-103810D1*
X-854787Y-55240D1*
X-1111587D1*
X-1144330Y-22497D1*
Y48170D1*
X-1135000Y57500D1*
X-1114417Y-158057D2*
X-1111587Y-55240D1*
X519630Y472037D2*
Y250370D1*
X520000Y250000D1*
X902457Y-1171640D2*
D17*
X961560D1*
X1153200Y-980000D1*
X1170000D1*
X-1167770Y929203D2*
D15*
X-904230D1*
X-867863D1*
Y719043D1*
X-974407Y612500D1*
X-965000D1*
X-1167770Y929203D2*
X-810283D1*
X-660100Y779020D1*
X1168487Y933620D2*
X965000D1*
Y854680D1*
Y612500D1*
X1168487Y933620D2*
X943353D1*
X898423Y888690D1*
X684743Y675010D1*
X-816190Y980047D2*
X-810283Y929203D1*
X-904230Y943193D2*
Y929203D1*
X956633Y934717D2*
X965000Y933620D1*
X956633Y854680D2*
X965000D1*
X891487Y895630D2*
X898423Y888690D1*
X-650683Y1989397D2*
X-566757D1*
Y1984660D1*
X-383690D1*
X-325463Y2042887D1*
X-613610Y2520370D2*
X-546803Y2587177D1*
X-528043D1*
X-613610Y2520370D2*
X-675593D1*
X-737360Y2458603D1*
Y2295763D1*
X-807180Y2225943D1*
X445587Y2243290D2*
D17*
X826183D1*
Y2241677D1*
X123483Y2285413D2*
D15*
X163623Y2325553D1*
X414690D1*
X445587Y2294657D1*
Y2243290D1*
X-520000Y250000D2*
Y500547D1*
X-539373D1*
X-429273Y-274190D2*
Y-858613D1*
X-480660Y-910000D1*
X-560000D1*
X-650683Y1989397D2*
X-637933D1*
X-557113Y1908577D1*
Y1818490D1*
X-108930Y1370307D1*
Y1109820D1*
X-98730Y1099620D1*
X-539373Y500547D2*
Y606537D1*
X-540933Y608097D1*
X-566757Y1988470D2*
Y1989397D1*
X-1170000Y-980000D2*
D10*
X-884173D1*
Y-218300D1*
X-944417Y-158057D1*
X390000Y250000D2*
D15*
Y459520D1*
X532013Y601533D1*
D17*
Y630510D1*
Y702520D1*
Y1603633D1*
X547467D1*
X325000Y250000D2*
D15*
Y495507D1*
X532013Y702520D1*
X325000Y250000D2*
Y127890D1*
X374677D1*
X390000Y143213D1*
Y250000D1*
X325000Y127890D2*
D17*
X150040Y-47070D1*
X-224650D1*
X-270230Y-92650D1*
Y-975947D1*
X-370000Y-1075717D1*
X-708933D1*
X-799307Y-985343D1*
X-1164657D1*
X-1170000Y-980000D1*
X956237Y-144770D2*
D15*
X943407Y-131940D1*
X866790D1*
X794720Y-59870D1*
Y337550D1*
X535373Y596897D1*
Y630510D1*
X532013D1*
X-94800Y2167190D2*
D17*
Y2003773D1*
D15*
X-82850Y1991823D1*
X-436547Y1855373D2*
D17*
X-219300D1*
X-82850Y1991823D1*
X260000Y250000D2*
D15*
Y539277D1*
X448647Y727923D1*
Y1648873D1*
X636797Y1837023D1*
X974960D1*
X1170000Y1641983D1*
Y1670000D1*
X195000Y250000D2*
Y581380D1*
X385080Y771460D1*
Y1683193D1*
X610100Y1908213D1*
X1208213D1*
X1170000Y1870000D1*
X-560000Y-390000D2*
D18*
X-678147D1*
X-728993Y-440847D1*
Y-714550D1*
X-788110Y-773667D1*
X65000Y250000D2*
D15*
Y552690D1*
X300910Y788600D1*
Y1698183D1*
X577047Y1974320D1*
X938090D1*
X1033770Y2070000D1*
X1170000D1*
X-560000Y-585000D2*
D18*
X-666220D1*
X-685077Y-603860D1*
Y-784147D1*
X-786233Y-885303D1*
X-789213Y-882323D1*
X870900Y-718893D2*
D10*
Y-362867D1*
X942870Y-290897D1*
X1088847D1*
X1151487Y-228257D1*
Y-120543D1*
Y41013D1*
X1135000Y57500D1*
X1126237Y-144770D2*
D15*
Y-126900D1*
X1145130D1*
X1151487Y-120543D1*
X1135000Y612500D2*
Y442570D1*
X1098767Y406337D1*
Y277960D1*
X1139307Y237420D1*
Y61807D1*
X1135000Y57500D1*
X1168487Y763620D2*
X1160133D1*
Y637633D1*
X1135000Y612500D1*
X-450133Y-1168930D2*
X-328523D1*
X-177107Y-1017513D1*
X655293D1*
X704273Y-968533D1*
Y-916097D1*
X130000Y250000D2*
Y117733D1*
X65707Y53440D1*
X-274900D1*
X-351983Y-23643D1*
Y-920647D1*
X-427063Y-995727D1*
X-556633D1*
X-260000Y250000D2*
Y643653D1*
X-195500Y708153D1*
Y1340387D1*
X-925113Y2070000D1*
X-1170000D1*
X-390000Y250000D2*
Y433910D1*
X-357580Y466330D1*
Y677950D1*
X-386703Y707073D1*
Y1322090D1*
X-934613Y1870000D1*
X-1170000D1*
X-560000Y-130000D2*
X-660963D1*
X-738470Y-52493D1*
Y556477D1*
X-548617Y746330D1*
Y1293570D1*
X-879800Y1624753D1*
X-946230D1*
X-65000Y250000D2*
D10*
Y560820D1*
X19940Y645760D1*
Y1614560D1*
X302897Y1897517D1*
Y2025533D1*
X306373Y2029010D1*
X560000Y-780000D2*
D15*
X786847D1*
X901000Y-894153D1*
Y-916183D1*
X902457Y-917640D1*
X560000Y-845000D2*
X750143D1*
X795620Y-890477D1*
Y-954573D1*
X887740Y-1046693D1*
X900403D1*
X902457Y-1044640D1*
X-406730Y2239073D2*
D17*
X-272427D1*
X-114310Y2397190D1*
X200D1*
X-406730Y2239073D2*
D15*
X-351650D1*
X-325463Y2212887D1*
X200Y2397190D2*
Y2415720D1*
X75490Y2491010D1*
X296433D1*
X424367Y2618943D1*
X95200Y2167190D2*
Y1999873D1*
X87150Y1991823D1*
X306373Y2199010D2*
Y2195310D1*
X123320D1*
X95200Y2167190D1*
X-625987Y2410363D2*
X-532147D1*
X-526863Y2405080D1*
X-386520Y2498620D2*
X-382080Y2494180D1*
Y2430297D1*
X-356863Y2405080D1*
X-358043Y2587177D2*
X-384233D1*
Y2500907D1*
X-386520Y2498620D1*
X-455000Y250000D2*
Y450270D1*
X-414787Y490483D1*
Y650663D1*
X-452097Y687973D1*
Y1292110D1*
X-914973Y1754987D1*
X-1066377D1*
X-1133757Y1687607D1*
X-1187607D1*
X-1170000Y1670000D1*
D16*
X703460Y3034410D3*
X920493D3*
X-922343Y3032363D3*
X818120D3*
X196707Y3030677D3*
X298567D3*
X400080Y3029770D3*
X-813550Y3029367D3*
X500737Y3028813D3*
X601197D3*
X-709427Y3028207D3*
X-517787Y3026903D3*
X-611767Y3026087D3*
X-416127Y3025950D3*
X-303543Y3024540D3*
X-186177Y3024520D3*
X424367Y2618943D3*
X633193Y2577303D3*
X-613610Y2520370D3*
X-386520Y2498620D3*
X-625987Y2410363D3*
X123483Y2285413D3*
X445587Y2243290D3*
X826183Y2241677D3*
X-406730Y2239073D3*
X-807180Y2225943D3*
X-938447Y2218177D3*
X980563Y2170610D3*
D20*
X-650683Y1989397D3*
D16*
X-737810Y1991080D3*
X-566757Y1988470D3*
X-870943Y1911163D3*
X-824650Y1864650D3*
X-436547Y1855373D3*
X-946230Y1624753D3*
D21*
X547467Y1603633D3*
D16*
X-94503Y1488460D3*
X137730Y1487943D3*
X642930Y1470577D3*
X752603Y1406887D3*
X-844583Y1393910D3*
X827527Y1352327D3*
X-89677Y1352513D3*
X139203Y1347167D3*
X-295413Y1298107D3*
D20*
X-98730Y1099620D3*
D16*
X141877Y1100967D3*
X680923Y1085730D3*
X-816190Y1051710D3*
X815093Y1018390D3*
X-291690Y998860D3*
X146813Y995697D3*
X-116953Y984873D3*
X-816190Y980047D3*
X-818230Y894060D3*
X-904230Y943193D3*
X956633Y934717D3*
X891487Y895630D3*
X956633Y854680D3*
X-660100Y779020D3*
X-290963Y749143D3*
X684743Y675010D3*
X-116820Y668200D3*
X-540933Y608097D3*
X677923Y567127D3*
X-155907Y508473D3*
X-539373Y500547D3*
X519630Y472037D3*
X-429273Y-274190D3*
X749017Y-339827D3*
X-803197Y-472360D3*
X752517Y-508783D3*
X-804797Y-562923D3*
X870900Y-718893D3*
X-788110Y-773667D3*
X704273Y-916097D3*
X-789213Y-882323D3*
X-556633Y-995727D3*
X-450133Y-1168930D3*
X-634417Y525677D3*
X-949667Y3051587D2*
D15*
X947457D1*
X-950077Y3021920D2*
X947340D1*
X-950487Y2992253D2*
X947163D1*
X-946093Y2962587D2*
X942887D1*
X-912577Y2932920D2*
X900230D1*
X-868280Y2903253D2*
X857633D1*
X-823983Y2873587D2*
X819137D1*
X-800313Y2843920D2*
X797400D1*
X-782500Y2814253D2*
X775720D1*
X-764687Y2784587D2*
X753980D1*
X-746873Y2754920D2*
X740857D1*
X-738437Y2725253D2*
X735640D1*
X-732637Y2695587D2*
X730427D1*
X-726837Y2665920D2*
X-632230D1*
X-253867D2*
X361343D1*
X487343D2*
X725210D1*
X-721037Y2636253D2*
X-632230D1*
X-253867D2*
X347163D1*
X501583D2*
X719997D1*
X-720157Y2606587D2*
X-632230D1*
X-253867D2*
X322437D1*
X502577D2*
X714780D1*
X-722733Y2576920D2*
X-632230D1*
X-253867D2*
X292790D1*
X490917D2*
X720230D1*
X-725313Y2547253D2*
X-632230D1*
X-253867D2*
X48337D1*
X453183D2*
X725857D1*
X-727890Y2517587D2*
X-632230D1*
X-253867D2*
X12537D1*
X412577D2*
X731423D1*
X-734337Y2487920D2*
X-631060D1*
X-252637D2*
X-81507D1*
X382870D2*
X737047D1*
X-746583Y2458253D2*
X-688247D1*
X-252637D2*
X-153930D1*
X353223D2*
X742673D1*
X-758887Y2428587D2*
X-702953D1*
X-252637D2*
X-186623D1*
X102617D2*
X754567D1*
X-774180Y2398920D2*
X-704300D1*
X-252637D2*
X-216273D1*
X81877D2*
X779703D1*
X-796737Y2369253D2*
X-693167D1*
X81877D2*
X804840D1*
X-819297Y2339587D2*
X-657190D1*
X81877D2*
X829977D1*
X-846720Y2309920D2*
X-631060D1*
X-97890D2*
X-81460D1*
X81877D2*
X855053D1*
X-885097Y2280253D2*
X-473850D1*
X-127540D2*
X207183D1*
X405547D2*
X895543D1*
X-927987Y2250587D2*
X-485043D1*
X-13107D2*
X13473D1*
X405547D2*
X961343D1*
X-986700Y2220920D2*
X-483753D1*
X-13107D2*
X13473D1*
X405547D2*
X999370D1*
X-986230Y2191253D2*
X-469047D1*
X-216543D2*
X-176487D1*
X-13107D2*
X13473D1*
X405547D2*
X999197D1*
X-985763Y2161587D2*
X-424690D1*
X-226270D2*
X-176487D1*
X-13107D2*
X13473D1*
X405547D2*
X998960D1*
X-985293Y2131920D2*
X-424690D1*
X-226270D2*
X-176487D1*
X-13107D2*
X13473D1*
X176913D2*
X207183D1*
X405547D2*
X998727D1*
X-867813Y2102253D2*
X-424690D1*
X-226270D2*
X-176487D1*
X-13107D2*
X13473D1*
X176913D2*
X207183D1*
X405547D2*
X976460D1*
X-838163Y2072587D2*
X-424690D1*
X-226270D2*
X-187037D1*
X191327D2*
X207183D1*
X405547D2*
X946813D1*
X-808457Y2042920D2*
X-424690D1*
X-226270D2*
X-187037D1*
X191327D2*
X207183D1*
X405547D2*
X917163D1*
X-778810Y2013253D2*
X-424690D1*
X-226270D2*
X-187037D1*
X191327D2*
X207183D1*
X405547D2*
X526403D1*
X-1075000Y1983587D2*
X-928247D1*
X-749160D2*
X-424690D1*
X-226270D2*
X-194770D1*
X191327D2*
X207183D1*
X405547D2*
X496753D1*
X-1072773Y1953920D2*
X-898597D1*
X-719513D2*
X-424690D1*
X191327D2*
X207183D1*
X405547D2*
X467107D1*
X-903320Y1924253D2*
X-868890D1*
X-689803D2*
X-472153D1*
X191327D2*
X241167D1*
X364590D2*
X437457D1*
X-869630Y1894587D2*
X-839243D1*
X-660157D2*
X-504907D1*
X-76387D2*
X213980D1*
X364530D2*
X407750D1*
X-839980Y1864920D2*
X-809593D1*
X-630507D2*
X-515160D1*
X-106037D2*
X184273D1*
X354687D2*
X378100D1*
X-810333Y1835253D2*
X-779947D1*
X-600800D2*
X-513050D1*
X-135743D2*
X154627D1*
X326620D2*
X348453D1*
X-780623Y1805587D2*
X-750237D1*
X-571153D2*
X-497230D1*
X-165390D2*
X124977D1*
X296973D2*
X318747D1*
X-750977Y1775920D2*
X-720590D1*
X-541503D2*
X95270D1*
X267323D2*
X289097D1*
X-721327Y1746253D2*
X-690940D1*
X-511797D2*
X65620D1*
X237677D2*
X259450D1*
X635587D2*
X976167D1*
X-691620Y1716587D2*
X-661233D1*
X-482150D2*
X35973D1*
X207970D2*
X239527D1*
X605937D2*
X1005877D1*
X-661973Y1686920D2*
X-631587D1*
X-452500D2*
X6267D1*
X178320D2*
X236713D1*
X598613D2*
X1035523D1*
X-632323Y1657253D2*
X-601937D1*
X-422793D2*
X-23383D1*
X148673D2*
X236713D1*
X630313D2*
X1041440D1*
X-602677Y1627587D2*
X-572230D1*
X-393143D2*
X-40317D1*
X118963D2*
X236713D1*
X643613D2*
X1048120D1*
X-572970Y1597920D2*
X-542583D1*
X-363497D2*
X-41780D1*
X89317D2*
X236713D1*
X646483D2*
X1063413D1*
X-543320Y1568253D2*
X-512933D1*
X-333790D2*
X-41780D1*
X81640D2*
X236713D1*
X639923D2*
X983610D1*
X-513673Y1538587D2*
X-483227D1*
X-304140D2*
X-41780D1*
X81640D2*
X236713D1*
X621347D2*
X892203D1*
X-869687Y1508920D2*
X-853540D1*
X-483963D2*
X-453577D1*
X-274493D2*
X-41780D1*
X81640D2*
X236713D1*
X606230D2*
X869703D1*
X-862540Y1479253D2*
X-823833D1*
X-454317D2*
X-423930D1*
X-244843D2*
X-41780D1*
X81640D2*
X236713D1*
X606230D2*
X862497D1*
X-862013Y1449587D2*
X-794183D1*
X-424667D2*
X-394223D1*
X-215137D2*
X-41780D1*
X81640D2*
X236713D1*
X606230D2*
X862027D1*
X-862013Y1419920D2*
X-764537D1*
X-394960D2*
X-364573D1*
X-185487D2*
X-41780D1*
X81640D2*
X236713D1*
X606230D2*
X862027D1*
X-862013Y1390253D2*
X-734827D1*
X-365313D2*
X-334927D1*
X-155840D2*
X-41780D1*
X81640D2*
X236713D1*
X606230D2*
X862027D1*
X-862013Y1360587D2*
X-705180D1*
X-336133D2*
X-305277D1*
X-134747D2*
X-41780D1*
X81640D2*
X236713D1*
X606230D2*
X862027D1*
X-862013Y1330920D2*
X-675530D1*
X-323123D2*
X-275570D1*
X-131290D2*
X-41780D1*
X81640D2*
X236713D1*
X606230D2*
X862027D1*
X-862013Y1301253D2*
X-645823D1*
X-322480D2*
X-259690D1*
X-131290D2*
X-41780D1*
X81640D2*
X236713D1*
X606230D2*
X862027D1*
X-862013Y1271587D2*
X-616177D1*
X-322480D2*
X-259690D1*
X-131290D2*
X-41780D1*
X81640D2*
X236713D1*
X606230D2*
X862027D1*
X-862013Y1241920D2*
X-612837D1*
X-322480D2*
X-259690D1*
X-131290D2*
X-41780D1*
X81640D2*
X236713D1*
X606230D2*
X862027D1*
X-862013Y1212253D2*
X-612837D1*
X-322480D2*
X-259690D1*
X-131290D2*
X-41780D1*
X81640D2*
X236713D1*
X606230D2*
X862027D1*
X-862013Y1182587D2*
X-612837D1*
X-322480D2*
X-259690D1*
X-131290D2*
X-41780D1*
X81640D2*
X236713D1*
X606230D2*
X862027D1*
X-862013Y1152920D2*
X-612837D1*
X-322480D2*
X-259690D1*
X-131290D2*
X-41780D1*
X81640D2*
X236713D1*
X606230D2*
X862027D1*
X-862013Y1123253D2*
X-612837D1*
X-322480D2*
X-259690D1*
X-131290D2*
X-41780D1*
X81640D2*
X236713D1*
X606230D2*
X862027D1*
X-862013Y1093587D2*
X-612837D1*
X-322480D2*
X-259690D1*
X-131290D2*
X-41780D1*
X81640D2*
X236713D1*
X606230D2*
X862027D1*
X-863710Y1063920D2*
X-612837D1*
X-322480D2*
X-259690D1*
X-131290D2*
X-41780D1*
X81640D2*
X236713D1*
X606230D2*
X863727D1*
X-873613Y1034253D2*
X-612837D1*
X-322480D2*
X-259690D1*
X-131290D2*
X-41780D1*
X81640D2*
X236713D1*
X606230D2*
X873570D1*
X-904787Y1004587D2*
X-612837D1*
X-322480D2*
X-259690D1*
X-131290D2*
X-41780D1*
X81640D2*
X236713D1*
X606230D2*
X900230D1*
X-1020390Y974920D2*
X-612837D1*
X-322480D2*
X-259690D1*
X-131290D2*
X-41780D1*
X81640D2*
X236713D1*
X606230D2*
X1020347D1*
X-1068553Y945253D2*
X-612837D1*
X-322480D2*
X-259690D1*
X-131290D2*
X-41780D1*
X81640D2*
X236713D1*
X606230D2*
X1069273D1*
X-1068553Y915587D2*
X-612837D1*
X-322480D2*
X-259690D1*
X-131290D2*
X-41780D1*
X81640D2*
X236713D1*
X606230D2*
X1069273D1*
X-1068553Y885920D2*
X-612837D1*
X-322480D2*
X-259690D1*
X-131290D2*
X-41780D1*
X81640D2*
X236713D1*
X606230D2*
X1069273D1*
X-1068553Y856253D2*
X-612837D1*
X-322480D2*
X-259690D1*
X-131290D2*
X-41780D1*
X81640D2*
X236713D1*
X606230D2*
X1069273D1*
X-1068553Y826587D2*
X-612837D1*
X-322480D2*
X-259690D1*
X-131290D2*
X-41780D1*
X81640D2*
X236713D1*
X606230D2*
X1069273D1*
X-1068553Y796920D2*
X-612837D1*
X-322480D2*
X-259690D1*
X-131290D2*
X-41780D1*
X81640D2*
X219663D1*
X606230D2*
X1069273D1*
X-1068553Y767253D2*
X-617230D1*
X-322480D2*
X-259690D1*
X-131290D2*
X-41780D1*
X81640D2*
X190017D1*
X606230D2*
X1069273D1*
X-1068553Y737587D2*
X-646937D1*
X-322480D2*
X-259690D1*
X-131290D2*
X-41780D1*
X81640D2*
X160367D1*
X606230D2*
X1069273D1*
X-868280Y707920D2*
X-676587D1*
X-301210D2*
X-285297D1*
X-131290D2*
X-41780D1*
X81640D2*
X130660D1*
X606230D2*
X868297D1*
X-868280Y678253D2*
X-706233D1*
X-139083D2*
X-41780D1*
X81640D2*
X101013D1*
X606230D2*
X868297D1*
X-868280Y648587D2*
X-735883D1*
X-556797D2*
X-501917D1*
X-165507D2*
X-63227D1*
X606230D2*
X868297D1*
X-868280Y618920D2*
X-765590D1*
X-586503D2*
X-479007D1*
X-195157D2*
X-92933D1*
X606230D2*
X868297D1*
X-868280Y589253D2*
X-793130D1*
X-616153D2*
X-479007D1*
X-195800D2*
X-119360D1*
X632540D2*
X868297D1*
X-868280Y559587D2*
X-802563D1*
X-645800D2*
X-479007D1*
X-195800D2*
X-126683D1*
X662247D2*
X868297D1*
X-868280Y529920D2*
X-802680D1*
X-674277D2*
X-479007D1*
X-195800D2*
X-126683D1*
X691893D2*
X868297D1*
X-1070780Y500253D2*
X-802680D1*
X-674277D2*
X-494593D1*
X-195800D2*
X-126683D1*
X520273D2*
X542457D1*
X721543D2*
X1070797D1*
X-1070780Y470587D2*
X-802680D1*
X490627D2*
X572107D1*
X751250D2*
X1070797D1*
X-1062227Y440920D2*
X-802680D1*
X780900D2*
X1045250D1*
X-1042540Y411253D2*
X-945883D1*
X-884100D2*
X-802680D1*
X810547D2*
X884117D1*
X945900D2*
X1034763D1*
X-1039787Y381587D2*
X-984497D1*
X-845487D2*
X-802680D1*
X984513D2*
X1034587D1*
X-1039787Y351920D2*
X-997447D1*
X-832597D2*
X-802680D1*
X997403D2*
X1034587D1*
X-1039787Y322253D2*
X-998207D1*
X-831837D2*
X-802680D1*
X697287D2*
X720463D1*
X998163D2*
X1034587D1*
X-1039787Y292587D2*
X-987250D1*
X-842733D2*
X-802680D1*
X697343D2*
X730543D1*
X987267D2*
X1034587D1*
X-1041250Y262920D2*
X-955373D1*
X-874610D2*
X-802680D1*
X697403D2*
X730543D1*
X858947D2*
X874657D1*
X955390D2*
X1036460D1*
X-1057363Y233253D2*
X-802680D1*
X697520D2*
X730543D1*
X858947D2*
X1053923D1*
X-1069727Y203587D2*
X-802680D1*
X697577D2*
X730543D1*
X858947D2*
X1075133D1*
X-1069727Y173920D2*
X-802680D1*
X697637D2*
X730543D1*
X858947D2*
X1075133D1*
X-868280Y144253D2*
X-802680D1*
X697753D2*
X730543D1*
X-868280Y114587D2*
X-802680D1*
X697813D2*
X730543D1*
X-868280Y84920D2*
X-802680D1*
X697870D2*
X730543D1*
X-868280Y55253D2*
X-802680D1*
X697930D2*
X730543D1*
X-868280Y25587D2*
X-802680D1*
X698047D2*
X730543D1*
X-818183Y-4080D2*
X-802660D1*
X698107D2*
X730543D1*
X698163Y-33747D2*
X730543D1*
X698280Y-63413D2*
X730600D1*
X698340Y-93080D2*
X740327D1*
X698400Y-122747D2*
X768043D1*
X698517Y-152413D2*
X797690D1*
X698573Y-182080D2*
X828687D1*
X698633Y-211747D2*
X852067D1*
X698750Y-241413D2*
X908317D1*
X698810Y-271080D2*
X876677D1*
X-822460Y-300747D2*
X-778247D1*
X698867D2*
X847027D1*
X-822460Y-330413D2*
X-696567D1*
X698983D2*
X818960D1*
X-822460Y-360080D2*
X-730727D1*
X699043D2*
X809293D1*
X-822460Y-389747D2*
X-760373D1*
X699100D2*
X809177D1*
X-822460Y-419413D2*
X-783930D1*
X699220D2*
X809177D1*
X-822460Y-449080D2*
X-788207D1*
X699277D2*
X809177D1*
X-822460Y-478747D2*
X-788207D1*
X699337D2*
X809177D1*
X-822460Y-508413D2*
X-788207D1*
X699453D2*
X809177D1*
X-822460Y-538080D2*
X-788207D1*
X699513D2*
X809177D1*
X-822460Y-567747D2*
X-788207D1*
X699570D2*
X809177D1*
X-822460Y-597413D2*
X-788207D1*
X699687D2*
X809177D1*
X-444243Y2683377D2*
X-256843D1*
Y2501293D1*
X-255663Y2501280D1*
Y2356493D1*
X-160550Y2451330D1*
X-151513Y2457897D1*
X-141557Y2462970D1*
X-130930Y2466423D1*
X-119897Y2468170D1*
X-78510Y2468390D1*
X-78500Y2495890D1*
X-6137D1*
X35743Y2537547D1*
X43513Y2543190D1*
X52070Y2547550D1*
X61203Y2550520D1*
X70687Y2552020D1*
X150490Y2552210D1*
X271133D1*
X348990Y2630117D1*
X351897Y2642490D1*
X356473Y2653537D1*
X362720Y2663733D1*
X370487Y2672823D1*
X379577Y2680590D1*
X389773Y2686837D1*
X400820Y2691413D1*
X412447Y2694207D1*
X424367Y2695143D1*
X436287Y2694207D1*
X447913Y2691413D1*
X458960Y2686837D1*
X469157Y2680590D1*
X478247Y2672823D1*
X486013Y2663733D1*
X492260Y2653537D1*
X496837Y2642490D1*
X499630Y2630863D1*
X500567Y2618943D1*
X499630Y2607023D1*
X496837Y2595397D1*
X492260Y2584350D1*
X486013Y2574153D1*
X478247Y2565063D1*
X469157Y2557297D1*
X458960Y2551050D1*
X447913Y2546473D1*
X435567Y2543597D1*
X336180Y2444473D1*
X328410Y2438830D1*
X319853Y2434470D1*
X310720Y2431500D1*
X301237Y2430000D1*
X221433Y2429810D1*
X100790D1*
X78867Y2407837D1*
X78900Y2298490D1*
X-78500D1*
Y2325970D1*
X-85177Y2325630D1*
X-144880Y2265927D1*
X-16100Y2265890D1*
Y2088057D1*
X16477Y2088023D1*
X16500Y2265890D1*
X173900D1*
Y2256457D1*
X210213Y2256510D1*
X210173Y2300210D1*
X402573D1*
Y1927810D1*
X361617D1*
X361417Y1892910D1*
X359973Y1883813D1*
X357130Y1875053D1*
X352947Y1866847D1*
X347533Y1859393D1*
X291370Y1802977D1*
X78617Y1590223D1*
X78640Y652877D1*
X239700Y813940D1*
X239900Y1702987D1*
X241400Y1712470D1*
X244370Y1721603D1*
X248730Y1730160D1*
X254373Y1737930D1*
X310667Y1794490D1*
X537300Y2020857D1*
X545070Y2026500D1*
X553627Y2030860D1*
X562760Y2033830D1*
X572243Y2035330D1*
X652047Y2035520D1*
X912730D1*
X994023Y2116537D1*
X1002803Y2123160D1*
X1001740Y2127730D1*
X1002483Y2233380D1*
X874730Y2291197D1*
X872020Y2293477D1*
X750300Y2437653D1*
X748717Y2442070D1*
X717947Y2606570D1*
X725970Y2653233D1*
X746910Y2770083D1*
X748643Y2773153D1*
X826637Y2879363D1*
X865390Y2906563D1*
X950077Y2965513D1*
X950630Y3081277D1*
X-952273Y3080710D1*
X-953843Y2967663D1*
X-931543Y2943627D1*
X-817573Y2866900D1*
X-815417Y2864110D1*
X-746127Y2748157D1*
X-736853Y2701727D1*
X-721770Y2623057D1*
X-732600Y2499860D1*
X-750517Y2456033D1*
X-770990Y2407137D1*
X-838677Y2318517D1*
X-923107Y2253380D1*
X-926340Y2251977D1*
X-989927Y2232900D1*
X-988253Y2131213D1*
X-920310Y2131010D1*
X-910827Y2129510D1*
X-901693Y2126540D1*
X-893137Y2122183D1*
X-885367Y2116537D1*
X-828807Y2060243D1*
X-148963Y1380133D1*
X-143320Y1372363D1*
X-138960Y1363807D1*
X-135990Y1354673D1*
X-134490Y1345190D1*
X-134300Y1265387D1*
X-134490Y703350D1*
X-135990Y693867D1*
X-138960Y684733D1*
X-143320Y676177D1*
X-148963Y668407D1*
X-198837Y618267D1*
X-198800Y473440D1*
X-123650Y472950D1*
X-123520Y565427D1*
X-122077Y574523D1*
X-119233Y583283D1*
X-115050Y591490D1*
X-109637Y598943D1*
X-53473Y655360D1*
X-38767Y670070D1*
X-38580Y1619167D1*
X-37137Y1628263D1*
X-34293Y1637023D1*
X-30110Y1645230D1*
X-24697Y1652683D1*
X31467Y1709100D1*
X244220Y1921853D1*
X244197Y1927810D1*
X210173D1*
Y2134080D1*
X173893Y2134110D1*
X173900Y2088057D1*
X188350Y2088023D1*
Y1895623D1*
X-78387D1*
X-173060Y1801233D1*
X-182097Y1794667D1*
X-192053Y1789593D1*
X-202680Y1786140D1*
X-213713Y1784393D1*
X-279300Y1784173D1*
X-409437D1*
X-418757Y1781280D1*
X-430567Y1779407D1*
X-442527D1*
X-454337Y1781280D1*
X-465707Y1784973D1*
X-476360Y1790403D1*
X-486033Y1797430D1*
X-494490Y1805887D1*
X-501517Y1815560D1*
X-506947Y1826213D1*
X-510640Y1837583D1*
X-512513Y1849393D1*
Y1861353D1*
X-510640Y1873163D1*
X-506947Y1884533D1*
X-501517Y1895187D1*
X-494490Y1904860D1*
X-486033Y1913317D1*
X-476360Y1920343D1*
X-465707Y1925773D1*
X-454337Y1929467D1*
X-442527Y1931340D1*
X-430567D1*
X-418757Y1929467D1*
X-409557Y1926573D1*
X-248433Y1926933D1*
X-184090Y1991277D1*
X-184050Y2088023D1*
X-173443D1*
X-173500Y2237297D1*
X-226203Y2184920D1*
X-229263Y2179087D1*
Y1946097D1*
X-233680Y1941687D1*
X-421663D1*
Y2164363D1*
X-430277Y2166603D1*
X-441323Y2171180D1*
X-451520Y2177427D1*
X-460610Y2185193D1*
X-468377Y2194283D1*
X-474623Y2204480D1*
X-479200Y2215527D1*
X-481993Y2227153D1*
X-482930Y2239073D1*
X-481993Y2250993D1*
X-479200Y2262620D1*
X-474623Y2273667D1*
X-468377Y2283863D1*
X-460610Y2292953D1*
X-451520Y2300720D1*
X-441323Y2306967D1*
X-437187Y2308877D1*
X-628063Y2308880D1*
Y2334133D1*
X-637907Y2335100D1*
X-649533Y2337893D1*
X-660580Y2342470D1*
X-670777Y2348717D1*
X-679867Y2356483D1*
X-687633Y2365573D1*
X-693880Y2375770D1*
X-698457Y2386817D1*
X-701250Y2398443D1*
X-702187Y2410363D1*
X-701250Y2422283D1*
X-698457Y2433910D1*
X-693880Y2444957D1*
X-687633Y2455153D1*
X-679867Y2464243D1*
X-670777Y2472010D1*
X-660580Y2478257D1*
X-649533Y2482833D1*
X-637907Y2485627D1*
X-628067Y2486483D1*
Y2490977D1*
X-629243D1*
Y2683377D1*
X-444243D1*
X1072287Y713690D2*
Y965837D1*
X931980Y992123D1*
X906787Y1001803D1*
X886480Y1018803D1*
X883157Y1022793D1*
X869977Y1046340D1*
X865227Y1072393D1*
X865000Y1105000D1*
X865223Y1477587D1*
X870143Y1504123D1*
X883150Y1527190D1*
X886463Y1531183D1*
X907210Y1548447D1*
X931960Y1557870D1*
X963977Y1564050D1*
X1076717Y1584987D1*
X1067903Y1595820D1*
X1062397Y1604060D1*
X1057553Y1612707D1*
X1053407Y1621707D1*
X1049977Y1631003D1*
X1047287Y1640540D1*
X1045353Y1650257D1*
X1044190Y1660100D1*
X1043800Y1670000D1*
X1044330Y1681093D1*
X949603Y1775830D1*
X662127Y1775823D1*
X580343Y1694020D1*
X591140Y1689347D1*
X604010Y1681460D1*
X615490Y1671657D1*
X625293Y1660177D1*
X633180Y1647307D1*
X638957Y1633360D1*
X642483Y1618683D1*
X643667Y1603633D1*
X642483Y1588583D1*
X638957Y1573907D1*
X633180Y1559960D1*
X625293Y1547090D1*
X615490Y1535610D1*
X604010Y1525807D1*
X603203Y1525263D1*
X603213Y615590D1*
X841270Y377283D1*
X845767Y377427D1*
X853257Y387737D1*
X862263Y396743D1*
X872573Y404233D1*
X883927Y410020D1*
X896043Y413957D1*
X908630Y415950D1*
X921370D1*
X933957Y413957D1*
X946073Y410020D1*
X957427Y404233D1*
X967737Y396743D1*
X976743Y387737D1*
X984233Y377427D1*
X990020Y366073D1*
X993957Y353957D1*
X995950Y341370D1*
Y328630D1*
X993957Y316043D1*
X990020Y303927D1*
X984233Y292573D1*
X976743Y282263D1*
X967737Y273257D1*
X957427Y265767D1*
X946073Y259980D1*
X933957Y256043D1*
X921370Y254050D1*
X908630D1*
X896043Y256043D1*
X883927Y259980D1*
X872573Y265767D1*
X862263Y273257D1*
X855910Y279393D1*
X855920Y-34463D1*
X870037Y-48570D1*
X1092830D1*
X1092787Y-43727D1*
X871300Y-43700D1*
Y158700D1*
X1078157D1*
X1078107Y212100D1*
X1052230Y238213D1*
X1046587Y245983D1*
X1042227Y254540D1*
X1039257Y263673D1*
X1037757Y273157D1*
X1037567Y352960D1*
X1037757Y411140D1*
X1039257Y420623D1*
X1042227Y429757D1*
X1046587Y438313D1*
X1052230Y446083D1*
X1073763Y467883D1*
X1073800Y511300D1*
X871300D1*
Y713700D1*
X1072297D1*
X-1071570Y965960D2*
Y713743D1*
X-871300Y713700D1*
Y511300D1*
X-1073820D1*
X-1073800Y449433D1*
X-1057433Y432840D1*
X-1051787Y425070D1*
X-1047427Y416513D1*
X-1044460Y407380D1*
X-1042957Y397897D1*
X-1042770Y318093D1*
X-1042957Y271380D1*
X-1044460Y261897D1*
X-1047427Y252763D1*
X-1051787Y244207D1*
X-1057433Y236437D1*
X-1072750Y220850D1*
X-1072747Y158727D1*
X-871300Y158700D1*
Y5947D1*
X-849983Y5770D1*
X-840500Y4270D1*
X-831367Y1300D1*
X-822810Y-3057D1*
X-815040Y-8703D1*
X-799703Y-23773D1*
X-799483Y561280D1*
X-797980Y570763D1*
X-795013Y579897D1*
X-790653Y588453D1*
X-785007Y596223D1*
X-728713Y652783D1*
X-609843Y771653D1*
X-609817Y1268223D1*
X-903337Y1561740D1*
X-911637Y1556860D1*
X-919810Y1553343D1*
X-906787Y1548197D1*
X-886480Y1531197D1*
X-883157Y1527207D1*
X-869977Y1503660D1*
X-865227Y1477607D1*
X-865000Y1445000D1*
X-865223Y1072413D1*
X-870143Y1045877D1*
X-883150Y1022810D1*
X-886037Y1019193D1*
X-920770Y995997D1*
X-925753Y994023D1*
X-934480Y991430D1*
X-1071533Y965977D1*
X-1093117Y1969967D2*
X-1080763Y1959237D1*
X-1074037Y1951960D1*
X-1067903Y1944180D1*
X-1059730Y1931177D1*
X-929810Y1931010D1*
X-920327Y1929510D1*
X-911193Y1926543D1*
X-902637Y1922183D1*
X-894867Y1916537D1*
X-838307Y1860243D1*
X-340167Y1361837D1*
X-334520Y1354067D1*
X-330163Y1345510D1*
X-327193Y1336377D1*
X-325693Y1326893D1*
X-325503Y1247090D1*
Y732460D1*
X-311043Y717697D1*
X-305397Y709927D1*
X-301040Y701370D1*
X-298067Y692220D1*
X-256663Y733540D1*
X-256700Y1315010D1*
X-950453Y2008790D1*
X-1059587Y2008800D1*
X-1067903Y1995820D1*
X-1074037Y1988040D1*
X-1080763Y1980763D1*
X-1093117Y1970033D1*
X911950Y-240970D2*
X855037D1*
Y-192043D1*
X843370Y-188483D1*
X834813Y-184123D1*
X827043Y-178477D1*
X770483Y-122183D1*
X748183Y-99617D1*
X742537Y-91847D1*
X738177Y-83290D1*
X735210Y-74157D1*
X733707Y-64673D1*
X733520Y15130D1*
Y312143D1*
X694143Y351577D1*
X696717Y-617857D1*
X812160Y-618023D1*
X812380Y-358260D1*
X813820Y-349163D1*
X816667Y-340403D1*
X820850Y-332197D1*
X826263Y-324743D1*
X882427Y-268327D1*
X904747Y-246260D1*
X908383Y-243397D1*
X-834050Y328630D2*
X-836043Y316043D1*
X-839980Y303927D1*
X-845767Y292573D1*
X-853257Y282263D1*
X-862263Y273257D1*
X-872573Y265767D1*
X-883927Y259980D1*
X-896043Y256043D1*
X-908630Y254050D1*
X-921370D1*
X-933957Y256043D1*
X-946073Y259980D1*
X-957427Y265767D1*
X-967737Y273257D1*
X-976743Y282263D1*
X-984233Y292573D1*
X-990020Y303927D1*
X-993957Y316043D1*
X-995950Y328630D1*
Y341370D1*
X-993957Y353957D1*
X-990020Y366073D1*
X-984233Y377427D1*
X-976743Y387737D1*
X-967737Y396743D1*
X-957427Y404233D1*
X-946073Y410020D1*
X-933957Y413957D1*
X-921370Y415950D1*
X-908630D1*
X-896043Y413957D1*
X-883927Y410020D1*
X-872573Y404233D1*
X-862263Y396743D1*
X-853257Y387737D1*
X-845767Y377427D1*
X-839980Y366073D1*
X-836043Y353957D1*
X-834050Y341370D1*
Y328630D1*
X-825417Y-615843D2*
X-785223Y-615897D1*
X-785020Y-436437D1*
X-783640Y-427727D1*
X-780917Y-419340D1*
X-776913Y-411483D1*
X-771730Y-404347D1*
X-717887Y-350260D1*
X-711180Y-344533D1*
X-703660Y-339927D1*
X-695497Y-336547D1*
X-693597Y-321183D1*
X-734253Y-321010D1*
X-743737Y-319510D1*
X-752870Y-316540D1*
X-761427Y-312180D1*
X-769197Y-306537D1*
X-825467Y-250533D1*
X-825473Y-615860D1*
X-648990Y476263D2*
X-510830Y475390D1*
X-507183Y482247D1*
X-501537Y490017D1*
X-476027Y515793D1*
X-475987Y625307D1*
X-498633Y648227D1*
X-504280Y655997D1*
X-508640Y664553D1*
X-511607Y673687D1*
X-513110Y683170D1*
X-513297Y687993D1*
X-515947Y692447D1*
X-677243Y531153D1*
X-677270Y466887D1*
X-670420Y471173D1*
X-663730Y473967D1*
X-656687Y475677D1*
X-649447Y476263D1*
X486183Y469107D2*
X577237Y468533D1*
X531400Y514320D1*
X486167Y469137D1*
X-528043Y2683317D2*
D10*
Y2587177D1*
X-629183D2*
X-528043D1*
X-325463Y2042887D2*
Y1941747D1*
X-421603Y2042887D2*
X-229323D1*
X1072347Y933620D2*
X1168487D1*
X-1167770Y929203D2*
X-1071627D1*
X965000Y713640D2*
Y511360D1*
X871360Y612500D2*
X965000D1*
X-965000Y713640D2*
Y511360D1*
Y612500D2*
X-871360D1*
D24*
X-358043Y2587177D3*
X-528043D3*
D26*
X-325463Y2042887D3*
Y2212887D3*
X1168487Y763620D3*
Y933620D3*
X-1167770Y929203D3*
Y759203D3*
D29*
X-1170000Y1670000D3*
Y1870000D3*
Y2070000D3*
X1170000Y1670000D3*
Y1870000D3*
Y2070000D3*
X-1170000Y-980000D3*
X1170000D3*
D33*
X95200Y2167190D3*
X-94800D3*
X200Y2397190D3*
D24*
X-526863Y2405080D3*
X-356863D3*
D26*
X306373Y2199010D3*
Y2029010D3*
D24*
X87150Y1991823D3*
X-82850D3*
X1126237Y-144770D3*
X956237D3*
X-944417Y-158057D3*
X-1114417D3*
D39*
X902457Y-1171640D3*
Y-1044640D3*
Y-1298640D3*
Y-917640D3*
X-888500Y-1158000D3*
X-885000Y-1288500D3*
D40*
X965000Y612500D3*
X1135000D3*
X965000Y57500D3*
X1135000D3*
X-1135000Y612500D3*
X-965000D3*
X-1135000Y57500D3*
X-965000D3*
D41*
X0Y250000D3*
X65000D3*
X130000D3*
X195000D3*
X260000D3*
X325000D3*
X390000D3*
X455000D3*
X520000D3*
X-65000D3*
X-130000D3*
X-195000D3*
X-260000D3*
X-325000D3*
X-390000D3*
X-455000D3*
X-520000D3*
D42*
X-560000Y130000D3*
Y65000D3*
Y0D3*
Y-65000D3*
Y-130000D3*
Y-195000D3*
Y-260000D3*
Y-325000D3*
Y-390000D3*
Y-455000D3*
Y-520000D3*
Y-585000D3*
Y-650000D3*
Y-715000D3*
Y-780000D3*
Y-845000D3*
Y-910000D3*
X560000Y130000D3*
Y65000D3*
Y0D3*
Y-65000D3*
Y-130000D3*
Y-195000D3*
Y-260000D3*
Y-325000D3*
Y-390000D3*
Y-455000D3*
Y-520000D3*
Y-585000D3*
Y-650000D3*
Y-715000D3*
Y-780000D3*
Y-845000D3*
Y-910000D3*
X390000Y-780000D3*
Y-715000D3*
Y-650000D3*
Y-585000D3*
D41*
X455000Y-900000D3*
X390000D3*
X325000D3*
X260000D3*
X195000D3*
D43*
X155000Y-275000D3*
X-125000D3*
Y-560000D3*
X155000D3*
X-81160Y9882810D2*
D12*
X-73540D1*
X-81160Y9879000D2*
X-64029D1*
X21710D2*
X48380D1*
X-81160Y9875190D2*
X-54330D1*
X14383D2*
X56995D1*
X-81145Y9871380D2*
X-45031D1*
X8399D2*
X63994D1*
X-80967Y9867570D2*
X-36653D1*
X3615D2*
X69133D1*
X-80520Y9863760D2*
X-29616D1*
X-215D2*
X72761D1*
X-78131Y9859950D2*
X-24080D1*
X-3456D2*
X75461D1*
X-71975Y9856140D2*
X-19284D1*
X-6944D2*
X77689D1*
X-64086Y9852330D2*
X-14207D1*
X-11362D2*
X27781D1*
X43516D2*
X79588D1*
X-55321Y9848520D2*
X17420D1*
X52224D2*
X81044D1*
X-46651Y9844710D2*
X10283D1*
X58510D2*
X81931D1*
X-38879Y9840900D2*
X5678D1*
X63196D2*
X82502D1*
X-32531Y9837090D2*
X2676D1*
X65262D2*
X83180D1*
X-27757Y9833280D2*
X758D1*
X66595D2*
X84171D1*
X-24420Y9829470D2*
X-295D1*
X67660D2*
X85178D1*
X-22150Y9825660D2*
X-798D1*
X68822D2*
X85853D1*
X-20501Y9821850D2*
X-1014D1*
X69897D2*
X86210D1*
X-19036Y9818040D2*
X-1100D1*
X70598D2*
X86373D1*
X-17823Y9814230D2*
X-1133D1*
X70965D2*
X86440D1*
X-17065Y9810420D2*
X-1144D1*
X71131D2*
X86466D1*
X-16677Y9806610D2*
X-1148D1*
X71199D2*
X86475D1*
X-16503Y9802800D2*
X-1149D1*
X71225D2*
X86478D1*
X-16432Y9798990D2*
X-1150D1*
X71235D2*
X86479D1*
X-16405Y9795180D2*
X-1150D1*
X71238D2*
X86480D1*
X-16395Y9791370D2*
X-1150D1*
X71239D2*
X86480D1*
X-16392Y9787560D2*
X-1150D1*
X71240D2*
X86480D1*
X-81160Y9783750D2*
X86480D1*
X-81160Y9779940D2*
X86480D1*
X-81160Y9776130D2*
X86480D1*
X-81160Y9772320D2*
X86480D1*
X-81160Y9768510D2*
X86480D1*
X-81160Y9764700D2*
X86480D1*
X-81160Y9760890D2*
X86480D1*
X-20200Y9715170D2*
X21710D1*
X-34239Y9711360D2*
X35764D1*
X-45638Y9707550D2*
X47297D1*
X-54094Y9703740D2*
X56224D1*
X-60300Y9699930D2*
X63208D1*
X-65183Y9696120D2*
X68598D1*
X-69310Y9692310D2*
X72595D1*
X-72793Y9688500D2*
X75822D1*
X-75621Y9684690D2*
X-34531D1*
X36186D2*
X78692D1*
X-77976Y9680880D2*
X-43742D1*
X45871D2*
X81177D1*
X-80067Y9677070D2*
X-51076D1*
X53998D2*
X83247D1*
X-81915Y9673260D2*
X-56657D1*
X60190D2*
X84791D1*
X-83353Y9669450D2*
X-60856D1*
X64493D2*
X85717D1*
X-84220Y9665640D2*
X-63979D1*
X67420D2*
X86303D1*
X-84654Y9661830D2*
X-66325D1*
X69342D2*
X86987D1*
X-84846Y9658020D2*
X-67978D1*
X70530D2*
X87980D1*
X-84924Y9654210D2*
X-68930D1*
X71520D2*
X88987D1*
X-84954Y9650400D2*
X-69397D1*
X72635D2*
X89663D1*
X-84964Y9646590D2*
X-69600D1*
X73565D2*
X90020D1*
X-84968Y9642780D2*
X-69682D1*
X73776D2*
X90183D1*
X-84969Y9638970D2*
X-69698D1*
X73229D2*
X90235D1*
X-84970Y9635160D2*
X-69575D1*
X72403D2*
X90127D1*
X-84970Y9631350D2*
X-69079D1*
X71672D2*
X89651D1*
X-84955Y9627540D2*
X-68019D1*
X70845D2*
X88741D1*
X-84821Y9623730D2*
X-66408D1*
X69631D2*
X87751D1*
X-84321Y9619920D2*
X-64197D1*
X67942D2*
X86953D1*
X-83274Y9616110D2*
X-61290D1*
X65542D2*
X86099D1*
X-81797Y9612300D2*
X-57568D1*
X61813D2*
X84891D1*
X-80086Y9608490D2*
X-51872D1*
X55609D2*
X83347D1*
X-78255Y9604680D2*
X-41157D1*
X44670D2*
X81595D1*
X-76353Y9600870D2*
X-21727D1*
X26156D2*
X79622D1*
X-74188Y9597060D2*
X7084D1*
X-571D2*
X77230D1*
X-71289Y9593250D2*
X74151D1*
X-67274Y9589440D2*
X70260D1*
X-62254Y9585630D2*
X65417D1*
X-56134Y9581820D2*
X59296D1*
X-48350Y9578010D2*
X51193D1*
X-38638Y9574200D2*
X40845D1*
X-27820Y9570390D2*
X29330D1*
X-58300Y9536100D2*
X-31630D1*
X-63869Y9532290D2*
X-25916D1*
X-68758Y9528480D2*
X-20538D1*
X71240D2*
X86480D1*
X-72973Y9524670D2*
X-15395D1*
X71240D2*
X86480D1*
X-76409Y9520860D2*
X-10848D1*
X71240D2*
X86495D1*
X-78906Y9517050D2*
X-7187D1*
X71240D2*
X86629D1*
X-80715Y9513240D2*
X-3978D1*
X71240D2*
X87114D1*
X-82263Y9509430D2*
X-53596D1*
X-43809D2*
X-791D1*
X71255D2*
X88027D1*
X-83513Y9505620D2*
X-59131D1*
X-37771D2*
X2252D1*
X71389D2*
X89004D1*
X-84286Y9501810D2*
X-63155D1*
X-32685D2*
X5000D1*
X71874D2*
X89668D1*
X-84680Y9498000D2*
X-65972D1*
X-28256D2*
X7642D1*
X72787D2*
X90022D1*
X-84856Y9494190D2*
X-67839D1*
X-24193D2*
X10280D1*
X73764D2*
X90183D1*
X-84928Y9490380D2*
X-68878D1*
X-20410D2*
X12801D1*
X74413D2*
X90250D1*
X-84955Y9486570D2*
X-69378D1*
X-17046D2*
X15336D1*
X74633D2*
X90276D1*
X-84965Y9482760D2*
X-69594D1*
X-14149D2*
X17928D1*
X74309D2*
X90270D1*
X-84968Y9478950D2*
X-69680D1*
X-11445D2*
X20446D1*
X73463D2*
X90140D1*
X-84969Y9475140D2*
X-69713D1*
X-8783D2*
X23108D1*
X72497D2*
X89655D1*
X-84970Y9471330D2*
X-69724D1*
X-6254D2*
X26183D1*
X71708D2*
X88743D1*
X-84970Y9467520D2*
X-69728D1*
X-3716D2*
X29628D1*
X70843D2*
X87766D1*
X-84970Y9463710D2*
X-69714D1*
X-1123D2*
X33445D1*
X69442D2*
X87087D1*
X-84955Y9459900D2*
X-69581D1*
X1396D2*
X38109D1*
X67481D2*
X86600D1*
X-84821Y9456090D2*
X-69096D1*
X4058D2*
X44603D1*
X62064D2*
X85938D1*
X-84336Y9452280D2*
X-68183D1*
X7133D2*
X53444D1*
X54084D2*
X84824D1*
X-83423Y9448470D2*
X-67191D1*
X10563D2*
X83321D1*
X-82446Y9444660D2*
X-66393D1*
X14202D2*
X81571D1*
X-81767Y9440850D2*
X-65551D1*
X17957D2*
X79469D1*
X-81268Y9437040D2*
X-64445D1*
X21885D2*
X76607D1*
X-80518Y9433230D2*
X-63242D1*
X26274D2*
X72721D1*
X-79146Y9429420D2*
X-62110D1*
X31383D2*
X68234D1*
X-77350Y9425610D2*
X-73540D1*
X36950D2*
X63620D1*
X-81160Y9379890D2*
X86480D1*
X-81160Y9376080D2*
X86480D1*
X-81160Y9372270D2*
X86480D1*
X-81160Y9368460D2*
X86480D1*
X-81160Y9364650D2*
X86480D1*
X-81160Y9360840D2*
X86480D1*
X-81160Y9357030D2*
X86480D1*
X-59763Y9353220D2*
X-11991D1*
X-45010Y9349410D2*
X-7237D1*
X-35663Y9345600D2*
X-2440D1*
X-29397Y9341790D2*
X2037D1*
X-24593Y9337980D2*
X6201D1*
X-20406Y9334170D2*
X10173D1*
X-16460Y9330360D2*
X14050D1*
X-12603Y9326550D2*
X17886D1*
X-8778Y9322740D2*
X21705D1*
X-4962Y9318930D2*
X25518D1*
X-1151Y9315120D2*
X29329D1*
X2660Y9311310D2*
X33140D1*
X6485Y9307500D2*
X36950D1*
X10429Y9303690D2*
X40775D1*
X14724Y9299880D2*
X44719D1*
X19447Y9296070D2*
X49014D1*
X24234Y9292260D2*
X53737D1*
X28708Y9288450D2*
X58524D1*
X32872Y9284640D2*
X62998D1*
X36843Y9280830D2*
X67162D1*
X40720Y9277020D2*
X71133D1*
X44556Y9273210D2*
X74995D1*
X48375Y9269400D2*
X78682D1*
X-81160Y9265590D2*
X81867D1*
X-81160Y9261780D2*
X84133D1*
X-81160Y9257970D2*
X85421D1*
X-81160Y9254160D2*
X86043D1*
X-81160Y9250350D2*
X86312D1*
X-81160Y9246540D2*
X86422D1*
X-81160Y9242730D2*
X86480D1*
X-81160Y9193200D2*
X-65920D1*
X71240D2*
X86480D1*
X-81160Y9189390D2*
X-65920D1*
X71240D2*
X86480D1*
X-81160Y9185580D2*
X-65920D1*
X-1150D2*
X14090D1*
X71240D2*
X86480D1*
X-81160Y9181770D2*
X-65920D1*
X-1150D2*
X14090D1*
X71240D2*
X86480D1*
X-81160Y9177960D2*
X-65920D1*
X-1150D2*
X14090D1*
X71240D2*
X86480D1*
X-81160Y9174150D2*
X-65920D1*
X-1150D2*
X14090D1*
X71240D2*
X86480D1*
X-81160Y9170340D2*
X-65920D1*
X-1150D2*
X14090D1*
X71240D2*
X86480D1*
X-81160Y9166530D2*
X-65920D1*
X-1150D2*
X14090D1*
X71240D2*
X86480D1*
X-81160Y9162720D2*
X-65920D1*
X-1150D2*
X14090D1*
X71240D2*
X86480D1*
X-81160Y9158910D2*
X-65920D1*
X-1150D2*
X14090D1*
X71240D2*
X86480D1*
X-81160Y9155100D2*
X-65920D1*
X-1150D2*
X14090D1*
X71240D2*
X86480D1*
X-81160Y9151290D2*
X-65920D1*
X-1150D2*
X14090D1*
X71240D2*
X86480D1*
X-81160Y9147480D2*
X-65920D1*
X-1150D2*
X14090D1*
X71240D2*
X86480D1*
X-81160Y9143670D2*
X-65920D1*
X-1150D2*
X14090D1*
X71240D2*
X86480D1*
X-81160Y9139860D2*
X-65905D1*
X-1150D2*
X14090D1*
X71240D2*
X86480D1*
X-81160Y9136050D2*
X-65756D1*
X-1150D2*
X14090D1*
X71240D2*
X86480D1*
X-81160Y9132240D2*
X-65122D1*
X-1150D2*
X14090D1*
X71240D2*
X86480D1*
X-81145Y9128430D2*
X-63575D1*
X-1150D2*
X14090D1*
X71240D2*
X86480D1*
X-81011Y9124620D2*
X-61055D1*
X-1150D2*
X14090D1*
X71240D2*
X86480D1*
X-80511Y9120810D2*
X-57897D1*
X-1150D2*
X14090D1*
X71240D2*
X86480D1*
X-79464Y9117000D2*
X86480D1*
X-77987Y9113190D2*
X86480D1*
X-76246Y9109380D2*
X86480D1*
X-74103Y9105570D2*
X86480D1*
X-71486Y9101760D2*
X86480D1*
X-65325Y9097950D2*
X86480D1*
X-56803Y9094140D2*
X86480D1*
X-46870Y9090330D2*
X86480D1*
X-58300Y9048420D2*
X-31630D1*
X-63869Y9044610D2*
X-25916D1*
X-68758Y9040800D2*
X-20538D1*
X71240D2*
X86480D1*
X-72973Y9036990D2*
X-15395D1*
X71240D2*
X86480D1*
X-76409Y9033180D2*
X-10848D1*
X71240D2*
X86495D1*
X-78906Y9029370D2*
X-7187D1*
X71240D2*
X86629D1*
X-80715Y9025560D2*
X-3978D1*
X71240D2*
X87114D1*
X-82263Y9021750D2*
X-53596D1*
X-43809D2*
X-791D1*
X71255D2*
X88027D1*
X-83513Y9017940D2*
X-59131D1*
X-37771D2*
X2252D1*
X71389D2*
X89004D1*
X-84286Y9014130D2*
X-63155D1*
X-32685D2*
X5000D1*
X71874D2*
X89668D1*
X-84680Y9010320D2*
X-65972D1*
X-28256D2*
X7642D1*
X72787D2*
X90022D1*
X-84856Y9006510D2*
X-67839D1*
X-24193D2*
X10280D1*
X73764D2*
X90183D1*
X-84928Y9002700D2*
X-68878D1*
X-20410D2*
X12801D1*
X74413D2*
X90250D1*
X-84955Y8998890D2*
X-69378D1*
X-17046D2*
X15336D1*
X74633D2*
X90276D1*
X-84965Y8995080D2*
X-69594D1*
X-14149D2*
X17928D1*
X74309D2*
X90270D1*
X-84968Y8991270D2*
X-69680D1*
X-11445D2*
X20446D1*
X73463D2*
X90140D1*
X-84969Y8987460D2*
X-69713D1*
X-8783D2*
X23108D1*
X72497D2*
X89655D1*
X-84970Y8983650D2*
X-69724D1*
X-6254D2*
X26183D1*
X71708D2*
X88743D1*
X-84970Y8979840D2*
X-69728D1*
X-3716D2*
X29628D1*
X70843D2*
X87766D1*
X-84970Y8976030D2*
X-69714D1*
X-1123D2*
X33445D1*
X69442D2*
X87087D1*
X-84955Y8972220D2*
X-69581D1*
X1396D2*
X38109D1*
X67481D2*
X86600D1*
X-84821Y8968410D2*
X-69096D1*
X4058D2*
X44603D1*
X62064D2*
X85938D1*
X-84336Y8964600D2*
X-68183D1*
X7133D2*
X53444D1*
X54084D2*
X84824D1*
X-83423Y8960790D2*
X-67191D1*
X10563D2*
X83321D1*
X-82446Y8956980D2*
X-66393D1*
X14202D2*
X81571D1*
X-81767Y8953170D2*
X-65551D1*
X17957D2*
X79469D1*
X-81268Y8949360D2*
X-64445D1*
X21885D2*
X76607D1*
X-80518Y8945550D2*
X-63242D1*
X26274D2*
X72721D1*
X-79146Y8941740D2*
X-62110D1*
X31383D2*
X68234D1*
X-77350Y8937930D2*
X-73540D1*
X36950D2*
X63620D1*
X-81160Y8831250D2*
X-65920D1*
X71240D2*
X86480D1*
X-81160Y8827440D2*
X-65920D1*
X71240D2*
X86480D1*
X-81160Y8823630D2*
X-65920D1*
X-1150D2*
X14090D1*
X71240D2*
X86480D1*
X-81160Y8819820D2*
X-65920D1*
X-1150D2*
X14090D1*
X71240D2*
X86480D1*
X-81160Y8816010D2*
X-65920D1*
X-1150D2*
X14090D1*
X71240D2*
X86480D1*
X-81160Y8812200D2*
X-65920D1*
X-1150D2*
X14090D1*
X71240D2*
X86480D1*
X-81160Y8808390D2*
X-65920D1*
X-1150D2*
X14090D1*
X71240D2*
X86480D1*
X-81160Y8804580D2*
X-65920D1*
X-1150D2*
X14090D1*
X71240D2*
X86480D1*
X-81160Y8800770D2*
X-65920D1*
X-1150D2*
X14090D1*
X71240D2*
X86480D1*
X-81160Y8796960D2*
X-65920D1*
X-1150D2*
X14090D1*
X71240D2*
X86480D1*
X-81160Y8793150D2*
X-65920D1*
X-1150D2*
X14090D1*
X71240D2*
X86480D1*
X-81160Y8789340D2*
X-65920D1*
X-1150D2*
X14090D1*
X71240D2*
X86480D1*
X-81160Y8785530D2*
X-65920D1*
X-1150D2*
X14090D1*
X71240D2*
X86480D1*
X-81160Y8781720D2*
X-65920D1*
X-1150D2*
X14090D1*
X71240D2*
X86480D1*
X-81160Y8777910D2*
X-65905D1*
X-1150D2*
X14090D1*
X71240D2*
X86480D1*
X-81160Y8774100D2*
X-65756D1*
X-1150D2*
X14090D1*
X71240D2*
X86480D1*
X-81160Y8770290D2*
X-65122D1*
X-1150D2*
X14090D1*
X71240D2*
X86480D1*
X-81145Y8766480D2*
X-63575D1*
X-1150D2*
X14090D1*
X71240D2*
X86480D1*
X-81011Y8762670D2*
X-61055D1*
X-1150D2*
X14090D1*
X71240D2*
X86480D1*
X-80511Y8758860D2*
X-57897D1*
X-1150D2*
X14090D1*
X71240D2*
X86480D1*
X-79464Y8755050D2*
X86480D1*
X-77987Y8751240D2*
X86480D1*
X-76246Y8747430D2*
X86480D1*
X-74103Y8743620D2*
X86480D1*
X-71486Y8739810D2*
X86480D1*
X-65325Y8736000D2*
X86480D1*
X-56803Y8732190D2*
X86480D1*
X-46870Y8728380D2*
X86480D1*
X-81160Y8686470D2*
X-73540D1*
X-81160Y8682660D2*
X-64029D1*
X21710D2*
X48380D1*
X-81160Y8678850D2*
X-54330D1*
X14383D2*
X56995D1*
X-81145Y8675040D2*
X-45031D1*
X8399D2*
X63994D1*
X-80967Y8671230D2*
X-36653D1*
X3615D2*
X69133D1*
X-80520Y8667420D2*
X-29616D1*
X-215D2*
X72761D1*
X-78131Y8663610D2*
X-24080D1*
X-3456D2*
X75461D1*
X-71975Y8659800D2*
X-19284D1*
X-6944D2*
X77689D1*
X-64086Y8655990D2*
X-14207D1*
X-11362D2*
X27781D1*
X43516D2*
X79588D1*
X-55321Y8652180D2*
X17420D1*
X52224D2*
X81044D1*
X-46651Y8648370D2*
X10283D1*
X58510D2*
X81931D1*
X-38879Y8644560D2*
X5678D1*
X63196D2*
X82502D1*
X-32531Y8640750D2*
X2676D1*
X65262D2*
X83180D1*
X-27757Y8636940D2*
X758D1*
X66595D2*
X84171D1*
X-24420Y8633130D2*
X-295D1*
X67660D2*
X85178D1*
X-22150Y8629320D2*
X-798D1*
X68822D2*
X85853D1*
X-20501Y8625510D2*
X-1014D1*
X69897D2*
X86210D1*
X-19036Y8621700D2*
X-1100D1*
X70598D2*
X86373D1*
X-17823Y8617890D2*
X-1133D1*
X70965D2*
X86440D1*
X-17065Y8614080D2*
X-1144D1*
X71131D2*
X86466D1*
X-16677Y8610270D2*
X-1148D1*
X71199D2*
X86475D1*
X-16503Y8606460D2*
X-1149D1*
X71225D2*
X86478D1*
X-16432Y8602650D2*
X-1150D1*
X71235D2*
X86479D1*
X-16405Y8598840D2*
X-1150D1*
X71238D2*
X86480D1*
X-16395Y8595030D2*
X-1150D1*
X71239D2*
X86480D1*
X-16392Y8591220D2*
X-1150D1*
X71240D2*
X86480D1*
X-81160Y8587410D2*
X86480D1*
X-81160Y8583600D2*
X86480D1*
X-81160Y8579790D2*
X86480D1*
X-81160Y8575980D2*
X86480D1*
X-81160Y8572170D2*
X86480D1*
X-81160Y8568360D2*
X86480D1*
X-81160Y8564550D2*
X86480D1*
X-73540Y8511210D2*
X86480D1*
X-75444Y8507400D2*
X86480D1*
X-77026Y8503590D2*
X86480D1*
X-78493Y8499780D2*
X86480D1*
X-79731Y8495970D2*
X86480D1*
X-80629Y8492160D2*
X86480D1*
X-81505Y8488350D2*
X86480D1*
X-82593Y8484540D2*
X86480D1*
X-83641Y8480730D2*
X-66509D1*
X-84333Y8476920D2*
X-67453D1*
X-84696Y8473110D2*
X-68440D1*
X-84861Y8469300D2*
X-69107D1*
X-84929Y8465490D2*
X-69461D1*
X-84956Y8461680D2*
X-69623D1*
X-84965Y8457870D2*
X-69690D1*
X-84968Y8454060D2*
X-69716D1*
X-84969Y8450250D2*
X-69725D1*
X-84970Y8446440D2*
X-69728D1*
X-84970Y8442630D2*
X-69729D1*
X-84970Y8438820D2*
X-69715D1*
X-84970Y8435010D2*
X-69581D1*
X-84955Y8431200D2*
X-69081D1*
X-84821Y8427390D2*
X-68019D1*
X-84336Y8423580D2*
X-66393D1*
X-83408Y8419770D2*
X-64018D1*
X-82297Y8415960D2*
X-60358D1*
X-81133Y8412150D2*
X-54828D1*
X-79718Y8408340D2*
X-47167D1*
X-77945Y8404530D2*
X-37845D1*
X-75667Y8400720D2*
X86480D1*
X-72749Y8396910D2*
X86480D1*
X-69211Y8393100D2*
X86480D1*
X-64676Y8389290D2*
X86480D1*
X-58235Y8385480D2*
X86480D1*
X-49415Y8381670D2*
X86480D1*
X-39250Y8377860D2*
X86480D1*
X71240Y8347380D2*
X86480D1*
X71240Y8343570D2*
X86480D1*
X71240Y8339760D2*
X86480D1*
X71240Y8335950D2*
X86480D1*
X71240Y8332140D2*
X86480D1*
X71240Y8328330D2*
X86480D1*
X71240Y8324520D2*
X86480D1*
X71240Y8320710D2*
X86480D1*
X71240Y8316900D2*
X86480D1*
X71240Y8313090D2*
X86480D1*
X71240Y8309280D2*
X86480D1*
X71240Y8305470D2*
X86480D1*
X71240Y8301660D2*
X86480D1*
X71240Y8297850D2*
X86480D1*
X71240Y8294040D2*
X86480D1*
X-81160Y8290230D2*
X86480D1*
X-81160Y8286420D2*
X86480D1*
X-81160Y8282610D2*
X86480D1*
X-81160Y8278800D2*
X86480D1*
X-81160Y8274990D2*
X86480D1*
X-81160Y8271180D2*
X86480D1*
X-81160Y8267370D2*
X86480D1*
X71240Y8263560D2*
X86480D1*
X71240Y8259750D2*
X86480D1*
X71240Y8255940D2*
X86480D1*
X71240Y8252130D2*
X86480D1*
X71240Y8248320D2*
X86480D1*
X71240Y8244510D2*
X86480D1*
X71240Y8240700D2*
X86480D1*
X71240Y8236890D2*
X86480D1*
X71240Y8233080D2*
X86480D1*
X71240Y8229270D2*
X86480D1*
X71240Y8225460D2*
X86480D1*
X71240Y8221650D2*
X86480D1*
X71240Y8217840D2*
X86480D1*
X71240Y8214030D2*
X86480D1*
X71240Y8210220D2*
X86480D1*
X-58300Y8187360D2*
X-31630D1*
X-63869Y8183550D2*
X-25916D1*
X-68758Y8179740D2*
X-20538D1*
X71240D2*
X86480D1*
X-72973Y8175930D2*
X-15395D1*
X71240D2*
X86480D1*
X-76409Y8172120D2*
X-10848D1*
X71240D2*
X86495D1*
X-78906Y8168310D2*
X-7187D1*
X71240D2*
X86629D1*
X-80715Y8164500D2*
X-3978D1*
X71240D2*
X87114D1*
X-82263Y8160690D2*
X-53596D1*
X-43809D2*
X-791D1*
X71255D2*
X88027D1*
X-83513Y8156880D2*
X-59131D1*
X-37771D2*
X2252D1*
X71389D2*
X89004D1*
X-84286Y8153070D2*
X-63155D1*
X-32685D2*
X5000D1*
X71874D2*
X89668D1*
X-84680Y8149260D2*
X-65972D1*
X-28256D2*
X7642D1*
X72787D2*
X90022D1*
X-84856Y8145450D2*
X-67839D1*
X-24193D2*
X10280D1*
X73764D2*
X90183D1*
X-84928Y8141640D2*
X-68878D1*
X-20410D2*
X12801D1*
X74413D2*
X90250D1*
X-84955Y8137830D2*
X-69378D1*
X-17046D2*
X15336D1*
X74633D2*
X90276D1*
X-84965Y8134020D2*
X-69594D1*
X-14149D2*
X17928D1*
X74309D2*
X90270D1*
X-84968Y8130210D2*
X-69680D1*
X-11445D2*
X20446D1*
X73463D2*
X90140D1*
X-84969Y8126400D2*
X-69713D1*
X-8783D2*
X23108D1*
X72497D2*
X89655D1*
X-84970Y8122590D2*
X-69724D1*
X-6254D2*
X26183D1*
X71708D2*
X88743D1*
X-84970Y8118780D2*
X-69728D1*
X-3716D2*
X29628D1*
X70843D2*
X87766D1*
X-84970Y8114970D2*
X-69714D1*
X-1123D2*
X33445D1*
X69442D2*
X87087D1*
X-84955Y8111160D2*
X-69581D1*
X1396D2*
X38109D1*
X67481D2*
X86600D1*
X-84821Y8107350D2*
X-69096D1*
X4058D2*
X44603D1*
X62064D2*
X85938D1*
X-84336Y8103540D2*
X-68183D1*
X7133D2*
X53444D1*
X54084D2*
X84824D1*
X-83423Y8099730D2*
X-67191D1*
X10563D2*
X83321D1*
X-82446Y8095920D2*
X-66393D1*
X14202D2*
X81571D1*
X-81767Y8092110D2*
X-65551D1*
X17957D2*
X79469D1*
X-81268Y8088300D2*
X-64445D1*
X21885D2*
X76607D1*
X-80518Y8084490D2*
X-63242D1*
X26274D2*
X72721D1*
X-79146Y8080680D2*
X-62110D1*
X31383D2*
X68234D1*
X-77350Y8076870D2*
X-73540D1*
X36950D2*
X63620D1*
X-81160Y8031150D2*
X86480D1*
X-81160Y8027340D2*
X86480D1*
X-81160Y8023530D2*
X86480D1*
X-81160Y8019720D2*
X86480D1*
X-81160Y8015910D2*
X86480D1*
X-81160Y8012100D2*
X86480D1*
X-81160Y8008290D2*
X86480D1*
X-20200Y7962570D2*
X21710D1*
X-34239Y7958760D2*
X35764D1*
X-45638Y7954950D2*
X47297D1*
X-54094Y7951140D2*
X56224D1*
X-60300Y7947330D2*
X63208D1*
X-65183Y7943520D2*
X68598D1*
X-69310Y7939710D2*
X72595D1*
X-72793Y7935900D2*
X75822D1*
X-75621Y7932090D2*
X-34531D1*
X36186D2*
X78692D1*
X-77976Y7928280D2*
X-43742D1*
X45871D2*
X81177D1*
X-80067Y7924470D2*
X-51076D1*
X53998D2*
X83247D1*
X-81915Y7920660D2*
X-56657D1*
X60190D2*
X84791D1*
X-83353Y7916850D2*
X-60856D1*
X64493D2*
X85717D1*
X-84220Y7913040D2*
X-63979D1*
X67420D2*
X86303D1*
X-84654Y7909230D2*
X-66325D1*
X69342D2*
X86987D1*
X-84846Y7905420D2*
X-67978D1*
X70530D2*
X87980D1*
X-84924Y7901610D2*
X-68930D1*
X71520D2*
X88987D1*
X-84954Y7897800D2*
X-69397D1*
X72635D2*
X89663D1*
X-84964Y7893990D2*
X-69600D1*
X73565D2*
X90020D1*
X-84968Y7890180D2*
X-69682D1*
X73776D2*
X90183D1*
X-84969Y7886370D2*
X-69698D1*
X73229D2*
X90235D1*
X-84970Y7882560D2*
X-69575D1*
X72403D2*
X90127D1*
X-84970Y7878750D2*
X-69079D1*
X71672D2*
X89651D1*
X-84955Y7874940D2*
X-68019D1*
X70845D2*
X88741D1*
X-84821Y7871130D2*
X-66408D1*
X69631D2*
X87751D1*
X-84321Y7867320D2*
X-64197D1*
X67942D2*
X86953D1*
X-83274Y7863510D2*
X-61290D1*
X65542D2*
X86099D1*
X-81797Y7859700D2*
X-57568D1*
X61813D2*
X84891D1*
X-80086Y7855890D2*
X-51872D1*
X55609D2*
X83347D1*
X-78255Y7852080D2*
X-41157D1*
X44670D2*
X81595D1*
X-76353Y7848270D2*
X-21727D1*
X26156D2*
X79622D1*
X-74188Y7844460D2*
X7084D1*
X-571D2*
X77230D1*
X-71289Y7840650D2*
X74151D1*
X-67274Y7836840D2*
X70260D1*
X-62254Y7833030D2*
X65417D1*
X-56134Y7829220D2*
X59296D1*
X-48350Y7825410D2*
X51193D1*
X-38638Y7821600D2*
X40845D1*
X-27820Y7817790D2*
X29330D1*
X-81160Y7772070D2*
X86480D1*
X-81160Y7768260D2*
X86480D1*
X-81160Y7764450D2*
X86480D1*
X-81160Y7760640D2*
X86480D1*
X-81160Y7756830D2*
X86450D1*
X-81160Y7753020D2*
X86167D1*
X-81160Y7749210D2*
X85498D1*
X47776Y7745400D2*
X82556D1*
X42888Y7741590D2*
X78467D1*
X37591Y7737780D2*
X73546D1*
X32067Y7733970D2*
X68184D1*
X26426Y7730160D2*
X62726D1*
X20743Y7726350D2*
X57424D1*
X15035Y7722540D2*
X52276D1*
X9327Y7718730D2*
X46995D1*
X3610Y7714920D2*
X41519D1*
X-2116Y7711110D2*
X35921D1*
X-7938Y7707300D2*
X30251D1*
X-13853Y7703490D2*
X24558D1*
X-19349Y7699680D2*
X18847D1*
X-24064Y7695870D2*
X13153D1*
X-25980Y7692060D2*
X7592D1*
X-27030Y7688250D2*
X2568D1*
X-27494Y7684440D2*
X-1526D1*
X-27541Y7680630D2*
X-4960D1*
X-26966Y7676820D2*
X1212D1*
X-25767Y7673010D2*
X7195D1*
X-22411Y7669200D2*
X13046D1*
X-18094Y7665390D2*
X18815D1*
X-13055Y7661580D2*
X24556D1*
X-7636Y7657770D2*
X30276D1*
X-2034Y7653960D2*
X35997D1*
X3634Y7650150D2*
X41710D1*
X9337Y7646340D2*
X47429D1*
X15044Y7642530D2*
X53141D1*
X20760Y7638720D2*
X58859D1*
X26471Y7634910D2*
X64571D1*
X32174Y7631100D2*
X70259D1*
X37753Y7627290D2*
X75688D1*
X42981Y7623480D2*
X80272D1*
X47711Y7619670D2*
X83913D1*
X-81160Y7615860D2*
X85238D1*
X-81160Y7612050D2*
X85953D1*
X-81160Y7608240D2*
X86274D1*
X-81160Y7604430D2*
X86404D1*
X-81160Y7600620D2*
X86453D1*
X-81160Y7596810D2*
X86471D1*
X-81160Y7593000D2*
X86480D1*
X-81160Y7486320D2*
X-65920D1*
X-81160Y7482510D2*
X-65920D1*
X-81160Y7478700D2*
X-65920D1*
X-81160Y7474890D2*
X-65920D1*
X-81160Y7471080D2*
X-65920D1*
X-81160Y7467270D2*
X-65920D1*
X-81160Y7463460D2*
X-65920D1*
X-81160Y7459650D2*
X-65920D1*
X-81160Y7455840D2*
X-65920D1*
X-81160Y7452030D2*
X-65920D1*
X-81160Y7448220D2*
X-65920D1*
X-81160Y7444410D2*
X-65920D1*
X-81160Y7440600D2*
X-65920D1*
X-81160Y7436790D2*
X-65920D1*
X-81160Y7432980D2*
X-65920D1*
X-81160Y7429170D2*
X-65920D1*
X-81160Y7425360D2*
X-65920D1*
X-81160Y7421550D2*
X-65920D1*
X-81160Y7417740D2*
X-65920D1*
X-81160Y7413930D2*
X86480D1*
X-81160Y7410120D2*
X86480D1*
X-81160Y7406310D2*
X86480D1*
X-81160Y7402500D2*
X86480D1*
X-81160Y7398690D2*
X86480D1*
X-81160Y7394880D2*
X86480D1*
X-81160Y7391070D2*
X86480D1*
X-81160Y7333920D2*
X86480D1*
X-81160Y7330110D2*
X86480D1*
X-81160Y7326300D2*
X86480D1*
X-81160Y7322490D2*
X86480D1*
X-81160Y7318680D2*
X86480D1*
X-81160Y7314870D2*
X86480D1*
X-81160Y7311060D2*
X86480D1*
X-20200Y7265340D2*
X21710D1*
X-34239Y7261530D2*
X35764D1*
X-45638Y7257720D2*
X47297D1*
X-54094Y7253910D2*
X56224D1*
X-60300Y7250100D2*
X63208D1*
X-65183Y7246290D2*
X68598D1*
X-69310Y7242480D2*
X72595D1*
X-72793Y7238670D2*
X75822D1*
X-75621Y7234860D2*
X-34531D1*
X36186D2*
X78692D1*
X-77976Y7231050D2*
X-43742D1*
X45871D2*
X81177D1*
X-80067Y7227240D2*
X-51076D1*
X53998D2*
X83247D1*
X-81915Y7223430D2*
X-56657D1*
X60190D2*
X84791D1*
X-83353Y7219620D2*
X-60856D1*
X64493D2*
X85717D1*
X-84220Y7215810D2*
X-63979D1*
X67420D2*
X86303D1*
X-84654Y7212000D2*
X-66325D1*
X69342D2*
X86987D1*
X-84846Y7208190D2*
X-67978D1*
X70530D2*
X87980D1*
X-84924Y7204380D2*
X-68930D1*
X71520D2*
X88987D1*
X-84954Y7200570D2*
X-69397D1*
X72635D2*
X89663D1*
X-84964Y7196760D2*
X-69600D1*
X73565D2*
X90020D1*
X-84968Y7192950D2*
X-69682D1*
X73776D2*
X90183D1*
X-84969Y7189140D2*
X-69698D1*
X73229D2*
X90235D1*
X-84970Y7185330D2*
X-69575D1*
X72403D2*
X90127D1*
X-84970Y7181520D2*
X-69079D1*
X71672D2*
X89651D1*
X-84955Y7177710D2*
X-68019D1*
X70845D2*
X88741D1*
X-84821Y7173900D2*
X-66408D1*
X69631D2*
X87751D1*
X-84321Y7170090D2*
X-64197D1*
X67942D2*
X86953D1*
X-83274Y7166280D2*
X-61290D1*
X65542D2*
X86099D1*
X-81797Y7162470D2*
X-57568D1*
X61813D2*
X84891D1*
X-80086Y7158660D2*
X-51872D1*
X55609D2*
X83347D1*
X-78255Y7154850D2*
X-41157D1*
X44670D2*
X81595D1*
X-76353Y7151040D2*
X-21727D1*
X26156D2*
X79622D1*
X-74188Y7147230D2*
X7084D1*
X-571D2*
X77230D1*
X-71289Y7143420D2*
X74151D1*
X-67274Y7139610D2*
X70260D1*
X-62254Y7135800D2*
X65417D1*
X-56134Y7131990D2*
X59296D1*
X-48350Y7128180D2*
X51193D1*
X-38638Y7124370D2*
X40845D1*
X-27820Y7120560D2*
X29330D1*
X-58300Y7086270D2*
X-31630D1*
X-63869Y7082460D2*
X-25916D1*
X-68758Y7078650D2*
X-20538D1*
X71240D2*
X86480D1*
X-72973Y7074840D2*
X-15395D1*
X71240D2*
X86480D1*
X-76409Y7071030D2*
X-10848D1*
X71240D2*
X86495D1*
X-78906Y7067220D2*
X-7187D1*
X71240D2*
X86629D1*
X-80715Y7063410D2*
X-3978D1*
X71240D2*
X87114D1*
X-82263Y7059600D2*
X-53596D1*
X-43809D2*
X-791D1*
X71255D2*
X88027D1*
X-83513Y7055790D2*
X-59131D1*
X-37771D2*
X2252D1*
X71389D2*
X89004D1*
X-84286Y7051980D2*
X-63155D1*
X-32685D2*
X5000D1*
X71874D2*
X89668D1*
X-84680Y7048170D2*
X-65972D1*
X-28256D2*
X7642D1*
X72787D2*
X90022D1*
X-84856Y7044360D2*
X-67839D1*
X-24193D2*
X10280D1*
X73764D2*
X90183D1*
X-84928Y7040550D2*
X-68878D1*
X-20410D2*
X12801D1*
X74413D2*
X90250D1*
X-84955Y7036740D2*
X-69378D1*
X-17046D2*
X15336D1*
X74633D2*
X90276D1*
X-84965Y7032930D2*
X-69594D1*
X-14149D2*
X17928D1*
X74309D2*
X90270D1*
X-84968Y7029120D2*
X-69680D1*
X-11445D2*
X20446D1*
X73463D2*
X90140D1*
X-84969Y7025310D2*
X-69713D1*
X-8783D2*
X23108D1*
X72497D2*
X89655D1*
X-84970Y7021500D2*
X-69724D1*
X-6254D2*
X26183D1*
X71708D2*
X88743D1*
X-84970Y7017690D2*
X-69728D1*
X-3716D2*
X29628D1*
X70843D2*
X87766D1*
X-84970Y7013880D2*
X-69714D1*
X-1123D2*
X33445D1*
X69442D2*
X87087D1*
X-84955Y7010070D2*
X-69581D1*
X1396D2*
X38109D1*
X67481D2*
X86600D1*
X-84821Y7006260D2*
X-69096D1*
X4058D2*
X44603D1*
X62064D2*
X85938D1*
X-84336Y7002450D2*
X-68183D1*
X7133D2*
X53444D1*
X54084D2*
X84824D1*
X-83423Y6998640D2*
X-67191D1*
X10563D2*
X83321D1*
X-82446Y6994830D2*
X-66393D1*
X14202D2*
X81571D1*
X-81767Y6991020D2*
X-65551D1*
X17957D2*
X79469D1*
X-81268Y6987210D2*
X-64445D1*
X21885D2*
X76607D1*
X-80518Y6983400D2*
X-63242D1*
X26274D2*
X72721D1*
X-79146Y6979590D2*
X-62110D1*
X31383D2*
X68234D1*
X-77350Y6975780D2*
X-73540D1*
X36950D2*
X63620D1*
X-81160Y6869100D2*
X-65920D1*
X71240D2*
X86480D1*
X-81160Y6865290D2*
X-65920D1*
X71240D2*
X86480D1*
X-81160Y6861480D2*
X-65920D1*
X-1150D2*
X14090D1*
X71240D2*
X86480D1*
X-81160Y6857670D2*
X-65920D1*
X-1150D2*
X14090D1*
X71240D2*
X86480D1*
X-81160Y6853860D2*
X-65920D1*
X-1150D2*
X14090D1*
X71240D2*
X86480D1*
X-81160Y6850050D2*
X-65920D1*
X-1150D2*
X14090D1*
X71240D2*
X86480D1*
X-81160Y6846240D2*
X-65920D1*
X-1150D2*
X14090D1*
X71240D2*
X86480D1*
X-81160Y6842430D2*
X-65920D1*
X-1150D2*
X14090D1*
X71240D2*
X86480D1*
X-81160Y6838620D2*
X-65920D1*
X-1150D2*
X14090D1*
X71240D2*
X86480D1*
X-81160Y6834810D2*
X-65920D1*
X-1150D2*
X14090D1*
X71240D2*
X86480D1*
X-81160Y6831000D2*
X-65920D1*
X-1150D2*
X14090D1*
X71240D2*
X86480D1*
X-81160Y6827190D2*
X-65920D1*
X-1150D2*
X14090D1*
X71240D2*
X86480D1*
X-81160Y6823380D2*
X-65920D1*
X-1150D2*
X14090D1*
X71240D2*
X86480D1*
X-81160Y6819570D2*
X-65920D1*
X-1150D2*
X14090D1*
X71240D2*
X86480D1*
X-81160Y6815760D2*
X-65905D1*
X-1150D2*
X14090D1*
X71240D2*
X86480D1*
X-81160Y6811950D2*
X-65756D1*
X-1150D2*
X14090D1*
X71240D2*
X86480D1*
X-81160Y6808140D2*
X-65122D1*
X-1150D2*
X14090D1*
X71240D2*
X86480D1*
X-81145Y6804330D2*
X-63575D1*
X-1150D2*
X14090D1*
X71240D2*
X86480D1*
X-81011Y6800520D2*
X-61055D1*
X-1150D2*
X14090D1*
X71240D2*
X86480D1*
X-80511Y6796710D2*
X-57897D1*
X-1150D2*
X14090D1*
X71240D2*
X86480D1*
X-79464Y6792900D2*
X86480D1*
X-77987Y6789090D2*
X86480D1*
X-76246Y6785280D2*
X86480D1*
X-74103Y6781470D2*
X86480D1*
X-71486Y6777660D2*
X86480D1*
X-65325Y6773850D2*
X86480D1*
X-56803Y6770040D2*
X86480D1*
X-46870Y6766230D2*
X86480D1*
X75050Y6739560D2*
X86480D1*
X58800Y6735750D2*
X86480D1*
X44062Y6731940D2*
X86480D1*
X30937Y6728130D2*
X86420D1*
X19143Y6724320D2*
X86242D1*
X8407Y6720510D2*
X84337D1*
X-1556Y6716700D2*
X76780D1*
X-10843Y6712890D2*
X65697D1*
X-19549Y6709080D2*
X52545D1*
X-28121Y6705270D2*
X39262D1*
X-36857Y6701460D2*
X26751D1*
X-45536Y6697650D2*
X15197D1*
X-53837Y6693840D2*
X4550D1*
X-61657Y6690030D2*
X-5397D1*
X-68659Y6686220D2*
X-14792D1*
X-74166Y6682410D2*
X-23846D1*
X-78368Y6678600D2*
X-32845D1*
X-79816Y6674790D2*
X-41655D1*
X-80592Y6670980D2*
X-50081D1*
X-80939Y6667170D2*
X-58300D1*
X-81064Y6663360D2*
X-48172D1*
X-80938Y6659550D2*
X-37891D1*
X-80516Y6655740D2*
X-27318D1*
X-78190Y6651930D2*
X-16746D1*
X-72456Y6648120D2*
X-6412D1*
X-65113Y6644310D2*
X3838D1*
X-56619Y6640500D2*
X14092D1*
X-47415Y6636690D2*
X24232D1*
X-37700Y6632880D2*
X34386D1*
X-27675Y6629070D2*
X44598D1*
X-17626Y6625260D2*
X54691D1*
X-7506Y6621450D2*
X64527D1*
X2694Y6617640D2*
X73319D1*
X12813Y6613830D2*
X80719D1*
X22960Y6610020D2*
X84156D1*
X33169Y6606210D2*
X85396D1*
X43292Y6602400D2*
X86036D1*
X53428Y6598590D2*
X86312D1*
X63532Y6594780D2*
X86420D1*
X73258Y6590970D2*
X86460D1*
X82670Y6587160D2*
X86480D1*
X-81160Y6556680D2*
X86480D1*
X-81160Y6552870D2*
X86480D1*
X-81160Y6549060D2*
X86480D1*
X-81160Y6545250D2*
X86480D1*
X-81160Y6541440D2*
X86480D1*
X-81160Y6537630D2*
X86480D1*
X-81160Y6533820D2*
X86480D1*
X71240Y6499530D2*
X86480D1*
X71240Y6495720D2*
X86480D1*
X71240Y6491910D2*
X86480D1*
X71240Y6488100D2*
X86480D1*
X71240Y6484290D2*
X86480D1*
X71240Y6480480D2*
X86480D1*
X71240Y6476670D2*
X86480D1*
X71240Y6472860D2*
X86480D1*
X71240Y6469050D2*
X86480D1*
X71240Y6465240D2*
X86480D1*
X71240Y6461430D2*
X86480D1*
X71240Y6457620D2*
X86480D1*
X71240Y6453810D2*
X86480D1*
X71240Y6450000D2*
X86480D1*
X71240Y6446190D2*
X86480D1*
X-81160Y6442380D2*
X86480D1*
X-81160Y6438570D2*
X86480D1*
X-81160Y6434760D2*
X86480D1*
X-81160Y6430950D2*
X86480D1*
X-81160Y6427140D2*
X86480D1*
X-81160Y6423330D2*
X86480D1*
X-81160Y6419520D2*
X86480D1*
X71240Y6415710D2*
X86480D1*
X71240Y6411900D2*
X86480D1*
X71240Y6408090D2*
X86480D1*
X71240Y6404280D2*
X86480D1*
X71240Y6400470D2*
X86480D1*
X71240Y6396660D2*
X86480D1*
X71240Y6392850D2*
X86480D1*
X71240Y6389040D2*
X86480D1*
X71240Y6385230D2*
X86480D1*
X71240Y6381420D2*
X86480D1*
X71240Y6377610D2*
X86480D1*
X71240Y6373800D2*
X86480D1*
X71240Y6369990D2*
X86480D1*
X71240Y6366180D2*
X86480D1*
X71240Y6362370D2*
X86480D1*
X-81160Y6328080D2*
X86480D1*
X-81160Y6324270D2*
X86480D1*
X-81160Y6320460D2*
X86480D1*
X-81160Y6316650D2*
X86480D1*
X-81160Y6312840D2*
X86480D1*
X-81160Y6309030D2*
X86480D1*
X-81160Y6305220D2*
X86480D1*
X-81160Y6263310D2*
X-69730D1*
X82670D2*
X86480D1*
X-82462Y6259500D2*
X-68116D1*
X67430D2*
X86480D1*
X-83596Y6255690D2*
X-67130D1*
X69189D2*
X86495D1*
X-84319Y6251880D2*
X-67775D1*
X70283D2*
X86629D1*
X-84692Y6248070D2*
X-68578D1*
X70837D2*
X87114D1*
X-84860Y6244260D2*
X-69161D1*
X71097D2*
X88027D1*
X-84929Y6240450D2*
X-69481D1*
X71331D2*
X89004D1*
X-84955Y6236640D2*
X-69630D1*
X71854D2*
X89668D1*
X-84965Y6232830D2*
X-69692D1*
X72780D2*
X90022D1*
X-84968Y6229020D2*
X-69716D1*
X73761D2*
X90183D1*
X-84969Y6225210D2*
X-69725D1*
X74413D2*
X90250D1*
X-84970Y6221400D2*
X-69728D1*
X74632D2*
X90276D1*
X-84970Y6217590D2*
X-69729D1*
X74309D2*
X90270D1*
X-84970Y6213780D2*
X-69715D1*
X73463D2*
X90140D1*
X-84970Y6209970D2*
X-69581D1*
X72497D2*
X89655D1*
X-84955Y6206160D2*
X-69081D1*
X71708D2*
X88743D1*
X-84821Y6202350D2*
X-68019D1*
X70858D2*
X87766D1*
X-84336Y6198540D2*
X-66408D1*
X69636D2*
X87087D1*
X-83408Y6194730D2*
X-64197D1*
X67943D2*
X86600D1*
X-82297Y6190920D2*
X-61290D1*
X65542D2*
X85938D1*
X-81133Y6187110D2*
X-57568D1*
X61813D2*
X84824D1*
X-79718Y6183300D2*
X-51872D1*
X55609D2*
X83321D1*
X-77960Y6179490D2*
X-41157D1*
X44670D2*
X81586D1*
X-75801Y6175680D2*
X-21727D1*
X26156D2*
X79618D1*
X-73250Y6171870D2*
X7084D1*
X-571D2*
X77244D1*
X-70302Y6168060D2*
X74285D1*
X-66606Y6164250D2*
X70746D1*
X-61900Y6160440D2*
X66330D1*
X-55972Y6156630D2*
X60272D1*
X-48283Y6152820D2*
X51850D1*
X-38614Y6149010D2*
X41153D1*
X-27820Y6145200D2*
X29330D1*
X-81160Y6103290D2*
X52190D1*
X-81160Y6099480D2*
X59061D1*
X-81160Y6095670D2*
X65099D1*
X-81160Y6091860D2*
X70171D1*
X-81160Y6088050D2*
X74451D1*
X-81160Y6084240D2*
X77909D1*
X-81160Y6080430D2*
X80412D1*
X-16390Y6076620D2*
X-1150D1*
X46868D2*
X82224D1*
X-16390Y6072810D2*
X-1150D1*
X55000D2*
X83773D1*
X-16390Y6069000D2*
X-1150D1*
X60862D2*
X85038D1*
X-16390Y6065190D2*
X-1150D1*
X64848D2*
X85945D1*
X-16390Y6061380D2*
X-1150D1*
X67597D2*
X86824D1*
X-16390Y6057570D2*
X-1150D1*
X69543D2*
X87913D1*
X-16390Y6053760D2*
X-1150D1*
X71041D2*
X88961D1*
X-16390Y6049950D2*
X-1150D1*
X72442D2*
X89653D1*
X-16390Y6046140D2*
X-1150D1*
X73616D2*
X90016D1*
X-16390Y6042330D2*
X-1150D1*
X74230D2*
X90181D1*
X-16390Y6038520D2*
X-1150D1*
X74130D2*
X90235D1*
X-16390Y6034710D2*
X-1150D1*
X73376D2*
X90127D1*
X-16390Y6030900D2*
X-1150D1*
X72335D2*
X89651D1*
X-16390Y6027090D2*
X-1150D1*
X71198D2*
X88741D1*
X-16390Y6023280D2*
X-1150D1*
X69793D2*
X87751D1*
X-16390Y6019470D2*
X-1150D1*
X67994D2*
X86953D1*
X-16390Y6015660D2*
X-1150D1*
X65419D2*
X86114D1*
X-16390Y6011850D2*
X-1150D1*
X61250D2*
X85025D1*
X-16390Y6008040D2*
X-1150D1*
X54825D2*
X83833D1*
X-16390Y6004230D2*
X-1150D1*
X46347D2*
X82508D1*
X-81160Y6000420D2*
X80598D1*
X-81160Y5996610D2*
X77895D1*
X-81160Y5992800D2*
X74475D1*
X-81160Y5988990D2*
X70129D1*
X-81160Y5985180D2*
X64294D1*
X-81160Y5981370D2*
X56783D1*
X-81160Y5977560D2*
X48380D1*
X17900Y5935650D2*
X48380D1*
X9270Y5931840D2*
X56995D1*
X2152Y5928030D2*
X63994D1*
X-3353Y5924220D2*
X69133D1*
X-7527Y5920410D2*
X72761D1*
X-10658Y5916600D2*
X75461D1*
X-13135Y5912790D2*
X77689D1*
X-15273Y5908980D2*
X22634D1*
X43072D2*
X79588D1*
X-17137Y5905170D2*
X13557D1*
X51324D2*
X81044D1*
X-18580Y5901360D2*
X6709D1*
X57537D2*
X81931D1*
X-19449Y5897550D2*
X2055D1*
X61950D2*
X82502D1*
X-19884Y5893740D2*
X-1033D1*
X65240D2*
X83180D1*
X-20076Y5889930D2*
X-3007D1*
X66516D2*
X84171D1*
X-20154Y5886120D2*
X-4086D1*
X67614D2*
X85178D1*
X-20184Y5882310D2*
X-4601D1*
X68801D2*
X85853D1*
X-20194Y5878500D2*
X-4822D1*
X69889D2*
X86210D1*
X-20198Y5874690D2*
X-4909D1*
X70596D2*
X86373D1*
X-20199Y5870880D2*
X-4942D1*
X70964D2*
X86440D1*
X-20200Y5867070D2*
X-4954D1*
X71131D2*
X86466D1*
X-20200Y5863260D2*
X-4958D1*
X71199D2*
X86475D1*
X-20200Y5859450D2*
X-4959D1*
X71225D2*
X86478D1*
X-20200Y5855640D2*
X-4960D1*
X71235D2*
X86479D1*
X-20200Y5851830D2*
X-4960D1*
X71238D2*
X86480D1*
X-20200Y5848020D2*
X-4960D1*
X71239D2*
X86480D1*
X-20200Y5844210D2*
X-4960D1*
X71240D2*
X86480D1*
X-81160Y5840400D2*
X86480D1*
X-81160Y5836590D2*
X86480D1*
X-81160Y5832780D2*
X86480D1*
X-81160Y5828970D2*
X86480D1*
X-81160Y5825160D2*
X86480D1*
X-81160Y5821350D2*
X86480D1*
X-81160Y5817540D2*
X86480D1*
X-81160Y5764200D2*
X52190D1*
X-81160Y5760390D2*
X59061D1*
X-81160Y5756580D2*
X65099D1*
X-81160Y5752770D2*
X70171D1*
X-81160Y5748960D2*
X74451D1*
X-81160Y5745150D2*
X77909D1*
X-81160Y5741340D2*
X80412D1*
X-16390Y5737530D2*
X-1150D1*
X46868D2*
X82224D1*
X-16390Y5733720D2*
X-1150D1*
X55000D2*
X83773D1*
X-16390Y5729910D2*
X-1150D1*
X60862D2*
X85038D1*
X-16390Y5726100D2*
X-1150D1*
X64848D2*
X85945D1*
X-16390Y5722290D2*
X-1150D1*
X67597D2*
X86824D1*
X-16390Y5718480D2*
X-1150D1*
X69543D2*
X87913D1*
X-16390Y5714670D2*
X-1150D1*
X71041D2*
X88961D1*
X-16390Y5710860D2*
X-1150D1*
X72442D2*
X89653D1*
X-16390Y5707050D2*
X-1150D1*
X73616D2*
X90016D1*
X-16390Y5703240D2*
X-1150D1*
X74230D2*
X90181D1*
X-16390Y5699430D2*
X-1150D1*
X74130D2*
X90235D1*
X-16390Y5695620D2*
X-1150D1*
X73376D2*
X90127D1*
X-16390Y5691810D2*
X-1150D1*
X72335D2*
X89651D1*
X-16390Y5688000D2*
X-1150D1*
X71198D2*
X88741D1*
X-16390Y5684190D2*
X-1150D1*
X69793D2*
X87751D1*
X-16390Y5680380D2*
X-1150D1*
X67994D2*
X86953D1*
X-16390Y5676570D2*
X-1150D1*
X65419D2*
X86114D1*
X-16390Y5672760D2*
X-1150D1*
X61250D2*
X85025D1*
X-16390Y5668950D2*
X-1150D1*
X54825D2*
X83833D1*
X-16390Y5665140D2*
X-1150D1*
X46347D2*
X82508D1*
X-81160Y5661330D2*
X80598D1*
X-81160Y5657520D2*
X77895D1*
X-81160Y5653710D2*
X74475D1*
X-81160Y5649900D2*
X70129D1*
X-81160Y5646090D2*
X64294D1*
X-81160Y5642280D2*
X56783D1*
X-81160Y5638470D2*
X48380D1*
X-81160Y5600370D2*
X-69730D1*
X82670D2*
X86480D1*
X-82462Y5596560D2*
X-68116D1*
X67430D2*
X86480D1*
X-83596Y5592750D2*
X-67130D1*
X69189D2*
X86495D1*
X-84319Y5588940D2*
X-67775D1*
X70283D2*
X86629D1*
X-84692Y5585130D2*
X-68578D1*
X70837D2*
X87114D1*
X-84860Y5581320D2*
X-69161D1*
X71097D2*
X88027D1*
X-84929Y5577510D2*
X-69481D1*
X71331D2*
X89004D1*
X-84955Y5573700D2*
X-69630D1*
X71854D2*
X89668D1*
X-84965Y5569890D2*
X-69692D1*
X72780D2*
X90022D1*
X-84968Y5566080D2*
X-69716D1*
X73761D2*
X90183D1*
X-84969Y5562270D2*
X-69725D1*
X74413D2*
X90250D1*
X-84970Y5558460D2*
X-69728D1*
X74632D2*
X90276D1*
X-84970Y5554650D2*
X-69729D1*
X74309D2*
X90270D1*
X-84970Y5550840D2*
X-69715D1*
X73463D2*
X90140D1*
X-84970Y5547030D2*
X-69581D1*
X72497D2*
X89655D1*
X-84955Y5543220D2*
X-69081D1*
X71708D2*
X88743D1*
X-84821Y5539410D2*
X-68019D1*
X70858D2*
X87766D1*
X-84336Y5535600D2*
X-66408D1*
X69636D2*
X87087D1*
X-83408Y5531790D2*
X-64197D1*
X67943D2*
X86600D1*
X-82297Y5527980D2*
X-61290D1*
X65542D2*
X85938D1*
X-81133Y5524170D2*
X-57568D1*
X61813D2*
X84824D1*
X-79718Y5520360D2*
X-51872D1*
X55609D2*
X83321D1*
X-77960Y5516550D2*
X-41157D1*
X44670D2*
X81586D1*
X-75801Y5512740D2*
X-21727D1*
X26156D2*
X79618D1*
X-73250Y5508930D2*
X7084D1*
X-571D2*
X77244D1*
X-70302Y5505120D2*
X74285D1*
X-66610Y5501310D2*
X70764D1*
X-61972Y5497500D2*
X66558D1*
X-56541Y5493690D2*
X61526D1*
X-50680Y5489880D2*
X56000D1*
X-189243Y4606043D2*
X199377D1*
X-192791Y4598423D2*
X203184D1*
X-195247Y4590803D2*
X206349D1*
X-197326Y4583183D2*
X209283D1*
X-199642Y4575563D2*
X211758D1*
X-201794Y4567943D2*
X213554D1*
X-203228Y4560323D2*
X-157266D1*
X176546D2*
X215307D1*
X-204230Y4552703D2*
X-161722D1*
X176814D2*
X217483D1*
X-205534Y4545083D2*
X-164304D1*
X177785D2*
X219579D1*
X-207496Y4537463D2*
X-165809D1*
X179610D2*
X220993D1*
X-209532Y4529843D2*
X-167316D1*
X181564D2*
X221987D1*
X-211147Y4522223D2*
X-169354D1*
X182923D2*
X223288D1*
X-212832Y4514603D2*
X-171388D1*
X183897D2*
X225249D1*
X-214982Y4506983D2*
X-172775D1*
X185192D2*
X227285D1*
X-217070Y4499363D2*
X-173759D1*
X187150D2*
X228901D1*
X-218481Y4491743D2*
X-175057D1*
X189185D2*
X230585D1*
X-219474Y4484123D2*
X-177017D1*
X190801D2*
X232736D1*
X-220775Y4476503D2*
X-179052D1*
X192485D2*
X234854D1*
X-222736Y4468883D2*
X-180668D1*
X194636D2*
X236502D1*
X-224772Y4461263D2*
X-182352D1*
X196754D2*
X238199D1*
X-226388Y4453643D2*
X-184502D1*
X198402D2*
X240353D1*
X-228072Y4446023D2*
X-186620D1*
X200099D2*
X242443D1*
X-230222Y4438403D2*
X-188269D1*
X202253D2*
X243854D1*
X-232310Y4430783D2*
X-189965D1*
X204343D2*
X244847D1*
X-233721Y4423163D2*
X-192120D1*
X205754D2*
X246148D1*
X-234714Y4415543D2*
X-194210D1*
X206747D2*
X248109D1*
X-236015Y4407923D2*
X-195621D1*
X208048D2*
X250115D1*
X-237976Y4400303D2*
X-196614D1*
X210009D2*
X251493D1*
X-240012Y4392683D2*
X-197915D1*
X212015D2*
X252474D1*
X-241628Y4385063D2*
X-199876D1*
X213393D2*
X253771D1*
X-243312Y4377443D2*
X-201882D1*
X214374D2*
X255730D1*
X-245462Y4369823D2*
X-203260D1*
X215671D2*
X257735D1*
X-247699Y4362203D2*
X-204271D1*
X217630D2*
X259083D1*
X-250449Y4354583D2*
X-205863D1*
X219636D2*
X259798D1*
X-254547Y4346963D2*
X-209064D1*
X220989D2*
X260137D1*
X-266286Y4339343D2*
X-213990D1*
X221742D2*
X260337D1*
X-278344Y4331723D2*
X280529D1*
X-288487Y4324103D2*
X296100D1*
X-292331Y4316483D2*
X302228D1*
X-294401Y4308863D2*
X304300D1*
X-295330Y4301243D2*
X305348D1*
X-295705Y4293623D2*
X305792D1*
X-295847Y4286003D2*
X-257823D1*
X267957D2*
X305963D1*
X-295897Y4278383D2*
X-257823D1*
X267957D2*
X306025D1*
X-295915Y4270763D2*
X-257823D1*
X267957D2*
X306046D1*
X-295921Y4263143D2*
X-257823D1*
X267957D2*
X306053D1*
X-295922Y4255523D2*
X-257823D1*
X267957D2*
X306056D1*
X-295923Y4247903D2*
X-257823D1*
X267957D2*
X306056D1*
X-295923Y4240283D2*
X-257823D1*
X267957D2*
X306057D1*
X-295923Y4232663D2*
X-257823D1*
X267957D2*
X306057D1*
X-295923Y4225043D2*
X-257823D1*
X267957D2*
X306057D1*
X-295923Y4217423D2*
X-257823D1*
X267957D2*
X306057D1*
X-295923Y4209803D2*
X306057D1*
X-295864Y4202183D2*
X305997D1*
X-295283Y4194563D2*
X305417D1*
X-293899Y4186943D2*
X304033D1*
X-287961Y4179323D2*
X298094D1*
X-280683Y4171703D2*
X290817D1*
X-13983Y4164083D2*
X24117D1*
X-14013Y4156463D2*
X24117D1*
X-14281Y4148843D2*
X24117D1*
X-15282Y4141223D2*
X24117D1*
X-17375Y4133603D2*
X24117D1*
X-20329Y4125983D2*
X24117D1*
X-23751Y4118363D2*
X24146D1*
X-242583Y4110743D2*
X-135903D1*
X-27412D2*
X24414D1*
X-264568Y4103123D2*
X-115446D1*
X-31187D2*
X25385D1*
X-283179Y4095503D2*
X-100297D1*
X-35250D2*
X27240D1*
X-298509Y4087883D2*
X-89368D1*
X-40047D2*
X29462D1*
X-311509Y4080263D2*
X-86178D1*
X-45954D2*
X31762D1*
X-322724Y4072643D2*
X-87450D1*
X-52712D2*
X34323D1*
X-332360Y4065023D2*
X-240796D1*
X-135903D2*
X-92304D1*
X-59979D2*
X36868D1*
X-340955Y4057403D2*
X-259486D1*
X-113043D2*
X-97803D1*
X-67712D2*
X39332D1*
X161277D2*
X206997D1*
X-348967Y4049783D2*
X-275153D1*
X-76274D2*
X42212D1*
X132872D2*
X235364D1*
X-356488Y4042163D2*
X-288408D1*
X-85966D2*
X-21283D1*
X2464D2*
X45747D1*
X113425D2*
X259140D1*
X-363200Y4034543D2*
X-299761D1*
X-96533D2*
X-27629D1*
X4621D2*
X50042D1*
X100141D2*
X277908D1*
X-368988Y4026923D2*
X-309460D1*
X-107602D2*
X-32154D1*
X7595D2*
X54879D1*
X94795D2*
X292542D1*
X-374394Y4019303D2*
X-318050D1*
X-119150D2*
X-34726D1*
X11022D2*
X59773D1*
X98194D2*
X304638D1*
X-379687Y4011683D2*
X-325834D1*
X-131516D2*
X-35999D1*
X14655D2*
X65013D1*
X106269D2*
X161277D1*
X205149D2*
X315691D1*
X-384508Y4004063D2*
X-332655D1*
X-145024D2*
X-36804D1*
X18103D2*
X70876D1*
X115557D2*
D3*
X230894D2*
X325936D1*
X-388881Y3996443D2*
X-338485D1*
X-159425D2*
X-37989D1*
X20630D2*
X76758D1*
X251972D2*
X335116D1*
X-393183Y3988823D2*
X-343906D1*
X-174548D2*
X-39894D1*
X22034D2*
X82208D1*
X268195D2*
X343271D1*
X-397794Y3981203D2*
X-349204D1*
X-190633D2*
X-99301D1*
X-82854D2*
X-41876D1*
X20534D2*
X87763D1*
X281138D2*
X350277D1*
X-402504Y3973583D2*
X-354028D1*
X-207937D2*
X-110084D1*
X-83860D2*
X-43245D1*
X18568D2*
X94268D1*
X292547D2*
X356217D1*
X-406451Y3965963D2*
X-358371D1*
X-226289D2*
X-122773D1*
X-85954D2*
X-44223D1*
X16391D2*
X102133D1*
X302683D2*
X361909D1*
X-409648Y3958343D2*
X-362435D1*
X-245051D2*
X-136775D1*
X-88909D2*
X-45518D1*
X13910D2*
X111248D1*
X310983D2*
X367952D1*
X-412831Y3950723D2*
X-366343D1*
X-262236D2*
X-151509D1*
X-92331D2*
X-47507D1*
X11653D2*
X120685D1*
X317603D2*
X373872D1*
X-416235Y3943103D2*
X-370199D1*
X-276834D2*
X-166804D1*
X-95992D2*
X-49780D1*
X10197D2*
X129612D1*
X323605D2*
X379078D1*
X-419611Y3935483D2*
X-374018D1*
X-283672D2*
X-182965D1*
X-99767D2*
X-52128D1*
X9441D2*
X46977D1*
X69866D2*
X138187D1*
X329776D2*
X383610D1*
X-422612Y3927863D2*
X-377809D1*
X-286475D2*
X-200293D1*
X-103830D2*
X-54935D1*
X9100D2*
X46977D1*
X77754D2*
X147095D1*
X335774D2*
X387757D1*
X-425261Y3920243D2*
X-381377D1*
X-286085D2*
X-218674D1*
X-108627D2*
X-58215D1*
X8960D2*
X46977D1*
X86345D2*
X156701D1*
X341236D2*
X391697D1*
X-427936Y3912623D2*
X-384483D1*
X-283926D2*
X-237960D1*
X-114534D2*
X-61801D1*
X8906D2*
X46977D1*
X95790D2*
X166594D1*
X346508D2*
X395566D1*
X-430297Y3905003D2*
X-387378D1*
X-280683D2*
X-257823D1*
X-121321D2*
X-65781D1*
X8887D2*
X46977D1*
X105394D2*
X176562D1*
X351749D2*
X399389D1*
X-432047Y3897383D2*
X-390889D1*
X-128887D2*
X-70546D1*
X8880D2*
X46977D1*
X114611D2*
X187018D1*
X356552D2*
X403211D1*
X-433753Y3889763D2*
X-394983D1*
X-137918D2*
X-76441D1*
X8878D2*
X47006D1*
X123909D2*
X198186D1*
X360888D2*
X407018D1*
X-435655Y3882143D2*
X-375057D1*
X-149839D2*
X-83194D1*
X8877D2*
X47274D1*
X133707D2*
X210333D1*
X364950D2*
X410805D1*
X-437356Y3874523D2*
X-351166D1*
X-165545D2*
X-90430D1*
X8907D2*
X48245D1*
X143682D2*
X223491D1*
X368856D2*
X414371D1*
X-436509Y3866903D2*
X-324179D1*
X-184348D2*
X-97924D1*
X9174D2*
X50100D1*
X153683D2*
X236858D1*
X372683D2*
X417454D1*
X-432869Y3859283D2*
X-105783D1*
X10145D2*
X52322D1*
X164121D2*
X249877D1*
X376263D2*
X420166D1*
X-423104Y3851663D2*
X-114680D1*
X12000D2*
X54652D1*
X175026D2*
X262943D1*
X379351D2*
X423120D1*
X-407543Y3844043D2*
X-125676D1*
X14222D2*
X57451D1*
X186233D2*
X276198D1*
X382065D2*
X426427D1*
X-385177Y3836423D2*
X-139511D1*
X16522D2*
X60729D1*
X197834D2*
X288173D1*
X385020D2*
X429766D1*
X-357120Y3828803D2*
X-156053D1*
X19083D2*
X64314D1*
X210219D2*
X298247D1*
X388327D2*
X432753D1*
X-326403Y3821183D2*
X-174003D1*
X21658D2*
X68295D1*
X223734D2*
X302211D1*
X391666D2*
X435397D1*
X24360Y3813563D2*
X73060D1*
X238107D2*
X304778D1*
X394653D2*
X438070D1*
X27943Y3805943D2*
X78954D1*
X252963D2*
X304086D1*
X397297D2*
X440430D1*
X32362Y3798323D2*
X85737D1*
X268043D2*
X301772D1*
X399970D2*
X442181D1*
X37053Y3790703D2*
X93241D1*
X283197D2*
X298437D1*
X402211D2*
X443917D1*
X42207Y3783083D2*
X101736D1*
X403700D2*
X446086D1*
X48065Y3775463D2*
X111747D1*
X401472D2*
X448180D1*
X54202Y3767843D2*
X124135D1*
X389096D2*
X449563D1*
X60649Y3760223D2*
X140530D1*
X368074D2*
X450260D1*
X68265Y3752603D2*
X162002D1*
X337734D2*
X450233D1*
X77456Y3744983D2*
X187465D1*
X300474D2*
X449511D1*
X87831Y3737363D2*
X444645D1*
X99378Y3729743D2*
X430275D1*
X113164Y3722123D2*
X408771D1*
X130858Y3714503D2*
X379561D1*
X152643Y3706883D2*
X344214D1*
X176517Y3699263D2*
X306057D1*
X-81160Y9882810D2*
Y9879000D1*
Y9875190D1*
X-81145Y9871380D1*
X-80967Y9867570D1*
X-80520Y9863760D1*
X-78131Y9859950D1*
X-71975Y9856140D1*
X-64086Y9852330D1*
X-55321Y9848520D1*
X-46651Y9844710D1*
X-38879Y9840900D1*
X-32531Y9837090D1*
X-27757Y9833280D1*
X-24420Y9829470D1*
X-22150Y9825660D1*
X-20501Y9821850D1*
X-19036Y9818040D1*
X-17823Y9814230D1*
X-17065Y9810420D1*
X-16677Y9806610D1*
X-16503Y9802800D1*
X-16432Y9798990D1*
X-16405Y9795180D1*
X-16395Y9791370D1*
X-16392Y9787560D1*
X-16390Y9783750D1*
X-73540Y9882810D2*
X-64029Y9879000D1*
X-54330Y9875190D1*
X-45031Y9871380D1*
X-36653Y9867570D1*
X-29616Y9863760D1*
X-24080Y9859950D1*
X-19284Y9856140D1*
X-14207Y9852330D1*
X-8770Y9848520D1*
X21710Y9879000D2*
X14383Y9875190D1*
X8399Y9871380D1*
X3615Y9867570D1*
X-215Y9863760D1*
X-3456Y9859950D1*
X-6944Y9856140D1*
X-11362Y9852330D1*
X-16390Y9848520D1*
X48380Y9879000D2*
X56995Y9875190D1*
X63994Y9871380D1*
X69133Y9867570D1*
X72761Y9863760D1*
X75461Y9859950D1*
X77689Y9856140D1*
X79588Y9852330D1*
X81044Y9848520D1*
X81931Y9844710D1*
X82502Y9840900D1*
X83180Y9837090D1*
X84171Y9833280D1*
X85178Y9829470D1*
X85853Y9825660D1*
X86210Y9821850D1*
X86373Y9818040D1*
X86440Y9814230D1*
X86466Y9810420D1*
X86475Y9806610D1*
X86478Y9802800D1*
X86479Y9798990D1*
X86480Y9795180D1*
Y9791370D1*
Y9787560D1*
Y9783750D1*
Y9779940D1*
Y9776130D1*
Y9772320D1*
Y9768510D1*
Y9764700D1*
Y9760890D1*
X40760Y9856140D2*
X27781Y9852330D1*
X17420Y9848520D1*
X10283Y9844710D1*
X5678Y9840900D1*
X2676Y9837090D1*
X758Y9833280D1*
X-295Y9829470D1*
X-798Y9825660D1*
X-1014Y9821850D1*
X-1100Y9818040D1*
X-1133Y9814230D1*
X-1144Y9810420D1*
X-1148Y9806610D1*
X-1149Y9802800D1*
X-1150Y9798990D1*
Y9795180D1*
Y9791370D1*
Y9787560D1*
Y9783750D1*
X33140Y9856140D2*
X43516Y9852330D1*
X52224Y9848520D1*
X58510Y9844710D1*
X63196Y9840900D1*
X65262Y9837090D1*
X66595Y9833280D1*
X67660Y9829470D1*
X68822Y9825660D1*
X69897Y9821850D1*
X70598Y9818040D1*
X70965Y9814230D1*
X71131Y9810420D1*
X71199Y9806610D1*
X71225Y9802800D1*
X71235Y9798990D1*
X71238Y9795180D1*
X71239Y9791370D1*
X71240Y9787560D1*
Y9783750D1*
X-81160D2*
Y9779940D1*
Y9776130D1*
Y9772320D1*
Y9768510D1*
Y9764700D1*
Y9760890D1*
X-20200Y9715170D2*
X-34239Y9711360D1*
X-45638Y9707550D1*
X-54094Y9703740D1*
X-60300Y9699930D1*
X-65183Y9696120D1*
X-69310Y9692310D1*
X-72793Y9688500D1*
X-75621Y9684690D1*
X-77976Y9680880D1*
X-80067Y9677070D1*
X-81915Y9673260D1*
X-83353Y9669450D1*
X-84220Y9665640D1*
X-84654Y9661830D1*
X-84846Y9658020D1*
X-84924Y9654210D1*
X-84954Y9650400D1*
X-84964Y9646590D1*
X-84968Y9642780D1*
X-84969Y9638970D1*
X-84970Y9635160D1*
Y9631350D1*
X-84955Y9627540D1*
X-84821Y9623730D1*
X-84321Y9619920D1*
X-83274Y9616110D1*
X-81797Y9612300D1*
X-80086Y9608490D1*
X-78255Y9604680D1*
X-76353Y9600870D1*
X-74188Y9597060D1*
X-71289Y9593250D1*
X-67274Y9589440D1*
X-62254Y9585630D1*
X-56134Y9581820D1*
X-48350Y9578010D1*
X-38638Y9574200D1*
X-27820Y9570390D1*
X21710Y9715170D2*
X35764Y9711360D1*
X47297Y9707550D1*
X56224Y9703740D1*
X63208Y9699930D1*
X68598Y9696120D1*
X72595Y9692310D1*
X75822Y9688500D1*
X78692Y9684690D1*
X81177Y9680880D1*
X83247Y9677070D1*
X84791Y9673260D1*
X85717Y9669450D1*
X86303Y9665640D1*
X86987Y9661830D1*
X87980Y9658020D1*
X88987Y9654210D1*
X89663Y9650400D1*
X90020Y9646590D1*
X90183Y9642780D1*
X90235Y9638970D1*
X90127Y9635160D1*
X89651Y9631350D1*
X88741Y9627540D1*
X87751Y9623730D1*
X86953Y9619920D1*
X86099Y9616110D1*
X84891Y9612300D1*
X83347Y9608490D1*
X81595Y9604680D1*
X79622Y9600870D1*
X77230Y9597060D1*
X74151Y9593250D1*
X70260Y9589440D1*
X65417Y9585630D1*
X59296Y9581820D1*
X51193Y9578010D1*
X40845Y9574200D1*
X29330Y9570390D1*
X-24010Y9688500D2*
X-34531Y9684690D1*
X-43742Y9680880D1*
X-51076Y9677070D1*
X-56657Y9673260D1*
X-60856Y9669450D1*
X-63979Y9665640D1*
X-66325Y9661830D1*
X-67978Y9658020D1*
X-68930Y9654210D1*
X-69397Y9650400D1*
X-69600Y9646590D1*
X-69682Y9642780D1*
X-69698Y9638970D1*
X-69575Y9635160D1*
X-69079Y9631350D1*
X-68019Y9627540D1*
X-66408Y9623730D1*
X-64197Y9619920D1*
X-61290Y9616110D1*
X-57568Y9612300D1*
X-51872Y9608490D1*
X-41157Y9604680D1*
X-21727Y9600870D1*
X7084Y9597060D1*
X40760Y9593250D1*
X25520Y9688500D2*
X36186Y9684690D1*
X45871Y9680880D1*
X53998Y9677070D1*
X60190Y9673260D1*
X64493Y9669450D1*
X67420Y9665640D1*
X69342Y9661830D1*
X70530Y9658020D1*
X71520Y9654210D1*
X72635Y9650400D1*
X73565Y9646590D1*
X73776Y9642780D1*
X73229Y9638970D1*
X72403Y9635160D1*
X71672Y9631350D1*
X70845Y9627540D1*
X69631Y9623730D1*
X67942Y9619920D1*
X65542Y9616110D1*
X61813Y9612300D1*
X55609Y9608490D1*
X44670Y9604680D1*
X26156Y9600870D1*
X-571Y9597060D1*
X-31630Y9593250D1*
X-58300Y9536100D2*
X-63869Y9532290D1*
X-68758Y9528480D1*
X-72973Y9524670D1*
X-76409Y9520860D1*
X-78906Y9517050D1*
X-80715Y9513240D1*
X-82263Y9509430D1*
X-83513Y9505620D1*
X-84286Y9501810D1*
X-84680Y9498000D1*
X-84856Y9494190D1*
X-84928Y9490380D1*
X-84955Y9486570D1*
X-84965Y9482760D1*
X-84968Y9478950D1*
X-84969Y9475140D1*
X-84970Y9471330D1*
Y9467520D1*
Y9463710D1*
X-84955Y9459900D1*
X-84821Y9456090D1*
X-84336Y9452280D1*
X-83423Y9448470D1*
X-82446Y9444660D1*
X-81767Y9440850D1*
X-81268Y9437040D1*
X-80518Y9433230D1*
X-79146Y9429420D1*
X-77350Y9425610D1*
X-31630Y9536100D2*
X-25916Y9532290D1*
X-20538Y9528480D1*
X-15395Y9524670D1*
X-10848Y9520860D1*
X-7187Y9517050D1*
X-3978Y9513240D1*
X-791Y9509430D1*
X2252Y9505620D1*
X5000Y9501810D1*
X7642Y9498000D1*
X10280Y9494190D1*
X12801Y9490380D1*
X15336Y9486570D1*
X17928Y9482760D1*
X20446Y9478950D1*
X23108Y9475140D1*
X26183Y9471330D1*
X29628Y9467520D1*
X33445Y9463710D1*
X38109Y9459900D1*
X44603Y9456090D1*
X53444Y9452280D1*
X63620Y9448470D1*
X71240Y9528480D2*
Y9524670D1*
Y9520860D1*
Y9517050D1*
Y9513240D1*
X71255Y9509430D1*
X71389Y9505620D1*
X71874Y9501810D1*
X72787Y9498000D1*
X73764Y9494190D1*
X74413Y9490380D1*
X74633Y9486570D1*
X74309Y9482760D1*
X73463Y9478950D1*
X72497Y9475140D1*
X71708Y9471330D1*
X70843Y9467520D1*
X69442Y9463710D1*
X67481Y9459900D1*
X62064Y9456090D1*
X54084Y9452280D1*
X44570Y9448470D1*
X86480Y9528480D2*
Y9524670D1*
X86495Y9520860D1*
X86629Y9517050D1*
X87114Y9513240D1*
X88027Y9509430D1*
X89004Y9505620D1*
X89668Y9501810D1*
X90022Y9498000D1*
X90183Y9494190D1*
X90250Y9490380D1*
X90276Y9486570D1*
X90270Y9482760D1*
X90140Y9478950D1*
X89655Y9475140D1*
X88743Y9471330D1*
X87766Y9467520D1*
X87087Y9463710D1*
X86600Y9459900D1*
X85938Y9456090D1*
X84824Y9452280D1*
X83321Y9448470D1*
X81571Y9444660D1*
X79469Y9440850D1*
X76607Y9437040D1*
X72721Y9433230D1*
X68234Y9429420D1*
X63620Y9425610D1*
X-46870Y9513240D2*
X-53596Y9509430D1*
X-59131Y9505620D1*
X-63155Y9501810D1*
X-65972Y9498000D1*
X-67839Y9494190D1*
X-68878Y9490380D1*
X-69378Y9486570D1*
X-69594Y9482760D1*
X-69680Y9478950D1*
X-69713Y9475140D1*
X-69724Y9471330D1*
X-69728Y9467520D1*
X-69714Y9463710D1*
X-69581Y9459900D1*
X-69096Y9456090D1*
X-68183Y9452280D1*
X-67191Y9448470D1*
X-66393Y9444660D1*
X-65551Y9440850D1*
X-64445Y9437040D1*
X-63242Y9433230D1*
X-62110Y9429420D1*
X-73540Y9425610D1*
X-50680Y9513240D2*
X-43809Y9509430D1*
X-37771Y9505620D1*
X-32685Y9501810D1*
X-28256Y9498000D1*
X-24193Y9494190D1*
X-20410Y9490380D1*
X-17046Y9486570D1*
X-14149Y9482760D1*
X-11445Y9478950D1*
X-8783Y9475140D1*
X-6254Y9471330D1*
X-3716Y9467520D1*
X-1123Y9463710D1*
X1396Y9459900D1*
X4058Y9456090D1*
X7133Y9452280D1*
X10563Y9448470D1*
X14202Y9444660D1*
X17957Y9440850D1*
X21885Y9437040D1*
X26274Y9433230D1*
X31383Y9429420D1*
X36950Y9425610D1*
X-81160Y9379890D2*
Y9376080D1*
Y9372270D1*
Y9368460D1*
Y9364650D1*
Y9360840D1*
Y9357030D1*
X-59763Y9353220D1*
X-45010Y9349410D1*
X-35663Y9345600D1*
X-29397Y9341790D1*
X-24593Y9337980D1*
X-20406Y9334170D1*
X-16460Y9330360D1*
X-12603Y9326550D1*
X-8778Y9322740D1*
X-4962Y9318930D1*
X-1151Y9315120D1*
X2660Y9311310D1*
X6485Y9307500D1*
X10429Y9303690D1*
X14724Y9299880D1*
X19447Y9296070D1*
X24234Y9292260D1*
X28708Y9288450D1*
X32872Y9284640D1*
X36843Y9280830D1*
X40720Y9277020D1*
X44556Y9273210D1*
X48375Y9269400D1*
X52190Y9265590D1*
X86480Y9379890D2*
Y9376080D1*
Y9372270D1*
Y9368460D1*
Y9364650D1*
Y9360840D1*
Y9357030D1*
X-16390D2*
X-11991Y9353220D1*
X-7237Y9349410D1*
X-2440Y9345600D1*
X2037Y9341790D1*
X6201Y9337980D1*
X10173Y9334170D1*
X14050Y9330360D1*
X17886Y9326550D1*
X21705Y9322740D1*
X25518Y9318930D1*
X29329Y9315120D1*
X33140Y9311310D1*
X36950Y9307500D1*
X40775Y9303690D1*
X44719Y9299880D1*
X49014Y9296070D1*
X53737Y9292260D1*
X58524Y9288450D1*
X62998Y9284640D1*
X67162Y9280830D1*
X71133Y9277020D1*
X74995Y9273210D1*
X78682Y9269400D1*
X81867Y9265590D1*
X84133Y9261780D1*
X85421Y9257970D1*
X86043Y9254160D1*
X86312Y9250350D1*
X86422Y9246540D1*
X86480Y9242730D1*
X-81160Y9265590D2*
Y9261780D1*
Y9257970D1*
Y9254160D1*
Y9250350D1*
Y9246540D1*
Y9242730D1*
Y9193200D2*
Y9189390D1*
Y9185580D1*
Y9181770D1*
Y9177960D1*
Y9174150D1*
Y9170340D1*
Y9166530D1*
Y9162720D1*
Y9158910D1*
Y9155100D1*
Y9151290D1*
Y9147480D1*
Y9143670D1*
Y9139860D1*
Y9136050D1*
Y9132240D1*
X-81145Y9128430D1*
X-81011Y9124620D1*
X-80511Y9120810D1*
X-79464Y9117000D1*
X-77987Y9113190D1*
X-76246Y9109380D1*
X-74103Y9105570D1*
X-71486Y9101760D1*
X-65325Y9097950D1*
X-56803Y9094140D1*
X-46870Y9090330D1*
X-65920Y9193200D2*
Y9189390D1*
Y9185580D1*
Y9181770D1*
Y9177960D1*
Y9174150D1*
Y9170340D1*
Y9166530D1*
Y9162720D1*
Y9158910D1*
Y9155100D1*
Y9151290D1*
Y9147480D1*
Y9143670D1*
X-65905Y9139860D1*
X-65756Y9136050D1*
X-65122Y9132240D1*
X-63575Y9128430D1*
X-61055Y9124620D1*
X-57897Y9120810D1*
X-54490Y9117000D1*
X71240Y9193200D2*
Y9189390D1*
Y9185580D1*
Y9181770D1*
Y9177960D1*
Y9174150D1*
Y9170340D1*
Y9166530D1*
Y9162720D1*
Y9158910D1*
Y9155100D1*
Y9151290D1*
Y9147480D1*
Y9143670D1*
Y9139860D1*
Y9136050D1*
Y9132240D1*
Y9128430D1*
Y9124620D1*
Y9120810D1*
Y9117000D1*
X86480Y9193200D2*
Y9189390D1*
Y9185580D1*
Y9181770D1*
Y9177960D1*
Y9174150D1*
Y9170340D1*
Y9166530D1*
Y9162720D1*
Y9158910D1*
Y9155100D1*
Y9151290D1*
Y9147480D1*
Y9143670D1*
Y9139860D1*
Y9136050D1*
Y9132240D1*
Y9128430D1*
Y9124620D1*
Y9120810D1*
Y9117000D1*
Y9113190D1*
Y9109380D1*
Y9105570D1*
Y9101760D1*
Y9097950D1*
Y9094140D1*
Y9090330D1*
X-1150Y9185580D2*
Y9181770D1*
Y9177960D1*
Y9174150D1*
Y9170340D1*
Y9166530D1*
Y9162720D1*
Y9158910D1*
Y9155100D1*
Y9151290D1*
Y9147480D1*
Y9143670D1*
Y9139860D1*
Y9136050D1*
Y9132240D1*
Y9128430D1*
Y9124620D1*
Y9120810D1*
Y9117000D1*
X14090Y9185580D2*
Y9181770D1*
Y9177960D1*
Y9174150D1*
Y9170340D1*
Y9166530D1*
Y9162720D1*
Y9158910D1*
Y9155100D1*
Y9151290D1*
Y9147480D1*
Y9143670D1*
Y9139860D1*
Y9136050D1*
Y9132240D1*
Y9128430D1*
Y9124620D1*
Y9120810D1*
Y9117000D1*
X-58300Y9048420D2*
X-63869Y9044610D1*
X-68758Y9040800D1*
X-72973Y9036990D1*
X-76409Y9033180D1*
X-78906Y9029370D1*
X-80715Y9025560D1*
X-82263Y9021750D1*
X-83513Y9017940D1*
X-84286Y9014130D1*
X-84680Y9010320D1*
X-84856Y9006510D1*
X-84928Y9002700D1*
X-84955Y8998890D1*
X-84965Y8995080D1*
X-84968Y8991270D1*
X-84969Y8987460D1*
X-84970Y8983650D1*
Y8979840D1*
Y8976030D1*
X-84955Y8972220D1*
X-84821Y8968410D1*
X-84336Y8964600D1*
X-83423Y8960790D1*
X-82446Y8956980D1*
X-81767Y8953170D1*
X-81268Y8949360D1*
X-80518Y8945550D1*
X-79146Y8941740D1*
X-77350Y8937930D1*
X-31630Y9048420D2*
X-25916Y9044610D1*
X-20538Y9040800D1*
X-15395Y9036990D1*
X-10848Y9033180D1*
X-7187Y9029370D1*
X-3978Y9025560D1*
X-791Y9021750D1*
X2252Y9017940D1*
X5000Y9014130D1*
X7642Y9010320D1*
X10280Y9006510D1*
X12801Y9002700D1*
X15336Y8998890D1*
X17928Y8995080D1*
X20446Y8991270D1*
X23108Y8987460D1*
X26183Y8983650D1*
X29628Y8979840D1*
X33445Y8976030D1*
X38109Y8972220D1*
X44603Y8968410D1*
X53444Y8964600D1*
X63620Y8960790D1*
X71240Y9040800D2*
Y9036990D1*
Y9033180D1*
Y9029370D1*
Y9025560D1*
X71255Y9021750D1*
X71389Y9017940D1*
X71874Y9014130D1*
X72787Y9010320D1*
X73764Y9006510D1*
X74413Y9002700D1*
X74633Y8998890D1*
X74309Y8995080D1*
X73463Y8991270D1*
X72497Y8987460D1*
X71708Y8983650D1*
X70843Y8979840D1*
X69442Y8976030D1*
X67481Y8972220D1*
X62064Y8968410D1*
X54084Y8964600D1*
X44570Y8960790D1*
X86480Y9040800D2*
Y9036990D1*
X86495Y9033180D1*
X86629Y9029370D1*
X87114Y9025560D1*
X88027Y9021750D1*
X89004Y9017940D1*
X89668Y9014130D1*
X90022Y9010320D1*
X90183Y9006510D1*
X90250Y9002700D1*
X90276Y8998890D1*
X90270Y8995080D1*
X90140Y8991270D1*
X89655Y8987460D1*
X88743Y8983650D1*
X87766Y8979840D1*
X87087Y8976030D1*
X86600Y8972220D1*
X85938Y8968410D1*
X84824Y8964600D1*
X83321Y8960790D1*
X81571Y8956980D1*
X79469Y8953170D1*
X76607Y8949360D1*
X72721Y8945550D1*
X68234Y8941740D1*
X63620Y8937930D1*
X-46870Y9025560D2*
X-53596Y9021750D1*
X-59131Y9017940D1*
X-63155Y9014130D1*
X-65972Y9010320D1*
X-67839Y9006510D1*
X-68878Y9002700D1*
X-69378Y8998890D1*
X-69594Y8995080D1*
X-69680Y8991270D1*
X-69713Y8987460D1*
X-69724Y8983650D1*
X-69728Y8979840D1*
X-69714Y8976030D1*
X-69581Y8972220D1*
X-69096Y8968410D1*
X-68183Y8964600D1*
X-67191Y8960790D1*
X-66393Y8956980D1*
X-65551Y8953170D1*
X-64445Y8949360D1*
X-63242Y8945550D1*
X-62110Y8941740D1*
X-73540Y8937930D1*
X-50680Y9025560D2*
X-43809Y9021750D1*
X-37771Y9017940D1*
X-32685Y9014130D1*
X-28256Y9010320D1*
X-24193Y9006510D1*
X-20410Y9002700D1*
X-17046Y8998890D1*
X-14149Y8995080D1*
X-11445Y8991270D1*
X-8783Y8987460D1*
X-6254Y8983650D1*
X-3716Y8979840D1*
X-1123Y8976030D1*
X1396Y8972220D1*
X4058Y8968410D1*
X7133Y8964600D1*
X10563Y8960790D1*
X14202Y8956980D1*
X17957Y8953170D1*
X21885Y8949360D1*
X26274Y8945550D1*
X31383Y8941740D1*
X36950Y8937930D1*
X-81160Y8831250D2*
Y8827440D1*
Y8823630D1*
Y8819820D1*
Y8816010D1*
Y8812200D1*
Y8808390D1*
Y8804580D1*
Y8800770D1*
Y8796960D1*
Y8793150D1*
Y8789340D1*
Y8785530D1*
Y8781720D1*
Y8777910D1*
Y8774100D1*
Y8770290D1*
X-81145Y8766480D1*
X-81011Y8762670D1*
X-80511Y8758860D1*
X-79464Y8755050D1*
X-77987Y8751240D1*
X-76246Y8747430D1*
X-74103Y8743620D1*
X-71486Y8739810D1*
X-65325Y8736000D1*
X-56803Y8732190D1*
X-46870Y8728380D1*
X-65920Y8831250D2*
Y8827440D1*
Y8823630D1*
Y8819820D1*
Y8816010D1*
Y8812200D1*
Y8808390D1*
Y8804580D1*
Y8800770D1*
Y8796960D1*
Y8793150D1*
Y8789340D1*
Y8785530D1*
Y8781720D1*
X-65905Y8777910D1*
X-65756Y8774100D1*
X-65122Y8770290D1*
X-63575Y8766480D1*
X-61055Y8762670D1*
X-57897Y8758860D1*
X-54490Y8755050D1*
X71240Y8831250D2*
Y8827440D1*
Y8823630D1*
Y8819820D1*
Y8816010D1*
Y8812200D1*
Y8808390D1*
Y8804580D1*
Y8800770D1*
Y8796960D1*
Y8793150D1*
Y8789340D1*
Y8785530D1*
Y8781720D1*
Y8777910D1*
Y8774100D1*
Y8770290D1*
Y8766480D1*
Y8762670D1*
Y8758860D1*
Y8755050D1*
X86480Y8831250D2*
Y8827440D1*
Y8823630D1*
Y8819820D1*
Y8816010D1*
Y8812200D1*
Y8808390D1*
Y8804580D1*
Y8800770D1*
Y8796960D1*
Y8793150D1*
Y8789340D1*
Y8785530D1*
Y8781720D1*
Y8777910D1*
Y8774100D1*
Y8770290D1*
Y8766480D1*
Y8762670D1*
Y8758860D1*
Y8755050D1*
Y8751240D1*
Y8747430D1*
Y8743620D1*
Y8739810D1*
Y8736000D1*
Y8732190D1*
Y8728380D1*
X-1150Y8823630D2*
Y8819820D1*
Y8816010D1*
Y8812200D1*
Y8808390D1*
Y8804580D1*
Y8800770D1*
Y8796960D1*
Y8793150D1*
Y8789340D1*
Y8785530D1*
Y8781720D1*
Y8777910D1*
Y8774100D1*
Y8770290D1*
Y8766480D1*
Y8762670D1*
Y8758860D1*
Y8755050D1*
X14090Y8823630D2*
Y8819820D1*
Y8816010D1*
Y8812200D1*
Y8808390D1*
Y8804580D1*
Y8800770D1*
Y8796960D1*
Y8793150D1*
Y8789340D1*
Y8785530D1*
Y8781720D1*
Y8777910D1*
Y8774100D1*
Y8770290D1*
Y8766480D1*
Y8762670D1*
Y8758860D1*
Y8755050D1*
X-81160Y8686470D2*
Y8682660D1*
Y8678850D1*
X-81145Y8675040D1*
X-80967Y8671230D1*
X-80520Y8667420D1*
X-78131Y8663610D1*
X-71975Y8659800D1*
X-64086Y8655990D1*
X-55321Y8652180D1*
X-46651Y8648370D1*
X-38879Y8644560D1*
X-32531Y8640750D1*
X-27757Y8636940D1*
X-24420Y8633130D1*
X-22150Y8629320D1*
X-20501Y8625510D1*
X-19036Y8621700D1*
X-17823Y8617890D1*
X-17065Y8614080D1*
X-16677Y8610270D1*
X-16503Y8606460D1*
X-16432Y8602650D1*
X-16405Y8598840D1*
X-16395Y8595030D1*
X-16392Y8591220D1*
X-16390Y8587410D1*
X-73540Y8686470D2*
X-64029Y8682660D1*
X-54330Y8678850D1*
X-45031Y8675040D1*
X-36653Y8671230D1*
X-29616Y8667420D1*
X-24080Y8663610D1*
X-19284Y8659800D1*
X-14207Y8655990D1*
X-8770Y8652180D1*
X21710Y8682660D2*
X14383Y8678850D1*
X8399Y8675040D1*
X3615Y8671230D1*
X-215Y8667420D1*
X-3456Y8663610D1*
X-6944Y8659800D1*
X-11362Y8655990D1*
X-16390Y8652180D1*
X48380Y8682660D2*
X56995Y8678850D1*
X63994Y8675040D1*
X69133Y8671230D1*
X72761Y8667420D1*
X75461Y8663610D1*
X77689Y8659800D1*
X79588Y8655990D1*
X81044Y8652180D1*
X81931Y8648370D1*
X82502Y8644560D1*
X83180Y8640750D1*
X84171Y8636940D1*
X85178Y8633130D1*
X85853Y8629320D1*
X86210Y8625510D1*
X86373Y8621700D1*
X86440Y8617890D1*
X86466Y8614080D1*
X86475Y8610270D1*
X86478Y8606460D1*
X86479Y8602650D1*
X86480Y8598840D1*
Y8595030D1*
Y8591220D1*
Y8587410D1*
Y8583600D1*
Y8579790D1*
Y8575980D1*
Y8572170D1*
Y8568360D1*
Y8564550D1*
X40760Y8659800D2*
X27781Y8655990D1*
X17420Y8652180D1*
X10283Y8648370D1*
X5678Y8644560D1*
X2676Y8640750D1*
X758Y8636940D1*
X-295Y8633130D1*
X-798Y8629320D1*
X-1014Y8625510D1*
X-1100Y8621700D1*
X-1133Y8617890D1*
X-1144Y8614080D1*
X-1148Y8610270D1*
X-1149Y8606460D1*
X-1150Y8602650D1*
Y8598840D1*
Y8595030D1*
Y8591220D1*
Y8587410D1*
X33140Y8659800D2*
X43516Y8655990D1*
X52224Y8652180D1*
X58510Y8648370D1*
X63196Y8644560D1*
X65262Y8640750D1*
X66595Y8636940D1*
X67660Y8633130D1*
X68822Y8629320D1*
X69897Y8625510D1*
X70598Y8621700D1*
X70965Y8617890D1*
X71131Y8614080D1*
X71199Y8610270D1*
X71225Y8606460D1*
X71235Y8602650D1*
X71238Y8598840D1*
X71239Y8595030D1*
X71240Y8591220D1*
Y8587410D1*
X-81160D2*
Y8583600D1*
Y8579790D1*
Y8575980D1*
Y8572170D1*
Y8568360D1*
Y8564550D1*
X-73540Y8511210D2*
X-75444Y8507400D1*
X-77026Y8503590D1*
X-78493Y8499780D1*
X-79731Y8495970D1*
X-80629Y8492160D1*
X-81505Y8488350D1*
X-82593Y8484540D1*
X-83641Y8480730D1*
X-84333Y8476920D1*
X-84696Y8473110D1*
X-84861Y8469300D1*
X-84929Y8465490D1*
X-84956Y8461680D1*
X-84965Y8457870D1*
X-84968Y8454060D1*
X-84969Y8450250D1*
X-84970Y8446440D1*
Y8442630D1*
Y8438820D1*
Y8435010D1*
X-84955Y8431200D1*
X-84821Y8427390D1*
X-84336Y8423580D1*
X-83408Y8419770D1*
X-82297Y8415960D1*
X-81133Y8412150D1*
X-79718Y8408340D1*
X-77945Y8404530D1*
X-75667Y8400720D1*
X-72749Y8396910D1*
X-69211Y8393100D1*
X-64676Y8389290D1*
X-58235Y8385480D1*
X-49415Y8381670D1*
X-39250Y8377860D1*
X86480Y8511210D2*
Y8507400D1*
Y8503590D1*
Y8499780D1*
Y8495970D1*
Y8492160D1*
Y8488350D1*
Y8484540D1*
X-65920D2*
X-66509Y8480730D1*
X-67453Y8476920D1*
X-68440Y8473110D1*
X-69107Y8469300D1*
X-69461Y8465490D1*
X-69623Y8461680D1*
X-69690Y8457870D1*
X-69716Y8454060D1*
X-69725Y8450250D1*
X-69728Y8446440D1*
X-69729Y8442630D1*
X-69715Y8438820D1*
X-69581Y8435010D1*
X-69081Y8431200D1*
X-68019Y8427390D1*
X-66393Y8423580D1*
X-64018Y8419770D1*
X-60358Y8415960D1*
X-54828Y8412150D1*
X-47167Y8408340D1*
X-37845Y8404530D1*
X-27820Y8400720D1*
X86480D2*
Y8396910D1*
Y8393100D1*
Y8389290D1*
Y8385480D1*
Y8381670D1*
Y8377860D1*
X71240Y8347380D2*
Y8343570D1*
Y8339760D1*
Y8335950D1*
Y8332140D1*
Y8328330D1*
Y8324520D1*
Y8320710D1*
Y8316900D1*
Y8313090D1*
Y8309280D1*
Y8305470D1*
Y8301660D1*
Y8297850D1*
Y8294040D1*
Y8290230D1*
X86480Y8347380D2*
Y8343570D1*
Y8339760D1*
Y8335950D1*
Y8332140D1*
Y8328330D1*
Y8324520D1*
Y8320710D1*
Y8316900D1*
Y8313090D1*
Y8309280D1*
Y8305470D1*
Y8301660D1*
Y8297850D1*
Y8294040D1*
Y8290230D1*
Y8286420D1*
Y8282610D1*
Y8278800D1*
Y8274990D1*
Y8271180D1*
Y8267370D1*
Y8263560D1*
Y8259750D1*
Y8255940D1*
Y8252130D1*
Y8248320D1*
Y8244510D1*
Y8240700D1*
Y8236890D1*
Y8233080D1*
Y8229270D1*
Y8225460D1*
Y8221650D1*
Y8217840D1*
Y8214030D1*
Y8210220D1*
X-81160Y8290230D2*
Y8286420D1*
Y8282610D1*
Y8278800D1*
Y8274990D1*
Y8271180D1*
Y8267370D1*
X71240D2*
Y8263560D1*
Y8259750D1*
Y8255940D1*
Y8252130D1*
Y8248320D1*
Y8244510D1*
Y8240700D1*
Y8236890D1*
Y8233080D1*
Y8229270D1*
Y8225460D1*
Y8221650D1*
Y8217840D1*
Y8214030D1*
Y8210220D1*
X-58300Y8187360D2*
X-63869Y8183550D1*
X-68758Y8179740D1*
X-72973Y8175930D1*
X-76409Y8172120D1*
X-78906Y8168310D1*
X-80715Y8164500D1*
X-82263Y8160690D1*
X-83513Y8156880D1*
X-84286Y8153070D1*
X-84680Y8149260D1*
X-84856Y8145450D1*
X-84928Y8141640D1*
X-84955Y8137830D1*
X-84965Y8134020D1*
X-84968Y8130210D1*
X-84969Y8126400D1*
X-84970Y8122590D1*
Y8118780D1*
Y8114970D1*
X-84955Y8111160D1*
X-84821Y8107350D1*
X-84336Y8103540D1*
X-83423Y8099730D1*
X-82446Y8095920D1*
X-81767Y8092110D1*
X-81268Y8088300D1*
X-80518Y8084490D1*
X-79146Y8080680D1*
X-77350Y8076870D1*
X-31630Y8187360D2*
X-25916Y8183550D1*
X-20538Y8179740D1*
X-15395Y8175930D1*
X-10848Y8172120D1*
X-7187Y8168310D1*
X-3978Y8164500D1*
X-791Y8160690D1*
X2252Y8156880D1*
X5000Y8153070D1*
X7642Y8149260D1*
X10280Y8145450D1*
X12801Y8141640D1*
X15336Y8137830D1*
X17928Y8134020D1*
X20446Y8130210D1*
X23108Y8126400D1*
X26183Y8122590D1*
X29628Y8118780D1*
X33445Y8114970D1*
X38109Y8111160D1*
X44603Y8107350D1*
X53444Y8103540D1*
X63620Y8099730D1*
X71240Y8179740D2*
Y8175930D1*
Y8172120D1*
Y8168310D1*
Y8164500D1*
X71255Y8160690D1*
X71389Y8156880D1*
X71874Y8153070D1*
X72787Y8149260D1*
X73764Y8145450D1*
X74413Y8141640D1*
X74633Y8137830D1*
X74309Y8134020D1*
X73463Y8130210D1*
X72497Y8126400D1*
X71708Y8122590D1*
X70843Y8118780D1*
X69442Y8114970D1*
X67481Y8111160D1*
X62064Y8107350D1*
X54084Y8103540D1*
X44570Y8099730D1*
X86480Y8179740D2*
Y8175930D1*
X86495Y8172120D1*
X86629Y8168310D1*
X87114Y8164500D1*
X88027Y8160690D1*
X89004Y8156880D1*
X89668Y8153070D1*
X90022Y8149260D1*
X90183Y8145450D1*
X90250Y8141640D1*
X90276Y8137830D1*
X90270Y8134020D1*
X90140Y8130210D1*
X89655Y8126400D1*
X88743Y8122590D1*
X87766Y8118780D1*
X87087Y8114970D1*
X86600Y8111160D1*
X85938Y8107350D1*
X84824Y8103540D1*
X83321Y8099730D1*
X81571Y8095920D1*
X79469Y8092110D1*
X76607Y8088300D1*
X72721Y8084490D1*
X68234Y8080680D1*
X63620Y8076870D1*
X-46870Y8164500D2*
X-53596Y8160690D1*
X-59131Y8156880D1*
X-63155Y8153070D1*
X-65972Y8149260D1*
X-67839Y8145450D1*
X-68878Y8141640D1*
X-69378Y8137830D1*
X-69594Y8134020D1*
X-69680Y8130210D1*
X-69713Y8126400D1*
X-69724Y8122590D1*
X-69728Y8118780D1*
X-69714Y8114970D1*
X-69581Y8111160D1*
X-69096Y8107350D1*
X-68183Y8103540D1*
X-67191Y8099730D1*
X-66393Y8095920D1*
X-65551Y8092110D1*
X-64445Y8088300D1*
X-63242Y8084490D1*
X-62110Y8080680D1*
X-73540Y8076870D1*
X-50680Y8164500D2*
X-43809Y8160690D1*
X-37771Y8156880D1*
X-32685Y8153070D1*
X-28256Y8149260D1*
X-24193Y8145450D1*
X-20410Y8141640D1*
X-17046Y8137830D1*
X-14149Y8134020D1*
X-11445Y8130210D1*
X-8783Y8126400D1*
X-6254Y8122590D1*
X-3716Y8118780D1*
X-1123Y8114970D1*
X1396Y8111160D1*
X4058Y8107350D1*
X7133Y8103540D1*
X10563Y8099730D1*
X14202Y8095920D1*
X17957Y8092110D1*
X21885Y8088300D1*
X26274Y8084490D1*
X31383Y8080680D1*
X36950Y8076870D1*
X-81160Y8031150D2*
Y8027340D1*
Y8023530D1*
Y8019720D1*
Y8015910D1*
Y8012100D1*
Y8008290D1*
X86480Y8031150D2*
Y8027340D1*
Y8023530D1*
Y8019720D1*
Y8015910D1*
Y8012100D1*
Y8008290D1*
X-20200Y7962570D2*
X-34239Y7958760D1*
X-45638Y7954950D1*
X-54094Y7951140D1*
X-60300Y7947330D1*
X-65183Y7943520D1*
X-69310Y7939710D1*
X-72793Y7935900D1*
X-75621Y7932090D1*
X-77976Y7928280D1*
X-80067Y7924470D1*
X-81915Y7920660D1*
X-83353Y7916850D1*
X-84220Y7913040D1*
X-84654Y7909230D1*
X-84846Y7905420D1*
X-84924Y7901610D1*
X-84954Y7897800D1*
X-84964Y7893990D1*
X-84968Y7890180D1*
X-84969Y7886370D1*
X-84970Y7882560D1*
Y7878750D1*
X-84955Y7874940D1*
X-84821Y7871130D1*
X-84321Y7867320D1*
X-83274Y7863510D1*
X-81797Y7859700D1*
X-80086Y7855890D1*
X-78255Y7852080D1*
X-76353Y7848270D1*
X-74188Y7844460D1*
X-71289Y7840650D1*
X-67274Y7836840D1*
X-62254Y7833030D1*
X-56134Y7829220D1*
X-48350Y7825410D1*
X-38638Y7821600D1*
X-27820Y7817790D1*
X21710Y7962570D2*
X35764Y7958760D1*
X47297Y7954950D1*
X56224Y7951140D1*
X63208Y7947330D1*
X68598Y7943520D1*
X72595Y7939710D1*
X75822Y7935900D1*
X78692Y7932090D1*
X81177Y7928280D1*
X83247Y7924470D1*
X84791Y7920660D1*
X85717Y7916850D1*
X86303Y7913040D1*
X86987Y7909230D1*
X87980Y7905420D1*
X88987Y7901610D1*
X89663Y7897800D1*
X90020Y7893990D1*
X90183Y7890180D1*
X90235Y7886370D1*
X90127Y7882560D1*
X89651Y7878750D1*
X88741Y7874940D1*
X87751Y7871130D1*
X86953Y7867320D1*
X86099Y7863510D1*
X84891Y7859700D1*
X83347Y7855890D1*
X81595Y7852080D1*
X79622Y7848270D1*
X77230Y7844460D1*
X74151Y7840650D1*
X70260Y7836840D1*
X65417Y7833030D1*
X59296Y7829220D1*
X51193Y7825410D1*
X40845Y7821600D1*
X29330Y7817790D1*
X-24010Y7935900D2*
X-34531Y7932090D1*
X-43742Y7928280D1*
X-51076Y7924470D1*
X-56657Y7920660D1*
X-60856Y7916850D1*
X-63979Y7913040D1*
X-66325Y7909230D1*
X-67978Y7905420D1*
X-68930Y7901610D1*
X-69397Y7897800D1*
X-69600Y7893990D1*
X-69682Y7890180D1*
X-69698Y7886370D1*
X-69575Y7882560D1*
X-69079Y7878750D1*
X-68019Y7874940D1*
X-66408Y7871130D1*
X-64197Y7867320D1*
X-61290Y7863510D1*
X-57568Y7859700D1*
X-51872Y7855890D1*
X-41157Y7852080D1*
X-21727Y7848270D1*
X7084Y7844460D1*
X40760Y7840650D1*
X25520Y7935900D2*
X36186Y7932090D1*
X45871Y7928280D1*
X53998Y7924470D1*
X60190Y7920660D1*
X64493Y7916850D1*
X67420Y7913040D1*
X69342Y7909230D1*
X70530Y7905420D1*
X71520Y7901610D1*
X72635Y7897800D1*
X73565Y7893990D1*
X73776Y7890180D1*
X73229Y7886370D1*
X72403Y7882560D1*
X71672Y7878750D1*
X70845Y7874940D1*
X69631Y7871130D1*
X67942Y7867320D1*
X65542Y7863510D1*
X61813Y7859700D1*
X55609Y7855890D1*
X44670Y7852080D1*
X26156Y7848270D1*
X-571Y7844460D1*
X-31630Y7840650D1*
X-81160Y7772070D2*
Y7768260D1*
Y7764450D1*
Y7760640D1*
Y7756830D1*
Y7753020D1*
Y7749210D1*
X86480Y7772070D2*
Y7768260D1*
Y7764450D1*
Y7760640D1*
X86450Y7756830D1*
X86167Y7753020D1*
X85498Y7749210D1*
X82556Y7745400D1*
X78467Y7741590D1*
X73546Y7737780D1*
X68184Y7733970D1*
X62726Y7730160D1*
X57424Y7726350D1*
X52276Y7722540D1*
X46995Y7718730D1*
X41519Y7714920D1*
X35921Y7711110D1*
X30251Y7707300D1*
X24558Y7703490D1*
X18847Y7699680D1*
X13153Y7695870D1*
X7592Y7692060D1*
X2568Y7688250D1*
X-1526Y7684440D1*
X-4960Y7680630D1*
X1212Y7676820D1*
X7195Y7673010D1*
X13046Y7669200D1*
X18815Y7665390D1*
X24556Y7661580D1*
X30276Y7657770D1*
X35997Y7653960D1*
X41710Y7650150D1*
X47429Y7646340D1*
X53141Y7642530D1*
X58859Y7638720D1*
X64571Y7634910D1*
X70259Y7631100D1*
X75688Y7627290D1*
X80272Y7623480D1*
X83913Y7619670D1*
X85238Y7615860D1*
X85953Y7612050D1*
X86274Y7608240D1*
X86404Y7604430D1*
X86453Y7600620D1*
X86471Y7596810D1*
X86480Y7593000D1*
X52190Y7749210D2*
X47776Y7745400D1*
X42888Y7741590D1*
X37591Y7737780D1*
X32067Y7733970D1*
X26426Y7730160D1*
X20743Y7726350D1*
X15035Y7722540D1*
X9327Y7718730D1*
X3610Y7714920D1*
X-2116Y7711110D1*
X-7938Y7707300D1*
X-13853Y7703490D1*
X-19349Y7699680D1*
X-24064Y7695870D1*
X-25980Y7692060D1*
X-27030Y7688250D1*
X-27494Y7684440D1*
X-27541Y7680630D1*
X-26966Y7676820D1*
X-25767Y7673010D1*
X-22411Y7669200D1*
X-18094Y7665390D1*
X-13055Y7661580D1*
X-7636Y7657770D1*
X-2034Y7653960D1*
X3634Y7650150D1*
X9337Y7646340D1*
X15044Y7642530D1*
X20760Y7638720D1*
X26471Y7634910D1*
X32174Y7631100D1*
X37753Y7627290D1*
X42981Y7623480D1*
X47711Y7619670D1*
X52190Y7615860D1*
X-81160D2*
Y7612050D1*
Y7608240D1*
Y7604430D1*
Y7600620D1*
Y7596810D1*
Y7593000D1*
Y7486320D2*
Y7482510D1*
Y7478700D1*
Y7474890D1*
Y7471080D1*
Y7467270D1*
Y7463460D1*
Y7459650D1*
Y7455840D1*
Y7452030D1*
Y7448220D1*
Y7444410D1*
Y7440600D1*
Y7436790D1*
Y7432980D1*
Y7429170D1*
Y7425360D1*
Y7421550D1*
Y7417740D1*
Y7413930D1*
Y7410120D1*
Y7406310D1*
Y7402500D1*
Y7398690D1*
Y7394880D1*
Y7391070D1*
X-65920Y7486320D2*
Y7482510D1*
Y7478700D1*
Y7474890D1*
Y7471080D1*
Y7467270D1*
Y7463460D1*
Y7459650D1*
Y7455840D1*
Y7452030D1*
Y7448220D1*
Y7444410D1*
Y7440600D1*
Y7436790D1*
Y7432980D1*
Y7429170D1*
Y7425360D1*
Y7421550D1*
Y7417740D1*
Y7413930D1*
X86480D2*
Y7410120D1*
Y7406310D1*
Y7402500D1*
Y7398690D1*
Y7394880D1*
Y7391070D1*
X-81160Y7333920D2*
Y7330110D1*
Y7326300D1*
Y7322490D1*
Y7318680D1*
Y7314870D1*
Y7311060D1*
X86480Y7333920D2*
Y7330110D1*
Y7326300D1*
Y7322490D1*
Y7318680D1*
Y7314870D1*
Y7311060D1*
X-20200Y7265340D2*
X-34239Y7261530D1*
X-45638Y7257720D1*
X-54094Y7253910D1*
X-60300Y7250100D1*
X-65183Y7246290D1*
X-69310Y7242480D1*
X-72793Y7238670D1*
X-75621Y7234860D1*
X-77976Y7231050D1*
X-80067Y7227240D1*
X-81915Y7223430D1*
X-83353Y7219620D1*
X-84220Y7215810D1*
X-84654Y7212000D1*
X-84846Y7208190D1*
X-84924Y7204380D1*
X-84954Y7200570D1*
X-84964Y7196760D1*
X-84968Y7192950D1*
X-84969Y7189140D1*
X-84970Y7185330D1*
Y7181520D1*
X-84955Y7177710D1*
X-84821Y7173900D1*
X-84321Y7170090D1*
X-83274Y7166280D1*
X-81797Y7162470D1*
X-80086Y7158660D1*
X-78255Y7154850D1*
X-76353Y7151040D1*
X-74188Y7147230D1*
X-71289Y7143420D1*
X-67274Y7139610D1*
X-62254Y7135800D1*
X-56134Y7131990D1*
X-48350Y7128180D1*
X-38638Y7124370D1*
X-27820Y7120560D1*
X21710Y7265340D2*
X35764Y7261530D1*
X47297Y7257720D1*
X56224Y7253910D1*
X63208Y7250100D1*
X68598Y7246290D1*
X72595Y7242480D1*
X75822Y7238670D1*
X78692Y7234860D1*
X81177Y7231050D1*
X83247Y7227240D1*
X84791Y7223430D1*
X85717Y7219620D1*
X86303Y7215810D1*
X86987Y7212000D1*
X87980Y7208190D1*
X88987Y7204380D1*
X89663Y7200570D1*
X90020Y7196760D1*
X90183Y7192950D1*
X90235Y7189140D1*
X90127Y7185330D1*
X89651Y7181520D1*
X88741Y7177710D1*
X87751Y7173900D1*
X86953Y7170090D1*
X86099Y7166280D1*
X84891Y7162470D1*
X83347Y7158660D1*
X81595Y7154850D1*
X79622Y7151040D1*
X77230Y7147230D1*
X74151Y7143420D1*
X70260Y7139610D1*
X65417Y7135800D1*
X59296Y7131990D1*
X51193Y7128180D1*
X40845Y7124370D1*
X29330Y7120560D1*
X-24010Y7238670D2*
X-34531Y7234860D1*
X-43742Y7231050D1*
X-51076Y7227240D1*
X-56657Y7223430D1*
X-60856Y7219620D1*
X-63979Y7215810D1*
X-66325Y7212000D1*
X-67978Y7208190D1*
X-68930Y7204380D1*
X-69397Y7200570D1*
X-69600Y7196760D1*
X-69682Y7192950D1*
X-69698Y7189140D1*
X-69575Y7185330D1*
X-69079Y7181520D1*
X-68019Y7177710D1*
X-66408Y7173900D1*
X-64197Y7170090D1*
X-61290Y7166280D1*
X-57568Y7162470D1*
X-51872Y7158660D1*
X-41157Y7154850D1*
X-21727Y7151040D1*
X7084Y7147230D1*
X40760Y7143420D1*
X25520Y7238670D2*
X36186Y7234860D1*
X45871Y7231050D1*
X53998Y7227240D1*
X60190Y7223430D1*
X64493Y7219620D1*
X67420Y7215810D1*
X69342Y7212000D1*
X70530Y7208190D1*
X71520Y7204380D1*
X72635Y7200570D1*
X73565Y7196760D1*
X73776Y7192950D1*
X73229Y7189140D1*
X72403Y7185330D1*
X71672Y7181520D1*
X70845Y7177710D1*
X69631Y7173900D1*
X67942Y7170090D1*
X65542Y7166280D1*
X61813Y7162470D1*
X55609Y7158660D1*
X44670Y7154850D1*
X26156Y7151040D1*
X-571Y7147230D1*
X-31630Y7143420D1*
X-58300Y7086270D2*
X-63869Y7082460D1*
X-68758Y7078650D1*
X-72973Y7074840D1*
X-76409Y7071030D1*
X-78906Y7067220D1*
X-80715Y7063410D1*
X-82263Y7059600D1*
X-83513Y7055790D1*
X-84286Y7051980D1*
X-84680Y7048170D1*
X-84856Y7044360D1*
X-84928Y7040550D1*
X-84955Y7036740D1*
X-84965Y7032930D1*
X-84968Y7029120D1*
X-84969Y7025310D1*
X-84970Y7021500D1*
Y7017690D1*
Y7013880D1*
X-84955Y7010070D1*
X-84821Y7006260D1*
X-84336Y7002450D1*
X-83423Y6998640D1*
X-82446Y6994830D1*
X-81767Y6991020D1*
X-81268Y6987210D1*
X-80518Y6983400D1*
X-79146Y6979590D1*
X-77350Y6975780D1*
X-31630Y7086270D2*
X-25916Y7082460D1*
X-20538Y7078650D1*
X-15395Y7074840D1*
X-10848Y7071030D1*
X-7187Y7067220D1*
X-3978Y7063410D1*
X-791Y7059600D1*
X2252Y7055790D1*
X5000Y7051980D1*
X7642Y7048170D1*
X10280Y7044360D1*
X12801Y7040550D1*
X15336Y7036740D1*
X17928Y7032930D1*
X20446Y7029120D1*
X23108Y7025310D1*
X26183Y7021500D1*
X29628Y7017690D1*
X33445Y7013880D1*
X38109Y7010070D1*
X44603Y7006260D1*
X53444Y7002450D1*
X63620Y6998640D1*
X71240Y7078650D2*
Y7074840D1*
Y7071030D1*
Y7067220D1*
Y7063410D1*
X71255Y7059600D1*
X71389Y7055790D1*
X71874Y7051980D1*
X72787Y7048170D1*
X73764Y7044360D1*
X74413Y7040550D1*
X74633Y7036740D1*
X74309Y7032930D1*
X73463Y7029120D1*
X72497Y7025310D1*
X71708Y7021500D1*
X70843Y7017690D1*
X69442Y7013880D1*
X67481Y7010070D1*
X62064Y7006260D1*
X54084Y7002450D1*
X44570Y6998640D1*
X86480Y7078650D2*
Y7074840D1*
X86495Y7071030D1*
X86629Y7067220D1*
X87114Y7063410D1*
X88027Y7059600D1*
X89004Y7055790D1*
X89668Y7051980D1*
X90022Y7048170D1*
X90183Y7044360D1*
X90250Y7040550D1*
X90276Y7036740D1*
X90270Y7032930D1*
X90140Y7029120D1*
X89655Y7025310D1*
X88743Y7021500D1*
X87766Y7017690D1*
X87087Y7013880D1*
X86600Y7010070D1*
X85938Y7006260D1*
X84824Y7002450D1*
X83321Y6998640D1*
X81571Y6994830D1*
X79469Y6991020D1*
X76607Y6987210D1*
X72721Y6983400D1*
X68234Y6979590D1*
X63620Y6975780D1*
X-46870Y7063410D2*
X-53596Y7059600D1*
X-59131Y7055790D1*
X-63155Y7051980D1*
X-65972Y7048170D1*
X-67839Y7044360D1*
X-68878Y7040550D1*
X-69378Y7036740D1*
X-69594Y7032930D1*
X-69680Y7029120D1*
X-69713Y7025310D1*
X-69724Y7021500D1*
X-69728Y7017690D1*
X-69714Y7013880D1*
X-69581Y7010070D1*
X-69096Y7006260D1*
X-68183Y7002450D1*
X-67191Y6998640D1*
X-66393Y6994830D1*
X-65551Y6991020D1*
X-64445Y6987210D1*
X-63242Y6983400D1*
X-62110Y6979590D1*
X-73540Y6975780D1*
X-50680Y7063410D2*
X-43809Y7059600D1*
X-37771Y7055790D1*
X-32685Y7051980D1*
X-28256Y7048170D1*
X-24193Y7044360D1*
X-20410Y7040550D1*
X-17046Y7036740D1*
X-14149Y7032930D1*
X-11445Y7029120D1*
X-8783Y7025310D1*
X-6254Y7021500D1*
X-3716Y7017690D1*
X-1123Y7013880D1*
X1396Y7010070D1*
X4058Y7006260D1*
X7133Y7002450D1*
X10563Y6998640D1*
X14202Y6994830D1*
X17957Y6991020D1*
X21885Y6987210D1*
X26274Y6983400D1*
X31383Y6979590D1*
X36950Y6975780D1*
X-81160Y6869100D2*
Y6865290D1*
Y6861480D1*
Y6857670D1*
Y6853860D1*
Y6850050D1*
Y6846240D1*
Y6842430D1*
Y6838620D1*
Y6834810D1*
Y6831000D1*
Y6827190D1*
Y6823380D1*
Y6819570D1*
Y6815760D1*
Y6811950D1*
Y6808140D1*
X-81145Y6804330D1*
X-81011Y6800520D1*
X-80511Y6796710D1*
X-79464Y6792900D1*
X-77987Y6789090D1*
X-76246Y6785280D1*
X-74103Y6781470D1*
X-71486Y6777660D1*
X-65325Y6773850D1*
X-56803Y6770040D1*
X-46870Y6766230D1*
X-65920Y6869100D2*
Y6865290D1*
Y6861480D1*
Y6857670D1*
Y6853860D1*
Y6850050D1*
Y6846240D1*
Y6842430D1*
Y6838620D1*
Y6834810D1*
Y6831000D1*
Y6827190D1*
Y6823380D1*
Y6819570D1*
X-65905Y6815760D1*
X-65756Y6811950D1*
X-65122Y6808140D1*
X-63575Y6804330D1*
X-61055Y6800520D1*
X-57897Y6796710D1*
X-54490Y6792900D1*
X71240Y6869100D2*
Y6865290D1*
Y6861480D1*
Y6857670D1*
Y6853860D1*
Y6850050D1*
Y6846240D1*
Y6842430D1*
Y6838620D1*
Y6834810D1*
Y6831000D1*
Y6827190D1*
Y6823380D1*
Y6819570D1*
Y6815760D1*
Y6811950D1*
Y6808140D1*
Y6804330D1*
Y6800520D1*
Y6796710D1*
Y6792900D1*
X86480Y6869100D2*
Y6865290D1*
Y6861480D1*
Y6857670D1*
Y6853860D1*
Y6850050D1*
Y6846240D1*
Y6842430D1*
Y6838620D1*
Y6834810D1*
Y6831000D1*
Y6827190D1*
Y6823380D1*
Y6819570D1*
Y6815760D1*
Y6811950D1*
Y6808140D1*
Y6804330D1*
Y6800520D1*
Y6796710D1*
Y6792900D1*
Y6789090D1*
Y6785280D1*
Y6781470D1*
Y6777660D1*
Y6773850D1*
Y6770040D1*
Y6766230D1*
X-1150Y6861480D2*
Y6857670D1*
Y6853860D1*
Y6850050D1*
Y6846240D1*
Y6842430D1*
Y6838620D1*
Y6834810D1*
Y6831000D1*
Y6827190D1*
Y6823380D1*
Y6819570D1*
Y6815760D1*
Y6811950D1*
Y6808140D1*
Y6804330D1*
Y6800520D1*
Y6796710D1*
Y6792900D1*
X14090Y6861480D2*
Y6857670D1*
Y6853860D1*
Y6850050D1*
Y6846240D1*
Y6842430D1*
Y6838620D1*
Y6834810D1*
Y6831000D1*
Y6827190D1*
Y6823380D1*
Y6819570D1*
Y6815760D1*
Y6811950D1*
Y6808140D1*
Y6804330D1*
Y6800520D1*
Y6796710D1*
Y6792900D1*
X75050Y6739560D2*
X58800Y6735750D1*
X44062Y6731940D1*
X30937Y6728130D1*
X19143Y6724320D1*
X8407Y6720510D1*
X-1556Y6716700D1*
X-10843Y6712890D1*
X-19549Y6709080D1*
X-28121Y6705270D1*
X-36857Y6701460D1*
X-45536Y6697650D1*
X-53837Y6693840D1*
X-61657Y6690030D1*
X-68659Y6686220D1*
X-74166Y6682410D1*
X-78368Y6678600D1*
X-79816Y6674790D1*
X-80592Y6670980D1*
X-80939Y6667170D1*
X-81064Y6663360D1*
X-80938Y6659550D1*
X-80516Y6655740D1*
X-78190Y6651930D1*
X-72456Y6648120D1*
X-65113Y6644310D1*
X-56619Y6640500D1*
X-47415Y6636690D1*
X-37700Y6632880D1*
X-27675Y6629070D1*
X-17626Y6625260D1*
X-7506Y6621450D1*
X2694Y6617640D1*
X12813Y6613830D1*
X22960Y6610020D1*
X33169Y6606210D1*
X43292Y6602400D1*
X53428Y6598590D1*
X63532Y6594780D1*
X73258Y6590970D1*
X82670Y6587160D1*
X86480Y6739560D2*
Y6735750D1*
Y6731940D1*
X86420Y6728130D1*
X86242Y6724320D1*
X84337Y6720510D1*
X76780Y6716700D1*
X65697Y6712890D1*
X52545Y6709080D1*
X39262Y6705270D1*
X26751Y6701460D1*
X15197Y6697650D1*
X4550Y6693840D1*
X-5397Y6690030D1*
X-14792Y6686220D1*
X-23846Y6682410D1*
X-32845Y6678600D1*
X-41655Y6674790D1*
X-50081Y6670980D1*
X-58300Y6667170D1*
X-48172Y6663360D1*
X-37891Y6659550D1*
X-27318Y6655740D1*
X-16746Y6651930D1*
X-6412Y6648120D1*
X3838Y6644310D1*
X14092Y6640500D1*
X24232Y6636690D1*
X34386Y6632880D1*
X44598Y6629070D1*
X54691Y6625260D1*
X64527Y6621450D1*
X73319Y6617640D1*
X80719Y6613830D1*
X84156Y6610020D1*
X85396Y6606210D1*
X86036Y6602400D1*
X86312Y6598590D1*
X86420Y6594780D1*
X86460Y6590970D1*
X86480Y6587160D1*
X-81160Y6556680D2*
Y6552870D1*
Y6549060D1*
Y6545250D1*
Y6541440D1*
Y6537630D1*
Y6533820D1*
X86480Y6556680D2*
Y6552870D1*
Y6549060D1*
Y6545250D1*
Y6541440D1*
Y6537630D1*
Y6533820D1*
X71240Y6499530D2*
Y6495720D1*
Y6491910D1*
Y6488100D1*
Y6484290D1*
Y6480480D1*
Y6476670D1*
Y6472860D1*
Y6469050D1*
Y6465240D1*
Y6461430D1*
Y6457620D1*
Y6453810D1*
Y6450000D1*
Y6446190D1*
Y6442380D1*
X86480Y6499530D2*
Y6495720D1*
Y6491910D1*
Y6488100D1*
Y6484290D1*
Y6480480D1*
Y6476670D1*
Y6472860D1*
Y6469050D1*
Y6465240D1*
Y6461430D1*
Y6457620D1*
Y6453810D1*
Y6450000D1*
Y6446190D1*
Y6442380D1*
Y6438570D1*
Y6434760D1*
Y6430950D1*
Y6427140D1*
Y6423330D1*
Y6419520D1*
Y6415710D1*
Y6411900D1*
Y6408090D1*
Y6404280D1*
Y6400470D1*
Y6396660D1*
Y6392850D1*
Y6389040D1*
Y6385230D1*
Y6381420D1*
Y6377610D1*
Y6373800D1*
Y6369990D1*
Y6366180D1*
Y6362370D1*
X-81160Y6442380D2*
Y6438570D1*
Y6434760D1*
Y6430950D1*
Y6427140D1*
Y6423330D1*
Y6419520D1*
X71240D2*
Y6415710D1*
Y6411900D1*
Y6408090D1*
Y6404280D1*
Y6400470D1*
Y6396660D1*
Y6392850D1*
Y6389040D1*
Y6385230D1*
Y6381420D1*
Y6377610D1*
Y6373800D1*
Y6369990D1*
Y6366180D1*
Y6362370D1*
X-81160Y6328080D2*
Y6324270D1*
Y6320460D1*
Y6316650D1*
Y6312840D1*
Y6309030D1*
Y6305220D1*
X86480Y6328080D2*
Y6324270D1*
Y6320460D1*
Y6316650D1*
Y6312840D1*
Y6309030D1*
Y6305220D1*
X-81160Y6263310D2*
X-82462Y6259500D1*
X-83596Y6255690D1*
X-84319Y6251880D1*
X-84692Y6248070D1*
X-84860Y6244260D1*
X-84929Y6240450D1*
X-84955Y6236640D1*
X-84965Y6232830D1*
X-84968Y6229020D1*
X-84969Y6225210D1*
X-84970Y6221400D1*
Y6217590D1*
Y6213780D1*
Y6209970D1*
X-84955Y6206160D1*
X-84821Y6202350D1*
X-84336Y6198540D1*
X-83408Y6194730D1*
X-82297Y6190920D1*
X-81133Y6187110D1*
X-79718Y6183300D1*
X-77960Y6179490D1*
X-75801Y6175680D1*
X-73250Y6171870D1*
X-70302Y6168060D1*
X-66606Y6164250D1*
X-61900Y6160440D1*
X-55972Y6156630D1*
X-48283Y6152820D1*
X-38614Y6149010D1*
X-27820Y6145200D1*
X-69730Y6263310D2*
X-68116Y6259500D1*
X-67130Y6255690D1*
X-67775Y6251880D1*
X-68578Y6248070D1*
X-69161Y6244260D1*
X-69481Y6240450D1*
X-69630Y6236640D1*
X-69692Y6232830D1*
X-69716Y6229020D1*
X-69725Y6225210D1*
X-69728Y6221400D1*
X-69729Y6217590D1*
X-69715Y6213780D1*
X-69581Y6209970D1*
X-69081Y6206160D1*
X-68019Y6202350D1*
X-66408Y6198540D1*
X-64197Y6194730D1*
X-61290Y6190920D1*
X-57568Y6187110D1*
X-51872Y6183300D1*
X-41157Y6179490D1*
X-21727Y6175680D1*
X7084Y6171870D1*
X40760Y6168060D1*
X82670Y6263310D2*
X67430Y6259500D1*
X69189Y6255690D1*
X70283Y6251880D1*
X70837Y6248070D1*
X71097Y6244260D1*
X71331Y6240450D1*
X71854Y6236640D1*
X72780Y6232830D1*
X73761Y6229020D1*
X74413Y6225210D1*
X74632Y6221400D1*
X74309Y6217590D1*
X73463Y6213780D1*
X72497Y6209970D1*
X71708Y6206160D1*
X70858Y6202350D1*
X69636Y6198540D1*
X67943Y6194730D1*
X65542Y6190920D1*
X61813Y6187110D1*
X55609Y6183300D1*
X44670Y6179490D1*
X26156Y6175680D1*
X-571Y6171870D1*
X-31630Y6168060D1*
X86480Y6263310D2*
Y6259500D1*
X86495Y6255690D1*
X86629Y6251880D1*
X87114Y6248070D1*
X88027Y6244260D1*
X89004Y6240450D1*
X89668Y6236640D1*
X90022Y6232830D1*
X90183Y6229020D1*
X90250Y6225210D1*
X90276Y6221400D1*
X90270Y6217590D1*
X90140Y6213780D1*
X89655Y6209970D1*
X88743Y6206160D1*
X87766Y6202350D1*
X87087Y6198540D1*
X86600Y6194730D1*
X85938Y6190920D1*
X84824Y6187110D1*
X83321Y6183300D1*
X81586Y6179490D1*
X79618Y6175680D1*
X77244Y6171870D1*
X74285Y6168060D1*
X70746Y6164250D1*
X66330Y6160440D1*
X60272Y6156630D1*
X51850Y6152820D1*
X41153Y6149010D1*
X29330Y6145200D1*
X-81160Y6103290D2*
Y6099480D1*
Y6095670D1*
Y6091860D1*
Y6088050D1*
Y6084240D1*
Y6080430D1*
X52190Y6103290D2*
X59061Y6099480D1*
X65099Y6095670D1*
X70171Y6091860D1*
X74451Y6088050D1*
X77909Y6084240D1*
X80412Y6080430D1*
X82224Y6076620D1*
X83773Y6072810D1*
X85038Y6069000D1*
X85945Y6065190D1*
X86824Y6061380D1*
X87913Y6057570D1*
X88961Y6053760D1*
X89653Y6049950D1*
X90016Y6046140D1*
X90181Y6042330D1*
X90235Y6038520D1*
X90127Y6034710D1*
X89651Y6030900D1*
X88741Y6027090D1*
X87751Y6023280D1*
X86953Y6019470D1*
X86114Y6015660D1*
X85025Y6011850D1*
X83833Y6008040D1*
X82508Y6004230D1*
X80598Y6000420D1*
X77895Y5996610D1*
X74475Y5992800D1*
X70129Y5988990D1*
X64294Y5985180D1*
X56783Y5981370D1*
X48380Y5977560D1*
X-16390Y6080430D2*
Y6076620D1*
Y6072810D1*
Y6069000D1*
Y6065190D1*
Y6061380D1*
Y6057570D1*
Y6053760D1*
Y6049950D1*
Y6046140D1*
Y6042330D1*
Y6038520D1*
Y6034710D1*
Y6030900D1*
Y6027090D1*
Y6023280D1*
Y6019470D1*
Y6015660D1*
Y6011850D1*
Y6008040D1*
Y6004230D1*
Y6000420D1*
X-1150Y6080430D2*
Y6076620D1*
Y6072810D1*
Y6069000D1*
Y6065190D1*
Y6061380D1*
Y6057570D1*
Y6053760D1*
Y6049950D1*
Y6046140D1*
Y6042330D1*
Y6038520D1*
Y6034710D1*
Y6030900D1*
Y6027090D1*
Y6023280D1*
Y6019470D1*
Y6015660D1*
Y6011850D1*
Y6008040D1*
Y6004230D1*
Y6000420D1*
X36950Y6080430D2*
X46868Y6076620D1*
X55000Y6072810D1*
X60862Y6069000D1*
X64848Y6065190D1*
X67597Y6061380D1*
X69543Y6057570D1*
X71041Y6053760D1*
X72442Y6049950D1*
X73616Y6046140D1*
X74230Y6042330D1*
X74130Y6038520D1*
X73376Y6034710D1*
X72335Y6030900D1*
X71198Y6027090D1*
X69793Y6023280D1*
X67994Y6019470D1*
X65419Y6015660D1*
X61250Y6011850D1*
X54825Y6008040D1*
X46347Y6004230D1*
X36950Y6000420D1*
X-81160D2*
Y5996610D1*
Y5992800D1*
Y5988990D1*
Y5985180D1*
Y5981370D1*
Y5977560D1*
X17900Y5935650D2*
X9270Y5931840D1*
X2152Y5928030D1*
X-3353Y5924220D1*
X-7527Y5920410D1*
X-10658Y5916600D1*
X-13135Y5912790D1*
X-15273Y5908980D1*
X-17137Y5905170D1*
X-18580Y5901360D1*
X-19449Y5897550D1*
X-19884Y5893740D1*
X-20076Y5889930D1*
X-20154Y5886120D1*
X-20184Y5882310D1*
X-20194Y5878500D1*
X-20198Y5874690D1*
X-20199Y5870880D1*
X-20200Y5867070D1*
Y5863260D1*
Y5859450D1*
Y5855640D1*
Y5851830D1*
Y5848020D1*
Y5844210D1*
Y5840400D1*
X48380Y5935650D2*
X56995Y5931840D1*
X63994Y5928030D1*
X69133Y5924220D1*
X72761Y5920410D1*
X75461Y5916600D1*
X77689Y5912790D1*
X79588Y5908980D1*
X81044Y5905170D1*
X81931Y5901360D1*
X82502Y5897550D1*
X83180Y5893740D1*
X84171Y5889930D1*
X85178Y5886120D1*
X85853Y5882310D1*
X86210Y5878500D1*
X86373Y5874690D1*
X86440Y5870880D1*
X86466Y5867070D1*
X86475Y5863260D1*
X86478Y5859450D1*
X86479Y5855640D1*
X86480Y5851830D1*
Y5848020D1*
Y5844210D1*
Y5840400D1*
Y5836590D1*
Y5832780D1*
Y5828970D1*
Y5825160D1*
Y5821350D1*
Y5817540D1*
X33140Y5912790D2*
X22634Y5908980D1*
X13557Y5905170D1*
X6709Y5901360D1*
X2055Y5897550D1*
X-1033Y5893740D1*
X-3007Y5889930D1*
X-4086Y5886120D1*
X-4601Y5882310D1*
X-4822Y5878500D1*
X-4909Y5874690D1*
X-4942Y5870880D1*
X-4954Y5867070D1*
X-4958Y5863260D1*
X-4959Y5859450D1*
X-4960Y5855640D1*
Y5851830D1*
Y5848020D1*
Y5844210D1*
Y5840400D1*
X33140Y5912790D2*
X43072Y5908980D1*
X51324Y5905170D1*
X57537Y5901360D1*
X61950Y5897550D1*
X65240Y5893740D1*
X66516Y5889930D1*
X67614Y5886120D1*
X68801Y5882310D1*
X69889Y5878500D1*
X70596Y5874690D1*
X70964Y5870880D1*
X71131Y5867070D1*
X71199Y5863260D1*
X71225Y5859450D1*
X71235Y5855640D1*
X71238Y5851830D1*
X71239Y5848020D1*
X71240Y5844210D1*
Y5840400D1*
X-81160D2*
Y5836590D1*
Y5832780D1*
Y5828970D1*
Y5825160D1*
Y5821350D1*
Y5817540D1*
Y5764200D2*
Y5760390D1*
Y5756580D1*
Y5752770D1*
Y5748960D1*
Y5745150D1*
Y5741340D1*
X52190Y5764200D2*
X59061Y5760390D1*
X65099Y5756580D1*
X70171Y5752770D1*
X74451Y5748960D1*
X77909Y5745150D1*
X80412Y5741340D1*
X82224Y5737530D1*
X83773Y5733720D1*
X85038Y5729910D1*
X85945Y5726100D1*
X86824Y5722290D1*
X87913Y5718480D1*
X88961Y5714670D1*
X89653Y5710860D1*
X90016Y5707050D1*
X90181Y5703240D1*
X90235Y5699430D1*
X90127Y5695620D1*
X89651Y5691810D1*
X88741Y5688000D1*
X87751Y5684190D1*
X86953Y5680380D1*
X86114Y5676570D1*
X85025Y5672760D1*
X83833Y5668950D1*
X82508Y5665140D1*
X80598Y5661330D1*
X77895Y5657520D1*
X74475Y5653710D1*
X70129Y5649900D1*
X64294Y5646090D1*
X56783Y5642280D1*
X48380Y5638470D1*
X-16390Y5741340D2*
Y5737530D1*
Y5733720D1*
Y5729910D1*
Y5726100D1*
Y5722290D1*
Y5718480D1*
Y5714670D1*
Y5710860D1*
Y5707050D1*
Y5703240D1*
Y5699430D1*
Y5695620D1*
Y5691810D1*
Y5688000D1*
Y5684190D1*
Y5680380D1*
Y5676570D1*
Y5672760D1*
Y5668950D1*
Y5665140D1*
Y5661330D1*
X-1150Y5741340D2*
Y5737530D1*
Y5733720D1*
Y5729910D1*
Y5726100D1*
Y5722290D1*
Y5718480D1*
Y5714670D1*
Y5710860D1*
Y5707050D1*
Y5703240D1*
Y5699430D1*
Y5695620D1*
Y5691810D1*
Y5688000D1*
Y5684190D1*
Y5680380D1*
Y5676570D1*
Y5672760D1*
Y5668950D1*
Y5665140D1*
Y5661330D1*
X36950Y5741340D2*
X46868Y5737530D1*
X55000Y5733720D1*
X60862Y5729910D1*
X64848Y5726100D1*
X67597Y5722290D1*
X69543Y5718480D1*
X71041Y5714670D1*
X72442Y5710860D1*
X73616Y5707050D1*
X74230Y5703240D1*
X74130Y5699430D1*
X73376Y5695620D1*
X72335Y5691810D1*
X71198Y5688000D1*
X69793Y5684190D1*
X67994Y5680380D1*
X65419Y5676570D1*
X61250Y5672760D1*
X54825Y5668950D1*
X46347Y5665140D1*
X36950Y5661330D1*
X-81160D2*
Y5657520D1*
Y5653710D1*
Y5649900D1*
Y5646090D1*
Y5642280D1*
Y5638470D1*
Y5600370D2*
X-82462Y5596560D1*
X-83596Y5592750D1*
X-84319Y5588940D1*
X-84692Y5585130D1*
X-84860Y5581320D1*
X-84929Y5577510D1*
X-84955Y5573700D1*
X-84965Y5569890D1*
X-84968Y5566080D1*
X-84969Y5562270D1*
X-84970Y5558460D1*
Y5554650D1*
Y5550840D1*
Y5547030D1*
X-84955Y5543220D1*
X-84821Y5539410D1*
X-84336Y5535600D1*
X-83408Y5531790D1*
X-82297Y5527980D1*
X-81133Y5524170D1*
X-79718Y5520360D1*
X-77960Y5516550D1*
X-75801Y5512740D1*
X-73250Y5508930D1*
X-70302Y5505120D1*
X-66610Y5501310D1*
X-61972Y5497500D1*
X-56541Y5493690D1*
X-50680Y5489880D1*
X-69730Y5600370D2*
X-68116Y5596560D1*
X-67130Y5592750D1*
X-67775Y5588940D1*
X-68578Y5585130D1*
X-69161Y5581320D1*
X-69481Y5577510D1*
X-69630Y5573700D1*
X-69692Y5569890D1*
X-69716Y5566080D1*
X-69725Y5562270D1*
X-69728Y5558460D1*
X-69729Y5554650D1*
X-69715Y5550840D1*
X-69581Y5547030D1*
X-69081Y5543220D1*
X-68019Y5539410D1*
X-66408Y5535600D1*
X-64197Y5531790D1*
X-61290Y5527980D1*
X-57568Y5524170D1*
X-51872Y5520360D1*
X-41157Y5516550D1*
X-21727Y5512740D1*
X7084Y5508930D1*
X40760Y5505120D1*
X82670Y5600370D2*
X67430Y5596560D1*
X69189Y5592750D1*
X70283Y5588940D1*
X70837Y5585130D1*
X71097Y5581320D1*
X71331Y5577510D1*
X71854Y5573700D1*
X72780Y5569890D1*
X73761Y5566080D1*
X74413Y5562270D1*
X74632Y5558460D1*
X74309Y5554650D1*
X73463Y5550840D1*
X72497Y5547030D1*
X71708Y5543220D1*
X70858Y5539410D1*
X69636Y5535600D1*
X67943Y5531790D1*
X65542Y5527980D1*
X61813Y5524170D1*
X55609Y5520360D1*
X44670Y5516550D1*
X26156Y5512740D1*
X-571Y5508930D1*
X-31630Y5505120D1*
X86480Y5600370D2*
Y5596560D1*
X86495Y5592750D1*
X86629Y5588940D1*
X87114Y5585130D1*
X88027Y5581320D1*
X89004Y5577510D1*
X89668Y5573700D1*
X90022Y5569890D1*
X90183Y5566080D1*
X90250Y5562270D1*
X90276Y5558460D1*
X90270Y5554650D1*
X90140Y5550840D1*
X89655Y5547030D1*
X88743Y5543220D1*
X87766Y5539410D1*
X87087Y5535600D1*
X86600Y5531790D1*
X85938Y5527980D1*
X84824Y5524170D1*
X83321Y5520360D1*
X81586Y5516550D1*
X79618Y5512740D1*
X77244Y5508930D1*
X74285Y5505120D1*
X70764Y5501310D1*
X66558Y5497500D1*
X61526Y5493690D1*
X56000Y5489880D1*
X-189243Y4606043D2*
X-192791Y4598423D1*
X-195247Y4590803D1*
X-197326Y4583183D1*
X-199642Y4575563D1*
X-201794Y4567943D1*
X-203228Y4560323D1*
X-204230Y4552703D1*
X-205534Y4545083D1*
X-207496Y4537463D1*
X-209532Y4529843D1*
X-211147Y4522223D1*
X-212832Y4514603D1*
X-214982Y4506983D1*
X-217070Y4499363D1*
X-218481Y4491743D1*
X-219474Y4484123D1*
X-220775Y4476503D1*
X-222736Y4468883D1*
X-224772Y4461263D1*
X-226388Y4453643D1*
X-228072Y4446023D1*
X-230222Y4438403D1*
X-232310Y4430783D1*
X-233721Y4423163D1*
X-234714Y4415543D1*
X-236015Y4407923D1*
X-237976Y4400303D1*
X-240012Y4392683D1*
X-241628Y4385063D1*
X-243312Y4377443D1*
X-245462Y4369823D1*
X-247699Y4362203D1*
X-250449Y4354583D1*
X-254547Y4346963D1*
X-266286Y4339343D1*
X-278344Y4331723D1*
X-288487Y4324103D1*
X-292331Y4316483D1*
X-294401Y4308863D1*
X-295330Y4301243D1*
X-295705Y4293623D1*
X-295847Y4286003D1*
X-295897Y4278383D1*
X-295915Y4270763D1*
X-295921Y4263143D1*
X-295922Y4255523D1*
X-295923Y4247903D1*
Y4240283D1*
Y4232663D1*
Y4225043D1*
Y4217423D1*
Y4209803D1*
X-295864Y4202183D1*
X-295283Y4194563D1*
X-293899Y4186943D1*
X-287961Y4179323D1*
X-280683Y4171703D1*
X199377Y4606043D2*
X203184Y4598423D1*
X206349Y4590803D1*
X209283Y4583183D1*
X211758Y4575563D1*
X213554Y4567943D1*
X215307Y4560323D1*
X217483Y4552703D1*
X219579Y4545083D1*
X220993Y4537463D1*
X221987Y4529843D1*
X223288Y4522223D1*
X225249Y4514603D1*
X227285Y4506983D1*
X228901Y4499363D1*
X230585Y4491743D1*
X232736Y4484123D1*
X234854Y4476503D1*
X236502Y4468883D1*
X238199Y4461263D1*
X240353Y4453643D1*
X242443Y4446023D1*
X243854Y4438403D1*
X244847Y4430783D1*
X246148Y4423163D1*
X248109Y4415543D1*
X250115Y4407923D1*
X251493Y4400303D1*
X252474Y4392683D1*
X253771Y4385063D1*
X255730Y4377443D1*
X257735Y4369823D1*
X259083Y4362203D1*
X259798Y4354583D1*
X260137Y4346963D1*
X260337Y4339343D1*
X280529Y4331723D1*
X296100Y4324103D1*
X302228Y4316483D1*
X304300Y4308863D1*
X305348Y4301243D1*
X305792Y4293623D1*
X305963Y4286003D1*
X306025Y4278383D1*
X306046Y4270763D1*
X306053Y4263143D1*
X306056Y4255523D1*
Y4247903D1*
X306057Y4240283D1*
Y4232663D1*
Y4225043D1*
Y4217423D1*
Y4209803D1*
X305997Y4202183D1*
X305417Y4194563D1*
X304033Y4186943D1*
X298094Y4179323D1*
X290817Y4171703D1*
X-151143Y4567943D2*
X-157266Y4560323D1*
X-161722Y4552703D1*
X-164304Y4545083D1*
X-165809Y4537463D1*
X-167316Y4529843D1*
X-169354Y4522223D1*
X-171388Y4514603D1*
X-172775Y4506983D1*
X-173759Y4499363D1*
X-175057Y4491743D1*
X-177017Y4484123D1*
X-179052Y4476503D1*
X-180668Y4468883D1*
X-182352Y4461263D1*
X-184502Y4453643D1*
X-186620Y4446023D1*
X-188269Y4438403D1*
X-189965Y4430783D1*
X-192120Y4423163D1*
X-194210Y4415543D1*
X-195621Y4407923D1*
X-196614Y4400303D1*
X-197915Y4392683D1*
X-199876Y4385063D1*
X-201882Y4377443D1*
X-203260Y4369823D1*
X-204271Y4362203D1*
X-205863Y4354583D1*
X-209064Y4346963D1*
X-213990Y4339343D1*
X-219723Y4331723D1*
X176517Y4567943D2*
X176546Y4560323D1*
X176814Y4552703D1*
X177785Y4545083D1*
X179610Y4537463D1*
X181564Y4529843D1*
X182923Y4522223D1*
X183897Y4514603D1*
X185192Y4506983D1*
X187150Y4499363D1*
X189185Y4491743D1*
X190801Y4484123D1*
X192485Y4476503D1*
X194636Y4468883D1*
X196754Y4461263D1*
X198402Y4453643D1*
X200099Y4446023D1*
X202253Y4438403D1*
X204343Y4430783D1*
X205754Y4423163D1*
X206747Y4415543D1*
X208048Y4407923D1*
X210009Y4400303D1*
X212015Y4392683D1*
X213393Y4385063D1*
X214374Y4377443D1*
X215671Y4369823D1*
X217630Y4362203D1*
X219636Y4354583D1*
X220989Y4346963D1*
X221742Y4339343D1*
X222237Y4331723D1*
X-257823Y4293623D2*
Y4286003D1*
Y4278383D1*
Y4270763D1*
Y4263143D1*
Y4255523D1*
Y4247903D1*
Y4240283D1*
Y4232663D1*
Y4225043D1*
Y4217423D1*
Y4209803D1*
X267957Y4293623D2*
Y4286003D1*
Y4278383D1*
Y4270763D1*
Y4263143D1*
Y4255523D1*
Y4247903D1*
Y4240283D1*
Y4232663D1*
Y4225043D1*
Y4217423D1*
Y4209803D1*
X-13983Y4171703D2*
Y4164083D1*
X-14013Y4156463D1*
X-14281Y4148843D1*
X-15282Y4141223D1*
X-17375Y4133603D1*
X-20329Y4125983D1*
X-23751Y4118363D1*
X-27412Y4110743D1*
X-31187Y4103123D1*
X-35250Y4095503D1*
X-40047Y4087883D1*
X-45954Y4080263D1*
X-52712Y4072643D1*
X-59979Y4065023D1*
X-67712Y4057403D1*
X-76274Y4049783D1*
X-85966Y4042163D1*
X-96533Y4034543D1*
X-107602Y4026923D1*
X-119150Y4019303D1*
X-131516Y4011683D1*
X-145024Y4004063D1*
X-159425Y3996443D1*
X-174548Y3988823D1*
X-190633Y3981203D1*
X-207937Y3973583D1*
X-226289Y3965963D1*
X-245051Y3958343D1*
X-262236Y3950723D1*
X-276834Y3943103D1*
X-283672Y3935483D1*
X-286475Y3927863D1*
X-286085Y3920243D1*
X-283926Y3912623D1*
X-280683Y3905003D1*
X24117Y4171703D2*
Y4164083D1*
Y4156463D1*
Y4148843D1*
Y4141223D1*
Y4133603D1*
Y4125983D1*
X24146Y4118363D1*
X24414Y4110743D1*
X25385Y4103123D1*
X27240Y4095503D1*
X29462Y4087883D1*
X31762Y4080263D1*
X34323Y4072643D1*
X36868Y4065023D1*
X39332Y4057403D1*
X42212Y4049783D1*
X45747Y4042163D1*
X50042Y4034543D1*
X54879Y4026923D1*
X59773Y4019303D1*
X65013Y4011683D1*
X70876Y4004063D1*
X76758Y3996443D1*
X82208Y3988823D1*
X87763Y3981203D1*
X94268Y3973583D1*
X102133Y3965963D1*
X111248Y3958343D1*
X120685Y3950723D1*
X129612Y3943103D1*
X138187Y3935483D1*
X147095Y3927863D1*
X156701Y3920243D1*
X166594Y3912623D1*
X176562Y3905003D1*
X187018Y3897383D1*
X198186Y3889763D1*
X210333Y3882143D1*
X223491Y3874523D1*
X236858Y3866903D1*
X249877Y3859283D1*
X262943Y3851663D1*
X276198Y3844043D1*
X288173Y3836423D1*
X298247Y3828803D1*
X302211Y3821183D1*
X304778Y3813563D1*
X304086Y3805943D1*
X301772Y3798323D1*
X298437Y3790703D1*
X-242583Y4110743D2*
X-264568Y4103123D1*
X-283179Y4095503D1*
X-298509Y4087883D1*
X-311509Y4080263D1*
X-322724Y4072643D1*
X-332360Y4065023D1*
X-340955Y4057403D1*
X-348967Y4049783D1*
X-356488Y4042163D1*
X-363200Y4034543D1*
X-368988Y4026923D1*
X-374394Y4019303D1*
X-379687Y4011683D1*
X-384508Y4004063D1*
X-388881Y3996443D1*
X-393183Y3988823D1*
X-397794Y3981203D1*
X-402504Y3973583D1*
X-406451Y3965963D1*
X-409648Y3958343D1*
X-412831Y3950723D1*
X-416235Y3943103D1*
X-419611Y3935483D1*
X-422612Y3927863D1*
X-425261Y3920243D1*
X-427936Y3912623D1*
X-430297Y3905003D1*
X-432047Y3897383D1*
X-433753Y3889763D1*
X-435655Y3882143D1*
X-437356Y3874523D1*
X-436509Y3866903D1*
X-432869Y3859283D1*
X-423104Y3851663D1*
X-407543Y3844043D1*
X-385177Y3836423D1*
X-357120Y3828803D1*
X-326403Y3821183D1*
X-135903Y4110743D2*
X-115446Y4103123D1*
X-100297Y4095503D1*
X-89368Y4087883D1*
X-86178Y4080263D1*
X-87450Y4072643D1*
X-92304Y4065023D1*
X-97803Y4057403D1*
X-219723Y4072643D2*
X-240796Y4065023D1*
X-259486Y4057403D1*
X-275153Y4049783D1*
X-288408Y4042163D1*
X-299761Y4034543D1*
X-309460Y4026923D1*
X-318050Y4019303D1*
X-325834Y4011683D1*
X-332655Y4004063D1*
X-338485Y3996443D1*
X-343906Y3988823D1*
X-349204Y3981203D1*
X-354028Y3973583D1*
X-358371Y3965963D1*
X-362435Y3958343D1*
X-366343Y3950723D1*
X-370199Y3943103D1*
X-374018Y3935483D1*
X-377809Y3927863D1*
X-381377Y3920243D1*
X-384483Y3912623D1*
X-387378Y3905003D1*
X-390889Y3897383D1*
X-394983Y3889763D1*
X-375057Y3882143D1*
X-351166Y3874523D1*
X-324179Y3866903D1*
X-295923Y3859283D1*
X-158763Y4072643D2*
X-135903Y4065023D1*
X-113043Y4057403D1*
X161277D2*
X132872Y4049783D1*
X113425Y4042163D1*
X100141Y4034543D1*
X94795Y4026923D1*
X98194Y4019303D1*
X106269Y4011683D1*
X115557Y4004063D1*
X206997Y4057403D2*
X235364Y4049783D1*
X259140Y4042163D1*
X277908Y4034543D1*
X292542Y4026923D1*
X304638Y4019303D1*
X315691Y4011683D1*
X325936Y4004063D1*
X335116Y3996443D1*
X343271Y3988823D1*
X350277Y3981203D1*
X356217Y3973583D1*
X361909Y3965963D1*
X367952Y3958343D1*
X373872Y3950723D1*
X379078Y3943103D1*
X383610Y3935483D1*
X387757Y3927863D1*
X391697Y3920243D1*
X395566Y3912623D1*
X399389Y3905003D1*
X403211Y3897383D1*
X407018Y3889763D1*
X410805Y3882143D1*
X414371Y3874523D1*
X417454Y3866903D1*
X420166Y3859283D1*
X423120Y3851663D1*
X426427Y3844043D1*
X429766Y3836423D1*
X432753Y3828803D1*
X435397Y3821183D1*
X438070Y3813563D1*
X440430Y3805943D1*
X442181Y3798323D1*
X443917Y3790703D1*
X446086Y3783083D1*
X448180Y3775463D1*
X449563Y3767843D1*
X450260Y3760223D1*
X450233Y3752603D1*
X449511Y3744983D1*
X444645Y3737363D1*
X430275Y3729743D1*
X408771Y3722123D1*
X379561Y3714503D1*
X344214Y3706883D1*
X306057Y3699263D1*
X-13983Y4049783D2*
X-21283Y4042163D1*
X-27629Y4034543D1*
X-32154Y4026923D1*
X-34726Y4019303D1*
X-35999Y4011683D1*
X-36804Y4004063D1*
X-37989Y3996443D1*
X-39894Y3988823D1*
X-41876Y3981203D1*
X-43245Y3973583D1*
X-44223Y3965963D1*
X-45518Y3958343D1*
X-47507Y3950723D1*
X-49780Y3943103D1*
X-52128Y3935483D1*
X-54935Y3927863D1*
X-58215Y3920243D1*
X-61801Y3912623D1*
X-65781Y3905003D1*
X-70546Y3897383D1*
X-76441Y3889763D1*
X-83194Y3882143D1*
X-90430Y3874523D1*
X-97924Y3866903D1*
X-105783Y3859283D1*
X-114680Y3851663D1*
X-125676Y3844043D1*
X-139511Y3836423D1*
X-156053Y3828803D1*
X-174003Y3821183D1*
X1257Y4049783D2*
X2464Y4042163D1*
X4621Y4034543D1*
X7595Y4026923D1*
X11022Y4019303D1*
X14655Y4011683D1*
X18103Y4004063D1*
X20630Y3996443D1*
X22034Y3988823D1*
X20534Y3981203D1*
X18568Y3973583D1*
X16391Y3965963D1*
X13910Y3958343D1*
X11653Y3950723D1*
X10197Y3943103D1*
X9441Y3935483D1*
X9100Y3927863D1*
X8960Y3920243D1*
X8906Y3912623D1*
X8887Y3905003D1*
X8880Y3897383D1*
X8878Y3889763D1*
X8877Y3882143D1*
X8907Y3874523D1*
X9174Y3866903D1*
X10145Y3859283D1*
X12000Y3851663D1*
X14222Y3844043D1*
X16522Y3836423D1*
X19083Y3828803D1*
X21658Y3821183D1*
X24360Y3813563D1*
X27943Y3805943D1*
X32362Y3798323D1*
X37053Y3790703D1*
X42207Y3783083D1*
X48065Y3775463D1*
X54202Y3767843D1*
X60649Y3760223D1*
X68265Y3752603D1*
X77456Y3744983D1*
X87831Y3737363D1*
X99378Y3729743D1*
X113164Y3722123D1*
X130858Y3714503D1*
X152643Y3706883D1*
X176517Y3699263D1*
X206997Y4019303D2*
X161277Y4011683D1*
X115557Y4004063D1*
X176517Y4019303D2*
X205149Y4011683D1*
X230894Y4004063D1*
X251972Y3996443D1*
X268195Y3988823D1*
X281138Y3981203D1*
X292547Y3973583D1*
X302683Y3965963D1*
X310983Y3958343D1*
X317603Y3950723D1*
X323605Y3943103D1*
X329776Y3935483D1*
X335774Y3927863D1*
X341236Y3920243D1*
X346508Y3912623D1*
X351749Y3905003D1*
X356552Y3897383D1*
X360888Y3889763D1*
X364950Y3882143D1*
X368856Y3874523D1*
X372683Y3866903D1*
X376263Y3859283D1*
X379351Y3851663D1*
X382065Y3844043D1*
X385020Y3836423D1*
X388327Y3828803D1*
X391666Y3821183D1*
X394653Y3813563D1*
X397297Y3805943D1*
X399970Y3798323D1*
X402211Y3790703D1*
X403700Y3783083D1*
X401472Y3775463D1*
X389096Y3767843D1*
X368074Y3760223D1*
X337734Y3752603D1*
X300474Y3744983D1*
X260337Y3737363D1*
X-90183Y3988823D2*
X-99301Y3981203D1*
X-110084Y3973583D1*
X-122773Y3965963D1*
X-136775Y3958343D1*
X-151509Y3950723D1*
X-166804Y3943103D1*
X-182965Y3935483D1*
X-200293Y3927863D1*
X-218674Y3920243D1*
X-237960Y3912623D1*
X-257823Y3905003D1*
X-82563Y3988823D2*
X-82854Y3981203D1*
X-83860Y3973583D1*
X-85954Y3965963D1*
X-88909Y3958343D1*
X-92331Y3950723D1*
X-95992Y3943103D1*
X-99767Y3935483D1*
X-103830Y3927863D1*
X-108627Y3920243D1*
X-114534Y3912623D1*
X-121321Y3905003D1*
X-128887Y3897383D1*
X-137918Y3889763D1*
X-149839Y3882143D1*
X-165545Y3874523D1*
X-184348Y3866903D1*
X-204483Y3859283D1*
X46977Y3943103D2*
Y3935483D1*
Y3927863D1*
Y3920243D1*
Y3912623D1*
Y3905003D1*
Y3897383D1*
X47006Y3889763D1*
X47274Y3882143D1*
X48245Y3874523D1*
X50100Y3866903D1*
X52322Y3859283D1*
X54652Y3851663D1*
X57451Y3844043D1*
X60729Y3836423D1*
X64314Y3828803D1*
X68295Y3821183D1*
X73060Y3813563D1*
X78954Y3805943D1*
X85737Y3798323D1*
X93241Y3790703D1*
X101736Y3783083D1*
X111747Y3775463D1*
X124135Y3767843D1*
X140530Y3760223D1*
X162002Y3752603D1*
X187465Y3744983D1*
X214617Y3737363D1*
X62217Y3943103D2*
X69866Y3935483D1*
X77754Y3927863D1*
X86345Y3920243D1*
X95790Y3912623D1*
X105394Y3905003D1*
X114611Y3897383D1*
X123909Y3889763D1*
X133707Y3882143D1*
X143682Y3874523D1*
X153683Y3866903D1*
X164121Y3859283D1*
X175026Y3851663D1*
X186233Y3844043D1*
X197834Y3836423D1*
X210219Y3828803D1*
X223734Y3821183D1*
X238107Y3813563D1*
X252963Y3805943D1*
X268043Y3798323D1*
X283197Y3790703D1*
M02*
