G04 DipTrace 3.2.0.1*
G04 BottomPaste.gbr*
%MOMM*%
G04 #@! TF.FileFunction,Paste,Bot*
G04 #@! TF.Part,Single*
%ADD48R,0.8X1.3*%
%ADD50R,0.6X0.15*%
%ADD52R,0.15X0.6*%
%ADD54R,0.75X0.9*%
%ADD68R,0.45X0.85*%
%ADD76R,0.8X0.9*%
%ADD80R,0.9X0.8*%
%FSLAX35Y35*%
G04*
G71*
G90*
G75*
G01*
G04 BotPaste*
%LPD*%
D80*
X-358043Y2587177D3*
X-528043D3*
D76*
X-325463Y2042887D3*
Y2212887D3*
X1168487Y763620D3*
Y933620D3*
X-1167770Y929203D3*
Y759203D3*
D68*
X95200Y2167190D3*
X-94800D3*
X200Y2397190D3*
D80*
X-526863Y2405080D3*
X-356863D3*
D76*
X306373Y2199010D3*
Y2029010D3*
D80*
X87150Y1991823D3*
X-82850D3*
X1126237Y-144770D3*
X956237D3*
X-944417Y-158057D3*
X-1114417D3*
D54*
X965000Y612500D3*
X1135000D3*
X965000Y57500D3*
X1135000D3*
X-1135000Y612500D3*
X-965000D3*
X-1135000Y57500D3*
X-965000D3*
D52*
X0Y250000D3*
X65000D3*
X130000D3*
X195000D3*
X260000D3*
X325000D3*
X390000D3*
X455000D3*
X520000D3*
X-65000D3*
X-130000D3*
X-195000D3*
X-260000D3*
X-325000D3*
X-390000D3*
X-455000D3*
X-520000D3*
D50*
X-560000Y130000D3*
Y65000D3*
Y0D3*
Y-65000D3*
Y-130000D3*
Y-195000D3*
Y-260000D3*
Y-325000D3*
Y-390000D3*
Y-455000D3*
Y-520000D3*
Y-585000D3*
Y-650000D3*
Y-715000D3*
Y-780000D3*
Y-845000D3*
Y-910000D3*
X560000Y130000D3*
Y65000D3*
Y0D3*
Y-65000D3*
Y-130000D3*
Y-195000D3*
Y-260000D3*
Y-325000D3*
Y-390000D3*
Y-455000D3*
Y-520000D3*
Y-585000D3*
Y-650000D3*
Y-715000D3*
Y-780000D3*
Y-845000D3*
Y-910000D3*
X390000Y-780000D3*
Y-715000D3*
Y-650000D3*
Y-585000D3*
D52*
X455000Y-900000D3*
X390000D3*
X325000D3*
X260000D3*
X195000D3*
D48*
X155000Y-275000D3*
X-125000D3*
Y-560000D3*
X155000D3*
M02*
