G04 DipTrace 3.2.0.1*
G04 BottomMask.gbr*
%MOMM*%
G04 #@! TF.FileFunction,Soldermask,Bot*
G04 #@! TF.Part,Single*
%ADD44C,0.7*%
%ADD47R,1.2X1.7*%
%ADD49R,1.0X0.55*%
%ADD51R,0.55X1.0*%
%ADD53R,1.15X1.3*%
%ADD55C,1.25*%
%ADD67R,0.85X1.25*%
%ADD71C,1.8*%
%ADD75R,1.2X1.3*%
%ADD79R,1.3X1.2*%
%FSLAX35Y35*%
G04*
G71*
G90*
G75*
G01*
G04 BotMask*
%LPD*%
D79*
X-358043Y2587177D3*
X-528043D3*
D75*
X-325463Y2042887D3*
Y2212887D3*
X1168487Y763620D3*
Y933620D3*
X-1167770Y929203D3*
Y759203D3*
D71*
X-1170000Y1670000D3*
Y1870000D3*
Y2070000D3*
X1170000Y1670000D3*
Y1870000D3*
Y2070000D3*
X-1170000Y-980000D3*
X1170000D3*
D67*
X95200Y2167190D3*
X-94800D3*
X200Y2397190D3*
D79*
X-526863Y2405080D3*
X-356863D3*
D75*
X306373Y2199010D3*
Y2029010D3*
D79*
X87150Y1991823D3*
X-82850D3*
X1126237Y-144770D3*
X956237D3*
X-944417Y-158057D3*
X-1114417D3*
D55*
X902457Y-1171640D3*
Y-1044640D3*
Y-1298640D3*
Y-917640D3*
X-888500Y-1158000D3*
X-885000Y-1288500D3*
D53*
X965000Y612500D3*
X1135000D3*
X965000Y57500D3*
X1135000D3*
D44*
X915000Y335000D3*
X1185000D3*
D53*
X-1135000Y612500D3*
X-965000D3*
X-1135000Y57500D3*
X-965000D3*
D44*
X-1185000Y335000D3*
X-915000D3*
D51*
X0Y250000D3*
X65000D3*
X130000D3*
X195000D3*
X260000D3*
X325000D3*
X390000D3*
X455000D3*
X520000D3*
X-65000D3*
X-130000D3*
X-195000D3*
X-260000D3*
X-325000D3*
X-390000D3*
X-455000D3*
X-520000D3*
D49*
X-560000Y130000D3*
Y65000D3*
Y0D3*
Y-65000D3*
Y-130000D3*
Y-195000D3*
Y-260000D3*
Y-325000D3*
Y-390000D3*
Y-455000D3*
Y-520000D3*
Y-585000D3*
Y-650000D3*
Y-715000D3*
Y-780000D3*
Y-845000D3*
Y-910000D3*
X560000Y130000D3*
Y65000D3*
Y0D3*
Y-65000D3*
Y-130000D3*
Y-195000D3*
Y-260000D3*
Y-325000D3*
Y-390000D3*
Y-455000D3*
Y-520000D3*
Y-585000D3*
Y-650000D3*
Y-715000D3*
Y-780000D3*
Y-845000D3*
Y-910000D3*
X390000Y-780000D3*
Y-715000D3*
Y-650000D3*
Y-585000D3*
D51*
X455000Y-900000D3*
X390000D3*
X325000D3*
X260000D3*
X195000D3*
D47*
X155000Y-275000D3*
X-125000D3*
Y-560000D3*
X155000D3*
M02*
