M48
METRIC,0000.00
T01C0.3
T02C0.4
T03C0.5
T04C0.65
T05C0.7
T06C0.8
%
T01
X+000703Y+003034
X+000601Y+003029
X+000501Y+003029
X+000400Y+003030
X+000299Y+003031
X+000197Y+003031
X-000186Y+003025
X-000304Y+003025
X-000416Y+003026
X-000518Y+003027
X-000612Y+003026
X-000709Y+003028
X-000814Y+003029
X-000922Y+003032
X-000614Y+002520
X-000626Y+002410
X-000387Y+002499
X-000407Y+002239
X-000567Y+001988
X-000738Y+001991
X-000825Y+001865
X-000871Y+001911
X-000946Y+001625
X-000845Y+001394
X-000816Y+001052
X-000816Y+000980
X-000818Y+000894
X-000904Y+000943
X-000660Y+000779
X-000541Y+000608
X-000539Y+000501
X-000634Y+000526
X-000291Y+000749
X-000117Y+000668
X-000156Y+000508
X-000117Y+000985
X-000292Y+000999
X-000295Y+001298
X-000090Y+001353
X-000095Y+001488
X+000138Y+001488
X+000139Y+001347
X+000142Y+001101
X+000147Y+000996
X+000681Y+001086
X+000815Y+001018
X+000891Y+000896
X+000957Y+000935
X+000957Y+000855
X+000685Y+000675
X+000678Y+000567
X+000520Y+000472
X+000749Y-000340
X+000753Y-000509
X+000871Y-000719
X+000704Y-000916
X-000450Y-001169
X-000557Y-000996
X-000789Y-000882
X-000788Y-000774
X-000805Y-000563
X-000803Y-000472
X-000429Y-000274
X+000643Y+001471
X+000753Y+001407
X+000828Y+001352
X+000981Y+002171
X+000826Y+002242
X+000446Y+002243
X+000123Y+002285
X+000424Y+002619
X+000633Y+002577
X+000818Y+003032
X+000920Y+003034
X-000437Y+001855
X-000807Y+002226
X-000938Y+002218
T02
X-000651Y+001989
X-000099Y+001100
T03
X+000547Y+001604
T04
X+000902Y-001172
X+000902Y-001045
X+000902Y-000918
X+000902Y-001299
X-000885Y-001288
X-000888Y-001158
T05
X+000915Y+000335
X+001185Y+000335
X-000915Y+000335
X-001185Y+000335
T06
X-001170Y+001670
X-001170Y+001870
X-001170Y+002070
X+001170Y+002070
X+001170Y+001870
X+001170Y+001670
X+001170Y-000980
X-001170Y-000980
T00
M30
