G04 DipTrace 3.2.0.1*
G04 TopSilk.gbr*
%MOMM*%
G04 #@! TF.FileFunction,Legend,Top*
G04 #@! TF.Part,Single*
%ADD10C,0.25*%
%ADD12C,0.0762*%
%ADD13C,0.06667*%
%ADD14C,0.05*%
%ADD21C,1.0*%
%ADD22C,0.15*%
%ADD23O,0.70853X0.7358*%
%ADD27O,0.23961X0.23999*%
%ADD30O,0.39172X0.39127*%
%FSLAX35Y35*%
G04*
G71*
G90*
G75*
G01*
G04 TopSilk*
%LPD*%
X936140Y1793345D2*
D10*
X615860D1*
X936140Y1774263D2*
X615860D1*
X936140D2*
X936004Y1894497D1*
X615860Y1774263D2*
X615996Y1894497D1*
X276370Y2744585D2*
X116372D1*
X276370Y2864582D2*
X116372D1*
D27*
X370370Y2804583D3*
X-1279012Y1559000D2*
D22*
X-1057002D1*
Y2182000D1*
X-1279012D1*
Y1559000D1*
X1060988D2*
X1282998D1*
Y2182000D1*
X1060988D1*
Y1559000D1*
X-1273006Y-1082006D2*
X-1067994D1*
Y-876994D1*
X-1273006D1*
Y-1082006D1*
X1066994D2*
X1272006D1*
Y-876994D1*
X1066994D1*
Y-1082006D1*
D30*
X-627696Y1588867D3*
X-755056Y1612237D2*
D10*
Y1912223D1*
X-805057D1*
Y1612237D1*
X-755056D1*
X-247067Y1569474D2*
G03X-856069Y1222470I205197J-1068037D01*
G01*
X271705Y-881575D2*
G03X250816Y1561609I-266293J1219404D01*
G01*
X-247067Y-894474D2*
G02X-856069Y-547470I205197J1068037D01*
G01*
X-965350Y-1157497D2*
D22*
X-965159Y-1152118D1*
X-964588Y-1146766D1*
X-963640Y-1141467D1*
X-962318Y-1136245D1*
X-960630Y-1131127D1*
X-958583Y-1126137D1*
X-956189Y-1121300D1*
X-953457Y-1116640D1*
X-950402Y-1112178D1*
X-947039Y-1107938D1*
X-943384Y-1103939D1*
X-939454Y-1100200D1*
X-935269Y-1096741D1*
X-930849Y-1093578D1*
X-926217Y-1090726D1*
X-921393Y-1088200D1*
X-916403Y-1086011D1*
X-911269Y-1084170D1*
X-906018Y-1082687D1*
X-900674Y-1081568D1*
X-895264Y-1080819D1*
X-889815Y-1080444D1*
X-884352D1*
X-878902Y-1080819D1*
X-873492Y-1081568D1*
X-868149Y-1082687D1*
X-862898Y-1084170D1*
X-857764Y-1086011D1*
X-852773Y-1088200D1*
X-847950Y-1090726D1*
X-843317Y-1093578D1*
X-838898Y-1096741D1*
X-834713Y-1100200D1*
X-830783Y-1103939D1*
X-827128Y-1107938D1*
X-823764Y-1112178D1*
X-820709Y-1116640D1*
X-817978Y-1121300D1*
X-815583Y-1126137D1*
X-813537Y-1131127D1*
X-811849Y-1136245D1*
X-810527Y-1141467D1*
X-809578Y-1146766D1*
X-809007Y-1152118D1*
X-808817Y-1157497D1*
X-809007Y-1162875D1*
X-809578Y-1168227D1*
X-810527Y-1173527D1*
X-811849Y-1178748D1*
X-813537Y-1183866D1*
X-815583Y-1188856D1*
X-817978Y-1193693D1*
X-820709Y-1198353D1*
X-823764Y-1202815D1*
X-827128Y-1207056D1*
X-830783Y-1211055D1*
X-834713Y-1214793D1*
X-838898Y-1218252D1*
X-843317Y-1221415D1*
X-847950Y-1224267D1*
X-852773Y-1226794D1*
X-857764Y-1228983D1*
X-862898Y-1230823D1*
X-868149Y-1232306D1*
X-873492Y-1233425D1*
X-878902Y-1234174D1*
X-884352Y-1234550D1*
X-889815D1*
X-895264Y-1234174D1*
X-900674Y-1233425D1*
X-906018Y-1232306D1*
X-911269Y-1230823D1*
X-916403Y-1228983D1*
X-921393Y-1226794D1*
X-926217Y-1224267D1*
X-930849Y-1221415D1*
X-935269Y-1218252D1*
X-939454Y-1214793D1*
X-943384Y-1211055D1*
X-947039Y-1207056D1*
X-950402Y-1202815D1*
X-953457Y-1198353D1*
X-956189Y-1193693D1*
X-958583Y-1188856D1*
X-960630Y-1183866D1*
X-962318Y-1178748D1*
X-963640Y-1173527D1*
X-964588Y-1168227D1*
X-965159Y-1162875D1*
X-965350Y-1157497D1*
X831440Y-841143D2*
X973830D1*
Y-1372470D1*
X831440D1*
Y-841143D1*
X-962173Y-1284953D2*
X-961983Y-1279575D1*
X-961412Y-1274223D1*
X-960463Y-1268923D1*
X-959141Y-1263702D1*
X-957453Y-1258584D1*
X-955407Y-1253594D1*
X-953012Y-1248757D1*
X-950281Y-1244097D1*
X-947226Y-1239635D1*
X-943862Y-1235394D1*
X-940207Y-1231395D1*
X-936277Y-1227657D1*
X-932092Y-1224198D1*
X-927673Y-1221035D1*
X-923040Y-1218183D1*
X-918217Y-1215656D1*
X-913226Y-1213467D1*
X-908092Y-1211627D1*
X-902841Y-1210144D1*
X-897498Y-1209025D1*
X-892088Y-1208276D1*
X-886638Y-1207900D1*
X-881175D1*
X-875726Y-1208276D1*
X-870316Y-1209025D1*
X-864972Y-1210144D1*
X-859721Y-1211627D1*
X-854587Y-1213467D1*
X-849597Y-1215656D1*
X-844773Y-1218183D1*
X-840141Y-1221035D1*
X-835721Y-1224198D1*
X-831536Y-1227657D1*
X-827606Y-1231395D1*
X-823951Y-1235394D1*
X-820588Y-1239635D1*
X-817533Y-1244097D1*
X-814801Y-1248757D1*
X-812407Y-1253594D1*
X-810360Y-1258584D1*
X-808672Y-1263702D1*
X-807350Y-1268923D1*
X-806402Y-1274223D1*
X-805831Y-1279575D1*
X-805640Y-1284953D1*
X-805831Y-1290332D1*
X-806402Y-1295684D1*
X-807350Y-1300983D1*
X-808672Y-1306205D1*
X-810360Y-1311323D1*
X-812407Y-1316313D1*
X-814801Y-1321150D1*
X-817533Y-1325810D1*
X-820588Y-1330272D1*
X-823951Y-1334512D1*
X-827606Y-1338511D1*
X-831536Y-1342250D1*
X-835721Y-1345709D1*
X-840141Y-1348872D1*
X-844773Y-1351724D1*
X-849597Y-1354250D1*
X-854587Y-1356439D1*
X-859721Y-1358280D1*
X-864972Y-1359763D1*
X-870316Y-1360882D1*
X-875726Y-1361631D1*
X-881175Y-1362006D1*
X-886638D1*
X-892088Y-1361631D1*
X-897498Y-1360882D1*
X-902841Y-1359763D1*
X-908092Y-1358280D1*
X-913226Y-1356439D1*
X-918217Y-1354250D1*
X-923040Y-1351724D1*
X-927673Y-1348872D1*
X-932092Y-1345709D1*
X-936277Y-1342250D1*
X-940207Y-1338511D1*
X-943862Y-1334512D1*
X-947226Y-1330272D1*
X-950281Y-1325810D1*
X-953012Y-1321150D1*
X-955407Y-1316313D1*
X-957453Y-1311323D1*
X-959141Y-1306205D1*
X-960463Y-1300983D1*
X-961412Y-1295684D1*
X-961983Y-1290332D1*
X-962173Y-1284953D1*
X-825000Y4900000D2*
D21*
X825000D1*
X-695160Y2684703D2*
D22*
X-372727D1*
Y2545953D1*
X-695160D1*
Y2684703D1*
X-604590Y2482597D2*
X-465840D1*
Y2160163D1*
X-604590D1*
Y2482597D1*
G36*
X-119353Y2669367D2*
X159103D1*
Y2186160D1*
X-119353D1*
Y2669367D1*
G37*
X-387483Y2872313D2*
D22*
X-65050D1*
Y2733563D1*
X-387483D1*
Y2872313D1*
X489733Y2478340D2*
X812167D1*
Y2339590D1*
X489733D1*
Y2478340D1*
X493343Y2305373D2*
X815777D1*
Y2166623D1*
X493343D1*
Y2305373D1*
D23*
X312973Y2105560D3*
X-759280Y2791583D2*
D14*
X-684280D1*
X-759270Y2789083D2*
X-684280D1*
X-759182Y2786583D2*
X-684280D1*
X-758854Y2784083D2*
X-684280D1*
X-758158Y2781583D2*
X-684280D1*
X-757101Y2779083D2*
X-749383D1*
X-755657Y2776583D2*
X-747271D1*
X-753813Y2774083D2*
X-745626D1*
X-751780Y2771583D2*
X-744280D1*
X-741780Y2759083D2*
X-739280D1*
X-704280D2*
X-701780D1*
X-745434Y2756583D2*
X-739300D1*
X-704260D2*
X-697281D1*
X-748642Y2754083D2*
X-739485D1*
X-704065D2*
X-693407D1*
X-751418Y2751583D2*
X-739925D1*
X-703596D2*
X-690398D1*
X-753750Y2749083D2*
X-741750D1*
X-701494D2*
X-688188D1*
X-755619Y2746583D2*
X-744015D1*
X-698862D2*
X-686560D1*
X-757087Y2744083D2*
X-746228D1*
X-696373D2*
X-685353D1*
X-758145Y2741583D2*
X-748091D1*
X-694435D2*
X-684396D1*
X-758760Y2739083D2*
X-749570D1*
X-693117D2*
X-683486D1*
X-759063Y2736583D2*
X-750627D1*
X-692381D2*
X-682720D1*
X-759196Y2734083D2*
X-751159D1*
X-692037D2*
X-682317D1*
X-759239Y2731583D2*
X-751136D1*
X-691983D2*
X-682384D1*
X-759171Y2729083D2*
X-750563D1*
X-692339D2*
X-682879D1*
X-758850Y2726583D2*
X-749462D1*
X-693331D2*
X-683561D1*
X-758156Y2724083D2*
X-747615D1*
X-694979D2*
X-684308D1*
X-757100Y2721583D2*
X-744731D1*
X-697067D2*
X-685230D1*
X-755649Y2719083D2*
X-740951D1*
X-699384D2*
X-686400D1*
X-753742Y2716583D2*
X-688002D1*
X-751353Y2714083D2*
X-690417D1*
X-748213Y2711583D2*
X-694013D1*
X-744059Y2709083D2*
X-698832D1*
X-739280Y2706583D2*
X-704280D1*
X684820Y2627710D2*
X702320D1*
X742320D2*
X749820D1*
X681562Y2625210D2*
X706069D1*
X742320D2*
X749820D1*
X679062Y2622710D2*
X709617D1*
X742320D2*
X749820D1*
X677262Y2620210D2*
X713168D1*
X742320D2*
X749820D1*
X676053Y2617710D2*
X690416D1*
X696347D2*
X716789D1*
X742320D2*
X749820D1*
X675377Y2615210D2*
X686872D1*
X701859D2*
X720399D1*
X742320D2*
X749820D1*
X675050Y2612710D2*
X684147D1*
X706352D2*
X723884D1*
X742320D2*
X749820D1*
X674909Y2610210D2*
X683209D1*
X710273D2*
X727263D1*
X742310D2*
X749820D1*
X674853Y2607710D2*
X682799D1*
X713853D2*
X730737D1*
X742215D2*
X749820D1*
X674841Y2605210D2*
X682751D1*
X717247D2*
X734394D1*
X741829D2*
X749820D1*
X674931Y2602710D2*
X683938D1*
X720640D2*
X738275D1*
X740974D2*
X749820D1*
X675345Y2600210D2*
X685827D1*
X723994D2*
X749820D1*
X676359Y2597710D2*
X688100D1*
X727299D2*
X749820D1*
X678015Y2595210D2*
X690049D1*
X730649D2*
X749820D1*
X680106Y2592710D2*
X691263D1*
X733909D2*
X749820D1*
X682424Y2590210D2*
X691908D1*
X736931D2*
X749820D1*
X684820Y2587710D2*
X692320D1*
X739820D2*
X749820D1*
X692320Y2572710D2*
X694820D1*
X729820D2*
X732320D1*
X688666Y2570210D2*
X694800D1*
X729840D2*
X736819D1*
X685458Y2567710D2*
X694615D1*
X730035D2*
X740693D1*
X682682Y2565210D2*
X694175D1*
X730504D2*
X743702D1*
X680350Y2562710D2*
X692350D1*
X732606D2*
X745912D1*
X678481Y2560210D2*
X690085D1*
X735238D2*
X747540D1*
X677013Y2557710D2*
X687872D1*
X737727D2*
X748747D1*
X675955Y2555210D2*
X686009D1*
X739665D2*
X749704D1*
X675340Y2552710D2*
X684530D1*
X740983D2*
X750614D1*
X675037Y2550210D2*
X683473D1*
X741719D2*
X751380D1*
X674904Y2547710D2*
X682941D1*
X742063D2*
X751783D1*
X674861Y2545210D2*
X682964D1*
X742117D2*
X751716D1*
X674929Y2542710D2*
X683537D1*
X741761D2*
X751221D1*
X675250Y2540210D2*
X684638D1*
X740769D2*
X750539D1*
X675944Y2537710D2*
X686485D1*
X739121D2*
X749792D1*
X677000Y2535210D2*
X689369D1*
X737033D2*
X748870D1*
X678451Y2532710D2*
X693149D1*
X734716D2*
X747700D1*
X680358Y2530210D2*
X746098D1*
X682747Y2527710D2*
X743683D1*
X685887Y2525210D2*
X740087D1*
X690041Y2522710D2*
X735268D1*
X694820Y2520210D2*
X729820D1*
X806400Y1505957D2*
X818900D1*
X841400D2*
X858900D1*
X802756Y1503457D2*
X822166D1*
X837643D2*
X862449D1*
X799635Y1500957D2*
X824746D1*
X834035D2*
X865259D1*
X797188Y1498457D2*
X826877D1*
X830297D2*
X867194D1*
X795268Y1495957D2*
X842287D1*
X856295D2*
X868518D1*
X794564Y1493457D2*
X803514D1*
X824286D2*
X839043D1*
X858377D2*
X869590D1*
X794183Y1490957D2*
X802894D1*
X824906D2*
X836769D1*
X859861D2*
X870432D1*
X794011Y1488457D2*
X802256D1*
X825554D2*
X835065D1*
X860705D2*
X870937D1*
X793941Y1485957D2*
X801916D1*
X825993D2*
X834464D1*
X861104D2*
X871110D1*
X793924Y1483457D2*
X801868D1*
X826239D2*
X834122D1*
X861172D2*
X870908D1*
X794012Y1480957D2*
X803036D1*
X826400D2*
X833900D1*
X860997D2*
X870347D1*
X794425Y1478457D2*
X804915D1*
X859505D2*
X869627D1*
X795439Y1475957D2*
X807184D1*
X857309D2*
X868781D1*
X797095Y1473457D2*
X809130D1*
X854983D2*
X867527D1*
X799186Y1470957D2*
X810343D1*
X852968D2*
X865670D1*
X801504Y1468457D2*
X810988D1*
X852160D2*
X863149D1*
X803900Y1465957D2*
X811400D1*
X851700D2*
X859959D1*
X851400Y1463457D2*
X856400D1*
X811400Y1450957D2*
X813900D1*
X848900D2*
X851400D1*
X807746Y1448457D2*
X813880D1*
X848920D2*
X855899D1*
X804538Y1445957D2*
X813695D1*
X849115D2*
X859773D1*
X801762Y1443457D2*
X813255D1*
X849584D2*
X862782D1*
X799430Y1440957D2*
X811430D1*
X851686D2*
X864992D1*
X797561Y1438457D2*
X809165D1*
X854318D2*
X866620D1*
X796093Y1435957D2*
X806952D1*
X856807D2*
X867827D1*
X795035Y1433457D2*
X805089D1*
X858745D2*
X868784D1*
X794420Y1430957D2*
X803610D1*
X860063D2*
X869694D1*
X794117Y1428457D2*
X802553D1*
X860799D2*
X870460D1*
X793984Y1425957D2*
X802021D1*
X861143D2*
X870863D1*
X793941Y1423457D2*
X802044D1*
X861197D2*
X870796D1*
X794009Y1420957D2*
X802617D1*
X860841D2*
X870301D1*
X794330Y1418457D2*
X803718D1*
X859849D2*
X869619D1*
X795024Y1415957D2*
X805565D1*
X858201D2*
X868872D1*
X796080Y1413457D2*
X808449D1*
X856113D2*
X867950D1*
X797531Y1410957D2*
X812229D1*
X853796D2*
X866780D1*
X799438Y1408457D2*
X865178D1*
X801827Y1405957D2*
X862763D1*
X804967Y1403457D2*
X859167D1*
X809121Y1400957D2*
X854348D1*
X813900Y1398457D2*
X848900D1*
X418253Y2850630D2*
X493253D1*
X418263Y2848130D2*
X493253D1*
X418351Y2845630D2*
X493253D1*
X418679Y2843130D2*
X493253D1*
X419376Y2840630D2*
X493253D1*
X420433Y2838130D2*
X428151D1*
X421877Y2835630D2*
X430263D1*
X423720Y2833130D2*
X431908D1*
X425753Y2830630D2*
X433253D1*
X440753Y2815630D2*
X473253D1*
X435091Y2813130D2*
X478353D1*
X430420Y2810630D2*
X482578D1*
X426817Y2808130D2*
X485765D1*
X424157Y2805630D2*
X488056D1*
X422343Y2803130D2*
X436641D1*
X478158D2*
X489786D1*
X421086Y2800630D2*
X433386D1*
X480328D2*
X491153D1*
X420044Y2798130D2*
X431025D1*
X482131D2*
X492157D1*
X419214Y2795630D2*
X429253D1*
X483574D2*
X492749D1*
X418704Y2793130D2*
X427867D1*
X484623D2*
X493042D1*
X418444Y2790630D2*
X426854D1*
X485235D2*
X493171D1*
X418328Y2788130D2*
X426260D1*
X485537D2*
X493223D1*
X418281Y2785630D2*
X425965D1*
X485669D2*
X493243D1*
X418263Y2783130D2*
X425836D1*
X485722D2*
X493250D1*
X418257Y2780630D2*
X425784D1*
X485742D2*
X493252D1*
X418254Y2778130D2*
X425764D1*
X485750D2*
X493253D1*
X418254Y2775630D2*
X425757D1*
X485752D2*
X493253D1*
X418253Y2773130D2*
X425755D1*
X485753D2*
X493253D1*
X418253Y2770630D2*
X493253D1*
X418253Y2768130D2*
X493253D1*
X418253Y2765630D2*
X493253D1*
X418253Y2763130D2*
X493253D1*
X-556190Y1803017D2*
X-481190D1*
X-556180Y1800517D2*
X-481190D1*
X-556092Y1798017D2*
X-481190D1*
X-555764Y1795517D2*
X-481190D1*
X-555068Y1793017D2*
X-481190D1*
X-554011Y1790517D2*
X-546293D1*
X-552567Y1788017D2*
X-544181D1*
X-550723Y1785517D2*
X-542536D1*
X-548690Y1783017D2*
X-541190D1*
X-486190Y1773017D2*
X-483690D1*
X-487638Y1770517D2*
X-481190D1*
X-489806Y1768017D2*
X-478690D1*
X-538690Y1765517D2*
X-496190D1*
X-492779D2*
X-481075D1*
X-543189Y1763017D2*
X-483060D1*
X-547063Y1760517D2*
X-484544D1*
X-550072Y1758017D2*
X-484402D1*
X-552282Y1755517D2*
X-535689D1*
X-501586D2*
X-483307D1*
X-553900Y1753017D2*
X-539563D1*
X-502302D2*
X-482255D1*
X-555019Y1750517D2*
X-542572D1*
X-503342D2*
X-481323D1*
X-555657Y1748017D2*
X-544782D1*
X-504672D2*
X-496650D1*
X-491681D2*
X-480408D1*
X-555969Y1745517D2*
X-546400D1*
X-506190D2*
X-497527D1*
X-490219D2*
X-479626D1*
X-556104Y1743017D2*
X-547509D1*
X-503690D2*
X-498690D1*
X-489382D2*
X-479142D1*
X-556158Y1740517D2*
X-548060D1*
X-488986D2*
X-478976D1*
X-556169Y1738017D2*
X-548043D1*
X-488908D2*
X-479181D1*
X-556089Y1735517D2*
X-547472D1*
X-489254D2*
X-479742D1*
X-555763Y1733017D2*
X-546371D1*
X-490243D2*
X-480453D1*
X-555067Y1730517D2*
X-544525D1*
X-491889D2*
X-481211D1*
X-554010Y1728017D2*
X-541641D1*
X-493978D2*
X-482137D1*
X-552559Y1725517D2*
X-537861D1*
X-496294D2*
X-483310D1*
X-550652Y1723017D2*
X-484912D1*
X-548263Y1720517D2*
X-487327D1*
X-545123Y1718017D2*
X-490923D1*
X-540969Y1715517D2*
X-495742D1*
X-536190Y1713017D2*
X-501190D1*
X-496337Y2856943D2*
X-421337D1*
X-496327Y2854443D2*
X-421337D1*
X-496239Y2851943D2*
X-421337D1*
X-495911Y2849443D2*
X-421337D1*
X-495214Y2846943D2*
X-421337D1*
X-494157Y2844443D2*
X-486439D1*
X-492713Y2841943D2*
X-484327D1*
X-490870Y2839443D2*
X-482682D1*
X-488837Y2836943D2*
X-481337D1*
X-423837Y2821943D2*
X-421337D1*
X-483837Y2819443D2*
X-466337D1*
X-428827D2*
X-421346D1*
X-487395Y2816943D2*
X-462758D1*
X-433759D2*
X-421454D1*
X-490283Y2814443D2*
X-459672D1*
X-438629D2*
X-421718D1*
X-492450Y2811943D2*
X-456656D1*
X-443781D2*
X-422982D1*
X-494054Y2809443D2*
X-478336D1*
X-472715D2*
X-453023D1*
X-449747D2*
X-425966D1*
X-495168Y2806943D2*
X-482200D1*
X-468009D2*
X-429792D1*
X-495805Y2804443D2*
X-485121D1*
X-464444D2*
X-434227D1*
X-496115Y2801943D2*
X-487340D1*
X-462925D2*
X-438967D1*
X-496251Y2799443D2*
X-488114D1*
X-462047D2*
X-443676D1*
X-496305Y2796943D2*
X-488530D1*
X-461627D2*
X-447808D1*
X-496326Y2794443D2*
X-488717D1*
X-461448D2*
X-451232D1*
X-496333Y2791943D2*
X-488793D1*
X-461377D2*
X-452566D1*
X-496335Y2789443D2*
X-488821D1*
X-461351D2*
X-453293D1*
X-496336Y2786943D2*
X-488831D1*
X-461341D2*
X-453623D1*
X-496337Y2784443D2*
X-488835D1*
X-461338D2*
X-453758D1*
X-496337Y2781943D2*
X-488836D1*
X-461337D2*
X-453809D1*
X-496337Y2779443D2*
X-488837D1*
X-461337D2*
X-453828D1*
X-496337Y2776943D2*
X-421337D1*
X-496337Y2774443D2*
X-421337D1*
X-496337Y2771943D2*
X-421337D1*
X-496337Y2769443D2*
X-421337D1*
X-699973Y2374300D2*
X-682473D1*
X-642473D2*
X-634973D1*
X-703231Y2371800D2*
X-678724D1*
X-642473D2*
X-634973D1*
X-705732Y2369300D2*
X-675176D1*
X-642473D2*
X-634973D1*
X-707532Y2366800D2*
X-671625D1*
X-642473D2*
X-634973D1*
X-708740Y2364300D2*
X-694377D1*
X-688446D2*
X-668005D1*
X-642473D2*
X-634973D1*
X-709417Y2361800D2*
X-697921D1*
X-682934D2*
X-664395D1*
X-642473D2*
X-634973D1*
X-709743Y2359300D2*
X-700647D1*
X-678441D2*
X-660909D1*
X-642473D2*
X-634973D1*
X-709884Y2356800D2*
X-701584D1*
X-674520D2*
X-657530D1*
X-642483D2*
X-634973D1*
X-709941Y2354300D2*
X-701994D1*
X-670940D2*
X-654057D1*
X-642578D2*
X-634973D1*
X-709952Y2351800D2*
X-702043D1*
X-667546D2*
X-650399D1*
X-642965D2*
X-634973D1*
X-709862Y2349300D2*
X-700856D1*
X-664153D2*
X-646519D1*
X-643819D2*
X-634973D1*
X-709448Y2346800D2*
X-698967D1*
X-660799D2*
X-634973D1*
X-708434Y2344300D2*
X-696693D1*
X-657494D2*
X-634973D1*
X-706779Y2341800D2*
X-694744D1*
X-654144D2*
X-634973D1*
X-704687Y2339300D2*
X-693531D1*
X-650884D2*
X-634973D1*
X-702370Y2336800D2*
X-692885D1*
X-647863D2*
X-634973D1*
X-699973Y2334300D2*
X-692473D1*
X-644973D2*
X-634973D1*
X-637473Y2316800D2*
X-634973D1*
X-697473Y2314300D2*
X-679973D1*
X-642464D2*
X-634983D1*
X-701032Y2311800D2*
X-676395D1*
X-647395D2*
X-635091D1*
X-703920Y2309300D2*
X-673309D1*
X-652265D2*
X-635354D1*
X-706086Y2306800D2*
X-670292D1*
X-657418D2*
X-636619D1*
X-707690Y2304300D2*
X-691972D1*
X-686352D2*
X-666660D1*
X-663383D2*
X-639603D1*
X-708804Y2301800D2*
X-695837D1*
X-681645D2*
X-643429D1*
X-709441Y2299300D2*
X-698758D1*
X-678081D2*
X-647864D1*
X-709752Y2296800D2*
X-700977D1*
X-676562D2*
X-652603D1*
X-709887Y2294300D2*
X-701750D1*
X-675684D2*
X-657313D1*
X-709942Y2291800D2*
X-702167D1*
X-675264D2*
X-661445D1*
X-709962Y2289300D2*
X-702354D1*
X-675084D2*
X-664869D1*
X-709970Y2286800D2*
X-702429D1*
X-675014D2*
X-666203D1*
X-709972Y2284300D2*
X-702458D1*
X-674987D2*
X-666930D1*
X-709973Y2281800D2*
X-702468D1*
X-674978D2*
X-667260D1*
X-709973Y2279300D2*
X-702472D1*
X-674975D2*
X-667394D1*
X-709973Y2276800D2*
X-702473D1*
X-674974D2*
X-667445D1*
X-709973Y2274300D2*
X-702473D1*
X-674973D2*
X-667464D1*
X-709973Y2271800D2*
X-634973D1*
X-709973Y2269300D2*
X-634973D1*
X-709973Y2266800D2*
X-634973D1*
X-709973Y2264300D2*
X-634973D1*
X864213Y2299097D2*
X876713D1*
X899213D2*
X916713D1*
X860569Y2296597D2*
X879979D1*
X895457D2*
X920262D1*
X857449Y2294097D2*
X882559D1*
X891848D2*
X923072D1*
X855002Y2291597D2*
X884691D1*
X888111D2*
X925008D1*
X853081Y2289097D2*
X900101D1*
X914108D2*
X926331D1*
X852378Y2286597D2*
X861327D1*
X882100D2*
X896856D1*
X916190D2*
X927403D1*
X851996Y2284097D2*
X860707D1*
X882719D2*
X894582D1*
X917675D2*
X928245D1*
X851824Y2281597D2*
X860070D1*
X883367D2*
X892878D1*
X918519D2*
X928751D1*
X851754Y2279097D2*
X859729D1*
X883807D2*
X892277D1*
X918917D2*
X928924D1*
X851738Y2276597D2*
X859681D1*
X884052D2*
X891935D1*
X918986D2*
X928722D1*
X851826Y2274097D2*
X860850D1*
X884213D2*
X891713D1*
X918810D2*
X928161D1*
X852239Y2271597D2*
X862728D1*
X917319D2*
X927440D1*
X853253Y2269097D2*
X864997D1*
X915122D2*
X926594D1*
X854908Y2266597D2*
X866944D1*
X912797D2*
X925340D1*
X856999Y2264097D2*
X868157D1*
X910781D2*
X923483D1*
X859317Y2261597D2*
X868801D1*
X909973D2*
X920962D1*
X861713Y2259097D2*
X869213D1*
X909513D2*
X917773D1*
X909213Y2256597D2*
X914213D1*
X924213Y2241597D2*
X926713D1*
X864213Y2239097D2*
X881713D1*
X919223D2*
X926704D1*
X860655Y2236597D2*
X885292D1*
X914291D2*
X926596D1*
X857767Y2234097D2*
X888378D1*
X909421D2*
X926332D1*
X855600Y2231597D2*
X891394D1*
X904269D2*
X925068D1*
X853996Y2229097D2*
X869714D1*
X875335D2*
X895027D1*
X898303D2*
X922084D1*
X852882Y2226597D2*
X865850D1*
X880041D2*
X918258D1*
X852245Y2224097D2*
X862929D1*
X883606D2*
X913823D1*
X851935Y2221597D2*
X860710D1*
X885125D2*
X909083D1*
X851799Y2219097D2*
X859936D1*
X886003D2*
X904374D1*
X851745Y2216597D2*
X859520D1*
X886423D2*
X900242D1*
X851724Y2214097D2*
X859333D1*
X886602D2*
X896818D1*
X851717Y2211597D2*
X859257D1*
X886673D2*
X895484D1*
X851715Y2209097D2*
X859229D1*
X886699D2*
X894757D1*
X851714Y2206597D2*
X859219D1*
X886709D2*
X894427D1*
X851713Y2204097D2*
X859215D1*
X886712D2*
X894292D1*
X851713Y2201597D2*
X859214D1*
X886713D2*
X894241D1*
X851713Y2199097D2*
X859213D1*
X886713D2*
X894222D1*
X851713Y2196597D2*
X926713D1*
X851713Y2194097D2*
X926713D1*
X851713Y2191597D2*
X926713D1*
X851713Y2189097D2*
X926713D1*
X13507Y2155840D2*
X23507D1*
X13507Y2153340D2*
X23507D1*
X-8993Y2150840D2*
X33507D1*
X-8993Y2148340D2*
X33507D1*
X-8993Y2145840D2*
X33507D1*
X-8993Y2143340D2*
X33507D1*
X-41493Y2140840D2*
X-36493D1*
X-8993D2*
X33507D1*
X-41283Y2138340D2*
X-31107D1*
X13507D2*
X23507D1*
X-40810Y2135840D2*
X-25487D1*
X13507D2*
X23507D1*
X-38507Y2133340D2*
X-19840D1*
X13507D2*
X23507D1*
X-35127Y2130840D2*
X-14392D1*
X13507D2*
X23507D1*
X-30916Y2128340D2*
X-9053D1*
X13497D2*
X23507D1*
X-26176Y2125840D2*
X-3435D1*
X13402D2*
X23507D1*
X-20997Y2123340D2*
X3001D1*
X13015D2*
X23507D1*
X-15450Y2120840D2*
X10472D1*
X12161D2*
X23507D1*
X-9828Y2118340D2*
X23507D1*
X-4398Y2115840D2*
X23507D1*
X832Y2113340D2*
X23507D1*
X5942Y2110840D2*
X23507D1*
X11007Y2108340D2*
X23507D1*
X-41493Y2088340D2*
X21007D1*
X-41493Y2085840D2*
X24266D1*
X-41493Y2083340D2*
X27180D1*
X-41493Y2080840D2*
X29457D1*
X15506Y2078340D2*
X31154D1*
X19370Y2075840D2*
X32402D1*
X22291Y2073340D2*
X33378D1*
X24510Y2070840D2*
X34296D1*
X25284Y2068340D2*
X35075D1*
X25700Y2065840D2*
X35557D1*
X25877Y2063340D2*
X35722D1*
X25855Y2060840D2*
X35516D1*
X25468Y2058340D2*
X34954D1*
X24463Y2055840D2*
X34243D1*
X22810Y2053340D2*
X33485D1*
X20720Y2050840D2*
X32559D1*
X18403Y2048340D2*
X31387D1*
X-41493Y2045840D2*
X29775D1*
X-41493Y2043340D2*
X27264D1*
X-41493Y2040840D2*
X23282D1*
X-41493Y2038340D2*
X17609D1*
X-41493Y2035840D2*
X11007D1*
X978433Y524147D2*
X1030933D1*
X974789Y521647D2*
X1034191D1*
X971669Y519147D2*
X1036702D1*
X969222Y516647D2*
X1038589D1*
X967301Y514147D2*
X981530D1*
X1025337D2*
X1040116D1*
X966598Y511647D2*
X977986D1*
X1028881D2*
X1041392D1*
X966216Y509147D2*
X975260D1*
X1031607D2*
X1042359D1*
X966044Y506647D2*
X974323D1*
X1032554D2*
X1042936D1*
X965974Y504147D2*
X973903D1*
X1033052D2*
X1043215D1*
X965958Y501647D2*
X973994D1*
X1033181D2*
X1043254D1*
X966036Y499147D2*
X974502D1*
X1032857D2*
X1042977D1*
X966361Y496647D2*
X975115D1*
X1031886D2*
X1042300D1*
X967056Y494147D2*
X975576D1*
X1030299D2*
X1041250D1*
X968133Y491647D2*
X1039792D1*
X969774Y489147D2*
X1037809D1*
X972432Y486647D2*
X1035226D1*
X976325Y484147D2*
X1032009D1*
X980933Y481647D2*
X1028433D1*
X1005933Y464147D2*
X1025933D1*
X965933Y461647D2*
X973433D1*
X1001520D2*
X1030732D1*
X965933Y459147D2*
X973433D1*
X997888D2*
X1034570D1*
X965933Y456647D2*
X973433D1*
X995248D2*
X1037390D1*
X965933Y454147D2*
X973433D1*
X993399D2*
X1039285D1*
X965933Y451647D2*
X973433D1*
X992174D2*
X1003538D1*
X1030442D2*
X1040578D1*
X965933Y449147D2*
X973433D1*
X991492D2*
X1001456D1*
X1031904D2*
X1041635D1*
X965933Y446647D2*
X973433D1*
X991164D2*
X999982D1*
X1032741D2*
X1042460D1*
X965933Y444147D2*
X973433D1*
X991032D2*
X998996D1*
X1033138D2*
X1042884D1*
X965933Y441647D2*
X973433D1*
X991071D2*
X998968D1*
X1033206D2*
X1042826D1*
X965933Y439147D2*
X973433D1*
X991436D2*
X1000004D1*
X1033030D2*
X1042333D1*
X965933Y436647D2*
X973433D1*
X992283D2*
X1001544D1*
X1031634D2*
X1041642D1*
X965933Y434147D2*
X973433D1*
X993433D2*
X1003206D1*
X1029758D2*
X1040808D1*
X965933Y431647D2*
X1004509D1*
X1028031D2*
X1039568D1*
X965933Y429147D2*
X1005283D1*
X1026921D2*
X1037810D1*
X965933Y426647D2*
X1005683D1*
X1026321D2*
X1035693D1*
X965933Y424147D2*
X1005933D1*
X1025933D2*
X1033433D1*
X1020933Y406647D2*
X1030933D1*
X1020933Y404147D2*
X1030933D1*
X998433Y401647D2*
X1040933D1*
X998433Y399147D2*
X1040933D1*
X998433Y396647D2*
X1040933D1*
X998433Y394147D2*
X1040933D1*
X965933Y391647D2*
X970933D1*
X998433D2*
X1040933D1*
X966143Y389147D2*
X976320D1*
X1020933D2*
X1030933D1*
X966617Y386647D2*
X981939D1*
X1020933D2*
X1030933D1*
X968920Y384147D2*
X987587D1*
X1020933D2*
X1030933D1*
X972300Y381647D2*
X993034D1*
X1020933D2*
X1030933D1*
X976511Y379147D2*
X998374D1*
X1020924D2*
X1030933D1*
X981251Y376647D2*
X1003991D1*
X1020828D2*
X1030933D1*
X986430Y374147D2*
X1010428D1*
X1020442D2*
X1030933D1*
X991977Y371647D2*
X1017898D1*
X1019587D2*
X1030933D1*
X997599Y369147D2*
X1030933D1*
X1003029Y366647D2*
X1030933D1*
X1008259Y364147D2*
X1030933D1*
X1013368Y361647D2*
X1030933D1*
X1018433Y359147D2*
X1030933D1*
X975933Y341647D2*
X993433D1*
X1033433D2*
X1040933D1*
X972675Y339147D2*
X997183D1*
X1033433D2*
X1040933D1*
X970175Y336647D2*
X1000731D1*
X1033433D2*
X1040933D1*
X968375Y334147D2*
X1004281D1*
X1033433D2*
X1040933D1*
X967167Y331647D2*
X981530D1*
X987460D2*
X1007902D1*
X1033433D2*
X1040933D1*
X966490Y329147D2*
X977986D1*
X992973D2*
X1011512D1*
X1033433D2*
X1040933D1*
X966163Y326647D2*
X975260D1*
X997466D2*
X1014997D1*
X1033433D2*
X1040933D1*
X966022Y324147D2*
X974323D1*
X1001386D2*
X1018377D1*
X1033424D2*
X1040933D1*
X965966Y321647D2*
X973913D1*
X1004966D2*
X1021850D1*
X1033328D2*
X1040933D1*
X965955Y319147D2*
X973864D1*
X1008361D2*
X1025508D1*
X1032942D2*
X1040933D1*
X966045Y316647D2*
X975051D1*
X1011754D2*
X1029388D1*
X1032087D2*
X1040933D1*
X966458Y314147D2*
X976940D1*
X1015107D2*
X1040933D1*
X967472Y311647D2*
X979214D1*
X1018412D2*
X1040933D1*
X969128Y309147D2*
X981163D1*
X1021762D2*
X1040933D1*
X971219Y306647D2*
X982376D1*
X1025023D2*
X1040933D1*
X973537Y304147D2*
X983021D1*
X1028044D2*
X1040933D1*
X975933Y301647D2*
X983433D1*
X1030933D2*
X1040933D1*
X1038433Y284147D2*
X1040933D1*
X978433Y281647D2*
X995933D1*
X1033443D2*
X1040924D1*
X974875Y279147D2*
X999512D1*
X1028511D2*
X1040816D1*
X971987Y276647D2*
X1002598D1*
X1023641D2*
X1040552D1*
X969820Y274147D2*
X1005614D1*
X1018489D2*
X1039288D1*
X968216Y271647D2*
X983934D1*
X989555D2*
X1009247D1*
X1012523D2*
X1036304D1*
X967102Y269147D2*
X980070D1*
X994261D2*
X1032478D1*
X966465Y266647D2*
X977149D1*
X997826D2*
X1028043D1*
X966155Y264147D2*
X974930D1*
X999345D2*
X1023303D1*
X966019Y261647D2*
X974156D1*
X1000223D2*
X1018594D1*
X965965Y259147D2*
X973740D1*
X1000643D2*
X1014462D1*
X965944Y256647D2*
X973553D1*
X1000822D2*
X1011038D1*
X965937Y254147D2*
X973477D1*
X1000893D2*
X1009704D1*
X965935Y251647D2*
X973449D1*
X1000919D2*
X1008977D1*
X965934Y249147D2*
X973439D1*
X1000929D2*
X1008647D1*
X965933Y246647D2*
X973435D1*
X1000932D2*
X1008512D1*
X965933Y244147D2*
X973434D1*
X1000933D2*
X1008461D1*
X965933Y241647D2*
X973433D1*
X1000933D2*
X1008442D1*
X965933Y239147D2*
X1040933D1*
X965933Y236647D2*
X1040933D1*
X965933Y234147D2*
X1040933D1*
X965933Y231647D2*
X1040933D1*
X983433Y214147D2*
X985933D1*
X1020933D2*
X1023433D1*
X979779Y211647D2*
X985914D1*
X1020953D2*
X1027932D1*
X976571Y209147D2*
X985728D1*
X1021148D2*
X1031806D1*
X973796Y206647D2*
X985289D1*
X1021617D2*
X1034815D1*
X971463Y204147D2*
X983463D1*
X1023720D2*
X1037025D1*
X969594Y201647D2*
X981199D1*
X1026352D2*
X1038653D1*
X968127Y199147D2*
X978985D1*
X1028840D2*
X1039860D1*
X967069Y196647D2*
X977123D1*
X1030779D2*
X1040817D1*
X966453Y194147D2*
X975643D1*
X1032096D2*
X1041727D1*
X966150Y191647D2*
X974586D1*
X1032833D2*
X1042494D1*
X966018Y189147D2*
X974054D1*
X1033176D2*
X1042896D1*
X965974Y186647D2*
X974078D1*
X1033231D2*
X1042830D1*
X966042Y184147D2*
X974650D1*
X1032875D2*
X1042335D1*
X966363Y181647D2*
X975752D1*
X1031882D2*
X1041652D1*
X967057Y179147D2*
X977598D1*
X1030235D2*
X1040906D1*
X968113Y176647D2*
X980483D1*
X1028146D2*
X1039984D1*
X969564Y174147D2*
X984262D1*
X1025829D2*
X1038813D1*
X971471Y171647D2*
X1037211D1*
X973860Y169147D2*
X1034796D1*
X977000Y166647D2*
X1031200D1*
X981155Y164147D2*
X1026382D1*
X985933Y161647D2*
X1020933D1*
X-717937Y-1084103D2*
D3*
X-792937Y-1086603D2*
X-787937D1*
X-722550D2*
X-717937D1*
X-792822Y-1089103D2*
X-784186D1*
X-726921D2*
X-718051D1*
X-792556Y-1091603D2*
X-780224D1*
X-731186D2*
X-718318D1*
X-791291Y-1094103D2*
X-776197D1*
X-735419D2*
X-719582D1*
X-788403Y-1096603D2*
X-772067D1*
X-739520D2*
X-722556D1*
X-784897Y-1099103D2*
X-767699D1*
X-743643D2*
X-726294D1*
X-781071Y-1101603D2*
X-762803D1*
X-748314D2*
X-730401D1*
X-777048Y-1104103D2*
X-756957D1*
X-754017D2*
X-734466D1*
X-772968Y-1106603D2*
X-738337D1*
X-769103Y-1109103D2*
X-741972D1*
X-765437Y-1111603D2*
X-745437D1*
X-768896Y-1114103D2*
X-741977D1*
X-772549Y-1116603D2*
X-738325D1*
X-776450Y-1119103D2*
X-760833D1*
X-753032D2*
X-734423D1*
X-780513Y-1121603D2*
X-764050D1*
X-748352D2*
X-730360D1*
X-784421Y-1124103D2*
X-767604D1*
X-743961D2*
X-726452D1*
X-787817Y-1126603D2*
X-771469D1*
X-739690D2*
X-723056D1*
X-790677Y-1129103D2*
X-775537D1*
X-735445D2*
X-720196D1*
X-791834Y-1131603D2*
X-779615D1*
X-731276D2*
X-719044D1*
X-792500Y-1134103D2*
X-783733D1*
X-727029D2*
X-718411D1*
X-792937Y-1136603D2*
X-787937D1*
X-722549D2*
X-718112D1*
X-717937Y-1139103D2*
D3*
X-792937Y-1141603D2*
X-785437D1*
X-792937Y-1144103D2*
X-785437D1*
X-792937Y-1146603D2*
X-785437D1*
X-792937Y-1149103D2*
X-785437D1*
X-792937Y-1151603D2*
X-785437D1*
X-792937Y-1154103D2*
X-785437D1*
X-792937Y-1156603D2*
X-785437D1*
X-792937Y-1159103D2*
X-785437D1*
X-792937Y-1161603D2*
X-785437D1*
X-792937Y-1164103D2*
X-717937D1*
X-792937Y-1166603D2*
X-717937D1*
X-792937Y-1169103D2*
X-717937D1*
X-792937Y-1171603D2*
X-717937D1*
X-792937Y-1174103D2*
X-717937D1*
X-792937Y-1176603D2*
X-785437D1*
X-792937Y-1179103D2*
X-785437D1*
X-792937Y-1181603D2*
X-785437D1*
X-792937Y-1184103D2*
X-785437D1*
X-792937Y-1186603D2*
X-785437D1*
X-792937Y-1189103D2*
X-785437D1*
X-792937Y-1191603D2*
X-785437D1*
X-792937Y-1194103D2*
X-785437D1*
X-717743Y-1219333D2*
D3*
X-792743Y-1221833D2*
X-787743D1*
X-722357D2*
X-717743D1*
X-792629Y-1224333D2*
X-783993D1*
X-726727D2*
X-717858D1*
X-792362Y-1226833D2*
X-780031D1*
X-730992D2*
X-718124D1*
X-791098Y-1229333D2*
X-776003D1*
X-735226D2*
X-719389D1*
X-788209Y-1231833D2*
X-771874D1*
X-739327D2*
X-722363D1*
X-784704Y-1234333D2*
X-767505D1*
X-743449D2*
X-726101D1*
X-780877Y-1236833D2*
X-762609D1*
X-748120D2*
X-730208D1*
X-776855Y-1239333D2*
X-756764D1*
X-753823D2*
X-734272D1*
X-772774Y-1241833D2*
X-738143D1*
X-768910Y-1244333D2*
X-741779D1*
X-765243Y-1246833D2*
X-745243D1*
X-768703Y-1249333D2*
X-741784D1*
X-772355Y-1251833D2*
X-738131D1*
X-776257Y-1254333D2*
X-760639D1*
X-752839D2*
X-734230D1*
X-780320Y-1256833D2*
X-763857D1*
X-748159D2*
X-730167D1*
X-784228Y-1259333D2*
X-767411D1*
X-743768D2*
X-726259D1*
X-787624Y-1261833D2*
X-771276D1*
X-739497D2*
X-722863D1*
X-790484Y-1264333D2*
X-775344D1*
X-735252D2*
X-720003D1*
X-791641Y-1266833D2*
X-779421D1*
X-731083D2*
X-718851D1*
X-792307Y-1269333D2*
X-783540D1*
X-726836D2*
X-718218D1*
X-792743Y-1271833D2*
X-787743D1*
X-722355D2*
X-717918D1*
X-717743Y-1274333D2*
D3*
X-720243Y-1286833D2*
X-717743D1*
X-780243Y-1289333D2*
X-762743D1*
X-725234D2*
X-717753D1*
X-783802Y-1291833D2*
X-759165D1*
X-730165D2*
X-717861D1*
X-786690Y-1294333D2*
X-756079D1*
X-735035D2*
X-718124D1*
X-788856Y-1296833D2*
X-753062D1*
X-740188D2*
X-719389D1*
X-790460Y-1299333D2*
X-774742D1*
X-769122D2*
X-749430D1*
X-746153D2*
X-722373D1*
X-791574Y-1301833D2*
X-778607D1*
X-764415D2*
X-726199D1*
X-792211Y-1304333D2*
X-781528D1*
X-760851D2*
X-730634D1*
X-792522Y-1306833D2*
X-783747D1*
X-759332D2*
X-735373D1*
X-792657Y-1309333D2*
X-784520D1*
X-758454D2*
X-740083D1*
X-792712Y-1311833D2*
X-784937D1*
X-758034D2*
X-744215D1*
X-792732Y-1314333D2*
X-785124D1*
X-757854D2*
X-747639D1*
X-792740Y-1316833D2*
X-785199D1*
X-757784D2*
X-748973D1*
X-792742Y-1319333D2*
X-785228D1*
X-757757D2*
X-749700D1*
X-792743Y-1321833D2*
X-785238D1*
X-757748D2*
X-750030D1*
X-792743Y-1324333D2*
X-785242D1*
X-757745D2*
X-750164D1*
X-792743Y-1326833D2*
X-785243D1*
X-757744D2*
X-750215D1*
X-792743Y-1329333D2*
X-785243D1*
X-757743D2*
X-750234D1*
X-792743Y-1331833D2*
X-717743D1*
X-792743Y-1334333D2*
X-717743D1*
X-792743Y-1336833D2*
X-717743D1*
X-792743Y-1339333D2*
X-717743D1*
X616730Y-860683D2*
D13*
X643397D1*
X696730D2*
X710063D1*
X766730D2*
X800063D1*
X610319Y-864017D2*
X649395D1*
X696730D2*
X710063D1*
X759193D2*
X804679D1*
X605084Y-867350D2*
X654561D1*
X696730D2*
X710063D1*
X753070D2*
X808098D1*
X600899Y-870683D2*
X617512D1*
X639281D2*
X658573D1*
X696730D2*
X710063D1*
X748574D2*
X767398D1*
X796730D2*
X809141D1*
X597574Y-874017D2*
X612670D1*
X644124D2*
X661519D1*
X696730D2*
X710063D1*
X745413D2*
X762246D1*
X796730D2*
X809684D1*
X594995Y-877350D2*
X609149D1*
X647644D2*
X663677D1*
X696730D2*
X710063D1*
X743155D2*
X758338D1*
X796730D2*
X809919D1*
X593006Y-880683D2*
X606684D1*
X650122D2*
X665182D1*
X696730D2*
X710063D1*
X741513D2*
X755699D1*
X796730D2*
X810011D1*
X591583Y-884017D2*
X605051D1*
X651872D2*
X666150D1*
X696730D2*
X710063D1*
X740225D2*
X753915D1*
X796730D2*
X810045D1*
X590759Y-887350D2*
X604142D1*
X653206D2*
X666990D1*
X696730D2*
X710063D1*
X739007D2*
X752479D1*
X796730D2*
X810057D1*
X590353Y-890683D2*
X603704D1*
X654442D2*
X667969D1*
X696730D2*
X710063D1*
X737971D2*
X751355D1*
X796730D2*
X810061D1*
X590176Y-894017D2*
X603515D1*
X655486D2*
X668896D1*
X696730D2*
X710063D1*
X737316D2*
X750668D1*
X796730D2*
X810063D1*
X590105Y-897350D2*
X603440D1*
X656142D2*
X669505D1*
X696730D2*
X710063D1*
X736980D2*
X750319D1*
X796730D2*
X810063D1*
X590078Y-900683D2*
X603412D1*
X656480D2*
X669823D1*
X696730D2*
X710063D1*
X736829D2*
X750164D1*
X796730D2*
X810063D1*
X590068Y-904017D2*
X603402D1*
X656631D2*
X669968D1*
X696730D2*
X710063D1*
X736767D2*
X750101D1*
X796730D2*
X810063D1*
X590065Y-907350D2*
X603398D1*
X656693D2*
X670028D1*
X696730D2*
X710063D1*
X736743D2*
X750077D1*
X796730D2*
X810063D1*
X590064Y-910683D2*
X603397D1*
X656704D2*
X670038D1*
X696730D2*
X710063D1*
X736734D2*
X750068D1*
X796730D2*
X810063D1*
X590064Y-914017D2*
X603397D1*
X656595D2*
X669929D1*
X696730D2*
X710063D1*
X736731D2*
X750065D1*
X796730D2*
X810063D1*
X590063Y-917350D2*
X603397D1*
X656173D2*
X669507D1*
X696730D2*
X710063D1*
X736744D2*
X750077D1*
X796730D2*
X810063D1*
X590076Y-920683D2*
X603410D1*
X655363D2*
X668710D1*
X696730D2*
X710063D1*
X736860D2*
X750194D1*
X796730D2*
X810063D1*
X590194Y-924017D2*
X603527D1*
X654392D2*
X667842D1*
X696730D2*
X710063D1*
X737298D2*
X750631D1*
X796730D2*
X810063D1*
X590631Y-927350D2*
X603965D1*
X653373D2*
X667144D1*
X696730D2*
X710063D1*
X738214D2*
X751560D1*
X796730D2*
X810063D1*
X591560Y-930683D2*
X604906D1*
X652122D2*
X666397D1*
X696730D2*
X710063D1*
X739506D2*
X752983D1*
X796730D2*
X810063D1*
X592970Y-934017D2*
X606524D1*
X650363D2*
X665327D1*
X696730D2*
X710063D1*
X741016D2*
X755152D1*
X796730D2*
X810063D1*
X594904Y-937350D2*
X608795D1*
X648018D2*
X663846D1*
X696730D2*
X710063D1*
X742748D2*
X758133D1*
X796730D2*
X810063D1*
X597447Y-940683D2*
X616477D1*
X640325D2*
X661758D1*
X696730D2*
X710063D1*
X744954D2*
X767355D1*
X796730D2*
X810063D1*
X600632Y-944017D2*
X628540D1*
X628257D2*
X658679D1*
X696730D2*
X710063D1*
X748084D2*
X781960D1*
X796730D2*
X810063D1*
X604819Y-947350D2*
X654404D1*
X696730D2*
X710063D1*
X752378D2*
X810063D1*
X610358Y-950683D2*
X649121D1*
X696730D2*
X710063D1*
X757668D2*
X810063D1*
X616730Y-954017D2*
X643397D1*
X696730D2*
X710063D1*
X763397D2*
X810063D1*
X574217Y-996977D2*
X587550D1*
X634217D2*
X647550D1*
X667550D2*
X724217D1*
X750883D2*
X787550D1*
X575483Y-1000310D2*
X589216D1*
X634217D2*
X647550D1*
X667550D2*
X724217D1*
X749332D2*
X793549D1*
X576916Y-1003643D2*
X590613D1*
X634217D2*
X647550D1*
X667550D2*
X724217D1*
X748302D2*
X798714D1*
X578464Y-1006977D2*
X592014D1*
X634217D2*
X647550D1*
X710883D2*
X724217D1*
X747550D2*
X754217D1*
X783549D2*
X802726D1*
X580070Y-1010310D2*
X593521D1*
X634217D2*
X647550D1*
X710883D2*
X724217D1*
X788701D2*
X805672D1*
X581610Y-1013643D2*
X595118D1*
X634204D2*
X647550D1*
X710883D2*
X724217D1*
X792596D2*
X807843D1*
X582964Y-1016977D2*
X596857D1*
X634073D2*
X647550D1*
X710883D2*
X724217D1*
X795555D2*
X809452D1*
X584252Y-1020310D2*
X598828D1*
X633518D2*
X647550D1*
X710883D2*
X724217D1*
X796713D2*
X810728D1*
X585864Y-1023643D2*
X601035D1*
X632478D2*
X647550D1*
X710883D2*
X724217D1*
X797695D2*
X811941D1*
X587814Y-1026977D2*
X603698D1*
X629489D2*
X647550D1*
X710883D2*
X724217D1*
X798744D2*
X812977D1*
X589872Y-1030310D2*
X607092D1*
X624571D2*
X647550D1*
X710883D2*
X724217D1*
X799699D2*
X813631D1*
X592155Y-1033643D2*
X615008D1*
X616906D2*
X647550D1*
X710883D2*
X724217D1*
X800319D2*
X813967D1*
X594927Y-1036977D2*
X647550D1*
X710883D2*
X724217D1*
X800641D2*
X814118D1*
X598214Y-1040310D2*
X647550D1*
X710883D2*
X724217D1*
X800788D2*
X814180D1*
X601625Y-1043643D2*
X628065D1*
X634217D2*
X647550D1*
X710883D2*
X724217D1*
X800848D2*
X814204D1*
X604740Y-1046977D2*
X625558D1*
X634217D2*
X647550D1*
X710883D2*
X724217D1*
X800871D2*
X814212D1*
X605961Y-1050310D2*
X623088D1*
X634217D2*
X647550D1*
X710883D2*
X724217D1*
X800866D2*
X814202D1*
X605389Y-1053643D2*
X620338D1*
X634217D2*
X647550D1*
X710883D2*
X724217D1*
X800752D2*
X814086D1*
X603177Y-1056977D2*
X617315D1*
X634217D2*
X647550D1*
X710883D2*
X724217D1*
X800328D2*
X813661D1*
X600444Y-1060310D2*
X614136D1*
X634217D2*
X647550D1*
X710883D2*
X724217D1*
X799517D2*
X812850D1*
X597392Y-1063643D2*
X610979D1*
X634217D2*
X647550D1*
X710883D2*
X724217D1*
X798532D2*
X811878D1*
X594284Y-1066977D2*
X608093D1*
X634217D2*
X647550D1*
X710883D2*
X724217D1*
X797383D2*
X810859D1*
X591416Y-1070310D2*
X605566D1*
X634217D2*
X647550D1*
X710883D2*
X724217D1*
X795928D2*
X809622D1*
X588896Y-1073643D2*
X603090D1*
X634217D2*
X647550D1*
X710883D2*
X724217D1*
X792653D2*
X808058D1*
X586422Y-1076977D2*
X600339D1*
X634217D2*
X647550D1*
X710883D2*
X724217D1*
X782909D2*
X805934D1*
X583672Y-1080310D2*
X597315D1*
X634217D2*
X647550D1*
X710883D2*
X724217D1*
X767178D2*
X802840D1*
X580649Y-1083643D2*
X594123D1*
X634217D2*
X647550D1*
X710883D2*
X724217D1*
X747550D2*
X798561D1*
X577463Y-1086977D2*
X590850D1*
X634217D2*
X647550D1*
X710883D2*
X724217D1*
X749113D2*
X793276D1*
X574217Y-1090310D2*
X587550D1*
X634217D2*
X647550D1*
X710883D2*
X724217D1*
X750883D2*
X787550D1*
X759953Y-1160633D2*
X796620D1*
X759953Y-1163967D2*
X796620D1*
X759953Y-1167300D2*
X796620D1*
X778883Y-1279913D2*
X788883D1*
X778883Y-1283247D2*
X788883D1*
X778883Y-1286580D2*
X788883D1*
X778883Y-1289913D2*
X788883D1*
X778883Y-1293247D2*
X788883D1*
X778883Y-1296580D2*
X788883D1*
X778883Y-1299913D2*
X788883D1*
X778883Y-1303247D2*
X788883D1*
X748883Y-1306580D2*
X815550D1*
X748883Y-1309913D2*
X815550D1*
X748883Y-1313247D2*
X815550D1*
X778883Y-1316580D2*
X788883D1*
X778883Y-1319913D2*
X788883D1*
X778883Y-1323247D2*
X788883D1*
X778883Y-1326580D2*
X788883D1*
X778883Y-1329913D2*
X788883D1*
X778883Y-1333247D2*
X788883D1*
X778883Y-1336580D2*
X788883D1*
X1000913Y-857547D2*
X1037580D1*
X1000913Y-860880D2*
X1037580D1*
X1000913Y-864213D2*
X1037580D1*
X-992640Y-835667D2*
X-982640D1*
X-992640Y-839000D2*
X-982640D1*
X-992640Y-842333D2*
X-982640D1*
X-992640Y-845667D2*
X-982640D1*
X-992640Y-849000D2*
X-982640D1*
X-992640Y-852333D2*
X-982640D1*
X-992640Y-855667D2*
X-982640D1*
X-992640Y-859000D2*
X-982640D1*
X-1022640Y-862333D2*
X-955973D1*
X-1022640Y-865667D2*
X-955973D1*
X-1022640Y-869000D2*
X-955973D1*
X-992640Y-872333D2*
X-982640D1*
X-992640Y-875667D2*
X-982640D1*
X-992640Y-879000D2*
X-982640D1*
X-992640Y-882333D2*
X-982640D1*
X-992640Y-885667D2*
X-982640D1*
X-992640Y-889000D2*
X-982640D1*
X-992640Y-892333D2*
X-982640D1*
X-1088263Y897670D2*
X-1011597D1*
X-1092995Y894337D2*
X-1011597D1*
X-1096742Y891003D2*
X-1011597D1*
X-1099323Y887670D2*
X-1011597D1*
X-1101087Y884337D2*
X-1011597D1*
X-1102517Y881003D2*
X-1091069D1*
X-1061597D2*
X-1054930D1*
X-1018263D2*
X-1011597D1*
X-1103639Y877670D2*
X-1093445D1*
X-1061597D2*
X-1054930D1*
X-1018263D2*
X-1011597D1*
X-1104326Y874337D2*
X-1095361D1*
X-1061597D2*
X-1054930D1*
X-1018263D2*
X-1011597D1*
X-1104674Y871003D2*
X-1096757D1*
X-1061597D2*
X-1054930D1*
X-1018263D2*
X-1011597D1*
X-1104829Y867670D2*
X-1097572D1*
X-1061597D2*
X-1054930D1*
X-1018263D2*
X-1011597D1*
X-1104893Y864337D2*
X-1097975D1*
X-1061597D2*
X-1054930D1*
X-1018263D2*
X-1011597D1*
X-1104917Y861003D2*
X-1098151D1*
X-1061597D2*
X-1054930D1*
X-1018263D2*
X-1011597D1*
X-1104925Y857670D2*
X-1098222D1*
X-1061597D2*
X-1054930D1*
X-1018263D2*
X-1011597D1*
X-1104928Y854337D2*
X-1098249D1*
X-1061597D2*
X-1054930D1*
X-1018263D2*
X-1011597D1*
X-1104930Y851003D2*
X-1098258D1*
X-1061597D2*
X-1054930D1*
X-1018263D2*
X-1011597D1*
X-1104930Y847670D2*
X-1098262D1*
X-1061597D2*
X-1054930D1*
X-1018263D2*
X-1011597D1*
X-1104930Y844337D2*
X-1098263D1*
X-1018263D2*
X-1011597D1*
X-1104930Y841003D2*
X-1098263D1*
X-1018263D2*
X-1011597D1*
X-1104930Y811003D2*
X-1011597D1*
X-1104930Y807670D2*
X-1011597D1*
X-1104930Y804337D2*
X-1011597D1*
X-1104930Y801003D2*
X-1011597D1*
X-1061597Y797670D2*
X-1054930D1*
X-1018263D2*
X-1011597D1*
X-1061597Y794337D2*
X-1054930D1*
X-1018263D2*
X-1011597D1*
X-1061597Y791003D2*
X-1054930D1*
X-1018263D2*
X-1011597D1*
X-1061597Y787670D2*
X-1054930D1*
X-1018263D2*
X-1011597D1*
X-1061597Y784337D2*
X-1054930D1*
X-1018263D2*
X-1011597D1*
X-1061597Y781003D2*
X-1054930D1*
X-1018263D2*
X-1011597D1*
X-1061597Y777670D2*
X-1054930D1*
X-1018263D2*
X-1011597D1*
X-1061597Y774337D2*
X-1054930D1*
X-1018263D2*
X-1011597D1*
X-1061597Y771003D2*
X-1054930D1*
X-1018263D2*
X-1011597D1*
X-1061597Y767670D2*
X-1054930D1*
X-1018263D2*
X-1011597D1*
X-1061597Y764337D2*
X-1054930D1*
X-1018263D2*
X-1011597D1*
X-1061597Y761003D2*
X-1054930D1*
X-1018263D2*
X-1011597D1*
X-1018263Y757670D2*
X-1011597D1*
X-1088263Y734337D2*
X-1011597D1*
X-1092995Y731003D2*
X-1011597D1*
X-1096742Y727670D2*
X-1011597D1*
X-1099323Y724337D2*
X-1011597D1*
X-1101087Y721003D2*
X-1011597D1*
X-1102517Y717670D2*
X-1091069D1*
X-1061597D2*
X-1054930D1*
X-1018263D2*
X-1011597D1*
X-1103639Y714337D2*
X-1093445D1*
X-1061597D2*
X-1054930D1*
X-1018263D2*
X-1011597D1*
X-1104326Y711003D2*
X-1095361D1*
X-1061597D2*
X-1054930D1*
X-1018263D2*
X-1011597D1*
X-1104674Y707670D2*
X-1096757D1*
X-1061597D2*
X-1054930D1*
X-1018263D2*
X-1011597D1*
X-1104829Y704337D2*
X-1097572D1*
X-1061597D2*
X-1054930D1*
X-1018263D2*
X-1011597D1*
X-1104893Y701003D2*
X-1097975D1*
X-1061597D2*
X-1054930D1*
X-1018263D2*
X-1011597D1*
X-1104917Y697670D2*
X-1098151D1*
X-1061597D2*
X-1054930D1*
X-1018263D2*
X-1011597D1*
X-1104925Y694337D2*
X-1098222D1*
X-1061597D2*
X-1054930D1*
X-1018263D2*
X-1011597D1*
X-1104928Y691003D2*
X-1098249D1*
X-1061597D2*
X-1054930D1*
X-1018263D2*
X-1011597D1*
X-1104930Y687670D2*
X-1098258D1*
X-1061597D2*
X-1054930D1*
X-1018263D2*
X-1011597D1*
X-1104930Y684337D2*
X-1098262D1*
X-1061597D2*
X-1054930D1*
X-1018263D2*
X-1011597D1*
X-1104930Y681003D2*
X-1098263D1*
X-1018263D2*
X-1011597D1*
X-1104930Y677670D2*
X-1098263D1*
X-1018263D2*
X-1011597D1*
X-1104930Y647670D2*
X-1011597D1*
X-1104930Y644337D2*
X-1011597D1*
X-1104930Y641003D2*
X-1011597D1*
X-1104930Y637670D2*
X-1011597D1*
X-1089287Y634337D2*
X-1062252D1*
X-1078295Y631003D2*
X-1056969D1*
X-1071078Y627670D2*
X-1052519D1*
X-1065961Y624337D2*
X-1048632D1*
X-1061597Y621003D2*
X-1044947D1*
X-1063790Y617670D2*
X-1041096D1*
X-1066145Y614337D2*
X-1036929D1*
X-1068976Y611003D2*
X-1032728D1*
X-1072551Y607670D2*
X-1054816D1*
X-1044930D2*
X-1028809D1*
X-1077208Y604337D2*
X-1057839D1*
X-1041597D2*
X-1025166D1*
X-1083088Y601003D2*
X-1060812D1*
X-1038250D2*
X-1021703D1*
X-1089725Y597670D2*
X-1064219D1*
X-1034800D2*
X-1018442D1*
X-1095893Y594337D2*
X-1068380D1*
X-1031042D2*
X-1015641D1*
X-1101042Y591003D2*
X-1073339D1*
X-1026909D2*
X-1013652D1*
X-1103375Y587670D2*
X-1079048D1*
X-1022713D2*
X-1012521D1*
X-1104209Y584337D2*
X-1085253D1*
X-1018748D2*
X-1011950D1*
X-1104655Y581003D2*
X-1091714D1*
X-1014930D2*
X-1011597D1*
X-1104930Y577670D2*
X-1098263D1*
X-1018263Y567670D2*
X-1011597D1*
X-1018263Y564337D2*
X-1011597D1*
X-1018263Y561003D2*
X-1011597D1*
X-1018263Y557670D2*
X-1011597D1*
X-1018263Y554337D2*
X-1011597D1*
X-1018263Y551003D2*
X-1011597D1*
X-1018263Y547670D2*
X-1011597D1*
X-1018263Y544337D2*
X-1011597D1*
X-1018263Y541003D2*
X-1011597D1*
X-1104930Y537670D2*
X-1011597D1*
X-1104930Y534337D2*
X-1011597D1*
X-1104930Y531003D2*
X-1011597D1*
X-1104930Y527670D2*
X-1011597D1*
X-1104930Y524337D2*
X-1011597D1*
X-1018263Y521003D2*
X-1011597D1*
X-1018263Y517670D2*
X-1011597D1*
X-1018263Y514337D2*
X-1011597D1*
X-1018263Y511003D2*
X-1011597D1*
X-1018263Y507670D2*
X-1011597D1*
X-1018263Y504337D2*
X-1011597D1*
X-1018263Y501003D2*
X-1011597D1*
X-1018263Y497670D2*
X-1011597D1*
X-1018263Y494337D2*
X-1011597D1*
X-1018263Y491003D2*
X-1011597D1*
X-1104930Y474337D2*
X-1028263D1*
X-1104930Y471003D2*
X-1023518D1*
X-1104930Y467670D2*
X-1019668D1*
X-1104930Y464337D2*
X-1016779D1*
X-1068263Y461003D2*
X-1057608D1*
X-1036253D2*
X-1014641D1*
X-1068263Y457670D2*
X-1059558D1*
X-1029151D2*
X-1013155D1*
X-1068263Y454337D2*
X-1060674D1*
X-1023447D2*
X-1012306D1*
X-1068263Y451003D2*
X-1061215D1*
X-1020515D2*
X-1011892D1*
X-1068263Y447670D2*
X-1061450D1*
X-1019343D2*
X-1011711D1*
X-1068263Y444337D2*
X-1061543D1*
X-1018718D2*
X-1011639D1*
X-1068263Y441003D2*
X-1061578D1*
X-1018453D2*
X-1011612D1*
X-1068263Y437670D2*
X-1061590D1*
X-1018458D2*
X-1011602D1*
X-1068263Y434337D2*
X-1061595D1*
X-1018854D2*
X-1011598D1*
X-1068263Y431003D2*
X-1061596D1*
X-1019898D2*
X-1011610D1*
X-1068263Y427670D2*
X-1061596D1*
X-1021534D2*
X-1011727D1*
X-1068263Y424337D2*
X-1061597D1*
X-1029387D2*
X-1012165D1*
X-1068263Y421003D2*
X-1061597D1*
X-1043434D2*
X-1013106D1*
X-1104930Y417670D2*
X-1014646D1*
X-1104930Y414337D2*
X-1017135D1*
X-1104930Y411003D2*
X-1020991D1*
X-1104930Y407670D2*
X-1026033D1*
X-1104930Y404337D2*
X-1031597D1*
X-1104930Y371003D2*
X-1011597D1*
X-1104930Y367670D2*
X-1011597D1*
X-1104930Y364337D2*
X-1011597D1*
X-1104930Y361003D2*
X-1011597D1*
X-1104930Y357670D2*
X-1098263D1*
X-1104930Y354337D2*
X-1098263D1*
X-1104930Y351003D2*
X-1098263D1*
X-1104930Y347670D2*
X-1098263D1*
X-1104930Y344337D2*
X-1098263D1*
X-1104930Y341003D2*
X-1098263D1*
X-1104930Y337670D2*
X-1098263D1*
X-1104930Y334337D2*
X-1098263D1*
X-1104930Y331003D2*
X-1098263D1*
X-1104930Y327670D2*
X-1098263D1*
X-1104930Y324337D2*
X-1098263D1*
X-1104930Y321003D2*
X-1098263D1*
X-1104930Y317670D2*
X-1098263D1*
X-1104930Y297670D2*
X-1028263D1*
X-1104930Y294337D2*
X-1023518D1*
X-1104930Y291003D2*
X-1019668D1*
X-1104930Y287670D2*
X-1016779D1*
X-1068263Y284337D2*
X-1057608D1*
X-1036253D2*
X-1014641D1*
X-1068263Y281003D2*
X-1059558D1*
X-1029151D2*
X-1013155D1*
X-1068263Y277670D2*
X-1060674D1*
X-1023447D2*
X-1012306D1*
X-1068263Y274337D2*
X-1061215D1*
X-1020515D2*
X-1011892D1*
X-1068263Y271003D2*
X-1061450D1*
X-1019343D2*
X-1011711D1*
X-1068263Y267670D2*
X-1061543D1*
X-1018718D2*
X-1011639D1*
X-1068263Y264337D2*
X-1061578D1*
X-1018453D2*
X-1011612D1*
X-1068263Y261003D2*
X-1061590D1*
X-1018458D2*
X-1011602D1*
X-1068263Y257670D2*
X-1061595D1*
X-1018854D2*
X-1011598D1*
X-1068263Y254337D2*
X-1061596D1*
X-1019898D2*
X-1011610D1*
X-1068263Y251003D2*
X-1061596D1*
X-1021534D2*
X-1011727D1*
X-1068263Y247670D2*
X-1061597D1*
X-1029387D2*
X-1012165D1*
X-1068263Y244337D2*
X-1061597D1*
X-1043434D2*
X-1013106D1*
X-1104930Y241003D2*
X-1014646D1*
X-1104930Y237670D2*
X-1017135D1*
X-1104930Y234337D2*
X-1020991D1*
X-1104930Y231003D2*
X-1026033D1*
X-1104930Y227670D2*
X-1031597D1*
X-1098263Y197670D2*
X-1011597D1*
X-1099802Y194337D2*
X-1011597D1*
X-1100772Y191003D2*
X-1011597D1*
X-1101374Y187670D2*
X-1011597D1*
X-1102014Y184337D2*
X-1011597D1*
X-1102899Y181003D2*
X-1095057D1*
X-1061597D2*
X-1054930D1*
X-1018263D2*
X-1011597D1*
X-1103787Y177670D2*
X-1095484D1*
X-1061597D2*
X-1054930D1*
X-1018263D2*
X-1011597D1*
X-1104380Y174337D2*
X-1096283D1*
X-1061597D2*
X-1054917D1*
X-1018263D2*
X-1011597D1*
X-1104693Y171003D2*
X-1097125D1*
X-1061597D2*
X-1054800D1*
X-1018263D2*
X-1011597D1*
X-1104836Y167670D2*
X-1097589D1*
X-1061597D2*
X-1054375D1*
X-1018263D2*
X-1011597D1*
X-1104882Y164337D2*
X-1097473D1*
X-1061610D2*
X-1053564D1*
X-1018276D2*
X-1011597D1*
X-1104787Y161003D2*
X-1096803D1*
X-1061740D2*
X-1052566D1*
X-1018420D2*
X-1011597D1*
X-1104371Y157670D2*
X-1095799D1*
X-1062052D2*
X-1051260D1*
X-1018771D2*
X-1011610D1*
X-1103562Y154337D2*
X-1094597D1*
X-1063647D2*
X-1049414D1*
X-1020614D2*
X-1011727D1*
X-1102591Y151003D2*
X-1090705D1*
X-1069573D2*
X-1043618D1*
X-1026319D2*
X-1012165D1*
X-1101572Y147670D2*
X-1080456D1*
X-1079331D2*
X-1035103D1*
X-1034786D2*
X-1013093D1*
X-1100322Y144337D2*
X-1014502D1*
X-1098645Y141003D2*
X-1058263D1*
X-1051597D2*
X-1016428D1*
X-1096146Y137670D2*
X-1061597D1*
X-1048263D2*
X-1018886D1*
X-1092525Y134337D2*
X-1064930D1*
X-1044930D2*
X-1021597D1*
X-1088263Y131003D2*
X-1068263D1*
X-1101597Y107670D2*
X-1094930D1*
X-1102609Y104337D2*
X-1093404D1*
X-1103446Y101003D2*
X-1092574D1*
X-1103048Y97670D2*
X-1092284D1*
X-1102348Y94337D2*
X-1093440D1*
X-1101597Y91003D2*
X-1094930D1*
X-1078263Y67670D2*
X-1034930D1*
X-1084661Y64337D2*
X-1028931D1*
X-1089792Y61003D2*
X-1023779D1*
X-1093656Y57670D2*
X-1019871D1*
X-1096491Y54337D2*
X-1062825D1*
X-1050369D2*
X-1017233D1*
X-1098601Y51003D2*
X-1074769D1*
X-1038424D2*
X-1015448D1*
X-1100183Y47670D2*
X-1083301D1*
X-1029893D2*
X-1014013D1*
X-1101448Y44337D2*
X-1089672D1*
X-1023521D2*
X-1012888D1*
X-1102657Y41003D2*
X-1092393D1*
X-1020525D2*
X-1012201D1*
X-1103691Y37670D2*
X-1094302D1*
X-1019345D2*
X-1011853D1*
X-1104344Y34337D2*
X-1095803D1*
X-1018718D2*
X-1011697D1*
X-1104680Y31003D2*
X-1096943D1*
X-1018439D2*
X-1011634D1*
X-1104831Y27670D2*
X-1097523D1*
X-1018328D2*
X-1011610D1*
X-1104880Y24337D2*
X-1097451D1*
X-1018286D2*
X-1011601D1*
X-1104787Y21003D2*
X-1096809D1*
X-1018271D2*
X-1011598D1*
X-1104371Y17670D2*
X-1096018D1*
X-1018266D2*
X-1011597D1*
X-1103575Y14337D2*
X-1095461D1*
X-1018264D2*
X-1011597D1*
X-1102713Y11003D2*
X-1095160D1*
X-1018264D2*
X-1011597D1*
X-1102081Y7670D2*
X-1095016D1*
X-1018263D2*
X-1011597D1*
X-1101597Y4337D2*
X-1094930D1*
X-1018263D2*
X-1011597D1*
X-1078263Y-15663D2*
X-1034930D1*
X-1084661Y-18997D2*
X-1028931D1*
X-1089792Y-22330D2*
X-1023766D1*
X-1093656Y-25663D2*
X-1019754D1*
X-1096491Y-28997D2*
X-1062825D1*
X-1050369D2*
X-1016808D1*
X-1098601Y-32330D2*
X-1074769D1*
X-1038424D2*
X-1014650D1*
X-1100183Y-35663D2*
X-1083301D1*
X-1029893D2*
X-1013158D1*
X-1101448Y-38997D2*
X-1089672D1*
X-1023521D2*
X-1012307D1*
X-1102657Y-42330D2*
X-1092393D1*
X-1020525D2*
X-1011892D1*
X-1103691Y-45663D2*
X-1094302D1*
X-1019345D2*
X-1011711D1*
X-1104344Y-48997D2*
X-1095790D1*
X-1018718D2*
X-1011639D1*
X-1104667Y-52330D2*
X-1096825D1*
X-1018439D2*
X-1011612D1*
X-1104701Y-55663D2*
X-1097383D1*
X-1018341D2*
X-1011602D1*
X-1104338Y-58997D2*
X-1096596D1*
X-1018429D2*
X-1011598D1*
X-1103564Y-62330D2*
X-1095392D1*
X-1018969D2*
X-1011610D1*
X-1102705Y-65663D2*
X-1093788D1*
X-1020003D2*
X-1011727D1*
X-1101996Y-68997D2*
X-1091834D1*
X-1022982D2*
X-1012165D1*
X-1101133Y-72330D2*
X-1087694D1*
X-1027023D2*
X-1013093D1*
X-1099638Y-75663D2*
X-1075798D1*
X-1040013D2*
X-1014503D1*
X-1097359Y-78997D2*
X-1057429D1*
X-1060209D2*
X-1016451D1*
X-1094391Y-82330D2*
X-1019124D1*
X-1090476Y-85663D2*
X-1022863D1*
X-1084862Y-88997D2*
X-1028391D1*
X-1077153Y-92330D2*
X-1036062D1*
X-1068263Y-95663D2*
X-1044930D1*
X-1104930Y-122330D2*
X-1011597D1*
X-1104930Y-125663D2*
X-1011610D1*
X-1104930Y-128997D2*
X-1011740D1*
X-1104930Y-132330D2*
X-1012308D1*
X-1032125Y-135663D2*
X-1013387D1*
X-1036402Y-138997D2*
X-1016326D1*
X-1041036Y-142330D2*
X-1020105D1*
X-1045869Y-145663D2*
X-1024514D1*
X-1050804Y-148997D2*
X-1029255D1*
X-1055776Y-152330D2*
X-1034156D1*
X-1060743Y-155663D2*
X-1039116D1*
X-1065490Y-158997D2*
X-1044092D1*
X-1069499Y-162330D2*
X-1048968D1*
X-1072684Y-165663D2*
X-1053540D1*
X-1073989Y-168997D2*
X-1057679D1*
X-1074099Y-172330D2*
X-1061597D1*
X-1072677Y-175663D2*
X-1056196D1*
X-1069257Y-178997D2*
X-1050962D1*
X-1065116Y-182330D2*
X-1045844D1*
X-1060510Y-185663D2*
X-1040796D1*
X-1055668Y-188997D2*
X-1035773D1*
X-1050731Y-192330D2*
X-1030769D1*
X-1045764Y-195663D2*
X-1025789D1*
X-1040890Y-198997D2*
X-1021039D1*
X-1036319Y-202330D2*
X-1017028D1*
X-1032181Y-205663D2*
X-1013843D1*
X-1104930Y-208997D2*
X-1012683D1*
X-1104930Y-212330D2*
X-1012058D1*
X-1104930Y-215663D2*
X-1011776D1*
X-1104930Y-218997D2*
X-1011659D1*
X-1104930Y-222330D2*
X-1011597D1*
X-499683Y3872567D2*
D12*
X-473013D1*
X-377763D2*
X-351093D1*
X-252033D2*
X-225363D1*
X-149163D2*
X-118683D1*
X-27243D2*
X-573D1*
X52767D2*
X132777D1*
X304227D2*
X330897D1*
X384237D2*
X464247D1*
X-499683Y3868757D2*
X-473013D1*
X-377763D2*
X-351093D1*
X-252033D2*
X-225363D1*
X-147846D2*
X-117236D1*
X-27243D2*
X-573D1*
X52767D2*
X142437D1*
X304227D2*
X330897D1*
X384237D2*
X473907D1*
X-499683Y3864947D2*
X-473013D1*
X-377763D2*
X-351093D1*
X-252033D2*
X-225363D1*
X-146578D2*
X-115599D1*
X-27243D2*
X-573D1*
X52767D2*
X150340D1*
X304227D2*
X330897D1*
X384237D2*
X481810D1*
X-499683Y3861137D2*
X-473013D1*
X-377763D2*
X-351093D1*
X-252033D2*
X-225363D1*
X-145355D2*
X-113829D1*
X-27243D2*
X-573D1*
X52767D2*
X156297D1*
X304227D2*
X330897D1*
X384237D2*
X487767D1*
X-499683Y3857327D2*
X-473013D1*
X-377763D2*
X-351093D1*
X-252033D2*
X-225363D1*
X-143936D2*
X-111993D1*
X-27243D2*
X-573D1*
X52767D2*
X160465D1*
X304227D2*
X330897D1*
X384237D2*
X491935D1*
X-499683Y3853517D2*
X-473013D1*
X-377763D2*
X-351093D1*
X-252033D2*
X-225363D1*
X-142290D2*
X-110233D1*
X-27243D2*
X-573D1*
X52767D2*
X163450D1*
X304227D2*
X330897D1*
X384237D2*
X494920D1*
X-499683Y3849707D2*
X-473013D1*
X-377763D2*
X-351093D1*
X-252033D2*
X-225363D1*
X-140510D2*
X-108700D1*
X-27243D2*
X-573D1*
X128073D2*
X165809D1*
X304227D2*
X330897D1*
X459543D2*
X497279D1*
X-499683Y3845897D2*
X-473013D1*
X-377763D2*
X-351093D1*
X-252033D2*
X-225363D1*
X-138653D2*
X-107347D1*
X-27243D2*
X-573D1*
X133608D2*
X167762D1*
X304227D2*
X330897D1*
X465078D2*
X499232D1*
X-499683Y3842087D2*
X-473013D1*
X-377763D2*
X-351093D1*
X-252033D2*
X-225363D1*
X-136771D2*
X-105871D1*
X-27243D2*
X-573D1*
X137632D2*
X169239D1*
X304227D2*
X330897D1*
X469102D2*
X500709D1*
X-499683Y3838277D2*
X-473013D1*
X-377763D2*
X-351093D1*
X-252033D2*
X-225363D1*
X-134885D2*
X-104203D1*
X-27243D2*
X-573D1*
X140449D2*
X170119D1*
X304227D2*
X330897D1*
X471919D2*
X501589D1*
X-499683Y3834467D2*
X-473013D1*
X-377763D2*
X-351093D1*
X-252033D2*
X-225363D1*
X-133105D2*
X-102415D1*
X-27243D2*
X-573D1*
X142315D2*
X170558D1*
X304227D2*
X330897D1*
X473785D2*
X502028D1*
X-499683Y3830657D2*
X-473013D1*
X-377763D2*
X-351093D1*
X-252033D2*
X-225363D1*
X-131564D2*
X-100555D1*
X-27258D2*
X-573D1*
X143355D2*
X170752D1*
X304227D2*
X330897D1*
X474825D2*
X502222D1*
X-499683Y3826847D2*
X-473013D1*
X-377763D2*
X-351093D1*
X-252033D2*
X-225363D1*
X-130209D2*
X-98657D1*
X-27392D2*
X-573D1*
X143855D2*
X170831D1*
X304227D2*
X330897D1*
X475325D2*
X502301D1*
X-499683Y3823037D2*
X-473013D1*
X-377763D2*
X-351093D1*
X-252033D2*
X-225363D1*
X-128732D2*
X-96637D1*
X-27893D2*
X-573D1*
X144071D2*
X170860D1*
X304227D2*
X330897D1*
X475541D2*
X502330D1*
X-499683Y3819227D2*
X-473013D1*
X-377763D2*
X-351093D1*
X-252033D2*
X-225363D1*
X-127063D2*
X-94371D1*
X-28954D2*
X-573D1*
X144157D2*
X170871D1*
X304227D2*
X330897D1*
X475627D2*
X502341D1*
X-499683Y3815417D2*
X-473013D1*
X-377763D2*
X-351093D1*
X-252033D2*
X-225363D1*
X-125260D2*
X-91903D1*
X-30565D2*
X-573D1*
X144189D2*
X170875D1*
X304227D2*
X330897D1*
X475659D2*
X502345D1*
X-499683Y3811607D2*
X-473013D1*
X-377763D2*
X-351093D1*
X-252033D2*
X-225363D1*
X-123281D2*
X-89436D1*
X-32777D2*
X-573D1*
X144201D2*
X170876D1*
X304227D2*
X330897D1*
X475671D2*
X502346D1*
X-499683Y3807797D2*
X-473013D1*
X-377763D2*
X-351093D1*
X-252033D2*
X-225363D1*
X-121031D2*
X-86779D1*
X-35654D2*
X-573D1*
X144205D2*
X170876D1*
X304227D2*
X330897D1*
X475675D2*
X502346D1*
X-499683Y3803987D2*
X-473013D1*
X-377763D2*
X-351093D1*
X-252033D2*
X-225363D1*
X-118569D2*
X-83503D1*
X-39063D2*
X-573D1*
X144206D2*
X170877D1*
X304227D2*
X330897D1*
X475676D2*
X502347D1*
X-499683Y3800177D2*
X-351093D1*
X-252033D2*
X-225363D1*
X-116105D2*
X-78862D1*
X-43252D2*
X-573D1*
X144206D2*
X170877D1*
X304227D2*
X330897D1*
X475676D2*
X502347D1*
X-499683Y3796367D2*
X-351093D1*
X-252033D2*
X-225363D1*
X-113464D2*
X-71335D1*
X-49336D2*
X-573D1*
X144207D2*
X170877D1*
X304227D2*
X330897D1*
X475677D2*
X502347D1*
X-499683Y3792557D2*
X-351093D1*
X-252033D2*
X-225363D1*
X-110396D2*
X-59952D1*
X-58324D2*
X-573D1*
X144207D2*
X170877D1*
X304227D2*
X330897D1*
X475677D2*
X502347D1*
X-499683Y3788747D2*
X-351093D1*
X-252033D2*
X-225363D1*
X-106969D2*
X-573D1*
X144207D2*
X170877D1*
X304227D2*
X330897D1*
X475677D2*
X502347D1*
X-499683Y3784937D2*
X-351093D1*
X-252033D2*
X-225363D1*
X-103316D2*
X-573D1*
X144207D2*
X170877D1*
X228027D2*
X330897D1*
X475677D2*
X502347D1*
X-499683Y3781127D2*
X-351093D1*
X-252033D2*
X-225363D1*
X-99428D2*
X-573D1*
X64197D2*
X170877D1*
X228027D2*
X330897D1*
X395667D2*
X502347D1*
X-499683Y3777317D2*
X-473013D1*
X-377763D2*
X-351093D1*
X-252033D2*
X-225363D1*
X-95040D2*
X-34718D1*
X-27243D2*
X-573D1*
X64197D2*
X170877D1*
X228027D2*
X330897D1*
X395667D2*
X502347D1*
X-499683Y3773507D2*
X-473013D1*
X-377763D2*
X-351093D1*
X-252033D2*
X-225363D1*
X-90006D2*
X-38040D1*
X-27243D2*
X-573D1*
X64197D2*
X170877D1*
X228027D2*
X330897D1*
X395667D2*
X502347D1*
X-499683Y3769697D2*
X-473013D1*
X-377763D2*
X-351093D1*
X-252033D2*
X-225363D1*
X-85093D2*
X-40937D1*
X-27243D2*
X-573D1*
X64197D2*
X170877D1*
X228027D2*
X330897D1*
X395667D2*
X502347D1*
X-499683Y3765887D2*
X-473013D1*
X-377763D2*
X-351093D1*
X-252033D2*
X-225363D1*
X-80974D2*
X-43770D1*
X-27243D2*
X-573D1*
X64197D2*
X170877D1*
X228027D2*
X330897D1*
X395667D2*
X502347D1*
X-499683Y3762077D2*
X-473013D1*
X-377763D2*
X-351093D1*
X-252033D2*
X-225363D1*
X-79314D2*
X-46915D1*
X-27243D2*
X-573D1*
X64197D2*
X170877D1*
X304227D2*
X330897D1*
X395667D2*
X502347D1*
X-499683Y3758267D2*
X-473013D1*
X-377763D2*
X-351093D1*
X-252033D2*
X-225363D1*
X-81884D2*
X-50357D1*
X-27243D2*
X-573D1*
X144207D2*
X170877D1*
X304227D2*
X330897D1*
X475677D2*
X502347D1*
X-499683Y3754457D2*
X-473013D1*
X-377763D2*
X-351093D1*
X-252033D2*
X-225363D1*
X-84955D2*
X-53871D1*
X-27243D2*
X-573D1*
X144207D2*
X170877D1*
X304227D2*
X330897D1*
X475677D2*
X502347D1*
X-499683Y3750647D2*
X-473013D1*
X-377778D2*
X-351093D1*
X-252033D2*
X-225363D1*
X-88287D2*
X-57129D1*
X-27243D2*
X-573D1*
X144207D2*
X170877D1*
X304227D2*
X330897D1*
X475677D2*
X502347D1*
X-499683Y3746837D2*
X-472998D1*
X-377912D2*
X-351093D1*
X-252033D2*
X-225363D1*
X-91466D2*
X-60001D1*
X-27243D2*
X-573D1*
X144207D2*
X170877D1*
X304227D2*
X330897D1*
X475677D2*
X502347D1*
X-499683Y3743027D2*
X-472865D1*
X-378398D2*
X-351108D1*
X-252033D2*
X-225363D1*
X-94308D2*
X-62825D1*
X-27243D2*
X-573D1*
X144207D2*
X170877D1*
X304227D2*
X330897D1*
X475677D2*
X502347D1*
X-499683Y3739217D2*
X-472379D1*
X-379310D2*
X-351242D1*
X-252033D2*
X-225363D1*
X-97120D2*
X-65967D1*
X-27243D2*
X-573D1*
X144207D2*
X170877D1*
X304227D2*
X330897D1*
X475677D2*
X502347D1*
X-499668Y3735407D2*
X-471466D1*
X-380287D2*
X-351728D1*
X-252033D2*
X-225363D1*
X-100259D2*
X-69422D1*
X-27243D2*
X-573D1*
X144207D2*
X170877D1*
X304227D2*
X330897D1*
X475677D2*
X502347D1*
X-499535Y3731597D2*
X-470475D1*
X-380966D2*
X-352640D1*
X-252033D2*
X-225363D1*
X-103713D2*
X-73055D1*
X-27243D2*
X-573D1*
X144207D2*
X170877D1*
X304227D2*
X330897D1*
X475677D2*
X502347D1*
X-499049Y3727787D2*
X-469676D1*
X-381454D2*
X-353617D1*
X-252033D2*
X-225363D1*
X-107346D2*
X-76665D1*
X-27243D2*
X-573D1*
X144207D2*
X170877D1*
X304227D2*
X330897D1*
X475677D2*
X502347D1*
X-498122Y3723977D2*
X-468823D1*
X-382116D2*
X-354296D1*
X-252033D2*
X-225363D1*
X-110955D2*
X-79963D1*
X-27243D2*
X-573D1*
X144207D2*
X170877D1*
X304227D2*
X330897D1*
X475677D2*
X502347D1*
X-497011Y3720167D2*
X-467600D1*
X-383244D2*
X-354784D1*
X-252033D2*
X-225363D1*
X-114253D2*
X-82851D1*
X-27243D2*
X-573D1*
X144207D2*
X170877D1*
X304227D2*
X330897D1*
X475677D2*
X502347D1*
X-495846Y3716357D2*
X-465922D1*
X-384881D2*
X-355446D1*
X-252033D2*
X-225363D1*
X-117141D2*
X-85681D1*
X-27243D2*
X-573D1*
X144207D2*
X170877D1*
X304227D2*
X330897D1*
X475677D2*
X502347D1*
X-494446Y3712547D2*
X-463655D1*
X-387131D2*
X-356574D1*
X-252033D2*
X-225363D1*
X-119971D2*
X-88826D1*
X-27243D2*
X-573D1*
X144207D2*
X170877D1*
X304227D2*
X330897D1*
X475677D2*
X502347D1*
X-492807Y3708737D2*
X-460352D1*
X-390428D2*
X-358196D1*
X-252033D2*
X-225363D1*
X-123116D2*
X-92267D1*
X-27243D2*
X-573D1*
X144207D2*
X170877D1*
X304227D2*
X330897D1*
X475677D2*
X502347D1*
X-491015Y3704927D2*
X-456030D1*
X-394747D2*
X-360283D1*
X-252033D2*
X-225363D1*
X-126572D2*
X-95781D1*
X-27243D2*
X-573D1*
X144207D2*
X170877D1*
X304227D2*
X330897D1*
X475677D2*
X502347D1*
X-489024Y3701117D2*
X-443549D1*
X-407228D2*
X-362692D1*
X-252033D2*
X-225363D1*
X-130205D2*
X-99039D1*
X-27243D2*
X-573D1*
X144207D2*
X170877D1*
X304227D2*
X330897D1*
X475677D2*
X502347D1*
X-486627Y3697307D2*
X-424256D1*
X-426521D2*
X-365265D1*
X-316803D2*
X-160593D1*
X-133815D2*
X-101911D1*
X-27243D2*
X-573D1*
X56577D2*
X170877D1*
X216597D2*
X330897D1*
X388047D2*
X502347D1*
X-483531Y3693497D2*
X-368397D1*
X-316803D2*
X-160593D1*
X-137113D2*
X-104735D1*
X-27243D2*
X-573D1*
X56577D2*
X170877D1*
X216597D2*
X330897D1*
X388047D2*
X502347D1*
X-479505Y3689687D2*
X-372553D1*
X-316803D2*
X-160593D1*
X-140001D2*
X-107877D1*
X-27243D2*
X-573D1*
X56577D2*
X170877D1*
X216597D2*
X330897D1*
X388047D2*
X502347D1*
X-474195Y3685877D2*
X-377880D1*
X-316803D2*
X-160593D1*
X-142821D2*
X-111331D1*
X-27243D2*
X-573D1*
X56577D2*
X170877D1*
X216597D2*
X330897D1*
X388047D2*
X502347D1*
X-467354Y3682067D2*
X-384895D1*
X-316803D2*
X-160593D1*
X-145908D2*
X-114973D1*
X-27243D2*
X-573D1*
X56577D2*
X170877D1*
X216597D2*
X330897D1*
X388047D2*
X502347D1*
X-459113Y3678257D2*
X-394047D1*
X-316803D2*
X-160593D1*
X-149163D2*
X-118683D1*
X-27243D2*
X-573D1*
X56577D2*
X170877D1*
X216597D2*
X330897D1*
X388047D2*
X502347D1*
X-450153Y3674447D2*
X-404433D1*
X-759280Y2791583D2*
D14*
X-759270Y2789083D1*
X-759182Y2786583D1*
X-758854Y2784083D1*
X-758158Y2781583D1*
X-757101Y2779083D1*
X-755657Y2776583D1*
X-753813Y2774083D1*
X-751780Y2771583D1*
X-684280Y2791583D2*
Y2789083D1*
Y2786583D1*
Y2784083D1*
Y2781583D1*
X-751780D2*
X-749383Y2779083D1*
X-747271Y2776583D1*
X-745626Y2774083D1*
X-744280Y2771583D1*
X-741780Y2759083D2*
X-745434Y2756583D1*
X-748642Y2754083D1*
X-751418Y2751583D1*
X-753750Y2749083D1*
X-755619Y2746583D1*
X-757087Y2744083D1*
X-758145Y2741583D1*
X-758760Y2739083D1*
X-759063Y2736583D1*
X-759196Y2734083D1*
X-759239Y2731583D1*
X-759171Y2729083D1*
X-758850Y2726583D1*
X-758156Y2724083D1*
X-757100Y2721583D1*
X-755649Y2719083D1*
X-753742Y2716583D1*
X-751353Y2714083D1*
X-748213Y2711583D1*
X-744059Y2709083D1*
X-739280Y2706583D1*
Y2759083D2*
X-739300Y2756583D1*
X-739485Y2754083D1*
X-739925Y2751583D1*
X-741750Y2749083D1*
X-744015Y2746583D1*
X-746228Y2744083D1*
X-748091Y2741583D1*
X-749570Y2739083D1*
X-750627Y2736583D1*
X-751159Y2734083D1*
X-751136Y2731583D1*
X-750563Y2729083D1*
X-749462Y2726583D1*
X-747615Y2724083D1*
X-744731Y2721583D1*
X-740951Y2719083D1*
X-736780Y2716583D1*
X-704280Y2759083D2*
X-704260Y2756583D1*
X-704065Y2754083D1*
X-703596Y2751583D1*
X-701494Y2749083D1*
X-698862Y2746583D1*
X-696373Y2744083D1*
X-694435Y2741583D1*
X-693117Y2739083D1*
X-692381Y2736583D1*
X-692037Y2734083D1*
X-691983Y2731583D1*
X-692339Y2729083D1*
X-693331Y2726583D1*
X-694979Y2724083D1*
X-697067Y2721583D1*
X-699384Y2719083D1*
X-701780Y2716583D1*
Y2759083D2*
X-697281Y2756583D1*
X-693407Y2754083D1*
X-690398Y2751583D1*
X-688188Y2749083D1*
X-686560Y2746583D1*
X-685353Y2744083D1*
X-684396Y2741583D1*
X-683486Y2739083D1*
X-682720Y2736583D1*
X-682317Y2734083D1*
X-682384Y2731583D1*
X-682879Y2729083D1*
X-683561Y2726583D1*
X-684308Y2724083D1*
X-685230Y2721583D1*
X-686400Y2719083D1*
X-688002Y2716583D1*
X-690417Y2714083D1*
X-694013Y2711583D1*
X-698832Y2709083D1*
X-704280Y2706583D1*
X684820Y2627710D2*
X681562Y2625210D1*
X679062Y2622710D1*
X677262Y2620210D1*
X676053Y2617710D1*
X675377Y2615210D1*
X675050Y2612710D1*
X674909Y2610210D1*
X674853Y2607710D1*
X674841Y2605210D1*
X674931Y2602710D1*
X675345Y2600210D1*
X676359Y2597710D1*
X678015Y2595210D1*
X680106Y2592710D1*
X682424Y2590210D1*
X684820Y2587710D1*
X702320Y2627710D2*
X706069Y2625210D1*
X709617Y2622710D1*
X713168Y2620210D1*
X716789Y2617710D1*
X720399Y2615210D1*
X723884Y2612710D1*
X727263Y2610210D1*
X730737Y2607710D1*
X734394Y2605210D1*
X738275Y2602710D1*
X742320Y2600210D1*
Y2627710D2*
Y2625210D1*
Y2622710D1*
Y2620210D1*
Y2617710D1*
Y2615210D1*
Y2612710D1*
X742310Y2610210D1*
X742215Y2607710D1*
X741829Y2605210D1*
X740974Y2602710D1*
X739820Y2600210D1*
X749820Y2627710D2*
Y2625210D1*
Y2622710D1*
Y2620210D1*
Y2617710D1*
Y2615210D1*
Y2612710D1*
Y2610210D1*
Y2607710D1*
Y2605210D1*
Y2602710D1*
Y2600210D1*
Y2597710D1*
Y2595210D1*
Y2592710D1*
Y2590210D1*
Y2587710D1*
X694820Y2620210D2*
X690416Y2617710D1*
X686872Y2615210D1*
X684147Y2612710D1*
X683209Y2610210D1*
X682799Y2607710D1*
X682751Y2605210D1*
X683938Y2602710D1*
X685827Y2600210D1*
X688100Y2597710D1*
X690049Y2595210D1*
X691263Y2592710D1*
X691908Y2590210D1*
X692320Y2587710D1*
X689820Y2620210D2*
X696347Y2617710D1*
X701859Y2615210D1*
X706352Y2612710D1*
X710273Y2610210D1*
X713853Y2607710D1*
X717247Y2605210D1*
X720640Y2602710D1*
X723994Y2600210D1*
X727299Y2597710D1*
X730649Y2595210D1*
X733909Y2592710D1*
X736931Y2590210D1*
X739820Y2587710D1*
X692320Y2572710D2*
X688666Y2570210D1*
X685458Y2567710D1*
X682682Y2565210D1*
X680350Y2562710D1*
X678481Y2560210D1*
X677013Y2557710D1*
X675955Y2555210D1*
X675340Y2552710D1*
X675037Y2550210D1*
X674904Y2547710D1*
X674861Y2545210D1*
X674929Y2542710D1*
X675250Y2540210D1*
X675944Y2537710D1*
X677000Y2535210D1*
X678451Y2532710D1*
X680358Y2530210D1*
X682747Y2527710D1*
X685887Y2525210D1*
X690041Y2522710D1*
X694820Y2520210D1*
Y2572710D2*
X694800Y2570210D1*
X694615Y2567710D1*
X694175Y2565210D1*
X692350Y2562710D1*
X690085Y2560210D1*
X687872Y2557710D1*
X686009Y2555210D1*
X684530Y2552710D1*
X683473Y2550210D1*
X682941Y2547710D1*
X682964Y2545210D1*
X683537Y2542710D1*
X684638Y2540210D1*
X686485Y2537710D1*
X689369Y2535210D1*
X693149Y2532710D1*
X697320Y2530210D1*
X729820Y2572710D2*
X729840Y2570210D1*
X730035Y2567710D1*
X730504Y2565210D1*
X732606Y2562710D1*
X735238Y2560210D1*
X737727Y2557710D1*
X739665Y2555210D1*
X740983Y2552710D1*
X741719Y2550210D1*
X742063Y2547710D1*
X742117Y2545210D1*
X741761Y2542710D1*
X740769Y2540210D1*
X739121Y2537710D1*
X737033Y2535210D1*
X734716Y2532710D1*
X732320Y2530210D1*
Y2572710D2*
X736819Y2570210D1*
X740693Y2567710D1*
X743702Y2565210D1*
X745912Y2562710D1*
X747540Y2560210D1*
X748747Y2557710D1*
X749704Y2555210D1*
X750614Y2552710D1*
X751380Y2550210D1*
X751783Y2547710D1*
X751716Y2545210D1*
X751221Y2542710D1*
X750539Y2540210D1*
X749792Y2537710D1*
X748870Y2535210D1*
X747700Y2532710D1*
X746098Y2530210D1*
X743683Y2527710D1*
X740087Y2525210D1*
X735268Y2522710D1*
X729820Y2520210D1*
X806400Y1505957D2*
X802756Y1503457D1*
X799635Y1500957D1*
X797188Y1498457D1*
X795268Y1495957D1*
X794564Y1493457D1*
X794183Y1490957D1*
X794011Y1488457D1*
X793941Y1485957D1*
X793924Y1483457D1*
X794012Y1480957D1*
X794425Y1478457D1*
X795439Y1475957D1*
X797095Y1473457D1*
X799186Y1470957D1*
X801504Y1468457D1*
X803900Y1465957D1*
X818900Y1505957D2*
X822166Y1503457D1*
X824746Y1500957D1*
X826877Y1498457D1*
X828900Y1495957D1*
X841400Y1505957D2*
X837643Y1503457D1*
X834035Y1500957D1*
X830297Y1498457D1*
X826400Y1495957D1*
X858900Y1505957D2*
X862449Y1503457D1*
X865259Y1500957D1*
X867194Y1498457D1*
X868518Y1495957D1*
X869590Y1493457D1*
X870432Y1490957D1*
X870937Y1488457D1*
X871110Y1485957D1*
X870908Y1483457D1*
X870347Y1480957D1*
X869627Y1478457D1*
X868781Y1475957D1*
X867527Y1473457D1*
X865670Y1470957D1*
X863149Y1468457D1*
X859959Y1465957D1*
X856400Y1463457D1*
X846400Y1498457D2*
X842287Y1495957D1*
X839043Y1493457D1*
X836769Y1490957D1*
X835065Y1488457D1*
X834464Y1485957D1*
X834122Y1483457D1*
X833900Y1480957D1*
X853900Y1498457D2*
X856295Y1495957D1*
X858377Y1493457D1*
X859861Y1490957D1*
X860705Y1488457D1*
X861104Y1485957D1*
X861172Y1483457D1*
X860997Y1480957D1*
X859505Y1478457D1*
X857309Y1475957D1*
X854983Y1473457D1*
X852968Y1470957D1*
X852160Y1468457D1*
X851700Y1465957D1*
X851400Y1463457D1*
X803900Y1495957D2*
X803514Y1493457D1*
X802894Y1490957D1*
X802256Y1488457D1*
X801916Y1485957D1*
X801868Y1483457D1*
X803036Y1480957D1*
X804915Y1478457D1*
X807184Y1475957D1*
X809130Y1473457D1*
X810343Y1470957D1*
X810988Y1468457D1*
X811400Y1465957D1*
X823900Y1495957D2*
X824286Y1493457D1*
X824906Y1490957D1*
X825554Y1488457D1*
X825993Y1485957D1*
X826239Y1483457D1*
X826400Y1480957D1*
X811400Y1450957D2*
X807746Y1448457D1*
X804538Y1445957D1*
X801762Y1443457D1*
X799430Y1440957D1*
X797561Y1438457D1*
X796093Y1435957D1*
X795035Y1433457D1*
X794420Y1430957D1*
X794117Y1428457D1*
X793984Y1425957D1*
X793941Y1423457D1*
X794009Y1420957D1*
X794330Y1418457D1*
X795024Y1415957D1*
X796080Y1413457D1*
X797531Y1410957D1*
X799438Y1408457D1*
X801827Y1405957D1*
X804967Y1403457D1*
X809121Y1400957D1*
X813900Y1398457D1*
Y1450957D2*
X813880Y1448457D1*
X813695Y1445957D1*
X813255Y1443457D1*
X811430Y1440957D1*
X809165Y1438457D1*
X806952Y1435957D1*
X805089Y1433457D1*
X803610Y1430957D1*
X802553Y1428457D1*
X802021Y1425957D1*
X802044Y1423457D1*
X802617Y1420957D1*
X803718Y1418457D1*
X805565Y1415957D1*
X808449Y1413457D1*
X812229Y1410957D1*
X816400Y1408457D1*
X848900Y1450957D2*
X848920Y1448457D1*
X849115Y1445957D1*
X849584Y1443457D1*
X851686Y1440957D1*
X854318Y1438457D1*
X856807Y1435957D1*
X858745Y1433457D1*
X860063Y1430957D1*
X860799Y1428457D1*
X861143Y1425957D1*
X861197Y1423457D1*
X860841Y1420957D1*
X859849Y1418457D1*
X858201Y1415957D1*
X856113Y1413457D1*
X853796Y1410957D1*
X851400Y1408457D1*
Y1450957D2*
X855899Y1448457D1*
X859773Y1445957D1*
X862782Y1443457D1*
X864992Y1440957D1*
X866620Y1438457D1*
X867827Y1435957D1*
X868784Y1433457D1*
X869694Y1430957D1*
X870460Y1428457D1*
X870863Y1425957D1*
X870796Y1423457D1*
X870301Y1420957D1*
X869619Y1418457D1*
X868872Y1415957D1*
X867950Y1413457D1*
X866780Y1410957D1*
X865178Y1408457D1*
X862763Y1405957D1*
X859167Y1403457D1*
X854348Y1400957D1*
X848900Y1398457D1*
X418253Y2850630D2*
X418263Y2848130D1*
X418351Y2845630D1*
X418679Y2843130D1*
X419376Y2840630D1*
X420433Y2838130D1*
X421877Y2835630D1*
X423720Y2833130D1*
X425753Y2830630D1*
X493253Y2850630D2*
Y2848130D1*
Y2845630D1*
Y2843130D1*
Y2840630D1*
X425753D2*
X428151Y2838130D1*
X430263Y2835630D1*
X431908Y2833130D1*
X433253Y2830630D1*
X440753Y2815630D2*
X435091Y2813130D1*
X430420Y2810630D1*
X426817Y2808130D1*
X424157Y2805630D1*
X422343Y2803130D1*
X421086Y2800630D1*
X420044Y2798130D1*
X419214Y2795630D1*
X418704Y2793130D1*
X418444Y2790630D1*
X418328Y2788130D1*
X418281Y2785630D1*
X418263Y2783130D1*
X418257Y2780630D1*
X418254Y2778130D1*
Y2775630D1*
X418253Y2773130D1*
Y2770630D1*
Y2768130D1*
Y2765630D1*
Y2763130D1*
X473253Y2815630D2*
X478353Y2813130D1*
X482578Y2810630D1*
X485765Y2808130D1*
X488056Y2805630D1*
X489786Y2803130D1*
X491153Y2800630D1*
X492157Y2798130D1*
X492749Y2795630D1*
X493042Y2793130D1*
X493171Y2790630D1*
X493223Y2788130D1*
X493243Y2785630D1*
X493250Y2783130D1*
X493252Y2780630D1*
X493253Y2778130D1*
Y2775630D1*
Y2773130D1*
Y2770630D1*
Y2768130D1*
Y2765630D1*
Y2763130D1*
X440753Y2805630D2*
X436641Y2803130D1*
X433386Y2800630D1*
X431025Y2798130D1*
X429253Y2795630D1*
X427867Y2793130D1*
X426854Y2790630D1*
X426260Y2788130D1*
X425965Y2785630D1*
X425836Y2783130D1*
X425784Y2780630D1*
X425764Y2778130D1*
X425757Y2775630D1*
X425755Y2773130D1*
X425753Y2770630D1*
X475753Y2805630D2*
X478158Y2803130D1*
X480328Y2800630D1*
X482131Y2798130D1*
X483574Y2795630D1*
X484623Y2793130D1*
X485235Y2790630D1*
X485537Y2788130D1*
X485669Y2785630D1*
X485722Y2783130D1*
X485742Y2780630D1*
X485750Y2778130D1*
X485752Y2775630D1*
X485753Y2773130D1*
Y2770630D1*
X-556190Y1803017D2*
X-556180Y1800517D1*
X-556092Y1798017D1*
X-555764Y1795517D1*
X-555068Y1793017D1*
X-554011Y1790517D1*
X-552567Y1788017D1*
X-550723Y1785517D1*
X-548690Y1783017D1*
X-481190Y1803017D2*
Y1800517D1*
Y1798017D1*
Y1795517D1*
Y1793017D1*
X-548690D2*
X-546293Y1790517D1*
X-544181Y1788017D1*
X-542536Y1785517D1*
X-541190Y1783017D1*
X-486190Y1773017D2*
X-487638Y1770517D1*
X-489806Y1768017D1*
X-492779Y1765517D1*
X-496190Y1763017D1*
X-483690Y1773017D2*
X-481190Y1770517D1*
X-478690Y1768017D1*
X-481075Y1765517D1*
X-483060Y1763017D1*
X-484544Y1760517D1*
X-484402Y1758017D1*
X-483307Y1755517D1*
X-482255Y1753017D1*
X-481323Y1750517D1*
X-480408Y1748017D1*
X-479626Y1745517D1*
X-479142Y1743017D1*
X-478976Y1740517D1*
X-479181Y1738017D1*
X-479742Y1735517D1*
X-480453Y1733017D1*
X-481211Y1730517D1*
X-482137Y1728017D1*
X-483310Y1725517D1*
X-484912Y1723017D1*
X-487327Y1720517D1*
X-490923Y1718017D1*
X-495742Y1715517D1*
X-501190Y1713017D1*
X-538690Y1765517D2*
X-543189Y1763017D1*
X-547063Y1760517D1*
X-550072Y1758017D1*
X-552282Y1755517D1*
X-553900Y1753017D1*
X-555019Y1750517D1*
X-555657Y1748017D1*
X-555969Y1745517D1*
X-556104Y1743017D1*
X-556158Y1740517D1*
X-556169Y1738017D1*
X-556089Y1735517D1*
X-555763Y1733017D1*
X-555067Y1730517D1*
X-554010Y1728017D1*
X-552559Y1725517D1*
X-550652Y1723017D1*
X-548263Y1720517D1*
X-545123Y1718017D1*
X-540969Y1715517D1*
X-536190Y1713017D1*
X-496190Y1765517D2*
X-493690Y1763017D1*
X-531190Y1758017D2*
X-535689Y1755517D1*
X-539563Y1753017D1*
X-542572Y1750517D1*
X-544782Y1748017D1*
X-546400Y1745517D1*
X-547509Y1743017D1*
X-548060Y1740517D1*
X-548043Y1738017D1*
X-547472Y1735517D1*
X-546371Y1733017D1*
X-544525Y1730517D1*
X-541641Y1728017D1*
X-537861Y1725517D1*
X-533690Y1723017D1*
X-501190Y1758017D2*
X-501586Y1755517D1*
X-502302Y1753017D1*
X-503342Y1750517D1*
X-504672Y1748017D1*
X-506190Y1745517D1*
X-503690Y1743017D1*
X-496190Y1750517D2*
X-496650Y1748017D1*
X-497527Y1745517D1*
X-498690Y1743017D1*
X-493690Y1750517D2*
X-491681Y1748017D1*
X-490219Y1745517D1*
X-489382Y1743017D1*
X-488986Y1740517D1*
X-488908Y1738017D1*
X-489254Y1735517D1*
X-490243Y1733017D1*
X-491889Y1730517D1*
X-493978Y1728017D1*
X-496294Y1725517D1*
X-498690Y1723017D1*
X-496337Y2856943D2*
X-496327Y2854443D1*
X-496239Y2851943D1*
X-495911Y2849443D1*
X-495214Y2846943D1*
X-494157Y2844443D1*
X-492713Y2841943D1*
X-490870Y2839443D1*
X-488837Y2836943D1*
X-421337Y2856943D2*
Y2854443D1*
Y2851943D1*
Y2849443D1*
Y2846943D1*
X-488837D2*
X-486439Y2844443D1*
X-484327Y2841943D1*
X-482682Y2839443D1*
X-481337Y2836943D1*
X-423837Y2821943D2*
X-428827Y2819443D1*
X-433759Y2816943D1*
X-438629Y2814443D1*
X-443781Y2811943D1*
X-449747Y2809443D1*
X-456337Y2806943D1*
X-421337Y2821943D2*
X-421346Y2819443D1*
X-421454Y2816943D1*
X-421718Y2814443D1*
X-422982Y2811943D1*
X-425966Y2809443D1*
X-429792Y2806943D1*
X-434227Y2804443D1*
X-438967Y2801943D1*
X-443676Y2799443D1*
X-447808Y2796943D1*
X-451232Y2794443D1*
X-452566Y2791943D1*
X-453293Y2789443D1*
X-453623Y2786943D1*
X-453758Y2784443D1*
X-453809Y2781943D1*
X-453828Y2779443D1*
X-453837Y2776943D1*
X-483837Y2819443D2*
X-487395Y2816943D1*
X-490283Y2814443D1*
X-492450Y2811943D1*
X-494054Y2809443D1*
X-495168Y2806943D1*
X-495805Y2804443D1*
X-496115Y2801943D1*
X-496251Y2799443D1*
X-496305Y2796943D1*
X-496326Y2794443D1*
X-496333Y2791943D1*
X-496335Y2789443D1*
X-496336Y2786943D1*
X-496337Y2784443D1*
Y2781943D1*
Y2779443D1*
Y2776943D1*
Y2774443D1*
Y2771943D1*
Y2769443D1*
X-466337Y2819443D2*
X-462758Y2816943D1*
X-459672Y2814443D1*
X-456656Y2811943D1*
X-453023Y2809443D1*
X-448837Y2806943D1*
X-473837Y2811943D2*
X-478336Y2809443D1*
X-482200Y2806943D1*
X-485121Y2804443D1*
X-487340Y2801943D1*
X-488114Y2799443D1*
X-488530Y2796943D1*
X-488717Y2794443D1*
X-488793Y2791943D1*
X-488821Y2789443D1*
X-488831Y2786943D1*
X-488835Y2784443D1*
X-488836Y2781943D1*
X-488837Y2779443D1*
X-463837Y2776943D1*
X-478837Y2811943D2*
X-472715Y2809443D1*
X-468009Y2806943D1*
X-464444Y2804443D1*
X-462925Y2801943D1*
X-462047Y2799443D1*
X-461627Y2796943D1*
X-461448Y2794443D1*
X-461377Y2791943D1*
X-461351Y2789443D1*
X-461341Y2786943D1*
X-461338Y2784443D1*
X-461337Y2781943D1*
Y2779443D1*
X-486337Y2776943D1*
X-421337D2*
Y2774443D1*
Y2771943D1*
Y2769443D1*
X-699973Y2374300D2*
X-703231Y2371800D1*
X-705732Y2369300D1*
X-707532Y2366800D1*
X-708740Y2364300D1*
X-709417Y2361800D1*
X-709743Y2359300D1*
X-709884Y2356800D1*
X-709941Y2354300D1*
X-709952Y2351800D1*
X-709862Y2349300D1*
X-709448Y2346800D1*
X-708434Y2344300D1*
X-706779Y2341800D1*
X-704687Y2339300D1*
X-702370Y2336800D1*
X-699973Y2334300D1*
X-682473Y2374300D2*
X-678724Y2371800D1*
X-675176Y2369300D1*
X-671625Y2366800D1*
X-668005Y2364300D1*
X-664395Y2361800D1*
X-660909Y2359300D1*
X-657530Y2356800D1*
X-654057Y2354300D1*
X-650399Y2351800D1*
X-646519Y2349300D1*
X-642473Y2346800D1*
Y2374300D2*
Y2371800D1*
Y2369300D1*
Y2366800D1*
Y2364300D1*
Y2361800D1*
Y2359300D1*
X-642483Y2356800D1*
X-642578Y2354300D1*
X-642965Y2351800D1*
X-643819Y2349300D1*
X-644973Y2346800D1*
X-634973Y2374300D2*
Y2371800D1*
Y2369300D1*
Y2366800D1*
Y2364300D1*
Y2361800D1*
Y2359300D1*
Y2356800D1*
Y2354300D1*
Y2351800D1*
Y2349300D1*
Y2346800D1*
Y2344300D1*
Y2341800D1*
Y2339300D1*
Y2336800D1*
Y2334300D1*
X-689973Y2366800D2*
X-694377Y2364300D1*
X-697921Y2361800D1*
X-700647Y2359300D1*
X-701584Y2356800D1*
X-701994Y2354300D1*
X-702043Y2351800D1*
X-700856Y2349300D1*
X-698967Y2346800D1*
X-696693Y2344300D1*
X-694744Y2341800D1*
X-693531Y2339300D1*
X-692885Y2336800D1*
X-692473Y2334300D1*
X-694973Y2366800D2*
X-688446Y2364300D1*
X-682934Y2361800D1*
X-678441Y2359300D1*
X-674520Y2356800D1*
X-670940Y2354300D1*
X-667546Y2351800D1*
X-664153Y2349300D1*
X-660799Y2346800D1*
X-657494Y2344300D1*
X-654144Y2341800D1*
X-650884Y2339300D1*
X-647863Y2336800D1*
X-644973Y2334300D1*
X-637473Y2316800D2*
X-642464Y2314300D1*
X-647395Y2311800D1*
X-652265Y2309300D1*
X-657418Y2306800D1*
X-663383Y2304300D1*
X-669973Y2301800D1*
X-634973Y2316800D2*
X-634983Y2314300D1*
X-635091Y2311800D1*
X-635354Y2309300D1*
X-636619Y2306800D1*
X-639603Y2304300D1*
X-643429Y2301800D1*
X-647864Y2299300D1*
X-652603Y2296800D1*
X-657313Y2294300D1*
X-661445Y2291800D1*
X-664869Y2289300D1*
X-666203Y2286800D1*
X-666930Y2284300D1*
X-667260Y2281800D1*
X-667394Y2279300D1*
X-667445Y2276800D1*
X-667464Y2274300D1*
X-667473Y2271800D1*
X-697473Y2314300D2*
X-701032Y2311800D1*
X-703920Y2309300D1*
X-706086Y2306800D1*
X-707690Y2304300D1*
X-708804Y2301800D1*
X-709441Y2299300D1*
X-709752Y2296800D1*
X-709887Y2294300D1*
X-709942Y2291800D1*
X-709962Y2289300D1*
X-709970Y2286800D1*
X-709972Y2284300D1*
X-709973Y2281800D1*
Y2279300D1*
Y2276800D1*
Y2274300D1*
Y2271800D1*
Y2269300D1*
Y2266800D1*
Y2264300D1*
X-679973Y2314300D2*
X-676395Y2311800D1*
X-673309Y2309300D1*
X-670292Y2306800D1*
X-666660Y2304300D1*
X-662473Y2301800D1*
X-687473Y2306800D2*
X-691972Y2304300D1*
X-695837Y2301800D1*
X-698758Y2299300D1*
X-700977Y2296800D1*
X-701750Y2294300D1*
X-702167Y2291800D1*
X-702354Y2289300D1*
X-702429Y2286800D1*
X-702458Y2284300D1*
X-702468Y2281800D1*
X-702472Y2279300D1*
X-702473Y2276800D1*
Y2274300D1*
X-677473Y2271800D1*
X-692473Y2306800D2*
X-686352Y2304300D1*
X-681645Y2301800D1*
X-678081Y2299300D1*
X-676562Y2296800D1*
X-675684Y2294300D1*
X-675264Y2291800D1*
X-675084Y2289300D1*
X-675014Y2286800D1*
X-674987Y2284300D1*
X-674978Y2281800D1*
X-674975Y2279300D1*
X-674974Y2276800D1*
X-674973Y2274300D1*
X-699973Y2271800D1*
X-634973D2*
Y2269300D1*
Y2266800D1*
Y2264300D1*
X864213Y2299097D2*
X860569Y2296597D1*
X857449Y2294097D1*
X855002Y2291597D1*
X853081Y2289097D1*
X852378Y2286597D1*
X851996Y2284097D1*
X851824Y2281597D1*
X851754Y2279097D1*
X851738Y2276597D1*
X851826Y2274097D1*
X852239Y2271597D1*
X853253Y2269097D1*
X854908Y2266597D1*
X856999Y2264097D1*
X859317Y2261597D1*
X861713Y2259097D1*
X876713Y2299097D2*
X879979Y2296597D1*
X882559Y2294097D1*
X884691Y2291597D1*
X886713Y2289097D1*
X899213Y2299097D2*
X895457Y2296597D1*
X891848Y2294097D1*
X888111Y2291597D1*
X884213Y2289097D1*
X916713Y2299097D2*
X920262Y2296597D1*
X923072Y2294097D1*
X925008Y2291597D1*
X926331Y2289097D1*
X927403Y2286597D1*
X928245Y2284097D1*
X928751Y2281597D1*
X928924Y2279097D1*
X928722Y2276597D1*
X928161Y2274097D1*
X927440Y2271597D1*
X926594Y2269097D1*
X925340Y2266597D1*
X923483Y2264097D1*
X920962Y2261597D1*
X917773Y2259097D1*
X914213Y2256597D1*
X904213Y2291597D2*
X900101Y2289097D1*
X896856Y2286597D1*
X894582Y2284097D1*
X892878Y2281597D1*
X892277Y2279097D1*
X891935Y2276597D1*
X891713Y2274097D1*
X911713Y2291597D2*
X914108Y2289097D1*
X916190Y2286597D1*
X917675Y2284097D1*
X918519Y2281597D1*
X918917Y2279097D1*
X918986Y2276597D1*
X918810Y2274097D1*
X917319Y2271597D1*
X915122Y2269097D1*
X912797Y2266597D1*
X910781Y2264097D1*
X909973Y2261597D1*
X909513Y2259097D1*
X909213Y2256597D1*
X861713Y2289097D2*
X861327Y2286597D1*
X860707Y2284097D1*
X860070Y2281597D1*
X859729Y2279097D1*
X859681Y2276597D1*
X860850Y2274097D1*
X862728Y2271597D1*
X864997Y2269097D1*
X866944Y2266597D1*
X868157Y2264097D1*
X868801Y2261597D1*
X869213Y2259097D1*
X881713Y2289097D2*
X882100Y2286597D1*
X882719Y2284097D1*
X883367Y2281597D1*
X883807Y2279097D1*
X884052Y2276597D1*
X884213Y2274097D1*
X924213Y2241597D2*
X919223Y2239097D1*
X914291Y2236597D1*
X909421Y2234097D1*
X904269Y2231597D1*
X898303Y2229097D1*
X891713Y2226597D1*
X926713Y2241597D2*
X926704Y2239097D1*
X926596Y2236597D1*
X926332Y2234097D1*
X925068Y2231597D1*
X922084Y2229097D1*
X918258Y2226597D1*
X913823Y2224097D1*
X909083Y2221597D1*
X904374Y2219097D1*
X900242Y2216597D1*
X896818Y2214097D1*
X895484Y2211597D1*
X894757Y2209097D1*
X894427Y2206597D1*
X894292Y2204097D1*
X894241Y2201597D1*
X894222Y2199097D1*
X894213Y2196597D1*
X864213Y2239097D2*
X860655Y2236597D1*
X857767Y2234097D1*
X855600Y2231597D1*
X853996Y2229097D1*
X852882Y2226597D1*
X852245Y2224097D1*
X851935Y2221597D1*
X851799Y2219097D1*
X851745Y2216597D1*
X851724Y2214097D1*
X851717Y2211597D1*
X851715Y2209097D1*
X851714Y2206597D1*
X851713Y2204097D1*
Y2201597D1*
Y2199097D1*
Y2196597D1*
Y2194097D1*
Y2191597D1*
Y2189097D1*
X881713Y2239097D2*
X885292Y2236597D1*
X888378Y2234097D1*
X891394Y2231597D1*
X895027Y2229097D1*
X899213Y2226597D1*
X874213Y2231597D2*
X869714Y2229097D1*
X865850Y2226597D1*
X862929Y2224097D1*
X860710Y2221597D1*
X859936Y2219097D1*
X859520Y2216597D1*
X859333Y2214097D1*
X859257Y2211597D1*
X859229Y2209097D1*
X859219Y2206597D1*
X859215Y2204097D1*
X859214Y2201597D1*
X859213Y2199097D1*
X884213Y2196597D1*
X869213Y2231597D2*
X875335Y2229097D1*
X880041Y2226597D1*
X883606Y2224097D1*
X885125Y2221597D1*
X886003Y2219097D1*
X886423Y2216597D1*
X886602Y2214097D1*
X886673Y2211597D1*
X886699Y2209097D1*
X886709Y2206597D1*
X886712Y2204097D1*
X886713Y2201597D1*
Y2199097D1*
X861713Y2196597D1*
X926713D2*
Y2194097D1*
Y2191597D1*
Y2189097D1*
X13507Y2155840D2*
Y2153340D1*
Y2150840D1*
X-8993D1*
Y2148340D1*
Y2145840D1*
Y2143340D1*
Y2140840D1*
Y2138340D1*
X13507D1*
Y2135840D1*
Y2133340D1*
Y2130840D1*
X13497Y2128340D1*
X13402Y2125840D1*
X13015Y2123340D1*
X12161Y2120840D1*
X11007Y2118340D1*
X23507Y2155840D2*
Y2153340D1*
Y2150840D1*
X33507D1*
Y2148340D1*
Y2145840D1*
Y2143340D1*
Y2140840D1*
Y2138340D1*
X23507D1*
Y2135840D1*
Y2133340D1*
Y2130840D1*
Y2128340D1*
Y2125840D1*
Y2123340D1*
Y2120840D1*
Y2118340D1*
Y2115840D1*
Y2113340D1*
Y2110840D1*
Y2108340D1*
X-41493Y2140840D2*
X-41283Y2138340D1*
X-40810Y2135840D1*
X-38507Y2133340D1*
X-35127Y2130840D1*
X-30916Y2128340D1*
X-26176Y2125840D1*
X-20997Y2123340D1*
X-15450Y2120840D1*
X-9828Y2118340D1*
X-4398Y2115840D1*
X832Y2113340D1*
X5942Y2110840D1*
X11007Y2108340D1*
X-36493Y2140840D2*
X-31107Y2138340D1*
X-25487Y2135840D1*
X-19840Y2133340D1*
X-14392Y2130840D1*
X-9053Y2128340D1*
X-3435Y2125840D1*
X3001Y2123340D1*
X10472Y2120840D1*
X18507Y2118340D1*
X-41493Y2088340D2*
Y2085840D1*
Y2083340D1*
Y2080840D1*
X21007Y2088340D2*
X24266Y2085840D1*
X27180Y2083340D1*
X29457Y2080840D1*
X31154Y2078340D1*
X32402Y2075840D1*
X33378Y2073340D1*
X34296Y2070840D1*
X35075Y2068340D1*
X35557Y2065840D1*
X35722Y2063340D1*
X35516Y2060840D1*
X34954Y2058340D1*
X34243Y2055840D1*
X33485Y2053340D1*
X32559Y2050840D1*
X31387Y2048340D1*
X29775Y2045840D1*
X27264Y2043340D1*
X23282Y2040840D1*
X17609Y2038340D1*
X11007Y2035840D1*
Y2080840D2*
X15506Y2078340D1*
X19370Y2075840D1*
X22291Y2073340D1*
X24510Y2070840D1*
X25284Y2068340D1*
X25700Y2065840D1*
X25877Y2063340D1*
X25855Y2060840D1*
X25468Y2058340D1*
X24463Y2055840D1*
X22810Y2053340D1*
X20720Y2050840D1*
X18403Y2048340D1*
X16007Y2045840D1*
X-41493D2*
Y2043340D1*
Y2040840D1*
Y2038340D1*
Y2035840D1*
X978433Y524147D2*
X974789Y521647D1*
X971669Y519147D1*
X969222Y516647D1*
X967301Y514147D1*
X966598Y511647D1*
X966216Y509147D1*
X966044Y506647D1*
X965974Y504147D1*
X965958Y501647D1*
X966036Y499147D1*
X966361Y496647D1*
X967056Y494147D1*
X968133Y491647D1*
X969774Y489147D1*
X972432Y486647D1*
X976325Y484147D1*
X980933Y481647D1*
X1030933Y524147D2*
X1034191Y521647D1*
X1036702Y519147D1*
X1038589Y516647D1*
X1040116Y514147D1*
X1041392Y511647D1*
X1042359Y509147D1*
X1042936Y506647D1*
X1043215Y504147D1*
X1043254Y501647D1*
X1042977Y499147D1*
X1042300Y496647D1*
X1041250Y494147D1*
X1039792Y491647D1*
X1037809Y489147D1*
X1035226Y486647D1*
X1032009Y484147D1*
X1028433Y481647D1*
X985933Y516647D2*
X981530Y514147D1*
X977986Y511647D1*
X975260Y509147D1*
X974323Y506647D1*
X973903Y504147D1*
X973994Y501647D1*
X974502Y499147D1*
X975115Y496647D1*
X975576Y494147D1*
X975933Y491647D1*
X1020933Y516647D2*
X1025337Y514147D1*
X1028881Y511647D1*
X1031607Y509147D1*
X1032554Y506647D1*
X1033052Y504147D1*
X1033181Y501647D1*
X1032857Y499147D1*
X1031886Y496647D1*
X1030299Y494147D1*
X1028433Y491647D1*
X1005933Y464147D2*
X1001520Y461647D1*
X997888Y459147D1*
X995248Y456647D1*
X993399Y454147D1*
X992174Y451647D1*
X991492Y449147D1*
X991164Y446647D1*
X991032Y444147D1*
X991071Y441647D1*
X991436Y439147D1*
X992283Y436647D1*
X993433Y434147D1*
X978433Y431647D1*
X1025933Y464147D2*
X1030732Y461647D1*
X1034570Y459147D1*
X1037390Y456647D1*
X1039285Y454147D1*
X1040578Y451647D1*
X1041635Y449147D1*
X1042460Y446647D1*
X1042884Y444147D1*
X1042826Y441647D1*
X1042333Y439147D1*
X1041642Y436647D1*
X1040808Y434147D1*
X1039568Y431647D1*
X1037810Y429147D1*
X1035693Y426647D1*
X1033433Y424147D1*
X965933Y461647D2*
Y459147D1*
Y456647D1*
Y454147D1*
Y451647D1*
Y449147D1*
Y446647D1*
Y444147D1*
Y441647D1*
Y439147D1*
Y436647D1*
Y434147D1*
Y431647D1*
Y429147D1*
Y426647D1*
Y424147D1*
X973433Y461647D2*
Y459147D1*
Y456647D1*
Y454147D1*
Y451647D1*
Y449147D1*
Y446647D1*
Y444147D1*
Y441647D1*
Y439147D1*
Y436647D1*
Y434147D1*
X990933Y431647D1*
X1005933Y454147D2*
X1003538Y451647D1*
X1001456Y449147D1*
X999982Y446647D1*
X998996Y444147D1*
X998968Y441647D1*
X1000004Y439147D1*
X1001544Y436647D1*
X1003206Y434147D1*
X1004509Y431647D1*
X1005283Y429147D1*
X1005683Y426647D1*
X1005933Y424147D1*
X1028433Y454147D2*
X1030442Y451647D1*
X1031904Y449147D1*
X1032741Y446647D1*
X1033138Y444147D1*
X1033206Y441647D1*
X1033030Y439147D1*
X1031634Y436647D1*
X1029758Y434147D1*
X1028031Y431647D1*
X1026921Y429147D1*
X1026321Y426647D1*
X1025933Y424147D1*
X1020933Y406647D2*
Y404147D1*
Y401647D1*
X998433D1*
Y399147D1*
Y396647D1*
Y394147D1*
Y391647D1*
Y389147D1*
X1020933D1*
Y386647D1*
Y384147D1*
Y381647D1*
X1020924Y379147D1*
X1020828Y376647D1*
X1020442Y374147D1*
X1019587Y371647D1*
X1018433Y369147D1*
X1030933Y406647D2*
Y404147D1*
Y401647D1*
X1040933D1*
Y399147D1*
Y396647D1*
Y394147D1*
Y391647D1*
Y389147D1*
X1030933D1*
Y386647D1*
Y384147D1*
Y381647D1*
Y379147D1*
Y376647D1*
Y374147D1*
Y371647D1*
Y369147D1*
Y366647D1*
Y364147D1*
Y361647D1*
Y359147D1*
X965933Y391647D2*
X966143Y389147D1*
X966617Y386647D1*
X968920Y384147D1*
X972300Y381647D1*
X976511Y379147D1*
X981251Y376647D1*
X986430Y374147D1*
X991977Y371647D1*
X997599Y369147D1*
X1003029Y366647D1*
X1008259Y364147D1*
X1013368Y361647D1*
X1018433Y359147D1*
X970933Y391647D2*
X976320Y389147D1*
X981939Y386647D1*
X987587Y384147D1*
X993034Y381647D1*
X998374Y379147D1*
X1003991Y376647D1*
X1010428Y374147D1*
X1017898Y371647D1*
X1025933Y369147D1*
X975933Y341647D2*
X972675Y339147D1*
X970175Y336647D1*
X968375Y334147D1*
X967167Y331647D1*
X966490Y329147D1*
X966163Y326647D1*
X966022Y324147D1*
X965966Y321647D1*
X965955Y319147D1*
X966045Y316647D1*
X966458Y314147D1*
X967472Y311647D1*
X969128Y309147D1*
X971219Y306647D1*
X973537Y304147D1*
X975933Y301647D1*
X993433Y341647D2*
X997183Y339147D1*
X1000731Y336647D1*
X1004281Y334147D1*
X1007902Y331647D1*
X1011512Y329147D1*
X1014997Y326647D1*
X1018377Y324147D1*
X1021850Y321647D1*
X1025508Y319147D1*
X1029388Y316647D1*
X1033433Y314147D1*
Y341647D2*
Y339147D1*
Y336647D1*
Y334147D1*
Y331647D1*
Y329147D1*
Y326647D1*
X1033424Y324147D1*
X1033328Y321647D1*
X1032942Y319147D1*
X1032087Y316647D1*
X1030933Y314147D1*
X1040933Y341647D2*
Y339147D1*
Y336647D1*
Y334147D1*
Y331647D1*
Y329147D1*
Y326647D1*
Y324147D1*
Y321647D1*
Y319147D1*
Y316647D1*
Y314147D1*
Y311647D1*
Y309147D1*
Y306647D1*
Y304147D1*
Y301647D1*
X985933Y334147D2*
X981530Y331647D1*
X977986Y329147D1*
X975260Y326647D1*
X974323Y324147D1*
X973913Y321647D1*
X973864Y319147D1*
X975051Y316647D1*
X976940Y314147D1*
X979214Y311647D1*
X981163Y309147D1*
X982376Y306647D1*
X983021Y304147D1*
X983433Y301647D1*
X980933Y334147D2*
X987460Y331647D1*
X992973Y329147D1*
X997466Y326647D1*
X1001386Y324147D1*
X1004966Y321647D1*
X1008361Y319147D1*
X1011754Y316647D1*
X1015107Y314147D1*
X1018412Y311647D1*
X1021762Y309147D1*
X1025023Y306647D1*
X1028044Y304147D1*
X1030933Y301647D1*
X1038433Y284147D2*
X1033443Y281647D1*
X1028511Y279147D1*
X1023641Y276647D1*
X1018489Y274147D1*
X1012523Y271647D1*
X1005933Y269147D1*
X1040933Y284147D2*
X1040924Y281647D1*
X1040816Y279147D1*
X1040552Y276647D1*
X1039288Y274147D1*
X1036304Y271647D1*
X1032478Y269147D1*
X1028043Y266647D1*
X1023303Y264147D1*
X1018594Y261647D1*
X1014462Y259147D1*
X1011038Y256647D1*
X1009704Y254147D1*
X1008977Y251647D1*
X1008647Y249147D1*
X1008512Y246647D1*
X1008461Y244147D1*
X1008442Y241647D1*
X1008433Y239147D1*
X978433Y281647D2*
X974875Y279147D1*
X971987Y276647D1*
X969820Y274147D1*
X968216Y271647D1*
X967102Y269147D1*
X966465Y266647D1*
X966155Y264147D1*
X966019Y261647D1*
X965965Y259147D1*
X965944Y256647D1*
X965937Y254147D1*
X965935Y251647D1*
X965934Y249147D1*
X965933Y246647D1*
Y244147D1*
Y241647D1*
Y239147D1*
Y236647D1*
Y234147D1*
Y231647D1*
X995933Y281647D2*
X999512Y279147D1*
X1002598Y276647D1*
X1005614Y274147D1*
X1009247Y271647D1*
X1013433Y269147D1*
X988433Y274147D2*
X983934Y271647D1*
X980070Y269147D1*
X977149Y266647D1*
X974930Y264147D1*
X974156Y261647D1*
X973740Y259147D1*
X973553Y256647D1*
X973477Y254147D1*
X973449Y251647D1*
X973439Y249147D1*
X973435Y246647D1*
X973434Y244147D1*
X973433Y241647D1*
X998433Y239147D1*
X983433Y274147D2*
X989555Y271647D1*
X994261Y269147D1*
X997826Y266647D1*
X999345Y264147D1*
X1000223Y261647D1*
X1000643Y259147D1*
X1000822Y256647D1*
X1000893Y254147D1*
X1000919Y251647D1*
X1000929Y249147D1*
X1000932Y246647D1*
X1000933Y244147D1*
Y241647D1*
X975933Y239147D1*
X1040933D2*
Y236647D1*
Y234147D1*
Y231647D1*
X983433Y214147D2*
X979779Y211647D1*
X976571Y209147D1*
X973796Y206647D1*
X971463Y204147D1*
X969594Y201647D1*
X968127Y199147D1*
X967069Y196647D1*
X966453Y194147D1*
X966150Y191647D1*
X966018Y189147D1*
X965974Y186647D1*
X966042Y184147D1*
X966363Y181647D1*
X967057Y179147D1*
X968113Y176647D1*
X969564Y174147D1*
X971471Y171647D1*
X973860Y169147D1*
X977000Y166647D1*
X981155Y164147D1*
X985933Y161647D1*
Y214147D2*
X985914Y211647D1*
X985728Y209147D1*
X985289Y206647D1*
X983463Y204147D1*
X981199Y201647D1*
X978985Y199147D1*
X977123Y196647D1*
X975643Y194147D1*
X974586Y191647D1*
X974054Y189147D1*
X974078Y186647D1*
X974650Y184147D1*
X975752Y181647D1*
X977598Y179147D1*
X980483Y176647D1*
X984262Y174147D1*
X988433Y171647D1*
X1020933Y214147D2*
X1020953Y211647D1*
X1021148Y209147D1*
X1021617Y206647D1*
X1023720Y204147D1*
X1026352Y201647D1*
X1028840Y199147D1*
X1030779Y196647D1*
X1032096Y194147D1*
X1032833Y191647D1*
X1033176Y189147D1*
X1033231Y186647D1*
X1032875Y184147D1*
X1031882Y181647D1*
X1030235Y179147D1*
X1028146Y176647D1*
X1025829Y174147D1*
X1023433Y171647D1*
Y214147D2*
X1027932Y211647D1*
X1031806Y209147D1*
X1034815Y206647D1*
X1037025Y204147D1*
X1038653Y201647D1*
X1039860Y199147D1*
X1040817Y196647D1*
X1041727Y194147D1*
X1042494Y191647D1*
X1042896Y189147D1*
X1042830Y186647D1*
X1042335Y184147D1*
X1041652Y181647D1*
X1040906Y179147D1*
X1039984Y176647D1*
X1038813Y174147D1*
X1037211Y171647D1*
X1034796Y169147D1*
X1031200Y166647D1*
X1026382Y164147D1*
X1020933Y161647D1*
X-717937Y-1084103D2*
X-722550Y-1086603D1*
X-726921Y-1089103D1*
X-731186Y-1091603D1*
X-735419Y-1094103D1*
X-739520Y-1096603D1*
X-743643Y-1099103D1*
X-748314Y-1101603D1*
X-754017Y-1104103D1*
X-760437Y-1106603D1*
X-792937Y-1086603D2*
X-792822Y-1089103D1*
X-792556Y-1091603D1*
X-791291Y-1094103D1*
X-788403Y-1096603D1*
X-784897Y-1099103D1*
X-781071Y-1101603D1*
X-777048Y-1104103D1*
X-772968Y-1106603D1*
X-769103Y-1109103D1*
X-765437Y-1111603D1*
X-768896Y-1114103D1*
X-772549Y-1116603D1*
X-776450Y-1119103D1*
X-780513Y-1121603D1*
X-784421Y-1124103D1*
X-787817Y-1126603D1*
X-790677Y-1129103D1*
X-791834Y-1131603D1*
X-792500Y-1134103D1*
X-792937Y-1136603D1*
X-787937Y-1086603D2*
X-784186Y-1089103D1*
X-780224Y-1091603D1*
X-776197Y-1094103D1*
X-772067Y-1096603D1*
X-767699Y-1099103D1*
X-762803Y-1101603D1*
X-756957Y-1104103D1*
X-750437Y-1106603D1*
X-717937Y-1086603D2*
X-718051Y-1089103D1*
X-718318Y-1091603D1*
X-719582Y-1094103D1*
X-722556Y-1096603D1*
X-726294Y-1099103D1*
X-730401Y-1101603D1*
X-734466Y-1104103D1*
X-738337Y-1106603D1*
X-741972Y-1109103D1*
X-745437Y-1111603D1*
X-741977Y-1114103D1*
X-738325Y-1116603D1*
X-734423Y-1119103D1*
X-730360Y-1121603D1*
X-726452Y-1124103D1*
X-723056Y-1126603D1*
X-720196Y-1129103D1*
X-719044Y-1131603D1*
X-718411Y-1134103D1*
X-718112Y-1136603D1*
X-717937Y-1139103D1*
X-757937Y-1116603D2*
X-760833Y-1119103D1*
X-764050Y-1121603D1*
X-767604Y-1124103D1*
X-771469Y-1126603D1*
X-775537Y-1129103D1*
X-779615Y-1131603D1*
X-783733Y-1134103D1*
X-787937Y-1136603D1*
X-757937Y-1116603D2*
X-753032Y-1119103D1*
X-748352Y-1121603D1*
X-743961Y-1124103D1*
X-739690Y-1126603D1*
X-735445Y-1129103D1*
X-731276Y-1131603D1*
X-727029Y-1134103D1*
X-722549Y-1136603D1*
X-717937Y-1139103D1*
X-792937Y-1141603D2*
Y-1144103D1*
Y-1146603D1*
Y-1149103D1*
Y-1151603D1*
Y-1154103D1*
Y-1156603D1*
Y-1159103D1*
Y-1161603D1*
Y-1164103D1*
Y-1166603D1*
Y-1169103D1*
Y-1171603D1*
Y-1174103D1*
Y-1176603D1*
Y-1179103D1*
Y-1181603D1*
Y-1184103D1*
Y-1186603D1*
Y-1189103D1*
Y-1191603D1*
Y-1194103D1*
X-785437Y-1141603D2*
Y-1144103D1*
Y-1146603D1*
Y-1149103D1*
Y-1151603D1*
Y-1154103D1*
Y-1156603D1*
Y-1159103D1*
Y-1161603D1*
Y-1164103D1*
X-717937D2*
Y-1166603D1*
Y-1169103D1*
Y-1171603D1*
Y-1174103D1*
X-785437D2*
Y-1176603D1*
Y-1179103D1*
Y-1181603D1*
Y-1184103D1*
Y-1186603D1*
Y-1189103D1*
Y-1191603D1*
Y-1194103D1*
X-717743Y-1219333D2*
X-722357Y-1221833D1*
X-726727Y-1224333D1*
X-730992Y-1226833D1*
X-735226Y-1229333D1*
X-739327Y-1231833D1*
X-743449Y-1234333D1*
X-748120Y-1236833D1*
X-753823Y-1239333D1*
X-760243Y-1241833D1*
X-792743Y-1221833D2*
X-792629Y-1224333D1*
X-792362Y-1226833D1*
X-791098Y-1229333D1*
X-788209Y-1231833D1*
X-784704Y-1234333D1*
X-780877Y-1236833D1*
X-776855Y-1239333D1*
X-772774Y-1241833D1*
X-768910Y-1244333D1*
X-765243Y-1246833D1*
X-768703Y-1249333D1*
X-772355Y-1251833D1*
X-776257Y-1254333D1*
X-780320Y-1256833D1*
X-784228Y-1259333D1*
X-787624Y-1261833D1*
X-790484Y-1264333D1*
X-791641Y-1266833D1*
X-792307Y-1269333D1*
X-792743Y-1271833D1*
X-787743Y-1221833D2*
X-783993Y-1224333D1*
X-780031Y-1226833D1*
X-776003Y-1229333D1*
X-771874Y-1231833D1*
X-767505Y-1234333D1*
X-762609Y-1236833D1*
X-756764Y-1239333D1*
X-750243Y-1241833D1*
X-717743Y-1221833D2*
X-717858Y-1224333D1*
X-718124Y-1226833D1*
X-719389Y-1229333D1*
X-722363Y-1231833D1*
X-726101Y-1234333D1*
X-730208Y-1236833D1*
X-734272Y-1239333D1*
X-738143Y-1241833D1*
X-741779Y-1244333D1*
X-745243Y-1246833D1*
X-741784Y-1249333D1*
X-738131Y-1251833D1*
X-734230Y-1254333D1*
X-730167Y-1256833D1*
X-726259Y-1259333D1*
X-722863Y-1261833D1*
X-720003Y-1264333D1*
X-718851Y-1266833D1*
X-718218Y-1269333D1*
X-717918Y-1271833D1*
X-717743Y-1274333D1*
X-757743Y-1251833D2*
X-760639Y-1254333D1*
X-763857Y-1256833D1*
X-767411Y-1259333D1*
X-771276Y-1261833D1*
X-775344Y-1264333D1*
X-779421Y-1266833D1*
X-783540Y-1269333D1*
X-787743Y-1271833D1*
X-757743Y-1251833D2*
X-752839Y-1254333D1*
X-748159Y-1256833D1*
X-743768Y-1259333D1*
X-739497Y-1261833D1*
X-735252Y-1264333D1*
X-731083Y-1266833D1*
X-726836Y-1269333D1*
X-722355Y-1271833D1*
X-717743Y-1274333D1*
X-720243Y-1286833D2*
X-725234Y-1289333D1*
X-730165Y-1291833D1*
X-735035Y-1294333D1*
X-740188Y-1296833D1*
X-746153Y-1299333D1*
X-752743Y-1301833D1*
X-717743Y-1286833D2*
X-717753Y-1289333D1*
X-717861Y-1291833D1*
X-718124Y-1294333D1*
X-719389Y-1296833D1*
X-722373Y-1299333D1*
X-726199Y-1301833D1*
X-730634Y-1304333D1*
X-735373Y-1306833D1*
X-740083Y-1309333D1*
X-744215Y-1311833D1*
X-747639Y-1314333D1*
X-748973Y-1316833D1*
X-749700Y-1319333D1*
X-750030Y-1321833D1*
X-750164Y-1324333D1*
X-750215Y-1326833D1*
X-750234Y-1329333D1*
X-750243Y-1331833D1*
X-780243Y-1289333D2*
X-783802Y-1291833D1*
X-786690Y-1294333D1*
X-788856Y-1296833D1*
X-790460Y-1299333D1*
X-791574Y-1301833D1*
X-792211Y-1304333D1*
X-792522Y-1306833D1*
X-792657Y-1309333D1*
X-792712Y-1311833D1*
X-792732Y-1314333D1*
X-792740Y-1316833D1*
X-792742Y-1319333D1*
X-792743Y-1321833D1*
Y-1324333D1*
Y-1326833D1*
Y-1329333D1*
Y-1331833D1*
Y-1334333D1*
Y-1336833D1*
Y-1339333D1*
X-762743Y-1289333D2*
X-759165Y-1291833D1*
X-756079Y-1294333D1*
X-753062Y-1296833D1*
X-749430Y-1299333D1*
X-745243Y-1301833D1*
X-770243Y-1296833D2*
X-774742Y-1299333D1*
X-778607Y-1301833D1*
X-781528Y-1304333D1*
X-783747Y-1306833D1*
X-784520Y-1309333D1*
X-784937Y-1311833D1*
X-785124Y-1314333D1*
X-785199Y-1316833D1*
X-785228Y-1319333D1*
X-785238Y-1321833D1*
X-785242Y-1324333D1*
X-785243Y-1326833D1*
Y-1329333D1*
X-760243Y-1331833D1*
X-775243Y-1296833D2*
X-769122Y-1299333D1*
X-764415Y-1301833D1*
X-760851Y-1304333D1*
X-759332Y-1306833D1*
X-758454Y-1309333D1*
X-758034Y-1311833D1*
X-757854Y-1314333D1*
X-757784Y-1316833D1*
X-757757Y-1319333D1*
X-757748Y-1321833D1*
X-757745Y-1324333D1*
X-757744Y-1326833D1*
X-757743Y-1329333D1*
X-782743Y-1331833D1*
X-717743D2*
Y-1334333D1*
Y-1336833D1*
Y-1339333D1*
X616730Y-860683D2*
D13*
X610319Y-864017D1*
X605084Y-867350D1*
X600899Y-870683D1*
X597574Y-874017D1*
X594995Y-877350D1*
X593006Y-880683D1*
X591583Y-884017D1*
X590759Y-887350D1*
X590353Y-890683D1*
X590176Y-894017D1*
X590105Y-897350D1*
X590078Y-900683D1*
X590068Y-904017D1*
X590065Y-907350D1*
X590064Y-910683D1*
Y-914017D1*
X590063Y-917350D1*
X590076Y-920683D1*
X590194Y-924017D1*
X590631Y-927350D1*
X591560Y-930683D1*
X592970Y-934017D1*
X594904Y-937350D1*
X597447Y-940683D1*
X600632Y-944017D1*
X604819Y-947350D1*
X610358Y-950683D1*
X616730Y-954017D1*
X643397Y-860683D2*
X649395Y-864017D1*
X654561Y-867350D1*
X658573Y-870683D1*
X661519Y-874017D1*
X663677Y-877350D1*
X665182Y-880683D1*
X666150Y-884017D1*
X666990Y-887350D1*
X667969Y-890683D1*
X668896Y-894017D1*
X669505Y-897350D1*
X669823Y-900683D1*
X669968Y-904017D1*
X670028Y-907350D1*
X670038Y-910683D1*
X669929Y-914017D1*
X669507Y-917350D1*
X668710Y-920683D1*
X667842Y-924017D1*
X667144Y-927350D1*
X666397Y-930683D1*
X665327Y-934017D1*
X663846Y-937350D1*
X661758Y-940683D1*
X658679Y-944017D1*
X654404Y-947350D1*
X649121Y-950683D1*
X643397Y-954017D1*
X696730Y-860683D2*
Y-864017D1*
Y-867350D1*
Y-870683D1*
Y-874017D1*
Y-877350D1*
Y-880683D1*
Y-884017D1*
Y-887350D1*
Y-890683D1*
Y-894017D1*
Y-897350D1*
Y-900683D1*
Y-904017D1*
Y-907350D1*
Y-910683D1*
Y-914017D1*
Y-917350D1*
Y-920683D1*
Y-924017D1*
Y-927350D1*
Y-930683D1*
Y-934017D1*
Y-937350D1*
Y-940683D1*
Y-944017D1*
Y-947350D1*
Y-950683D1*
Y-954017D1*
X710063Y-860683D2*
Y-864017D1*
Y-867350D1*
Y-870683D1*
Y-874017D1*
Y-877350D1*
Y-880683D1*
Y-884017D1*
Y-887350D1*
Y-890683D1*
Y-894017D1*
Y-897350D1*
Y-900683D1*
Y-904017D1*
Y-907350D1*
Y-910683D1*
Y-914017D1*
Y-917350D1*
Y-920683D1*
Y-924017D1*
Y-927350D1*
Y-930683D1*
Y-934017D1*
Y-937350D1*
Y-940683D1*
Y-944017D1*
Y-947350D1*
Y-950683D1*
Y-954017D1*
X766730Y-860683D2*
X759193Y-864017D1*
X753070Y-867350D1*
X748574Y-870683D1*
X745413Y-874017D1*
X743155Y-877350D1*
X741513Y-880683D1*
X740225Y-884017D1*
X739007Y-887350D1*
X737971Y-890683D1*
X737316Y-894017D1*
X736980Y-897350D1*
X736829Y-900683D1*
X736767Y-904017D1*
X736743Y-907350D1*
X736734Y-910683D1*
X736731Y-914017D1*
X736744Y-917350D1*
X736860Y-920683D1*
X737298Y-924017D1*
X738214Y-927350D1*
X739506Y-930683D1*
X741016Y-934017D1*
X742748Y-937350D1*
X744954Y-940683D1*
X748084Y-944017D1*
X752378Y-947350D1*
X757668Y-950683D1*
X763397Y-954017D1*
X800063Y-860683D2*
X804679Y-864017D1*
X808098Y-867350D1*
X809141Y-870683D1*
X809684Y-874017D1*
X809919Y-877350D1*
X810011Y-880683D1*
X810045Y-884017D1*
X810057Y-887350D1*
X810061Y-890683D1*
X810063Y-894017D1*
Y-897350D1*
Y-900683D1*
Y-904017D1*
Y-907350D1*
Y-910683D1*
Y-914017D1*
Y-917350D1*
Y-920683D1*
Y-924017D1*
Y-927350D1*
Y-930683D1*
Y-934017D1*
Y-937350D1*
Y-940683D1*
Y-944017D1*
Y-947350D1*
Y-950683D1*
Y-954017D1*
X623397Y-867350D2*
X617512Y-870683D1*
X612670Y-874017D1*
X609149Y-877350D1*
X606684Y-880683D1*
X605051Y-884017D1*
X604142Y-887350D1*
X603704Y-890683D1*
X603515Y-894017D1*
X603440Y-897350D1*
X603412Y-900683D1*
X603402Y-904017D1*
X603398Y-907350D1*
X603397Y-910683D1*
Y-914017D1*
Y-917350D1*
X603410Y-920683D1*
X603527Y-924017D1*
X603965Y-927350D1*
X604906Y-930683D1*
X606524Y-934017D1*
X608795Y-937350D1*
X616477Y-940683D1*
X628540Y-944017D1*
X643397Y-947350D1*
X633397Y-867350D2*
X639281Y-870683D1*
X644124Y-874017D1*
X647644Y-877350D1*
X650122Y-880683D1*
X651872Y-884017D1*
X653206Y-887350D1*
X654442Y-890683D1*
X655486Y-894017D1*
X656142Y-897350D1*
X656480Y-900683D1*
X656631Y-904017D1*
X656693Y-907350D1*
X656704Y-910683D1*
X656595Y-914017D1*
X656173Y-917350D1*
X655363Y-920683D1*
X654392Y-924017D1*
X653373Y-927350D1*
X652122Y-930683D1*
X650363Y-934017D1*
X648018Y-937350D1*
X640325Y-940683D1*
X628257Y-944017D1*
X613397Y-947350D1*
X773397Y-867350D2*
X767398Y-870683D1*
X762246Y-874017D1*
X758338Y-877350D1*
X755699Y-880683D1*
X753915Y-884017D1*
X752479Y-887350D1*
X751355Y-890683D1*
X750668Y-894017D1*
X750319Y-897350D1*
X750164Y-900683D1*
X750101Y-904017D1*
X750077Y-907350D1*
X750068Y-910683D1*
X750065Y-914017D1*
X750077Y-917350D1*
X750194Y-920683D1*
X750631Y-924017D1*
X751560Y-927350D1*
X752983Y-930683D1*
X755152Y-934017D1*
X758133Y-937350D1*
X767355Y-940683D1*
X781960Y-944017D1*
X800063Y-947350D1*
X796730Y-867350D2*
Y-870683D1*
Y-874017D1*
Y-877350D1*
Y-880683D1*
Y-884017D1*
Y-887350D1*
Y-890683D1*
Y-894017D1*
Y-897350D1*
Y-900683D1*
Y-904017D1*
Y-907350D1*
Y-910683D1*
Y-914017D1*
Y-917350D1*
Y-920683D1*
Y-924017D1*
Y-927350D1*
Y-930683D1*
Y-934017D1*
Y-937350D1*
Y-940683D1*
Y-944017D1*
X770063Y-947350D1*
X574217Y-996977D2*
X575483Y-1000310D1*
X576916Y-1003643D1*
X578464Y-1006977D1*
X580070Y-1010310D1*
X581610Y-1013643D1*
X582964Y-1016977D1*
X584252Y-1020310D1*
X585864Y-1023643D1*
X587814Y-1026977D1*
X589872Y-1030310D1*
X592155Y-1033643D1*
X594927Y-1036977D1*
X598214Y-1040310D1*
X601625Y-1043643D1*
X604740Y-1046977D1*
X605961Y-1050310D1*
X605389Y-1053643D1*
X603177Y-1056977D1*
X600444Y-1060310D1*
X597392Y-1063643D1*
X594284Y-1066977D1*
X591416Y-1070310D1*
X588896Y-1073643D1*
X586422Y-1076977D1*
X583672Y-1080310D1*
X580649Y-1083643D1*
X577463Y-1086977D1*
X574217Y-1090310D1*
X587550Y-996977D2*
X589216Y-1000310D1*
X590613Y-1003643D1*
X592014Y-1006977D1*
X593521Y-1010310D1*
X595118Y-1013643D1*
X596857Y-1016977D1*
X598828Y-1020310D1*
X601035Y-1023643D1*
X603698Y-1026977D1*
X607092Y-1030310D1*
X615008Y-1033643D1*
X624217Y-1036977D1*
X634217Y-996977D2*
Y-1000310D1*
Y-1003643D1*
Y-1006977D1*
Y-1010310D1*
X634204Y-1013643D1*
X634073Y-1016977D1*
X633518Y-1020310D1*
X632478Y-1023643D1*
X629489Y-1026977D1*
X624571Y-1030310D1*
X616906Y-1033643D1*
X607550Y-1036977D1*
X647550Y-996977D2*
Y-1000310D1*
Y-1003643D1*
Y-1006977D1*
Y-1010310D1*
Y-1013643D1*
Y-1016977D1*
Y-1020310D1*
Y-1023643D1*
Y-1026977D1*
Y-1030310D1*
Y-1033643D1*
Y-1036977D1*
Y-1040310D1*
Y-1043643D1*
Y-1046977D1*
Y-1050310D1*
Y-1053643D1*
Y-1056977D1*
Y-1060310D1*
Y-1063643D1*
Y-1066977D1*
Y-1070310D1*
Y-1073643D1*
Y-1076977D1*
Y-1080310D1*
Y-1083643D1*
Y-1086977D1*
Y-1090310D1*
X667550Y-996977D2*
Y-1000310D1*
Y-1003643D1*
X724217Y-996977D2*
Y-1000310D1*
Y-1003643D1*
Y-1006977D1*
Y-1010310D1*
Y-1013643D1*
Y-1016977D1*
Y-1020310D1*
Y-1023643D1*
Y-1026977D1*
Y-1030310D1*
Y-1033643D1*
Y-1036977D1*
Y-1040310D1*
Y-1043643D1*
Y-1046977D1*
Y-1050310D1*
Y-1053643D1*
Y-1056977D1*
Y-1060310D1*
Y-1063643D1*
Y-1066977D1*
Y-1070310D1*
Y-1073643D1*
Y-1076977D1*
Y-1080310D1*
Y-1083643D1*
Y-1086977D1*
Y-1090310D1*
X750883Y-996977D2*
X749332Y-1000310D1*
X748302Y-1003643D1*
X747550Y-1006977D1*
X787550Y-996977D2*
X793549Y-1000310D1*
X798714Y-1003643D1*
X802726Y-1006977D1*
X805672Y-1010310D1*
X807843Y-1013643D1*
X809452Y-1016977D1*
X810728Y-1020310D1*
X811941Y-1023643D1*
X812977Y-1026977D1*
X813631Y-1030310D1*
X813967Y-1033643D1*
X814118Y-1036977D1*
X814180Y-1040310D1*
X814204Y-1043643D1*
X814212Y-1046977D1*
X814202Y-1050310D1*
X814086Y-1053643D1*
X813661Y-1056977D1*
X812850Y-1060310D1*
X811878Y-1063643D1*
X810859Y-1066977D1*
X809622Y-1070310D1*
X808058Y-1073643D1*
X805934Y-1076977D1*
X802840Y-1080310D1*
X798561Y-1083643D1*
X793276Y-1086977D1*
X787550Y-1090310D1*
X710883Y-1003643D2*
Y-1006977D1*
Y-1010310D1*
Y-1013643D1*
Y-1016977D1*
Y-1020310D1*
Y-1023643D1*
Y-1026977D1*
Y-1030310D1*
Y-1033643D1*
Y-1036977D1*
Y-1040310D1*
Y-1043643D1*
Y-1046977D1*
Y-1050310D1*
Y-1053643D1*
Y-1056977D1*
Y-1060310D1*
Y-1063643D1*
Y-1066977D1*
Y-1070310D1*
Y-1073643D1*
Y-1076977D1*
Y-1080310D1*
Y-1083643D1*
Y-1086977D1*
Y-1090310D1*
X757550Y-1003643D2*
X754217Y-1006977D1*
X777550Y-1003643D2*
X783549Y-1006977D1*
X788701Y-1010310D1*
X792596Y-1013643D1*
X795555Y-1016977D1*
X796713Y-1020310D1*
X797695Y-1023643D1*
X798744Y-1026977D1*
X799699Y-1030310D1*
X800319Y-1033643D1*
X800641Y-1036977D1*
X800788Y-1040310D1*
X800848Y-1043643D1*
X800871Y-1046977D1*
X800866Y-1050310D1*
X800752Y-1053643D1*
X800328Y-1056977D1*
X799517Y-1060310D1*
X798532Y-1063643D1*
X797383Y-1066977D1*
X795928Y-1070310D1*
X792653Y-1073643D1*
X782909Y-1076977D1*
X767178Y-1080310D1*
X747550Y-1083643D1*
X749113Y-1086977D1*
X750883Y-1090310D1*
X630883Y-1040310D2*
X628065Y-1043643D1*
X625558Y-1046977D1*
X623088Y-1050310D1*
X620338Y-1053643D1*
X617315Y-1056977D1*
X614136Y-1060310D1*
X610979Y-1063643D1*
X608093Y-1066977D1*
X605566Y-1070310D1*
X603090Y-1073643D1*
X600339Y-1076977D1*
X597315Y-1080310D1*
X594123Y-1083643D1*
X590850Y-1086977D1*
X587550Y-1090310D1*
X634217Y-1040310D2*
Y-1043643D1*
Y-1046977D1*
Y-1050310D1*
Y-1053643D1*
Y-1056977D1*
Y-1060310D1*
Y-1063643D1*
Y-1066977D1*
Y-1070310D1*
Y-1073643D1*
Y-1076977D1*
Y-1080310D1*
Y-1083643D1*
Y-1086977D1*
Y-1090310D1*
X759953Y-1160633D2*
Y-1163967D1*
Y-1167300D1*
X796620Y-1160633D2*
Y-1163967D1*
Y-1167300D1*
X778883Y-1279913D2*
Y-1283247D1*
Y-1286580D1*
Y-1289913D1*
Y-1293247D1*
Y-1296580D1*
Y-1299913D1*
Y-1303247D1*
Y-1306580D1*
X748883D1*
Y-1309913D1*
Y-1313247D1*
Y-1316580D1*
X778883D1*
Y-1319913D1*
Y-1323247D1*
Y-1326580D1*
Y-1329913D1*
Y-1333247D1*
Y-1336580D1*
X788883Y-1279913D2*
Y-1283247D1*
Y-1286580D1*
Y-1289913D1*
Y-1293247D1*
Y-1296580D1*
Y-1299913D1*
Y-1303247D1*
Y-1306580D1*
X815550D1*
Y-1309913D1*
Y-1313247D1*
Y-1316580D1*
X788883D1*
Y-1319913D1*
Y-1323247D1*
Y-1326580D1*
Y-1329913D1*
Y-1333247D1*
Y-1336580D1*
X1000913Y-857547D2*
Y-860880D1*
Y-864213D1*
X1037580Y-857547D2*
Y-860880D1*
Y-864213D1*
X-992640Y-835667D2*
Y-839000D1*
Y-842333D1*
Y-845667D1*
Y-849000D1*
Y-852333D1*
Y-855667D1*
Y-859000D1*
Y-862333D1*
X-1022640D1*
Y-865667D1*
Y-869000D1*
Y-872333D1*
X-992640D1*
Y-875667D1*
Y-879000D1*
Y-882333D1*
Y-885667D1*
Y-889000D1*
Y-892333D1*
X-982640Y-835667D2*
Y-839000D1*
Y-842333D1*
Y-845667D1*
Y-849000D1*
Y-852333D1*
Y-855667D1*
Y-859000D1*
Y-862333D1*
X-955973D1*
Y-865667D1*
Y-869000D1*
Y-872333D1*
X-982640D1*
Y-875667D1*
Y-879000D1*
Y-882333D1*
Y-885667D1*
Y-889000D1*
Y-892333D1*
X-1088263Y897670D2*
X-1092995Y894337D1*
X-1096742Y891003D1*
X-1099323Y887670D1*
X-1101087Y884337D1*
X-1102517Y881003D1*
X-1103639Y877670D1*
X-1104326Y874337D1*
X-1104674Y871003D1*
X-1104829Y867670D1*
X-1104893Y864337D1*
X-1104917Y861003D1*
X-1104925Y857670D1*
X-1104928Y854337D1*
X-1104930Y851003D1*
Y847670D1*
Y844337D1*
Y841003D1*
X-1011597Y897670D2*
Y894337D1*
Y891003D1*
Y887670D1*
Y884337D1*
Y881003D1*
Y877670D1*
Y874337D1*
Y871003D1*
Y867670D1*
Y864337D1*
Y861003D1*
Y857670D1*
Y854337D1*
Y851003D1*
Y847670D1*
Y844337D1*
Y841003D1*
X-1088263Y884337D2*
X-1091069Y881003D1*
X-1093445Y877670D1*
X-1095361Y874337D1*
X-1096757Y871003D1*
X-1097572Y867670D1*
X-1097975Y864337D1*
X-1098151Y861003D1*
X-1098222Y857670D1*
X-1098249Y854337D1*
X-1098258Y851003D1*
X-1098262Y847670D1*
X-1098263Y844337D1*
Y841003D1*
X-1061597Y884337D2*
Y881003D1*
Y877670D1*
Y874337D1*
Y871003D1*
Y867670D1*
Y864337D1*
Y861003D1*
Y857670D1*
Y854337D1*
Y851003D1*
Y847670D1*
X-1054930Y884337D2*
Y881003D1*
Y877670D1*
Y874337D1*
Y871003D1*
Y867670D1*
Y864337D1*
Y861003D1*
Y857670D1*
Y854337D1*
Y851003D1*
Y847670D1*
X-1018263Y884337D2*
Y881003D1*
Y877670D1*
Y874337D1*
Y871003D1*
Y867670D1*
Y864337D1*
Y861003D1*
Y857670D1*
Y854337D1*
Y851003D1*
Y847670D1*
Y844337D1*
Y841003D1*
X-1104930Y811003D2*
Y807670D1*
Y804337D1*
Y801003D1*
X-1011597Y811003D2*
Y807670D1*
Y804337D1*
Y801003D1*
Y797670D1*
Y794337D1*
Y791003D1*
Y787670D1*
Y784337D1*
Y781003D1*
Y777670D1*
Y774337D1*
Y771003D1*
Y767670D1*
Y764337D1*
Y761003D1*
Y757670D1*
X-1061597Y801003D2*
Y797670D1*
Y794337D1*
Y791003D1*
Y787670D1*
Y784337D1*
Y781003D1*
Y777670D1*
Y774337D1*
Y771003D1*
Y767670D1*
Y764337D1*
Y761003D1*
X-1054930Y801003D2*
Y797670D1*
Y794337D1*
Y791003D1*
Y787670D1*
Y784337D1*
Y781003D1*
Y777670D1*
Y774337D1*
Y771003D1*
Y767670D1*
Y764337D1*
Y761003D1*
X-1018263Y801003D2*
Y797670D1*
Y794337D1*
Y791003D1*
Y787670D1*
Y784337D1*
Y781003D1*
Y777670D1*
Y774337D1*
Y771003D1*
Y767670D1*
Y764337D1*
Y761003D1*
Y757670D1*
X-1088263Y734337D2*
X-1092995Y731003D1*
X-1096742Y727670D1*
X-1099323Y724337D1*
X-1101087Y721003D1*
X-1102517Y717670D1*
X-1103639Y714337D1*
X-1104326Y711003D1*
X-1104674Y707670D1*
X-1104829Y704337D1*
X-1104893Y701003D1*
X-1104917Y697670D1*
X-1104925Y694337D1*
X-1104928Y691003D1*
X-1104930Y687670D1*
Y684337D1*
Y681003D1*
Y677670D1*
X-1011597Y734337D2*
Y731003D1*
Y727670D1*
Y724337D1*
Y721003D1*
Y717670D1*
Y714337D1*
Y711003D1*
Y707670D1*
Y704337D1*
Y701003D1*
Y697670D1*
Y694337D1*
Y691003D1*
Y687670D1*
Y684337D1*
Y681003D1*
Y677670D1*
X-1088263Y721003D2*
X-1091069Y717670D1*
X-1093445Y714337D1*
X-1095361Y711003D1*
X-1096757Y707670D1*
X-1097572Y704337D1*
X-1097975Y701003D1*
X-1098151Y697670D1*
X-1098222Y694337D1*
X-1098249Y691003D1*
X-1098258Y687670D1*
X-1098262Y684337D1*
X-1098263Y681003D1*
Y677670D1*
X-1061597Y721003D2*
Y717670D1*
Y714337D1*
Y711003D1*
Y707670D1*
Y704337D1*
Y701003D1*
Y697670D1*
Y694337D1*
Y691003D1*
Y687670D1*
Y684337D1*
X-1054930Y721003D2*
Y717670D1*
Y714337D1*
Y711003D1*
Y707670D1*
Y704337D1*
Y701003D1*
Y697670D1*
Y694337D1*
Y691003D1*
Y687670D1*
Y684337D1*
X-1018263Y721003D2*
Y717670D1*
Y714337D1*
Y711003D1*
Y707670D1*
Y704337D1*
Y701003D1*
Y697670D1*
Y694337D1*
Y691003D1*
Y687670D1*
Y684337D1*
Y681003D1*
Y677670D1*
X-1104930Y647670D2*
Y644337D1*
Y641003D1*
Y637670D1*
X-1089287Y634337D1*
X-1078295Y631003D1*
X-1071078Y627670D1*
X-1065961Y624337D1*
X-1061597Y621003D1*
X-1063790Y617670D1*
X-1066145Y614337D1*
X-1068976Y611003D1*
X-1072551Y607670D1*
X-1077208Y604337D1*
X-1083088Y601003D1*
X-1089725Y597670D1*
X-1095893Y594337D1*
X-1101042Y591003D1*
X-1103375Y587670D1*
X-1104209Y584337D1*
X-1104655Y581003D1*
X-1104930Y577670D1*
X-1011597Y647670D2*
Y644337D1*
Y641003D1*
Y637670D1*
X-1068263D2*
X-1062252Y634337D1*
X-1056969Y631003D1*
X-1052519Y627670D1*
X-1048632Y624337D1*
X-1044947Y621003D1*
X-1041096Y617670D1*
X-1036929Y614337D1*
X-1032728Y611003D1*
X-1028809Y607670D1*
X-1025166Y604337D1*
X-1021703Y601003D1*
X-1018442Y597670D1*
X-1015641Y594337D1*
X-1013652Y591003D1*
X-1012521Y587670D1*
X-1011950Y584337D1*
X-1011597Y581003D1*
X-1051597Y611003D2*
X-1054816Y607670D1*
X-1057839Y604337D1*
X-1060812Y601003D1*
X-1064219Y597670D1*
X-1068380Y594337D1*
X-1073339Y591003D1*
X-1079048Y587670D1*
X-1085253Y584337D1*
X-1091714Y581003D1*
X-1098263Y577670D1*
X-1048263Y611003D2*
X-1044930Y607670D1*
X-1041597Y604337D1*
X-1038250Y601003D1*
X-1034800Y597670D1*
X-1031042Y594337D1*
X-1026909Y591003D1*
X-1022713Y587670D1*
X-1018748Y584337D1*
X-1014930Y581003D1*
X-1018263Y567670D2*
Y564337D1*
Y561003D1*
Y557670D1*
Y554337D1*
Y551003D1*
Y547670D1*
Y544337D1*
Y541003D1*
Y537670D1*
X-1011597Y567670D2*
Y564337D1*
Y561003D1*
Y557670D1*
Y554337D1*
Y551003D1*
Y547670D1*
Y544337D1*
Y541003D1*
Y537670D1*
Y534337D1*
Y531003D1*
Y527670D1*
Y524337D1*
Y521003D1*
Y517670D1*
Y514337D1*
Y511003D1*
Y507670D1*
Y504337D1*
Y501003D1*
Y497670D1*
Y494337D1*
Y491003D1*
X-1104930Y537670D2*
Y534337D1*
Y531003D1*
Y527670D1*
Y524337D1*
X-1018263D2*
Y521003D1*
Y517670D1*
Y514337D1*
Y511003D1*
Y507670D1*
Y504337D1*
Y501003D1*
Y497670D1*
Y494337D1*
Y491003D1*
X-1104930Y474337D2*
Y471003D1*
Y467670D1*
Y464337D1*
Y461003D1*
X-1068263D1*
Y457670D1*
Y454337D1*
Y451003D1*
Y447670D1*
Y444337D1*
Y441003D1*
Y437670D1*
Y434337D1*
Y431003D1*
Y427670D1*
Y424337D1*
Y421003D1*
Y417670D1*
X-1104930D1*
Y414337D1*
Y411003D1*
Y407670D1*
Y404337D1*
X-1028263Y474337D2*
X-1023518Y471003D1*
X-1019668Y467670D1*
X-1016779Y464337D1*
X-1014641Y461003D1*
X-1013155Y457670D1*
X-1012306Y454337D1*
X-1011892Y451003D1*
X-1011711Y447670D1*
X-1011639Y444337D1*
X-1011612Y441003D1*
X-1011602Y437670D1*
X-1011598Y434337D1*
X-1011610Y431003D1*
X-1011727Y427670D1*
X-1012165Y424337D1*
X-1013106Y421003D1*
X-1014646Y417670D1*
X-1017135Y414337D1*
X-1020991Y411003D1*
X-1026033Y407670D1*
X-1031597Y404337D1*
X-1054930Y464337D2*
X-1057608Y461003D1*
X-1059558Y457670D1*
X-1060674Y454337D1*
X-1061215Y451003D1*
X-1061450Y447670D1*
X-1061543Y444337D1*
X-1061578Y441003D1*
X-1061590Y437670D1*
X-1061595Y434337D1*
X-1061596Y431003D1*
Y427670D1*
X-1061597Y424337D1*
Y421003D1*
X-1028263Y417670D1*
X-1044930Y464337D2*
X-1036253Y461003D1*
X-1029151Y457670D1*
X-1023447Y454337D1*
X-1020515Y451003D1*
X-1019343Y447670D1*
X-1018718Y444337D1*
X-1018453Y441003D1*
X-1018458Y437670D1*
X-1018854Y434337D1*
X-1019898Y431003D1*
X-1021534Y427670D1*
X-1029387Y424337D1*
X-1043434Y421003D1*
X-1061597Y417670D1*
X-1104930Y371003D2*
Y367670D1*
Y364337D1*
Y361003D1*
Y357670D1*
Y354337D1*
Y351003D1*
Y347670D1*
Y344337D1*
Y341003D1*
Y337670D1*
Y334337D1*
Y331003D1*
Y327670D1*
Y324337D1*
Y321003D1*
Y317670D1*
X-1011597Y371003D2*
Y367670D1*
Y364337D1*
Y361003D1*
X-1098263D2*
Y357670D1*
Y354337D1*
Y351003D1*
Y347670D1*
Y344337D1*
Y341003D1*
Y337670D1*
Y334337D1*
Y331003D1*
Y327670D1*
Y324337D1*
Y321003D1*
Y317670D1*
X-1104930Y297670D2*
Y294337D1*
Y291003D1*
Y287670D1*
Y284337D1*
X-1068263D1*
Y281003D1*
Y277670D1*
Y274337D1*
Y271003D1*
Y267670D1*
Y264337D1*
Y261003D1*
Y257670D1*
Y254337D1*
Y251003D1*
Y247670D1*
Y244337D1*
Y241003D1*
X-1104930D1*
Y237670D1*
Y234337D1*
Y231003D1*
Y227670D1*
X-1028263Y297670D2*
X-1023518Y294337D1*
X-1019668Y291003D1*
X-1016779Y287670D1*
X-1014641Y284337D1*
X-1013155Y281003D1*
X-1012306Y277670D1*
X-1011892Y274337D1*
X-1011711Y271003D1*
X-1011639Y267670D1*
X-1011612Y264337D1*
X-1011602Y261003D1*
X-1011598Y257670D1*
X-1011610Y254337D1*
X-1011727Y251003D1*
X-1012165Y247670D1*
X-1013106Y244337D1*
X-1014646Y241003D1*
X-1017135Y237670D1*
X-1020991Y234337D1*
X-1026033Y231003D1*
X-1031597Y227670D1*
X-1054930Y287670D2*
X-1057608Y284337D1*
X-1059558Y281003D1*
X-1060674Y277670D1*
X-1061215Y274337D1*
X-1061450Y271003D1*
X-1061543Y267670D1*
X-1061578Y264337D1*
X-1061590Y261003D1*
X-1061595Y257670D1*
X-1061596Y254337D1*
Y251003D1*
X-1061597Y247670D1*
Y244337D1*
X-1028263Y241003D1*
X-1044930Y287670D2*
X-1036253Y284337D1*
X-1029151Y281003D1*
X-1023447Y277670D1*
X-1020515Y274337D1*
X-1019343Y271003D1*
X-1018718Y267670D1*
X-1018453Y264337D1*
X-1018458Y261003D1*
X-1018854Y257670D1*
X-1019898Y254337D1*
X-1021534Y251003D1*
X-1029387Y247670D1*
X-1043434Y244337D1*
X-1061597Y241003D1*
X-1098263Y197670D2*
X-1099802Y194337D1*
X-1100772Y191003D1*
X-1101374Y187670D1*
X-1102014Y184337D1*
X-1102899Y181003D1*
X-1103787Y177670D1*
X-1104380Y174337D1*
X-1104693Y171003D1*
X-1104836Y167670D1*
X-1104882Y164337D1*
X-1104787Y161003D1*
X-1104371Y157670D1*
X-1103562Y154337D1*
X-1102591Y151003D1*
X-1101572Y147670D1*
X-1100322Y144337D1*
X-1098645Y141003D1*
X-1096146Y137670D1*
X-1092525Y134337D1*
X-1088263Y131003D1*
X-1011597Y197670D2*
Y194337D1*
Y191003D1*
Y187670D1*
Y184337D1*
Y181003D1*
Y177670D1*
Y174337D1*
Y171003D1*
Y167670D1*
Y164337D1*
Y161003D1*
X-1011610Y157670D1*
X-1011727Y154337D1*
X-1012165Y151003D1*
X-1013093Y147670D1*
X-1014502Y144337D1*
X-1016428Y141003D1*
X-1018886Y137670D1*
X-1021597Y134337D1*
X-1094930Y184337D2*
X-1095057Y181003D1*
X-1095484Y177670D1*
X-1096283Y174337D1*
X-1097125Y171003D1*
X-1097589Y167670D1*
X-1097473Y164337D1*
X-1096803Y161003D1*
X-1095799Y157670D1*
X-1094597Y154337D1*
X-1090705Y151003D1*
X-1080456Y147670D1*
X-1068263Y144337D1*
X-1061597Y184337D2*
Y181003D1*
Y177670D1*
Y174337D1*
Y171003D1*
Y167670D1*
X-1061610Y164337D1*
X-1061740Y161003D1*
X-1062052Y157670D1*
X-1063647Y154337D1*
X-1069573Y151003D1*
X-1079331Y147670D1*
X-1091597Y144337D1*
X-1054930Y184337D2*
Y181003D1*
Y177670D1*
X-1054917Y174337D1*
X-1054800Y171003D1*
X-1054375Y167670D1*
X-1053564Y164337D1*
X-1052566Y161003D1*
X-1051260Y157670D1*
X-1049414Y154337D1*
X-1043618Y151003D1*
X-1035103Y147670D1*
X-1024930Y144337D1*
X-1018263Y184337D2*
Y181003D1*
Y177670D1*
Y174337D1*
Y171003D1*
Y167670D1*
X-1018276Y164337D1*
X-1018420Y161003D1*
X-1018771Y157670D1*
X-1020614Y154337D1*
X-1026319Y151003D1*
X-1034786Y147670D1*
X-1044930Y144337D1*
X-1054930D2*
X-1058263Y141003D1*
X-1061597Y137670D1*
X-1064930Y134337D1*
X-1068263Y131003D1*
X-1054930Y144337D2*
X-1051597Y141003D1*
X-1048263Y137670D1*
X-1044930Y134337D1*
X-1101597Y107670D2*
X-1102609Y104337D1*
X-1103446Y101003D1*
X-1103048Y97670D1*
X-1102348Y94337D1*
X-1101597Y91003D1*
X-1094930Y107670D2*
X-1093404Y104337D1*
X-1092574Y101003D1*
X-1092284Y97670D1*
X-1093440Y94337D1*
X-1094930Y91003D1*
X-1078263Y67670D2*
X-1084661Y64337D1*
X-1089792Y61003D1*
X-1093656Y57670D1*
X-1096491Y54337D1*
X-1098601Y51003D1*
X-1100183Y47670D1*
X-1101448Y44337D1*
X-1102657Y41003D1*
X-1103691Y37670D1*
X-1104344Y34337D1*
X-1104680Y31003D1*
X-1104831Y27670D1*
X-1104880Y24337D1*
X-1104787Y21003D1*
X-1104371Y17670D1*
X-1103575Y14337D1*
X-1102713Y11003D1*
X-1102081Y7670D1*
X-1101597Y4337D1*
X-1034930Y67670D2*
X-1028931Y64337D1*
X-1023779Y61003D1*
X-1019871Y57670D1*
X-1017233Y54337D1*
X-1015448Y51003D1*
X-1014013Y47670D1*
X-1012888Y44337D1*
X-1012201Y41003D1*
X-1011853Y37670D1*
X-1011697Y34337D1*
X-1011634Y31003D1*
X-1011610Y27670D1*
X-1011601Y24337D1*
X-1011598Y21003D1*
X-1011597Y17670D1*
Y14337D1*
Y11003D1*
Y7670D1*
Y4337D1*
X-1048263Y57670D2*
X-1062825Y54337D1*
X-1074769Y51003D1*
X-1083301Y47670D1*
X-1089672Y44337D1*
X-1092393Y41003D1*
X-1094302Y37670D1*
X-1095803Y34337D1*
X-1096943Y31003D1*
X-1097523Y27670D1*
X-1097451Y24337D1*
X-1096809Y21003D1*
X-1096018Y17670D1*
X-1095461Y14337D1*
X-1095160Y11003D1*
X-1095016Y7670D1*
X-1094930Y4337D1*
X-1064930Y57670D2*
X-1050369Y54337D1*
X-1038424Y51003D1*
X-1029893Y47670D1*
X-1023521Y44337D1*
X-1020525Y41003D1*
X-1019345Y37670D1*
X-1018718Y34337D1*
X-1018439Y31003D1*
X-1018328Y27670D1*
X-1018286Y24337D1*
X-1018271Y21003D1*
X-1018266Y17670D1*
X-1018264Y14337D1*
Y11003D1*
X-1018263Y7670D1*
Y4337D1*
X-1078263Y-15663D2*
X-1084661Y-18997D1*
X-1089792Y-22330D1*
X-1093656Y-25663D1*
X-1096491Y-28997D1*
X-1098601Y-32330D1*
X-1100183Y-35663D1*
X-1101448Y-38997D1*
X-1102657Y-42330D1*
X-1103691Y-45663D1*
X-1104344Y-48997D1*
X-1104667Y-52330D1*
X-1104701Y-55663D1*
X-1104338Y-58997D1*
X-1103564Y-62330D1*
X-1102705Y-65663D1*
X-1101996Y-68997D1*
X-1101133Y-72330D1*
X-1099638Y-75663D1*
X-1097359Y-78997D1*
X-1094391Y-82330D1*
X-1090476Y-85663D1*
X-1084862Y-88997D1*
X-1077153Y-92330D1*
X-1068263Y-95663D1*
X-1034930Y-15663D2*
X-1028931Y-18997D1*
X-1023766Y-22330D1*
X-1019754Y-25663D1*
X-1016808Y-28997D1*
X-1014650Y-32330D1*
X-1013158Y-35663D1*
X-1012307Y-38997D1*
X-1011892Y-42330D1*
X-1011711Y-45663D1*
X-1011639Y-48997D1*
X-1011612Y-52330D1*
X-1011602Y-55663D1*
X-1011598Y-58997D1*
X-1011610Y-62330D1*
X-1011727Y-65663D1*
X-1012165Y-68997D1*
X-1013093Y-72330D1*
X-1014503Y-75663D1*
X-1016451Y-78997D1*
X-1019124Y-82330D1*
X-1022863Y-85663D1*
X-1028391Y-88997D1*
X-1036062Y-92330D1*
X-1044930Y-95663D1*
X-1048263Y-25663D2*
X-1062825Y-28997D1*
X-1074769Y-32330D1*
X-1083301Y-35663D1*
X-1089672Y-38997D1*
X-1092393Y-42330D1*
X-1094302Y-45663D1*
X-1095790Y-48997D1*
X-1096825Y-52330D1*
X-1097383Y-55663D1*
X-1096596Y-58997D1*
X-1095392Y-62330D1*
X-1093788Y-65663D1*
X-1091834Y-68997D1*
X-1087694Y-72330D1*
X-1075798Y-75663D1*
X-1057429Y-78997D1*
X-1034930Y-82330D1*
X-1064930Y-25663D2*
X-1050369Y-28997D1*
X-1038424Y-32330D1*
X-1029893Y-35663D1*
X-1023521Y-38997D1*
X-1020525Y-42330D1*
X-1019345Y-45663D1*
X-1018718Y-48997D1*
X-1018439Y-52330D1*
X-1018341Y-55663D1*
X-1018429Y-58997D1*
X-1018969Y-62330D1*
X-1020003Y-65663D1*
X-1022982Y-68997D1*
X-1027023Y-72330D1*
X-1040013Y-75663D1*
X-1060209Y-78997D1*
X-1084930Y-82330D1*
X-1104930Y-122330D2*
Y-125663D1*
Y-128997D1*
Y-132330D1*
X-1011597Y-122330D2*
X-1011610Y-125663D1*
X-1011740Y-128997D1*
X-1012308Y-132330D1*
X-1013387Y-135663D1*
X-1016326Y-138997D1*
X-1020105Y-142330D1*
X-1024514Y-145663D1*
X-1029255Y-148997D1*
X-1034156Y-152330D1*
X-1039116Y-155663D1*
X-1044092Y-158997D1*
X-1048968Y-162330D1*
X-1053540Y-165663D1*
X-1057679Y-168997D1*
X-1061597Y-172330D1*
X-1056196Y-175663D1*
X-1050962Y-178997D1*
X-1045844Y-182330D1*
X-1040796Y-185663D1*
X-1035773Y-188997D1*
X-1030769Y-192330D1*
X-1025789Y-195663D1*
X-1021039Y-198997D1*
X-1017028Y-202330D1*
X-1013843Y-205663D1*
X-1012683Y-208997D1*
X-1012058Y-212330D1*
X-1011776Y-215663D1*
X-1011659Y-218997D1*
X-1011597Y-222330D1*
X-1028263Y-132330D2*
X-1032125Y-135663D1*
X-1036402Y-138997D1*
X-1041036Y-142330D1*
X-1045869Y-145663D1*
X-1050804Y-148997D1*
X-1055776Y-152330D1*
X-1060743Y-155663D1*
X-1065490Y-158997D1*
X-1069499Y-162330D1*
X-1072684Y-165663D1*
X-1073989Y-168997D1*
X-1074099Y-172330D1*
X-1072677Y-175663D1*
X-1069257Y-178997D1*
X-1065116Y-182330D1*
X-1060510Y-185663D1*
X-1055668Y-188997D1*
X-1050731Y-192330D1*
X-1045764Y-195663D1*
X-1040890Y-198997D1*
X-1036319Y-202330D1*
X-1032181Y-205663D1*
X-1028263Y-208997D1*
X-1104930D2*
Y-212330D1*
Y-215663D1*
Y-218997D1*
Y-222330D1*
X-499683Y3872567D2*
D12*
Y3868757D1*
Y3864947D1*
Y3861137D1*
Y3857327D1*
Y3853517D1*
Y3849707D1*
Y3845897D1*
Y3842087D1*
Y3838277D1*
Y3834467D1*
Y3830657D1*
Y3826847D1*
Y3823037D1*
Y3819227D1*
Y3815417D1*
Y3811607D1*
Y3807797D1*
Y3803987D1*
Y3800177D1*
Y3796367D1*
Y3792557D1*
Y3788747D1*
Y3784937D1*
Y3781127D1*
Y3777317D1*
Y3773507D1*
Y3769697D1*
Y3765887D1*
Y3762077D1*
Y3758267D1*
Y3754457D1*
Y3750647D1*
Y3746837D1*
Y3743027D1*
Y3739217D1*
X-499668Y3735407D1*
X-499535Y3731597D1*
X-499049Y3727787D1*
X-498122Y3723977D1*
X-497011Y3720167D1*
X-495846Y3716357D1*
X-494446Y3712547D1*
X-492807Y3708737D1*
X-491015Y3704927D1*
X-489024Y3701117D1*
X-486627Y3697307D1*
X-483531Y3693497D1*
X-479505Y3689687D1*
X-474195Y3685877D1*
X-467354Y3682067D1*
X-459113Y3678257D1*
X-450153Y3674447D1*
X-473013Y3872567D2*
Y3868757D1*
Y3864947D1*
Y3861137D1*
Y3857327D1*
Y3853517D1*
Y3849707D1*
Y3845897D1*
Y3842087D1*
Y3838277D1*
Y3834467D1*
Y3830657D1*
Y3826847D1*
Y3823037D1*
Y3819227D1*
Y3815417D1*
Y3811607D1*
Y3807797D1*
Y3803987D1*
Y3800177D1*
X-377763Y3872567D2*
Y3868757D1*
Y3864947D1*
Y3861137D1*
Y3857327D1*
Y3853517D1*
Y3849707D1*
Y3845897D1*
Y3842087D1*
Y3838277D1*
Y3834467D1*
Y3830657D1*
Y3826847D1*
Y3823037D1*
Y3819227D1*
Y3815417D1*
Y3811607D1*
Y3807797D1*
Y3803987D1*
Y3800177D1*
X-351093Y3872567D2*
Y3868757D1*
Y3864947D1*
Y3861137D1*
Y3857327D1*
Y3853517D1*
Y3849707D1*
Y3845897D1*
Y3842087D1*
Y3838277D1*
Y3834467D1*
Y3830657D1*
Y3826847D1*
Y3823037D1*
Y3819227D1*
Y3815417D1*
Y3811607D1*
Y3807797D1*
Y3803987D1*
Y3800177D1*
Y3796367D1*
Y3792557D1*
Y3788747D1*
Y3784937D1*
Y3781127D1*
Y3777317D1*
Y3773507D1*
Y3769697D1*
Y3765887D1*
Y3762077D1*
Y3758267D1*
Y3754457D1*
Y3750647D1*
Y3746837D1*
X-351108Y3743027D1*
X-351242Y3739217D1*
X-351728Y3735407D1*
X-352640Y3731597D1*
X-353617Y3727787D1*
X-354296Y3723977D1*
X-354784Y3720167D1*
X-355446Y3716357D1*
X-356574Y3712547D1*
X-358196Y3708737D1*
X-360283Y3704927D1*
X-362692Y3701117D1*
X-365265Y3697307D1*
X-368397Y3693497D1*
X-372553Y3689687D1*
X-377880Y3685877D1*
X-384895Y3682067D1*
X-394047Y3678257D1*
X-404433Y3674447D1*
X-252033Y3872567D2*
Y3868757D1*
Y3864947D1*
Y3861137D1*
Y3857327D1*
Y3853517D1*
Y3849707D1*
Y3845897D1*
Y3842087D1*
Y3838277D1*
Y3834467D1*
Y3830657D1*
Y3826847D1*
Y3823037D1*
Y3819227D1*
Y3815417D1*
Y3811607D1*
Y3807797D1*
Y3803987D1*
Y3800177D1*
Y3796367D1*
Y3792557D1*
Y3788747D1*
Y3784937D1*
Y3781127D1*
Y3777317D1*
Y3773507D1*
Y3769697D1*
Y3765887D1*
Y3762077D1*
Y3758267D1*
Y3754457D1*
Y3750647D1*
Y3746837D1*
Y3743027D1*
Y3739217D1*
Y3735407D1*
Y3731597D1*
Y3727787D1*
Y3723977D1*
Y3720167D1*
Y3716357D1*
Y3712547D1*
Y3708737D1*
Y3704927D1*
Y3701117D1*
Y3697307D1*
X-225363Y3872567D2*
Y3868757D1*
Y3864947D1*
Y3861137D1*
Y3857327D1*
Y3853517D1*
Y3849707D1*
Y3845897D1*
Y3842087D1*
Y3838277D1*
Y3834467D1*
Y3830657D1*
Y3826847D1*
Y3823037D1*
Y3819227D1*
Y3815417D1*
Y3811607D1*
Y3807797D1*
Y3803987D1*
Y3800177D1*
Y3796367D1*
Y3792557D1*
Y3788747D1*
Y3784937D1*
Y3781127D1*
Y3777317D1*
Y3773507D1*
Y3769697D1*
Y3765887D1*
Y3762077D1*
Y3758267D1*
Y3754457D1*
Y3750647D1*
Y3746837D1*
Y3743027D1*
Y3739217D1*
Y3735407D1*
Y3731597D1*
Y3727787D1*
Y3723977D1*
Y3720167D1*
Y3716357D1*
Y3712547D1*
Y3708737D1*
Y3704927D1*
Y3701117D1*
Y3697307D1*
X-149163Y3872567D2*
X-147846Y3868757D1*
X-146578Y3864947D1*
X-145355Y3861137D1*
X-143936Y3857327D1*
X-142290Y3853517D1*
X-140510Y3849707D1*
X-138653Y3845897D1*
X-136771Y3842087D1*
X-134885Y3838277D1*
X-133105Y3834467D1*
X-131564Y3830657D1*
X-130209Y3826847D1*
X-128732Y3823037D1*
X-127063Y3819227D1*
X-125260Y3815417D1*
X-123281Y3811607D1*
X-121031Y3807797D1*
X-118569Y3803987D1*
X-116105Y3800177D1*
X-113464Y3796367D1*
X-110396Y3792557D1*
X-106969Y3788747D1*
X-103316Y3784937D1*
X-99428Y3781127D1*
X-95040Y3777317D1*
X-90006Y3773507D1*
X-85093Y3769697D1*
X-80974Y3765887D1*
X-79314Y3762077D1*
X-81884Y3758267D1*
X-84955Y3754457D1*
X-88287Y3750647D1*
X-91466Y3746837D1*
X-94308Y3743027D1*
X-97120Y3739217D1*
X-100259Y3735407D1*
X-103713Y3731597D1*
X-107346Y3727787D1*
X-110955Y3723977D1*
X-114253Y3720167D1*
X-117141Y3716357D1*
X-119971Y3712547D1*
X-123116Y3708737D1*
X-126572Y3704927D1*
X-130205Y3701117D1*
X-133815Y3697307D1*
X-137113Y3693497D1*
X-140001Y3689687D1*
X-142821Y3685877D1*
X-145908Y3682067D1*
X-149163Y3678257D1*
X-118683Y3872567D2*
X-117236Y3868757D1*
X-115599Y3864947D1*
X-113829Y3861137D1*
X-111993Y3857327D1*
X-110233Y3853517D1*
X-108700Y3849707D1*
X-107347Y3845897D1*
X-105871Y3842087D1*
X-104203Y3838277D1*
X-102415Y3834467D1*
X-100555Y3830657D1*
X-98657Y3826847D1*
X-96637Y3823037D1*
X-94371Y3819227D1*
X-91903Y3815417D1*
X-89436Y3811607D1*
X-86779Y3807797D1*
X-83503Y3803987D1*
X-78862Y3800177D1*
X-71335Y3796367D1*
X-59952Y3792557D1*
X-46293Y3788747D1*
X-27243Y3872567D2*
Y3868757D1*
Y3864947D1*
Y3861137D1*
Y3857327D1*
Y3853517D1*
Y3849707D1*
Y3845897D1*
Y3842087D1*
Y3838277D1*
Y3834467D1*
X-27258Y3830657D1*
X-27392Y3826847D1*
X-27893Y3823037D1*
X-28954Y3819227D1*
X-30565Y3815417D1*
X-32777Y3811607D1*
X-35654Y3807797D1*
X-39063Y3803987D1*
X-43252Y3800177D1*
X-49336Y3796367D1*
X-58324Y3792557D1*
X-69153Y3788747D1*
X-573Y3872567D2*
Y3868757D1*
Y3864947D1*
Y3861137D1*
Y3857327D1*
Y3853517D1*
Y3849707D1*
Y3845897D1*
Y3842087D1*
Y3838277D1*
Y3834467D1*
Y3830657D1*
Y3826847D1*
Y3823037D1*
Y3819227D1*
Y3815417D1*
Y3811607D1*
Y3807797D1*
Y3803987D1*
Y3800177D1*
Y3796367D1*
Y3792557D1*
Y3788747D1*
Y3784937D1*
Y3781127D1*
Y3777317D1*
Y3773507D1*
Y3769697D1*
Y3765887D1*
Y3762077D1*
Y3758267D1*
Y3754457D1*
Y3750647D1*
Y3746837D1*
Y3743027D1*
Y3739217D1*
Y3735407D1*
Y3731597D1*
Y3727787D1*
Y3723977D1*
Y3720167D1*
Y3716357D1*
Y3712547D1*
Y3708737D1*
Y3704927D1*
Y3701117D1*
Y3697307D1*
Y3693497D1*
Y3689687D1*
Y3685877D1*
Y3682067D1*
Y3678257D1*
X52767Y3872567D2*
Y3868757D1*
Y3864947D1*
Y3861137D1*
Y3857327D1*
Y3853517D1*
X132777Y3872567D2*
X142437Y3868757D1*
X150340Y3864947D1*
X156297Y3861137D1*
X160465Y3857327D1*
X163450Y3853517D1*
X165809Y3849707D1*
X167762Y3845897D1*
X169239Y3842087D1*
X170119Y3838277D1*
X170558Y3834467D1*
X170752Y3830657D1*
X170831Y3826847D1*
X170860Y3823037D1*
X170871Y3819227D1*
X170875Y3815417D1*
X170876Y3811607D1*
Y3807797D1*
X170877Y3803987D1*
Y3800177D1*
Y3796367D1*
Y3792557D1*
Y3788747D1*
Y3784937D1*
Y3781127D1*
Y3777317D1*
Y3773507D1*
Y3769697D1*
Y3765887D1*
Y3762077D1*
Y3758267D1*
Y3754457D1*
Y3750647D1*
Y3746837D1*
Y3743027D1*
Y3739217D1*
Y3735407D1*
Y3731597D1*
Y3727787D1*
Y3723977D1*
Y3720167D1*
Y3716357D1*
Y3712547D1*
Y3708737D1*
Y3704927D1*
Y3701117D1*
Y3697307D1*
Y3693497D1*
Y3689687D1*
Y3685877D1*
Y3682067D1*
Y3678257D1*
X304227Y3872567D2*
Y3868757D1*
Y3864947D1*
Y3861137D1*
Y3857327D1*
Y3853517D1*
Y3849707D1*
Y3845897D1*
Y3842087D1*
Y3838277D1*
Y3834467D1*
Y3830657D1*
Y3826847D1*
Y3823037D1*
Y3819227D1*
Y3815417D1*
Y3811607D1*
Y3807797D1*
Y3803987D1*
Y3800177D1*
Y3796367D1*
Y3792557D1*
Y3788747D1*
Y3784937D1*
X330897Y3872567D2*
Y3868757D1*
Y3864947D1*
Y3861137D1*
Y3857327D1*
Y3853517D1*
Y3849707D1*
Y3845897D1*
Y3842087D1*
Y3838277D1*
Y3834467D1*
Y3830657D1*
Y3826847D1*
Y3823037D1*
Y3819227D1*
Y3815417D1*
Y3811607D1*
Y3807797D1*
Y3803987D1*
Y3800177D1*
Y3796367D1*
Y3792557D1*
Y3788747D1*
Y3784937D1*
Y3781127D1*
Y3777317D1*
Y3773507D1*
Y3769697D1*
Y3765887D1*
Y3762077D1*
Y3758267D1*
Y3754457D1*
Y3750647D1*
Y3746837D1*
Y3743027D1*
Y3739217D1*
Y3735407D1*
Y3731597D1*
Y3727787D1*
Y3723977D1*
Y3720167D1*
Y3716357D1*
Y3712547D1*
Y3708737D1*
Y3704927D1*
Y3701117D1*
Y3697307D1*
Y3693497D1*
Y3689687D1*
Y3685877D1*
Y3682067D1*
Y3678257D1*
X384237Y3872567D2*
Y3868757D1*
Y3864947D1*
Y3861137D1*
Y3857327D1*
Y3853517D1*
X464247Y3872567D2*
X473907Y3868757D1*
X481810Y3864947D1*
X487767Y3861137D1*
X491935Y3857327D1*
X494920Y3853517D1*
X497279Y3849707D1*
X499232Y3845897D1*
X500709Y3842087D1*
X501589Y3838277D1*
X502028Y3834467D1*
X502222Y3830657D1*
X502301Y3826847D1*
X502330Y3823037D1*
X502341Y3819227D1*
X502345Y3815417D1*
X502346Y3811607D1*
Y3807797D1*
X502347Y3803987D1*
Y3800177D1*
Y3796367D1*
Y3792557D1*
Y3788747D1*
Y3784937D1*
Y3781127D1*
Y3777317D1*
Y3773507D1*
Y3769697D1*
Y3765887D1*
Y3762077D1*
Y3758267D1*
Y3754457D1*
Y3750647D1*
Y3746837D1*
Y3743027D1*
Y3739217D1*
Y3735407D1*
Y3731597D1*
Y3727787D1*
Y3723977D1*
Y3720167D1*
Y3716357D1*
Y3712547D1*
Y3708737D1*
Y3704927D1*
Y3701117D1*
Y3697307D1*
Y3693497D1*
Y3689687D1*
Y3685877D1*
Y3682067D1*
Y3678257D1*
X121347Y3853517D2*
X128073Y3849707D1*
X133608Y3845897D1*
X137632Y3842087D1*
X140449Y3838277D1*
X142315Y3834467D1*
X143355Y3830657D1*
X143855Y3826847D1*
X144071Y3823037D1*
X144157Y3819227D1*
X144189Y3815417D1*
X144201Y3811607D1*
X144205Y3807797D1*
X144206Y3803987D1*
Y3800177D1*
X144207Y3796367D1*
Y3792557D1*
Y3788747D1*
Y3784937D1*
Y3781127D1*
X452817Y3853517D2*
X459543Y3849707D1*
X465078Y3845897D1*
X469102Y3842087D1*
X471919Y3838277D1*
X473785Y3834467D1*
X474825Y3830657D1*
X475325Y3826847D1*
X475541Y3823037D1*
X475627Y3819227D1*
X475659Y3815417D1*
X475671Y3811607D1*
X475675Y3807797D1*
X475676Y3803987D1*
Y3800177D1*
X475677Y3796367D1*
Y3792557D1*
Y3788747D1*
Y3784937D1*
Y3781127D1*
X228027Y3784937D2*
Y3781127D1*
Y3777317D1*
Y3773507D1*
Y3769697D1*
Y3765887D1*
X64197Y3781127D2*
Y3777317D1*
Y3773507D1*
Y3769697D1*
Y3765887D1*
Y3762077D1*
X395667Y3781127D2*
Y3777317D1*
Y3773507D1*
Y3769697D1*
Y3765887D1*
Y3762077D1*
X-473013Y3781127D2*
Y3777317D1*
Y3773507D1*
Y3769697D1*
Y3765887D1*
Y3762077D1*
Y3758267D1*
Y3754457D1*
Y3750647D1*
X-472998Y3746837D1*
X-472865Y3743027D1*
X-472379Y3739217D1*
X-471466Y3735407D1*
X-470475Y3731597D1*
X-469676Y3727787D1*
X-468823Y3723977D1*
X-467600Y3720167D1*
X-465922Y3716357D1*
X-463655Y3712547D1*
X-460352Y3708737D1*
X-456030Y3704927D1*
X-443549Y3701117D1*
X-424256Y3697307D1*
X-400623Y3693497D1*
X-377763Y3781127D2*
Y3777317D1*
Y3773507D1*
Y3769697D1*
Y3765887D1*
Y3762077D1*
Y3758267D1*
Y3754457D1*
X-377778Y3750647D1*
X-377912Y3746837D1*
X-378398Y3743027D1*
X-379310Y3739217D1*
X-380287Y3735407D1*
X-380966Y3731597D1*
X-381454Y3727787D1*
X-382116Y3723977D1*
X-383244Y3720167D1*
X-384881Y3716357D1*
X-387131Y3712547D1*
X-390428Y3708737D1*
X-394747Y3704927D1*
X-407228Y3701117D1*
X-426521Y3697307D1*
X-450153Y3693497D1*
X-31053Y3781127D2*
X-34718Y3777317D1*
X-38040Y3773507D1*
X-40937Y3769697D1*
X-43770Y3765887D1*
X-46915Y3762077D1*
X-50357Y3758267D1*
X-53871Y3754457D1*
X-57129Y3750647D1*
X-60001Y3746837D1*
X-62825Y3743027D1*
X-65967Y3739217D1*
X-69422Y3735407D1*
X-73055Y3731597D1*
X-76665Y3727787D1*
X-79963Y3723977D1*
X-82851Y3720167D1*
X-85681Y3716357D1*
X-88826Y3712547D1*
X-92267Y3708737D1*
X-95781Y3704927D1*
X-99039Y3701117D1*
X-101911Y3697307D1*
X-104735Y3693497D1*
X-107877Y3689687D1*
X-111331Y3685877D1*
X-114973Y3682067D1*
X-118683Y3678257D1*
X-27243Y3781127D2*
Y3777317D1*
Y3773507D1*
Y3769697D1*
Y3765887D1*
Y3762077D1*
Y3758267D1*
Y3754457D1*
Y3750647D1*
Y3746837D1*
Y3743027D1*
Y3739217D1*
Y3735407D1*
Y3731597D1*
Y3727787D1*
Y3723977D1*
Y3720167D1*
Y3716357D1*
Y3712547D1*
Y3708737D1*
Y3704927D1*
Y3701117D1*
Y3697307D1*
Y3693497D1*
Y3689687D1*
Y3685877D1*
Y3682067D1*
Y3678257D1*
X304227Y3765887D2*
Y3762077D1*
Y3758267D1*
Y3754457D1*
Y3750647D1*
Y3746837D1*
Y3743027D1*
Y3739217D1*
Y3735407D1*
Y3731597D1*
Y3727787D1*
Y3723977D1*
Y3720167D1*
Y3716357D1*
Y3712547D1*
Y3708737D1*
Y3704927D1*
Y3701117D1*
Y3697307D1*
X144207Y3762077D2*
Y3758267D1*
Y3754457D1*
Y3750647D1*
Y3746837D1*
Y3743027D1*
Y3739217D1*
Y3735407D1*
Y3731597D1*
Y3727787D1*
Y3723977D1*
Y3720167D1*
Y3716357D1*
Y3712547D1*
Y3708737D1*
Y3704927D1*
Y3701117D1*
Y3697307D1*
X475677Y3762077D2*
Y3758267D1*
Y3754457D1*
Y3750647D1*
Y3746837D1*
Y3743027D1*
Y3739217D1*
Y3735407D1*
Y3731597D1*
Y3727787D1*
Y3723977D1*
Y3720167D1*
Y3716357D1*
Y3712547D1*
Y3708737D1*
Y3704927D1*
Y3701117D1*
Y3697307D1*
X-316803D2*
Y3693497D1*
Y3689687D1*
Y3685877D1*
Y3682067D1*
Y3678257D1*
X-160593Y3697307D2*
Y3693497D1*
Y3689687D1*
Y3685877D1*
Y3682067D1*
Y3678257D1*
X56577Y3697307D2*
Y3693497D1*
Y3689687D1*
Y3685877D1*
Y3682067D1*
Y3678257D1*
X216597Y3697307D2*
Y3693497D1*
Y3689687D1*
Y3685877D1*
Y3682067D1*
Y3678257D1*
X388047Y3697307D2*
Y3693497D1*
Y3689687D1*
Y3685877D1*
Y3682067D1*
Y3678257D1*
M02*
