G04 DipTrace 3.2.0.1*
G04 BottomSilk.gbr*
%MOMM*%
G04 #@! TF.FileFunction,Legend,Bot*
G04 #@! TF.Part,Single*
%ADD10C,0.25*%
%ADD13C,0.06667*%
%ADD14C,0.05*%
%ADD20C,1.0*%
%ADD21C,0.15*%
%ADD29O,0.39127X0.39172*%
%ADD74C,0.11765*%
%FSLAX35Y35*%
G04*
G71*
G90*
G75*
G01*
G04 BotSilk*
%LPD*%
X-1279012Y1559000D2*
D21*
X-1059000D1*
Y2180006D1*
X-1279012D1*
Y1559000D1*
X1060988D2*
X1281000D1*
Y2180006D1*
X1060988D1*
Y1559000D1*
X-1274000Y-1083000D2*
X-1067000D1*
Y-876000D1*
X-1274000D1*
Y-1083000D1*
X1066000D2*
X1273000D1*
Y-876000D1*
X1066000D1*
Y-1083000D1*
D29*
X173556Y2129829D3*
X150186Y2257190D2*
D10*
X-149800D1*
Y2307190D1*
X150186D1*
Y2257190D1*
X-600023Y-1450000D2*
X600023D1*
Y130000D1*
X-600023D1*
Y-1450000D1*
X-1237377Y1004220D2*
D21*
X-1098627D1*
Y677650D1*
X-1237377D1*
Y1004220D1*
X1098200Y1007883D2*
X1236950D1*
Y681313D1*
X1098200D1*
Y1007883D1*
X-1231570Y524420D2*
X-907373D1*
Y147787D1*
X-1231570D1*
Y524420D1*
X913447Y525100D2*
X1234470D1*
Y147787D1*
X913447D1*
Y525100D1*
X876360Y-76350D2*
X1202930D1*
Y-215100D1*
X876360D1*
Y-76350D1*
X-1192697Y-89190D2*
X-866127D1*
Y-227940D1*
X-1192697D1*
Y-89190D1*
X-609070Y2474363D2*
X-282500D1*
Y2335613D1*
X-609070D1*
Y2474363D1*
X-394357Y2291680D2*
X-255607D1*
Y1965110D1*
X-394357D1*
Y2291680D1*
X-162643Y2060673D2*
X163927D1*
Y1921923D1*
X-162643D1*
Y2060673D1*
X-838570Y4529740D2*
D20*
X820930Y4527560D1*
X-605630Y2656263D2*
D21*
X-279060D1*
Y2517513D1*
X-605630D1*
Y2656263D1*
X240007Y2278937D2*
X378757D1*
Y1952367D1*
X240007D1*
Y2278937D1*
X-477533Y2156507D2*
D14*
X-440033D1*
X-482042Y2154007D2*
X-435525D1*
X-485994Y2151507D2*
X-431572D1*
X-489234Y2149007D2*
X-428323D1*
X-491733Y2146507D2*
X-425745D1*
X-493482Y2144007D2*
X-479146D1*
X-438130D2*
X-423766D1*
X-494715Y2141507D2*
X-482400D1*
X-434576D2*
X-422253D1*
X-495747Y2139007D2*
X-484762D1*
X-431821D2*
X-421178D1*
X-496574Y2136507D2*
X-486524D1*
X-430521D2*
X-420557D1*
X-497083Y2134007D2*
X-487822D1*
X-429491D2*
X-420252D1*
X-497333Y2131507D2*
X-488780D1*
X-428705D2*
X-420118D1*
X-497361Y2129007D2*
X-488483D1*
X-428961D2*
X-420074D1*
X-497089Y2126507D2*
X-487747D1*
X-429477D2*
X-420142D1*
X-496499Y2124007D2*
X-486643D1*
X-430232D2*
X-420463D1*
X-495767Y2121507D2*
X-485094D1*
X-431511D2*
X-421157D1*
X-494917Y2119007D2*
X-483055D1*
X-433477D2*
X-422213D1*
X-493670Y2116507D2*
X-480905D1*
X-435789D2*
X-423664D1*
X-491909Y2114007D2*
X-479271D1*
X-437753D2*
X-425571D1*
X-489774Y2111507D2*
X-478320D1*
X-439199D2*
X-427960D1*
X-487439Y2109007D2*
X-477835D1*
X-439643D2*
X-431100D1*
X-485033Y2106507D2*
X-477533D1*
X-439883D2*
X-435255D1*
X-440033Y2104007D2*
D3*
X-490033Y2091507D2*
X-480033D1*
X-491669Y2089007D2*
X-482043D1*
X-493327Y2086507D2*
X-483514D1*
X-494937Y2084007D2*
X-484408D1*
X-496177Y2081507D2*
X-420033D1*
X-496911Y2079007D2*
X-420033D1*
X-497274Y2076507D2*
X-420033D1*
X-497439Y2074007D2*
X-420033D1*
X-497533Y2071507D2*
X-420033D1*
X-215943Y2636870D2*
X-178443D1*
X-220452Y2634370D2*
X-173935D1*
X-224404Y2631870D2*
X-169982D1*
X-227644Y2629370D2*
X-166733D1*
X-230143Y2626870D2*
X-164155D1*
X-231892Y2624370D2*
X-217556D1*
X-176540D2*
X-162176D1*
X-233125Y2621870D2*
X-220810D1*
X-172986D2*
X-160663D1*
X-234157Y2619370D2*
X-223172D1*
X-170231D2*
X-159588D1*
X-234984Y2616870D2*
X-224934D1*
X-168931D2*
X-158967D1*
X-235493Y2614370D2*
X-226232D1*
X-167901D2*
X-158662D1*
X-235743Y2611870D2*
X-227190D1*
X-167115D2*
X-158528D1*
X-235771Y2609370D2*
X-226893D1*
X-167371D2*
X-158484D1*
X-235499Y2606870D2*
X-226157D1*
X-167887D2*
X-158552D1*
X-234909Y2604370D2*
X-225053D1*
X-168642D2*
X-158873D1*
X-234177Y2601870D2*
X-223504D1*
X-169921D2*
X-159567D1*
X-233327Y2599370D2*
X-221465D1*
X-171887D2*
X-160623D1*
X-232080Y2596870D2*
X-219315D1*
X-174199D2*
X-162074D1*
X-230319Y2594370D2*
X-217681D1*
X-176163D2*
X-163981D1*
X-228184Y2591870D2*
X-216730D1*
X-177609D2*
X-166370D1*
X-225849Y2589370D2*
X-216245D1*
X-178053D2*
X-169510D1*
X-223443Y2586870D2*
X-215943D1*
X-178293D2*
X-173665D1*
X-178443Y2584370D2*
D3*
X-223443Y2569370D2*
X-215943D1*
X-168443D2*
X-158443D1*
X-227002Y2566870D2*
X-216153D1*
X-172193D2*
X-158443D1*
X-229890Y2564370D2*
X-216627D1*
X-175731D2*
X-158443D1*
X-232056Y2561870D2*
X-218730D1*
X-179203D2*
X-158443D1*
X-233660Y2559370D2*
X-221362D1*
X-182593D2*
X-158443D1*
X-234774Y2556870D2*
X-223850D1*
X-185913D2*
X-158443D1*
X-235411Y2554370D2*
X-225779D1*
X-189278D2*
X-173539D1*
X-168443D2*
X-158443D1*
X-235722Y2551870D2*
X-227283D1*
X-192622D2*
X-176369D1*
X-168443D2*
X-158443D1*
X-235848Y2549370D2*
X-227690D1*
X-195943D2*
X-179556D1*
X-168443D2*
X-158443D1*
X-235814Y2546870D2*
X-227017D1*
X-199507D2*
X-183016D1*
X-168443D2*
X-158443D1*
X-235506Y2544370D2*
X-225904D1*
X-203782D2*
X-186560D1*
X-168443D2*
X-158443D1*
X-234817Y2541870D2*
X-222391D1*
X-209551D2*
X-190021D1*
X-168443D2*
X-158443D1*
X-233762Y2539370D2*
X-217174D1*
X-217221D2*
X-193391D1*
X-168443D2*
X-158443D1*
X-232312Y2536870D2*
X-196861D1*
X-168443D2*
X-158443D1*
X-230427Y2534370D2*
X-200518D1*
X-168443D2*
X-158443D1*
X-228244Y2531870D2*
X-204398D1*
X-168443D2*
X-158443D1*
X-225943Y2529370D2*
X-208443D1*
X-168443D2*
X-158443D1*
X1016457Y1023117D2*
X1053957D1*
X1011948Y1020617D2*
X1058465D1*
X1007996Y1018117D2*
X1062418D1*
X1004756Y1015617D2*
X1065667D1*
X1002257Y1013117D2*
X1068245D1*
X1000508Y1010617D2*
X1014844D1*
X1055860D2*
X1070224D1*
X999275Y1008117D2*
X1011590D1*
X1059414D2*
X1071737D1*
X998243Y1005617D2*
X1009228D1*
X1062169D2*
X1072812D1*
X997416Y1003117D2*
X1007466D1*
X1063469D2*
X1073433D1*
X996907Y1000617D2*
X1006168D1*
X1064499D2*
X1073738D1*
X996657Y998117D2*
X1005210D1*
X1065285D2*
X1073872D1*
X996629Y995617D2*
X1005507D1*
X1065029D2*
X1073916D1*
X996901Y993117D2*
X1006243D1*
X1064513D2*
X1073848D1*
X997491Y990617D2*
X1007347D1*
X1063758D2*
X1073527D1*
X998223Y988117D2*
X1008896D1*
X1062479D2*
X1072833D1*
X999073Y985617D2*
X1010935D1*
X1060513D2*
X1071777D1*
X1000320Y983117D2*
X1013085D1*
X1058201D2*
X1070326D1*
X1002081Y980617D2*
X1014719D1*
X1056237D2*
X1068419D1*
X1004216Y978117D2*
X1015670D1*
X1054791D2*
X1066030D1*
X1006551Y975617D2*
X1016155D1*
X1054347D2*
X1062890D1*
X1008957Y973117D2*
X1016457D1*
X1054107D2*
X1058735D1*
X1053957Y970617D2*
D3*
X1008957Y955617D2*
X1016457D1*
X1063957D2*
X1073957D1*
X1005398Y953117D2*
X1016247D1*
X1060207D2*
X1073957D1*
X1002510Y950617D2*
X1015773D1*
X1056669D2*
X1073957D1*
X1000344Y948117D2*
X1013670D1*
X1053197D2*
X1073957D1*
X998740Y945617D2*
X1011038D1*
X1049807D2*
X1073957D1*
X997626Y943117D2*
X1008550D1*
X1046487D2*
X1073957D1*
X996989Y940617D2*
X1006621D1*
X1043122D2*
X1058861D1*
X1063957D2*
X1073957D1*
X996678Y938117D2*
X1005117D1*
X1039778D2*
X1056031D1*
X1063957D2*
X1073957D1*
X996552Y935617D2*
X1004710D1*
X1036457D2*
X1052844D1*
X1063957D2*
X1073957D1*
X996586Y933117D2*
X1005383D1*
X1032893D2*
X1049384D1*
X1063957D2*
X1073957D1*
X996894Y930617D2*
X1006496D1*
X1028618D2*
X1045840D1*
X1063957D2*
X1073957D1*
X997583Y928117D2*
X1010009D1*
X1022849D2*
X1042379D1*
X1063957D2*
X1073957D1*
X998638Y925617D2*
X1015226D1*
X1015179D2*
X1039009D1*
X1063957D2*
X1073957D1*
X1000088Y923117D2*
X1035539D1*
X1063957D2*
X1073957D1*
X1001973Y920617D2*
X1031882D1*
X1063957D2*
X1073957D1*
X1004156Y918117D2*
X1028002D1*
X1063957D2*
X1073957D1*
X1006457Y915617D2*
X1023957D1*
X1063957D2*
X1073957D1*
X1011457Y898117D2*
X1058957D1*
X1007043Y895617D2*
X1063370D1*
X1003411Y893117D2*
X1067002D1*
X1000771Y890617D2*
X1069642D1*
X998922Y888117D2*
X1071491D1*
X997698Y885617D2*
X1009062D1*
X1061352D2*
X1072716D1*
X997016Y883117D2*
X1006980D1*
X1063434D2*
X1073398D1*
X996687Y880617D2*
X1005505D1*
X1064908D2*
X1073726D1*
X996546Y878117D2*
X1004519D1*
X1065894D2*
X1073868D1*
X996499Y875617D2*
X1004632D1*
X1065782D2*
X1073914D1*
X996566Y873117D2*
X1005102D1*
X1065311D2*
X1073848D1*
X996887Y870617D2*
X1006724D1*
X1063689D2*
X1073527D1*
X997580Y868117D2*
X1010528D1*
X1059885D2*
X1072833D1*
X998647Y865617D2*
X1015653D1*
X1054760D2*
X1071767D1*
X1000192Y863117D2*
X1070221D1*
X1002464Y860617D2*
X1067949D1*
X1005502Y858117D2*
X1064911D1*
X1008957Y855617D2*
X1061457D1*
X-1055050Y1019000D2*
X-1017550D1*
X-1059559Y1016500D2*
X-1013041D1*
X-1063511Y1014000D2*
X-1009089D1*
X-1066751Y1011500D2*
X-1005840D1*
X-1069250Y1009000D2*
X-1003262D1*
X-1070999Y1006500D2*
X-1056663D1*
X-1015646D2*
X-1001283D1*
X-1072231Y1004000D2*
X-1059917D1*
X-1012093D2*
X-999770D1*
X-1073264Y1001500D2*
X-1062279D1*
X-1009338D2*
X-998695D1*
X-1074091Y999000D2*
X-1064041D1*
X-1008038D2*
X-998073D1*
X-1074600Y996500D2*
X-1065339D1*
X-1007008D2*
X-997768D1*
X-1074849Y994000D2*
X-1066297D1*
X-1006222D2*
X-997635D1*
X-1074877Y991500D2*
X-1065999D1*
X-1006477D2*
X-997591D1*
X-1074606Y989000D2*
X-1065263D1*
X-1006994D2*
X-997659D1*
X-1074015Y986500D2*
X-1064160D1*
X-1007748D2*
X-997980D1*
X-1073283Y984000D2*
X-1062611D1*
X-1009028D2*
X-998674D1*
X-1072433Y981500D2*
X-1060571D1*
X-1010993D2*
X-999730D1*
X-1071187Y979000D2*
X-1058422D1*
X-1013305D2*
X-1001181D1*
X-1069425Y976500D2*
X-1056788D1*
X-1015270D2*
X-1003088D1*
X-1067290Y974000D2*
X-1055836D1*
X-1016716D2*
X-1005477D1*
X-1064955Y971500D2*
X-1055351D1*
X-1017159D2*
X-1008617D1*
X-1062550Y969000D2*
X-1055050D1*
X-1017400D2*
X-1012771D1*
X-1017550Y966500D2*
D3*
X-1062550Y951500D2*
X-1055050D1*
X-1007550D2*
X-997550D1*
X-1066109Y949000D2*
X-1055260D1*
X-1011299D2*
X-997550D1*
X-1068997Y946500D2*
X-1055734D1*
X-1014838D2*
X-997550D1*
X-1071163Y944000D2*
X-1057836D1*
X-1018310D2*
X-997550D1*
X-1072767Y941500D2*
X-1060468D1*
X-1021700D2*
X-997550D1*
X-1073881Y939000D2*
X-1062957D1*
X-1025020D2*
X-997550D1*
X-1074518Y936500D2*
X-1064886D1*
X-1028385D2*
X-1012645D1*
X-1007550D2*
X-997550D1*
X-1074829Y934000D2*
X-1066390D1*
X-1031729D2*
X-1015475D1*
X-1007550D2*
X-997550D1*
X-1074954Y931500D2*
X-1066797D1*
X-1035050D2*
X-1018663D1*
X-1007550D2*
X-997550D1*
X-1074921Y929000D2*
X-1066124D1*
X-1038613D2*
X-1022122D1*
X-1007550D2*
X-997550D1*
X-1074613Y926500D2*
X-1065011D1*
X-1042889D2*
X-1025667D1*
X-1007550D2*
X-997550D1*
X-1073924Y924000D2*
X-1061497D1*
X-1048658D2*
X-1029127D1*
X-1007550D2*
X-997550D1*
X-1072869Y921500D2*
X-1056281D1*
X-1056328D2*
X-1032498D1*
X-1007550D2*
X-997550D1*
X-1071419Y919000D2*
X-1035968D1*
X-1007550D2*
X-997550D1*
X-1069533Y916500D2*
X-1039625D1*
X-1007550D2*
X-997550D1*
X-1067351Y914000D2*
X-1043505D1*
X-1007550D2*
X-997550D1*
X-1065050Y911500D2*
X-1047550D1*
X-1007550D2*
X-997550D1*
X-1067550Y896500D2*
X-1057550D1*
X-1069186Y894000D2*
X-1059559D1*
X-1070844Y891500D2*
X-1061030D1*
X-1072454Y889000D2*
X-1061925D1*
X-1073694Y886500D2*
X-997550D1*
X-1074427Y884000D2*
X-997550D1*
X-1074791Y881500D2*
X-997550D1*
X-1074956Y879000D2*
X-997550D1*
X-1075050Y876500D2*
X-997550D1*
X105667Y2447147D2*
X143167D1*
X101158Y2444647D2*
X147675D1*
X97206Y2442147D2*
X151628D1*
X93966Y2439647D2*
X154877D1*
X91467Y2437147D2*
X157455D1*
X89718Y2434647D2*
X104054D1*
X145070D2*
X159434D1*
X88485Y2432147D2*
X100809D1*
X148624D2*
X160947D1*
X87453Y2429647D2*
X98536D1*
X151379D2*
X162022D1*
X86626Y2427147D2*
X96832D1*
X152679D2*
X162643D1*
X86117Y2424647D2*
X96233D1*
X153709D2*
X162948D1*
X85858Y2422147D2*
X95908D1*
X154495D2*
X163082D1*
X85752Y2419647D2*
X95771D1*
X154239D2*
X163126D1*
X85792Y2417147D2*
X95809D1*
X138167D2*
X143167D1*
X153725D2*
X163058D1*
X86103Y2414647D2*
X96222D1*
X135667D2*
X146126D1*
X153009D2*
X162737D1*
X86792Y2412147D2*
X97050D1*
X137675D2*
X149503D1*
X151956D2*
X162053D1*
X87847Y2409647D2*
X99815D1*
X139138D2*
X161094D1*
X89298Y2407147D2*
X103988D1*
X139977D2*
X160060D1*
X91195Y2404647D2*
X109520D1*
X140403D2*
X159197D1*
X93488Y2402147D2*
X158752D1*
X96242Y2399647D2*
X158649D1*
X99542Y2397147D2*
X159715D1*
X103167Y2394647D2*
X145667D1*
X150667D2*
X161307D1*
X153167Y2392147D2*
X163167D1*
X155667Y2389647D2*
X160667D1*
X93167Y2377147D2*
X103167D1*
X91531Y2374647D2*
X101157D1*
X89873Y2372147D2*
X99686D1*
X88263Y2369647D2*
X98792D1*
X87023Y2367147D2*
X163167D1*
X86289Y2364647D2*
X163167D1*
X85926Y2362147D2*
X163167D1*
X85761Y2359647D2*
X163167D1*
X85667Y2357147D2*
X163167D1*
X-29403Y1891727D2*
X48097D1*
X-29403Y1889227D2*
X48097D1*
X-29403Y1886727D2*
X48097D1*
X-29403Y1884227D2*
X48097D1*
X-29403Y1881727D2*
X-19403D1*
X5597D2*
X15597D1*
X-29403Y1879227D2*
X-19403D1*
X5597D2*
X15597D1*
X-29403Y1876727D2*
X-19403D1*
X5597D2*
X15597D1*
X-29403Y1874227D2*
X-19403D1*
X5597D2*
X15606D1*
X-29403Y1871727D2*
X-19403D1*
X5597D2*
X15714D1*
X-29403Y1869227D2*
X-19403D1*
X5597D2*
X15978D1*
X-29394Y1866727D2*
X-19403D1*
X5597D2*
X17242D1*
X-29306Y1864227D2*
X-19394D1*
X5587D2*
X20226D1*
X-28987Y1861727D2*
X-19286D1*
X5479D2*
X24052D1*
X-28379Y1859227D2*
X-19022D1*
X5216D2*
X28487D1*
X-27650Y1856727D2*
X-17641D1*
X3834D2*
X33227D1*
X-26876Y1854227D2*
X-13362D1*
X-445D2*
X37936D1*
X-25859Y1851727D2*
X-7011D1*
X-6796D2*
X13097D1*
X20597D2*
X42068D1*
X-24376Y1849227D2*
X10597D1*
X25587D2*
X45492D1*
X-22268Y1846727D2*
X8097D1*
X30492D2*
X46826D1*
X-19663Y1844227D2*
X5597D1*
X35105D2*
X47555D1*
X-16903Y1841727D2*
X3097D1*
X39251D2*
X47897D1*
X43097Y1839227D2*
X48097D1*
X-21903Y1824227D2*
X-11903D1*
X-23539Y1821727D2*
X-13913D1*
X-25197Y1819227D2*
X-15384D1*
X-26807Y1816727D2*
X-16278D1*
X-28047Y1814227D2*
X48097D1*
X-28781Y1811727D2*
X48097D1*
X-29144Y1809227D2*
X48097D1*
X-29309Y1806727D2*
X48097D1*
X-29403Y1804227D2*
X48097D1*
X407523Y2122503D2*
X485023D1*
X407523Y2120003D2*
X485023D1*
X407523Y2117503D2*
X485023D1*
X407523Y2115003D2*
X485023D1*
X407523Y2112503D2*
X417523D1*
X442523D2*
X452523D1*
X407523Y2110003D2*
X417523D1*
X442523D2*
X452523D1*
X407523Y2107503D2*
X417523D1*
X442523D2*
X452523D1*
X407523Y2105003D2*
X417523D1*
X442523D2*
X452533D1*
X407523Y2102503D2*
X417523D1*
X442523D2*
X452641D1*
X407523Y2100003D2*
X417523D1*
X442523D2*
X452904D1*
X407533Y2097503D2*
X417523D1*
X442523D2*
X454169D1*
X407621Y2095003D2*
X417533D1*
X442514D2*
X457153D1*
X407940Y2092503D2*
X417641D1*
X442406D2*
X460979D1*
X408548Y2090003D2*
X417904D1*
X442142D2*
X465414D1*
X409277Y2087503D2*
X419286D1*
X440761D2*
X470153D1*
X410051Y2085003D2*
X423565D1*
X436482D2*
X474863D1*
X411067Y2082503D2*
X429916D1*
X430131D2*
X450023D1*
X457523D2*
X478995D1*
X412551Y2080003D2*
X447523D1*
X462514D2*
X482419D1*
X414658Y2077503D2*
X445023D1*
X467418D2*
X483753D1*
X417263Y2075003D2*
X442523D1*
X472032D2*
X484481D1*
X420023Y2072503D2*
X440023D1*
X476177D2*
X484824D1*
X480023Y2070003D2*
X485023D1*
X420023Y2052503D2*
X427523D1*
X475023D2*
X485023D1*
X416465Y2050003D2*
X427313D1*
X471274D2*
X485023D1*
X413577Y2047503D2*
X426840D1*
X467736D2*
X485023D1*
X411410Y2045003D2*
X424737D1*
X464263D2*
X485023D1*
X409806Y2042503D2*
X422105D1*
X460873D2*
X485023D1*
X408692Y2040003D2*
X419616D1*
X457553D2*
X485023D1*
X408055Y2037503D2*
X417688D1*
X454188D2*
X469928D1*
X475023D2*
X485023D1*
X407745Y2035003D2*
X416184D1*
X450844D2*
X467098D1*
X475023D2*
X485023D1*
X407619Y2032503D2*
X415776D1*
X447523D2*
X463911D1*
X475023D2*
X485023D1*
X407653Y2030003D2*
X416449D1*
X443960D2*
X460451D1*
X475023D2*
X485023D1*
X407960Y2027503D2*
X417562D1*
X439685D2*
X456907D1*
X475023D2*
X485023D1*
X408650Y2025003D2*
X421076D1*
X433916D2*
X453446D1*
X475023D2*
X485023D1*
X409704Y2022503D2*
X426292D1*
X426246D2*
X450075D1*
X475023D2*
X485023D1*
X411154Y2020003D2*
X446605D1*
X475023D2*
X485023D1*
X413040Y2017503D2*
X442949D1*
X475023D2*
X485023D1*
X415223Y2015003D2*
X439069D1*
X475023D2*
X485023D1*
X417523Y2012503D2*
X435023D1*
X475023D2*
X485023D1*
X924047Y-247050D2*
X1001547D1*
X924047Y-249550D2*
X1001547D1*
X924047Y-252050D2*
X1001547D1*
X924047Y-254550D2*
X1001547D1*
X924047Y-257050D2*
X934047D1*
X959047D2*
X969047D1*
X924047Y-259550D2*
X934047D1*
X959047D2*
X969047D1*
X924047Y-262050D2*
X934047D1*
X959047D2*
X969047D1*
X924047Y-264550D2*
X934047D1*
X959047D2*
X969056D1*
X924047Y-267050D2*
X934047D1*
X959047D2*
X969164D1*
X924047Y-269550D2*
X934047D1*
X959047D2*
X969428D1*
X924056Y-272050D2*
X934047D1*
X959047D2*
X970692D1*
X924144Y-274550D2*
X934056D1*
X959037D2*
X973676D1*
X924463Y-277050D2*
X934164D1*
X958929D2*
X977502D1*
X925071Y-279550D2*
X934428D1*
X958666D2*
X981937D1*
X925800Y-282050D2*
X935809D1*
X957284D2*
X986677D1*
X926574Y-284550D2*
X940088D1*
X953005D2*
X991386D1*
X927591Y-287050D2*
X946439D1*
X946654D2*
X966547D1*
X974047D2*
X995518D1*
X929074Y-289550D2*
X964047D1*
X979037D2*
X998942D1*
X931182Y-292050D2*
X961547D1*
X983942D2*
X1000276D1*
X933787Y-294550D2*
X959047D1*
X988555D2*
X1001005D1*
X936547Y-297050D2*
X956547D1*
X992701D2*
X1001347D1*
X996547Y-299550D2*
X1001547D1*
X984047Y-314550D2*
X986547D1*
X936547Y-317050D2*
X941547D1*
X984066D2*
X990659D1*
X932988Y-319550D2*
X941432D1*
X984252D2*
X993914D1*
X930100Y-322050D2*
X941166D1*
X984691D2*
X996275D1*
X927934Y-324550D2*
X939747D1*
X986431D2*
X998047D1*
X926330Y-327050D2*
X937777D1*
X988453D2*
X999433D1*
X925216Y-329550D2*
X935740D1*
X990298D2*
X1000446D1*
X924579Y-332050D2*
X934122D1*
X956547D2*
X966547D1*
X991791D2*
X1001040D1*
X924268Y-334550D2*
X932926D1*
X956537D2*
X966556D1*
X993012D2*
X1001335D1*
X924142Y-337050D2*
X932983D1*
X956381D2*
X966654D1*
X993338D2*
X1001454D1*
X924176Y-339550D2*
X934004D1*
X955970D2*
X966888D1*
X992856D2*
X1001419D1*
X924484Y-342050D2*
X937065D1*
X953253D2*
X968046D1*
X991395D2*
X1001110D1*
X925173Y-344550D2*
X944835D1*
X945639D2*
X972054D1*
X986571D2*
X1000421D1*
X926247Y-347050D2*
X978506D1*
X978753D2*
X999366D1*
X927888Y-349550D2*
X958944D1*
X964418D2*
X997916D1*
X930546Y-352050D2*
X956056D1*
X965678D2*
X996030D1*
X934438Y-354550D2*
X952701D1*
X968423D2*
X993847D1*
X939047Y-357050D2*
X949047D1*
X971547D2*
X991547D1*
X-968390Y-256820D2*
X-890890D1*
X-968390Y-259320D2*
X-890890D1*
X-968390Y-261820D2*
X-890890D1*
X-968390Y-264320D2*
X-890890D1*
X-968390Y-266820D2*
X-958390D1*
X-933390D2*
X-923390D1*
X-968390Y-269320D2*
X-958390D1*
X-933390D2*
X-923390D1*
X-968390Y-271820D2*
X-958390D1*
X-933390D2*
X-923390D1*
X-968390Y-274320D2*
X-958390D1*
X-933390D2*
X-923380D1*
X-968390Y-276820D2*
X-958390D1*
X-933390D2*
X-923273D1*
X-968390Y-279320D2*
X-958390D1*
X-933390D2*
X-923009D1*
X-968380Y-281820D2*
X-958390D1*
X-933390D2*
X-921744D1*
X-968292Y-284320D2*
X-958380D1*
X-933400D2*
X-918761D1*
X-967974Y-286820D2*
X-958273D1*
X-933507D2*
X-914935D1*
X-967365Y-289320D2*
X-958009D1*
X-933771D2*
X-910499D1*
X-966636Y-291820D2*
X-956627D1*
X-935153D2*
X-905760D1*
X-965862Y-294320D2*
X-952348D1*
X-939432D2*
X-901051D1*
X-964846Y-296820D2*
X-945998D1*
X-945782D2*
X-925890D1*
X-918390D2*
X-896918D1*
X-963363Y-299320D2*
X-928390D1*
X-913400D2*
X-893495D1*
X-961255Y-301820D2*
X-930890D1*
X-908495D2*
X-892161D1*
X-958650Y-304320D2*
X-933390D1*
X-903881D2*
X-891432D1*
X-955890Y-306820D2*
X-935890D1*
X-899736D2*
X-891089D1*
X-895890Y-309320D2*
X-890890D1*
X-915890Y-326820D2*
X-903390D1*
X-920890Y-329320D2*
X-903390D1*
X-925890Y-331820D2*
X-903390D1*
X-930900Y-334320D2*
X-903390D1*
X-935988Y-336820D2*
X-903390D1*
X-941306Y-339320D2*
X-918776D1*
X-910890D2*
X-903390D1*
X-946905Y-341820D2*
X-924396D1*
X-910890D2*
X-903390D1*
X-952526Y-344320D2*
X-930043D1*
X-910890D2*
X-903390D1*
X-957767Y-346820D2*
X-935481D1*
X-910890D2*
X-903390D1*
X-962166Y-349320D2*
X-940723D1*
X-910890D2*
X-903390D1*
X-965738Y-351820D2*
X-945925D1*
X-910890D2*
X-903390D1*
X-967104Y-354320D2*
X-951355D1*
X-910890D2*
X-903390D1*
X-967883Y-356820D2*
X-957227D1*
X-910890D2*
X-903390D1*
X-968390Y-359320D2*
X-963390D1*
X-935890D2*
X-890890D1*
X-935890Y-361820D2*
X-890890D1*
X-935890Y-364320D2*
X-890890D1*
X-935890Y-366820D2*
X-890890D1*
X-935890Y-369320D2*
X-890890D1*
X-910890Y-371820D2*
X-903390D1*
X-910890Y-374320D2*
X-903390D1*
X-234657Y2449430D2*
X-157157D1*
X-234657Y2446930D2*
X-157157D1*
X-234657Y2444430D2*
X-157157D1*
X-234657Y2441930D2*
X-157157D1*
X-234657Y2439430D2*
X-224657D1*
X-199657D2*
X-189657D1*
X-234657Y2436930D2*
X-224657D1*
X-199657D2*
X-189657D1*
X-234657Y2434430D2*
X-224657D1*
X-199657D2*
X-189657D1*
X-234657Y2431930D2*
X-224657D1*
X-199657D2*
X-189647D1*
X-234657Y2429430D2*
X-224657D1*
X-199657D2*
X-189539D1*
X-234657Y2426930D2*
X-224657D1*
X-199657D2*
X-189276D1*
X-234647Y2424430D2*
X-224657D1*
X-199657D2*
X-188011D1*
X-234559Y2421930D2*
X-224647D1*
X-199666D2*
X-185027D1*
X-234240Y2419430D2*
X-224539D1*
X-199774D2*
X-181201D1*
X-233632Y2416930D2*
X-224276D1*
X-200038D2*
X-176766D1*
X-232903Y2414430D2*
X-222894D1*
X-201419D2*
X-172027D1*
X-232129Y2411930D2*
X-218615D1*
X-205698D2*
X-167317D1*
X-231113Y2409430D2*
X-212264D1*
X-212049D2*
X-192157D1*
X-184657D2*
X-163185D1*
X-229629Y2406930D2*
X-194657D1*
X-179666D2*
X-159761D1*
X-227522Y2404430D2*
X-197157D1*
X-174762D2*
X-158427D1*
X-224917Y2401930D2*
X-199657D1*
X-170148D2*
X-157699D1*
X-222157Y2399430D2*
X-202157D1*
X-166003D2*
X-157356D1*
X-162157Y2396930D2*
X-157157D1*
X-192157Y2379430D2*
X-167157D1*
X-198311Y2376930D2*
X-164752D1*
X-204029Y2374430D2*
X-162582D1*
X-209392Y2371930D2*
X-160779D1*
X-214543Y2369430D2*
X-186269D1*
X-170053D2*
X-159336D1*
X-219511Y2366930D2*
X-189504D1*
X-168270D2*
X-158287D1*
X-224110Y2364430D2*
X-192033D1*
X-166844D2*
X-157675D1*
X-228006Y2361930D2*
X-207157D1*
X-202157D2*
X-193189D1*
X-165668D2*
X-157373D1*
X-230937Y2359430D2*
X-212157D1*
X-202147D2*
X-192989D1*
X-165396D2*
X-157251D1*
X-233160Y2356930D2*
X-217157D1*
X-202059D2*
X-192386D1*
X-166148D2*
X-157285D1*
X-233936Y2354430D2*
X-222157D1*
X-201731D2*
X-190666D1*
X-168191D2*
X-157594D1*
X-234374Y2351930D2*
X-227157D1*
X-201034D2*
X-186245D1*
X-172831D2*
X-158283D1*
X-234657Y2349430D2*
X-232157D1*
X-199967D2*
X-179815D1*
X-179400D2*
X-159357D1*
X-198421Y2346930D2*
X-160998D1*
X-196149Y2344430D2*
X-163656D1*
X-193111Y2341930D2*
X-167548D1*
X-189657Y2339430D2*
X-172157D1*
X758940Y380680D2*
X808940D1*
X757786Y378180D2*
X815757D1*
X757065Y375680D2*
X821145D1*
X756683Y373180D2*
X825121D1*
X756440Y370680D2*
X828021D1*
X815844Y368180D2*
X830131D1*
X819397Y365680D2*
X831693D1*
X822152Y363180D2*
X832786D1*
X823462Y360680D2*
X833414D1*
X824570Y358180D2*
X833721D1*
X825353Y355680D2*
X833855D1*
X825777Y353180D2*
X833909D1*
X825179Y350680D2*
X833919D1*
X824198Y348180D2*
X833839D1*
X822784Y345680D2*
X833513D1*
X820912Y343180D2*
X832817D1*
X818721Y340680D2*
X831760D1*
X816360Y338180D2*
X830299D1*
X756440Y335680D2*
X828316D1*
X756440Y333180D2*
X825733D1*
X756440Y330680D2*
X822515D1*
X756440Y328180D2*
X818940D1*
X816440Y308180D2*
X818940D1*
X756440Y305680D2*
X796440D1*
X816460D2*
X822584D1*
X756440Y303180D2*
X796335D1*
X816645D2*
X825714D1*
X756440Y300680D2*
X795927D1*
X817085D2*
X828249D1*
X756440Y298180D2*
X795009D1*
X818910D2*
X830214D1*
X756440Y295680D2*
X766440D1*
X783554D2*
X793769D1*
X821165D2*
X831722D1*
X756440Y293180D2*
X766440D1*
X782934D2*
X792692D1*
X823281D2*
X832796D1*
X756440Y290680D2*
X766440D1*
X782287D2*
X792024D1*
X825038D2*
X833417D1*
X756440Y288180D2*
X766440D1*
X781858D2*
X791696D1*
X825591D2*
X833722D1*
X756440Y285680D2*
X766440D1*
X781714D2*
X791539D1*
X825238D2*
X833845D1*
X756440Y283180D2*
X766440D1*
X781936D2*
X792192D1*
X823918D2*
X833801D1*
X756440Y280680D2*
X766440D1*
X782589D2*
X796068D1*
X818067D2*
X833405D1*
X756440Y278180D2*
X766440D1*
X783629D2*
X807575D1*
X807551D2*
X832398D1*
X756440Y275680D2*
X766440D1*
X785093D2*
X830725D1*
X756440Y273180D2*
X766440D1*
X787170D2*
X828443D1*
X756440Y270680D2*
X766440D1*
X790139D2*
X825347D1*
X756440Y268180D2*
X766440D1*
X794211D2*
X821210D1*
X798940Y265680D2*
X816440D1*
X-828170Y394880D2*
X-778170D1*
X-829324Y392380D2*
X-771353D1*
X-830045Y389880D2*
X-765965D1*
X-830427Y387380D2*
X-761989D1*
X-830670Y384880D2*
X-759089D1*
X-771266Y382380D2*
X-756979D1*
X-767713Y379880D2*
X-755417D1*
X-764958Y377380D2*
X-754324D1*
X-763648Y374880D2*
X-753696D1*
X-762540Y372380D2*
X-753389D1*
X-761757Y369880D2*
X-753255D1*
X-761333Y367380D2*
X-753201D1*
X-761931Y364880D2*
X-753191D1*
X-762912Y362380D2*
X-753271D1*
X-764326Y359880D2*
X-753597D1*
X-766198Y357380D2*
X-754293D1*
X-768389Y354880D2*
X-755350D1*
X-770750Y352380D2*
X-756811D1*
X-830670Y349880D2*
X-758794D1*
X-830670Y347380D2*
X-761377D1*
X-830670Y344880D2*
X-764595D1*
X-830670Y342380D2*
X-768170D1*
X-788170Y322380D2*
X-763170D1*
X-794324Y319880D2*
X-760765D1*
X-800042Y317380D2*
X-758595D1*
X-805405Y314880D2*
X-756792D1*
X-810557Y312380D2*
X-782283D1*
X-766066D2*
X-755350D1*
X-815524Y309880D2*
X-785517D1*
X-764284D2*
X-754301D1*
X-820123Y307380D2*
X-788047D1*
X-762857D2*
X-753689D1*
X-824019Y304880D2*
X-803170D1*
X-798170D2*
X-789202D1*
X-761682D2*
X-753387D1*
X-826950Y302380D2*
X-808170D1*
X-798160D2*
X-789003D1*
X-761409D2*
X-753264D1*
X-829173Y299880D2*
X-813170D1*
X-798072D2*
X-788399D1*
X-762161D2*
X-753299D1*
X-829950Y297380D2*
X-818170D1*
X-797744D2*
X-786680D1*
X-764204D2*
X-753607D1*
X-830388Y294880D2*
X-823170D1*
X-797048D2*
X-782259D1*
X-768845D2*
X-754296D1*
X-830670Y292380D2*
X-828170D1*
X-795981D2*
X-775829D1*
X-775413D2*
X-755370D1*
X-794434Y289880D2*
X-757011D1*
X-792162Y287380D2*
X-759669D1*
X-789125Y284880D2*
X-763561D1*
X-785670Y282380D2*
X-768170D1*
X-37040Y-881977D2*
X12960D1*
X-38194Y-884477D2*
X19777D1*
X-38915Y-886977D2*
X25165D1*
X-39297Y-889477D2*
X29141D1*
X-39540Y-891977D2*
X32041D1*
X19864Y-894477D2*
X34151D1*
X23417Y-896977D2*
X35713D1*
X26172Y-899477D2*
X36806D1*
X27482Y-901977D2*
X37434D1*
X28590Y-904477D2*
X37741D1*
X29373Y-906977D2*
X37875D1*
X29797Y-909477D2*
X37929D1*
X29199Y-911977D2*
X37939D1*
X28218Y-914477D2*
X37859D1*
X26804Y-916977D2*
X37533D1*
X24932Y-919477D2*
X36837D1*
X22741Y-921977D2*
X35780D1*
X20380Y-924477D2*
X34319D1*
X-39540Y-926977D2*
X32336D1*
X-39540Y-929477D2*
X29753D1*
X-39540Y-931977D2*
X26535D1*
X-39540Y-934477D2*
X22960D1*
X-37040Y-951977D2*
X-19540D1*
X-38194Y-954477D2*
X-19540D1*
X-38912Y-956977D2*
X-19540D1*
X-39275Y-959477D2*
X-19540D1*
X-39437Y-961977D2*
X-19540D1*
X-39502Y-964477D2*
X-29540D1*
X30460D2*
X37960D1*
X-39526Y-966977D2*
X-29540D1*
X22574D2*
X37835D1*
X-39535Y-969477D2*
X-29540D1*
X14444D2*
X37540D1*
X-39538Y-971977D2*
X-29511D1*
X6170D2*
X35934D1*
X-39540Y-974477D2*
X-29225D1*
X-2469D2*
X31436D1*
X-39540Y-976977D2*
X-28544D1*
X-12367D2*
X25300D1*
X-39540Y-979477D2*
X-25622D1*
X-24141D2*
X18033D1*
X-39540Y-981977D2*
X10183D1*
X-39540Y-984477D2*
X1921D1*
X-39540Y-986977D2*
X-6657D1*
X-39540Y-989477D2*
X-15509D1*
X-39540Y-991977D2*
X-24540D1*
X-19917Y2617810D2*
X-9917D1*
X115083D2*
X135083D1*
X167583D2*
X177583D1*
X202583D2*
X210083D1*
X-19917Y2615310D2*
X-9917D1*
X111525D2*
X138728D1*
X167583D2*
X177583D1*
X202583D2*
X210083D1*
X-19917Y2612810D2*
X-9917D1*
X108637D2*
X141858D1*
X167583D2*
X177583D1*
X202583D2*
X210083D1*
X-19917Y2610310D2*
X-9917D1*
X106460D2*
X144393D1*
X167583D2*
X177583D1*
X202583D2*
X210083D1*
X-19917Y2607810D2*
X-9917D1*
X104769D2*
X117593D1*
X131997D2*
X146367D1*
X167583D2*
X177583D1*
X202583D2*
X210083D1*
X-19917Y2605310D2*
X-9917D1*
X103336D2*
X115191D1*
X135637D2*
X147971D1*
X167583D2*
X177583D1*
X202583D2*
X210083D1*
X-19917Y2602810D2*
X-9917D1*
X102100D2*
X113097D1*
X138356D2*
X149438D1*
X167583D2*
X177583D1*
X202583D2*
X210083D1*
X-19917Y2600310D2*
X-9917D1*
X101149D2*
X111524D1*
X140538D2*
X150958D1*
X167583D2*
X177583D1*
X202583D2*
X210083D1*
X-19917Y2597810D2*
X-9917D1*
X100577D2*
X110362D1*
X142583D2*
X152583D1*
X167583D2*
X177583D1*
X202583D2*
X210083D1*
X-19917Y2595310D2*
X-9917D1*
X47583D2*
X82583D1*
X100291D2*
X109355D1*
X167583D2*
X177583D1*
X202583D2*
X210083D1*
X-19917Y2592810D2*
X-9917D1*
X47583D2*
X82583D1*
X100165D2*
X108538D1*
X167583D2*
X177583D1*
X202574D2*
X210083D1*
X-19917Y2590310D2*
X-9917D1*
X47583D2*
X82583D1*
X100113D2*
X108032D1*
X167583D2*
X177583D1*
X202486D2*
X210083D1*
X-19917Y2587810D2*
X4978D1*
X47583D2*
X82583D1*
X100094D2*
X107774D1*
X167583D2*
X177583D1*
X202167D2*
X210083D1*
X-19917Y2585310D2*
X15393D1*
X100087D2*
X107658D1*
X167583D2*
X177593D1*
X201559D2*
X210083D1*
X-19917Y2582810D2*
X21912D1*
X100085D2*
X107611D1*
X167583D2*
X177749D1*
X200761D2*
X210074D1*
X-19917Y2580310D2*
X26512D1*
X100084D2*
X107593D1*
X167583D2*
X178160D1*
X199838D2*
X209986D1*
X-19917Y2577810D2*
X-9917D1*
X14487D2*
X28649D1*
X100083D2*
X107587D1*
X167583D2*
X180877D1*
X196916D2*
X209657D1*
X-19917Y2575310D2*
X-9917D1*
X18031D2*
X30277D1*
X100083D2*
X107594D1*
X167583D2*
X188491D1*
X189228D2*
X208961D1*
X-19917Y2572810D2*
X-9917D1*
X20757D2*
X31406D1*
X100083D2*
X107681D1*
X167583D2*
X207884D1*
X-19917Y2570310D2*
X-9917D1*
X21704D2*
X32048D1*
X100083D2*
X108000D1*
X167583D2*
X206243D1*
X-19917Y2567810D2*
X-9917D1*
X22212D2*
X32361D1*
X100093D2*
X108608D1*
X167583D2*
X203584D1*
X-19917Y2565310D2*
X-9917D1*
X22429D2*
X32487D1*
X100181D2*
X109337D1*
X167583D2*
X177583D1*
X185083D2*
X199692D1*
X-19917Y2562810D2*
X-9917D1*
X22423D2*
X32454D1*
X100500D2*
X110111D1*
X142583D2*
X152583D1*
X167583D2*
X177583D1*
X190083D2*
X195083D1*
X-19917Y2560310D2*
X-9917D1*
X22232D2*
X32146D1*
X101108D2*
X111196D1*
X140879D2*
X151324D1*
X167583D2*
X177583D1*
X-19917Y2557810D2*
X-9917D1*
X20886D2*
X31467D1*
X101847D2*
X112677D1*
X139039D2*
X150188D1*
X167583D2*
X177583D1*
X-19917Y2555310D2*
X-9917D1*
X14700D2*
X30500D1*
X102699D2*
X117990D1*
X134332D2*
X148809D1*
X167583D2*
X177583D1*
X-19917Y2552810D2*
X-9917D1*
X3914D2*
X29359D1*
X103956D2*
X126703D1*
X126871D2*
X146992D1*
X167583D2*
X177583D1*
X-19917Y2550310D2*
X27975D1*
X105825D2*
X144806D1*
X167583D2*
X177583D1*
X-19917Y2547810D2*
X26039D1*
X108472D2*
X142171D1*
X167583D2*
X177583D1*
X-19917Y2545310D2*
X23295D1*
X112205D2*
X138574D1*
X167583D2*
X177583D1*
X-19917Y2542810D2*
X20083D1*
X117092D2*
X133533D1*
X167583D2*
X177583D1*
X122583Y2540310D2*
X127583D1*
X-293982Y-427371D2*
D13*
X-267315D1*
X-257315D2*
X-230648D1*
X-220648D2*
X-193982D1*
X-140648D2*
X-113982D1*
X-53982D2*
X-27315D1*
X39352D2*
X62685D1*
X99352D2*
X122685D1*
X162685D2*
X189352D1*
X232685D2*
X259352D1*
X272685D2*
X299352D1*
X-293982Y-430705D2*
X-267315D1*
X-257315D2*
X-230648D1*
X-220648D2*
X-193982D1*
X-148199D2*
X-107069D1*
X-57059D2*
X-21316D1*
X34493D2*
X67557D1*
X99352D2*
X127945D1*
X162685D2*
X189352D1*
X232685D2*
X259352D1*
X272685D2*
X299352D1*
X-293982Y-434038D2*
X-267315D1*
X-257315D2*
X-230648D1*
X-220648D2*
X-193982D1*
X-154439D2*
X-101112D1*
X-59338D2*
X-16151D1*
X30319D2*
X71835D1*
X99352D2*
X132622D1*
X162685D2*
X189352D1*
X232685D2*
X259352D1*
X272685D2*
X299352D1*
X-293982Y-437371D2*
X-267315D1*
X-257315D2*
X-230648D1*
X-220648D2*
X-193982D1*
X-159373D2*
X-96371D1*
X-60034D2*
X-12139D1*
X26939D2*
X75522D1*
X99352D2*
X136387D1*
X162685D2*
X189352D1*
X232685D2*
X259378D1*
X272685D2*
X299352D1*
X-293982Y-440705D2*
X-267315D1*
X-257315D2*
X-230648D1*
X-220648D2*
X-193982D1*
X-163449D2*
X-92836D1*
X-60395D2*
X-9193D1*
X24320D2*
X78515D1*
X99404D2*
X139226D1*
X162685D2*
X189352D1*
X232685D2*
X259612D1*
X272685D2*
X299352D1*
X-293982Y-444038D2*
X-267315D1*
X-257315D2*
X-230648D1*
X-220648D2*
X-193982D1*
X-166974D2*
X-89990D1*
X-60552D2*
X-7035D1*
X22309D2*
X80595D1*
X99560D2*
X141446D1*
X162685D2*
X189352D1*
X232685D2*
X260159D1*
X272685D2*
X299352D1*
X-293982Y-447371D2*
X-267315D1*
X-257315D2*
X-230648D1*
X-220648D2*
X-193982D1*
X-169891D2*
X-87469D1*
X-60615D2*
X-5543D1*
X20877D2*
X81871D1*
X101018D2*
X143235D1*
X162685D2*
X189352D1*
X232685D2*
X261983D1*
X272685D2*
X299352D1*
X-293982Y-450705D2*
X-267315D1*
X-257315D2*
X-230648D1*
X-220648D2*
X-193982D1*
X-172035D2*
X-85291D1*
X-60648D2*
X-4692D1*
X20049D2*
X82852D1*
X105136D2*
X144563D1*
X162685D2*
X189352D1*
X232685D2*
X263749D1*
X272685D2*
X299352D1*
X-293982Y-454038D2*
X-267315D1*
X-257315D2*
X-230648D1*
X-220648D2*
X-193982D1*
X-173602D2*
X-136647D1*
X-117328D2*
X-83478D1*
X-47598D2*
X-4277D1*
X19643D2*
X46673D1*
X59352D2*
X83889D1*
X109364D2*
X145334D1*
X162685D2*
X199352D1*
X232685D2*
X264926D1*
X272685D2*
X299352D1*
X-293982Y-457371D2*
X-267315D1*
X-257315D2*
X-230648D1*
X-220648D2*
X-193982D1*
X-174950D2*
X-141799D1*
X-114125D2*
X-82114D1*
X-37394D2*
X-4109D1*
X19465D2*
X44724D1*
X59352D2*
X84838D1*
X112810D2*
X145607D1*
X162685D2*
X199352D1*
X232685D2*
X265547D1*
X272685D2*
X299352D1*
X-293982Y-460705D2*
X-267315D1*
X-257315D2*
X-230648D1*
X-220648D2*
X-193982D1*
X-176041D2*
X-145694D1*
X-111346D2*
X-81189D1*
X-33317D2*
X-4154D1*
X19393D2*
X43608D1*
X59352D2*
X85455D1*
X113570D2*
X145354D1*
X162685D2*
X199352D1*
X232685D2*
X265831D1*
X272685D2*
X299352D1*
X-293982Y-464038D2*
X-267315D1*
X-257315D2*
X-230648D1*
X-220648D2*
X-193982D1*
X-176717D2*
X-148653D1*
X-109354D2*
X-80278D1*
X-31355D2*
X-4565D1*
X19366D2*
X43066D1*
X59352D2*
X85777D1*
X112763D2*
X144611D1*
X162685D2*
X199352D1*
X232685D2*
X265922D1*
X272685D2*
X299352D1*
X-293982Y-467371D2*
X-267315D1*
X-257315D2*
X-230648D1*
X-220648D2*
X-193982D1*
X-177061D2*
X-149684D1*
X-108152D2*
X-78958D1*
X-33133D2*
X-5483D1*
X19357D2*
X42832D1*
X59352D2*
X85923D1*
X111544D2*
X143653D1*
X162685D2*
X199352D1*
X232685D2*
X265733D1*
X272685D2*
X299352D1*
X-293982Y-470705D2*
X-267315D1*
X-257315D2*
X-230648D1*
X-220648D2*
X-193982D1*
X-177215D2*
X-150227D1*
X-107315D2*
X-77315D1*
X-38215D2*
X-6890D1*
X19353D2*
X42739D1*
X59352D2*
X85983D1*
X110080D2*
X142539D1*
X162685D2*
X199352D1*
X232685D2*
X265207D1*
X272685D2*
X299352D1*
X-293982Y-474038D2*
X-267315D1*
X-257315D2*
X-230648D1*
X-220648D2*
X-193982D1*
X-177278D2*
X-150359D1*
X-44602D2*
X-8823D1*
X19352D2*
X42704D1*
X59352D2*
X86006D1*
X108608D2*
X141010D1*
X162685D2*
X199352D1*
X232685D2*
X263386D1*
X272685D2*
X299352D1*
X-293982Y-477371D2*
X-267315D1*
X-257315D2*
X-230648D1*
X-220648D2*
X-193982D1*
X-177289D2*
X-150022D1*
X-50365D2*
X-11366D1*
X19352D2*
X42691D1*
X59352D2*
X86014D1*
X107404D2*
X139217D1*
X162685D2*
X199352D1*
X232685D2*
X261621D1*
X272685D2*
X299352D1*
X-293982Y-480705D2*
X-267315D1*
X-257315D2*
X-230648D1*
X-220648D2*
X-193982D1*
X-177180D2*
X-149118D1*
X-107315D2*
X-97315D1*
X-54715D2*
X-14518D1*
X19352D2*
X42700D1*
X59352D2*
X86004D1*
X106665D2*
X137736D1*
X162685D2*
X189352D1*
X232685D2*
X260457D1*
X272685D2*
X299352D1*
X-293982Y-484038D2*
X-267289D1*
X-257341D2*
X-230622D1*
X-220674D2*
X-193982D1*
X-176745D2*
X-147527D1*
X-109175D2*
X-80648D1*
X-56285D2*
X-18394D1*
X19352D2*
X42868D1*
X59313D2*
X85888D1*
X106291D2*
X136686D1*
X162685D2*
X189391D1*
X232685D2*
X259992D1*
X272659D2*
X299352D1*
X-293982Y-487371D2*
X-267035D1*
X-257595D2*
X-230368D1*
X-220928D2*
X-193982D1*
X-175831D2*
X-145301D1*
X-111564D2*
X-81176D1*
X-56334D2*
X-22700D1*
X19352D2*
X43297D1*
X58932D2*
X85463D1*
X106125D2*
X136808D1*
X162698D2*
X189772D1*
X232698D2*
X260031D1*
X272405D2*
X299352D1*
X-293982Y-490705D2*
X-266430D1*
X-258200D2*
X-229763D1*
X-221534D2*
X-193982D1*
X-174539D2*
X-138201D1*
X-117454D2*
X-82120D1*
X-55788D2*
X-26391D1*
X19365D2*
X45748D1*
X58024D2*
X84652D1*
X106071D2*
X138592D1*
X162815D2*
X190680D1*
X232815D2*
X262012D1*
X271800D2*
X299352D1*
X-293969Y-494038D2*
X-263832D1*
X-260798D2*
X-227165D1*
X-224131D2*
X-193982D1*
X-173029D2*
X-127294D1*
X-126378D2*
X-83421D1*
X-55042D2*
X-28847D1*
X19482D2*
X52004D1*
X54127D2*
X83680D1*
X106163D2*
X142191D1*
X163253D2*
X194576D1*
X202685D2*
X206018D1*
X233240D2*
X266946D1*
X269202D2*
X299339D1*
X-293851Y-497371D2*
X-193995D1*
X-171310D2*
X-84933D1*
X-54490D2*
X-7315D1*
X19920D2*
X82661D1*
X106591D2*
X145413D1*
X164182D2*
X209867D1*
X234051D2*
X299221D1*
X-293414Y-500705D2*
X-194125D1*
X-169234D2*
X-86666D1*
X-54079D2*
X-7315D1*
X20848D2*
X81423D1*
X107517D2*
X147862D1*
X165591D2*
X214027D1*
X235036D2*
X298784D1*
X-292485Y-504038D2*
X-194680D1*
X-166646D2*
X-88859D1*
X-53518D2*
X-7315D1*
X22258D2*
X79872D1*
X108925D2*
X148648D1*
X167526D2*
X218232D1*
X236186D2*
X297855D1*
X-291062Y-507371D2*
X-196046D1*
X-163549D2*
X-91886D1*
X-52662D2*
X-7315D1*
X24206D2*
X77866D1*
X110872D2*
X149060D1*
X170056D2*
X222200D1*
X237978D2*
X296432D1*
X-289001Y-510705D2*
X-198381D1*
X-159703D2*
X-95892D1*
X-51786D2*
X-7315D1*
X26850D2*
X75200D1*
X113516D2*
X149240D1*
X173114D2*
X226018D1*
X240882D2*
X294371D1*
X-285971Y-514038D2*
X-247928D1*
X-241261D2*
X-201685D1*
X-154581D2*
X-100950D1*
X-51194D2*
X-7315D1*
X30295D2*
X71746D1*
X116961D2*
X149311D1*
X176786D2*
X220903D1*
X245070D2*
X291341D1*
X-281921Y-517371D2*
X-252431D1*
X-235764D2*
X-205914D1*
X-148003D2*
X-107124D1*
X-50865D2*
X-7315D1*
X34585D2*
X67453D1*
X121251D2*
X149338D1*
X181185D2*
X215266D1*
X250315D2*
X287291D1*
X-277315Y-520705D2*
X-257315D1*
X-230648D2*
X-210648D1*
X-140648D2*
X-113982D1*
X-50648D2*
X-7315D1*
X39352D2*
X62685D1*
X126018D2*
X149352D1*
X186018D2*
X209352D1*
X256018D2*
X282685D1*
X-477533Y2156507D2*
D14*
X-482042Y2154007D1*
X-485994Y2151507D1*
X-489234Y2149007D1*
X-491733Y2146507D1*
X-493482Y2144007D1*
X-494715Y2141507D1*
X-495747Y2139007D1*
X-496574Y2136507D1*
X-497083Y2134007D1*
X-497333Y2131507D1*
X-497361Y2129007D1*
X-497089Y2126507D1*
X-496499Y2124007D1*
X-495767Y2121507D1*
X-494917Y2119007D1*
X-493670Y2116507D1*
X-491909Y2114007D1*
X-489774Y2111507D1*
X-487439Y2109007D1*
X-485033Y2106507D1*
X-440033Y2156507D2*
X-435525Y2154007D1*
X-431572Y2151507D1*
X-428323Y2149007D1*
X-425745Y2146507D1*
X-423766Y2144007D1*
X-422253Y2141507D1*
X-421178Y2139007D1*
X-420557Y2136507D1*
X-420252Y2134007D1*
X-420118Y2131507D1*
X-420074Y2129007D1*
X-420142Y2126507D1*
X-420463Y2124007D1*
X-421157Y2121507D1*
X-422213Y2119007D1*
X-423664Y2116507D1*
X-425571Y2114007D1*
X-427960Y2111507D1*
X-431100Y2109007D1*
X-435255Y2106507D1*
X-440033Y2104007D1*
X-475033Y2146507D2*
X-479146Y2144007D1*
X-482400Y2141507D1*
X-484762Y2139007D1*
X-486524Y2136507D1*
X-487822Y2134007D1*
X-488780Y2131507D1*
X-488483Y2129007D1*
X-487747Y2126507D1*
X-486643Y2124007D1*
X-485094Y2121507D1*
X-483055Y2119007D1*
X-480905Y2116507D1*
X-479271Y2114007D1*
X-478320Y2111507D1*
X-477835Y2109007D1*
X-477533Y2106507D1*
X-442533Y2146507D2*
X-438130Y2144007D1*
X-434576Y2141507D1*
X-431821Y2139007D1*
X-430521Y2136507D1*
X-429491Y2134007D1*
X-428705Y2131507D1*
X-428961Y2129007D1*
X-429477Y2126507D1*
X-430232Y2124007D1*
X-431511Y2121507D1*
X-433477Y2119007D1*
X-435789Y2116507D1*
X-437753Y2114007D1*
X-439199Y2111507D1*
X-439643Y2109007D1*
X-439883Y2106507D1*
X-440033Y2104007D1*
X-490033Y2091507D2*
X-491669Y2089007D1*
X-493327Y2086507D1*
X-494937Y2084007D1*
X-496177Y2081507D1*
X-496911Y2079007D1*
X-497274Y2076507D1*
X-497439Y2074007D1*
X-497533Y2071507D1*
X-480033Y2091507D2*
X-482043Y2089007D1*
X-483514Y2086507D1*
X-484408Y2084007D1*
X-485033Y2081507D1*
X-420033D2*
Y2079007D1*
Y2076507D1*
Y2074007D1*
Y2071507D1*
X-215943Y2636870D2*
X-220452Y2634370D1*
X-224404Y2631870D1*
X-227644Y2629370D1*
X-230143Y2626870D1*
X-231892Y2624370D1*
X-233125Y2621870D1*
X-234157Y2619370D1*
X-234984Y2616870D1*
X-235493Y2614370D1*
X-235743Y2611870D1*
X-235771Y2609370D1*
X-235499Y2606870D1*
X-234909Y2604370D1*
X-234177Y2601870D1*
X-233327Y2599370D1*
X-232080Y2596870D1*
X-230319Y2594370D1*
X-228184Y2591870D1*
X-225849Y2589370D1*
X-223443Y2586870D1*
X-178443Y2636870D2*
X-173935Y2634370D1*
X-169982Y2631870D1*
X-166733Y2629370D1*
X-164155Y2626870D1*
X-162176Y2624370D1*
X-160663Y2621870D1*
X-159588Y2619370D1*
X-158967Y2616870D1*
X-158662Y2614370D1*
X-158528Y2611870D1*
X-158484Y2609370D1*
X-158552Y2606870D1*
X-158873Y2604370D1*
X-159567Y2601870D1*
X-160623Y2599370D1*
X-162074Y2596870D1*
X-163981Y2594370D1*
X-166370Y2591870D1*
X-169510Y2589370D1*
X-173665Y2586870D1*
X-178443Y2584370D1*
X-213443Y2626870D2*
X-217556Y2624370D1*
X-220810Y2621870D1*
X-223172Y2619370D1*
X-224934Y2616870D1*
X-226232Y2614370D1*
X-227190Y2611870D1*
X-226893Y2609370D1*
X-226157Y2606870D1*
X-225053Y2604370D1*
X-223504Y2601870D1*
X-221465Y2599370D1*
X-219315Y2596870D1*
X-217681Y2594370D1*
X-216730Y2591870D1*
X-216245Y2589370D1*
X-215943Y2586870D1*
X-180943Y2626870D2*
X-176540Y2624370D1*
X-172986Y2621870D1*
X-170231Y2619370D1*
X-168931Y2616870D1*
X-167901Y2614370D1*
X-167115Y2611870D1*
X-167371Y2609370D1*
X-167887Y2606870D1*
X-168642Y2604370D1*
X-169921Y2601870D1*
X-171887Y2599370D1*
X-174199Y2596870D1*
X-176163Y2594370D1*
X-177609Y2591870D1*
X-178053Y2589370D1*
X-178293Y2586870D1*
X-178443Y2584370D1*
X-223443Y2569370D2*
X-227002Y2566870D1*
X-229890Y2564370D1*
X-232056Y2561870D1*
X-233660Y2559370D1*
X-234774Y2556870D1*
X-235411Y2554370D1*
X-235722Y2551870D1*
X-235848Y2549370D1*
X-235814Y2546870D1*
X-235506Y2544370D1*
X-234817Y2541870D1*
X-233762Y2539370D1*
X-232312Y2536870D1*
X-230427Y2534370D1*
X-228244Y2531870D1*
X-225943Y2529370D1*
X-215943Y2569370D2*
X-216153Y2566870D1*
X-216627Y2564370D1*
X-218730Y2561870D1*
X-221362Y2559370D1*
X-223850Y2556870D1*
X-225779Y2554370D1*
X-227283Y2551870D1*
X-227690Y2549370D1*
X-227017Y2546870D1*
X-225904Y2544370D1*
X-222391Y2541870D1*
X-217174Y2539370D1*
X-210943Y2536870D1*
X-168443Y2569370D2*
X-172193Y2566870D1*
X-175731Y2564370D1*
X-179203Y2561870D1*
X-182593Y2559370D1*
X-185913Y2556870D1*
X-189278Y2554370D1*
X-192622Y2551870D1*
X-195943Y2549370D1*
X-199507Y2546870D1*
X-203782Y2544370D1*
X-209551Y2541870D1*
X-217221Y2539370D1*
X-225943Y2536870D1*
X-158443Y2569370D2*
Y2566870D1*
Y2564370D1*
Y2561870D1*
Y2559370D1*
Y2556870D1*
Y2554370D1*
Y2551870D1*
Y2549370D1*
Y2546870D1*
Y2544370D1*
Y2541870D1*
Y2539370D1*
Y2536870D1*
Y2534370D1*
Y2531870D1*
Y2529370D1*
X-170943Y2556870D2*
X-173539Y2554370D1*
X-176369Y2551870D1*
X-179556Y2549370D1*
X-183016Y2546870D1*
X-186560Y2544370D1*
X-190021Y2541870D1*
X-193391Y2539370D1*
X-196861Y2536870D1*
X-200518Y2534370D1*
X-204398Y2531870D1*
X-208443Y2529370D1*
X-168443Y2556870D2*
Y2554370D1*
Y2551870D1*
Y2549370D1*
Y2546870D1*
Y2544370D1*
Y2541870D1*
Y2539370D1*
Y2536870D1*
Y2534370D1*
Y2531870D1*
Y2529370D1*
X1016457Y1023117D2*
X1011948Y1020617D1*
X1007996Y1018117D1*
X1004756Y1015617D1*
X1002257Y1013117D1*
X1000508Y1010617D1*
X999275Y1008117D1*
X998243Y1005617D1*
X997416Y1003117D1*
X996907Y1000617D1*
X996657Y998117D1*
X996629Y995617D1*
X996901Y993117D1*
X997491Y990617D1*
X998223Y988117D1*
X999073Y985617D1*
X1000320Y983117D1*
X1002081Y980617D1*
X1004216Y978117D1*
X1006551Y975617D1*
X1008957Y973117D1*
X1053957Y1023117D2*
X1058465Y1020617D1*
X1062418Y1018117D1*
X1065667Y1015617D1*
X1068245Y1013117D1*
X1070224Y1010617D1*
X1071737Y1008117D1*
X1072812Y1005617D1*
X1073433Y1003117D1*
X1073738Y1000617D1*
X1073872Y998117D1*
X1073916Y995617D1*
X1073848Y993117D1*
X1073527Y990617D1*
X1072833Y988117D1*
X1071777Y985617D1*
X1070326Y983117D1*
X1068419Y980617D1*
X1066030Y978117D1*
X1062890Y975617D1*
X1058735Y973117D1*
X1053957Y970617D1*
X1018957Y1013117D2*
X1014844Y1010617D1*
X1011590Y1008117D1*
X1009228Y1005617D1*
X1007466Y1003117D1*
X1006168Y1000617D1*
X1005210Y998117D1*
X1005507Y995617D1*
X1006243Y993117D1*
X1007347Y990617D1*
X1008896Y988117D1*
X1010935Y985617D1*
X1013085Y983117D1*
X1014719Y980617D1*
X1015670Y978117D1*
X1016155Y975617D1*
X1016457Y973117D1*
X1051457Y1013117D2*
X1055860Y1010617D1*
X1059414Y1008117D1*
X1062169Y1005617D1*
X1063469Y1003117D1*
X1064499Y1000617D1*
X1065285Y998117D1*
X1065029Y995617D1*
X1064513Y993117D1*
X1063758Y990617D1*
X1062479Y988117D1*
X1060513Y985617D1*
X1058201Y983117D1*
X1056237Y980617D1*
X1054791Y978117D1*
X1054347Y975617D1*
X1054107Y973117D1*
X1053957Y970617D1*
X1008957Y955617D2*
X1005398Y953117D1*
X1002510Y950617D1*
X1000344Y948117D1*
X998740Y945617D1*
X997626Y943117D1*
X996989Y940617D1*
X996678Y938117D1*
X996552Y935617D1*
X996586Y933117D1*
X996894Y930617D1*
X997583Y928117D1*
X998638Y925617D1*
X1000088Y923117D1*
X1001973Y920617D1*
X1004156Y918117D1*
X1006457Y915617D1*
X1016457Y955617D2*
X1016247Y953117D1*
X1015773Y950617D1*
X1013670Y948117D1*
X1011038Y945617D1*
X1008550Y943117D1*
X1006621Y940617D1*
X1005117Y938117D1*
X1004710Y935617D1*
X1005383Y933117D1*
X1006496Y930617D1*
X1010009Y928117D1*
X1015226Y925617D1*
X1021457Y923117D1*
X1063957Y955617D2*
X1060207Y953117D1*
X1056669Y950617D1*
X1053197Y948117D1*
X1049807Y945617D1*
X1046487Y943117D1*
X1043122Y940617D1*
X1039778Y938117D1*
X1036457Y935617D1*
X1032893Y933117D1*
X1028618Y930617D1*
X1022849Y928117D1*
X1015179Y925617D1*
X1006457Y923117D1*
X1073957Y955617D2*
Y953117D1*
Y950617D1*
Y948117D1*
Y945617D1*
Y943117D1*
Y940617D1*
Y938117D1*
Y935617D1*
Y933117D1*
Y930617D1*
Y928117D1*
Y925617D1*
Y923117D1*
Y920617D1*
Y918117D1*
Y915617D1*
X1061457Y943117D2*
X1058861Y940617D1*
X1056031Y938117D1*
X1052844Y935617D1*
X1049384Y933117D1*
X1045840Y930617D1*
X1042379Y928117D1*
X1039009Y925617D1*
X1035539Y923117D1*
X1031882Y920617D1*
X1028002Y918117D1*
X1023957Y915617D1*
X1063957Y943117D2*
Y940617D1*
Y938117D1*
Y935617D1*
Y933117D1*
Y930617D1*
Y928117D1*
Y925617D1*
Y923117D1*
Y920617D1*
Y918117D1*
Y915617D1*
X1011457Y898117D2*
X1007043Y895617D1*
X1003411Y893117D1*
X1000771Y890617D1*
X998922Y888117D1*
X997698Y885617D1*
X997016Y883117D1*
X996687Y880617D1*
X996546Y878117D1*
X996499Y875617D1*
X996566Y873117D1*
X996887Y870617D1*
X997580Y868117D1*
X998647Y865617D1*
X1000192Y863117D1*
X1002464Y860617D1*
X1005502Y858117D1*
X1008957Y855617D1*
X1058957Y898117D2*
X1063370Y895617D1*
X1067002Y893117D1*
X1069642Y890617D1*
X1071491Y888117D1*
X1072716Y885617D1*
X1073398Y883117D1*
X1073726Y880617D1*
X1073868Y878117D1*
X1073914Y875617D1*
X1073848Y873117D1*
X1073527Y870617D1*
X1072833Y868117D1*
X1071767Y865617D1*
X1070221Y863117D1*
X1067949Y860617D1*
X1064911Y858117D1*
X1061457Y855617D1*
X1011457Y888117D2*
X1009062Y885617D1*
X1006980Y883117D1*
X1005505Y880617D1*
X1004519Y878117D1*
X1004632Y875617D1*
X1005102Y873117D1*
X1006724Y870617D1*
X1010528Y868117D1*
X1015653Y865617D1*
X1021457Y863117D1*
X1058957Y888117D2*
X1061352Y885617D1*
X1063434Y883117D1*
X1064908Y880617D1*
X1065894Y878117D1*
X1065782Y875617D1*
X1065311Y873117D1*
X1063689Y870617D1*
X1059885Y868117D1*
X1054760Y865617D1*
X1048957Y863117D1*
X-1055050Y1019000D2*
X-1059559Y1016500D1*
X-1063511Y1014000D1*
X-1066751Y1011500D1*
X-1069250Y1009000D1*
X-1070999Y1006500D1*
X-1072231Y1004000D1*
X-1073264Y1001500D1*
X-1074091Y999000D1*
X-1074600Y996500D1*
X-1074849Y994000D1*
X-1074877Y991500D1*
X-1074606Y989000D1*
X-1074015Y986500D1*
X-1073283Y984000D1*
X-1072433Y981500D1*
X-1071187Y979000D1*
X-1069425Y976500D1*
X-1067290Y974000D1*
X-1064955Y971500D1*
X-1062550Y969000D1*
X-1017550Y1019000D2*
X-1013041Y1016500D1*
X-1009089Y1014000D1*
X-1005840Y1011500D1*
X-1003262Y1009000D1*
X-1001283Y1006500D1*
X-999770Y1004000D1*
X-998695Y1001500D1*
X-998073Y999000D1*
X-997768Y996500D1*
X-997635Y994000D1*
X-997591Y991500D1*
X-997659Y989000D1*
X-997980Y986500D1*
X-998674Y984000D1*
X-999730Y981500D1*
X-1001181Y979000D1*
X-1003088Y976500D1*
X-1005477Y974000D1*
X-1008617Y971500D1*
X-1012771Y969000D1*
X-1017550Y966500D1*
X-1052550Y1009000D2*
X-1056663Y1006500D1*
X-1059917Y1004000D1*
X-1062279Y1001500D1*
X-1064041Y999000D1*
X-1065339Y996500D1*
X-1066297Y994000D1*
X-1065999Y991500D1*
X-1065263Y989000D1*
X-1064160Y986500D1*
X-1062611Y984000D1*
X-1060571Y981500D1*
X-1058422Y979000D1*
X-1056788Y976500D1*
X-1055836Y974000D1*
X-1055351Y971500D1*
X-1055050Y969000D1*
X-1020050Y1009000D2*
X-1015646Y1006500D1*
X-1012093Y1004000D1*
X-1009338Y1001500D1*
X-1008038Y999000D1*
X-1007008Y996500D1*
X-1006222Y994000D1*
X-1006477Y991500D1*
X-1006994Y989000D1*
X-1007748Y986500D1*
X-1009028Y984000D1*
X-1010993Y981500D1*
X-1013305Y979000D1*
X-1015270Y976500D1*
X-1016716Y974000D1*
X-1017159Y971500D1*
X-1017400Y969000D1*
X-1017550Y966500D1*
X-1062550Y951500D2*
X-1066109Y949000D1*
X-1068997Y946500D1*
X-1071163Y944000D1*
X-1072767Y941500D1*
X-1073881Y939000D1*
X-1074518Y936500D1*
X-1074829Y934000D1*
X-1074954Y931500D1*
X-1074921Y929000D1*
X-1074613Y926500D1*
X-1073924Y924000D1*
X-1072869Y921500D1*
X-1071419Y919000D1*
X-1069533Y916500D1*
X-1067351Y914000D1*
X-1065050Y911500D1*
X-1055050Y951500D2*
X-1055260Y949000D1*
X-1055734Y946500D1*
X-1057836Y944000D1*
X-1060468Y941500D1*
X-1062957Y939000D1*
X-1064886Y936500D1*
X-1066390Y934000D1*
X-1066797Y931500D1*
X-1066124Y929000D1*
X-1065011Y926500D1*
X-1061497Y924000D1*
X-1056281Y921500D1*
X-1050050Y919000D1*
X-1007550Y951500D2*
X-1011299Y949000D1*
X-1014838Y946500D1*
X-1018310Y944000D1*
X-1021700Y941500D1*
X-1025020Y939000D1*
X-1028385Y936500D1*
X-1031729Y934000D1*
X-1035050Y931500D1*
X-1038613Y929000D1*
X-1042889Y926500D1*
X-1048658Y924000D1*
X-1056328Y921500D1*
X-1065050Y919000D1*
X-997550Y951500D2*
Y949000D1*
Y946500D1*
Y944000D1*
Y941500D1*
Y939000D1*
Y936500D1*
Y934000D1*
Y931500D1*
Y929000D1*
Y926500D1*
Y924000D1*
Y921500D1*
Y919000D1*
Y916500D1*
Y914000D1*
Y911500D1*
X-1010050Y939000D2*
X-1012645Y936500D1*
X-1015475Y934000D1*
X-1018663Y931500D1*
X-1022122Y929000D1*
X-1025667Y926500D1*
X-1029127Y924000D1*
X-1032498Y921500D1*
X-1035968Y919000D1*
X-1039625Y916500D1*
X-1043505Y914000D1*
X-1047550Y911500D1*
X-1007550Y939000D2*
Y936500D1*
Y934000D1*
Y931500D1*
Y929000D1*
Y926500D1*
Y924000D1*
Y921500D1*
Y919000D1*
Y916500D1*
Y914000D1*
Y911500D1*
X-1067550Y896500D2*
X-1069186Y894000D1*
X-1070844Y891500D1*
X-1072454Y889000D1*
X-1073694Y886500D1*
X-1074427Y884000D1*
X-1074791Y881500D1*
X-1074956Y879000D1*
X-1075050Y876500D1*
X-1057550Y896500D2*
X-1059559Y894000D1*
X-1061030Y891500D1*
X-1061925Y889000D1*
X-1062550Y886500D1*
X-997550D2*
Y884000D1*
Y881500D1*
Y879000D1*
Y876500D1*
X105667Y2447147D2*
X101158Y2444647D1*
X97206Y2442147D1*
X93966Y2439647D1*
X91467Y2437147D1*
X89718Y2434647D1*
X88485Y2432147D1*
X87453Y2429647D1*
X86626Y2427147D1*
X86117Y2424647D1*
X85858Y2422147D1*
X85752Y2419647D1*
X85792Y2417147D1*
X86103Y2414647D1*
X86792Y2412147D1*
X87847Y2409647D1*
X89298Y2407147D1*
X91195Y2404647D1*
X93488Y2402147D1*
X96242Y2399647D1*
X99542Y2397147D1*
X103167Y2394647D1*
X143167Y2447147D2*
X147675Y2444647D1*
X151628Y2442147D1*
X154877Y2439647D1*
X157455Y2437147D1*
X159434Y2434647D1*
X160947Y2432147D1*
X162022Y2429647D1*
X162643Y2427147D1*
X162948Y2424647D1*
X163082Y2422147D1*
X163126Y2419647D1*
X163058Y2417147D1*
X162737Y2414647D1*
X162053Y2412147D1*
X161094Y2409647D1*
X160060Y2407147D1*
X159197Y2404647D1*
X158752Y2402147D1*
X158649Y2399647D1*
X159715Y2397147D1*
X161307Y2394647D1*
X163167Y2392147D1*
X160667Y2389647D1*
X108167Y2437147D2*
X104054Y2434647D1*
X100809Y2432147D1*
X98536Y2429647D1*
X96832Y2427147D1*
X96233Y2424647D1*
X95908Y2422147D1*
X95771Y2419647D1*
X95809Y2417147D1*
X96222Y2414647D1*
X97050Y2412147D1*
X99815Y2409647D1*
X103988Y2407147D1*
X109520Y2404647D1*
X115667Y2402147D1*
X140667Y2437147D2*
X145070Y2434647D1*
X148624Y2432147D1*
X151379Y2429647D1*
X152679Y2427147D1*
X153709Y2424647D1*
X154495Y2422147D1*
X154239Y2419647D1*
X153725Y2417147D1*
X153009Y2414647D1*
X151956Y2412147D1*
X150667Y2409647D1*
X138167Y2417147D2*
X135667Y2414647D1*
X137675Y2412147D1*
X139138Y2409647D1*
X139977Y2407147D1*
X140403Y2404647D1*
X140667Y2402147D1*
X143167Y2417147D2*
X146126Y2414647D1*
X149503Y2412147D1*
X153167Y2409647D1*
X148167Y2397147D2*
X145667Y2394647D1*
X148167Y2397147D2*
X150667Y2394647D1*
X153167Y2392147D1*
X155667Y2389647D1*
X93167Y2377147D2*
X91531Y2374647D1*
X89873Y2372147D1*
X88263Y2369647D1*
X87023Y2367147D1*
X86289Y2364647D1*
X85926Y2362147D1*
X85761Y2359647D1*
X85667Y2357147D1*
X103167Y2377147D2*
X101157Y2374647D1*
X99686Y2372147D1*
X98792Y2369647D1*
X98167Y2367147D1*
X163167D2*
Y2364647D1*
Y2362147D1*
Y2359647D1*
Y2357147D1*
X-29403Y1891727D2*
Y1889227D1*
Y1886727D1*
Y1884227D1*
Y1881727D1*
Y1879227D1*
Y1876727D1*
Y1874227D1*
Y1871727D1*
Y1869227D1*
X-29394Y1866727D1*
X-29306Y1864227D1*
X-28987Y1861727D1*
X-28379Y1859227D1*
X-27650Y1856727D1*
X-26876Y1854227D1*
X-25859Y1851727D1*
X-24376Y1849227D1*
X-22268Y1846727D1*
X-19663Y1844227D1*
X-16903Y1841727D1*
X48097Y1891727D2*
Y1889227D1*
Y1886727D1*
Y1884227D1*
X-19403D2*
Y1881727D1*
Y1879227D1*
Y1876727D1*
Y1874227D1*
Y1871727D1*
Y1869227D1*
Y1866727D1*
X-19394Y1864227D1*
X-19286Y1861727D1*
X-19022Y1859227D1*
X-17641Y1856727D1*
X-13362Y1854227D1*
X-7011Y1851727D1*
X597Y1849227D1*
X5597Y1884227D2*
Y1881727D1*
Y1879227D1*
Y1876727D1*
Y1874227D1*
Y1871727D1*
Y1869227D1*
Y1866727D1*
X5587Y1864227D1*
X5479Y1861727D1*
X5216Y1859227D1*
X3834Y1856727D1*
X-445Y1854227D1*
X-6796Y1851727D1*
X-14403Y1849227D1*
X15597Y1884227D2*
Y1881727D1*
Y1879227D1*
Y1876727D1*
X15606Y1874227D1*
X15714Y1871727D1*
X15978Y1869227D1*
X17242Y1866727D1*
X20226Y1864227D1*
X24052Y1861727D1*
X28487Y1859227D1*
X33227Y1856727D1*
X37936Y1854227D1*
X42068Y1851727D1*
X45492Y1849227D1*
X46826Y1846727D1*
X47555Y1844227D1*
X47897Y1841727D1*
X48097Y1839227D1*
X15597Y1854227D2*
X13097Y1851727D1*
X10597Y1849227D1*
X8097Y1846727D1*
X5597Y1844227D1*
X3097Y1841727D1*
X15597Y1854227D2*
X20597Y1851727D1*
X25587Y1849227D1*
X30492Y1846727D1*
X35105Y1844227D1*
X39251Y1841727D1*
X43097Y1839227D1*
X-21903Y1824227D2*
X-23539Y1821727D1*
X-25197Y1819227D1*
X-26807Y1816727D1*
X-28047Y1814227D1*
X-28781Y1811727D1*
X-29144Y1809227D1*
X-29309Y1806727D1*
X-29403Y1804227D1*
X-11903Y1824227D2*
X-13913Y1821727D1*
X-15384Y1819227D1*
X-16278Y1816727D1*
X-16903Y1814227D1*
X48097D2*
Y1811727D1*
Y1809227D1*
Y1806727D1*
Y1804227D1*
X407523Y2122503D2*
Y2120003D1*
Y2117503D1*
Y2115003D1*
Y2112503D1*
Y2110003D1*
Y2107503D1*
Y2105003D1*
Y2102503D1*
Y2100003D1*
X407533Y2097503D1*
X407621Y2095003D1*
X407940Y2092503D1*
X408548Y2090003D1*
X409277Y2087503D1*
X410051Y2085003D1*
X411067Y2082503D1*
X412551Y2080003D1*
X414658Y2077503D1*
X417263Y2075003D1*
X420023Y2072503D1*
X485023Y2122503D2*
Y2120003D1*
Y2117503D1*
Y2115003D1*
X417523D2*
Y2112503D1*
Y2110003D1*
Y2107503D1*
Y2105003D1*
Y2102503D1*
Y2100003D1*
Y2097503D1*
X417533Y2095003D1*
X417641Y2092503D1*
X417904Y2090003D1*
X419286Y2087503D1*
X423565Y2085003D1*
X429916Y2082503D1*
X437523Y2080003D1*
X442523Y2115003D2*
Y2112503D1*
Y2110003D1*
Y2107503D1*
Y2105003D1*
Y2102503D1*
Y2100003D1*
Y2097503D1*
X442514Y2095003D1*
X442406Y2092503D1*
X442142Y2090003D1*
X440761Y2087503D1*
X436482Y2085003D1*
X430131Y2082503D1*
X422523Y2080003D1*
X452523Y2115003D2*
Y2112503D1*
Y2110003D1*
Y2107503D1*
X452533Y2105003D1*
X452641Y2102503D1*
X452904Y2100003D1*
X454169Y2097503D1*
X457153Y2095003D1*
X460979Y2092503D1*
X465414Y2090003D1*
X470153Y2087503D1*
X474863Y2085003D1*
X478995Y2082503D1*
X482419Y2080003D1*
X483753Y2077503D1*
X484481Y2075003D1*
X484824Y2072503D1*
X485023Y2070003D1*
X452523Y2085003D2*
X450023Y2082503D1*
X447523Y2080003D1*
X445023Y2077503D1*
X442523Y2075003D1*
X440023Y2072503D1*
X452523Y2085003D2*
X457523Y2082503D1*
X462514Y2080003D1*
X467418Y2077503D1*
X472032Y2075003D1*
X476177Y2072503D1*
X480023Y2070003D1*
X420023Y2052503D2*
X416465Y2050003D1*
X413577Y2047503D1*
X411410Y2045003D1*
X409806Y2042503D1*
X408692Y2040003D1*
X408055Y2037503D1*
X407745Y2035003D1*
X407619Y2032503D1*
X407653Y2030003D1*
X407960Y2027503D1*
X408650Y2025003D1*
X409704Y2022503D1*
X411154Y2020003D1*
X413040Y2017503D1*
X415223Y2015003D1*
X417523Y2012503D1*
X427523Y2052503D2*
X427313Y2050003D1*
X426840Y2047503D1*
X424737Y2045003D1*
X422105Y2042503D1*
X419616Y2040003D1*
X417688Y2037503D1*
X416184Y2035003D1*
X415776Y2032503D1*
X416449Y2030003D1*
X417562Y2027503D1*
X421076Y2025003D1*
X426292Y2022503D1*
X432523Y2020003D1*
X475023Y2052503D2*
X471274Y2050003D1*
X467736Y2047503D1*
X464263Y2045003D1*
X460873Y2042503D1*
X457553Y2040003D1*
X454188Y2037503D1*
X450844Y2035003D1*
X447523Y2032503D1*
X443960Y2030003D1*
X439685Y2027503D1*
X433916Y2025003D1*
X426246Y2022503D1*
X417523Y2020003D1*
X485023Y2052503D2*
Y2050003D1*
Y2047503D1*
Y2045003D1*
Y2042503D1*
Y2040003D1*
Y2037503D1*
Y2035003D1*
Y2032503D1*
Y2030003D1*
Y2027503D1*
Y2025003D1*
Y2022503D1*
Y2020003D1*
Y2017503D1*
Y2015003D1*
Y2012503D1*
X472523Y2040003D2*
X469928Y2037503D1*
X467098Y2035003D1*
X463911Y2032503D1*
X460451Y2030003D1*
X456907Y2027503D1*
X453446Y2025003D1*
X450075Y2022503D1*
X446605Y2020003D1*
X442949Y2017503D1*
X439069Y2015003D1*
X435023Y2012503D1*
X475023Y2040003D2*
Y2037503D1*
Y2035003D1*
Y2032503D1*
Y2030003D1*
Y2027503D1*
Y2025003D1*
Y2022503D1*
Y2020003D1*
Y2017503D1*
Y2015003D1*
Y2012503D1*
X924047Y-247050D2*
Y-249550D1*
Y-252050D1*
Y-254550D1*
Y-257050D1*
Y-259550D1*
Y-262050D1*
Y-264550D1*
Y-267050D1*
Y-269550D1*
X924056Y-272050D1*
X924144Y-274550D1*
X924463Y-277050D1*
X925071Y-279550D1*
X925800Y-282050D1*
X926574Y-284550D1*
X927591Y-287050D1*
X929074Y-289550D1*
X931182Y-292050D1*
X933787Y-294550D1*
X936547Y-297050D1*
X1001547Y-247050D2*
Y-249550D1*
Y-252050D1*
Y-254550D1*
X934047D2*
Y-257050D1*
Y-259550D1*
Y-262050D1*
Y-264550D1*
Y-267050D1*
Y-269550D1*
Y-272050D1*
X934056Y-274550D1*
X934164Y-277050D1*
X934428Y-279550D1*
X935809Y-282050D1*
X940088Y-284550D1*
X946439Y-287050D1*
X954047Y-289550D1*
X959047Y-254550D2*
Y-257050D1*
Y-259550D1*
Y-262050D1*
Y-264550D1*
Y-267050D1*
Y-269550D1*
Y-272050D1*
X959037Y-274550D1*
X958929Y-277050D1*
X958666Y-279550D1*
X957284Y-282050D1*
X953005Y-284550D1*
X946654Y-287050D1*
X939047Y-289550D1*
X969047Y-254550D2*
Y-257050D1*
Y-259550D1*
Y-262050D1*
X969056Y-264550D1*
X969164Y-267050D1*
X969428Y-269550D1*
X970692Y-272050D1*
X973676Y-274550D1*
X977502Y-277050D1*
X981937Y-279550D1*
X986677Y-282050D1*
X991386Y-284550D1*
X995518Y-287050D1*
X998942Y-289550D1*
X1000276Y-292050D1*
X1001005Y-294550D1*
X1001347Y-297050D1*
X1001547Y-299550D1*
X969047Y-284550D2*
X966547Y-287050D1*
X964047Y-289550D1*
X961547Y-292050D1*
X959047Y-294550D1*
X956547Y-297050D1*
X969047Y-284550D2*
X974047Y-287050D1*
X979037Y-289550D1*
X983942Y-292050D1*
X988555Y-294550D1*
X992701Y-297050D1*
X996547Y-299550D1*
X984047Y-314550D2*
X984066Y-317050D1*
X984252Y-319550D1*
X984691Y-322050D1*
X986431Y-324550D1*
X988453Y-327050D1*
X990298Y-329550D1*
X991791Y-332050D1*
X993012Y-334550D1*
X993338Y-337050D1*
X992856Y-339550D1*
X991395Y-342050D1*
X986571Y-344550D1*
X978753Y-347050D1*
X969047Y-349550D1*
X986547Y-314550D2*
X990659Y-317050D1*
X993914Y-319550D1*
X996275Y-322050D1*
X998047Y-324550D1*
X999433Y-327050D1*
X1000446Y-329550D1*
X1001040Y-332050D1*
X1001335Y-334550D1*
X1001454Y-337050D1*
X1001419Y-339550D1*
X1001110Y-342050D1*
X1000421Y-344550D1*
X999366Y-347050D1*
X997916Y-349550D1*
X996030Y-352050D1*
X993847Y-354550D1*
X991547Y-357050D1*
X936547Y-317050D2*
X932988Y-319550D1*
X930100Y-322050D1*
X927934Y-324550D1*
X926330Y-327050D1*
X925216Y-329550D1*
X924579Y-332050D1*
X924268Y-334550D1*
X924142Y-337050D1*
X924176Y-339550D1*
X924484Y-342050D1*
X925173Y-344550D1*
X926247Y-347050D1*
X927888Y-349550D1*
X930546Y-352050D1*
X934438Y-354550D1*
X939047Y-357050D1*
X941547Y-317050D2*
X941432Y-319550D1*
X941166Y-322050D1*
X939747Y-324550D1*
X937777Y-327050D1*
X935740Y-329550D1*
X934122Y-332050D1*
X932926Y-334550D1*
X932983Y-337050D1*
X934004Y-339550D1*
X937065Y-342050D1*
X944835Y-344550D1*
X954047Y-347050D1*
X956547Y-332050D2*
X956537Y-334550D1*
X956381Y-337050D1*
X955970Y-339550D1*
X953253Y-342050D1*
X945639Y-344550D1*
X936547Y-347050D1*
X966547Y-332050D2*
X966556Y-334550D1*
X966654Y-337050D1*
X966888Y-339550D1*
X968046Y-342050D1*
X972054Y-344550D1*
X978506Y-347050D1*
X986547Y-349550D1*
X961547Y-347050D2*
X958944Y-349550D1*
X956056Y-352050D1*
X952701Y-354550D1*
X949047Y-357050D1*
X964047Y-347050D2*
X964418Y-349550D1*
X965678Y-352050D1*
X968423Y-354550D1*
X971547Y-357050D1*
X-968390Y-256820D2*
Y-259320D1*
Y-261820D1*
Y-264320D1*
Y-266820D1*
Y-269320D1*
Y-271820D1*
Y-274320D1*
Y-276820D1*
Y-279320D1*
X-968380Y-281820D1*
X-968292Y-284320D1*
X-967974Y-286820D1*
X-967365Y-289320D1*
X-966636Y-291820D1*
X-965862Y-294320D1*
X-964846Y-296820D1*
X-963363Y-299320D1*
X-961255Y-301820D1*
X-958650Y-304320D1*
X-955890Y-306820D1*
X-890890Y-256820D2*
Y-259320D1*
Y-261820D1*
Y-264320D1*
X-958390D2*
Y-266820D1*
Y-269320D1*
Y-271820D1*
Y-274320D1*
Y-276820D1*
Y-279320D1*
Y-281820D1*
X-958380Y-284320D1*
X-958273Y-286820D1*
X-958009Y-289320D1*
X-956627Y-291820D1*
X-952348Y-294320D1*
X-945998Y-296820D1*
X-938390Y-299320D1*
X-933390Y-264320D2*
Y-266820D1*
Y-269320D1*
Y-271820D1*
Y-274320D1*
Y-276820D1*
Y-279320D1*
Y-281820D1*
X-933400Y-284320D1*
X-933507Y-286820D1*
X-933771Y-289320D1*
X-935153Y-291820D1*
X-939432Y-294320D1*
X-945782Y-296820D1*
X-953390Y-299320D1*
X-923390Y-264320D2*
Y-266820D1*
Y-269320D1*
Y-271820D1*
X-923380Y-274320D1*
X-923273Y-276820D1*
X-923009Y-279320D1*
X-921744Y-281820D1*
X-918761Y-284320D1*
X-914935Y-286820D1*
X-910499Y-289320D1*
X-905760Y-291820D1*
X-901051Y-294320D1*
X-896918Y-296820D1*
X-893495Y-299320D1*
X-892161Y-301820D1*
X-891432Y-304320D1*
X-891089Y-306820D1*
X-890890Y-309320D1*
X-923390Y-294320D2*
X-925890Y-296820D1*
X-928390Y-299320D1*
X-930890Y-301820D1*
X-933390Y-304320D1*
X-935890Y-306820D1*
X-923390Y-294320D2*
X-918390Y-296820D1*
X-913400Y-299320D1*
X-908495Y-301820D1*
X-903881Y-304320D1*
X-899736Y-306820D1*
X-895890Y-309320D1*
X-915890Y-326820D2*
X-920890Y-329320D1*
X-925890Y-331820D1*
X-930900Y-334320D1*
X-935988Y-336820D1*
X-941306Y-339320D1*
X-946905Y-341820D1*
X-952526Y-344320D1*
X-957767Y-346820D1*
X-962166Y-349320D1*
X-965738Y-351820D1*
X-967104Y-354320D1*
X-967883Y-356820D1*
X-968390Y-359320D1*
X-903390Y-326820D2*
Y-329320D1*
Y-331820D1*
Y-334320D1*
Y-336820D1*
Y-339320D1*
Y-341820D1*
Y-344320D1*
Y-346820D1*
Y-349320D1*
Y-351820D1*
Y-354320D1*
Y-356820D1*
Y-359320D1*
X-890890D1*
Y-361820D1*
Y-364320D1*
Y-366820D1*
Y-369320D1*
Y-371820D1*
X-903390D1*
Y-374320D1*
X-913390Y-336820D2*
X-918776Y-339320D1*
X-924396Y-341820D1*
X-930043Y-344320D1*
X-935481Y-346820D1*
X-940723Y-349320D1*
X-945925Y-351820D1*
X-951355Y-354320D1*
X-957227Y-356820D1*
X-963390Y-359320D1*
X-910890Y-336820D2*
Y-339320D1*
Y-341820D1*
Y-344320D1*
Y-346820D1*
Y-349320D1*
Y-351820D1*
Y-354320D1*
Y-356820D1*
Y-359320D1*
X-935890D1*
Y-361820D1*
Y-364320D1*
Y-366820D1*
Y-369320D1*
Y-371820D1*
X-910890D1*
Y-374320D1*
X-234657Y2449430D2*
Y2446930D1*
Y2444430D1*
Y2441930D1*
Y2439430D1*
Y2436930D1*
Y2434430D1*
Y2431930D1*
Y2429430D1*
Y2426930D1*
X-234647Y2424430D1*
X-234559Y2421930D1*
X-234240Y2419430D1*
X-233632Y2416930D1*
X-232903Y2414430D1*
X-232129Y2411930D1*
X-231113Y2409430D1*
X-229629Y2406930D1*
X-227522Y2404430D1*
X-224917Y2401930D1*
X-222157Y2399430D1*
X-157157Y2449430D2*
Y2446930D1*
Y2444430D1*
Y2441930D1*
X-224657D2*
Y2439430D1*
Y2436930D1*
Y2434430D1*
Y2431930D1*
Y2429430D1*
Y2426930D1*
Y2424430D1*
X-224647Y2421930D1*
X-224539Y2419430D1*
X-224276Y2416930D1*
X-222894Y2414430D1*
X-218615Y2411930D1*
X-212264Y2409430D1*
X-204657Y2406930D1*
X-199657Y2441930D2*
Y2439430D1*
Y2436930D1*
Y2434430D1*
Y2431930D1*
Y2429430D1*
Y2426930D1*
Y2424430D1*
X-199666Y2421930D1*
X-199774Y2419430D1*
X-200038Y2416930D1*
X-201419Y2414430D1*
X-205698Y2411930D1*
X-212049Y2409430D1*
X-219657Y2406930D1*
X-189657Y2441930D2*
Y2439430D1*
Y2436930D1*
Y2434430D1*
X-189647Y2431930D1*
X-189539Y2429430D1*
X-189276Y2426930D1*
X-188011Y2424430D1*
X-185027Y2421930D1*
X-181201Y2419430D1*
X-176766Y2416930D1*
X-172027Y2414430D1*
X-167317Y2411930D1*
X-163185Y2409430D1*
X-159761Y2406930D1*
X-158427Y2404430D1*
X-157699Y2401930D1*
X-157356Y2399430D1*
X-157157Y2396930D1*
X-189657Y2411930D2*
X-192157Y2409430D1*
X-194657Y2406930D1*
X-197157Y2404430D1*
X-199657Y2401930D1*
X-202157Y2399430D1*
X-189657Y2411930D2*
X-184657Y2409430D1*
X-179666Y2406930D1*
X-174762Y2404430D1*
X-170148Y2401930D1*
X-166003Y2399430D1*
X-162157Y2396930D1*
X-192157Y2379430D2*
X-198311Y2376930D1*
X-204029Y2374430D1*
X-209392Y2371930D1*
X-214543Y2369430D1*
X-219511Y2366930D1*
X-224110Y2364430D1*
X-228006Y2361930D1*
X-230937Y2359430D1*
X-233160Y2356930D1*
X-233936Y2354430D1*
X-234374Y2351930D1*
X-234657Y2349430D1*
X-167157Y2379430D2*
X-164752Y2376930D1*
X-162582Y2374430D1*
X-160779Y2371930D1*
X-159336Y2369430D1*
X-158287Y2366930D1*
X-157675Y2364430D1*
X-157373Y2361930D1*
X-157251Y2359430D1*
X-157285Y2356930D1*
X-157594Y2354430D1*
X-158283Y2351930D1*
X-159357Y2349430D1*
X-160998Y2346930D1*
X-163656Y2344430D1*
X-167548Y2341930D1*
X-172157Y2339430D1*
X-182157Y2371930D2*
X-186269Y2369430D1*
X-189504Y2366930D1*
X-192033Y2364430D1*
X-193189Y2361930D1*
X-192989Y2359430D1*
X-192386Y2356930D1*
X-190666Y2354430D1*
X-186245Y2351930D1*
X-179815Y2349430D1*
X-172157Y2346930D1*
Y2371930D2*
X-170053Y2369430D1*
X-168270Y2366930D1*
X-166844Y2364430D1*
X-165668Y2361930D1*
X-165396Y2359430D1*
X-166148Y2356930D1*
X-168191Y2354430D1*
X-172831Y2351930D1*
X-179400Y2349430D1*
X-187157Y2346930D1*
X-202157Y2364430D2*
X-207157Y2361930D1*
X-212157Y2359430D1*
X-217157Y2356930D1*
X-222157Y2354430D1*
X-227157Y2351930D1*
X-232157Y2349430D1*
X-202157Y2364430D2*
Y2361930D1*
X-202147Y2359430D1*
X-202059Y2356930D1*
X-201731Y2354430D1*
X-201034Y2351930D1*
X-199967Y2349430D1*
X-198421Y2346930D1*
X-196149Y2344430D1*
X-193111Y2341930D1*
X-189657Y2339430D1*
X758940Y380680D2*
X757786Y378180D1*
X757065Y375680D1*
X756683Y373180D1*
X756440Y370680D1*
X808940Y380680D2*
X815757Y378180D1*
X821145Y375680D1*
X825121Y373180D1*
X828021Y370680D1*
X830131Y368180D1*
X831693Y365680D1*
X832786Y363180D1*
X833414Y360680D1*
X833721Y358180D1*
X833855Y355680D1*
X833909Y353180D1*
X833919Y350680D1*
X833839Y348180D1*
X833513Y345680D1*
X832817Y343180D1*
X831760Y340680D1*
X830299Y338180D1*
X828316Y335680D1*
X825733Y333180D1*
X822515Y330680D1*
X818940Y328180D1*
X811440Y370680D2*
X815844Y368180D1*
X819397Y365680D1*
X822152Y363180D1*
X823462Y360680D1*
X824570Y358180D1*
X825353Y355680D1*
X825777Y353180D1*
X825179Y350680D1*
X824198Y348180D1*
X822784Y345680D1*
X820912Y343180D1*
X818721Y340680D1*
X816360Y338180D1*
X813940Y335680D1*
X756440D2*
Y333180D1*
Y330680D1*
Y328180D1*
X816440Y308180D2*
X816460Y305680D1*
X816645Y303180D1*
X817085Y300680D1*
X818910Y298180D1*
X821165Y295680D1*
X823281Y293180D1*
X825038Y290680D1*
X825591Y288180D1*
X825238Y285680D1*
X823918Y283180D1*
X818067Y280680D1*
X807551Y278180D1*
X793940Y275680D1*
X818940Y308180D2*
X822584Y305680D1*
X825714Y303180D1*
X828249Y300680D1*
X830214Y298180D1*
X831722Y295680D1*
X832796Y293180D1*
X833417Y290680D1*
X833722Y288180D1*
X833845Y285680D1*
X833801Y283180D1*
X833405Y280680D1*
X832398Y278180D1*
X830725Y275680D1*
X828443Y273180D1*
X825347Y270680D1*
X821210Y268180D1*
X816440Y265680D1*
X756440Y305680D2*
Y303180D1*
Y300680D1*
Y298180D1*
Y295680D1*
Y293180D1*
Y290680D1*
Y288180D1*
Y285680D1*
Y283180D1*
Y280680D1*
Y278180D1*
Y275680D1*
Y273180D1*
Y270680D1*
Y268180D1*
X796440Y305680D2*
X796335Y303180D1*
X795927Y300680D1*
X795009Y298180D1*
X793769Y295680D1*
X792692Y293180D1*
X792024Y290680D1*
X791696Y288180D1*
X791539Y285680D1*
X792192Y283180D1*
X796068Y280680D1*
X807575Y278180D1*
X821440Y275680D1*
X766440Y298180D2*
Y295680D1*
Y293180D1*
Y290680D1*
Y288180D1*
Y285680D1*
Y283180D1*
Y280680D1*
Y278180D1*
Y275680D1*
Y273180D1*
Y270680D1*
Y268180D1*
X783940Y298180D2*
X783554Y295680D1*
X782934Y293180D1*
X782287Y290680D1*
X781858Y288180D1*
X781714Y285680D1*
X781936Y283180D1*
X782589Y280680D1*
X783629Y278180D1*
X785093Y275680D1*
X787170Y273180D1*
X790139Y270680D1*
X794211Y268180D1*
X798940Y265680D1*
X-828170Y394880D2*
X-829324Y392380D1*
X-830045Y389880D1*
X-830427Y387380D1*
X-830670Y384880D1*
X-778170Y394880D2*
X-771353Y392380D1*
X-765965Y389880D1*
X-761989Y387380D1*
X-759089Y384880D1*
X-756979Y382380D1*
X-755417Y379880D1*
X-754324Y377380D1*
X-753696Y374880D1*
X-753389Y372380D1*
X-753255Y369880D1*
X-753201Y367380D1*
X-753191Y364880D1*
X-753271Y362380D1*
X-753597Y359880D1*
X-754293Y357380D1*
X-755350Y354880D1*
X-756811Y352380D1*
X-758794Y349880D1*
X-761377Y347380D1*
X-764595Y344880D1*
X-768170Y342380D1*
X-775670Y384880D2*
X-771266Y382380D1*
X-767713Y379880D1*
X-764958Y377380D1*
X-763648Y374880D1*
X-762540Y372380D1*
X-761757Y369880D1*
X-761333Y367380D1*
X-761931Y364880D1*
X-762912Y362380D1*
X-764326Y359880D1*
X-766198Y357380D1*
X-768389Y354880D1*
X-770750Y352380D1*
X-773170Y349880D1*
X-830670D2*
Y347380D1*
Y344880D1*
Y342380D1*
X-788170Y322380D2*
X-794324Y319880D1*
X-800042Y317380D1*
X-805405Y314880D1*
X-810557Y312380D1*
X-815524Y309880D1*
X-820123Y307380D1*
X-824019Y304880D1*
X-826950Y302380D1*
X-829173Y299880D1*
X-829950Y297380D1*
X-830388Y294880D1*
X-830670Y292380D1*
X-763170Y322380D2*
X-760765Y319880D1*
X-758595Y317380D1*
X-756792Y314880D1*
X-755350Y312380D1*
X-754301Y309880D1*
X-753689Y307380D1*
X-753387Y304880D1*
X-753264Y302380D1*
X-753299Y299880D1*
X-753607Y297380D1*
X-754296Y294880D1*
X-755370Y292380D1*
X-757011Y289880D1*
X-759669Y287380D1*
X-763561Y284880D1*
X-768170Y282380D1*
X-778170Y314880D2*
X-782283Y312380D1*
X-785517Y309880D1*
X-788047Y307380D1*
X-789202Y304880D1*
X-789003Y302380D1*
X-788399Y299880D1*
X-786680Y297380D1*
X-782259Y294880D1*
X-775829Y292380D1*
X-768170Y289880D1*
Y314880D2*
X-766066Y312380D1*
X-764284Y309880D1*
X-762857Y307380D1*
X-761682Y304880D1*
X-761409Y302380D1*
X-762161Y299880D1*
X-764204Y297380D1*
X-768845Y294880D1*
X-775413Y292380D1*
X-783170Y289880D1*
X-798170Y307380D2*
X-803170Y304880D1*
X-808170Y302380D1*
X-813170Y299880D1*
X-818170Y297380D1*
X-823170Y294880D1*
X-828170Y292380D1*
X-798170Y307380D2*
Y304880D1*
X-798160Y302380D1*
X-798072Y299880D1*
X-797744Y297380D1*
X-797048Y294880D1*
X-795981Y292380D1*
X-794434Y289880D1*
X-792162Y287380D1*
X-789125Y284880D1*
X-785670Y282380D1*
X-37040Y-881977D2*
X-38194Y-884477D1*
X-38915Y-886977D1*
X-39297Y-889477D1*
X-39540Y-891977D1*
X12960Y-881977D2*
X19777Y-884477D1*
X25165Y-886977D1*
X29141Y-889477D1*
X32041Y-891977D1*
X34151Y-894477D1*
X35713Y-896977D1*
X36806Y-899477D1*
X37434Y-901977D1*
X37741Y-904477D1*
X37875Y-906977D1*
X37929Y-909477D1*
X37939Y-911977D1*
X37859Y-914477D1*
X37533Y-916977D1*
X36837Y-919477D1*
X35780Y-921977D1*
X34319Y-924477D1*
X32336Y-926977D1*
X29753Y-929477D1*
X26535Y-931977D1*
X22960Y-934477D1*
X15460Y-891977D2*
X19864Y-894477D1*
X23417Y-896977D1*
X26172Y-899477D1*
X27482Y-901977D1*
X28590Y-904477D1*
X29373Y-906977D1*
X29797Y-909477D1*
X29199Y-911977D1*
X28218Y-914477D1*
X26804Y-916977D1*
X24932Y-919477D1*
X22741Y-921977D1*
X20380Y-924477D1*
X17960Y-926977D1*
X-39540D2*
Y-929477D1*
Y-931977D1*
Y-934477D1*
X-37040Y-951977D2*
X-38194Y-954477D1*
X-38912Y-956977D1*
X-39275Y-959477D1*
X-39437Y-961977D1*
X-39502Y-964477D1*
X-39526Y-966977D1*
X-39535Y-969477D1*
X-39538Y-971977D1*
X-39540Y-974477D1*
Y-976977D1*
Y-979477D1*
Y-981977D1*
Y-984477D1*
Y-986977D1*
Y-989477D1*
Y-991977D1*
X-19540Y-951977D2*
Y-954477D1*
Y-956977D1*
Y-959477D1*
Y-961977D1*
Y-964477D1*
X-29540D1*
Y-966977D1*
Y-969477D1*
X-29511Y-971977D1*
X-29225Y-974477D1*
X-28544Y-976977D1*
X-25622Y-979477D1*
X-22040Y-981977D1*
X30460Y-964477D2*
X22574Y-966977D1*
X14444Y-969477D1*
X6170Y-971977D1*
X-2469Y-974477D1*
X-12367Y-976977D1*
X-24141Y-979477D1*
X-37040Y-981977D1*
X37960Y-964477D2*
X37835Y-966977D1*
X37540Y-969477D1*
X35934Y-971977D1*
X31436Y-974477D1*
X25300Y-976977D1*
X18033Y-979477D1*
X10183Y-981977D1*
X1921Y-984477D1*
X-6657Y-986977D1*
X-15509Y-989477D1*
X-24540Y-991977D1*
X-19917Y2617810D2*
Y2615310D1*
Y2612810D1*
Y2610310D1*
Y2607810D1*
Y2605310D1*
Y2602810D1*
Y2600310D1*
Y2597810D1*
Y2595310D1*
Y2592810D1*
Y2590310D1*
Y2587810D1*
Y2585310D1*
Y2582810D1*
Y2580310D1*
Y2577810D1*
Y2575310D1*
Y2572810D1*
Y2570310D1*
Y2567810D1*
Y2565310D1*
Y2562810D1*
Y2560310D1*
Y2557810D1*
Y2555310D1*
Y2552810D1*
Y2550310D1*
Y2547810D1*
Y2545310D1*
Y2542810D1*
X-9917Y2617810D2*
Y2615310D1*
Y2612810D1*
Y2610310D1*
Y2607810D1*
Y2605310D1*
Y2602810D1*
Y2600310D1*
Y2597810D1*
Y2595310D1*
Y2592810D1*
Y2590310D1*
X4978Y2587810D1*
X15393Y2585310D1*
X21912Y2582810D1*
X26512Y2580310D1*
X28649Y2577810D1*
X30277Y2575310D1*
X31406Y2572810D1*
X32048Y2570310D1*
X32361Y2567810D1*
X32487Y2565310D1*
X32454Y2562810D1*
X32146Y2560310D1*
X31467Y2557810D1*
X30500Y2555310D1*
X29359Y2552810D1*
X27975Y2550310D1*
X26039Y2547810D1*
X23295Y2545310D1*
X20083Y2542810D1*
X115083Y2617810D2*
X111525Y2615310D1*
X108637Y2612810D1*
X106460Y2610310D1*
X104769Y2607810D1*
X103336Y2605310D1*
X102100Y2602810D1*
X101149Y2600310D1*
X100577Y2597810D1*
X100291Y2595310D1*
X100165Y2592810D1*
X100113Y2590310D1*
X100094Y2587810D1*
X100087Y2585310D1*
X100085Y2582810D1*
X100084Y2580310D1*
X100083Y2577810D1*
Y2575310D1*
Y2572810D1*
Y2570310D1*
X100093Y2567810D1*
X100181Y2565310D1*
X100500Y2562810D1*
X101108Y2560310D1*
X101847Y2557810D1*
X102699Y2555310D1*
X103956Y2552810D1*
X105825Y2550310D1*
X108472Y2547810D1*
X112205Y2545310D1*
X117092Y2542810D1*
X122583Y2540310D1*
X135083Y2617810D2*
X138728Y2615310D1*
X141858Y2612810D1*
X144393Y2610310D1*
X146367Y2607810D1*
X147971Y2605310D1*
X149438Y2602810D1*
X150958Y2600310D1*
X152583Y2597810D1*
X167583Y2617810D2*
Y2615310D1*
Y2612810D1*
Y2610310D1*
Y2607810D1*
Y2605310D1*
Y2602810D1*
Y2600310D1*
Y2597810D1*
Y2595310D1*
Y2592810D1*
Y2590310D1*
Y2587810D1*
Y2585310D1*
Y2582810D1*
Y2580310D1*
Y2577810D1*
Y2575310D1*
Y2572810D1*
Y2570310D1*
Y2567810D1*
Y2565310D1*
Y2562810D1*
Y2560310D1*
Y2557810D1*
Y2555310D1*
Y2552810D1*
Y2550310D1*
Y2547810D1*
Y2545310D1*
Y2542810D1*
X177583Y2617810D2*
Y2615310D1*
Y2612810D1*
Y2610310D1*
Y2607810D1*
Y2605310D1*
Y2602810D1*
Y2600310D1*
Y2597810D1*
Y2595310D1*
Y2592810D1*
Y2590310D1*
Y2587810D1*
X177593Y2585310D1*
X177749Y2582810D1*
X178160Y2580310D1*
X180877Y2577810D1*
X188491Y2575310D1*
X197583Y2572810D1*
X202583Y2617810D2*
Y2615310D1*
Y2612810D1*
Y2610310D1*
Y2607810D1*
Y2605310D1*
Y2602810D1*
Y2600310D1*
Y2597810D1*
Y2595310D1*
X202574Y2592810D1*
X202486Y2590310D1*
X202167Y2587810D1*
X201559Y2585310D1*
X200761Y2582810D1*
X199838Y2580310D1*
X196916Y2577810D1*
X189228Y2575310D1*
X180083Y2572810D1*
X210083Y2617810D2*
Y2615310D1*
Y2612810D1*
Y2610310D1*
Y2607810D1*
Y2605310D1*
Y2602810D1*
Y2600310D1*
Y2597810D1*
Y2595310D1*
Y2592810D1*
Y2590310D1*
Y2587810D1*
Y2585310D1*
X210074Y2582810D1*
X209986Y2580310D1*
X209657Y2577810D1*
X208961Y2575310D1*
X207884Y2572810D1*
X206243Y2570310D1*
X203584Y2567810D1*
X199692Y2565310D1*
X195083Y2562810D1*
X120083Y2610310D2*
X117593Y2607810D1*
X115191Y2605310D1*
X113097Y2602810D1*
X111524Y2600310D1*
X110362Y2597810D1*
X109355Y2595310D1*
X108538Y2592810D1*
X108032Y2590310D1*
X107774Y2587810D1*
X107658Y2585310D1*
X107611Y2582810D1*
X107593Y2580310D1*
X107587Y2577810D1*
X107594Y2575310D1*
X107681Y2572810D1*
X108000Y2570310D1*
X108608Y2567810D1*
X109337Y2565310D1*
X110111Y2562810D1*
X111196Y2560310D1*
X112677Y2557810D1*
X117990Y2555310D1*
X126703Y2552810D1*
X137583Y2550310D1*
X127583Y2610310D2*
X131997Y2607810D1*
X135637Y2605310D1*
X138356Y2602810D1*
X140538Y2600310D1*
X142583Y2597810D1*
X47583Y2595310D2*
Y2592810D1*
Y2590310D1*
Y2587810D1*
X82583Y2595310D2*
Y2592810D1*
Y2590310D1*
Y2587810D1*
X-9917Y2580310D2*
Y2577810D1*
Y2575310D1*
Y2572810D1*
Y2570310D1*
Y2567810D1*
Y2565310D1*
Y2562810D1*
Y2560310D1*
Y2557810D1*
Y2555310D1*
Y2552810D1*
X15083Y2550310D1*
X10083Y2580310D2*
X14487Y2577810D1*
X18031Y2575310D1*
X20757Y2572810D1*
X21704Y2570310D1*
X22212Y2567810D1*
X22429Y2565310D1*
X22423Y2562810D1*
X22232Y2560310D1*
X20886Y2557810D1*
X14700Y2555310D1*
X3914Y2552810D1*
X-9917Y2550310D1*
X177583Y2567810D2*
Y2565310D1*
Y2562810D1*
Y2560310D1*
Y2557810D1*
Y2555310D1*
Y2552810D1*
Y2550310D1*
Y2547810D1*
Y2545310D1*
Y2542810D1*
X180083Y2567810D2*
X185083Y2565310D1*
X190083Y2562810D1*
X142583D2*
X140879Y2560310D1*
X139039Y2557810D1*
X134332Y2555310D1*
X126871Y2552810D1*
X117583Y2550310D1*
X152583Y2562810D2*
X151324Y2560310D1*
X150188Y2557810D1*
X148809Y2555310D1*
X146992Y2552810D1*
X144806Y2550310D1*
X142171Y2547810D1*
X138574Y2545310D1*
X133533Y2542810D1*
X127583Y2540310D1*
X-293982Y-427371D2*
D13*
Y-430705D1*
Y-434038D1*
Y-437371D1*
Y-440705D1*
Y-444038D1*
Y-447371D1*
Y-450705D1*
Y-454038D1*
Y-457371D1*
Y-460705D1*
Y-464038D1*
Y-467371D1*
Y-470705D1*
Y-474038D1*
Y-477371D1*
Y-480705D1*
Y-484038D1*
Y-487371D1*
Y-490705D1*
X-293969Y-494038D1*
X-293851Y-497371D1*
X-293414Y-500705D1*
X-292485Y-504038D1*
X-291062Y-507371D1*
X-289001Y-510705D1*
X-285971Y-514038D1*
X-281921Y-517371D1*
X-277315Y-520705D1*
X-267315Y-427371D2*
Y-430705D1*
Y-434038D1*
Y-437371D1*
Y-440705D1*
Y-444038D1*
Y-447371D1*
Y-450705D1*
Y-454038D1*
Y-457371D1*
Y-460705D1*
Y-464038D1*
Y-467371D1*
Y-470705D1*
Y-474038D1*
Y-477371D1*
Y-480705D1*
X-267289Y-484038D1*
X-267035Y-487371D1*
X-266430Y-490705D1*
X-263832Y-494038D1*
X-260648Y-497371D1*
X-257315Y-427371D2*
Y-430705D1*
Y-434038D1*
Y-437371D1*
Y-440705D1*
Y-444038D1*
Y-447371D1*
Y-450705D1*
Y-454038D1*
Y-457371D1*
Y-460705D1*
Y-464038D1*
Y-467371D1*
Y-470705D1*
Y-474038D1*
Y-477371D1*
Y-480705D1*
X-257341Y-484038D1*
X-257595Y-487371D1*
X-258200Y-490705D1*
X-260798Y-494038D1*
X-263982Y-497371D1*
X-230648Y-427371D2*
Y-430705D1*
Y-434038D1*
Y-437371D1*
Y-440705D1*
Y-444038D1*
Y-447371D1*
Y-450705D1*
Y-454038D1*
Y-457371D1*
Y-460705D1*
Y-464038D1*
Y-467371D1*
Y-470705D1*
Y-474038D1*
Y-477371D1*
Y-480705D1*
X-230622Y-484038D1*
X-230368Y-487371D1*
X-229763Y-490705D1*
X-227165Y-494038D1*
X-223982Y-497371D1*
X-220648Y-427371D2*
Y-430705D1*
Y-434038D1*
Y-437371D1*
Y-440705D1*
Y-444038D1*
Y-447371D1*
Y-450705D1*
Y-454038D1*
Y-457371D1*
Y-460705D1*
Y-464038D1*
Y-467371D1*
Y-470705D1*
Y-474038D1*
Y-477371D1*
Y-480705D1*
X-220674Y-484038D1*
X-220928Y-487371D1*
X-221534Y-490705D1*
X-224131Y-494038D1*
X-227315Y-497371D1*
X-193982Y-427371D2*
Y-430705D1*
Y-434038D1*
Y-437371D1*
Y-440705D1*
Y-444038D1*
Y-447371D1*
Y-450705D1*
Y-454038D1*
Y-457371D1*
Y-460705D1*
Y-464038D1*
Y-467371D1*
Y-470705D1*
Y-474038D1*
Y-477371D1*
Y-480705D1*
Y-484038D1*
Y-487371D1*
Y-490705D1*
Y-494038D1*
X-193995Y-497371D1*
X-194125Y-500705D1*
X-194680Y-504038D1*
X-196046Y-507371D1*
X-198381Y-510705D1*
X-201685Y-514038D1*
X-205914Y-517371D1*
X-210648Y-520705D1*
X-140648Y-427371D2*
X-148199Y-430705D1*
X-154439Y-434038D1*
X-159373Y-437371D1*
X-163449Y-440705D1*
X-166974Y-444038D1*
X-169891Y-447371D1*
X-172035Y-450705D1*
X-173602Y-454038D1*
X-174950Y-457371D1*
X-176041Y-460705D1*
X-176717Y-464038D1*
X-177061Y-467371D1*
X-177215Y-470705D1*
X-177278Y-474038D1*
X-177289Y-477371D1*
X-177180Y-480705D1*
X-176745Y-484038D1*
X-175831Y-487371D1*
X-174539Y-490705D1*
X-173029Y-494038D1*
X-171310Y-497371D1*
X-169234Y-500705D1*
X-166646Y-504038D1*
X-163549Y-507371D1*
X-159703Y-510705D1*
X-154581Y-514038D1*
X-148003Y-517371D1*
X-140648Y-520705D1*
X-113982Y-427371D2*
X-107069Y-430705D1*
X-101112Y-434038D1*
X-96371Y-437371D1*
X-92836Y-440705D1*
X-89990Y-444038D1*
X-87469Y-447371D1*
X-85291Y-450705D1*
X-83478Y-454038D1*
X-82114Y-457371D1*
X-81189Y-460705D1*
X-80278Y-464038D1*
X-78958Y-467371D1*
X-77315Y-470705D1*
X-53982Y-427371D2*
X-57059Y-430705D1*
X-59338Y-434038D1*
X-60034Y-437371D1*
X-60395Y-440705D1*
X-60552Y-444038D1*
X-60615Y-447371D1*
X-60648Y-450705D1*
X-47598Y-454038D1*
X-37394Y-457371D1*
X-33317Y-460705D1*
X-31355Y-464038D1*
X-33133Y-467371D1*
X-38215Y-470705D1*
X-44602Y-474038D1*
X-50365Y-477371D1*
X-54715Y-480705D1*
X-56285Y-484038D1*
X-56334Y-487371D1*
X-55788Y-490705D1*
X-55042Y-494038D1*
X-54490Y-497371D1*
X-54079Y-500705D1*
X-53518Y-504038D1*
X-52662Y-507371D1*
X-51786Y-510705D1*
X-51194Y-514038D1*
X-50865Y-517371D1*
X-50648Y-520705D1*
X-27315Y-427371D2*
X-21316Y-430705D1*
X-16151Y-434038D1*
X-12139Y-437371D1*
X-9193Y-440705D1*
X-7035Y-444038D1*
X-5543Y-447371D1*
X-4692Y-450705D1*
X-4277Y-454038D1*
X-4109Y-457371D1*
X-4154Y-460705D1*
X-4565Y-464038D1*
X-5483Y-467371D1*
X-6890Y-470705D1*
X-8823Y-474038D1*
X-11366Y-477371D1*
X-14518Y-480705D1*
X-18394Y-484038D1*
X-22700Y-487371D1*
X-26391Y-490705D1*
X-28847Y-494038D1*
X-30648Y-497371D1*
X-7315D1*
Y-500705D1*
Y-504038D1*
Y-507371D1*
Y-510705D1*
Y-514038D1*
Y-517371D1*
Y-520705D1*
X39352Y-427371D2*
X34493Y-430705D1*
X30319Y-434038D1*
X26939Y-437371D1*
X24320Y-440705D1*
X22309Y-444038D1*
X20877Y-447371D1*
X20049Y-450705D1*
X19643Y-454038D1*
X19465Y-457371D1*
X19393Y-460705D1*
X19366Y-464038D1*
X19357Y-467371D1*
X19353Y-470705D1*
X19352Y-474038D1*
Y-477371D1*
Y-480705D1*
Y-484038D1*
Y-487371D1*
X19365Y-490705D1*
X19482Y-494038D1*
X19920Y-497371D1*
X20848Y-500705D1*
X22258Y-504038D1*
X24206Y-507371D1*
X26850Y-510705D1*
X30295Y-514038D1*
X34585Y-517371D1*
X39352Y-520705D1*
X62685Y-427371D2*
X67557Y-430705D1*
X71835Y-434038D1*
X75522Y-437371D1*
X78515Y-440705D1*
X80595Y-444038D1*
X81871Y-447371D1*
X82852Y-450705D1*
X83889Y-454038D1*
X84838Y-457371D1*
X85455Y-460705D1*
X85777Y-464038D1*
X85923Y-467371D1*
X85983Y-470705D1*
X86006Y-474038D1*
X86014Y-477371D1*
X86004Y-480705D1*
X85888Y-484038D1*
X85463Y-487371D1*
X84652Y-490705D1*
X83680Y-494038D1*
X82661Y-497371D1*
X81423Y-500705D1*
X79872Y-504038D1*
X77866Y-507371D1*
X75200Y-510705D1*
X71746Y-514038D1*
X67453Y-517371D1*
X62685Y-520705D1*
X99352Y-427371D2*
Y-430705D1*
Y-434038D1*
Y-437371D1*
X99404Y-440705D1*
X99560Y-444038D1*
X101018Y-447371D1*
X105136Y-450705D1*
X109364Y-454038D1*
X112810Y-457371D1*
X113570Y-460705D1*
X112763Y-464038D1*
X111544Y-467371D1*
X110080Y-470705D1*
X108608Y-474038D1*
X107404Y-477371D1*
X106665Y-480705D1*
X106291Y-484038D1*
X106125Y-487371D1*
X106071Y-490705D1*
X106163Y-494038D1*
X106591Y-497371D1*
X107517Y-500705D1*
X108925Y-504038D1*
X110872Y-507371D1*
X113516Y-510705D1*
X116961Y-514038D1*
X121251Y-517371D1*
X126018Y-520705D1*
X122685Y-427371D2*
X127945Y-430705D1*
X132622Y-434038D1*
X136387Y-437371D1*
X139226Y-440705D1*
X141446Y-444038D1*
X143235Y-447371D1*
X144563Y-450705D1*
X145334Y-454038D1*
X145607Y-457371D1*
X145354Y-460705D1*
X144611Y-464038D1*
X143653Y-467371D1*
X142539Y-470705D1*
X141010Y-474038D1*
X139217Y-477371D1*
X137736Y-480705D1*
X136686Y-484038D1*
X136808Y-487371D1*
X138592Y-490705D1*
X142191Y-494038D1*
X145413Y-497371D1*
X147862Y-500705D1*
X148648Y-504038D1*
X149060Y-507371D1*
X149240Y-510705D1*
X149311Y-514038D1*
X149338Y-517371D1*
X149352Y-520705D1*
X162685Y-427371D2*
Y-430705D1*
Y-434038D1*
Y-437371D1*
Y-440705D1*
Y-444038D1*
Y-447371D1*
Y-450705D1*
Y-454038D1*
Y-457371D1*
Y-460705D1*
Y-464038D1*
Y-467371D1*
Y-470705D1*
Y-474038D1*
Y-477371D1*
Y-480705D1*
Y-484038D1*
X162698Y-487371D1*
X162815Y-490705D1*
X163253Y-494038D1*
X164182Y-497371D1*
X165591Y-500705D1*
X167526Y-504038D1*
X170056Y-507371D1*
X173114Y-510705D1*
X176786Y-514038D1*
X181185Y-517371D1*
X186018Y-520705D1*
X189352Y-427371D2*
Y-430705D1*
Y-434038D1*
Y-437371D1*
Y-440705D1*
Y-444038D1*
Y-447371D1*
Y-450705D1*
Y-454038D1*
X199352D1*
Y-457371D1*
Y-460705D1*
Y-464038D1*
Y-467371D1*
Y-470705D1*
Y-474038D1*
Y-477371D1*
Y-480705D1*
X189352D1*
X189391Y-484038D1*
X189772Y-487371D1*
X190680Y-490705D1*
X194576Y-494038D1*
X199352Y-497371D1*
X232685Y-427371D2*
Y-430705D1*
Y-434038D1*
Y-437371D1*
Y-440705D1*
Y-444038D1*
Y-447371D1*
Y-450705D1*
Y-454038D1*
Y-457371D1*
Y-460705D1*
Y-464038D1*
Y-467371D1*
Y-470705D1*
Y-474038D1*
Y-477371D1*
Y-480705D1*
Y-484038D1*
X232698Y-487371D1*
X232815Y-490705D1*
X233240Y-494038D1*
X234051Y-497371D1*
X235036Y-500705D1*
X236186Y-504038D1*
X237978Y-507371D1*
X240882Y-510705D1*
X245070Y-514038D1*
X250315Y-517371D1*
X256018Y-520705D1*
X259352Y-427371D2*
Y-430705D1*
Y-434038D1*
X259378Y-437371D1*
X259612Y-440705D1*
X260159Y-444038D1*
X261983Y-447371D1*
X263749Y-450705D1*
X264926Y-454038D1*
X265547Y-457371D1*
X265831Y-460705D1*
X265922Y-464038D1*
X265733Y-467371D1*
X265207Y-470705D1*
X263386Y-474038D1*
X261621Y-477371D1*
X260457Y-480705D1*
X259992Y-484038D1*
X260031Y-487371D1*
X262012Y-490705D1*
X266946Y-494038D1*
X272685Y-497371D1*
Y-427371D2*
Y-430705D1*
Y-434038D1*
Y-437371D1*
Y-440705D1*
Y-444038D1*
Y-447371D1*
Y-450705D1*
Y-454038D1*
Y-457371D1*
Y-460705D1*
Y-464038D1*
Y-467371D1*
Y-470705D1*
Y-474038D1*
Y-477371D1*
Y-480705D1*
X272659Y-484038D1*
X272405Y-487371D1*
X271800Y-490705D1*
X269202Y-494038D1*
X266018Y-497371D1*
X299352Y-427371D2*
Y-430705D1*
Y-434038D1*
Y-437371D1*
Y-440705D1*
Y-444038D1*
Y-447371D1*
Y-450705D1*
Y-454038D1*
Y-457371D1*
Y-460705D1*
Y-464038D1*
Y-467371D1*
Y-470705D1*
Y-474038D1*
Y-477371D1*
Y-480705D1*
Y-484038D1*
Y-487371D1*
Y-490705D1*
X299339Y-494038D1*
X299221Y-497371D1*
X298784Y-500705D1*
X297855Y-504038D1*
X296432Y-507371D1*
X294371Y-510705D1*
X291341Y-514038D1*
X287291Y-517371D1*
X282685Y-520705D1*
X-130648Y-450705D2*
X-136647Y-454038D1*
X-141799Y-457371D1*
X-145694Y-460705D1*
X-148653Y-464038D1*
X-149684Y-467371D1*
X-150227Y-470705D1*
X-150359Y-474038D1*
X-150022Y-477371D1*
X-149118Y-480705D1*
X-147527Y-484038D1*
X-145301Y-487371D1*
X-138201Y-490705D1*
X-127294Y-494038D1*
X-113982Y-497371D1*
X-120648Y-450705D2*
X-117328Y-454038D1*
X-114125Y-457371D1*
X-111346Y-460705D1*
X-109354Y-464038D1*
X-108152Y-467371D1*
X-107315Y-470705D1*
X49352Y-450705D2*
X46673Y-454038D1*
X44724Y-457371D1*
X43608Y-460705D1*
X43066Y-464038D1*
X42832Y-467371D1*
X42739Y-470705D1*
X42704Y-474038D1*
X42691Y-477371D1*
X42700Y-480705D1*
X42868Y-484038D1*
X43297Y-487371D1*
X45748Y-490705D1*
X52004Y-494038D1*
X59352Y-497371D1*
Y-450705D2*
Y-454038D1*
Y-457371D1*
Y-460705D1*
Y-464038D1*
Y-467371D1*
Y-470705D1*
Y-474038D1*
Y-477371D1*
Y-480705D1*
X59313Y-484038D1*
X58932Y-487371D1*
X58024Y-490705D1*
X54127Y-494038D1*
X49352Y-497371D1*
X-107315Y-480705D2*
X-109175Y-484038D1*
X-111564Y-487371D1*
X-117454Y-490705D1*
X-126378Y-494038D1*
X-137315Y-497371D1*
X-97315Y-480705D2*
X-80648Y-484038D1*
X-81176Y-487371D1*
X-82120Y-490705D1*
X-83421Y-494038D1*
X-84933Y-497371D1*
X-86666Y-500705D1*
X-88859Y-504038D1*
X-91886Y-507371D1*
X-95892Y-510705D1*
X-100950Y-514038D1*
X-107124Y-517371D1*
X-113982Y-520705D1*
X202685Y-494038D2*
X199352Y-497371D1*
X206018Y-494038D2*
X209867Y-497371D1*
X214027Y-500705D1*
X218232Y-504038D1*
X222200Y-507371D1*
X226018Y-510705D1*
X220903Y-514038D1*
X215266Y-517371D1*
X209352Y-520705D1*
X-243982Y-510705D2*
X-247928Y-514038D1*
X-252431Y-517371D1*
X-257315Y-520705D1*
X-247315Y-510705D2*
X-241261Y-514038D1*
X-235764Y-517371D1*
X-230648Y-520705D1*
X-987981Y822152D2*
D74*
X-955131D1*
X-944265Y818530D1*
X-940559Y814824D1*
X-936937Y807580D1*
Y796630D1*
X-940559Y789386D1*
X-944265Y785680D1*
X-955131Y782058D1*
X-987981D1*
Y858624D1*
X-913408Y782058D2*
X-895130Y858624D1*
X-876936Y782058D1*
X-858742Y858624D1*
X-840464Y782058D1*
X-765891Y793008D2*
X-773134Y785680D1*
X-784084Y782058D1*
X-798656D1*
X-809606Y785680D1*
X-816934Y793008D1*
Y800252D1*
X-813228Y807580D1*
X-809606Y811202D1*
X-802362Y814824D1*
X-780462Y822152D1*
X-773134Y825774D1*
X-769512Y829480D1*
X-765891Y836724D1*
Y847674D1*
X-773134Y854918D1*
X-784084Y858624D1*
X-798656D1*
X-809606Y854918D1*
X-816934Y847674D1*
X-695023Y782058D2*
X-742361D1*
Y858624D1*
X-695023D1*
X-742361Y818530D2*
X-713217D1*
X-671494Y782058D2*
Y858624D1*
X-596921Y782058D2*
Y858624D1*
X-647965Y782058D1*
Y858624D1*
X-573391Y782058D2*
Y858624D1*
X-522348Y782058D2*
X-573391Y833102D1*
X-555198Y814824D2*
X-522348Y858624D1*
X-498818Y796715D2*
X-491490Y793008D1*
X-480540Y782143D1*
Y858624D1*
X-435111Y782143D2*
X-446061Y785765D1*
X-453389Y796715D1*
X-457011Y814908D1*
Y825858D1*
X-453389Y844052D1*
X-446061Y855002D1*
X-435111Y858624D1*
X-427867D1*
X-416917Y855002D1*
X-409673Y844052D1*
X-405967Y825858D1*
Y814908D1*
X-409673Y796715D1*
X-416917Y785765D1*
X-427867Y782143D1*
X-435111D1*
X-409673Y796715D2*
X-453389Y844052D1*
X-378731Y800336D2*
Y796715D1*
X-375109Y789386D1*
X-371487Y785765D1*
X-364159Y782143D1*
X-349587D1*
X-342344Y785765D1*
X-338722Y789386D1*
X-335015Y796715D1*
Y803958D1*
X-338722Y811286D1*
X-345965Y822152D1*
X-382437Y858624D1*
X-331394D1*
X-307864Y871259D2*
X-238626D1*
X-215097Y782058D2*
X-185953Y858624D1*
X-156809Y782058D1*
X-133280Y796715D2*
X-125952Y793008D1*
X-115002Y782143D1*
Y858624D1*
X-87851Y851296D2*
X-91472Y855002D1*
X-87851Y858624D1*
X-84144Y855002D1*
X-87851Y851296D1*
X-38715Y782143D2*
X-49665Y785765D1*
X-56993Y796715D1*
X-60615Y814908D1*
Y825858D1*
X-56993Y844052D1*
X-49665Y855002D1*
X-38715Y858624D1*
X-31471D1*
X-20521Y855002D1*
X-13277Y844052D1*
X-9571Y825858D1*
Y814908D1*
X-13277Y796715D1*
X-20521Y785765D1*
X-31471Y782143D1*
X-38715D1*
X-13277Y796715D2*
X-56993Y844052D1*
X88026Y807580D2*
Y858624D1*
Y829480D2*
X91732Y818530D1*
X98976Y811202D1*
X106304Y807580D1*
X117254D1*
X140784Y829480D2*
X184499D1*
Y822152D1*
X180878Y814824D1*
X177256Y811202D1*
X169928Y807580D1*
X158978D1*
X151734Y811202D1*
X144406Y818530D1*
X140784Y829480D1*
Y836724D1*
X144406Y847674D1*
X151734Y854918D1*
X158978Y858624D1*
X169928D1*
X177256Y854918D1*
X184499Y847674D1*
X208029Y807580D2*
X229929Y858624D1*
X251745Y807580D1*
X278980Y800336D2*
Y796715D1*
X282602Y789387D1*
X286224Y785765D1*
X293552Y782143D1*
X308124D1*
X315368Y785765D1*
X318990Y789387D1*
X322696Y796715D1*
Y803958D1*
X318990Y811286D1*
X311746Y822152D1*
X275274Y858624D1*
X326318D1*
X423915Y762096D2*
Y878671D1*
X543412Y782143D2*
X532462Y785765D1*
X525134Y796715D1*
X521512Y814908D1*
Y825858D1*
X525134Y844052D1*
X532462Y855002D1*
X543412Y858624D1*
X550656D1*
X561606Y855002D1*
X568850Y844052D1*
X572556Y825858D1*
Y814908D1*
X568850Y796715D1*
X561606Y785765D1*
X550656Y782143D1*
X543412D1*
X568850Y796715D2*
X525134Y844052D1*
X603414Y782143D2*
X643423D1*
X621608Y811287D1*
X632558D1*
X639801Y814908D1*
X643423Y818530D1*
X647130Y829480D1*
Y836724D1*
X643423Y847674D1*
X636180Y855002D1*
X625230Y858624D1*
X614280D1*
X603414Y855002D1*
X599792Y851296D1*
X596086Y844052D1*
X674281Y851296D2*
X670659Y855002D1*
X674281Y858624D1*
X677987Y855002D1*
X674281Y851296D1*
X705223Y800337D2*
Y796715D1*
X708844Y789387D1*
X712466Y785765D1*
X719794Y782143D1*
X734366D1*
X741610Y785765D1*
X745232Y789387D1*
X748938Y796715D1*
Y803958D1*
X745232Y811287D1*
X737988Y822152D1*
X701516Y858624D1*
X752560D1*
X797990Y782143D2*
X787040Y785765D1*
X779712Y796715D1*
X776090Y814909D1*
Y825858D1*
X779712Y844052D1*
X787040Y855002D1*
X797990Y858624D1*
X805234D1*
X816184Y855002D1*
X823427Y844052D1*
X827133Y825859D1*
Y814909D1*
X823427Y796715D1*
X816183Y785765D1*
X805233Y782143D1*
X797990D1*
X823427Y796715D2*
X779712Y844052D1*
X854369Y800337D2*
Y796715D1*
X857991Y789387D1*
X861613Y785765D1*
X868941Y782143D1*
X883513D1*
X890757Y785765D1*
X894378Y789387D1*
X898085Y796715D1*
Y803959D1*
X894379Y811287D1*
X887135Y822152D1*
X850663Y858624D1*
X901707D1*
X925236Y796715D2*
X932564Y793008D1*
X943514Y782143D1*
Y858624D1*
X-362008Y1335342D2*
Y1393629D1*
X-365630Y1404579D1*
X-369336Y1408201D1*
X-376580Y1411907D1*
X-383908D1*
X-391152Y1408201D1*
X-394774Y1404579D1*
X-398480Y1393629D1*
Y1386386D1*
X-338478Y1335342D2*
Y1411907D1*
X-294763D1*
X-216567Y1353536D2*
X-220189Y1346292D1*
X-227517Y1338964D1*
X-234761Y1335342D1*
X-249333D1*
X-256661Y1338964D1*
X-263905Y1346292D1*
X-267611Y1353536D1*
X-271233Y1364486D1*
Y1382764D1*
X-267611Y1393629D1*
X-263905Y1400958D1*
X-256661Y1408201D1*
X-249333Y1411907D1*
X-234761D1*
X-227517Y1408201D1*
X-220189Y1400958D1*
X-216567Y1393629D1*
X-156566Y1335342D2*
Y1393629D1*
X-160188Y1404579D1*
X-163894Y1408201D1*
X-171138Y1411907D1*
X-178466D1*
X-185710Y1408201D1*
X-189332Y1404579D1*
X-193038Y1393629D1*
Y1386386D1*
X-133037Y1335342D2*
Y1411907D1*
X-89321Y1411908D1*
X-11126Y1353536D2*
X-14748Y1346292D1*
X-22076Y1338964D1*
X-29320Y1335342D1*
X-43892D1*
X-51220Y1338964D1*
X-58463Y1346292D1*
X-62170Y1353536D1*
X-65792Y1364486D1*
Y1382764D1*
X-62170Y1393629D1*
X-58463Y1400958D1*
X-51220Y1408201D1*
X-43892Y1411908D1*
X-29320D1*
X-22076Y1408201D1*
X-14748Y1400958D1*
X-11126Y1393629D1*
X48876Y1335342D2*
Y1393629D1*
X45254Y1404579D1*
X41548Y1408201D1*
X34304Y1411908D1*
X26976D1*
X19732Y1408201D1*
X16110Y1404579D1*
X12404Y1393629D1*
Y1386386D1*
X72405Y1335342D2*
Y1411908D1*
X116121D1*
X194316Y1353536D2*
X190694Y1346292D1*
X183366Y1338964D1*
X176122Y1335342D1*
X161550D1*
X154222Y1338964D1*
X146978Y1346292D1*
X143272Y1353536D1*
X139650Y1364486D1*
Y1382764D1*
X143272Y1393629D1*
X146978Y1400958D1*
X154222Y1408201D1*
X161550Y1411908D1*
X176122D1*
X183366Y1408201D1*
X190694Y1400958D1*
X194316Y1393629D1*
X254317Y1335342D2*
Y1393630D1*
X250695Y1404579D1*
X246989Y1408201D1*
X239745Y1411908D1*
X232417D1*
X225173Y1408201D1*
X221552Y1404579D1*
X217845Y1393629D1*
Y1386386D1*
X277847Y1335342D2*
Y1411908D1*
X321562D1*
X399757Y1353536D2*
X396135Y1346292D1*
X388807Y1338964D1*
X381563Y1335342D1*
X366992D1*
X359664Y1338964D1*
X352420Y1346292D1*
X348714Y1353536D1*
X345092Y1364486D1*
Y1382764D1*
X348714Y1393630D1*
X352420Y1400958D1*
X359664Y1408201D1*
X366992Y1411908D1*
X381564D1*
X388807Y1408201D1*
X396135Y1400958D1*
X399757Y1393629D1*
M02*
