G04 DipTrace 3.2.0.1*
G04 BottomPaste.gbr*
%MOMM*%
G04 #@! TF.FileFunction,Paste,Bot*
G04 #@! TF.Part,Single*
%ADD51R,2.1X0.6*%
%ADD53R,0.75X0.9*%
%ADD63R,0.45X0.85*%
%ADD71R,0.9X0.8*%
%ADD73R,0.8X0.9*%
%FSLAX35Y35*%
G04*
G71*
G90*
G75*
G01*
G04 BotPaste*
%LPD*%
D73*
X-325463Y2042887D3*
Y2212887D3*
D71*
X-358043Y2587177D3*
X-528043D3*
D73*
X1168487Y763620D3*
Y933620D3*
X-1167770Y929203D3*
Y759203D3*
D63*
X95200Y2167190D3*
X-94800D3*
X200Y2397190D3*
D71*
X87150Y1991823D3*
X-82850D3*
D73*
X306373Y2199010D3*
Y2029010D3*
D71*
X1126237Y-144770D3*
X956237D3*
X-944417Y-158057D3*
X-1114417D3*
X-526863Y2405080D3*
X-356863D3*
D53*
X965000Y612500D3*
X1135000D3*
X965000Y57500D3*
X1135000D3*
X-1135000Y612500D3*
X-965000D3*
X-1135000Y57500D3*
X-965000D3*
D51*
X630000Y61000D3*
X-630000D3*
Y-66000D3*
Y-193000D3*
Y-320000D3*
Y-447000D3*
Y-574000D3*
Y-701000D3*
Y-828000D3*
Y-955000D3*
X630000Y-66000D3*
Y-193000D3*
Y-320000D3*
Y-447000D3*
Y-574000D3*
Y-701000D3*
Y-828000D3*
Y-955000D3*
M02*
