G04 DipTrace 3.2.0.1*
G04 BottomMask.gbr*
%MOMM*%
G04 #@! TF.FileFunction,Soldermask,Bot*
G04 #@! TF.Part,Single*
%ADD41C,0.7*%
%ADD50R,2.5X1.0*%
%ADD52R,1.15X1.3*%
%ADD56C,1.25*%
%ADD62R,0.85X1.25*%
%ADD64C,1.8*%
%ADD70R,1.3X1.2*%
%ADD72R,1.2X1.3*%
%FSLAX35Y35*%
G04*
G71*
G90*
G75*
G01*
G04 BotMask*
%LPD*%
D72*
X-325463Y2042887D3*
Y2212887D3*
D70*
X-358043Y2587177D3*
X-528043D3*
D72*
X1168487Y763620D3*
Y933620D3*
X-1167770Y929203D3*
Y759203D3*
D64*
X-1170000Y1670000D3*
Y1870000D3*
Y2070000D3*
X1170000Y1670000D3*
Y1870000D3*
Y2070000D3*
X-1170000Y-980000D3*
X1170000D3*
D62*
X95200Y2167190D3*
X-94800D3*
X200Y2397190D3*
D70*
X87150Y1991823D3*
X-82850D3*
D72*
X306373Y2199010D3*
Y2029010D3*
D70*
X1126237Y-144770D3*
X956237D3*
X-944417Y-158057D3*
X-1114417D3*
X-526863Y2405080D3*
X-356863D3*
D56*
X902457Y-1171640D3*
Y-1044640D3*
Y-1298640D3*
Y-917640D3*
X-888500Y-1158000D3*
D52*
X965000Y612500D3*
X1135000D3*
X965000Y57500D3*
X1135000D3*
D41*
X915000Y335000D3*
X1185000D3*
D52*
X-1135000Y612500D3*
X-965000D3*
X-1135000Y57500D3*
X-965000D3*
D41*
X-1185000Y335000D3*
X-915000D3*
D50*
X630000Y61000D3*
X-630000D3*
Y-66000D3*
Y-193000D3*
Y-320000D3*
Y-447000D3*
Y-574000D3*
Y-701000D3*
Y-828000D3*
Y-955000D3*
X630000Y-66000D3*
Y-193000D3*
Y-320000D3*
Y-447000D3*
Y-574000D3*
Y-701000D3*
Y-828000D3*
Y-955000D3*
D56*
X-885000Y-1288500D3*
M02*
