M48
METRIC,0000.00
T01C0.3
T02C0.4
T03C0.5
T04C0.65
T05C0.7
T06C0.8
%
T01
X-000407Y+002239
X-000617Y+002090
X-000740Y+002083
X-000846Y+002085
X-000731Y+001975
X-000731Y+001866
X-000645Y+001784
X-000389Y+001858
X-000305Y+001497
X-000303Y+001419
X-000305Y+001339
X-000092Y+001333
X-000092Y+001407
X-000096Y+001484
X+000307Y+001443
X+000309Y+001367
X+000307Y+001288
X+000307Y+000998
X+000307Y+000891
X+000307Y+000780
X+000304Y+000586
X+000299Y+000469
X+000304Y+000338
X+000678Y+000453
X+000678Y+000567
X+000685Y+000675
X+000891Y+000896
X+000957Y+000935
X+000957Y+000855
X+000681Y+001086
X-000102Y+000758
X-000108Y+000616
X-000108Y+000488
X-000116Y+000368
X-000110Y+000226
X-000293Y+000292
X-000298Y+000417
X-000296Y+000545
X-000296Y+000812
X-000627Y+000728
X-000679Y+000492
X-000674Y+000235
X-000726Y+000949
X-000818Y+000953
X-000904Y+000943
X-000816Y+001052
X-000626Y+002410
X-000614Y+002520
X-000387Y+002499
X+000123Y+002285
X+000446Y+002243
X+000449Y+002170
X+000826Y+002242
X+000633Y+002577
X+000424Y+002619
X+000703Y+003034
X+000818Y+003032
X+000920Y+003034
X-000709Y+003028
X-000814Y+003029
X-000922Y+003032
X+000678Y+000186
X+000104Y-000342
X+000161Y-000410
X+000005Y-000576
X-000301Y-000568
X+000324Y-000574
X+000399Y-000576
X+000871Y-000665
X+000777Y-000959
T02
X-000494Y+001967
X-000302Y+001073
T03
X+000541Y+001638
X+000437Y-000054
T04
X+000902Y-001172
X+000902Y-001045
X+000902Y-000918
X+000902Y-001299
X-000885Y-001288
X-000888Y-001158
T05
X+000915Y+000335
X+001185Y+000335
X-000915Y+000335
X-001185Y+000335
T06
X-001170Y+001670
X-001170Y+001870
X-001170Y+002070
X+001170Y+002070
X+001170Y+001870
X+001170Y+001670
X+001170Y-000980
X-001170Y-000980
T00
M30
