G04 DipTrace 3.2.0.1*
G04 TopMask.gbr*
%MOMM*%
G04 #@! TF.FileFunction,Soldermask,Top*
G04 #@! TF.Part,Single*
%ADD41C,0.7*%
%ADD54R,2.2X0.8*%
%ADD56C,1.25*%
%ADD58C,17.2*%
%ADD60R,7.2X3.3*%
%ADD64C,1.8*%
%ADD66R,0.8X0.8*%
%ADD68R,3.6X2.1*%
%ADD70R,1.3X1.2*%
%ADD72R,1.2X1.3*%
%FSLAX35Y35*%
G04*
G71*
G90*
G75*
G01*
G04 TopMask*
%LPD*%
D70*
X-617600Y2615157D3*
X-447600D3*
X569687Y2409503D3*
X739687D3*
D68*
X776000Y1639467D3*
Y2029467D3*
D66*
X306357Y2804583D3*
X86357D3*
D64*
X-1170000Y1670000D3*
Y1870000D3*
Y2070000D3*
X1170000Y1670000D3*
Y1870000D3*
Y2070000D3*
X-1170000Y-980000D3*
X1170000D3*
D72*
X-535777Y2235613D3*
Y2405613D3*
D70*
X-313510Y2802007D3*
X-143510D3*
X567437Y2236083D3*
X737437D3*
D60*
X0Y1755500D3*
Y-1080500D3*
D58*
Y337500D3*
D56*
X902457Y-1171640D3*
Y-1044640D3*
Y-1298640D3*
Y-917640D3*
X-888500Y-1158000D3*
D54*
X290620Y2622270D3*
Y2368270D3*
Y2495270D3*
Y2241270D3*
X-249380D3*
Y2368270D3*
Y2495270D3*
Y2622270D3*
D41*
X915000Y335000D3*
X1185000D3*
X-1185000D3*
X-915000D3*
D56*
X-885000Y-1288500D3*
M02*
